<svg                      
    width="24"
    height="25"
    viewBox="0 0 24 25"
    fill="none"
    xmlns="http://www.w3.org/2000/svg"
>
    <path
    d="M22 9.37497V7.37497H20V9.37497H18V11.375H20V13.375H22V11.375H24V9.37497H22Z"
    fill="#49454E"
    />
    <path
    d="M8 12.375C10.21 12.375 12 10.585 12 8.37497C12 6.16497 10.21 4.37497 8 4.37497C5.79 4.37497 4 6.16497 4 8.37497C4 10.585 5.79 12.375 8 12.375ZM8 6.37497C9.1 6.37497 10 7.27497 10 8.37497C10 9.47497 9.1 10.375 8 10.375C6.9 10.375 6 9.47497 6 8.37497C6 7.27497 6.9 6.37497 8 6.37497Z"
    fill="#49454E"
    />
    <path
    d="M8 13.375C5.33 13.375 0 14.715 0 17.375V20.375H16V17.375C16 14.715 10.67 13.375 8 13.375ZM14 18.375H2V17.385C2.2 16.665 5.3 15.375 8 15.375C10.7 15.375 13.8 16.665 14 17.375V18.375Z"
    fill="#49454E"
    />
    <path
    d="M12.51 4.42497C13.43 5.48497 14 6.86497 14 8.37497C14 9.88497 13.43 11.265 12.51 12.325C14.47 12.075 16 10.415 16 8.37497C16 6.33497 14.47 4.67497 12.51 4.42497Z"
    fill="#49454E"
    />
    <path
    d="M16.53 14.205C17.42 15.035 18 16.075 18 17.375V20.375H20V17.375C20 15.925 18.41 14.865 16.53 14.205Z"
    fill="#49454E"
    />
</svg>