 <svg className="like-tsp" width="24" height="25" viewBox="0 0 24 25" fill="none" xmlns="http://www.w3.org/2000/svg">
    <path
    d="M3.11507 3.37998L1.69507 4.78998L3.96507 7.05998C2.91507 8.63998 2.30507 10.53 2.30507 12.57C2.30507 18.09 6.78507 22.57 12.3051 22.57C14.3451 22.57 16.2351 21.96 17.8151 20.91L20.0851 23.18L21.4951 21.77L3.11507 3.37998ZM12.3051 20.57C7.89507 20.57 4.30507 16.98 4.30507 12.57C4.30507 11.09 4.71507 9.70998 5.42507 8.50998L16.3651 19.45C15.1651 20.16 13.7851 20.57 12.3051 20.57ZM8.24507 5.68998L6.79507 4.22998C8.37507 3.17998 10.2651 2.56998 12.3051 2.56998C17.8251 2.56998 22.3051 7.04998 22.3051 12.57C22.3051 14.61 21.6951 16.5 20.6451 18.08L19.1851 16.62C19.8951 15.43 20.3051 14.05 20.3051 12.57C20.3051 8.15998 16.7151 4.56998 12.3051 4.56998C10.8251 4.56998 9.44507 4.97998 8.24507 5.68998Z"
    fill="#49454E"
    />
</svg>