<svg width="24" height="25" viewBox="0 0 24 25" fill="none" xmlns="http://www.w3.org/2000/svg">
<path d="M4.33993 3.55997L2.92993 4.96997L7.28993 9.32997L6.99993 9.62997H2.99993V15.63H6.99993L11.9999 20.63V14.04L16.1799 18.22C15.5299 18.71 14.7999 19.1 13.9999 19.33V21.39C15.3399 21.09 16.5699 20.47 17.6099 19.64L19.6599 21.69L21.0699 20.28L4.33993 3.55997ZM9.99993 15.8L7.82993 13.63H4.99993V11.63H7.82993L8.70993 10.75L9.99993 12.04V15.8ZM18.9999 12.63C18.9999 13.45 18.8499 14.24 18.5899 14.97L20.1199 16.5C20.6799 15.33 20.9999 14.02 20.9999 12.63C20.9999 8.34997 18.0099 4.76997 13.9999 3.85997V5.91997C16.8899 6.77997 18.9999 9.45997 18.9999 12.63ZM11.9999 4.62997L10.1199 6.50997L11.9999 8.38997V4.62997ZM16.4999 12.63C16.4999 10.86 15.4799 9.33997 13.9999 8.59997V10.39L16.4799 12.87C16.4899 12.79 16.4999 12.71 16.4999 12.63Z" fill="#49454E"/>
</svg>
