<svg width="24" height="25" viewBox="0 0 24 25" fill="none" xmlns="http://www.w3.org/2000/svg"  >
<path d="M12 22.625C13.1 22.625 14 21.725 14 20.625H10C10 21.725 10.9 22.625 12 22.625ZM18 16.625V11.625C18 8.55497 16.37 5.98497 13.5 5.30497V4.62497C13.5 3.79497 12.83 3.12497 12 3.12497C11.17 3.12497 10.5 3.79497 10.5 4.62497V5.30497C7.64 5.98497 6 8.54497 6 11.625V16.625L4 18.625V19.625H20V18.625L18 16.625ZM16 17.625H8V11.625C8 9.14497 9.51 7.12497 12 7.12497C14.49 7.12497 16 9.14497 16 11.625V17.625Z" fill="#49454E" />
</svg>