<svg width="24" height="25" viewBox="0 0 24 25" fill="none" xmlns="http://www.w3.org/2000/svg">
<path d="M10.01 20.885C10.01 21.985 10.9 22.875 12 22.875C13.1 22.875 13.99 21.985 13.99 20.885H10.01ZM12 5.87497C14.76 5.87497 17 8.11497 17 10.875V17.875H7V10.875C7 8.11497 9.24 5.87497 12 5.87497ZM12 1.37497C11.17 1.37497 10.5 2.04497 10.5 2.87497V4.04497C7.36 4.72497 5 7.52497 5 10.875V16.875L3 18.875V19.875H21V18.875L19 16.875V10.875C19 7.52497 16.64 4.72497 13.5 4.04497V2.87497C13.5 2.04497 12.83 1.37497 12 1.37497ZM11 7.87497H13V11.875H11V7.87497ZM11 13.875H13V15.875H11V13.875Z" fill="#49454E"/>
</svg>
