<svg className="like-tsp" width="24" height="22" viewBox="0 0 24 22" fill="none" xmlns="http://www.w3.org/2000/svg">
<path d="M15.155 6.66997C15.155 5.24997 14.655 3.93997 13.825 2.90997C14.245 2.76997 14.685 2.66997 15.155 2.66997C17.365 2.66997 19.155 4.45997 19.155 6.66997C19.155 8.87997 17.365 10.67 15.155 10.67C15.095 10.67 15.035 10.67 14.975 10.67L14.205 9.89997C14.805 8.95997 15.155 7.84997 15.155 6.66997ZM22.985 18.67H23.155V15.67C23.155 13.49 19.575 12.2 16.815 11.8C17.915 12.55 18.765 13.51 19.045 14.74L22.985 18.67ZM9.15497 4.66997C9.09497 4.66997 9.04497 4.66997 8.99497 4.67997L7.39497 3.07997C7.92497 2.81997 8.52497 2.66997 9.15497 2.66997C11.365 2.66997 13.155 4.45997 13.155 6.66997C13.155 7.29997 13.005 7.89997 12.745 8.42997L11.145 6.82997C11.155 6.77997 11.155 6.72997 11.155 6.66997C11.155 5.56997 10.255 4.66997 9.15497 4.66997ZM9.32497 10.67C9.26497 10.67 9.21497 10.67 9.15497 10.67C6.94497 10.67 5.15497 8.87997 5.15497 6.66997C5.15497 6.60997 5.15497 6.55997 5.15497 6.49997L0.844971 2.17997L2.25497 0.769974L22.055 20.57L20.645 21.98L17.155 18.5V18.67H1.15497V15.67C1.15497 13.01 6.48497 11.67 9.15497 11.67C9.52497 11.67 9.95497 11.7 10.405 11.75L9.32497 10.67ZM9.15497 13.67C6.45497 13.67 3.35497 14.96 3.15497 15.68V16.67H15.155V16.5L13.045 14.39C11.915 13.98 10.485 13.67 9.15497 13.67Z" fill="#49454E"/>
</svg>
