<svg className="like-tsp" width="24" height="25" viewBox="0 0 24 25" fill="none" xmlns="http://www.w3.org/2000/svg">
<path d="M3 9.37497V15.375H7L12 20.375V4.37497L7 9.37497H3ZM10 9.20497V15.545L7.83 13.375H5V11.375H7.83L10 9.20497ZM16.5 12.375C16.5 10.605 15.48 9.08496 14 8.34496V16.395C15.48 15.665 16.5 14.145 16.5 12.375ZM14 3.60497V5.66497C16.89 6.52497 19 9.20497 19 12.375C19 15.545 16.89 18.225 14 19.085V21.145C18.01 20.235 21 16.655 21 12.375C21 8.09497 18.01 4.51497 14 3.60497Z" fill="#49454E"/>
</svg>
