<svg width="101" height="100" viewBox="0 0 101 100" fill="none" xmlns="http://www.w3.org/2000/svg">
<path d="M72.375 39.0625V32.8125V10.9375H28.625V32.8125V39.0625H9.875V48.4375V57.8125V67.1875V76.5625V85.9375V95.3125H28.625H39.5625V76.5625H50.5H61.4375V95.3125H72.375H91.125V85.9375V76.5625V67.1875V57.8125V48.4375V39.0625H72.375Z" fill="#AFD4F1"/>
<path d="M63 28.125H38V31.25H63V28.125Z" fill="#0F6BBF"/>
<path d="M63 18.75H38V21.875H63V18.75Z" fill="#0F6BBF"/>
<path d="M63 37.5H38V40.625H63V37.5Z" fill="#0F6BBF"/>
<path d="M63 46.875H38V50H63V46.875Z" fill="#0F6BBF"/>
<path d="M63 56.25H38V59.375H63V56.25Z" fill="#0F6BBF"/>
<path d="M63 65.625H38V68.75H63V65.625Z" fill="#0F6BBF"/>
<path d="M92.6875 93.75V40.625H94.25C94.6644 40.625 95.0618 40.4604 95.3549 40.1674C95.6479 39.8743 95.8125 39.4769 95.8125 39.0625V32.8125C95.8125 32.3981 95.6479 32.0007 95.3549 31.7076C95.0618 31.4146 94.6644 31.25 94.25 31.25H73.9375V12.5H77.0625C77.4769 12.5 77.8743 12.3354 78.1674 12.0424C78.4604 11.7493 78.625 11.3519 78.625 10.9375V4.6875C78.625 4.2731 78.4604 3.87567 78.1674 3.58265C77.8743 3.28962 77.4769 3.125 77.0625 3.125H23.9375C23.5231 3.125 23.1257 3.28962 22.8326 3.58265C22.5396 3.87567 22.375 4.2731 22.375 4.6875V10.9375C22.375 11.3519 22.5396 11.7493 22.8326 12.0424C23.1257 12.3354 23.5231 12.5 23.9375 12.5H27.0625V31.25H6.75C6.3356 31.25 5.93817 31.4146 5.64515 31.7076C5.35212 32.0007 5.1875 32.3981 5.1875 32.8125V39.0625C5.1875 39.4769 5.35212 39.8743 5.64515 40.1674C5.93817 40.4604 6.3356 40.625 6.75 40.625H8.3125V93.75H3.625V96.875H97.375V93.75H92.6875ZM92.6875 34.375V37.5H73.9375V34.375H92.6875ZM25.5 6.25H75.5V9.375H25.5V6.25ZM8.3125 34.375H27.0625V37.5H8.3125V34.375ZM41.125 93.75V78.125H48.9375V93.75H41.125ZM52.0625 93.75V78.125H59.875V93.75H52.0625ZM72.375 93.75H63V76.5625C63 76.1481 62.8354 75.7507 62.5424 75.4576C62.2493 75.1646 61.8519 75 61.4375 75H39.5625C39.1481 75 38.7507 75.1646 38.4576 75.4576C38.1646 75.7507 38 76.1481 38 76.5625V93.75H11.4375V87.5H27.0625V84.375H11.4375V78.125H27.0625V75H11.4375V68.75H27.0625V65.625H11.4375V59.375H27.0625V56.25H11.4375V50H27.0625V46.875H11.4375V40.625H28.625C29.0394 40.625 29.4368 40.4604 29.7299 40.1674C30.0229 39.8743 30.1875 39.4769 30.1875 39.0625V12.5H70.8125V39.0625C70.8125 39.4769 70.9771 39.8743 71.2701 40.1674C71.5632 40.4604 71.9606 40.625 72.375 40.625H89.5625V46.875H73.9375V50H89.5625V56.25H73.9375V59.375H89.5625V65.625H73.9375V68.75H89.5625V75H73.9375V78.125H89.5625V84.375H73.9375V87.5H89.5625V93.75H72.375Z" fill="#0F6BBF"/>
</svg>
