<svg width="60" height="60" viewBox="0 0 60 60" fill="none" xmlns="http://www.w3.org/2000/svg">
<path d="M40.8506 44.7487C42.9061 44.2953 45.0045 44.0652 47.1094 44.0625H54.1406C55.446 44.0625 56.6979 44.5811 57.6209 45.5041C58.5439 46.4271 59.0625 47.679 59.0625 48.9844V57.1875C59.0625 57.6848 58.865 58.1617 58.5133 58.5133C58.1617 58.865 57.6848 59.0625 57.1875 59.0625H40.3125L40.8506 44.7487Z" fill="#84C0F8"/>
<path d="M19.6875 59.0625H2.8125C2.31522 59.0625 1.83831 58.865 1.48667 58.5133C1.13504 58.1617 0.9375 57.6848 0.9375 57.1875V48.9844C0.9375 47.679 1.45605 46.4271 2.37908 45.5041C3.30211 44.5811 4.55401 44.0625 5.85938 44.0625H12.8906C14.9976 44.0654 17.0979 44.2968 19.155 44.7525L19.6875 59.0625Z" fill="#84C0F8"/>
<path d="M33.5925 37.5C36.7696 37.5 39.8166 38.7621 42.0632 41.0087C44.3098 43.2552 45.5719 46.3022 45.5719 49.4794V54.27C45.5719 55.5407 45.0672 56.7594 44.1689 57.6581C43.2705 58.5569 42.052 59.062 40.7813 59.0625H19.2188C17.9477 59.0625 16.7287 58.5576 15.83 57.6588C14.9312 56.76 14.4263 55.541 14.4263 54.27V49.4794C14.4263 47.9061 14.7362 46.3482 15.3383 44.8946C15.9405 43.4411 16.823 42.1204 17.9356 41.008C19.0482 39.8956 20.369 39.0132 21.8226 38.4113C23.2763 37.8094 24.8342 37.4998 26.4075 37.5H33.5944H33.5925Z" fill="#3182CC"/>
<path d="M33.5944 32.707V36.3014C33.5944 37.2547 33.2157 38.1689 32.5416 38.843C31.8675 39.5171 30.9533 39.8958 30 39.8958C29.528 39.8958 29.0606 39.8028 28.6245 39.6222C28.1884 39.4415 27.7922 39.1768 27.4584 38.843C27.1246 38.5092 26.8599 38.113 26.6792 37.6769C26.4986 37.2408 26.4056 36.7734 26.4056 36.3014V32.707H33.5944Z" fill="#FDC47B"/>
<path d="M30 34.5825C34.6309 34.5825 38.385 30.8284 38.385 26.1975C38.385 21.5666 34.6309 17.8125 30 17.8125C25.3691 17.8125 21.615 21.5666 21.615 26.1975C21.615 30.8284 25.3691 34.5825 30 34.5825Z" fill="#57565D"/>
<path d="M38.1094 25.2616L29.9887 22.9554C29.1875 22.7276 28.3332 22.7731 27.5606 23.0848L22.1625 25.2616L21.6787 25.5579C21.6619 25.7735 21.615 25.9779 21.615 26.1973C21.615 27.2984 21.8319 28.3888 22.2533 29.4061C22.6746 30.4234 23.2923 31.3477 24.0709 32.1264C24.8495 32.905 25.7739 33.5226 26.7912 33.944C27.8085 34.3654 28.8989 34.5823 30 34.5823C31.1011 34.5823 32.1915 34.3654 33.2088 33.944C34.2261 33.5226 35.1505 32.905 35.9291 32.1264C36.7077 31.3477 37.3253 30.4234 37.7467 29.4061C38.1681 28.3888 38.385 27.2984 38.385 26.1973C38.371 25.9122 38.3422 25.6281 38.2987 25.346L38.1094 25.2616Z" fill="#FFD9AA"/>
<path d="M53.4375 40.3125V43.125C53.4375 43.8709 53.1412 44.5863 52.6137 45.1137C52.0863 45.6412 51.3709 45.9375 50.625 45.9375C49.8791 45.9375 49.1637 45.6412 48.6363 45.1137C48.1088 44.5863 47.8125 43.8709 47.8125 43.125V40.3125H53.4375Z" fill="#FDC47B"/>
<path d="M50.625 42.1875C54.2494 42.1875 57.1875 39.2494 57.1875 35.625C57.1875 32.0006 54.2494 29.0625 50.625 29.0625C47.0006 29.0625 44.0625 32.0006 44.0625 35.625C44.0625 39.2494 47.0006 42.1875 50.625 42.1875Z" fill="#57565D"/>
<path d="M56.5163 34.7618L50.8913 33.1624C50.09 32.9347 49.2357 32.9802 48.4631 33.2918L44.6063 34.848L44.1281 35.0356C44.1113 35.2231 44.07 35.4218 44.07 35.6224C44.07 37.3629 44.7614 39.0321 45.9921 40.2628C47.2228 41.4935 48.892 42.1849 50.6325 42.1849C52.373 42.1849 54.0422 41.4935 55.2729 40.2628C56.5036 39.0321 57.195 37.3629 57.195 35.6224C57.195 35.4049 57.1519 35.2005 57.1313 34.9887L56.5163 34.7618Z" fill="#FFD9AA"/>
<path d="M12.1875 40.3125V43.125C12.1875 43.8709 11.8912 44.5863 11.3637 45.1137C10.8363 45.6412 10.1209 45.9375 9.375 45.9375C8.62908 45.9375 7.91371 45.6412 7.38626 45.1137C6.85882 44.5863 6.5625 43.8709 6.5625 43.125V40.3125H12.1875Z" fill="#FCC37A"/>
<path d="M5.625 32.8125C7.69607 32.8125 9.375 31.1336 9.375 29.0625C9.375 26.9914 7.69607 25.3125 5.625 25.3125C3.55393 25.3125 1.875 26.9914 1.875 29.0625C1.875 31.1336 3.55393 32.8125 5.625 32.8125Z" fill="#4C4C51"/>
<path d="M9.375 42.1875C12.9994 42.1875 15.9375 39.2494 15.9375 35.625C15.9375 32.0006 12.9994 29.0625 9.375 29.0625C5.75063 29.0625 2.8125 32.0006 2.8125 35.625C2.8125 39.2494 5.75063 42.1875 9.375 42.1875Z" fill="#57565D"/>
<path d="M10.3125 33.918C7.95687 34.96 5.40503 35.4843 2.82937 35.4555C2.82937 35.5136 2.8125 35.5661 2.8125 35.6242C2.8125 37.3647 3.5039 39.0339 4.73461 40.2646C5.96532 41.4953 7.63452 42.1867 9.375 42.1867C11.1155 42.1867 12.7847 41.4953 14.0154 40.2646C15.2461 39.0339 15.9375 37.3647 15.9375 35.6242C15.9375 35.5173 15.9112 35.418 15.9056 35.3111C13.9711 35.1968 12.0746 34.7244 10.3125 33.918Z" fill="#FFD9AA"/>
</svg>
