<svg width="56" height="58" viewBox="0 0 56 58" fill="none" xmlns="http://www.w3.org/2000/svg">
<path d="M42.4282 34.7375L37.047 44.9375L36.4376 46.1L36.3251 46.3156C36.2452 46.4651 36.1263 46.5902 35.9811 46.6777C35.8358 46.7652 35.6697 46.8117 35.5001 46.8125H20.5001C20.3306 46.8117 20.1644 46.7652 20.0192 46.6777C19.874 46.5902 19.7551 46.4651 19.6751 46.3156L19.5626 46.1L18.9533 44.9375L13.572 34.7375C12.253 32.2301 11.5865 29.4309 11.634 26.598C11.6815 23.7652 12.4415 20.9899 13.8439 18.5281C15.16 16.1631 17.0505 14.1675 19.3411 12.7257C21.6317 11.2838 24.2485 10.4421 26.9501 10.2781C27.6465 10.2406 28.3444 10.2406 29.0408 10.2781H29.0501C31.7517 10.4421 34.3686 11.2838 36.6591 12.7257C38.9497 14.1675 40.8403 16.1631 42.1564 18.5281C43.5588 20.9899 44.3188 23.7652 44.3663 26.598C44.4138 29.4309 43.7473 32.2301 42.4282 34.7375Z" fill="#84C0F8"/>
<path d="M36.4376 45.875V50.5625C36.4409 50.8766 36.4158 51.1904 36.3626 51.5C36.1382 53.061 35.3589 54.4888 34.1674 55.5219C32.9759 56.5549 31.4521 57.1241 29.8751 57.125H26.1251C24.5481 57.1241 23.0242 56.5549 21.8327 55.5219C20.6412 54.4888 19.8619 53.061 19.6376 51.5C19.5843 51.1904 19.5592 50.8766 19.5626 50.5625V45.875C19.5633 45.6266 19.6623 45.3885 19.8379 45.2129C20.0136 45.0372 20.2516 44.9382 20.5001 44.9375H35.5001C35.7485 44.9382 35.9865 45.0372 36.1622 45.2129C36.3378 45.3885 36.4368 45.6266 36.4376 45.875Z" fill="#84C0F8"/>
<path d="M28.9375 44.9377V37.1089C29.4337 37.182 29.9342 37.2215 30.4357 37.2271C31.2449 37.2659 32.0536 37.1424 32.8143 36.8638C33.5751 36.5853 34.2723 36.1574 34.8651 35.6052C37.7995 32.7323 36.7286 27.1771 36.6815 26.9416C36.6578 26.8206 36.6104 26.7056 36.542 26.6031C36.4736 26.5005 36.3856 26.4126 36.283 26.3442C36.1805 26.2759 36.0654 26.2285 35.9444 26.2049C35.8235 26.1812 35.699 26.1817 35.5783 26.2064C31.5478 27.0127 29.1692 30.8347 28 33.3913C26.8308 30.8347 24.4522 27.0122 20.4217 26.2064C20.301 26.1818 20.1766 26.1814 20.0556 26.2051C19.9347 26.2287 19.8197 26.2761 19.7171 26.3445C19.6146 26.4128 19.5266 26.5007 19.4582 26.6032C19.3897 26.7057 19.3423 26.8207 19.3185 26.9416C19.2716 27.1769 18.2007 32.7323 21.1349 35.6052C21.7276 36.1574 22.4249 36.5854 23.1856 36.8639C23.9463 37.1425 24.7551 37.2659 25.5643 37.2271C26.0658 37.2214 26.5663 37.182 27.0625 37.1089V44.9377H18.9531L19.5625 46.1002V50.5627C19.5591 50.8768 19.5842 51.1906 19.6375 51.5002H36.3625C36.4158 51.1906 36.4409 50.8768 36.4375 50.5627V46.1002L37.0469 44.9377H28.9375Z" fill="white"/>
<path d="M27.9924 0.875C28.2411 0.875 28.4795 0.973772 28.6553 1.14959C28.8311 1.3254 28.9299 1.56386 28.9299 1.8125V6.5C28.9299 6.74864 28.8311 6.9871 28.6553 7.16291C28.4795 7.33873 28.2411 7.4375 27.9924 7.4375C27.7438 7.4375 27.5053 7.33873 27.3295 7.16291C27.1537 6.9871 27.0549 6.74864 27.0549 6.5V1.8125C27.0549 1.56386 27.1537 1.3254 27.3295 1.14959C27.5053 0.973772 27.7438 0.875 27.9924 0.875ZM12.0854 13.4827C12.1719 13.5719 12.2754 13.643 12.3897 13.6919C12.504 13.7408 12.6269 13.7665 12.7512 13.7674C12.8755 13.7684 12.9987 13.7446 13.1138 13.6975C13.2288 13.6503 13.3333 13.5808 13.4212 13.4929C13.5091 13.405 13.5787 13.3005 13.6258 13.1855C13.6729 13.0704 13.6967 12.9472 13.6958 12.8229C13.6949 12.6986 13.6692 12.5757 13.6203 12.4614C13.5715 12.3471 13.5003 12.2436 13.4111 12.1571L10.0955 8.84375C10.0089 8.75488 9.90547 8.6841 9.79126 8.63552C9.67705 8.58694 9.55433 8.56151 9.43022 8.56073C9.30611 8.55994 9.18308 8.58381 9.06826 8.63094C8.95344 8.67807 8.84913 8.74753 8.76137 8.8353C8.67361 8.92306 8.60414 9.02737 8.55701 9.14219C8.50988 9.257 8.48601 9.38004 8.4868 9.50415C8.48759 9.62826 8.51301 9.75098 8.56159 9.86519C8.61018 9.9794 8.68095 10.0828 8.76982 10.1695L12.0854 13.4827ZM6.43751 27.1314L1.75001 27.1333C1.50137 27.1333 1.26294 27.2321 1.08717 27.408C0.911394 27.5839 0.812682 27.8223 0.812744 28.071C0.812806 28.3196 0.911638 28.5581 1.0875 28.7338C1.26336 28.9096 1.50184 29.0083 1.75048 29.0083H1.75001L6.43751 29.0064C6.56062 29.0063 6.68253 28.9821 6.79626 28.9349C6.90999 28.8878 7.01332 28.8187 7.10035 28.7316C7.18739 28.6445 7.25642 28.5412 7.3035 28.4274C7.35059 28.3137 7.37481 28.1918 7.37477 28.0686C7.37474 27.9455 7.35046 27.8236 7.30332 27.7099C7.25618 27.5962 7.1871 27.4928 7.10002 27.4058C7.01295 27.3188 6.90958 27.2497 6.79582 27.2026C6.68207 27.1556 6.56015 27.1313 6.43704 27.1314H6.43751ZM43.9146 42.6423C43.8281 42.5531 43.7246 42.482 43.6103 42.4331C43.496 42.3842 43.3732 42.3585 43.2489 42.3576C43.1245 42.3566 43.0013 42.3804 42.8862 42.4275C42.7712 42.4747 42.6667 42.5442 42.5788 42.6321C42.4909 42.72 42.4213 42.8245 42.3742 42.9395C42.3271 43.0546 42.3033 43.1778 42.3042 43.3021C42.3052 43.4264 42.3308 43.5493 42.3797 43.6636C42.4286 43.7779 42.4997 43.8814 42.5889 43.9679L45.9045 47.2812C45.9911 47.3701 46.0945 47.4409 46.2088 47.4895C46.323 47.5381 46.4457 47.5635 46.5698 47.5643C46.6939 47.5651 46.8169 47.5412 46.9318 47.4941C47.0466 47.4469 47.1509 47.3775 47.2386 47.2897C47.3264 47.2019 47.3959 47.0976 47.443 46.9828C47.4901 46.868 47.514 46.745 47.5132 46.6208C47.5124 46.4967 47.487 46.374 47.4384 46.2598C47.3898 46.1456 47.3191 46.0422 47.2302 45.9555L43.9146 42.6423ZM12.0854 42.6423L8.76982 45.9555C8.68095 46.0422 8.61018 46.1456 8.56159 46.2598C8.51301 46.374 8.48759 46.4967 8.4868 46.6208C8.48601 46.745 8.50988 46.868 8.55701 46.9828C8.60414 47.0976 8.67361 47.2019 8.76137 47.2897C8.84913 47.3775 8.95344 47.4469 9.06826 47.4941C9.18308 47.5412 9.30611 47.5651 9.43022 47.5643C9.55433 47.5635 9.67705 47.5381 9.79126 47.4895C9.90547 47.4409 10.0089 47.3701 10.0955 47.2812L13.4111 43.9679C13.5003 43.8814 13.5715 43.7779 13.6203 43.6636C13.6692 43.5493 13.6949 43.4264 13.6958 43.3021C13.6967 43.1778 13.6729 43.0546 13.6258 42.9395C13.5787 42.8245 13.5091 42.72 13.4212 42.6321C13.3333 42.5442 13.2288 42.4747 13.1138 42.4275C12.9987 42.3804 12.8755 42.3566 12.7512 42.3576C12.6269 42.3585 12.504 42.3842 12.3897 42.4331C12.2754 42.482 12.1719 42.5531 12.0854 42.6423ZM54.25 27.1167L49.5625 27.1186C49.3139 27.1187 49.0754 27.2175 48.8997 27.3934C48.7239 27.5692 48.6252 27.8077 48.6252 28.0564C48.6253 28.305 48.7241 28.5434 48.9 28.7192C49.0758 28.895 49.3143 28.9937 49.563 28.9936H49.5634L54.2509 28.9917C54.4996 28.9917 54.738 28.8929 54.9138 28.717C55.0896 28.5411 55.1883 28.3027 55.1882 28.054C55.1881 27.8054 55.0893 27.5669 54.9135 27.3912C54.7376 27.2154 54.4991 27.1167 54.2505 27.1167H54.25ZM43.2422 13.7482C43.3654 13.7484 43.4874 13.7242 43.6012 13.6771C43.715 13.6299 43.8184 13.5608 43.9054 13.4736L47.2192 10.1576C47.395 9.98164 47.4937 9.74308 47.4936 9.49437C47.4936 9.24566 47.3947 9.00718 47.2188 8.83138C47.0428 8.65557 46.8043 8.55686 46.5556 8.55695C46.3069 8.55703 46.0684 8.65592 45.8926 8.83184L42.5789 12.1479C42.4478 12.279 42.3585 12.4461 42.3224 12.628C42.2862 12.8098 42.3048 12.9983 42.3758 13.1696C42.4468 13.3409 42.567 13.4873 42.7212 13.5903C42.8754 13.6933 43.0567 13.7482 43.2422 13.7482ZM42.4237 34.733C43.7447 32.2275 44.4128 29.4295 44.3665 26.5975C44.3202 23.7656 43.5608 20.9909 42.1586 18.53C40.8421 16.1638 38.9506 14.1675 36.6586 12.7256C34.3667 11.2836 31.7484 10.4425 29.0455 10.28H29.0437C28.3478 10.2416 27.6504 10.2416 26.9545 10.28C24.2516 10.4425 21.6333 11.2836 19.3414 12.7256C17.0494 14.1675 15.1579 16.1638 13.8414 18.53C12.4392 20.9909 11.6798 23.7656 11.6335 26.5975C11.5872 29.4295 12.2553 32.2275 13.5763 34.733L19.5625 46.1065V50.5625C19.5645 52.3024 20.2566 53.9704 21.4868 55.2007C22.7171 56.4309 24.3851 57.123 26.125 57.125H29.875C31.6149 57.123 33.2829 56.4309 34.5132 55.2007C35.7434 53.9704 36.4355 52.3024 36.4375 50.5625V46.1065L42.4237 34.733ZM21.4375 49.625V46.8125H34.5625V49.625H21.4375ZM15.4738 19.4519C16.623 17.3485 18.2906 15.5738 20.3185 14.2961C22.3464 13.0184 24.6672 12.2802 27.0606 12.1515C27.6858 12.1167 28.3124 12.1167 28.9375 12.1515C31.3312 12.2799 33.6524 13.018 35.6806 14.2957C37.7089 15.5734 39.3769 17.3483 40.5262 19.4519C41.7733 21.64 42.4489 24.1071 42.4906 26.6252C42.5323 29.1434 41.9387 31.6315 40.7647 33.8596L34.9342 44.9375H28.9375V37.1087C29.4337 37.1818 29.9342 37.2213 30.4357 37.2269C31.2449 37.2657 32.0536 37.1422 32.8144 36.8637C33.5751 36.5851 34.2723 36.1572 34.8651 35.6051C37.7995 32.7322 36.7286 27.1769 36.6815 26.9414C36.6578 26.8205 36.6104 26.7054 36.542 26.6029C36.4736 26.5004 36.3856 26.4124 36.283 26.3441C36.1805 26.2757 36.0654 26.2284 35.9444 26.2047C35.8235 26.181 35.699 26.1816 35.5783 26.2063C31.5478 27.0125 29.1692 30.8346 28 33.3912C26.8309 30.8346 24.4522 27.012 20.4217 26.2063C20.301 26.1817 20.1766 26.1812 20.0556 26.2049C19.9347 26.2286 19.8197 26.276 19.7171 26.3443C19.6146 26.4126 19.5266 26.5006 19.4582 26.603C19.3897 26.7055 19.3423 26.8205 19.3185 26.9414C19.2716 27.1768 18.2007 32.7322 21.1349 35.6051C21.7276 36.1572 22.4249 36.5852 23.1856 36.8638C23.9464 37.1423 24.7551 37.2658 25.5643 37.2269C26.0658 37.2213 26.5663 37.1818 27.0625 37.1087V44.9375H21.0658L15.2353 33.8596C14.0613 31.6315 13.4677 29.1434 13.5094 26.6252C13.5511 24.1071 14.2267 21.64 15.4738 19.4519ZM29.2457 35.2686C29.9547 33.433 31.7844 29.5677 34.9832 28.3262C35.1384 30.0391 35.0368 32.8123 33.5536 34.2652C32.6092 35.1875 31.1636 35.5258 29.246 35.2686H29.2457ZM26.7536 35.2686C24.8419 35.5268 23.3931 35.189 22.4493 34.2679C20.8699 32.7252 20.8828 29.857 21.0224 28.328C24.2175 29.5719 26.0453 33.4344 26.754 35.2686H26.7536ZM29.875 55.25H26.125C25.045 55.2485 23.9984 54.8747 23.1618 54.1917C22.3252 53.5086 21.7497 52.5579 21.5323 51.5H34.4677C34.2503 52.5579 33.6748 53.5086 32.8382 54.1917C32.0016 54.8747 30.9551 55.2485 29.875 55.25Z" fill="#3182CC"/>
</svg>
