<svg width="100" height="100" viewBox="0 0 100 100" fill="none" xmlns="http://www.w3.org/2000/svg">
<path d="M9.375 48.4375V89.0625H40.625V76.5625C40.625 74.0761 41.6127 71.6915 43.3709 69.9334C45.129 68.1752 47.5136 67.1875 50 67.1875C52.4853 67.1912 54.8677 68.1801 56.625 69.9375C58.3824 71.6948 59.3713 74.0772 59.375 76.5625V89.0625H90.625V48.4375H9.375ZM29.6875 68.75H20.3125V62.5C20.3125 61.2568 20.8064 60.0645 21.6854 59.1854C22.5645 58.3064 23.7568 57.8125 25 57.8125C26.2432 57.8125 27.4355 58.3064 28.3146 59.1854C29.1936 60.0645 29.6875 61.2568 29.6875 62.5V68.75ZM79.6875 68.75H70.3125V62.5C70.3125 61.2568 70.8064 60.0645 71.6854 59.1854C72.5645 58.3064 73.7568 57.8125 75 57.8125C76.2432 57.8125 77.4355 58.3064 78.3146 59.1854C79.1936 60.0645 79.6875 61.2568 79.6875 62.5V68.75Z" fill="#AFD4F1"/>
<path d="M95.3125 50.0028C95.7269 50.0028 96.1243 49.8382 96.4174 49.5451C96.7104 49.2521 96.875 48.8547 96.875 48.4403V42.1903C96.875 41.7759 96.7104 41.3784 96.4174 41.0854C96.1243 40.7924 95.7269 40.6278 95.3125 40.6278H81.25C48.4375 40.6217 50.7812 40.6274 18.75 40.6278H4.6875C4.2731 40.6278 3.87567 40.7924 3.58265 41.0854C3.28962 41.3784 3.125 41.7759 3.125 42.1903V48.4403C3.125 48.8547 3.28962 49.2521 3.58265 49.5451C3.87567 49.8382 4.2731 50.0028 4.6875 50.0028H7.8125V87.5028H4.6875C4.2731 87.5028 3.87567 87.6674 3.58265 87.9604C3.28962 88.2534 3.125 88.6508 3.125 89.0652V95.3153C3.125 95.7297 3.28962 96.1271 3.58265 96.4201C3.87567 96.7131 4.2731 96.8778 4.6875 96.8778H95.3125C95.7269 96.8778 96.1243 96.7131 96.4174 96.4201C96.7104 96.1271 96.875 95.7297 96.875 95.3153V89.0652C96.875 88.6508 96.7104 88.2534 96.4174 87.9604C96.1243 87.6674 95.7269 87.5028 95.3125 87.5028H92.1875V50.0028H95.3125ZM93.75 90.6278V93.7528H6.25V90.6278H93.75ZM50 65.6278C47.1002 65.6311 44.3201 66.7845 42.2697 68.835C40.2192 70.8854 39.0658 73.6655 39.0625 76.5653V87.5028H10.9375V50.0028H89.0625V87.5028H60.9375V76.5653C60.9342 73.6655 59.7808 70.8854 57.7303 68.835C55.6799 66.7845 52.8998 65.6311 50 65.6278ZM57.8125 76.5653V87.5028H51.5625V68.909C53.3248 69.2738 54.908 70.2339 56.0461 71.6281C57.1842 73.0223 57.8079 74.7656 57.8125 76.5653ZM48.4375 68.909V87.5028H42.1875V76.5653C42.1921 74.7656 42.8158 73.0223 43.9539 71.6281C45.092 70.2339 46.6752 69.2738 48.4375 68.909ZM6.25 46.8778V43.7528H93.75V46.8778H6.25Z" fill="#0F6BBF"/>
<path d="M31.25 67.1875V62.5C31.25 60.8424 30.5915 59.2527 29.4194 58.0806C28.2473 56.9085 26.6576 56.25 25 56.25C23.3424 56.25 21.7527 56.9085 20.5806 58.0806C19.4085 59.2527 18.75 60.8424 18.75 62.5V67.1875H17.1875V70.3125H32.8125V67.1875H31.25ZM28.125 67.1875H21.875V62.5C21.875 61.6712 22.2042 60.8763 22.7903 60.2903C23.3763 59.7042 24.1712 59.375 25 59.375C25.8288 59.375 26.6237 59.7042 27.2097 60.2903C27.7958 60.8763 28.125 61.6712 28.125 62.5V67.1875ZM81.25 67.1875V62.5C81.25 60.8424 80.5915 59.2527 79.4194 58.0806C78.2473 56.9085 76.6576 56.25 75 56.25C73.3424 56.25 71.7527 56.9085 70.5806 58.0806C69.4085 59.2527 68.75 60.8424 68.75 62.5V67.1875H67.1875V70.3125H82.8125V67.1875H81.25ZM78.125 67.1875H71.875V62.5C71.875 61.6712 72.2042 60.8763 72.7903 60.2903C73.3763 59.7042 74.1712 59.375 75 59.375C75.8288 59.375 76.6237 59.7042 77.2097 60.2903C77.7958 60.8763 78.125 61.6712 78.125 62.5V67.1875Z" fill="#0F6BBF"/>
<path d="M46.875 78.125H43.75V81.25H46.875V78.125Z" fill="#0F6BBF"/>
<path d="M56.25 78.125H53.125V81.25H56.25V78.125Z" fill="#0F6BBF"/>
<path d="M45.334 16.6237C45.684 23.2154 54.3173 23.2154 54.6673 16.6237C54.6673 16.4487 54.6673 16.2737 54.6673 16.0987C54.6673 12.482 52.859 9.15703 50.0007 7.58203C47.1423 9.15703 45.334 12.482 45.334 16.0987C45.334 16.2737 45.334 16.4487 45.334 16.6237Z" fill="#AFD4F1"/>
<path d="M40.7822 27.8245C38.6822 26.0161 37.8656 23.4495 38.5656 21.2328C41.0739 20.5911 44.0489 21.3495 46.0906 23.1578C46.2072 23.2745 46.3239 23.3328 46.3822 23.4495C49.9406 26.8911 44.9822 31.2078 41.0739 28.1161C41.0156 27.9995 40.8989 27.9411 40.7822 27.8245ZM58.8656 28.1161C54.8989 31.2661 49.9989 26.8911 53.5572 23.4495C53.6739 23.3328 53.7322 23.2745 53.8489 23.1578C55.9489 21.3495 58.8656 20.5911 61.3739 21.2328C62.1322 23.4495 61.2572 26.0161 59.1572 27.8245C59.0989 27.9411 58.9822 27.9995 58.8656 28.1161Z" fill="#AFD4F1"/>
<path d="M58.0493 24.1513C57.816 23.918 57.466 23.8596 57.2327 24.093L50.5827 29.6346V12.2513C50.5827 11.9013 50.3493 11.668 49.9993 11.668C49.6493 11.668 49.416 11.9013 49.416 12.2513V29.6346L42.766 24.0346C42.5327 23.8013 42.1243 23.8596 41.9493 24.093C41.716 24.3263 41.7743 24.7346 42.0077 24.9096L49.416 31.2096V33.8346C49.416 34.1846 49.6493 34.418 49.9993 34.418C50.3493 34.418 50.5827 34.1846 50.5827 33.8346V31.2096L57.9327 24.968C58.2243 24.7346 58.2243 24.3846 58.0493 24.1513Z" fill="#0F6BBF"/>
</svg>
