<svg width="100" height="100" viewBox="0 0 100 100" fill="none" xmlns="http://www.w3.org/2000/svg">
<path d="M79.9079 11.2344H17.1387V96.1575H79.9079V11.2344Z" fill="#AFD4F1"/>
<path d="M35.6004 37.0781H24.5234V48.155H35.6004V37.0781Z" fill="white"/>
<path d="M54.0613 37.0781H42.9844V48.155H54.0613V37.0781Z" fill="white"/>
<path d="M72.5242 37.0781H61.4473V48.155H72.5242V37.0781Z" fill="white"/>
<path d="M35.6004 55.5391H24.5234V66.616H35.6004V55.5391Z" fill="white"/>
<path d="M54.0613 55.5391H42.9844V66.616H54.0613V55.5391Z" fill="white"/>
<path d="M72.5242 55.5391H61.4473V66.616H72.5242V55.5391Z" fill="white"/>
<path d="M72.5234 3.84375H24.5234V11.2284H72.5234V3.84375Z" fill="white"/>
<path d="M57.7526 74H39.291V96.1538H57.7526V74Z" fill="white"/>
<path d="M24.5227 29.6953H35.5996V18.6184H24.5227V29.6953Z" fill="white"/>
<path d="M54.0613 18.6172H42.9844V29.6941H54.0613V18.6172Z" fill="white"/>
<path d="M72.5242 18.6172H61.4473V29.6941H72.5242V18.6172Z" fill="white"/>
<path d="M24.5234 18.6172H35.6004L24.5234 29.6941V18.6172Z" fill="white"/>
<path d="M42.9844 29.6941V18.6172H54.0613L42.9844 29.6941Z" fill="white"/>
<path d="M61.4473 29.6941V18.6172H72.5242L61.4473 29.6941Z" fill="white"/>
<path d="M24.5234 37.0781H35.6004L24.5234 48.155V37.0781Z" fill="white"/>
<path d="M42.9844 48.155V37.0781H54.0613L42.9844 48.155Z" fill="white"/>
<path d="M61.4473 48.155V37.0781H72.5242L61.4473 48.155Z" fill="white"/>
<path d="M24.5234 55.5391H35.6004L24.5234 66.616V55.5391Z" fill="white"/>
<path d="M42.9844 66.616V55.5391H54.0613L42.9844 66.616Z" fill="white"/>
<path d="M61.4473 55.5391V66.616L72.5242 55.5391H61.4473Z" fill="white"/>
<mask id="path-22-inside-1_521_6686" fill="white">
<path d="M35.6008 31.5349H24.5239C23.5048 31.5349 22.6777 30.7078 22.6777 29.6887V18.6118C22.6777 17.5927 23.5048 16.7656 24.5239 16.7656H35.6008C36.6199 16.7656 37.447 17.5927 37.447 18.6118V29.6887C37.447 30.7078 36.6199 31.5349 35.6008 31.5349ZM26.37 27.8425H33.7547V20.4579H26.37V27.8425ZM54.0623 31.5349H42.9854C41.9663 31.5349 41.1393 30.7078 41.1393 29.6887V18.6118C41.1393 17.5927 41.9663 16.7656 42.9854 16.7656H54.0623C55.0814 16.7656 55.9085 17.5927 55.9085 18.6118V29.6887C55.9085 30.7078 55.0814 31.5349 54.0623 31.5349ZM44.8316 27.8425H52.2162V20.4579H44.8316V27.8425ZM72.5239 31.5349H61.447C60.4279 31.5349 59.6008 30.7078 59.6008 29.6887V18.6118C59.6008 17.5927 60.4279 16.7656 61.447 16.7656H72.5239C73.543 16.7656 74.37 17.5927 74.37 18.6118V29.6887C74.37 30.7078 73.543 31.5349 72.5239 31.5349ZM63.2931 27.8425H70.6777V20.4579H63.2931V27.8425ZM35.6008 49.9964H24.5239C23.5048 49.9964 22.6777 49.1693 22.6777 48.1502V37.0733C22.6777 36.0542 23.5048 35.2272 24.5239 35.2272H35.6008C36.6199 35.2272 37.447 36.0542 37.447 37.0733V48.1502C37.447 49.1693 36.6199 49.9964 35.6008 49.9964ZM26.37 46.3041H33.7547V38.9195H26.37V46.3041ZM54.0623 49.9964H42.9854C41.9663 49.9964 41.1393 49.1693 41.1393 48.1502V37.0733C41.1393 36.0542 41.9663 35.2272 42.9854 35.2272H54.0623C55.0814 35.2272 55.9085 36.0542 55.9085 37.0733V48.1502C55.9085 49.1693 55.0814 49.9964 54.0623 49.9964ZM44.8316 46.3041H52.2162V38.9195H44.8316V46.3041ZM72.5239 49.9964H61.447C60.4279 49.9964 59.6008 49.1693 59.6008 48.1502V37.0733C59.6008 36.0542 60.4279 35.2272 61.447 35.2272H72.5239C73.543 35.2272 74.37 36.0542 74.37 37.0733V48.1502C74.37 49.1693 73.543 49.9964 72.5239 49.9964ZM63.2931 46.3041H70.6777V38.9195H63.2931V46.3041ZM35.6008 68.4579H24.5239C23.5048 68.4579 22.6777 67.6309 22.6777 66.6118V55.5349C22.6777 54.5158 23.5048 53.6887 24.5239 53.6887H35.6008C36.6199 53.6887 37.447 54.5158 37.447 55.5349V66.6118C37.447 67.6309 36.6199 68.4579 35.6008 68.4579ZM26.37 64.7656H33.7547V57.381H26.37V64.7656ZM54.0623 68.4579H42.9854C41.9663 68.4579 41.1393 67.6309 41.1393 66.6118V55.5349C41.1393 54.5158 41.9663 53.6887 42.9854 53.6887H54.0623C55.0814 53.6887 55.9085 54.5158 55.9085 55.5349V66.6118C55.9085 67.6309 55.0814 68.4579 54.0623 68.4579ZM44.8316 64.7656H52.2162V57.381H44.8316V64.7656ZM72.5239 68.4579H61.447C60.4279 68.4579 59.6008 67.6309 59.6008 66.6118V55.5349C59.6008 54.5158 60.4279 53.6887 61.447 53.6887H72.5239C73.543 53.6887 74.37 54.5158 74.37 55.5349V66.6118C74.37 67.6309 73.543 68.4579 72.5239 68.4579ZM63.2931 64.7656H70.6777V57.381H63.2931V64.7656Z"/>
</mask>
<path d="M35.6008 31.5349H24.5239C23.5048 31.5349 22.6777 30.7078 22.6777 29.6887V18.6118C22.6777 17.5927 23.5048 16.7656 24.5239 16.7656H35.6008C36.6199 16.7656 37.447 17.5927 37.447 18.6118V29.6887C37.447 30.7078 36.6199 31.5349 35.6008 31.5349ZM26.37 27.8425H33.7547V20.4579H26.37V27.8425ZM54.0623 31.5349H42.9854C41.9663 31.5349 41.1393 30.7078 41.1393 29.6887V18.6118C41.1393 17.5927 41.9663 16.7656 42.9854 16.7656H54.0623C55.0814 16.7656 55.9085 17.5927 55.9085 18.6118V29.6887C55.9085 30.7078 55.0814 31.5349 54.0623 31.5349ZM44.8316 27.8425H52.2162V20.4579H44.8316V27.8425ZM72.5239 31.5349H61.447C60.4279 31.5349 59.6008 30.7078 59.6008 29.6887V18.6118C59.6008 17.5927 60.4279 16.7656 61.447 16.7656H72.5239C73.543 16.7656 74.37 17.5927 74.37 18.6118V29.6887C74.37 30.7078 73.543 31.5349 72.5239 31.5349ZM63.2931 27.8425H70.6777V20.4579H63.2931V27.8425ZM35.6008 49.9964H24.5239C23.5048 49.9964 22.6777 49.1693 22.6777 48.1502V37.0733C22.6777 36.0542 23.5048 35.2272 24.5239 35.2272H35.6008C36.6199 35.2272 37.447 36.0542 37.447 37.0733V48.1502C37.447 49.1693 36.6199 49.9964 35.6008 49.9964ZM26.37 46.3041H33.7547V38.9195H26.37V46.3041ZM54.0623 49.9964H42.9854C41.9663 49.9964 41.1393 49.1693 41.1393 48.1502V37.0733C41.1393 36.0542 41.9663 35.2272 42.9854 35.2272H54.0623C55.0814 35.2272 55.9085 36.0542 55.9085 37.0733V48.1502C55.9085 49.1693 55.0814 49.9964 54.0623 49.9964ZM44.8316 46.3041H52.2162V38.9195H44.8316V46.3041ZM72.5239 49.9964H61.447C60.4279 49.9964 59.6008 49.1693 59.6008 48.1502V37.0733C59.6008 36.0542 60.4279 35.2272 61.447 35.2272H72.5239C73.543 35.2272 74.37 36.0542 74.37 37.0733V48.1502C74.37 49.1693 73.543 49.9964 72.5239 49.9964ZM63.2931 46.3041H70.6777V38.9195H63.2931V46.3041ZM35.6008 68.4579H24.5239C23.5048 68.4579 22.6777 67.6309 22.6777 66.6118V55.5349C22.6777 54.5158 23.5048 53.6887 24.5239 53.6887H35.6008C36.6199 53.6887 37.447 54.5158 37.447 55.5349V66.6118C37.447 67.6309 36.6199 68.4579 35.6008 68.4579ZM26.37 64.7656H33.7547V57.381H26.37V64.7656ZM54.0623 68.4579H42.9854C41.9663 68.4579 41.1393 67.6309 41.1393 66.6118V55.5349C41.1393 54.5158 41.9663 53.6887 42.9854 53.6887H54.0623C55.0814 53.6887 55.9085 54.5158 55.9085 55.5349V66.6118C55.9085 67.6309 55.0814 68.4579 54.0623 68.4579ZM44.8316 64.7656H52.2162V57.381H44.8316V64.7656ZM72.5239 68.4579H61.447C60.4279 68.4579 59.6008 67.6309 59.6008 66.6118V55.5349C59.6008 54.5158 60.4279 53.6887 61.447 53.6887H72.5239C73.543 53.6887 74.37 54.5158 74.37 55.5349V66.6118C74.37 67.6309 73.543 68.4579 72.5239 68.4579ZM63.2931 64.7656H70.6777V57.381H63.2931V64.7656Z" fill="#0F6BBF" stroke="#AFD4F1" stroke-width="2" mask="url(#path-22-inside-1_521_6686)"/>
<path d="M79.9064 97.9982H17.1372C16.1181 97.9982 15.291 97.1711 15.291 96.152V11.229C15.291 10.2099 16.1181 9.38281 17.1372 9.38281H79.9064C80.9255 9.38281 81.7525 10.2099 81.7525 11.229V96.152C81.7525 97.1711 80.9255 97.9982 79.9064 97.9982ZM18.9833 94.3059H78.0602V13.0751H18.9833V94.3059Z" fill="#0F6BBF"/>
<path d="M72.5239 13.0769H24.5239C23.5048 13.0769 22.6777 12.2498 22.6777 11.2308V3.84615C22.6777 2.82708 23.5048 2 24.5239 2H72.5239C73.543 2 74.37 2.82708 74.37 3.84615V11.2308C74.37 12.2498 73.543 13.0769 72.5239 13.0769ZM26.37 9.38462H70.6777V5.69231H26.37V9.38462Z" fill="#0F6BBF"/>
<path d="M57.755 98.0024H39.2934C38.2743 98.0024 37.4473 97.1753 37.4473 96.1562V74.0024C37.4473 72.9833 38.2743 72.1562 39.2934 72.1562H57.755C58.774 72.1562 59.6011 72.9833 59.6011 74.0024V96.1562C59.6011 97.1753 58.774 98.0024 57.755 98.0024ZM41.1396 94.3101H55.9088V75.8486H41.1396V94.3101Z" fill="#0F6BBF"/>
<path d="M48.5239 96.1538C47.5048 96.1538 46.6777 95.3268 46.6777 94.3077V75.8462C46.6777 74.8271 47.5048 74 48.5239 74C49.543 74 50.37 74.8271 50.37 75.8462V94.3077C50.37 95.3268 49.543 96.1538 48.5239 96.1538Z" fill="#0F6BBF"/>
<path d="M61.446 75.8486H35.5999C34.5808 75.8486 33.7537 75.0215 33.7537 74.0024C33.7537 72.9833 34.5808 72.1562 35.5999 72.1562H61.446C62.4651 72.1562 63.2922 72.9833 63.2922 74.0024C63.2922 75.0215 62.4651 75.8486 61.446 75.8486ZM90.246 98.0024H9.75374C8.73466 98.0024 8.90759 97.1753 8.90759 96.1562C8.90759 95.1372 8.73466 94.3101 9.75374 94.3101H90.246C91.2651 94.3101 91.0922 95.1372 91.0922 96.1562C91.0922 97.1753 91.2651 98.0024 90.246 98.0024Z" fill="#0F6BBF"/>
</svg>
