<svg width="60" height="60" viewBox="0 0 60 60" fill="none" xmlns="http://www.w3.org/2000/svg">
<path d="M21.45 7.66016L54.5438 32.2695C52.6969 34.7633 53.2125 38.2883 55.7063 40.1445L46.7531 52.1727C44.2594 50.3258 40.7344 50.8414 38.8875 53.3352L5.78439 28.7164C7.64064 26.2227 7.11564 22.6977 4.62189 20.8508L13.575 8.81328C16.0688 10.6695 19.5844 10.1445 21.45 7.66016Z" fill="#A8D5FF"/>
<path d="M58.3125 35.0609C58.725 35.3703 58.8094 35.9609 58.5 36.3734L55.7062 40.1422C53.2125 38.2859 52.6969 34.7609 54.5437 32.2672L58.3125 35.0609ZM46.7531 52.1703L43.9594 55.939C43.65 56.3515 43.0594 56.4359 42.6469 56.1265L38.8875 53.3328C40.7344 50.839 44.2594 50.3234 46.7531 52.1703ZM35.2031 23.7172C38.9344 26.5015 39.7125 31.789 36.9375 35.5297C34.1531 39.2703 28.8656 40.039 25.1344 37.264C21.3937 34.4797 20.6156 29.1922 23.3906 25.4609C26.175 21.7203 31.4625 20.9422 35.2031 23.7172Z" fill="#3182CC"/>
<path d="M26.249 35.7591C26.4169 35.8838 26.6137 35.9447 26.8078 35.9447C27.0947 35.9447 27.3769 35.8144 27.5606 35.5669L28.3565 34.4963C28.4203 34.5056 28.4803 34.5235 28.545 34.5281C28.6134 34.5328 28.6819 34.5356 28.7494 34.5356C30.209 34.5356 31.4456 33.4031 31.5534 31.9256C31.589 31.4325 31.4944 30.9385 31.2787 30.495C31.1803 30.2925 31.0575 30.1022 30.9131 29.9288C30.8597 29.8585 30.7969 29.7947 30.7247 29.7413C30.524 29.5913 30.3928 29.3728 30.3562 29.1253C30.3197 28.8778 30.3815 28.6303 30.5315 28.4297C30.6806 28.2291 30.9 28.0978 31.1475 28.0613C31.3969 28.0256 31.6425 28.0875 31.844 28.2375C31.9781 28.3369 32.0793 28.4653 32.145 28.6163C32.1778 28.6922 32.2003 28.7728 32.2125 28.8535C32.2884 29.3663 32.7665 29.7178 33.2765 29.6447C33.7884 29.5688 34.1428 29.0935 34.0678 28.5806C34.0322 28.3378 33.9647 28.1006 33.8672 27.8747C33.7997 27.7181 33.7012 27.5794 33.6065 27.4388L34.275 26.5397C34.5844 26.1244 34.4981 25.5375 34.0819 25.2281C33.6675 24.9197 33.0797 25.005 32.7703 25.4213L32.1094 26.31C31.7137 26.1872 31.2956 26.1441 30.8756 26.2069C30.1322 26.3166 29.4759 26.7085 29.0278 27.3113C28.1297 28.5197 28.3472 30.2185 29.5003 31.1635C29.5359 31.2113 29.5669 31.2619 29.5931 31.3153C29.6653 31.4644 29.6962 31.6247 29.684 31.7916C29.6465 32.3072 29.1834 32.6972 28.6819 32.6588C28.4315 32.6409 28.2037 32.5266 28.0406 32.3372C27.8765 32.1478 27.7959 31.9059 27.8147 31.6566C27.8522 31.14 27.4631 30.6909 26.9475 30.6535C26.4112 30.6188 25.9819 31.005 25.9444 31.5206C25.89 32.2697 26.1309 32.9953 26.6231 33.5634C26.64 33.5831 26.6606 33.5963 26.6775 33.615L26.0587 34.4475C25.7465 34.8638 25.8328 35.4506 26.249 35.7591ZM5.78435 28.7156L31.8656 48.1125H31.8562L6.3656 40.0031C7.31248 37.0406 5.67185 33.8813 2.70935 32.9344L3.74998 29.6625L4.3781 27.675L5.78435 28.7156Z" fill="#A8D5FF"/>
<path d="M31.8562 48.1133L22.6969 45.1977L3.90938 31.2289L3.375 30.8352L3.75 29.6633L4.37813 27.6758L5.78438 28.7164L31.8562 48.1133Z" fill="#3182CC"/>
<path d="M33.9844 49.6867H9.375C9.375 46.5836 6.85312 44.0617 3.75 44.0617V39.168L6.36562 40.0023L31.8562 48.1117H31.8656L33.9844 49.6867Z" fill="#A8D5FF"/>
<path d="M33.9844 49.6867H27.9656L6.36562 42.8148L3.75 41.9805V39.168L6.36562 40.0023L31.8562 48.1117H31.8656L33.9844 49.6867Z" fill="#3182CC"/>
<path d="M56.25 44.0625V48.75C56.25 49.2656 55.8281 49.6875 55.3125 49.6875H52.4813L52.7438 48.8531L54.1406 44.475C54.7875 44.2031 55.5 44.0625 56.25 44.0625Z" fill="#3182CC"/>
<path d="M56.25 39.4023V44.0617C55.5 44.0617 54.7875 44.2023 54.1406 44.4742L55.3781 40.5836V40.5742L55.7062 40.143L56.25 39.4023Z" fill="#3182CC"/>
<path d="M55.3781 40.5859L54.1406 44.4766L52.7437 48.8547C52.0781 48.6391 51.3937 48.5641 50.7281 48.6016C50.2031 48.6297 49.6875 48.7328 49.1906 48.9016L55.3781 40.5859Z" fill="#A8D5FF"/>
<path d="M52.7437 48.8531L52.4812 49.6875L51.3187 53.325C51.1687 53.8125 50.6344 54.0844 50.1469 53.9344L46.35 52.725L46.7531 52.1719L49.1906 48.9C49.6875 48.7313 50.2031 48.6281 50.7281 48.6C51.3937 48.5625 52.0781 48.6375 52.7437 48.8531ZM56.25 24.375V28.3312L54.3844 27.7312L51.8437 26.925H51.8344C51.075 25.9687 50.625 24.7594 50.625 23.4375H55.3125C55.8281 23.4375 56.25 23.8594 56.25 24.375Z" fill="#3182CC"/>
<path d="M51.8344 26.925L44.025 24.4406H44.0156L42.675 23.4375H50.625C50.625 24.7594 51.075 25.9687 51.8344 26.925Z" fill="#A8D5FF"/>
<path d="M10.0031 13.6133L8.00623 16.3039V16.2945L8.96248 13.2852L10.0031 13.6133Z" fill="#3182CC"/>
<path d="M9.37497 49.689H4.68747C4.17184 49.689 3.74997 49.2671 3.74997 48.7515V44.064C6.85309 44.064 9.37497 46.5859 9.37497 49.689ZM2.70934 32.9359C5.67184 33.8827 7.31247 37.0421 6.36559 40.0046L3.74997 39.1702L1.89372 38.5796C1.40622 38.4296 1.13434 37.8952 1.28434 37.4077L2.70934 32.9359ZM21.45 7.6515V7.66087C19.5843 10.1452 16.0687 10.6702 13.575 8.814L16.3781 5.05462C16.6781 4.63275 17.2687 4.54837 17.6812 4.85775L21.45 7.6515ZM4.62184 20.8515C7.11559 22.6984 7.64059 26.2234 5.78434 28.7171L2.02497 25.9234C1.60309 25.614 1.51872 25.0234 1.82809 24.6109L4.62184 20.8515Z" fill="#3182CC"/>
<path d="M54.3563 27.8164C53.9532 28.9133 53.8875 30.6664 54.1407 31.9602L44.025 24.4414L51.8344 26.9258H51.8438L54.3844 27.732L54.3563 27.8164Z" fill="#A8D5FF"/>
<path d="M54.1406 31.9586C53.8875 30.6648 53.9531 28.9117 54.3562 27.8148L54.3844 27.7305L56.25 28.3305L58.1062 28.9211C58.5937 29.0711 58.8656 29.6055 58.7156 30.093L57.3562 34.3492L54.5437 32.268L54.1406 31.9586ZM55.3781 40.5836L54.1406 44.4742L52.7437 48.8523C52.0781 48.6367 51.3937 48.5617 50.7281 48.5992C50.2031 48.6273 49.6875 48.7305 49.1906 48.8992L55.3781 40.5836Z" fill="#3182CC"/>
<path d="M50.7281 48.5991C50.2031 48.6272 49.6875 48.7303 49.1906 48.8991L47.5687 51.0835L46.7531 52.171L46.35 52.7241L49.3781 53.6897L50.1469 53.9335C50.6344 54.0835 51.1687 53.8116 51.3187 53.3241L52.4812 49.6866L52.575 49.3866L52.7437 48.8522C52.0781 48.6366 51.3937 48.5616 50.7281 48.5991Z" fill="#3182CC"/>
<path d="M52.8187 27.2344L51.8437 26.925H51.8344C51.6281 26.6719 51.45 26.4 51.3 26.1094L52.8187 27.2344Z" fill="#3182CC"/>
<path d="M51.8344 26.925L44.025 24.4406H44.0156L42.675 23.4375H47.7094L51.3 26.1094C51.45 26.4 51.6281 26.6719 51.8344 26.925Z" fill="#3182CC"/>
<path d="M54.0282 29.3633C54.075 28.9789 54.1313 28.6039 54.2157 28.2758L52.8188 27.2352L51.8438 26.9258H51.8344L44.025 24.4414L53.4563 31.4539L54.1407 31.9602C53.9907 31.182 53.9532 30.2352 54.0282 29.3633Z" fill="#3182CC"/>
<path d="M57.2719 34.2844L57.4594 34.0312L57.3562 34.35L57.2719 34.2844Z" fill="#3182CC"/>
<path d="M58.3125 31.3109L54.5437 28.5172L54.2156 28.2734C54.1312 28.6016 54.075 28.9766 54.0281 29.3609C53.9531 30.2328 53.9906 31.1797 54.1406 31.9578L54.5437 32.2672L57.2719 34.2828L57.4594 34.0297L58.3218 31.3203L58.3125 31.3109Z" fill="#3182CC"/>
</svg>
