<svg width="100" height="100" viewBox="0 0 100 100" fill="none" xmlns="http://www.w3.org/2000/svg">
<path d="M93.2323 25.7109H6.76758V89.4683H93.2323V25.7109Z" fill="#AFD4F1"/>
<path d="M14.7742 4.30302L5.97656 18.1217H94.0221L85.2245 4.30302C84.6845 3.45494 83.7489 2.94141 82.7435 2.94141H17.2552C16.2498 2.94141 15.3141 3.45508 14.7742 4.30302Z" fill="white"/>
<path d="M2.94141 19.6392V24.1933C2.94141 25.0317 3.62111 25.7114 4.45949 25.7114H95.5411C96.3795 25.7114 97.0592 25.0317 97.0592 24.1933V19.6392C97.0592 18.8008 96.3795 18.1211 95.5411 18.1211H4.45949C3.62111 18.1211 2.94141 18.8008 2.94141 19.6392Z" fill="#AFD4F1"/>
<path d="M2.94141 90.9868V95.541C2.94141 96.3793 3.62111 97.059 4.45949 97.059H95.5411C96.3795 97.059 97.0592 96.3793 97.0592 95.541V90.9868C97.0592 90.1485 96.3795 89.4688 95.5411 89.4688H4.45949C3.62111 89.4688 2.94141 90.1485 2.94141 90.9868Z" fill="#AFD4F1"/>
<path d="M28.1187 32.4961H15.9746V44.6402H28.1187V32.4961Z" fill="white"/>
<path d="M28.1187 51.5156H15.9746V63.6597H28.1187V51.5156Z" fill="white"/>
<path d="M28.1187 70.5391H15.9746V82.6832H28.1187V70.5391Z" fill="white"/>
<path d="M56.0719 32.4961H43.9277V44.6402H56.0719V32.4961Z" fill="white"/>
<path d="M85.4879 32.4961H73.3438V44.6402H85.4879V32.4961Z" fill="white"/>
<path d="M85.4879 51.5156H73.3438V63.6597H85.4879V51.5156Z" fill="white"/>
<path d="M85.4879 70.5391H73.3438V82.6832H85.4879V70.5391Z" fill="white"/>
<path d="M37.7773 67.8561V89.4679H62.2218V67.8561C62.2218 51.5967 37.7773 51.5826 37.7773 67.8561Z" fill="white"/>
<path d="M95.541 27.1828C97.1889 27.1828 98.5295 25.8422 98.5295 24.1943V19.6403C98.5295 17.9924 97.1889 16.6518 95.541 16.6518H94.83L86.4661 3.51486C85.6519 2.23604 84.2603 1.47266 82.7444 1.47266H17.2566C15.7407 1.47266 14.3491 2.23589 13.5348 3.51486L5.171 16.6518H4.45997C2.81203 16.6518 1.4707 17.9924 1.4707 19.6403V24.1943C1.4707 25.8422 2.81203 27.1828 4.45997 27.1828H5.29791V87.999H4.45997C2.81203 87.999 1.4707 89.3396 1.4707 90.9875V95.5415C1.4707 97.1894 2.81203 98.53 4.45997 98.53H95.541C97.1889 98.53 98.5295 97.1894 98.5295 95.5415V90.9875C98.5295 89.3396 97.1889 87.999 95.541 87.999H94.7031V27.1828H95.541ZM16.0164 5.09457C16.2872 4.6681 16.751 4.41383 17.2566 4.41383H82.7444C83.25 4.41383 83.7138 4.6681 83.9845 5.09457L91.3428 16.6518H8.6582L16.0164 5.09457ZM4.41188 24.1943L4.45997 19.593L95.5883 19.6403V24.1943C95.5883 24.2209 95.5675 24.2416 95.541 24.2416L4.41188 24.1943ZM60.7523 67.8574V87.999H51.4707V57.2185C56.7047 57.9393 60.7523 62.4291 60.7523 67.8574ZM48.5295 87.999H39.2486V67.8574C39.2486 62.4291 43.2963 57.9394 48.5295 57.2185V87.999ZM95.5883 90.9875V95.5415C95.5883 95.5681 95.5675 95.5888 95.541 95.5888L4.41188 95.5415L4.45997 90.9402L95.5883 90.9875ZM91.7617 87.999H63.6935V67.8574C63.6935 60.3069 57.5506 54.1647 50.0001 54.1647C42.4497 54.1647 36.3075 60.3071 36.3075 67.8574V87.999H8.23909V27.1828H91.7617V87.999Z" fill="#0F6BBF"/>
<path d="M15.9745 46.1131H28.1183C28.9304 46.1131 29.5889 45.4545 29.5889 44.6425V32.4979C29.5889 31.6859 28.9304 31.0273 28.1183 31.0273H15.9745C15.1624 31.0273 14.5039 31.6859 14.5039 32.4979V44.6425C14.5039 45.4545 15.1623 46.1131 15.9745 46.1131ZM17.4451 33.9685H26.6477V43.1719H17.4451V33.9685ZM15.9745 65.1344H28.1183C28.9304 65.1344 29.5889 64.4759 29.5889 63.6638V51.5193C29.5889 50.7072 28.9304 50.0487 28.1183 50.0487H15.9745C15.1624 50.0487 14.5039 50.7072 14.5039 51.5193V63.6638C14.5039 64.476 15.1623 65.1344 15.9745 65.1344ZM17.4451 52.9898H26.6477V62.1932H17.4451V52.9898ZM15.9745 84.1551H28.1183C28.9304 84.1551 29.5889 83.4966 29.5889 82.6846V70.5407C29.5889 69.7287 28.9304 69.0701 28.1183 69.0701H15.9745C15.1624 69.0701 14.5039 69.7287 14.5039 70.5407V82.6846C14.5039 83.4968 15.1623 84.1551 15.9745 84.1551ZM17.4451 72.0113H26.6477V81.214H17.4451V72.0113ZM73.3439 46.1131H85.4877C86.2998 46.1131 86.9583 45.4545 86.9583 44.6425V32.4979C86.9583 31.6859 86.2998 31.0273 85.4877 31.0273H73.3439C72.5318 31.0273 71.8733 31.6859 71.8733 32.4979V44.6425C71.8733 45.4545 72.5318 46.1131 73.3439 46.1131ZM74.8145 33.9685H84.0171V43.1719H74.8145V33.9685ZM43.9271 46.1131H56.0717C56.8838 46.1131 57.5423 45.4545 57.5423 44.6425V32.4979C57.5423 31.6859 56.8838 31.0273 56.0717 31.0273H43.9271C43.1151 31.0273 42.4566 31.6859 42.4566 32.4979V44.6425C42.4566 45.4545 43.1149 46.1131 43.9271 46.1131ZM45.3977 33.9685H54.6011V43.1719H45.3977V33.9685ZM73.3439 65.1344H85.4877C86.2998 65.1344 86.9583 64.4759 86.9583 63.6638V51.5193C86.9583 50.7072 86.2998 50.0487 85.4877 50.0487H73.3439C72.5318 50.0487 71.8733 50.7072 71.8733 51.5193V63.6638C71.8733 64.476 72.5318 65.1344 73.3439 65.1344ZM74.8145 52.9898H84.0171V62.1932H74.8145V52.9898ZM73.3439 84.1551H85.4877C86.2998 84.1551 86.9583 83.4966 86.9583 82.6846V70.5407C86.9583 69.7287 86.2998 69.0701 85.4877 69.0701H73.3439C72.5318 69.0701 71.8733 69.7287 71.8733 70.5407V82.6846C71.8733 83.4968 72.5318 84.1551 73.3439 84.1551ZM74.8145 72.0113H84.0171V81.214H74.8145V72.0113Z" fill="#0F6BBF"/>
</svg>
