<svg width="18" height="18" viewBox="0 0 18 18" fill="none" xmlns="http://www.w3.org/2000/svg">
<path d="M13.125 15.375H2.625V4.875H9.375V3.375H2.625C1.8 3.375 1.125 4.05 1.125 4.875V15.375C1.125 16.2 1.8 16.875 2.625 16.875H13.125C13.95 16.875 14.625 16.2 14.625 15.375V8.625H13.125V15.375ZM7.2825 12.9975L5.8125 11.2275L3.75 13.875H12L9.345 10.3425L7.2825 12.9975ZM14.625 3.375V1.125H13.125V3.375H10.875C10.8825 3.3825 10.875 4.875 10.875 4.875H13.125V7.1175C13.1325 7.125 14.625 7.1175 14.625 7.1175V4.875H16.875V3.375H14.625Z" fill="#48464A"/>
</svg>
