<svg width="18" height="18" viewBox="0 0 18 18" fill="none" xmlns="http://www.w3.org/2000/svg">
<path d="M12.375 14.79H3.375V5.625H8.625V4.125H3.375C2.55 4.125 1.875 4.8 1.875 5.625V14.625C1.875 15.45 2.55 16.125 3.375 16.125H12.375C13.2 16.125 13.875 15.45 13.875 14.625V9.375H12.375V14.79Z" fill="#48464A"/>
<path d="M13.875 1.875H12.375V4.125H10.125C10.1325 4.1325 10.125 5.625 10.125 5.625H12.375V7.8675C12.3825 7.875 13.875 7.8675 13.875 7.8675V5.625H16.125V4.125H13.875V1.875Z" fill="#48464A"/>
<path d="M10.875 7.125H4.875V8.625H10.875V7.125Z" fill="#48464A"/>
<path d="M4.875 9.375V10.875H10.875V9.375H4.875Z" fill="#48464A"/>
<path d="M10.875 11.625H4.875V13.125H10.875V11.625Z" fill="#48464A"/>
</svg>
