<svg width="19" height="18" viewBox="0 0 19 18" fill="none" xmlns="http://www.w3.org/2000/svg">
<path d="M12.875 14.79H3.875V5.625H9.125V4.125H3.875C3.05 4.125 2.375 4.8 2.375 5.625V14.625C2.375 15.45 3.05 16.125 3.875 16.125H12.875C13.7 16.125 14.375 15.45 14.375 14.625V9.375H12.875V14.79Z" fill="#48464A"/>
<path d="M14.375 1.875H12.875V4.125H10.625C10.6325 4.1325 10.625 5.625 10.625 5.625H12.875V7.8675C12.8825 7.875 14.375 7.8675 14.375 7.8675V5.625H16.625V4.125H14.375V1.875Z" fill="#48464A"/>
<path d="M11.375 7.125H5.375V8.625H11.375V7.125Z" fill="#48464A"/>
<path d="M5.375 9.375V10.875H11.375V9.375H5.375Z" fill="#48464A"/>
<path d="M11.375 11.625H5.375V13.125H11.375V11.625Z" fill="#48464A"/>
</svg>
