<svg width="84" height="24" viewBox="0 0 84 24" fill="none" xmlns="http://www.w3.org/2000/svg">
<path d="M82 13.5C82.8284 13.5 83.5 12.8284 83.5 12C83.5 11.1716 82.8284 10.5 82 10.5L82 13.5ZM0.939339 10.9393C0.353554 11.5251 0.353554 12.4749 0.939339 13.0607L10.4853 22.6066C11.0711 23.1924 12.0208 23.1924 12.6066 22.6066C13.1924 22.0208 13.1924 21.0711 12.6066 20.4853L4.12132 12L12.6066 3.51473C13.1924 2.92894 13.1924 1.97919 12.6066 1.3934C12.0208 0.807618 11.0711 0.807618 10.4853 1.3934L0.939339 10.9393ZM82 10.5L2 10.5L2 13.5L82 13.5L82 10.5Z" fill="#FE80FE"/>
</svg>
