<svg width="94" height="94" viewBox="0 0 94 94" fill="none" xmlns="http://www.w3.org/2000/svg">
<circle cx="47" cy="47" r="47" fill="#FDECFD"/>
<path d="M50 63V66L48 67H46L44 66V63H50Z" fill="#F2CE9F"/>
<path d="M55 54H53V58H55C55.5304 58 56.0391 57.7893 56.4142 57.4142C56.7893 57.0391 57 56.5304 57 56C57 55.4696 56.7893 54.9609 56.4142 54.5858C56.0391 54.2107 55.5304 54 55 54ZM39 54H41V58H39C38.4696 58 37.9609 57.7893 37.5858 57.4142C37.2107 57.0391 37 56.5304 37 56C37 55.4696 37.2107 54.9609 37.5858 54.5858C37.9609 54.2107 38.4696 54 39 54Z" fill="#F2CE9F"/>
<path d="M45 69L45.82 69.82L44 76H35V73.9C35.0003 72.7402 35.3367 71.6053 35.9685 70.6328C36.6003 69.6602 37.5005 68.8916 38.56 68.4199L41.3 67.2L42 70L45 69ZM59 73.9V76H50L48.18 69.82L49 69L52 70L52.7 67.2L55.44 68.4199C56.4995 68.8916 57.3997 69.6602 58.0315 70.6328C58.6633 71.6053 58.9997 72.7402 59 73.9Z" fill="#EA5EEA"/>
<path d="M46 67L45 69L42 70L41.3 67.2L44 66L46 67Z" fill="#F89EF8"/>
<path d="M49 69L48.18 69.82L47 71L45.82 69.82L45 69L46 67H48L49 69Z" fill="#F89EF8"/>
<path d="M48.18 69.8201L50 76.0001H44L45.82 69.8201L47 71.0001L48.18 69.8201Z" fill="#F89EF8"/>
<path d="M52.7 67.2L52 70L49 69L48 67L50 66L52.7 67.2Z" fill="#F89EF8"/>
<path d="M50 63V65.32C49.0633 65.7676 48.0382 66 47 66C45.9618 66 44.9367 65.7676 44 65.32V63H50Z" fill="#F2CE9F"/>
<path d="M53.34 53C52.672 52.9976 52.0237 52.7734 51.4969 52.3625C50.9702 51.9516 50.5949 51.3774 50.43 50.73L50 49C50 50.0609 49.5786 51.0783 48.8284 51.8284C48.0783 52.5786 47.0609 53 46 53H40V57C40 58.8565 40.7375 60.637 42.0503 61.9497C43.363 63.2625 45.1435 64 47 64C48.8565 64 50.637 63.2625 51.9497 61.9497C53.2625 60.637 54 58.8565 54 57V53H53.34Z" fill="#F2CE9F"/>
<path d="M54 51V53H53.34C52.672 52.9976 52.0237 52.7734 51.4969 52.3625C50.9702 51.9516 50.5949 51.3774 50.43 50.73L50 49C50 50.0609 49.5786 51.0783 48.8284 51.8284C48.0783 52.5786 47.0609 53 46 53H40V51C40 49.1435 40.7375 47.363 42.0503 46.0503C43.363 44.7375 45.1435 44 47 44C48.8565 44 50.637 44.7375 51.9497 46.0503C53.2625 47.363 54 49.1435 54 51ZM22 50V48C22 47.2044 22.3161 46.4413 22.8787 45.8787C23.4413 45.3161 24.2044 45 25 45C25.7956 45 26.5587 45.3161 27.1213 45.8787C27.6839 46.4413 28 47.2044 28 48V50L26 48L24.59 49.41C24.4037 49.5969 24.1824 49.7452 23.9388 49.8465C23.6951 49.9477 23.4339 49.9999 23.17 50H22Z" fill="#996099"/>
<path d="M31 57.28V59H19V57.28C18.9991 56.8975 19.1078 56.5227 19.3134 56.2001C19.519 55.8775 19.8128 55.6207 20.16 55.46L23.85 53.77C24.2144 53.9218 24.6052 54 25 54C25.3948 54 25.7856 53.9218 26.15 53.77L29.84 55.46C30.1872 55.6207 30.481 55.8775 30.6866 56.2001C30.8922 56.5227 31.001 56.8975 31 57.28Z" fill="#E47FE4"/>
<path d="M28 50V51C28.0019 51.5799 27.8352 52.1479 27.5203 52.6349C27.2054 53.1219 26.7558 53.5069 26.2261 53.7431C25.6965 53.9793 25.1096 54.0566 24.5369 53.9655C23.9642 53.8744 23.4302 53.6189 23 53.23C22.9576 53.1961 22.9175 53.1593 22.88 53.12C22.601 52.8419 22.3797 52.5115 22.2287 52.1477C22.0777 51.7839 22 51.3939 22 51V50H23.17C23.4339 49.9999 23.6951 49.9477 23.9388 49.8465C24.1824 49.7452 24.4037 49.5969 24.59 49.41L26 48L28 50Z" fill="#F2CE9F"/>
<path d="M75 57.28V59H63V57.28C62.9991 56.8975 63.1078 56.5227 63.3134 56.2001C63.519 55.8775 63.8128 55.6207 64.16 55.46L67.85 53.77C68.2144 53.9218 68.6052 54 69 54C69.3948 54 69.7856 53.9218 70.15 53.77L73.84 55.46C74.1872 55.6207 74.481 55.8775 74.6866 56.2001C74.8922 56.5227 75.001 56.8975 75 57.28Z" fill="#E47FE4"/>
<path d="M69 45C69.7956 45 70.5587 45.3161 71.1213 45.8787C71.6839 46.4413 72 47.2044 72 48V50L70 48L68.59 49.41C68.4037 49.5969 68.1824 49.7452 67.9388 49.8465C67.6951 49.9477 67.4339 49.9999 67.17 50H66V48C66 47.2044 66.3161 46.4413 66.8787 45.8787C67.4413 45.3161 68.2044 45 69 45Z" fill="#996099"/>
<path d="M72 50V51C72.0019 51.5799 71.8352 52.1479 71.5203 52.6349C71.2054 53.1219 70.7558 53.5069 70.2261 53.7431C69.6965 53.9793 69.1096 54.0566 68.5369 53.9655C67.9642 53.8744 67.4302 53.6189 67 53.23C66.9576 53.1961 66.9175 53.1593 66.88 53.12C66.601 52.8419 66.3797 52.5115 66.2287 52.1477C66.0777 51.7839 66 51.3939 66 51V50H67.17C67.4339 49.9999 67.6951 49.9477 67.9388 49.8465C68.1824 49.7452 68.4037 49.5969 68.59 49.41L70 48L72 50Z" fill="#F2CE9F"/>
<path d="M76 32.28V34H64V32.28C63.9991 31.8975 64.1078 31.5227 64.3134 31.2001C64.519 30.8775 64.8128 30.6207 65.16 30.46L68.85 28.77C69.2144 28.9218 69.6052 29 70 29C70.3948 29 70.7856 28.9218 71.15 28.77L74.84 30.46C75.1872 30.6207 75.481 30.8775 75.6866 31.2001C75.8922 31.5227 76.001 31.8975 76 32.28Z" fill="#F89EF8"/>
<path d="M70 20C70.7956 20 71.5587 20.3161 72.1213 20.8787C72.6839 21.4413 73 22.2044 73 23V25L71 23L69.59 24.41C69.4037 24.5969 69.1824 24.7452 68.9388 24.8465C68.6951 24.9477 68.4339 24.9999 68.17 25H67V23C67 22.2044 67.3161 21.4413 67.8787 20.8787C68.4413 20.3161 69.2044 20 70 20Z" fill="#996099"/>
<path d="M73 25V26C73.0019 26.5799 72.8352 27.1479 72.5203 27.6349C72.2054 28.1219 71.7558 28.5069 71.2261 28.7431C70.6965 28.9793 70.1096 29.0566 69.5369 28.9655C68.9642 28.8744 68.4302 28.6189 68 28.23C67.9576 28.1961 67.9175 28.1593 67.88 28.12C67.601 27.8419 67.3797 27.5115 67.2287 27.1477C67.0777 26.7839 67 26.3939 67 26V25H68.17C68.4339 24.9999 68.6951 24.9477 68.9388 24.8465C69.1824 24.7452 69.4037 24.5969 69.59 24.41L71 23L73 25ZM50 23V24C50.0019 24.5799 49.8352 25.1479 49.5203 25.6349C49.2054 26.1219 48.7558 26.5069 48.2261 26.7431C47.6965 26.9793 47.1096 27.0566 46.5369 26.9655C45.9642 26.8744 45.4302 26.6189 45 26.23C44.9576 26.1961 44.9175 26.1593 44.88 26.12C44.601 25.8419 44.3797 25.5115 44.2287 25.1477C44.0777 24.7839 44 24.3939 44 24V23H45.17C45.4339 22.9999 45.6951 22.9477 45.9388 22.8465C46.1824 22.7452 46.4037 22.5969 46.59 22.41L48 21L50 23Z" fill="#F2CE9F"/>
<path d="M44 23V21C44 20.2044 44.3161 19.4413 44.8787 18.8787C45.4413 18.3161 46.2044 18 47 18C47.7956 18 48.5587 18.3161 49.1213 18.8787C49.6839 19.4413 50 20.2044 50 21V23L48 21L46.59 22.41C46.4037 22.5969 46.1824 22.7452 45.9388 22.8465C45.6951 22.9477 45.4339 22.9999 45.17 23H44Z" fill="#996099"/>
<path d="M53 30.28V32H41V30.28C40.9991 29.8975 41.1078 29.5227 41.3134 29.2001C41.519 28.8775 41.8128 28.6207 42.16 28.46L45.85 26.77C46.2144 26.9218 46.6052 27 47 27C47.3948 27 47.7856 26.9218 48.15 26.77L51.84 28.46C52.1872 28.6207 52.481 28.8775 52.6866 29.2001C52.8922 29.5227 53.001 29.8975 53 30.28Z" fill="#F89EF8"/>
<path d="M30 32.28V34H18V32.28C17.9991 31.8975 18.1078 31.5227 18.3134 31.2001C18.519 30.8775 18.8128 30.6207 19.16 30.46L22.85 28.77C23.2144 28.9218 23.6052 29 24 29C24.3948 29 24.7856 28.9218 25.15 28.77L28.84 30.46C29.1872 30.6207 29.481 30.8775 29.6866 31.2001C29.8922 31.5227 30.001 31.8975 30 32.28Z" fill="#F89EF8"/>
<path d="M22.85 28.77C22.5375 28.6406 22.2499 28.4579 22 28.23C21.9576 28.1961 21.9175 28.1593 21.88 28.12C21.601 27.8419 21.3797 27.5115 21.2287 27.1477C21.0777 26.7839 21 26.3939 21 26V25H22.17C22.4339 24.9999 22.6951 24.9477 22.9388 24.8465C23.1824 24.7452 23.4037 24.5969 23.59 24.41L25 23L27 25V26C26.9999 26.4935 26.878 26.9793 26.6452 27.4144C26.4124 27.8495 26.0759 28.2204 25.6655 28.4944C25.2551 28.7683 24.7834 28.9368 24.2923 28.9849C23.8012 29.033 23.3058 28.9592 22.85 28.77Z" fill="#F2CE9F"/>
<path d="M21 25V23C21 22.2044 21.3161 21.4413 21.8787 20.8787C22.4413 20.3161 23.2044 20 24 20C24.7956 20 25.5587 20.3161 26.1213 20.8787C26.6839 21.4413 27 22.2044 27 23V25L25 23L23.59 24.41C23.4037 24.5969 23.1824 24.7452 22.9388 24.8465C22.6951 24.9477 22.4339 24.9999 22.17 25H21Z" fill="#996099"/>
<path d="M68 42H58V40H68C68.2652 40 68.5196 39.8946 68.7071 39.7071C68.8946 39.5196 69 39.2652 69 39V37H71V39C71 39.7956 70.6839 40.5587 70.1213 41.1213C69.5587 41.6839 68.7957 42 68 42ZM36 42H26C25.2044 42 24.4413 41.6839 23.8787 41.1213C23.3161 40.5587 23 39.7956 23 39V37H25V39C25 39.2652 25.1054 39.5196 25.2929 39.7071C25.4804 39.8946 25.7348 40 26 40H36V42Z" fill="#F43EF4"/>
<path d="M48 35H46V41H48V35Z" fill="#F43EF4"/>
<path d="M60 67H58C58 66.2044 58.3161 65.4413 58.8787 64.8787C59.4413 64.3161 60.2043 64 61 64H67C67.2652 64 67.5196 63.8946 67.7071 63.7071C67.8946 63.5196 68 63.2652 68 63V62H70V63C70 63.7956 69.6839 64.5587 69.1213 65.1213C68.5587 65.6839 67.7957 66 67 66H61C60.7348 66 60.4804 66.1054 60.2929 66.2929C60.1054 66.4804 60 66.7348 60 67ZM36 67H34C34 66.7348 33.8946 66.4804 33.7071 66.2929C33.5196 66.1054 33.2652 66 33 66H27C26.2044 66 25.4413 65.6839 24.8787 65.1213C24.3161 64.5587 24 63.7956 24 63V62H26V63C26 63.2652 26.1054 63.5196 26.2929 63.7071C26.4804 63.8946 26.7348 64 27 64H33C33.7956 64 34.5587 64.3161 35.1213 64.8787C35.6839 65.4413 36 66.2044 36 67Z" fill="#F43EF4"/>
<path d="M45 55H43V57H45V55Z" fill="#F2CE9F"/>
<path d="M51 55H49V57H51V55Z" fill="#F2CE9F"/>
</svg>
