<svg width="94" height="94" viewBox="0 0 94 94" fill="none" xmlns="http://www.w3.org/2000/svg">
<circle cx="47" cy="47" r="47" fill="#FDECFD"/>
<path d="M70.5789 28.4737H23.421C19.7006 28.4737 16.6842 31.4901 16.6842 35.2106V60.4737C16.6842 64.1941 19.7006 67.2106 23.421 67.2106H42.648C43.5238 68.2144 45.1356 68.8948 47 68.8948C48.8644 68.8948 50.4762 68.2144 51.352 67.2106H70.5789C74.2994 67.2106 77.3158 64.1941 77.3158 60.4737V35.2106C77.3158 31.4901 74.2994 28.4737 70.5789 28.4737Z" fill="#EA5EEA"/>
<path d="M50.3684 62.1579C50.3684 64.0173 48.8594 65.5264 47 65.5264C45.1406 65.5264 43.6316 64.0173 43.6316 62.1579V31.8422C43.6316 29.9828 45.1406 28.4737 47 28.4737C48.8594 28.4737 50.3684 29.9828 50.3684 31.8422V62.1579Z" fill="#AA2FAA"/>
<path d="M47 60.4736C47 62.333 45.4909 63.842 43.6316 63.842H23.421C21.5617 63.842 20.0526 62.333 20.0526 60.4736V30.1578C20.0526 28.2985 21.5617 26.7894 23.421 26.7894H43.6316C45.4909 26.7894 47 28.2985 47 30.1578V60.4736Z" fill="#FBCBFB"/>
<path d="M47 60.4736C45.3174 57.1086 40.8408 57.1052 40.2631 57.1052C36.8947 57.1052 31.8421 60.4736 26.7894 60.4736C25.1052 60.4736 23.421 58.9646 23.421 57.1052V30.1578C23.421 28.2985 25.1052 26.7894 26.7894 26.7894C32.2715 26.7894 36.8947 23.421 40.2631 23.421C45.3158 23.421 47 26.6143 47 28.4736V60.4736Z" fill="#FBDDFB"/>
<path d="M73.9474 60.4736C73.9474 62.333 72.4383 63.842 70.5789 63.842H50.3684C48.5091 63.842 47 62.333 47 60.4736V30.1578C47 28.2985 48.5091 26.7894 50.3684 26.7894H70.5789C72.4383 26.7894 73.9474 28.2985 73.9474 30.1578V60.4736Z" fill="#FBCBFB"/>
<path d="M47 60.4736C48.6825 57.1086 53.1592 57.1052 53.7368 57.1052C57.1053 57.1052 62.1579 60.4736 67.2105 60.4736C68.8947 60.4736 70.5789 58.9646 70.5789 57.1052V30.1578C70.5789 28.2985 68.8947 26.7894 67.2105 26.7894C61.7267 26.7894 57.1053 23.421 53.7368 23.421C48.6842 23.421 47 26.6143 47 28.4736V60.4736Z" fill="#EDB9ED"/>
</svg>
