<svg width="40" height="40" viewBox="0 0 40 40" fill="none" xmlns="http://www.w3.org/2000/svg">
<path d="M39.5312 20.0688C39.5312 30.8553 30.7864 39.6001 20 39.6001C9.21352 39.6001 0.46875 30.8553 0.46875 20.0688C0.46875 9.28236 9.21352 0.537598 20 0.537598C30.7864 0.537598 39.5312 9.28236 39.5312 20.0688Z" fill="#0A7BBA"/>
<path d="M31.6684 21.6396V29.6924H27.0002V22.1802C27.0002 20.2932 26.327 19.0046 24.6355 19.0046C23.3469 19.0046 22.5801 19.8733 22.2419 20.7131C22.1178 21.0123 22.0872 21.4288 22.0872 21.8505V29.6925H17.4173C17.4173 29.6925 17.4802 16.968 17.4173 15.6508H22.0872V17.6413C22.0787 17.6566 22.0651 17.6716 22.0565 17.687H22.0872V17.6413C22.7077 16.686 23.8144 15.3208 26.2947 15.3208C29.3666 15.3208 31.6684 17.3284 31.6684 21.6396V21.6396ZM12.535 8.88281C10.9369 8.88281 9.89319 9.93172 9.89319 11.3088C9.89319 12.6568 10.9064 13.7345 12.4738 13.7345H12.5027C14.1313 13.7345 15.1445 12.6569 15.1445 11.3088C15.1139 9.9318 14.1313 8.88281 12.535 8.88281V8.88281ZM10.1703 29.6925H14.8368V15.6508H10.1703V29.6925V29.6925Z" fill="white"/>
</svg>
