<svg width="94" height="94" viewBox="0 0 94 94" fill="none" xmlns="http://www.w3.org/2000/svg">
<circle cx="47" cy="47" r="47" fill="#FDEFFD"/>
<path d="M62.57 33.1499C64.1931 33.1499 65.7497 33.7947 66.8974 34.9424C68.0452 36.0901 68.6899 37.6468 68.6899 39.2699V46.0899H56.45V39.2699C56.45 37.6468 57.0947 36.0901 58.2425 34.9424C59.3902 33.7947 60.9468 33.1499 62.57 33.1499Z" fill="#F43EF4"/>
<path d="M68.7 47.09H56.45C56.1847 47.09 55.9304 46.9847 55.7428 46.7971C55.5553 46.6096 55.45 46.3552 55.45 46.09V39.27C55.519 37.4265 56.2999 35.6816 57.6286 34.4018C58.9572 33.122 60.7302 32.407 62.575 32.407C64.4197 32.407 66.1927 33.122 67.5213 34.4018C68.85 35.6816 69.6309 37.4265 69.7 39.27V46.09C69.7 46.2213 69.6741 46.3514 69.6238 46.4727C69.5736 46.594 69.4999 46.7043 69.4071 46.7971C69.3142 46.89 69.204 46.9636 69.0826 47.0139C68.9613 47.0641 68.8313 47.09 68.7 47.09ZM57.45 45.09H67.7V39.27C67.6416 37.9499 67.0762 36.7033 66.1214 35.7898C65.1667 34.8763 63.8963 34.3664 62.575 34.3664C61.2536 34.3664 59.9832 34.8763 59.0285 35.7898C58.0737 36.7033 57.5083 37.9499 57.45 39.27V45.09Z" fill="#F43EF4"/>
<path d="M62.5699 30.6899C64.5029 30.6899 66.0699 29.1229 66.0699 27.1899C66.0699 25.2569 64.5029 23.6899 62.5699 23.6899C60.6369 23.6899 59.0699 25.2569 59.0699 27.1899C59.0699 29.1229 60.6369 30.6899 62.5699 30.6899Z" fill="#F43EF4"/>
<path d="M62.5699 31.6899C61.6799 31.6899 60.8099 31.426 60.0699 30.9316C59.3299 30.4371 58.7531 29.7343 58.4125 28.912C58.0719 28.0898 57.9828 27.185 58.1564 26.312C58.33 25.4391 58.7586 24.6373 59.388 24.008C60.0173 23.3786 60.8191 22.95 61.692 22.7764C62.565 22.6028 63.4698 22.6919 64.292 23.0325C65.1143 23.3731 65.8171 23.9499 66.3116 24.6899C66.806 25.4299 67.0699 26.2999 67.0699 27.1899C67.0673 28.3826 66.5924 29.5257 65.749 30.369C64.9057 31.2123 63.7626 31.6873 62.5699 31.6899ZM62.5699 24.6899C62.0755 24.6899 61.5921 24.8366 61.181 25.1113C60.7699 25.386 60.4495 25.7764 60.2602 26.2332C60.071 26.6901 60.0215 27.1927 60.118 27.6777C60.2144 28.1626 60.4526 28.6081 60.8022 28.9577C61.1518 29.3073 61.5973 29.5454 62.0822 29.6419C62.5672 29.7384 63.0698 29.6889 63.5267 29.4996C63.9835 29.3104 64.3739 28.99 64.6486 28.5789C64.9233 28.1677 65.0699 27.6844 65.0699 27.1899C65.0699 26.8616 65.0053 26.5365 64.8796 26.2332C64.754 25.9299 64.5699 25.6543 64.3377 25.4222C64.1056 25.19 63.83 25.0059 63.5267 24.8802C63.2233 24.7546 62.8983 24.6899 62.5699 24.6899Z" fill="#F43EF4"/>
<path d="M62.57 61.6001C64.1931 61.6001 65.7497 62.2449 66.8975 63.3926C68.0452 64.5403 68.69 66.097 68.69 67.7201V74.5401H56.45V67.7301C56.4486 66.9256 56.606 66.1287 56.9129 65.385C57.2199 64.6413 57.6705 63.9655 58.2389 63.3961C58.8074 62.8268 59.4825 62.3751 60.2256 62.0669C60.9688 61.7587 61.7654 61.6001 62.57 61.6001Z" fill="#E68DE6"/>
<path d="M68.6999 75.55H56.4499C56.1847 75.55 55.9304 75.4446 55.7428 75.2571C55.5553 75.0696 55.4499 74.8152 55.4499 74.55V67.73C55.414 66.7719 55.5718 65.8163 55.9136 64.9206C56.2555 64.0248 56.7746 63.2072 57.4398 62.5166C58.1049 61.8261 58.9025 61.2768 59.7849 60.9016C60.6672 60.5264 61.6161 60.333 62.5749 60.333C63.5337 60.333 64.4827 60.5264 65.365 60.9016C66.2474 61.2768 67.045 61.8261 67.7101 62.5166C68.3753 63.2072 68.8943 64.0248 69.2362 64.9206C69.5781 65.8163 69.7358 66.7719 69.6999 67.73V74.55C69.6999 74.8152 69.5946 75.0696 69.4071 75.2571C69.2195 75.4446 68.9652 75.55 68.6999 75.55ZM57.4499 73.55H67.6999V67.73C67.7305 67.0379 67.6206 66.3468 67.3768 65.6984C67.1331 65.0499 66.7605 64.4576 66.2816 63.957C65.8027 63.4565 65.2274 63.0582 64.5903 62.786C63.9533 62.5138 63.2677 62.3735 62.5749 62.3735C61.8822 62.3735 61.1966 62.5138 60.5596 62.786C59.9225 63.0582 59.3472 63.4565 58.8683 63.957C58.3894 64.4576 58.0168 65.0499 57.773 65.6984C57.5293 66.3468 57.4194 67.0379 57.4499 67.73V73.55Z" fill="#E68DE6"/>
<path d="M62.5699 59.1499C64.5029 59.1499 66.0699 57.5829 66.0699 55.6499C66.0699 53.7169 64.5029 52.1499 62.5699 52.1499C60.6369 52.1499 59.0699 53.7169 59.0699 55.6499C59.0699 57.5829 60.6369 59.1499 62.5699 59.1499Z" fill="#E68DE6"/>
<path d="M62.5699 60.1499C61.6799 60.1499 60.8099 59.886 60.0699 59.3915C59.3299 58.8971 58.7531 58.1942 58.4125 57.372C58.0719 56.5497 57.9828 55.6449 58.1564 54.772C58.33 53.8991 58.7586 53.0973 59.388 52.4679C60.0173 51.8386 60.8191 51.41 61.692 51.2364C62.565 51.0627 63.4698 51.1519 64.292 51.4924C65.1143 51.833 65.8171 52.4098 66.3116 53.1498C66.806 53.8899 67.0699 54.7599 67.0699 55.6499C67.0673 56.8426 66.5924 57.9856 65.749 58.829C64.9057 59.6723 63.7626 60.1473 62.5699 60.1499ZM62.5699 53.1499C62.0755 53.1499 61.5921 53.2965 61.181 53.5712C60.7699 53.8459 60.4495 54.2364 60.2602 54.6932C60.071 55.15 60.0215 55.6527 60.118 56.1376C60.2144 56.6226 60.4526 57.068 60.8022 57.4177C61.1518 57.7673 61.5973 58.0054 62.0822 58.1019C62.5672 58.1983 63.0698 58.1488 63.5267 57.9596C63.9835 57.7704 64.3739 57.45 64.6486 57.0388C64.9233 56.6277 65.0699 56.1444 65.0699 55.6499C65.0699 54.9869 64.8066 54.351 64.3377 53.8821C63.8689 53.4133 63.233 53.1499 62.5699 53.1499Z" fill="#E68DE6"/>
<path d="M29.54 45.26C31.1632 45.26 32.7198 45.9048 33.8675 47.0525C35.0153 48.2002 35.66 49.7569 35.66 51.38V58.2H23.42V51.38C23.42 49.7569 24.0648 48.2002 25.2126 47.0525C26.3603 45.9048 27.9169 45.26 29.54 45.26Z" fill="#EA5EEA"/>
<path d="M35.67 59.2001H23.42C23.1548 59.2001 22.9005 59.0948 22.7129 58.9072C22.5254 58.7197 22.42 58.4653 22.42 58.2001V51.3801C22.4891 49.5366 23.27 47.7917 24.5987 46.5119C25.9273 45.2321 27.7003 44.5171 29.545 44.5171C31.3898 44.5171 33.1628 45.2321 34.4914 46.5119C35.8201 47.7917 36.601 49.5366 36.67 51.3801V58.2001C36.67 58.4653 36.5647 58.7197 36.3772 58.9072C36.1896 59.0948 35.9353 59.2001 35.67 59.2001ZM24.42 57.2001H34.67V51.3801C34.6117 50.06 34.0463 48.8134 33.0915 47.8999C32.1368 46.9864 30.8664 46.4766 29.545 46.4766C28.2237 46.4766 26.9533 46.9864 25.9985 47.8999C25.0438 48.8134 24.4784 50.06 24.42 51.3801V57.2001Z" fill="#EA5EEA"/>
<path d="M29.54 42.8C31.473 42.8 33.04 41.233 33.04 39.3C33.04 37.3671 31.473 35.8 29.54 35.8C27.607 35.8 26.04 37.3671 26.04 39.3C26.04 41.233 27.607 42.8 29.54 42.8Z" fill="#EA5EEA"/>
<path d="M29.54 43.8001C28.6483 43.808 27.7744 43.5509 27.0291 43.0613C26.2839 42.5716 25.7009 41.8716 25.3541 41.0501C25.0074 40.2286 24.9126 39.3225 25.0816 38.447C25.2507 37.5715 25.6761 36.7659 26.3038 36.1326C26.9316 35.4992 27.7333 35.0666 28.6073 34.8897C29.4813 34.7128 30.3881 34.7996 31.2127 35.139C32.0373 35.4784 32.7425 36.0551 33.2387 36.7959C33.735 37.5368 34 38.4084 34 39.3001C33.9974 40.4859 33.528 41.623 32.6933 42.4652C31.8585 43.3074 30.7257 43.787 29.54 43.8001ZM29.54 36.8001C29.0439 36.7922 28.5567 36.932 28.1403 37.2019C27.724 37.4717 27.3973 37.8593 27.202 38.3154C27.0066 38.7714 26.9514 39.2753 27.0433 39.7629C27.1352 40.2504 27.3701 40.6996 27.718 41.0532C28.066 41.4069 28.5114 41.649 28.9974 41.7487C29.4834 41.8485 29.9881 41.8014 30.4472 41.6134C30.9064 41.4254 31.2992 41.1051 31.5757 40.6931C31.8523 40.2812 31.9999 39.7963 32 39.3001C32.0001 38.6439 31.7422 38.0141 31.282 37.5463C30.8217 37.0786 30.1961 36.8106 29.54 36.8001Z" fill="#EA5EEA"/>
<path d="M52.5 65.7199C52.3684 65.7207 52.2379 65.6954 52.1161 65.6457C51.9943 65.5959 51.8835 65.5226 51.79 65.4299L38.79 52.4299C38.6073 52.2383 38.5037 51.9847 38.5 51.7199C38.4993 51.5883 38.5245 51.4578 38.5742 51.336C38.624 51.2142 38.6973 51.1034 38.79 51.0099L51.79 38.0099C51.8833 37.9167 51.9939 37.8427 52.1158 37.7923C52.2376 37.7418 52.3682 37.7158 52.5 37.7158C52.6319 37.7158 52.7624 37.7418 52.8843 37.7923C53.0061 37.8427 53.1168 37.9167 53.21 38.0099C53.3033 38.1032 53.3772 38.2138 53.4277 38.3357C53.4781 38.4575 53.5041 38.5881 53.5041 38.7199C53.5041 38.8518 53.4781 38.9823 53.4277 39.1042C53.3772 39.226 53.3033 39.3367 53.21 39.4299L40.91 51.7299L53.21 63.9999C53.3037 64.0929 53.3781 64.2035 53.4289 64.3253C53.4797 64.4472 53.5058 64.5779 53.5058 64.7099C53.5058 64.8419 53.4797 64.9726 53.4289 65.0945C53.3781 65.2163 53.3037 65.3269 53.21 65.4199C53.1174 65.5144 53.007 65.5896 52.8851 65.6411C52.7632 65.6926 52.6323 65.7194 52.5 65.7199Z" fill="#F1B0F1"/>
<path d="M52.27 41.23C51.8744 41.23 51.4877 41.1127 51.1588 40.8929C50.8299 40.6732 50.5736 40.3608 50.4222 39.9953C50.2708 39.6299 50.2312 39.2278 50.3084 38.8398C50.3856 38.4518 50.5761 38.0955 50.8558 37.8158C51.1355 37.5361 51.4918 37.3456 51.8798 37.2684C52.2678 37.1912 52.6699 37.2308 53.0353 37.3822C53.4008 37.5336 53.7132 37.7899 53.9329 38.1188C54.1527 38.4477 54.27 38.8344 54.27 39.23C54.27 39.7604 54.0593 40.2691 53.6842 40.6442C53.3091 41.0193 52.8004 41.23 52.27 41.23ZM39.5 53.73C39.1011 53.7304 38.7112 53.6115 38.3804 53.3887C38.0496 53.1658 37.793 52.8491 37.6436 52.4793C37.4942 52.1094 37.4587 51.7034 37.5418 51.3133C37.6249 50.9231 37.8228 50.5668 38.11 50.29C38.3456 50.0629 38.6334 49.8971 38.948 49.8071C39.2626 49.7171 39.5946 49.7057 39.9146 49.7739C40.2347 49.8421 40.5332 49.9878 40.7838 50.1982C41.0345 50.4086 41.2297 50.6773 41.3523 50.9807C41.4749 51.2841 41.5211 51.613 41.487 51.9385C41.4529 52.2639 41.3395 52.5761 41.1566 52.8475C40.9737 53.1189 40.7271 53.3413 40.4382 53.4951C40.1494 53.649 39.8272 53.7296 39.5 53.73ZM52.5 67C51.9695 67 51.4608 66.7893 51.0858 66.4142C50.7107 66.0391 50.5 65.5304 50.5 65C50.5063 64.7373 50.5643 64.4785 50.6707 64.2383C50.7771 63.9981 50.9297 63.7812 51.12 63.6C51.5068 63.2603 52.0096 63.0828 52.5239 63.1044C53.0383 63.1261 53.5244 63.3452 53.8813 63.7162C54.2381 64.0873 54.4382 64.5816 54.4398 65.0964C54.4414 65.6111 54.2445 66.1067 53.89 66.48C53.5105 66.8252 53.0129 67.0113 52.5 67ZM52.5 65L53.19 65.72L52.5 65Z" fill="#DB61DB"/>
</svg>
