<svg width="94" height="94" viewBox="0 0 94 94" fill="none" xmlns="http://www.w3.org/2000/svg">
<circle cx="47" cy="47" r="47" fill="#FDECFD"/>
<path d="M47 75C62.464 75 75 62.464 75 47C75 31.536 62.464 19 47 19C31.536 19 19 31.536 19 47C19 62.464 31.536 75 47 75Z" fill="#F89EF8"/>
<path d="M47 69C59.1503 69 69 59.1503 69 47C69 34.8497 59.1503 25 47 25C34.8497 25 25 34.8497 25 47C25 59.1503 34.8497 69 47 69Z" fill="#FDC4FD"/>
<path d="M42.4 29.5998C38.4 30.5998 34.8 33.1998 32.4 36.5998L31.4 35.9998C30.6 35.5998 29.6 35.7998 29.2 36.5998C29 36.7998 29 36.9998 29 37.3998V44.1998C29 44.9998 29.8 45.7998 30.6 45.7998C30.8 45.7998 31.2 45.7998 31.4 45.5998L37.4 42.1998C38.2 41.7998 38.4 40.7998 38 39.9998C37.8 39.7998 37.6 39.5998 37.4 39.3998L36 38.5998C40.6 32.3998 49.4 31.1998 55.6 35.7998C58.2 37.5998 60 40.3998 60.8 43.3998C61 44.3998 62 45.1998 63.2 44.9998C64.2 44.7998 65 43.7998 64.8 42.5998V42.3998C62 32.7998 52 26.9998 42.4 29.5998ZM62 49.1998L56 52.5998C55.2 52.9998 55 53.9998 55.4 54.7998C55.6 54.9998 55.8 55.1998 56 55.3998L57.6 56.1998C52.4 61.9998 43.6 62.5998 37.8 57.3998C35.8 55.5998 34.2 53.1998 33.6 50.5998C33.2 49.5998 32 48.9998 31 49.1998C30 49.5998 29.4 50.3998 29.6 51.3998C32.2 60.9998 42 66.5998 51.6 63.9998C55.2 62.9998 58.4 60.9998 60.8 57.9998L61.8 58.5998C62.6 58.9998 63.6 58.7998 64 57.9998C64.2 57.7998 64.2 57.3998 64.2 57.1998V50.3998C64.2 49.5998 63.4 48.7998 62.6 48.7998C62.4 48.9998 62.2 48.9998 62 49.1998Z" fill="#EA5EEA"/>
<path d="M21.4 45H21C20 44.8 19.2 43.8 19.4 42.8C21.6 29.2 33.2 19 47 19C48.4 19 49.8 19.2 51.2 19.4C52.4 19.6 53 20.6 53 21.6C53 22.6 51.8 23.4 50.8 23.4C49.4 23.2 48.2 23 47 23C35.2 23 25.2 31.6 23.2 43.2C23.2 44.2 22.2 45 21.4 45Z" fill="#FBCBFB"/>
<path d="M53.0001 74.2C52.0001 74.2 51.2001 73.6 51.0001 72.6C50.8001 71.6 51.4001 70.4 52.4001 70.2C59.2001 68.6 65.0001 64.2 68.2001 58C68.6001 57 69.8001 56.6 70.8001 57C71.8001 57.4 72.2001 58.6 71.8001 59.6C71.8001 59.6 71.8001 59.8 71.6001 59.8C67.8001 67 61.2001 72.2 53.2001 74.2H53.0001Z" fill="#FBCBFB"/>
<path d="M47 29C41.6 29 36.4 31.4 33 35.8L32.4 36.6L31.4 36C30.6 35.6 29.6 35.8 29.2 36.6C29 36.8 29 37 29 37.4V44.2C29 44.8 29.2 45.2 29.8 45.6C31.8 44.2 31.2 42.4 32.8 40.2C33.4 39.6 34 39.2 34.8 39C35.4 39 36 38.8 36.4 38.2C38.8 35 42.8 33 47 33C48.2 33 49 32.2 49 31C49 29.8 48.2 29 47 29Z" fill="#F878F8"/>
<path d="M64.4001 50.6C64.4001 49.8 63.6001 49 62.8001 49C62.6001 49 62.2001 49 62.0001 49.2L56.0001 52.6C55.2001 53 55.0001 54 55.4001 54.8C55.6001 55 55.8001 55.2 56.0001 55.4L57.6001 56.2C57.2001 56.6 56.8001 57 56.4001 57.4C53.6001 59.8 50.4001 61 47.0001 61C45.8001 61 44.6001 60.8 43.4001 60.6C42.4001 60.2 41.2001 61 41.0001 62C40.8001 63 41.4001 64.2 42.4001 64.4C43.8001 64.8 45.4001 65 47.0001 65C51.4001 65 55.8001 63.4 59.0001 60.4C59.6001 59.8 60.4001 59.2 60.8001 58.4L61.8001 59C62.6001 59.4 63.6001 59.2 64.0001 58.4C64.2001 58.2 64.2001 57.8 64.2001 57.6L64.4001 50.6Z" fill="#F878F8"/>
</svg>
