<svg width="37" height="28" viewBox="0 0 37 28" fill="none" xmlns="http://www.w3.org/2000/svg">
<path d="M16.9261 20.6777C16.9256 20.678 16.9253 20.6786 16.9254 20.6792C16.968 21.6719 16.7898 22.6618 16.4034 23.5785C16.0169 24.4954 15.4315 25.3165 14.6889 25.9833L14.6831 25.988C13.1456 27.3412 11.1433 28.0566 9.08978 27.9865H9.1027C7.86144 28.0531 6.62063 27.8476 5.4684 27.3845C4.31618 26.9214 3.28081 26.2122 2.43586 25.3071L2.43116 25.3024C0.737189 23.307 -0.126829 20.7456 0.0150762 18.14L0.0139016 18.1644C-0.064821 15.4585 0.441842 12.7672 1.49973 10.2721L1.45275 10.3968C2.29739 8.44055 3.46931 6.64018 4.9189 5.07191L4.90597 5.0859C6.10355 3.79624 7.49122 2.69432 9.02166 1.81773L9.10623 1.77342C10.2637 1.11055 11.4718 0.538654 12.7192 0.0629617C12.8261 0.0269031 12.9437 0.0703231 13.0015 0.167215L14.4044 2.51773C15.5484 4.43459 14.6227 6.92028 13.1135 8.56508C12.966 8.7258 12.8239 8.89185 12.6875 9.06298L12.6722 9.0828C11.6529 10.2881 11.0136 11.7645 10.834 13.3281C10.8321 13.3482 10.8477 13.3658 10.868 13.3664C11.6561 13.3912 12.4305 13.5783 13.1421 13.9162C13.8649 14.2594 14.5065 14.7503 15.0249 15.3568L15.0319 15.365C16.3499 16.8217 17.0317 18.7381 16.9277 20.6934L16.9286 20.6792C16.9287 20.6779 16.9272 20.677 16.9261 20.6777ZM36.8319 20.6781C36.8319 20.6782 36.8319 20.6783 36.8319 20.6784C36.8742 21.6716 36.6957 22.6619 36.309 23.579C35.9223 24.4961 35.3369 25.3174 34.5943 25.9845L34.5885 25.9892C33.0513 27.3429 31.0488 28.0584 28.9952 27.9876H29.0081C27.7668 28.0546 26.5259 27.8492 25.3736 27.3861C24.2213 26.923 23.186 26.2136 22.3413 25.3083L22.3366 25.3024C20.6419 23.3069 19.7778 20.7449 19.9205 18.1388L19.9193 18.1633C19.8406 15.4573 20.3472 12.766 21.4051 10.2709L21.3581 10.3957C22.2024 8.43972 23.3735 6.63941 24.8219 5.07075L24.809 5.08474C26.007 3.79505 27.3951 2.69313 28.9259 1.81656L29.0104 1.77225C30.1677 1.10892 31.3758 0.537003 32.6234 0.0617957C32.7303 0.0257383 32.8479 0.069166 32.9057 0.166062L34.3087 2.51756C35.4522 4.43425 34.5271 6.91924 33.0183 8.56392C32.8702 8.72538 32.7275 8.89219 32.5905 9.06415L32.5753 9.08397C31.556 10.2892 30.9167 11.7657 30.7371 13.3292C30.7352 13.3494 30.7508 13.3669 30.771 13.3676C31.5588 13.3922 32.3329 13.5793 33.0441 13.9172C33.7666 14.2604 34.4078 14.7514 34.9256 15.358L34.9326 15.3661C36.252 16.8218 36.9352 18.7379 36.8319 20.6934L36.8329 20.6784C36.8329 20.6778 36.8322 20.6776 36.8319 20.6781Z" fill="#FE80FE"/>
</svg>
