<svg width="100" height="100" viewBox="0 0 100 100" fill="none" xmlns="http://www.w3.org/2000/svg">
<path d="M50.9608 69.6122C48.2651 64.847 47.2141 59.3266 47.9702 53.9042C48.7264 48.4819 51.2476 43.4596 55.1442 39.6137C59.0407 35.7679 64.0955 33.3126 69.5273 32.6275C74.9591 31.9424 80.4653 33.0656 85.1948 35.8234C89.9242 38.5813 93.6135 42.8203 95.6924 47.885C97.7713 52.9498 98.124 58.5583 96.696 63.8436C95.2679 69.1289 92.1387 73.7966 87.792 77.1252C83.4452 80.4538 78.1231 82.2579 72.6483 82.2586C68.2352 82.2704 63.8989 81.1046 60.0866 78.8816C56.2743 76.6585 53.124 73.4587 50.9608 69.6122Z" fill="white"/>
<path d="M60.7619 30.9294C63.5414 30.9255 66.2867 31.5428 68.797 32.736C64.8194 33.3602 61.0523 34.9389 57.8179 37.3369C54.5836 39.7348 51.9784 42.8807 50.2254 46.5054C48.4723 50.13 47.6235 54.1254 47.7516 58.1496C47.8797 62.1739 48.981 66.1072 50.9611 69.613H14.8673C13.2299 69.612 11.6088 69.2876 10.0971 68.6584C8.5854 68.0292 7.21286 67.1076 6.0583 65.9465C4.90373 64.7854 3.98988 63.4076 3.36922 61.8924C2.74856 60.3772 2.43331 58.7543 2.44156 57.1169C2.44124 57.1006 2.44189 57.0842 2.44352 57.068L2.46305 56.4118C2.47672 48.568 7.82633 41.8844 15.172 40.195V40.1891C15.1731 35.0405 16.9436 30.0487 20.1868 26.05C23.43 22.0513 27.9489 19.2886 32.9864 18.2248C38.0239 17.161 43.2739 17.8607 47.857 20.2067C52.44 22.5527 56.0776 26.4025 58.1603 31.111C59.0222 30.9899 59.8915 30.9292 60.7619 30.9294Z" fill="#AFD4F1"/>
<path d="M72.6492 30.4863C71.461 30.488 70.2743 30.5677 69.0966 30.725C66.4717 29.5648 63.6323 28.9691 60.7624 28.9766C60.2843 28.9766 59.8054 28.9932 59.3283 29.0264C57.274 25.0397 54.162 21.6955 50.3332 19.3602C46.5044 17.0249 42.1066 15.7888 37.6218 15.7871C24.6689 15.7871 14.0408 25.9313 13.2648 38.6973C9.81635 39.8186 6.77805 41.9377 4.53431 44.7863C1.94066 48.0957 0.524811 52.1756 0.510875 56.3803L0.493492 56.9662C0.489977 57.0236 0.489391 57.0713 0.489391 57.1064C0.481249 58.9969 0.847606 60.8703 1.56732 62.6184C2.28703 64.3665 3.34584 65.9548 4.68264 67.2915C6.01944 68.6283 7.60776 69.687 9.35591 70.4067C11.1041 71.1263 12.9774 71.4926 14.8679 71.4844H49.8556C54.7486 79.4922 63.3763 84.1719 72.6486 84.1719C87.4611 84.1719 99.5119 72.1416 99.5119 57.3291C99.5119 42.5166 87.4617 30.4863 72.6492 30.4863ZM7.44369 64.5289C6.47107 63.5605 5.70069 62.4083 5.17735 61.1395C4.65401 59.8706 4.38816 58.5104 4.39525 57.1379C4.39525 57.1275 4.39623 57.1272 4.39642 57.1166L4.41595 56.4654C4.41595 56.4471 4.41595 56.4312 4.41595 56.4131C4.42096 53.074 5.54224 49.8324 7.6015 47.2039C9.61383 44.6423 12.4379 42.8417 15.6093 42.098C16.0404 41.9978 16.4248 41.7545 16.7 41.4079C16.9752 41.0612 17.1249 40.6316 17.1247 40.1891C17.1259 35.4883 18.7424 30.9307 21.7036 27.2799C24.6648 23.629 28.7906 21.1067 33.39 20.1356C37.9894 19.1644 42.7827 19.8034 46.9671 21.9455C51.1514 24.0875 54.4725 27.6025 56.374 31.9016C56.5462 32.29 56.8403 32.6117 57.2118 32.8181C57.5832 33.0245 58.0117 33.1042 58.4326 33.0453C59.2041 32.937 59.9823 32.8827 60.7615 32.8828C61.0138 32.8828 61.2648 32.8898 61.5148 32.9008C56.8302 35.0347 52.8573 38.4696 50.0688 42.7967C47.2804 47.1238 45.7937 52.1609 45.7859 57.3086C45.7745 60.8351 46.4737 64.3277 47.8415 67.5781H14.8679C13.4898 67.5892 12.1233 67.3252 10.8485 66.8017C9.57371 66.2781 8.41617 65.5054 7.44369 64.5289ZM72.6492 80.3066C68.1087 80.3066 63.6702 78.9602 59.8949 76.4377C56.1196 73.9151 53.1772 70.3297 51.4396 66.1349C49.7021 61.94 49.2474 57.3241 50.1332 52.8709C51.019 48.4177 53.2055 44.3271 56.4161 41.1165C59.6267 37.9059 63.7172 35.7195 68.1705 34.8337C72.6237 33.9479 77.2396 34.4025 81.4344 36.1401C85.6293 37.8776 89.2147 40.8201 91.7372 44.5954C94.2598 48.3706 95.6062 52.8091 95.6062 57.3496C95.59 63.4332 93.1661 69.263 88.8643 73.5648C84.5626 77.8666 78.7328 80.2905 72.6492 80.3066Z" fill="#0F6BBF"/>
<path d="M73.9189 46.9197C73.5545 46.5666 73.0671 46.3691 72.5597 46.3691C72.0523 46.3691 71.5649 46.5666 71.2005 46.9197L63.7493 54.1405C63.5651 54.319 63.4179 54.5321 63.316 54.7675C63.2141 55.0028 63.1596 55.256 63.1555 55.5125C63.1515 55.769 63.198 56.0237 63.2924 56.2622C63.3868 56.5007 63.5273 56.7183 63.7058 56.9025C63.8794 57.0864 64.088 57.2337 64.3194 57.3357C64.5508 57.4377 64.8003 57.4923 65.0531 57.4964C65.306 57.5004 65.5571 57.4538 65.7917 57.3593C66.0262 57.2648 66.2395 57.1243 66.4189 56.946L70.5089 52.9347V66.3769C70.5089 66.8949 70.7147 67.3917 71.081 67.7579C71.4472 68.1242 71.944 68.33 72.462 68.33C72.98 68.33 73.4768 68.1242 73.8431 67.7579C74.2094 67.3917 74.4152 66.8949 74.4152 66.3769V52.9347L78.6029 56.9456C78.9763 57.2998 79.4716 57.4969 79.9863 57.496C80.2498 57.4964 80.5108 57.4441 80.7539 57.342C80.9969 57.24 81.2171 57.0904 81.4015 56.9021C81.5804 56.7183 81.7213 56.501 81.8162 56.2627C81.9112 56.0245 81.9582 55.7698 81.9548 55.5133C81.9513 55.2569 81.8973 55.0036 81.7959 54.768C81.6946 54.5324 81.5478 54.319 81.364 54.1402L73.9189 46.9197Z" fill="#0F6BBF"/>
</svg>
