<svg width="40" height="40" viewBox="0 0 40 40" fill="none" xmlns="http://www.w3.org/2000/svg">
<path d="M0.617188 20.0005C0.617188 9.29736 9.29688 0.617676 20 0.617676C30.7031 0.617676 39.3828 9.29736 39.3828 20.0005C39.3828 30.7036 30.7031 39.3833 20 39.3833C9.29688 39.3833 0.617188 30.7036 0.617188 20.0005Z" fill="#D42428"/>
<path d="M33.7031 6.29639C41.2734 13.8667 41.2734 26.1401 33.7031 33.7026C26.1328 41.2729 13.8594 41.2729 6.29688 33.7026L33.7031 6.29639Z" fill="#CC202D"/>
<path fill-rule="evenodd" clip-rule="evenodd" d="M30.1406 16.2578C30.1406 14.6328 28.8281 13.3203 27.2031 13.3203H13.4062C11.7813 13.3203 10.4688 14.6406 10.4688 16.2578V24.1484C10.4688 25.7734 11.7813 27.0937 13.4062 27.0937H27.1953C28.8203 27.0937 30.1328 25.7734 30.1328 24.1484V16.2578H30.1406ZM18.3359 23.5312V16.125L23.9531 19.8281L18.3359 23.5312Z" fill="white"/>
</svg>
