<svg width="20" height="20" viewBox="0 0 20 20" fill="none" xmlns="http://www.w3.org/2000/svg">
<g clip-path="url(#clip0_4488_127905)">
<path d="M9.99163 1.66667C5.39163 1.66667 1.66663 5.4 1.66663 10C1.66663 14.6 5.39163 18.3333 9.99163 18.3333C14.6 18.3333 18.3333 14.6 18.3333 10C18.3333 5.4 14.6 1.66667 9.99163 1.66667ZM9.99996 16.6667C6.31663 16.6667 3.33329 13.6833 3.33329 10C3.33329 6.31667 6.31663 3.33333 9.99996 3.33333C13.6833 3.33333 16.6666 6.31667 16.6666 10C16.6666 13.6833 13.6833 16.6667 9.99996 16.6667Z" fill="#77838F"/>
<path d="M10.4166 5.83333H9.16663V10.8333L13.5416 13.4583L14.1666 12.4333L10.4166 10.2083V5.83333Z" fill="#77838F"/>
</g>
<defs>
<clipPath id="clip0_4488_127905">
<rect width="20" height="20" fill="white"/>
</clipPath>
</defs>
</svg>
