<svg width="24" height="25" viewBox="0 0 24 25" fill="none" xmlns="http://www.w3.org/2000/svg">
<path d="M21.5 6.18402V8.18402H18.5V11.184H16.5V8.18402H13.5V6.18402H16.5V3.18402H18.5V6.18402H21.5ZM18.5 20.184H4.5V6.18402H10.5V4.18402H4.5C3.4 4.18402 2.5 5.08402 2.5 6.18402V20.184C2.5 21.284 3.4 22.184 4.5 22.184H18.5C19.6 22.184 20.5 21.284 20.5 20.184V14.184H18.5V20.184ZM14.5 14.184V18.184H16.5V14.184H14.5ZM10.5 18.184H12.5V10.184H10.5V18.184ZM8.5 18.184V12.184H6.5V18.184H8.5Z" fill="#49454E"/>
</svg>
