<svg width="24" height="25" viewBox="0 0 24 25" fill="none" xmlns="http://www.w3.org/2000/svg">
<path d="M10 11.7204C12.21 11.7204 14 9.9304 14 7.7204C14 5.5104 12.21 3.7204 10 3.7204C7.79 3.7204 6 5.5104 6 7.7204C6 9.9304 7.79 11.7204 10 11.7204ZM10 5.7204C11.1 5.7204 12 6.6204 12 7.7204C12 8.8204 11.1 9.7204 10 9.7204C8.9 9.7204 8 8.8204 8 7.7204C8 6.6204 8.9 5.7204 10 5.7204Z" fill="#49454E"/>
<path d="M4 17.7204C4.22 17.0004 7.31 15.7204 10 15.7204C10 15.0204 10.13 14.3504 10.35 13.7304C7.62 13.6304 2 14.9904 2 17.7204V19.7204H11.54C11.02 19.1404 10.61 18.4704 10.35 17.7204H4Z" fill="#49454E"/>
<path d="M19.43 17.7404C19.79 17.1504 20 16.4604 20 15.7204C20 13.5104 18.21 11.7204 16 11.7204C13.79 11.7204 12 13.5104 12 15.7204C12 17.9304 13.79 19.7204 16 19.7204C16.74 19.7204 17.43 19.5004 18.02 19.1504C18.95 20.0804 19.64 20.7704 20.59 21.7204L22 20.3104C20.5 18.8104 21.21 19.5104 19.43 17.7404ZM16 17.7204C14.9 17.7204 14 16.8204 14 15.7204C14 14.6204 14.9 13.7204 16 13.7204C17.1 13.7204 18 14.6204 18 15.7204C18 16.8204 17.1 17.7204 16 17.7204Z" fill="#49454E"/>
</svg>
