<svg width="24" height="25" viewBox="0 0 24 25" fill="none" xmlns="http://www.w3.org/2000/svg">
<path d="M15 12.5735C17.21 12.5735 19 10.7835 19 8.57346C19 6.36346 17.21 4.57346 15 4.57346C12.79 4.57346 11 6.36346 11 8.57346C11 10.7835 12.79 12.5735 15 12.5735ZM15 6.57346C16.1 6.57346 17 7.47346 17 8.57346C17 9.67346 16.1 10.5735 15 10.5735C13.9 10.5735 13 9.67346 13 8.57346C13 7.47346 13.9 6.57346 15 6.57346ZM15 14.5735C12.33 14.5735 7 15.9135 7 18.5735V20.5735H23V18.5735C23 15.9135 17.67 14.5735 15 14.5735ZM9 18.5735C9.22 17.8535 12.31 16.5735 15 16.5735C17.7 16.5735 20.8 17.8635 21 18.5735H9ZM6 15.5735V12.5735H9V10.5735H6V7.57346H4V10.5735H1V12.5735H4V15.5735H6Z" fill="#49454E"/>
</svg>
