<svg width="40" height="40" viewBox="0 0 40 40" fill="none" xmlns="http://www.w3.org/2000/svg">
<path d="M8.33331 10.5H31.6666C34.1519 10.5 36.1666 12.5147 36.1666 15V19.1744L25.1898 22.8333H14.8101L3.83331 19.1744V15C3.83331 12.5147 5.84804 10.5 8.33331 10.5Z" fill="white" stroke="#0F6BBF"/>
<path d="M16.6666 7.83333H16.1666V8.33333V10.1716H13.8333V8.3339C13.8351 6.76961 15.1027 5.50193 16.6669 5.5H23.333C24.8973 5.50193 26.1649 6.76961 26.1666 8.3339V10.1716H23.8333V8.33333V7.83333H23.3333H16.6666ZM14.5709 22.8077L14.6478 22.8333H14.729H25.271H25.3521L25.4291 22.8077L36.1666 19.2284V28.9995C36.1639 31.4839 34.1506 33.4973 31.6661 33.5H8.33386C5.84948 33.4973 3.83617 31.4841 3.83331 28.9997V19.2284L14.5709 22.8077Z" fill="#BCD9F3" stroke="#0F6BBF"/>
</svg>
