<svg width="40" height="40" viewBox="0 0 40 40" fill="none" xmlns="http://www.w3.org/2000/svg">
<path d="M36 35.9003V39H4V35.9003C4 29.8807 8.77863 25 14.6722 25H25.3276C31.2214 25 36 29.8807 36 35.9003Z" fill="#B2D3F1"/>
<path d="M24 20H16V28H24V20Z" fill="white"/>
<path d="M29 14.4732C29 15.3436 28.3325 16.0557 27.5 16.0557L27.3648 17.165C26.8885 21.0732 23.7349 24 20 24C16.2651 24 13.1114 21.0732 12.6352 17.165L12.5 16.0557C11.6675 16.0557 11 15.3436 11 14.4732C11 13.595 11.6675 12.8907 12.5 12.8907V11.1809C12.5 6.96178 15.5227 3.28102 19.514 3.01616C23.8824 2.72625 27.4999 6.3754 27.4999 10.9125V12.8906C28.3325 12.8907 29 13.5949 29 14.4732Z" fill="white"/>
<path d="M18.6646 1.00008C14.9838 1.00008 12 4.28158 12 8.32953V12.2001C12 12.6419 12.3256 13 12.7273 13C13.129 13 13.4546 12.6419 13.4546 12.2001V11.4003C13.4887 10.1 14.164 8.9235 15.2167 8.33061C15.4609 8.17698 15.7636 8.19196 15.9942 8.36905C17.1622 9.26757 18.5795 9.68777 19.9999 9.55676C21.4182 9.68684 22.8333 9.26726 23.9999 8.3706C24.2311 8.19134 24.5357 8.17575 24.781 8.33061C25.8341 8.92257 26.5104 10.0985 26.5454 11.3987V12.1985C26.5454 12.6403 26.871 12.9984 27.2727 12.9984C27.6744 12.9984 28 12.6403 28 12.1985V8.32945C28 4.28151 25.0162 1 21.3354 1H18.6647V1.00008H18.6646Z" fill="#B2D3F1"/>
<path d="M23 36.3564L20.9031 39H19.1016L17 36.3564L19.0015 31H21.0032L23 36.3564Z" fill="white"/>
<path d="M21 31H19C18.3599 30.4508 18.0003 29.7063 18 28.93V28H22V28.93C22.0004 29.7065 21.6406 30.4511 21 31Z" fill="white"/>
<path d="M25.8748 25.225L23.6089 28.6091C23.3571 28.9852 22.8834 29.1081 22.4966 28.8978L20.0003 27.5405L22.6974 24.6774C23.154 24.1927 23.7895 23.9482 24.4325 24.0096L25.3872 24.1009C25.9039 24.1502 26.1754 24.7761 25.8748 25.225ZM14.1252 25.2247L16.3911 28.6088C16.6429 28.9849 17.1166 29.1078 17.5034 28.8975L19.9998 27.5402L17.3026 24.6771C16.8461 24.1924 16.2105 23.9479 15.5675 24.0093L14.6128 24.1006C14.0961 24.1499 13.8245 24.7758 14.1252 25.2247Z" fill="white"/>
<path d="M26.6694 24.8383C26.5099 24.3847 26.1477 24.1345 25.7355 24.0968L24.7255 24.0052C24.5819 23.9922 24.4391 23.9949 24.2974 24.0047V22.8404C26.2088 21.5959 27.5752 19.5492 27.8827 17.138L27.9803 16.3734C28.8719 16.2072 29.5493 15.4179 29.5493 14.4718C29.5493 13.7589 29.1603 13.1418 28.5891 12.8065C28.7115 12.6218 28.7834 12.4003 28.7834 12.162V8.44234C28.7834 4.33865 25.4712 1 21.3999 1H18.5983C14.5269 1 11.2145 4.33872 11.2145 8.44234V12.1635C11.2145 12.4024 11.2867 12.6244 11.4095 12.8094C10.8412 13.1455 10.4546 13.7611 10.4546 14.4719C10.4546 15.4179 11.1319 16.2073 12.0236 16.3735L12.1212 17.1381C12.4287 19.5497 13.7955 21.5967 15.7074 22.8411V24.0049C15.5658 23.9951 15.423 23.9922 15.279 24.0049L14.2693 24.0965C13.8655 24.1333 13.4985 24.3769 13.3363 24.8346C8.07124 25.5585 4 30.1177 4 35.6203V38.6042C4 38.8228 4.17584 39 4.39269 39C14.4209 39 25.9782 39 35.6073 39C35.8242 39 36 38.8228 36 38.6042V35.6203C35.9999 30.12 31.9312 25.565 26.6694 24.8383ZM24.655 24.7937L25.6648 24.8854C25.9094 24.9077 26.0382 25.1889 25.8958 25.3906L23.4993 28.7892C23.3469 29.0053 23.055 29.0764 22.8218 28.956L20.6615 27.8407L23.1328 25.3499C23.5346 24.9452 24.0926 24.7435 24.655 24.7937ZM20.6914 30.5754H19.3114C18.9418 30.1532 18.735 29.6251 18.6966 29.0638L20.002 28.39L21.3087 29.0646C21.2701 29.626 21.0614 30.1536 20.6914 30.5754ZM11.9999 8.44227C11.9999 4.77505 14.9599 1.79154 18.5983 1.79154H21.3999C25.0381 1.79154 27.998 4.77498 27.998 8.44227V12.1619C27.998 12.3675 27.832 12.5349 27.6279 12.5349C27.4237 12.5349 27.2577 12.3675 27.2577 12.1619L27.2575 11.3813C27.2167 9.98654 26.4256 8.72579 25.2097 8.09997C24.8217 7.87539 24.3341 7.89817 23.97 8.1572C22.1419 9.44489 20.4105 9.18832 19.9663 9.22758C18.5725 9.34625 17.1699 8.96514 16.0218 8.15564C15.657 7.89892 15.1725 7.87717 14.8024 8.09092C13.5705 8.72705 12.7803 9.98832 12.7404 11.3944V12.1634C12.7404 12.3691 12.5743 12.5365 12.3702 12.5365C12.1661 12.5365 12.0001 12.3691 12.0001 12.1634L11.9999 8.44227ZM12.9 17.0372L12.7624 15.9592C12.7373 15.7617 12.5704 15.6138 12.373 15.6138C11.7482 15.6138 11.2399 15.1014 11.2399 14.4717C11.2399 13.842 11.7482 13.3296 12.373 13.3296C12.3794 13.3296 12.3849 13.3263 12.3912 13.3259C13.0184 13.3142 13.5256 12.7983 13.5256 12.1634L13.5253 11.4058C13.557 10.3001 14.1833 9.29987 15.1761 8.78694C15.2998 8.71547 15.4554 8.72296 15.5716 8.80453C16.861 9.71326 18.4312 10.1447 19.999 10.0193C21.5625 10.1426 23.1323 9.71289 24.4209 8.80527C24.5382 8.72215 24.6941 8.71502 24.8353 8.79585C25.8125 9.29935 26.4397 10.299 26.4719 11.3929V12.162C26.4719 12.7957 26.9773 13.3106 27.603 13.3241C28.3683 13.38 28.7636 13.9036 28.7636 14.4718C28.7636 15.1015 28.2552 15.6139 27.6305 15.6139C27.433 15.6139 27.2662 15.7617 27.2411 15.9593L27.1035 17.0372C26.6456 20.627 23.5925 23.334 20.0016 23.334C16.4108 23.334 13.358 20.6269 12.9 17.0372ZM16.4928 23.2973C17.5564 23.828 18.7495 24.1256 20.002 24.1256C21.2548 24.1256 22.4482 23.8278 23.5121 23.2968V24.1794C23.1665 24.3141 22.847 24.5188 22.5776 24.7902L20.0025 27.3856L17.4273 24.7898C17.1577 24.5182 16.8386 24.3137 16.4929 24.1791L16.4928 23.2973ZM14.3397 24.885L15.3493 24.7934C15.9171 24.7431 16.47 24.9448 16.8718 25.3496L19.343 27.8406L17.1827 28.9558C16.9487 29.0762 16.6577 29.0045 16.5054 28.7889L14.1087 25.3905C13.9662 25.1885 14.095 24.9073 14.3397 24.885ZM4.78524 35.6202C4.78524 30.5489 8.5143 26.341 13.3534 25.6308C13.4646 25.8965 13.3316 25.63 15.8653 29.2477C16.2407 29.7797 16.96 29.96 17.5408 29.6605L17.9433 29.4527C18.044 30.0488 18.3017 30.6028 18.6968 31.0654L17.0537 35.9548C17.0131 36.0759 17.033 36.2093 17.1071 36.3131L18.4619 38.2082H4.78524V35.6202ZM19.4302 38.2082L17.8626 36.0157L19.4243 31.3691H20.5794L22.1373 36.0159L20.5733 38.2082L19.4302 38.2082ZM35.2145 38.2082H21.5408L22.8928 36.3129C22.9666 36.2092 22.9865 36.0759 22.946 35.955L21.3072 31.0671C21.7027 30.604 21.9578 30.0483 22.0579 29.4513L22.4637 29.6608C23.0409 29.9588 23.7623 29.7832 24.1394 29.248C26.666 25.6402 26.5359 25.9002 26.648 25.6373C31.4854 26.3491 35.2145 30.5503 35.2145 35.6204V38.2082Z" fill="#0F6BBF" stroke="#0F6BBF" stroke-width="0.4"/>
<path d="M22.3951 19.3563C22.2555 19.1934 22.0242 19.1878 21.878 19.3424C20.82 20.4659 19.1631 20.4655 18.1056 19.3424C17.9593 19.188 17.7282 19.1938 17.5884 19.3563C17.4492 19.5193 17.4547 19.7772 17.601 19.9326C18.9413 21.3557 21.042 21.356 22.3826 19.9326C22.5289 19.7772 22.5344 19.5193 22.3951 19.3563ZM22.1734 14.272C22.3603 14.3587 22.574 14.2597 22.6516 14.0523C22.77 13.7353 23.1766 13.7323 23.2967 14.0526C23.3744 14.2605 23.589 14.3588 23.7749 14.2718C23.9613 14.1853 24.0495 13.9467 23.9717 13.739C23.6051 12.759 22.3463 12.7483 21.9763 13.7392C21.8987 13.9469 21.9869 14.1855 22.1734 14.272ZM17.8266 14.272C18.013 14.1856 18.1012 13.947 18.0237 13.7392C17.6558 12.7536 16.3961 12.7549 16.0281 13.7392C15.9506 13.9469 16.0388 14.1854 16.2253 14.272C16.4116 14.3585 16.6256 14.2601 16.7034 14.0523C16.8217 13.7356 17.2285 13.7317 17.3485 14.0523C17.4259 14.2598 17.6397 14.3587 17.8266 14.272Z" fill="#0F6BBF"/>
</svg>
