<svg width="36" height="36" viewBox="0 0 36 36" fill="none" xmlns="http://www.w3.org/2000/svg">
<path d="M31.5323 6.16936V6.1525C31.4987 6.10107 31.4569 6.05549 31.4086 6.01757C29.7231 4.12505 27.6559 2.61045 25.343 1.57332C23.0301 0.536185 20.5238 0 17.9888 0C15.4537 0 12.9474 0.536185 10.6345 1.57332C8.32155 2.61045 6.25441 4.12505 4.56891 6.01757C4.52157 6.05572 4.48073 6.10128 4.44798 6.1525V6.16936C2.17254 8.77097 0.694892 11.9725 0.191686 15.3912C-0.31152 18.8099 0.181009 22.3011 1.61039 25.4475C3.03977 28.5938 5.34552 31.2622 8.25199 33.1335C11.1585 35.0048 14.5427 36 18 36C21.4573 36 24.8415 35.0048 27.748 33.1335C30.6545 31.2622 32.9602 28.5938 34.3896 25.4475C35.819 22.3011 36.3115 18.8099 35.8083 15.3912C35.3051 11.9725 33.8275 8.77097 31.552 6.16936H31.5323ZM30.9698 28.7557C29.6919 28.0102 28.3356 27.4078 26.9255 26.9595C27.7973 24.2407 28.2562 21.4066 28.2867 18.5518H34.8426C34.7226 22.2903 33.3566 25.8817 30.9614 28.7557H30.9698ZM1.12079 18.5518H7.67672C7.70998 21.407 8.17168 24.2412 9.04641 26.9595C7.6363 27.4078 6.27998 28.0101 5.00204 28.7557C2.60684 25.8817 1.24081 22.2903 1.12079 18.5518ZM5.04423 7.18132C6.31587 7.92008 7.6645 8.51768 9.0661 8.96349C8.17865 11.6986 7.71023 14.5522 7.67672 17.4274H1.12079C1.24337 13.6692 2.62502 10.061 5.04423 7.18132ZM18.5442 10.2987C21.0149 10.2637 23.4714 9.91998 25.8567 9.27551C26.6986 11.9123 27.1423 14.6598 27.173 17.4274H18.5442V10.2987ZM18.5442 9.17431V1.15736C21.3961 1.475 23.888 4.19042 25.463 8.21577C23.2047 8.81728 20.881 9.13921 18.5442 9.17431ZM17.4192 9.17431C15.0825 9.14009 12.7589 8.81911 10.5005 8.21858C12.0755 4.19042 14.5673 1.475 17.4192 1.15736V9.17431ZM17.4192 10.2987V17.4274H8.80172C8.8288 14.6604 9.26863 11.9128 10.1067 9.27551C12.492 9.91998 14.9486 10.2637 17.4192 10.2987ZM8.80172 18.5518H17.4192V25.6186C14.9483 25.6554 12.4917 26.001 10.1067 26.6475C9.27478 24.028 8.83502 21.2999 8.80172 18.5518ZM17.4192 26.743V34.8218C14.5561 34.5014 12.0417 31.7635 10.478 27.7072C12.7433 27.1018 15.0746 26.778 17.4192 26.743ZM18.5442 26.743C20.8888 26.778 23.2202 27.1019 25.4855 27.7072C23.9217 31.7635 21.4073 34.5014 18.5442 34.8218V26.743ZM18.5442 25.6186V18.5518H27.1617C27.1281 21.2989 26.6884 24.026 25.8567 26.6446C23.4716 25.9992 21.015 25.6545 18.5442 25.6186ZM28.2867 17.4274C28.2532 14.5522 27.7848 11.6986 26.8973 8.96349C28.2989 8.51768 29.6476 7.92008 30.9192 7.18132C33.3384 10.061 34.7201 13.6692 34.8426 17.4274H28.2867ZM30.157 6.32959C29.0011 6.97764 27.7816 7.50513 26.5176 7.90375C25.4798 5.23892 24.0398 3.09132 22.3523 1.69988C25.3281 2.50182 28.0273 4.10297 30.157 6.32959ZM13.6111 1.69988C11.9236 3.08289 10.4864 5.23892 9.4486 7.90375C8.18468 7.50513 6.96514 6.97764 5.80923 6.32959C7.93819 4.10341 10.6364 2.50229 13.6111 1.69988ZM5.76704 29.6102C6.92741 28.9548 8.15273 28.4216 9.42329 28.0192C10.4639 30.7122 11.9095 32.8879 13.6083 34.2793C10.615 33.4724 7.90204 31.8569 5.76704 29.6102ZM22.3608 34.2793C24.0483 32.8738 25.5051 30.7122 26.5458 28.0192C27.8163 28.4216 29.0417 28.9548 30.202 29.6102C28.0647 31.8583 25.3486 33.4738 22.3523 34.2793H22.3608Z" fill="#0F6BBF"/>
</svg>
