<svg width="40" height="40" viewBox="0 0 40 40" fill="none" xmlns="http://www.w3.org/2000/svg">
<path d="M4.49999 31H25.5L23 29.5L21.5 27.5L23 26.5L30 28.5V23L31 20.5L35.5 20C35.3333 17.1667 35.1 10.9 35.5 8.5C35.9 6.1 34.3333 5.5 33.5 5.5H7.49999C4.69999 5.5 4.33332 6.83333 4.49999 7.5V31Z" fill="#B2D3F1" fill-opacity="0.72"/>
<path d="M23.75 11.25C23.75 11.0842 23.8158 10.9253 23.9331 10.8081C24.0503 10.6908 24.2092 10.625 24.375 10.625H27.5C27.6658 10.625 27.8247 10.6908 27.9419 10.8081C28.0592 10.9253 28.125 11.0842 28.125 11.25C28.125 11.4158 28.0592 11.5747 27.9419 11.6919C27.8247 11.8092 27.6658 11.875 27.5 11.875H24.375C24.2092 11.875 24.0503 11.8092 23.9331 11.6919C23.8158 11.5747 23.75 11.4158 23.75 11.25ZM24.375 14.375H25C25.1658 14.375 25.3247 14.3092 25.4419 14.1919C25.5592 14.0747 25.625 13.9158 25.625 13.75C25.625 13.5842 25.5592 13.4253 25.4419 13.3081C25.3247 13.1908 25.1658 13.125 25 13.125H24.375C24.2092 13.125 24.0503 13.1908 23.9331 13.3081C23.8158 13.4253 23.75 13.5842 23.75 13.75C23.75 13.9158 23.8158 14.0747 23.9331 14.1919C24.0503 14.3092 24.2092 14.375 24.375 14.375ZM31.875 13.125H27.5C27.3342 13.125 27.1753 13.1908 27.0581 13.3081C26.9408 13.4253 26.875 13.5842 26.875 13.75C26.875 13.9158 26.9408 14.0747 27.0581 14.1919C27.1753 14.3092 27.3342 14.375 27.5 14.375H31.875C32.0408 14.375 32.1997 14.3092 32.3169 14.1919C32.4342 14.0747 32.5 13.9158 32.5 13.75C32.5 13.5842 32.4342 13.4253 32.3169 13.3081C32.1997 13.1908 32.0408 13.125 31.875 13.125ZM24.375 16.875H26.25C26.4158 16.875 26.5747 16.8092 26.6919 16.6919C26.8092 16.5747 26.875 16.4158 26.875 16.25C26.875 16.0842 26.8092 15.9253 26.6919 15.8081C26.5747 15.6908 26.4158 15.625 26.25 15.625H24.375C24.2092 15.625 24.0503 15.6908 23.9331 15.8081C23.8158 15.9253 23.75 16.0842 23.75 16.25C23.75 16.4158 23.8158 16.5747 23.9331 16.6919C24.0503 16.8092 24.2092 16.875 24.375 16.875ZM31.875 15.625H28.75C28.5842 15.625 28.4253 15.6908 28.3081 15.8081C28.1908 15.9253 28.125 16.0842 28.125 16.25C28.125 16.4158 28.1908 16.5747 28.3081 16.6919C28.4253 16.8092 28.5842 16.875 28.75 16.875H31.875C32.0408 16.875 32.1997 16.8092 32.3169 16.6919C32.4342 16.5747 32.5 16.4158 32.5 16.25C32.5 16.0842 32.4342 15.9253 32.3169 15.8081C32.1997 15.6908 32.0408 15.625 31.875 15.625ZM30 11.875H31.875C32.0408 11.875 32.1997 11.8092 32.3169 11.6919C32.4342 11.5747 32.5 11.4158 32.5 11.25C32.5 11.0842 32.4342 10.9253 32.3169 10.8081C32.1997 10.6908 32.0408 10.625 31.875 10.625H30C29.8342 10.625 29.6753 10.6908 29.5581 10.8081C29.4408 10.9253 29.375 11.0842 29.375 11.25C29.375 11.4158 29.4408 11.5747 29.5581 11.6919C29.6753 11.8092 29.8342 11.875 30 11.875ZM10 25H13.125C13.2908 25 13.4497 24.9342 13.5669 24.8169C13.6842 24.6997 13.75 24.5408 13.75 24.375C13.75 24.2092 13.6842 24.0503 13.5669 23.9331C13.4497 23.8158 13.2908 23.75 13.125 23.75H10C9.83424 23.75 9.67527 23.8158 9.55806 23.9331C9.44085 24.0503 9.375 24.2092 9.375 24.375C9.375 24.5408 9.44085 24.6997 9.55806 24.8169C9.67527 24.9342 9.83424 25 10 25ZM11.25 26.25H10C9.83424 26.25 9.67527 26.3158 9.55806 26.4331C9.44085 26.5503 9.375 26.7092 9.375 26.875C9.375 27.0408 9.44085 27.1997 9.55806 27.3169C9.67527 27.4342 9.83424 27.5 10 27.5H11.25C11.4158 27.5 11.5747 27.4342 11.6919 27.3169C11.8092 27.1997 11.875 27.0408 11.875 26.875C11.875 26.7092 11.8092 26.5503 11.6919 26.4331C11.5747 26.3158 11.4158 26.25 11.25 26.25ZM18.125 26.25H13.75C13.5842 26.25 13.4253 26.3158 13.3081 26.4331C13.1908 26.5503 13.125 26.7092 13.125 26.875C13.125 27.0408 13.1908 27.1997 13.3081 27.3169C13.4253 27.4342 13.5842 27.5 13.75 27.5H18.125C18.2908 27.5 18.4497 27.4342 18.5669 27.3169C18.6842 27.1997 18.75 27.0408 18.75 26.875C18.75 26.7092 18.6842 26.5503 18.5669 26.4331C18.4497 26.3158 18.2908 26.25 18.125 26.25ZM18.125 23.75H15.625C15.4592 23.75 15.3003 23.8158 15.1831 23.9331C15.0658 24.0503 15 24.2092 15 24.375C15 24.5408 15.0658 24.6997 15.1831 24.8169C15.3003 24.9342 15.4592 25 15.625 25H18.125C18.2908 25 18.4497 24.9342 18.5669 24.8169C18.6842 24.6997 18.75 24.5408 18.75 24.375C18.75 24.2092 18.6842 24.0503 18.5669 23.9331C18.4497 23.8158 18.2908 23.75 18.125 23.75ZM38.125 30V33.75C38.1245 34.1377 38.0041 34.5157 37.7803 34.8323C37.5566 35.1488 37.2403 35.3884 36.875 35.5182V38.75C36.875 38.9158 36.8092 39.0747 36.6919 39.1919C36.5747 39.3092 36.4158 39.375 36.25 39.375H28.75C28.5842 39.375 28.4253 39.3092 28.3081 39.1919C28.1908 39.0747 28.125 38.9158 28.125 38.75V33.125H24.2289L27.4109 38.4284C27.4678 38.5232 27.4985 38.6315 27.4999 38.7421C27.5013 38.8527 27.4734 38.9616 27.4189 39.0579C27.3644 39.1541 27.2853 39.2342 27.1898 39.2899C27.0942 39.3456 26.9856 39.375 26.875 39.375H23.75C23.6421 39.375 23.536 39.347 23.4421 39.2938C23.3482 39.2407 23.2697 39.1641 23.2141 39.0716L20 33.7148L16.7859 39.0716C16.7303 39.1641 16.6518 39.2407 16.5579 39.2938C16.464 39.347 16.3579 39.375 16.25 39.375H13.125C13.0144 39.375 12.9058 39.3456 12.8102 39.2899C12.7147 39.2342 12.6356 39.1541 12.5811 39.0579C12.5266 38.9616 12.4987 38.8527 12.5001 38.7421C12.5015 38.6315 12.5322 38.5232 12.5891 38.4284L15.7711 33.125H2.5C2.33424 33.125 2.17527 33.0592 2.05806 32.9419C1.94085 32.8247 1.875 32.6658 1.875 32.5V30C1.875 29.8342 1.94085 29.6753 2.05806 29.5581C2.17527 29.4408 2.33424 29.375 2.5 29.375H3.75V6.875C3.75055 6.37789 3.94827 5.90129 4.29978 5.54978C4.65129 5.19827 5.12789 5.00055 5.625 5H34.375C34.8721 5.00055 35.3487 5.19827 35.7002 5.54978C36.0517 5.90129 36.2495 6.37789 36.25 6.875V19.4902C36.6145 19.6186 36.9304 19.8567 37.1542 20.1718C37.378 20.4869 37.4988 20.8635 37.5 21.25V23.75C37.4988 24.1365 37.378 24.5131 37.1542 24.8282C36.9304 25.1433 36.6145 25.3814 36.25 25.5098V27.5C36.2479 27.7134 36.2089 27.9249 36.1348 28.125H36.25C36.7471 28.1255 37.2237 28.3233 37.5752 28.6748C37.9267 29.0263 38.1245 29.5029 38.125 30ZM31.25 28.125H34.375C34.5407 28.1249 34.6996 28.059 34.8168 27.9418C34.934 27.8246 34.9999 27.6657 35 27.5V25.625H34.375C33.9874 25.6246 33.6093 25.5042 33.2928 25.2804C32.9763 25.0566 32.7368 24.7403 32.6071 24.375H30.625V27.5C30.6251 27.6657 30.691 27.8246 30.8082 27.9418C30.9254 28.059 31.0843 28.1249 31.25 28.125ZM5 29.375H21.9688L21.6019 29.2285C21.3488 29.1275 21.1207 28.9725 20.9336 28.7744C20.7464 28.5763 20.6047 28.3398 20.5183 28.0813C20.4318 27.8229 20.4028 27.5487 20.4331 27.2778C20.4634 27.007 20.5523 26.746 20.6938 26.5131C20.7167 26.4748 20.7467 26.4429 20.7722 26.4068L17.7285 21.5427C16.0459 22.0823 14.2201 21.9528 12.6305 21.181C11.041 20.4092 9.81002 19.0545 9.19345 17.3986C8.57688 15.7426 8.62215 13.9128 9.31985 12.2894C10.0176 10.6659 11.314 9.37382 12.9398 8.68157C14.5655 7.98932 16.3955 7.95019 18.0494 8.57231C19.7032 9.19444 21.0538 10.43 21.8202 12.0221C22.5867 13.6142 22.7101 15.4404 22.1649 17.1212C21.6197 18.802 20.4477 20.208 18.8926 21.0471L21.8042 25.6994C22.2176 25.5876 22.6561 25.6124 23.0542 25.7701L28.9517 28.125H29.4902C29.4161 27.9249 29.3771 27.7134 29.375 27.5V24.375C28.8779 24.3745 28.4013 24.1767 28.0498 23.8252C27.6983 23.4737 27.5005 22.9971 27.5 22.5V21.25C27.5005 20.7529 27.6983 20.2763 28.0498 19.9248C28.4013 19.5733 28.8779 19.3755 29.375 19.375H31.875C32.3365 19.3747 32.7817 19.5451 33.125 19.8535C33.4683 19.5451 33.9135 19.3747 34.375 19.375H35V6.875C34.9999 6.70929 34.934 6.5504 34.8168 6.43322C34.6996 6.31604 34.5407 6.25015 34.375 6.25H5.625C5.45929 6.25015 5.3004 6.31604 5.18322 6.43322C5.06604 6.5504 5.00015 6.70929 5 6.875V29.375ZM18.2263 19.9826C18.6712 19.7484 19.0829 19.4558 19.4503 19.1125C19.274 18.864 19.1753 18.5689 19.1666 18.2644C19.1666 17.2292 18.9502 16.971 18.8571 16.9081C18.7589 16.8422 18.5513 16.8644 18.2877 16.9698C16.9877 17.4886 16.2189 17.0247 15.8771 16.7019C15.5925 16.4113 15.3951 16.0467 15.3071 15.6496C15.2191 15.2525 15.2441 14.8387 15.3793 14.4551C15.6186 13.738 16.3657 13.4749 17.0246 13.243C18.0874 12.8694 18.1073 12.7407 18.0093 12.3909C17.7992 11.6026 17.8973 10.7638 18.2837 10.0452C17.6198 9.6877 16.8906 9.46781 16.1397 9.39874C15.3888 9.32968 14.6317 9.41286 13.9137 9.64331C14.3822 9.88559 14.7815 10.2429 15.0741 10.6818C15.3666 11.1207 15.5428 11.6267 15.5863 12.1523C15.6971 12.7687 15.6225 13.4042 15.3717 13.9782C15.121 14.5521 14.7055 15.0387 14.1779 15.3762C13.6887 15.768 13.4723 15.9597 13.4723 16.3894C13.5086 16.8201 13.4451 17.2535 13.2867 17.6557C13.1284 18.058 12.8794 18.4183 12.5592 18.7087C12.3316 18.8912 12.0687 19.0247 11.7871 19.101C12.4752 19.7536 13.319 20.2191 14.238 20.4532C15.157 20.6874 16.1206 20.6823 17.0371 20.4385L16.9702 20.3316C16.9251 20.262 16.8944 20.1841 16.8797 20.1025C16.8651 20.021 16.8668 19.9373 16.8848 19.8564C16.9027 19.7754 16.9366 19.6989 16.9845 19.6312C17.0323 19.5635 17.0931 19.506 17.1634 19.4621C17.2337 19.4181 17.312 19.3886 17.3938 19.3752C17.4756 19.3618 17.5593 19.3648 17.6399 19.384C17.7205 19.4032 17.7965 19.4383 17.8635 19.4872C17.9304 19.5361 17.9869 19.5978 18.0298 19.6687L18.2263 19.9826ZM18.8962 33.125H17.229L14.229 38.125H15.8962L18.8962 33.125ZM22.7712 33.125H21.1038L24.1038 38.125H25.771L22.7712 33.125ZM36.875 30C36.8749 29.8343 36.809 29.6754 36.6918 29.5582C36.5746 29.441 36.4157 29.3751 36.25 29.375H28.8313C28.7519 29.375 28.6733 29.3598 28.5996 29.3304L22.5909 26.9312C22.5847 26.9288 22.5784 26.9294 22.5722 26.9272L22.7547 27.2188C22.8426 27.3593 22.871 27.5289 22.8338 27.6904C22.7966 27.8519 22.6968 27.992 22.5563 28.0799C22.4801 28.1259 22.3948 28.1546 22.3063 28.1641L28.1952 30.5153C28.5441 30.6531 28.8434 30.893 29.0539 31.2036C29.2644 31.5142 29.3763 31.8811 29.375 32.2563V38.125H35.625V35.5098C35.2605 35.3814 34.9446 35.1433 34.7208 34.8282C34.497 34.5131 34.3762 34.1365 34.375 33.75V31.25C34.375 31.0842 34.4408 30.9253 34.5581 30.8081C34.6753 30.6908 34.8342 30.625 35 30.625C35.1658 30.625 35.3247 30.6908 35.4419 30.8081C35.5592 30.9253 35.625 31.0842 35.625 31.25V33.75C35.625 33.9158 35.6908 34.0747 35.8081 34.1919C35.9253 34.3092 36.0842 34.375 36.25 34.375C36.4158 34.375 36.5747 34.3092 36.6919 34.1919C36.8092 34.0747 36.875 33.9158 36.875 33.75V30Z" fill="#0F6BBF"/>
<line x1="3.75" y1="31.25" x2="26.25" y2="31.25" stroke="white" stroke-width="1.5" stroke-linecap="round"/>
</svg>
