<svg width="40" height="40" viewBox="0 0 40 40" fill="none" xmlns="http://www.w3.org/2000/svg">
<path d="M36.25 2.5H3.75C3.41848 2.5 3.10054 2.6317 2.86612 2.86612C2.6317 3.10054 2.5 3.41848 2.5 3.75V30C2.5 30.3315 2.6317 30.6495 2.86612 30.8839C3.10054 31.1183 3.41848 31.25 3.75 31.25H21.0125C21.2328 31.2509 21.4493 31.1935 21.6403 31.0838C21.8313 30.974 21.9899 30.8158 22.1 30.625C22.6475 29.6767 23.4345 28.8889 24.3822 28.3405C25.3299 27.7921 26.405 27.5022 27.5 27.5C28.3209 27.4963 29.1342 27.657 29.8921 27.9725C30.6499 28.2881 31.3369 28.7522 31.9125 29.3375C32.2964 29.7078 32.6286 30.1283 32.9 30.5875C33.0085 30.7806 33.1664 30.9414 33.3575 31.0534C33.5486 31.1654 33.766 31.2246 33.9875 31.225H36.25C36.5815 31.225 36.8995 31.0933 37.1339 30.8589C37.3683 30.6245 37.5 30.3065 37.5 29.975V3.75C37.5 3.41848 37.3683 3.10054 37.1339 2.86612C36.8995 2.6317 36.5815 2.5 36.25 2.5Z" fill="#B2D3F1"/>
<path d="M32.5 6.25H7.5C7.16848 6.25 6.85054 6.3817 6.61612 6.61612C6.3817 6.85054 6.25 7.16848 6.25 7.5V26.25C6.25 26.5815 6.3817 26.8995 6.61612 27.1339C6.85054 27.3683 7.16848 27.5 7.5 27.5H27.5C27.8315 27.5 28.1495 27.3683 28.3839 27.1339C28.6183 26.8995 28.75 26.5815 28.75 26.25C28.75 25.9185 28.6183 25.6005 28.3839 25.3661C28.1495 25.1317 27.8315 25 27.5 25C26.7583 25 26.0333 24.7801 25.4166 24.368C24.7999 23.956 24.3193 23.3703 24.0355 22.6851C23.7516 21.9998 23.6774 21.2458 23.8221 20.5184C23.9667 19.791 24.3239 19.1228 24.8483 18.5983C25.3728 18.0739 26.041 17.7167 26.7684 17.5721C27.4958 17.4274 28.2498 17.5016 28.9351 17.7855C29.6203 18.0693 30.206 18.5499 30.618 19.1666C31.0301 19.7833 31.25 20.5083 31.25 21.25C31.25 21.5815 31.3817 21.8995 31.6161 22.1339C31.8505 22.3683 32.1685 22.5 32.5 22.5C32.8315 22.5 33.1495 22.3683 33.3839 22.1339C33.6183 21.8995 33.75 21.5815 33.75 21.25V7.5C33.75 7.16848 33.6183 6.85054 33.3839 6.61612C33.1495 6.3817 32.8315 6.25 32.5 6.25Z" fill="white"/>
<path d="M35.075 29.3882C34.7172 28.7269 34.2715 28.1172 33.75 27.5757C32.9357 26.7471 31.9623 26.0919 30.8882 25.6494C29.8141 25.2068 28.6616 24.9862 27.5 25.0007C25.9785 25.013 24.4865 25.4218 23.1712 26.1868C21.8559 26.9519 20.7629 28.0467 20 29.3632C19.1971 30.687 18.7653 32.2025 18.75 33.7507V36.2507C18.75 36.5822 18.8817 36.9001 19.1161 37.1346C19.3505 37.369 19.6685 37.5007 20 37.5007H35C35.3315 37.5007 35.6495 37.369 35.8839 37.1346C36.1183 36.9001 36.25 36.5822 36.25 36.2507V33.7507C36.2553 32.2176 35.8496 30.7112 35.075 29.3882Z" fill="#B2D3F1"/>
<path d="M27.5 27.5C30.9518 27.5 33.75 24.7018 33.75 21.25C33.75 17.7982 30.9518 15 27.5 15C24.0482 15 21.25 17.7982 21.25 21.25C21.25 24.7018 24.0482 27.5 27.5 27.5Z" fill="white"/>
<mask id="path-5-inside-1_510_6707" fill="white">
<path d="M36.25 2.5H3.75C3.41848 2.5 3.10054 2.6317 2.86612 2.86612C2.6317 3.10054 2.5 3.41848 2.5 3.75V30C2.5 30.3315 2.6317 30.6495 2.86612 30.8839C3.10054 31.1183 3.41848 31.25 3.75 31.25H19.1125C18.8759 32.0624 18.7539 32.9039 18.75 33.75V36.25C18.75 36.5815 18.8817 36.8995 19.1161 37.1339C19.3505 37.3683 19.6685 37.5 20 37.5H35C35.3315 37.5 35.6495 37.3683 35.8839 37.1339C36.1183 36.8995 36.25 36.5815 36.25 36.25V33.75C36.2461 32.9039 36.1241 32.0624 35.8875 31.25H36.25C36.5815 31.25 36.8995 31.1183 37.1339 30.8839C37.3683 30.6495 37.5 30.3315 37.5 30V3.75C37.5 3.41848 37.3683 3.10054 37.1339 2.86612C36.8995 2.6317 36.5815 2.5 36.25 2.5ZM27.5 25C26.7583 25 26.0333 24.7801 25.4166 24.368C24.7999 23.956 24.3193 23.3703 24.0355 22.6851C23.7516 21.9998 23.6774 21.2458 23.8221 20.5184C23.9668 19.791 24.3239 19.1228 24.8483 18.5983C25.3728 18.0739 26.041 17.7167 26.7684 17.5721C27.4958 17.4274 28.2498 17.5016 28.9351 17.7855C29.6203 18.0693 30.206 18.5499 30.618 19.1666C31.0301 19.7833 31.25 20.5083 31.25 21.25C31.25 22.2446 30.8549 23.1984 30.1517 23.9017C29.4484 24.6049 28.4946 25 27.5 25ZM31.25 16.25C30.1716 15.432 28.8535 14.9927 27.5 15C25.8424 15 24.2527 15.6585 23.0806 16.8306C21.9085 18.0027 21.25 19.5924 21.25 21.25C21.2427 22.6035 21.682 23.9216 22.5 25H8.75V8.75H31.25V16.25ZM33.75 35H21.25V33.75C21.25 32.0924 21.9085 30.5027 23.0806 29.3306C24.2527 28.1585 25.8424 27.5 27.5 27.5C29.1576 27.5 30.7473 28.1585 31.9194 29.3306C33.0915 30.5027 33.75 32.0924 33.75 33.75V35ZM31.525 25.9875C32.2163 25.4056 32.7732 24.6808 33.1573 23.8629C33.5414 23.045 33.7436 22.1536 33.75 21.25V7.5C33.75 7.16848 33.6183 6.85054 33.3839 6.61612C33.1495 6.3817 32.8315 6.25 32.5 6.25H7.5C7.16848 6.25 6.85054 6.3817 6.61612 6.61612C6.3817 6.85054 6.25 7.16848 6.25 7.5V26.25C6.25 26.5815 6.3817 26.8995 6.61612 27.1339C6.85054 27.3683 7.16848 27.5 7.5 27.5H21.3875C21.0003 27.8875 20.645 28.3055 20.325 28.75H5V5H35V28.75H34.675C33.8584 27.5929 32.7788 26.6461 31.525 25.9875ZM10 11.25C10 10.9185 10.1317 10.6005 10.3661 10.3661C10.6005 10.1317 10.9185 10 11.25 10H21.25C21.5815 10 21.8995 10.1317 22.1339 10.3661C22.3683 10.6005 22.5 10.9185 22.5 11.25C22.5 11.5815 22.3683 11.8995 22.1339 12.1339C21.8995 12.3683 21.5815 12.5 21.25 12.5H11.25C10.9185 12.5 10.6005 12.3683 10.3661 12.1339C10.1317 11.8995 10 11.5815 10 11.25ZM10 15C10 14.6685 10.1317 14.3505 10.3661 14.1161C10.6005 13.8817 10.9185 13.75 11.25 13.75H21.25C21.5815 13.75 21.8995 13.8817 22.1339 14.1161C22.3683 14.3505 22.5 14.6685 22.5 15C22.5 15.3315 22.3683 15.6495 22.1339 15.8839C21.8995 16.1183 21.5815 16.25 21.25 16.25H11.25C10.9185 16.25 10.6005 16.1183 10.3661 15.8839C10.1317 15.6495 10 15.3315 10 15ZM10 18.75C10 18.4185 10.1317 18.1005 10.3661 17.8661C10.6005 17.6317 10.9185 17.5 11.25 17.5H20C20.3315 17.5 20.6495 17.6317 20.8839 17.8661C21.1183 18.1005 21.25 18.4185 21.25 18.75C21.25 19.0815 21.1183 19.3995 20.8839 19.6339C20.6495 19.8683 20.3315 20 20 20H11.25C10.9185 20 10.6005 19.8683 10.3661 19.6339C10.1317 19.3995 10 19.0815 10 18.75ZM10 22.5C10 22.1685 10.1317 21.8505 10.3661 21.6161C10.6005 21.3817 10.9185 21.25 11.25 21.25H18.75C19.0815 21.25 19.3995 21.3817 19.6339 21.6161C19.8683 21.8505 20 22.1685 20 22.5C20 22.8315 19.8683 23.1495 19.6339 23.3839C19.3995 23.6183 19.0815 23.75 18.75 23.75H11.25C10.9185 23.75 10.6005 23.6183 10.3661 23.3839C10.1317 23.1495 10 22.8315 10 22.5ZM27.5 11.25C27.5 11.0028 27.5733 10.7611 27.7107 10.5555C27.848 10.35 28.0432 10.1898 28.2716 10.0952C28.5001 10.0005 28.7514 9.97579 28.9939 10.024C29.2363 10.0722 29.4591 10.1913 29.6339 10.3661C29.8087 10.5409 29.9278 10.7637 29.976 11.0061C30.0242 11.2486 29.9995 11.4999 29.9049 11.7284C29.8102 11.9568 29.65 12.152 29.4445 12.2893C29.2389 12.4267 28.9972 12.5 28.75 12.5C28.4185 12.5 28.1005 12.3683 27.8661 12.1339C27.6317 11.8995 27.5 11.5815 27.5 11.25ZM23.75 11.25C23.75 11.0028 23.8233 10.7611 23.9607 10.5555C24.098 10.35 24.2932 10.1898 24.5216 10.0952C24.7501 10.0005 25.0014 9.97579 25.2439 10.024C25.4863 10.0722 25.7091 10.1913 25.8839 10.3661C26.0587 10.5409 26.1777 10.7637 26.226 11.0061C26.2742 11.2486 26.2495 11.4999 26.1549 11.7284C26.0602 11.9568 25.9 12.152 25.6945 12.2893C25.4889 12.4267 25.2472 12.5 25 12.5C24.6685 12.5 24.3505 12.3683 24.1161 12.1339C23.8817 11.8995 23.75 11.5815 23.75 11.25Z"/>
</mask>
<path d="M36.25 2.5H3.75C3.41848 2.5 3.10054 2.6317 2.86612 2.86612C2.6317 3.10054 2.5 3.41848 2.5 3.75V30C2.5 30.3315 2.6317 30.6495 2.86612 30.8839C3.10054 31.1183 3.41848 31.25 3.75 31.25H19.1125C18.8759 32.0624 18.7539 32.9039 18.75 33.75V36.25C18.75 36.5815 18.8817 36.8995 19.1161 37.1339C19.3505 37.3683 19.6685 37.5 20 37.5H35C35.3315 37.5 35.6495 37.3683 35.8839 37.1339C36.1183 36.8995 36.25 36.5815 36.25 36.25V33.75C36.2461 32.9039 36.1241 32.0624 35.8875 31.25H36.25C36.5815 31.25 36.8995 31.1183 37.1339 30.8839C37.3683 30.6495 37.5 30.3315 37.5 30V3.75C37.5 3.41848 37.3683 3.10054 37.1339 2.86612C36.8995 2.6317 36.5815 2.5 36.25 2.5ZM27.5 25C26.7583 25 26.0333 24.7801 25.4166 24.368C24.7999 23.956 24.3193 23.3703 24.0355 22.6851C23.7516 21.9998 23.6774 21.2458 23.8221 20.5184C23.9668 19.791 24.3239 19.1228 24.8483 18.5983C25.3728 18.0739 26.041 17.7167 26.7684 17.5721C27.4958 17.4274 28.2498 17.5016 28.9351 17.7855C29.6203 18.0693 30.206 18.5499 30.618 19.1666C31.0301 19.7833 31.25 20.5083 31.25 21.25C31.25 22.2446 30.8549 23.1984 30.1517 23.9017C29.4484 24.6049 28.4946 25 27.5 25ZM31.25 16.25C30.1716 15.432 28.8535 14.9927 27.5 15C25.8424 15 24.2527 15.6585 23.0806 16.8306C21.9085 18.0027 21.25 19.5924 21.25 21.25C21.2427 22.6035 21.682 23.9216 22.5 25H8.75V8.75H31.25V16.25ZM33.75 35H21.25V33.75C21.25 32.0924 21.9085 30.5027 23.0806 29.3306C24.2527 28.1585 25.8424 27.5 27.5 27.5C29.1576 27.5 30.7473 28.1585 31.9194 29.3306C33.0915 30.5027 33.75 32.0924 33.75 33.75V35ZM31.525 25.9875C32.2163 25.4056 32.7732 24.6808 33.1573 23.8629C33.5414 23.045 33.7436 22.1536 33.75 21.25V7.5C33.75 7.16848 33.6183 6.85054 33.3839 6.61612C33.1495 6.3817 32.8315 6.25 32.5 6.25H7.5C7.16848 6.25 6.85054 6.3817 6.61612 6.61612C6.3817 6.85054 6.25 7.16848 6.25 7.5V26.25C6.25 26.5815 6.3817 26.8995 6.61612 27.1339C6.85054 27.3683 7.16848 27.5 7.5 27.5H21.3875C21.0003 27.8875 20.645 28.3055 20.325 28.75H5V5H35V28.75H34.675C33.8584 27.5929 32.7788 26.6461 31.525 25.9875ZM10 11.25C10 10.9185 10.1317 10.6005 10.3661 10.3661C10.6005 10.1317 10.9185 10 11.25 10H21.25C21.5815 10 21.8995 10.1317 22.1339 10.3661C22.3683 10.6005 22.5 10.9185 22.5 11.25C22.5 11.5815 22.3683 11.8995 22.1339 12.1339C21.8995 12.3683 21.5815 12.5 21.25 12.5H11.25C10.9185 12.5 10.6005 12.3683 10.3661 12.1339C10.1317 11.8995 10 11.5815 10 11.25ZM10 15C10 14.6685 10.1317 14.3505 10.3661 14.1161C10.6005 13.8817 10.9185 13.75 11.25 13.75H21.25C21.5815 13.75 21.8995 13.8817 22.1339 14.1161C22.3683 14.3505 22.5 14.6685 22.5 15C22.5 15.3315 22.3683 15.6495 22.1339 15.8839C21.8995 16.1183 21.5815 16.25 21.25 16.25H11.25C10.9185 16.25 10.6005 16.1183 10.3661 15.8839C10.1317 15.6495 10 15.3315 10 15ZM10 18.75C10 18.4185 10.1317 18.1005 10.3661 17.8661C10.6005 17.6317 10.9185 17.5 11.25 17.5H20C20.3315 17.5 20.6495 17.6317 20.8839 17.8661C21.1183 18.1005 21.25 18.4185 21.25 18.75C21.25 19.0815 21.1183 19.3995 20.8839 19.6339C20.6495 19.8683 20.3315 20 20 20H11.25C10.9185 20 10.6005 19.8683 10.3661 19.6339C10.1317 19.3995 10 19.0815 10 18.75ZM10 22.5C10 22.1685 10.1317 21.8505 10.3661 21.6161C10.6005 21.3817 10.9185 21.25 11.25 21.25H18.75C19.0815 21.25 19.3995 21.3817 19.6339 21.6161C19.8683 21.8505 20 22.1685 20 22.5C20 22.8315 19.8683 23.1495 19.6339 23.3839C19.3995 23.6183 19.0815 23.75 18.75 23.75H11.25C10.9185 23.75 10.6005 23.6183 10.3661 23.3839C10.1317 23.1495 10 22.8315 10 22.5ZM27.5 11.25C27.5 11.0028 27.5733 10.7611 27.7107 10.5555C27.848 10.35 28.0432 10.1898 28.2716 10.0952C28.5001 10.0005 28.7514 9.97579 28.9939 10.024C29.2363 10.0722 29.4591 10.1913 29.6339 10.3661C29.8087 10.5409 29.9278 10.7637 29.976 11.0061C30.0242 11.2486 29.9995 11.4999 29.9049 11.7284C29.8102 11.9568 29.65 12.152 29.4445 12.2893C29.2389 12.4267 28.9972 12.5 28.75 12.5C28.4185 12.5 28.1005 12.3683 27.8661 12.1339C27.6317 11.8995 27.5 11.5815 27.5 11.25ZM23.75 11.25C23.75 11.0028 23.8233 10.7611 23.9607 10.5555C24.098 10.35 24.2932 10.1898 24.5216 10.0952C24.7501 10.0005 25.0014 9.97579 25.2439 10.024C25.4863 10.0722 25.7091 10.1913 25.8839 10.3661C26.0587 10.5409 26.1777 10.7637 26.226 11.0061C26.2742 11.2486 26.2495 11.4999 26.1549 11.7284C26.0602 11.9568 25.9 12.152 25.6945 12.2893C25.4889 12.4267 25.2472 12.5 25 12.5C24.6685 12.5 24.3505 12.3683 24.1161 12.1339C23.8817 11.8995 23.75 11.5815 23.75 11.25Z" fill="#0F6BBF" stroke="#B2D3F1" stroke-width="1.6" mask="url(#path-5-inside-1_510_6707)"/>
</svg>
