<svg width="32" height="36" viewBox="0 0 32 36" fill="none" xmlns="http://www.w3.org/2000/svg">
<rect y="0.324364" width="31.9161" height="31.9161" fill="white"/>
<path opacity="0.8" d="M26.1669 6.01995L16.4004 12.3704C16.1146 12.5562 15.7666 12.6209 15.433 12.5502C15.0995 12.4794 14.8077 12.2791 14.6218 11.9932C14.436 11.7074 14.3713 11.3594 14.442 11.0258C14.5128 10.6923 14.7131 10.4005 14.999 10.2146L24.7655 3.88855C25.0513 3.7027 25.3993 3.63803 25.7329 3.70875C26.0664 3.77948 26.3582 3.97981 26.5441 4.26568C26.7299 4.55155 26.7946 4.89954 26.7239 5.23309C26.6531 5.56664 26.4528 5.85844 26.1669 6.04429V6.01995Z" fill="#6750A4"/>
<path opacity="0.8" d="M13.116 14.5066L6.58548 18.7403C6.44394 18.8323 6.28565 18.8955 6.11966 18.9264C5.95367 18.9572 5.78323 18.9551 5.61807 18.92C5.45292 18.885 5.29627 18.8178 5.15709 18.7223C5.0179 18.6267 4.8989 18.5047 4.80688 18.3631C4.71486 18.2216 4.65161 18.0633 4.62077 17.8973C4.58992 17.7313 4.59206 17.5609 4.62708 17.3957C4.6621 17.2306 4.72931 17.0739 4.82487 16.9347C4.92043 16.7955 5.04246 16.6765 5.18401 16.5845L11.7145 12.3412C11.856 12.2491 12.0143 12.1859 12.1803 12.1551C12.3463 12.1242 12.5167 12.1263 12.6819 12.1614C12.8471 12.1964 13.0037 12.2636 13.1429 12.3592C13.2821 12.4547 13.4011 12.5767 13.4931 12.7183C13.5851 12.8598 13.6484 13.0181 13.6792 13.1841C13.7101 13.3501 13.7079 13.5205 13.6729 13.6857C13.6379 13.8509 13.5707 14.0075 13.4751 14.1467C13.3795 14.2859 13.2575 14.4049 13.116 14.4969V14.5066Z" fill="#FF9D23"/>
<path d="M21.5781 4.52594L11.8164 10.8764C11.6749 10.9684 11.5166 11.0316 11.3506 11.0625C11.1846 11.0933 11.0142 11.0912 10.849 11.0562C10.5155 10.9854 10.2237 10.7851 10.0378 10.4992C9.85199 10.2134 9.78732 9.86538 9.85804 9.53182C9.92877 9.19827 10.1291 8.90647 10.415 8.72063L20.1766 2.39453C20.3182 2.30251 20.4765 2.23927 20.6424 2.20842C20.8084 2.17757 20.9789 2.17972 21.144 2.21474C21.3092 2.24976 21.4658 2.31696 21.605 2.41252C21.7442 2.50808 21.8632 2.63012 21.9552 2.77166C22.0473 2.91321 22.1105 3.0715 22.1413 3.23749C22.1722 3.40348 22.17 3.57392 22.135 3.73907C22.1 3.90423 22.0328 4.06088 21.9372 4.20006C21.8417 4.33925 21.7196 4.45825 21.5781 4.55027V4.52594Z" fill="#AA7DFF"/>
<path d="M8.52706 13.0127L1.99658 17.2804C1.70749 17.4662 1.35641 17.5296 1.02057 17.4566C0.684737 17.3836 0.391659 17.1802 0.205813 16.8911C0.0199656 16.602 -0.0434269 16.2509 0.0295807 15.9151C0.102588 15.5792 0.306015 15.2861 0.595111 15.1003L7.12559 10.8569C7.26713 10.7649 7.42542 10.7017 7.59141 10.6708C7.7574 10.64 7.92784 10.6421 8.093 10.6771C8.25816 10.7122 8.4148 10.7794 8.55398 10.8749C8.69317 10.9705 8.81217 11.0925 8.90419 11.2341C8.99621 11.3756 9.05946 11.5339 9.09031 11.6999C9.12115 11.8659 9.11901 12.0363 9.08399 12.2015C9.04897 12.3666 8.98176 12.5233 8.8862 12.6625C8.79064 12.8017 8.66861 12.9207 8.52706 13.0127Z" fill="#6750A4"/>
<path d="M24.5272 2.61355L24.4639 2.65248C24.3224 2.7445 24.1641 2.80774 23.9981 2.83859C23.8321 2.86944 23.6617 2.86729 23.4965 2.83227C23.3313 2.79725 23.1747 2.73004 23.0355 2.63449C22.8963 2.53893 22.7773 2.41689 22.6853 2.27534C22.5933 2.1338 22.53 1.97551 22.4992 1.80952C22.4683 1.64353 22.4705 1.47309 22.5055 1.30793C22.5405 1.14277 22.6077 0.986131 22.7033 0.846945C22.7988 0.70776 22.9209 0.588759 23.0624 0.496737L23.1257 0.457807C23.4116 0.27196 23.7595 0.207286 24.0931 0.278012C24.4267 0.348738 24.7184 0.549071 24.9043 0.83494C25.0901 1.12081 25.1548 1.4688 25.0841 1.80235C25.0134 2.1359 24.813 2.4277 24.5272 2.61355Z" fill="#FF9D23"/>
<path opacity="0.5" d="M25.671 10.818L15.9045 17.1684C15.6184 17.3328 15.2802 17.3812 14.9594 17.3037C14.6387 17.2263 14.3599 17.0288 14.1803 16.752C14.0008 16.4752 13.9342 16.1401 13.9942 15.8156C14.0542 15.4912 14.2363 15.2021 14.503 15.0078L24.2695 8.68174C24.5554 8.4959 24.9034 8.43122 25.2369 8.50195C25.5705 8.57268 25.8623 8.77301 26.0481 9.05888C26.234 9.34475 26.2987 9.69273 26.2279 10.0263C26.1572 10.3598 25.9569 10.6516 25.671 10.8375V10.818Z" fill="#6750A4"/>
<path opacity="0.5" d="M12.6194 19.3047L6.08891 23.5481C5.80304 23.7339 5.45505 23.7986 5.1215 23.7278C4.78794 23.6571 4.49615 23.4568 4.3103 23.1709C4.12445 22.8851 4.05978 22.5371 4.13051 22.2035C4.20123 21.87 4.40156 21.5782 4.68743 21.3923L11.2033 17.1441C11.4894 16.9798 11.8276 16.9313 12.1484 17.0088C12.4691 17.0863 12.7479 17.2837 12.9275 17.5606C13.107 17.8374 13.1736 18.1725 13.1136 18.4969C13.0536 18.8214 12.8715 19.1105 12.6048 19.3047H12.6194Z" fill="#AA7DFF"/>
<path opacity="0.5" d="M28.6147 8.90556L28.5563 8.94449C28.2702 9.10882 27.932 9.15724 27.6113 9.07977C27.2906 9.0023 27.0117 8.80484 26.8322 8.52803C26.6526 8.25122 26.586 7.91611 26.646 7.59166C26.7061 7.26722 26.8882 6.97813 27.1549 6.78388L27.2133 6.74495C27.3549 6.6418 27.5161 6.56859 27.6869 6.5298C27.8578 6.491 28.0348 6.48743 28.2071 6.51931C28.3794 6.55118 28.5433 6.61784 28.689 6.71519C28.8347 6.81255 28.959 6.93858 29.0543 7.08558C29.1497 7.23257 29.2141 7.39746 29.2436 7.57017C29.2731 7.74288 29.2671 7.91979 29.226 8.09011C29.1848 8.26043 29.1094 8.42057 29.0043 8.56077C28.8992 8.70097 28.7667 8.81829 28.6147 8.90556Z" fill="#FF9D23"/>
<g clip-path="url(#clip0_4100_175236)">
<path d="M20.528 23.2354C20.5282 23.6598 20.5012 24.0837 20.4472 24.5047C20.3813 25.1213 20.2573 25.7302 20.077 26.3235L20.0373 26.3132C19.3884 28.284 18.1339 29.9995 16.4527 31.2155C14.7714 32.4314 12.7493 33.0856 10.6745 33.0848H10.6006H10.554C9.50221 33.0859 8.45704 32.9182 7.45839 32.588L3.60389 35.13C3.45059 35.2322 3.27024 35.2862 3.08601 35.2851C2.90179 35.284 2.7221 35.2278 2.57005 35.1238C2.41799 35.0198 2.30051 34.8727 2.2327 34.7014C2.16489 34.5301 2.14985 34.3424 2.18951 34.1625L3.15228 29.7325C1.90282 28.3094 1.09017 26.5562 0.811671 24.683C0.533176 22.8098 0.800652 20.896 1.58205 19.171C2.36345 17.4459 3.62564 15.9827 5.2174 14.9567C6.80916 13.9307 8.66298 13.3853 10.5568 13.386H10.6026H10.6779C11.9714 13.3859 13.2522 13.6406 14.4473 14.1355C15.6424 14.6305 16.7282 15.356 17.6429 16.2706C18.5576 17.1852 19.2831 18.271 19.7781 19.466C20.2732 20.661 20.528 21.9419 20.528 23.2354Z" fill="white"/>
<path d="M10.2461 13.3853C9.84036 13.3851 9.43497 13.4098 9.03223 13.4592C11.4161 13.7555 13.6097 14.9124 15.2005 16.7125C16.7912 18.5125 17.6696 20.8317 17.6705 23.234C17.6705 23.6586 17.6433 24.0828 17.589 24.504C17.5234 25.1204 17.3994 25.7291 17.2188 26.3221L17.1791 26.3112C16.5949 28.0837 15.5196 29.654 14.0781 30.8395C12.6367 32.025 10.8883 32.777 9.03633 33.0081C11.3005 33.2886 13.5918 32.7741 15.5188 31.5526C17.4458 30.3312 18.8889 28.4785 19.6015 26.3112L19.6412 26.3221C19.8218 25.7291 19.9457 25.1204 20.0113 24.504C20.1911 23.1153 20.0729 21.7043 19.6645 20.3649C19.2561 19.0255 18.5669 17.7886 17.6429 16.7365C16.7189 15.6844 15.5813 14.8413 14.3058 14.2635C13.0303 13.6856 11.6464 13.3862 10.2461 13.3853Z" fill="#C5C6EF"/>
<path d="M2.86778 35.7644C2.65833 35.7635 2.45172 35.7159 2.26305 35.6249C2.07437 35.534 1.90839 35.4021 1.77723 35.2388C1.64607 35.0755 1.55304 34.8849 1.50494 34.6811C1.45685 34.4772 1.4549 34.2652 1.49924 34.0605L2.41137 29.8639C0.853975 28.0062 0.000284931 25.6595 0 23.2354C0 17.5395 4.63388 12.9029 10.3325 12.9029H10.4536C16.1495 12.9029 20.7861 17.5368 20.7861 23.2354C20.7861 23.6785 20.758 24.1212 20.7019 24.5608C20.6323 25.2056 20.5025 25.8425 20.3139 26.4631L20.1771 26.9024L20.1182 26.8873C19.3789 28.8521 18.0574 30.5443 16.3303 31.7377C14.6032 32.931 12.5529 33.5686 10.4536 33.5651H10.3797H10.3332C9.30873 33.5663 8.28984 33.4147 7.31006 33.1155L3.64032 35.531C3.41127 35.6829 3.14261 35.764 2.86778 35.7644ZM10.3325 13.8663C5.16145 13.8663 0.957979 18.0691 0.957979 23.2354C0.956813 25.5097 1.78384 27.7067 3.2845 29.4157L3.44462 29.5977L2.43053 34.2644C2.41196 34.3506 2.41945 34.4404 2.45206 34.5223C2.48467 34.6042 2.54092 34.6745 2.61364 34.7243C2.68637 34.7742 2.77227 34.8012 2.86042 34.8021C2.94858 34.8029 3.03498 34.7775 3.10864 34.729L7.16021 32.0604L7.38123 32.1336C8.33043 32.4474 9.32385 32.6068 10.3236 32.6058H10.4187H10.444C12.4179 32.6092 14.3422 31.9878 15.9414 30.8307C17.5405 29.6736 18.7324 28.04 19.3464 26.164L19.4832 25.7371L19.5024 25.7418C19.6088 25.3184 19.6856 24.8881 19.7323 24.454V24.4438C19.7835 24.0432 19.8091 23.6398 19.8089 23.236C19.8089 18.0698 15.6062 13.867 10.4399 13.867H10.4132C10.3941 13.8677 10.3646 13.8677 10.3325 13.8663Z" fill="#385868"/>
<path d="M11.4236 18.9805C11.4206 19.4048 11.4449 19.8287 11.4961 20.2499C11.5597 20.8667 11.6814 21.4761 11.8595 22.07L11.8991 22.0598C12.5401 24.0323 13.7871 25.7523 15.4625 26.9748C17.138 28.1973 19.1565 28.8599 21.2305 28.8683H21.3044H21.351C22.4028 28.8736 23.4487 28.71 24.4487 28.3838L28.2956 30.9409C28.4485 31.0429 28.6284 31.0969 28.8122 31.0961C28.996 31.0953 29.1753 31.0397 29.3273 30.9364C29.4793 30.8331 29.5971 30.6868 29.6655 30.5162C29.7339 30.3456 29.7499 30.1585 29.7114 29.9788L28.7657 25.5448C30.0203 24.1269 30.8397 22.3775 31.1258 20.5061C31.4118 18.6346 31.1524 16.7203 30.3785 14.9925C29.6047 13.2646 28.3492 11.7964 26.7624 10.7637C25.1757 9.73097 23.3249 9.17747 21.4317 9.16948H21.3859H21.3106C18.6985 9.15947 16.1894 10.1875 14.3352 12.0274C12.4811 13.8673 11.4337 16.3684 11.4236 18.9805Z" fill="#6AE184"/>
<path d="M29.7829 30.3901C29.8211 30.5697 29.8048 30.7566 29.7363 30.927C29.6678 31.0974 29.5501 31.2435 29.3982 31.3467C29.2463 31.4499 29.0672 31.5056 28.8835 31.5065C28.6999 31.5075 28.5201 31.4538 28.3672 31.3522L28.2556 31.2783C28.3813 31.1711 28.4753 31.0315 28.5274 30.8747C28.5795 30.7179 28.5878 30.5499 28.5512 30.3887L27.6056 25.9547C28.8306 24.5698 29.6411 22.8681 29.9443 21.0442C30.2474 19.2203 30.0311 17.3479 29.32 15.6412C28.6088 13.9345 27.4316 12.4625 25.9231 11.3935C24.4145 10.3245 22.6355 9.70175 20.7896 9.59649C20.9846 9.58486 21.181 9.58007 21.3794 9.58075H21.454H21.4998C23.3933 9.5881 25.2446 10.1411 26.8318 11.1736C28.4191 12.2061 29.675 13.6742 30.4493 15.4022C31.2236 17.1302 31.4833 19.0447 31.1974 20.9165C30.9115 22.7883 30.0921 24.538 28.8373 25.956L29.7829 30.3901Z" fill="#A8FF8C"/>
<path d="M21.7424 9.16946C22.1476 9.17121 22.5523 9.19772 22.9543 9.24884C21.6654 9.40441 20.4201 9.81303 19.2896 10.4512C18.1591 11.0895 17.1659 11.9447 16.3669 12.9678C15.5678 13.991 14.9788 15.1619 14.6335 16.4133C14.2883 17.6647 14.1937 18.972 14.355 20.2601C14.4181 20.8769 14.5395 21.4864 14.7177 22.0803L14.7574 22.07C15.3344 23.8446 16.4032 25.4189 17.8396 26.6101C19.2759 27.8012 21.0208 28.5603 22.8715 28.7991C20.6064 29.0705 18.3174 28.5469 16.3954 27.318C14.4735 26.0891 13.0378 24.231 12.3337 22.0611L12.294 22.0714C12.1158 21.4775 11.9944 20.868 11.9314 20.2512C11.7568 18.8616 11.8804 17.4506 12.2941 16.1125C12.7078 14.7744 13.402 13.5399 14.3304 12.4913C15.2588 11.4426 16.4001 10.6039 17.6782 10.0311C18.9563 9.45831 20.3418 9.16457 21.7424 9.16946Z" fill="#389D9C"/>
<path d="M29.0391 31.578C28.7616 31.5774 28.4906 31.4945 28.2604 31.3398L24.605 28.91C23.624 29.2055 22.6044 29.3531 21.5798 29.3479H21.5388H21.5073C21.4915 29.3479 21.4765 29.3479 21.4594 29.3479C19.3602 29.3433 17.3124 28.6979 15.59 27.4979C13.8675 26.298 12.5525 24.6007 11.8208 22.6332L11.7619 22.6482L11.6326 22.2089C11.4465 21.5877 11.3191 20.9503 11.2521 20.3053C11.1978 19.8654 11.1715 19.4224 11.1734 18.9792C11.1933 13.2977 15.8231 8.69049 21.4991 8.69049H21.6619C27.3571 8.71307 31.9725 13.3654 31.9499 19.0606C31.9411 21.4843 31.0794 23.8275 29.516 25.6796L30.4117 29.8803C30.4552 30.0849 30.4524 30.2967 30.4037 30.5002C30.3549 30.7036 30.2614 30.8937 30.1299 31.0564C29.9983 31.2191 29.8322 31.3504 29.6435 31.4408C29.4548 31.5311 29.2483 31.5782 29.0391 31.5786V31.578ZM24.7521 27.8562L28.7927 30.542C28.8661 30.5907 28.9524 30.6165 29.0405 30.616C29.1286 30.6156 29.2146 30.5889 29.2875 30.5395C29.3604 30.4901 29.417 30.42 29.45 30.3384C29.483 30.2567 29.491 30.167 29.4729 30.0808L28.4766 25.4093L28.6374 25.2279C30.1453 23.5252 30.9816 21.3316 30.9899 19.0572C31.0104 13.8909 26.8234 9.67105 21.6578 9.64847H21.4998C19.0209 9.64845 16.643 10.6308 14.8869 12.3805C13.1309 14.1301 12.1398 16.5044 12.1307 18.9833C12.1292 19.3872 12.1534 19.7909 12.2033 20.1917V20.202C12.2486 20.6348 12.3238 21.0639 12.4284 21.4863L12.4475 21.4816L12.5844 21.9099C13.191 23.7883 14.3765 25.4265 15.9711 26.5899C17.5657 27.7533 19.4876 28.3822 21.4614 28.3865H21.4861H21.534H21.575C22.5775 28.3921 23.5744 28.2366 24.5277 27.926L24.7521 27.8562Z" fill="#385868"/>
<path d="M5.90869 19.5759H11.7058V20.5359H5.90869V19.5759Z" fill="#385868"/>
<path d="M7.92871 24.6703H13.7265V25.6303H7.92871V24.6703Z" fill="#385868"/>
<path d="M2.83398 22.0352H12.1449V22.9952H2.83398V22.0352Z" fill="#385868"/>
<path d="M16.9302 16.0177H22.7273V16.9777H16.9302V16.0177Z" fill="#385868"/>
<path d="M16.9302 21.1121H22.728V22.0721H16.9302V21.1121Z" fill="#385868"/>
<path d="M16.9302 18.4769H26.241V19.4369H16.9302V18.4769Z" fill="#385868"/>
<path d="M17.7296 21.6314V28.0227H13.8947V21.6314H17.7296ZM17.7296 20.3529H13.8947C13.5556 20.3529 13.2304 20.4876 12.9907 20.7274C12.7509 20.9671 12.6162 21.2923 12.6162 21.6314V28.0227C12.6162 28.1906 12.6493 28.3568 12.7135 28.5119C12.7778 28.667 12.872 28.808 12.9907 28.9267C13.1094 29.0454 13.2503 29.1396 13.4055 29.2039C13.5606 29.2681 13.7268 29.3012 13.8947 29.3012H17.7296C18.0687 29.3012 18.3939 29.1665 18.6336 28.9267C18.8734 28.6869 19.0081 28.3617 19.0081 28.0227V21.6314C19.0081 21.4635 18.975 21.2973 18.9108 21.1421C18.8465 20.987 18.7524 20.8461 18.6336 20.7274C18.5149 20.6087 18.374 20.5145 18.2189 20.4502C18.0637 20.386 17.8975 20.3529 17.7296 20.3529Z" fill="#395462"/>
<path d="M17.7301 29.492H13.8953C13.5057 29.4916 13.1322 29.3367 12.8568 29.0612C12.5814 28.7858 12.4265 28.4122 12.4263 28.0227V21.6314C12.4267 21.242 12.5816 20.8687 12.8569 20.5934C13.1322 20.318 13.5055 20.1632 13.8949 20.1628H17.7298C18.1192 20.1632 18.4925 20.318 18.7679 20.5934C19.0432 20.8687 19.1981 21.242 19.1985 21.6314V28.0227C19.1982 28.4121 19.0435 28.7855 18.7682 29.061C18.4929 29.3365 18.1196 29.4915 17.7301 29.492ZM13.8949 20.5431C13.6064 20.5434 13.3298 20.6582 13.1257 20.8622C12.9217 21.0662 12.8069 21.3429 12.8066 21.6314V28.0227C12.8069 28.3112 12.9217 28.5878 13.1257 28.7919C13.3298 28.9959 13.6064 29.1107 13.8949 29.111H17.7298C18.0184 29.1108 18.2951 28.996 18.4992 28.792C18.7033 28.5879 18.8181 28.3113 18.8185 28.0227V21.6314C18.8181 21.3429 18.7034 21.0662 18.4993 20.8622C18.2953 20.6582 18.0187 20.5434 17.7301 20.5431H13.8949ZM17.92 28.2128H13.7048V21.4413H17.92V28.2128ZM14.0851 27.8325H17.5397V21.8216H14.0851V27.8325Z" fill="#20363F"/>
<path d="M20.9246 22.5902H10.6984C10.3593 22.5902 10.0342 22.7249 9.79439 22.9646C9.55462 23.2044 9.41992 23.5296 9.41992 23.8687V29.6216C9.41992 29.9607 9.55462 30.2859 9.79439 30.5257C10.0342 30.7654 10.3593 30.9001 10.6984 30.9001H20.9246C21.2636 30.9001 21.5888 30.7654 21.8286 30.5257C22.0684 30.2859 22.2031 29.9607 22.2031 29.6216V23.8687C22.2031 23.5296 22.0684 23.2044 21.8286 22.9646C21.5888 22.7249 21.2636 22.5902 20.9246 22.5902Z" fill="#395462"/>
<path d="M20.9246 22.5902H10.6984C9.9923 22.5902 9.41992 23.2792 9.41992 24.1289V31.0532C9.41992 31.9029 9.9923 32.5919 10.6984 32.5919H20.9246C21.6307 32.5919 22.2031 31.9029 22.2031 31.0532V24.1289C22.2043 23.2792 21.6316 22.5902 20.9246 22.5902Z" fill="#395462"/>
<path opacity="0.5" d="M22.2043 23.8835V24.6949C22.2042 24.527 22.171 24.3607 22.1066 24.2056C22.0422 24.0505 21.9479 23.9096 21.8291 23.791C21.7102 23.6724 21.5692 23.5783 21.414 23.5142C21.2588 23.4501 21.0925 23.4172 20.9246 23.4173H10.6984C10.3595 23.4173 10.0345 23.5519 9.79472 23.7915C9.55498 24.031 9.42017 24.356 9.41992 24.6949V23.8835C9.41992 23.5445 9.55462 23.2193 9.79439 22.9795C10.0342 22.7397 10.3593 22.605 10.6984 22.605H20.9246C21.0926 22.6049 21.259 22.6378 21.4142 22.702C21.5695 22.7662 21.7106 22.8603 21.8294 22.979C21.9483 23.0978 22.0426 23.2388 22.1069 23.394C22.1712 23.5492 22.2043 23.7155 22.2043 23.8835Z" fill="#283D48"/>
<path d="M20.9248 32.7821H10.6986C9.88888 32.7821 9.22998 32.0065 9.22998 31.0532V24.1289C9.22998 23.1755 9.88888 22.4 10.6986 22.4H20.9248C21.7345 22.4 22.3934 23.1755 22.3934 24.1289V31.0532C22.3947 32.0065 21.7358 32.7821 20.9248 32.7821ZM10.6986 22.7803C10.0984 22.7803 9.6103 23.3854 9.6103 24.1289V31.0532C9.6103 31.7967 10.0984 32.4018 10.6986 32.4018H20.9248C21.5247 32.4018 22.0131 31.7967 22.0131 31.0532V24.1289C22.0131 23.3854 21.5251 22.7803 20.9248 22.7803H10.6986Z" fill="#20363F"/>
<path d="M13.4243 26.0045V26.7534C13.4243 27.0255 13.5324 27.2864 13.7248 27.4788C13.9172 27.6712 14.1781 27.7793 14.4502 27.7793H17.1736C17.4457 27.7791 17.7065 27.6709 17.8988 27.4785C18.091 27.286 18.199 27.0251 18.1989 26.7531V26.0045" fill="#E7E7E7"/>
<path d="M13.4243 26.0644H18.1995V26.4856H13.4243V26.0644Z" fill="#CED0D0"/>
<path d="M9.41992 25.8143H22.2043V26.1946H9.41992V25.8143Z" fill="#20363F"/>
<path d="M17.1738 27.9691H14.4504C14.128 27.9688 13.8189 27.8405 13.5909 27.6125C13.3629 27.3846 13.2347 27.0754 13.2344 26.753V26.0044H13.6147V26.7533C13.6149 26.9749 13.7031 27.1873 13.8598 27.344C14.0164 27.5007 14.2289 27.5888 14.4504 27.5891H17.1738C17.3954 27.5887 17.6077 27.5004 17.7642 27.3437C17.9208 27.187 18.0088 26.9745 18.009 26.753V26.0044H18.3893V26.7533C18.3889 27.0756 18.2607 27.3845 18.0328 27.6124C17.805 27.8403 17.4961 27.9686 17.1738 27.9691Z" fill="#20363F"/>
<path d="M15.3906 26.7499H16.233V27.0034H15.3906V26.7499Z" fill="#20363F"/>
<path d="M21.5552 29.312C21.6223 29.3103 21.6682 28.9759 21.6579 28.565C21.6476 28.1542 21.5848 27.8225 21.5178 27.8241C21.4508 27.8258 21.4049 28.1603 21.4152 28.5711C21.4255 28.982 21.4882 29.3137 21.5552 29.312Z" fill="white"/>
<path d="M21.5141 27.4834C21.5811 27.4817 21.6312 27.3138 21.6261 27.1084C21.6209 26.903 21.5624 26.7378 21.4954 26.7395C21.4284 26.7412 21.3782 26.9091 21.3834 27.1145C21.3885 27.3199 21.4471 27.4851 21.5141 27.4834Z" fill="white"/>
</g>
<defs>
<clipPath id="clip0_4100_175236">
<rect width="31.9161" height="27.0451" fill="white" transform="translate(0 8.70488)"/>
</clipPath>
</defs>
</svg>
