<svg width="32" height="33" viewBox="0 0 32 33" fill="none" xmlns="http://www.w3.org/2000/svg">
<path d="M30.2346 14.0465C30.2335 14.4072 30.0897 14.7528 29.8347 15.0079C29.5797 15.263 29.2342 15.4068 28.8735 15.4081H1.35852C1.00232 15.401 0.663118 15.2545 0.413732 15.0001C0.164347 14.7456 0.0246599 14.4036 0.0246599 14.0473C0.0246599 13.691 0.164347 13.3489 0.413732 13.0945C0.663118 12.8401 1.00232 12.6936 1.35852 12.6864H7.15713C7.51333 12.6793 7.85254 12.5328 8.10192 12.2783C8.35131 12.0239 8.49099 11.6818 8.49099 11.3256C8.49099 10.9693 8.35131 10.6272 8.10192 10.3728C7.85254 10.1184 7.51333 9.97185 7.15713 9.96471H0.962914C0.651334 9.86938 0.384288 9.66544 0.210299 9.38995C0.0363092 9.11445 -0.0330788 8.78568 0.0147418 8.46337C0.0625623 8.14106 0.224418 7.8466 0.470902 7.63349C0.717385 7.42038 1.03214 7.30276 1.35798 7.302H13.7229C14.0791 7.29487 14.4183 7.14835 14.6677 6.89392C14.9171 6.63949 15.0568 6.29742 15.0568 5.94114C15.0568 5.58487 14.9171 5.2428 14.6677 4.98837C14.4183 4.73394 14.0791 4.58742 13.7229 4.58029H7.45329C7.09709 4.57315 6.75789 4.42664 6.5085 4.1722C6.25912 3.91777 6.11943 3.5757 6.11943 3.21943C6.11943 2.86315 6.25912 2.52108 6.5085 2.26665C6.75789 2.01222 7.09709 1.8657 7.45329 1.85857H22.7787C23.1349 1.8657 23.4741 2.01222 23.7235 2.26665C23.9729 2.52108 24.1126 2.86315 24.1126 3.21943C24.1126 3.5757 23.9729 3.91777 23.7235 4.1722C23.4741 4.42664 23.1349 4.57315 22.7787 4.58029H19.3467C18.9905 4.58742 18.6513 4.73394 18.4019 4.98837C18.1525 5.2428 18.0128 5.58487 18.0128 5.94114C18.0128 6.29742 18.1525 6.63949 18.4019 6.89392C18.6513 7.14835 18.9905 7.29487 19.3467 7.302H28.8735C29.2297 7.30914 29.5689 7.45565 29.8183 7.71009C30.0677 7.96452 30.2074 8.30659 30.2074 8.66286C30.2074 9.01913 30.0677 9.36121 29.8183 9.61564C29.5689 9.87007 29.2297 10.0166 28.8735 10.0237H28.4998C28.3717 9.98451 28.2386 9.96462 28.1047 9.96471H12.7787C12.4181 9.96601 12.0726 10.1098 11.8177 10.3648C11.5627 10.6198 11.4189 10.9652 11.4176 11.3258C11.4189 11.6864 11.5627 12.0319 11.8177 12.2869C12.0726 12.5419 12.4181 12.6857 12.7787 12.687H28.8735C29.2338 12.6883 29.579 12.8319 29.834 13.0865C30.0889 13.3411 30.2329 13.6862 30.2346 14.0465Z" fill="url(#paint0_linear_4100_174939)"/>
<path d="M5.80811 25.3392H7.35697V31.2055H5.80811V25.3392Z" fill="#F4CEAE"/>
<path d="M7.35713 25.3392V31.2055H6.60206C6.60164 31.1327 6.61794 31.0607 6.64969 30.9952C6.74688 30.7962 6.82084 30.5282 6.87776 30.2684C7.10079 29.2508 7.20883 28.1422 7.27233 27.034C7.30486 26.4706 7.32577 25.9053 7.33932 25.3392H7.35713Z" fill="#FFB594"/>
<path opacity="0.3" d="M18.3734 6.78648C18.3697 6.42938 18.2927 6.07684 18.147 5.75078C18.0013 5.42471 17.7901 5.13208 17.5266 4.89106C17.2347 4.63268 16.8875 4.44451 16.5117 4.34095C16.1358 4.23739 15.7413 4.22119 15.3582 4.29359C15.1654 3.8377 14.8436 3.44807 14.4323 3.17259C14.0211 2.89711 13.5383 2.74779 13.0434 2.74298C12.5484 2.73816 12.0628 2.87807 11.6463 3.1455C11.2298 3.41293 10.9005 3.79623 10.6988 4.24829C10.0709 4.27459 9.47494 4.53269 9.02618 4.97272C8.57742 5.41276 8.30767 6.00351 8.26904 6.63082V6.65173V6.67264V6.69355C8.26904 6.69355 8.26904 6.70749 8.26904 6.71446C8.26904 6.72143 8.26904 6.7284 8.26904 6.73537C8.26904 6.74234 8.26904 6.74931 8.26904 6.75628V6.7981V6.81901C8.26904 6.81901 8.26904 6.83295 8.26904 6.83992C8.26904 6.84689 8.26904 6.85386 8.26904 6.86083C8.26904 6.8678 8.26904 6.87477 8.26904 6.88174V6.90265V6.92356C8.26904 6.92356 8.26904 6.9375 8.26904 6.94447V6.96538C8.26904 6.97235 8.26904 6.97932 8.27098 6.98629C8.27291 6.99326 8.27098 6.99984 8.27098 7.00681C8.27098 7.01378 8.27098 7.02075 8.27291 7.02772L8.27524 7.04863L8.27756 7.06954L8.27988 7.09006C8.27988 7.09703 8.27988 7.104 8.2826 7.11097C8.28531 7.11794 8.28453 7.12491 8.28531 7.13188C8.28608 7.13885 8.28724 7.14543 8.2884 7.1524C8.28957 7.15937 8.2884 7.16634 8.2915 7.17293L8.29499 7.19384L8.29847 7.21436L8.30196 7.23488C8.30196 7.24185 8.30467 7.24882 8.30583 7.2554C8.30699 7.26199 8.30854 7.26934 8.31009 7.27631C8.31164 7.28328 8.3128 7.28986 8.31396 7.29645C8.31512 7.30303 8.31706 7.31039 8.31822 7.31697L8.32287 7.33749L8.32751 7.35802C8.32751 7.3646 8.33061 7.37157 8.33255 7.37815L8.33719 7.39867C8.33913 7.40525 8.34068 7.41223 8.34261 7.41881C8.34455 7.42539 8.3461 7.43236 8.34765 7.43933L8.35346 7.45947C8.35346 7.46605 8.35694 7.47302 8.35888 7.4796L8.36469 7.49974C8.36469 7.50632 8.36856 7.5129 8.37088 7.51987L8.37669 7.53962C8.37901 7.54659 8.38095 7.55317 8.38327 7.55975C8.38559 7.56634 8.38753 7.57292 8.38947 7.5795C8.3914 7.58609 8.39411 7.59305 8.39605 7.59964L8.40302 7.61939L8.40999 7.63913L8.41696 7.65888C8.41928 7.66546 8.42199 7.67166 8.42432 7.67824L8.43167 7.69799C8.434 7.70457 8.43671 7.71116 8.43942 7.71735L8.44677 7.7371L8.45491 7.75646L8.46304 7.77582L8.47117 7.79479L8.4793 7.81416C8.4824 7.82035 8.48511 7.82693 8.48782 7.83313L8.49673 7.85249C8.49944 7.85868 8.50253 7.86488 8.50524 7.87146C8.50795 7.87805 8.51144 7.88385 8.51415 7.89005L8.52344 7.90902L8.53274 7.92761L8.54203 7.94658L8.55171 7.96517L8.56139 7.98376L8.57146 8.00195C8.57456 8.00815 8.57804 8.01435 8.58153 8.02054L8.59159 8.03874L8.60205 8.05694L8.6125 8.07514L8.62296 8.09295L8.6338 8.11115C8.63729 8.11696 8.64116 8.12277 8.64464 8.12896L8.65587 8.14639C8.65936 8.15258 8.66323 8.15839 8.6671 8.1642C8.67097 8.17001 8.67446 8.17581 8.67833 8.18162L8.68995 8.19943L8.70156 8.21647L8.71318 8.2339L8.72518 8.25093C8.72944 8.25674 8.73331 8.26255 8.73757 8.26797L8.74958 8.28501L8.76197 8.30205L8.77475 8.3187C8.77862 8.32451 8.78288 8.32993 8.78714 8.33535L8.79992 8.352L8.8065 8.36013C8.80827 8.36293 8.81049 8.36542 8.81308 8.36749C8.81519 8.36865 8.81715 8.37008 8.81889 8.37175L8.82508 8.37949C8.82896 8.38491 8.83322 8.38995 8.83748 8.39498L8.84987 8.41047L8.86226 8.42557L8.87504 8.44067L8.88781 8.45577L8.90098 8.47049L8.91376 8.4852C8.9184 8.49023 8.92266 8.49527 8.92731 8.49991C8.93196 8.50456 8.93583 8.50998 8.94047 8.51463L8.95403 8.52895C8.95829 8.53399 8.96293 8.53864 8.96719 8.54328L8.98113 8.55761L8.99468 8.57194L9.00862 8.58588L9.02256 8.59982L9.03689 8.61337L9.05083 8.62731C9.05586 8.63157 9.06051 8.63621 9.06516 8.64086L9.07987 8.65403L9.0942 8.66758L9.10891 8.68074L9.12363 8.69391L9.13873 8.70669C9.14338 8.71133 9.14841 8.71559 9.15344 8.71985L9.16854 8.73263L9.18365 8.74502L9.19913 8.7578L9.21424 8.77019L9.22973 8.78219L9.24521 8.79458L9.26109 8.80659L9.27658 8.81821L9.29245 8.83021L9.30833 8.84183L9.32459 8.85344L9.34047 8.86467L9.35673 8.8759L9.37299 8.88713L9.38926 8.89836L9.40591 8.9092L9.42256 8.92004L9.43921 8.9305L9.45586 8.94095L9.47251 8.95141L9.48955 8.96147L9.5062 8.97193L9.52323 8.98161L9.54066 8.99168L9.5577 9.00136C9.56351 9.00446 9.56931 9.00755 9.57473 9.01104L9.59216 9.02033L9.60958 9.02963L9.62701 9.03892L9.64482 9.04782L9.66225 9.05673L9.68006 9.06564L9.69787 9.07415L9.71568 9.08267L9.73349 9.09119L9.7513 9.09932L9.7695 9.10746L9.78732 9.1152L9.80551 9.12294L9.82371 9.13069L9.84191 9.13843L9.86011 9.14579L9.8787 9.15276L9.8969 9.15973L9.91548 9.1667L9.93407 9.17367L9.95266 9.18025L9.97124 9.18683L9.98983 9.19303L10.0088 9.19923L10.0274 9.20542L10.0464 9.21123L10.0653 9.21704L10.0839 9.22246L10.1029 9.22788L10.1223 9.2333L10.1412 9.23833L10.1602 9.24337L10.1792 9.24801L10.1985 9.25266L10.2179 9.25731L10.2369 9.26157L10.2562 9.26583L10.2756 9.27009L10.295 9.27396L10.3143 9.27744L10.3337 9.28093L10.353 9.28441L10.3724 9.2879L10.3921 9.291H10.4057C10.647 9.32069 10.8902 9.3326 11.1333 9.32662H11.9751H16.0993C16.2021 9.32936 16.3049 9.32392 16.4068 9.31036C16.5009 9.294 16.5932 9.26805 16.6821 9.23291C16.8825 9.15802 17.0727 9.05852 17.2486 8.93669C17.5673 8.71267 17.8328 8.42111 18.026 8.08278C18.2192 7.74446 18.3355 7.3677 18.3665 6.97932C18.3715 6.91504 18.3738 6.85076 18.3734 6.78648Z" fill="#CFD2E8"/>
<path opacity="0.3" d="M12.1002 18.7514C12.0965 18.3943 12.0194 18.0418 11.8737 17.7157C11.7281 17.3896 11.5169 17.097 11.2534 16.856C10.9614 16.5976 10.6143 16.4094 10.2384 16.3059C9.86258 16.2023 9.46802 16.1861 9.08495 16.2585C8.89215 15.8026 8.57035 15.413 8.15911 15.1375C7.74786 14.862 7.26509 14.7127 6.77013 14.7079C6.27516 14.7031 5.78958 14.843 5.37305 15.1104C4.95653 15.3779 4.62722 15.7611 4.42559 16.2132C3.79777 16.2397 3.20203 16.4979 2.75343 16.9379C2.30483 17.3779 2.03519 17.9686 1.99658 18.5957V18.6167V18.6376V18.6585C1.99658 18.6585 1.99658 18.6724 1.99658 18.6794C1.99658 18.6864 1.99658 18.6933 1.99658 18.7003C1.99658 18.7073 1.99658 18.7142 1.99658 18.7212V18.763V18.7839C1.99658 18.7839 1.99658 18.7979 1.99658 18.8048C1.99658 18.8118 1.99658 18.8188 1.99658 18.8258C1.99658 18.8327 1.99658 18.8397 1.99658 18.8467V18.8676V18.8885C1.99658 18.8885 1.99658 18.9024 1.99658 18.9094V18.9303V18.9512C1.99658 18.9512 1.99658 18.9648 1.99658 18.9717C1.99658 18.9787 1.99658 18.9857 1.99658 18.9926L1.99891 19.0136L2.00123 19.0345L2.00355 19.055C2.00355 19.062 2.00549 19.0689 2.00626 19.0759C2.00704 19.0829 2.00626 19.0898 2.00897 19.0968C2.01168 19.1038 2.01091 19.1104 2.01207 19.1173C2.01323 19.1243 2.01401 19.1313 2.01517 19.1378L2.01865 19.1588L2.02214 19.1793L2.02562 19.1998C2.02562 19.2068 2.02833 19.2137 2.0295 19.2203C2.03066 19.2269 2.03221 19.2343 2.03375 19.2412C2.0353 19.2482 2.03647 19.2548 2.03763 19.2614C2.03879 19.268 2.04072 19.2753 2.04189 19.2819L2.04653 19.3024L2.05118 19.3229C2.05118 19.3295 2.05428 19.3365 2.05621 19.3431L2.06086 19.3636C2.0628 19.3702 2.06434 19.3771 2.06628 19.3837C2.06822 19.3903 2.06977 19.3973 2.07131 19.4043L2.07712 19.4244C2.07712 19.431 2.08061 19.4379 2.08254 19.4445L2.08835 19.4647C2.08835 19.4712 2.09222 19.4778 2.09455 19.4848L2.10036 19.5045C2.10268 19.5115 2.10462 19.5181 2.10694 19.5247C2.10926 19.5313 2.1112 19.5378 2.11313 19.5444C2.11507 19.551 2.11778 19.558 2.11972 19.5646L2.12669 19.5843L2.13366 19.6041L2.14063 19.6238C2.14295 19.6304 2.14566 19.6366 2.14798 19.6432L2.15534 19.6629C2.15766 19.6695 2.16037 19.6761 2.16308 19.6823L2.17044 19.702L2.17857 19.7214L2.1867 19.7407L2.19484 19.7597L2.20297 19.7791C2.20607 19.7853 2.20878 19.7919 2.21149 19.7981L2.22039 19.8174C2.2231 19.8236 2.2262 19.8298 2.22891 19.8364C2.23162 19.843 2.23511 19.8488 2.23782 19.855L2.24711 19.8739L2.2564 19.8925L2.2657 19.9115L2.27538 19.9301L2.28506 19.9487L2.29513 19.9669C2.29822 19.9731 2.30171 19.9793 2.30519 19.9855L2.31526 20.0037L2.32572 20.0219L2.33617 20.0401L2.34663 20.0579L2.35747 20.0761C2.36095 20.0819 2.36482 20.0877 2.36831 20.0939L2.37954 20.1113C2.38302 20.1175 2.3869 20.1233 2.39077 20.1291C2.39464 20.1349 2.39812 20.1407 2.402 20.1465L2.41361 20.1644L2.42523 20.1814L2.43685 20.1988L2.44885 20.2159C2.45311 20.2217 2.45698 20.2275 2.46124 20.2329L2.47324 20.2499L2.48564 20.267L2.49841 20.2836C2.50229 20.2894 2.50655 20.2948 2.5108 20.3003L2.52358 20.3169L2.53017 20.3251C2.53194 20.3279 2.53416 20.3303 2.53675 20.3324C2.53886 20.3336 2.54081 20.335 2.54256 20.3367L2.54875 20.3444C2.55262 20.3498 2.55688 20.3549 2.56114 20.3599L2.57353 20.3754L2.58592 20.3905L2.5987 20.4056L2.61148 20.4207L2.62465 20.4354L2.63742 20.4501C2.64207 20.4552 2.64633 20.4602 2.65098 20.4648C2.65562 20.4695 2.6595 20.4749 2.66414 20.4796L2.67769 20.4939C2.68195 20.4989 2.6866 20.5036 2.69086 20.5082L2.7048 20.5225L2.72765 20.5376L2.74159 20.5516L2.75552 20.5655L2.76985 20.5791L2.78379 20.593C2.78883 20.5973 2.79347 20.6019 2.79812 20.6066L2.81283 20.6197L2.82716 20.6333L2.84187 20.6464L2.85659 20.6596L2.87169 20.6724C2.87634 20.677 2.88137 20.6813 2.8864 20.6856L2.90151 20.6983L2.91661 20.7107L2.9321 20.7235L2.9472 20.7359L2.96269 20.7479L2.97817 20.7603L2.99405 20.7723L3.00954 20.7839L3.02541 20.7959L3.04129 20.8075L3.05755 20.8191L3.07343 20.8304L3.08969 20.8416L3.10596 20.8528L3.12222 20.8641L3.13887 20.8749L3.15358 20.8861L3.17023 20.8966L3.18688 20.907L3.20353 20.9175L3.22057 20.9276L3.23722 20.938L3.25426 20.9477L3.27168 20.9578L3.28872 20.9674C3.29453 20.9705 3.30034 20.9736 3.30576 20.9771L3.32318 20.9864L3.34061 20.9957L3.35803 21.005L3.37584 21.0139L3.39327 21.0228L3.41108 21.0317L3.42889 21.0402L3.4467 21.0488L3.46452 21.0573L3.48233 21.0654L3.50053 21.0735L3.51834 21.0813L3.53654 21.089L3.55474 21.0968L3.57294 21.1045L3.59114 21.1119L3.60972 21.1188L3.62792 21.1258L3.64651 21.1328L3.66509 21.1398L3.68368 21.1463L3.70227 21.1529L3.72085 21.1591L3.73983 21.1653L3.75841 21.1715L3.77739 21.1773L3.79636 21.1831L3.81495 21.1885L3.83392 21.194L3.85328 21.1994L3.87226 21.2044L3.89123 21.2095L3.9102 21.2141L3.92956 21.2187L3.94892 21.2234L3.9679 21.2277L3.98726 21.2319L4.00662 21.2362L4.02598 21.24L4.04534 21.2435L4.0647 21.247L4.08406 21.2505L4.10342 21.254L4.12317 21.2571L4.13672 21.259C4.37805 21.2887 4.62123 21.3006 4.8643 21.2946H5.70611H9.83034C9.9331 21.2974 10.0359 21.2919 10.1378 21.2784C10.232 21.262 10.3242 21.2361 10.4131 21.2009C10.6122 21.1247 10.801 21.0242 10.9753 20.9016C11.2941 20.6776 11.5595 20.386 11.7528 20.0477C11.946 19.7094 12.0622 19.3326 12.0932 18.9442C12.0983 18.88 12.1006 18.8157 12.1002 18.7514Z" fill="#CFD2E8"/>
<path opacity="0.3" d="M31.9452 17.4349C31.9418 17.0775 31.8648 16.7246 31.7191 16.3982C31.5734 16.0717 31.3621 15.7788 31.0984 15.5375C30.8064 15.2792 30.4593 15.091 30.0834 14.9874C29.7076 14.8839 29.313 14.8677 28.93 14.9401C28.7372 14.4842 28.4154 14.0945 28.0041 13.8191C27.5929 13.5436 27.1101 13.3943 26.6151 13.3895C26.1202 13.3846 25.6346 13.5245 25.2181 13.792C24.8015 14.0594 24.4722 14.4427 24.2706 14.8948C23.6426 14.9211 23.0467 15.1792 22.598 15.6192C22.1492 16.0592 21.8794 16.65 21.8408 17.2773V17.2982V17.3191V17.34C21.8408 17.34 21.8408 17.354 21.8408 17.3609C21.8408 17.3679 21.8408 17.3749 21.8408 17.3818C21.8408 17.3888 21.8408 17.3958 21.8408 17.4028V17.4446V17.4655C21.8408 17.4655 21.8408 17.4794 21.8408 17.4864C21.8408 17.4934 21.8408 17.5003 21.8408 17.5073C21.8408 17.5143 21.8408 17.5212 21.8408 17.5282V17.5491V17.57C21.8408 17.57 21.8408 17.584 21.8408 17.5909V17.6119C21.8408 17.6188 21.8408 17.6258 21.8428 17.6328C21.8447 17.6397 21.8428 17.6467 21.8428 17.6537C21.8428 17.6606 21.8428 17.6672 21.8428 17.6742L21.8451 17.6951L21.8474 17.716L21.8497 17.7369C21.8497 17.7435 21.8497 17.7505 21.8524 17.7574C21.8551 17.7644 21.8544 17.7714 21.8551 17.7784C21.8559 17.7853 21.8551 17.7919 21.8582 17.7989C21.8613 17.8058 21.8582 17.8128 21.8613 17.8198L21.8648 17.8403L21.8683 17.8608L21.8718 17.8814C21.8718 17.8883 21.8745 17.8953 21.8757 17.9023C21.8768 17.9092 21.8784 17.9158 21.8799 17.9228C21.8815 17.9298 21.8826 17.9363 21.8838 17.9433C21.885 17.9503 21.8869 17.9569 21.8881 17.9638L21.8927 17.984L21.8974 18.0045C21.8974 18.0115 21.9005 18.018 21.9024 18.025L21.907 18.0451L21.9125 18.0657C21.9125 18.0723 21.9159 18.0788 21.9175 18.0858L21.9233 18.1059C21.9233 18.1125 21.9268 18.1195 21.9287 18.1261L21.9345 18.1462C21.9365 18.1528 21.9384 18.1598 21.9407 18.1663L21.9465 18.1865L21.9531 18.2062C21.955 18.2128 21.9574 18.2194 21.9593 18.226C21.9612 18.2326 21.964 18.2395 21.9659 18.2461L21.9729 18.2659L21.9798 18.2856L21.9868 18.3054L21.9942 18.3251C21.9965 18.3313 21.9992 18.3379 22.0015 18.3445C22.0038 18.351 22.0066 18.3576 22.0093 18.3642C22.012 18.3708 22.0143 18.377 22.0166 18.3836L22.0247 18.4029L22.0329 18.4223L22.041 18.4417L22.0491 18.4606L22.0577 18.4796L22.0666 18.499C22.0693 18.5052 22.0724 18.5114 22.0751 18.5179C22.0778 18.5245 22.0813 18.5303 22.084 18.5369L22.0933 18.5555L22.1026 18.5745L22.1119 18.5931L22.1216 18.6116L22.1312 18.6302C22.1347 18.6364 22.1378 18.6426 22.1413 18.6484C22.1448 18.6542 22.1479 18.6608 22.1514 18.667C22.1549 18.6732 22.158 18.679 22.1614 18.6852L22.1719 18.7034L22.1823 18.7216L22.1928 18.7394L22.2036 18.7576C22.2071 18.7634 22.211 18.7692 22.2145 18.7754L22.2257 18.7933C22.2292 18.7991 22.2331 18.8049 22.2369 18.8107L22.2482 18.8285L22.2598 18.8459L22.2714 18.8633L22.283 18.8804L22.295 18.8978C22.2993 18.9032 22.3032 18.909 22.3074 18.9148L22.3194 18.9315C22.3237 18.9373 22.3276 18.9431 22.3318 18.9485L22.3446 18.9652C22.3485 18.971 22.3527 18.9764 22.357 18.9818L22.3698 18.9985L22.3763 19.0066C22.3781 19.0094 22.3803 19.0119 22.3829 19.014L22.3887 19.0182L22.3949 19.0264L22.4073 19.0415C22.4112 19.0469 22.4154 19.0519 22.4197 19.0569L22.4321 19.072L22.4449 19.0871L22.4577 19.1022L22.4708 19.117L22.4836 19.1321C22.4882 19.1367 22.4925 19.1417 22.4972 19.1468C22.5018 19.1518 22.5057 19.1565 22.5103 19.1611C22.515 19.1658 22.5192 19.1708 22.5239 19.1758C22.5285 19.1809 22.5328 19.1851 22.537 19.1901L22.551 19.2041L22.5645 19.2184L22.5785 19.2324L22.5924 19.2463L22.6067 19.2602L22.6207 19.2738L22.635 19.2873L22.6497 19.3009L22.664 19.3141L22.6788 19.3272L22.6935 19.3404L22.7086 19.3536L22.7233 19.3663L22.7384 19.3791L22.7535 19.3915L22.769 19.4043L22.7841 19.4167L22.7996 19.4287L22.8151 19.4411L22.8309 19.4531L22.8464 19.4651L22.8623 19.4767L22.8782 19.4883L22.8944 19.4999L22.9103 19.5111L22.9266 19.5224L22.9428 19.5336L22.9591 19.5448L22.9757 19.5557L22.9924 19.5665L23.0091 19.577L23.0257 19.5874L23.0424 19.5979L23.0594 19.6083L23.076 19.6184L23.0931 19.6285L23.1105 19.6382L23.1275 19.6478L23.1446 19.6575L23.162 19.6668L23.1794 19.6761L23.1969 19.6854L23.2147 19.6943L23.2321 19.7032L23.2499 19.7121L23.2677 19.7206L23.2855 19.7291L23.3033 19.7377L23.3211 19.7458L23.3393 19.7539L23.3572 19.7617L23.3754 19.7698L23.3936 19.7772L23.4118 19.7849L23.43 19.7923L23.4485 19.7992L23.4667 19.8066L23.4853 19.8132L23.5039 19.8201L23.5225 19.8267L23.5411 19.8333L23.5597 19.8395L23.5786 19.8457L23.5972 19.8519L23.6162 19.8577L23.6352 19.8635L23.6538 19.8689L23.6727 19.8744L23.6921 19.8798L23.7111 19.8848L23.73 19.8898L23.749 19.8949L23.7684 19.8995L23.7877 19.9038L23.8067 19.908L23.8261 19.9123L23.8454 19.9166L23.8648 19.9204L23.8842 19.9239L23.9035 19.9278L23.9229 19.9309L23.9422 19.9344L23.962 19.9375H23.9755C24.2169 19.9672 24.46 19.9791 24.7031 19.9731H25.5449H29.6692C29.7719 19.9758 29.8747 19.9704 29.9766 19.9568C30.0708 19.9405 30.163 19.9145 30.2519 19.8794C30.4511 19.8041 30.6402 19.7045 30.8149 19.5828C31.1337 19.3588 31.3991 19.0672 31.5924 18.7289C31.7856 18.3906 31.9018 18.0138 31.9328 17.6254C31.9437 17.5631 31.9456 17.4988 31.9452 17.4349Z" fill="#CFD2E8"/>
<path opacity="0.2" d="M31.6547 27.3476C31.6512 26.9902 31.5743 26.6373 31.4286 26.3109C31.2829 25.9844 31.0716 25.6915 30.8078 25.4503C30.5159 25.1919 30.1687 25.0037 29.7929 24.9001C29.4171 24.7966 29.0225 24.7804 28.6394 24.8528C28.4466 24.3969 28.1248 24.0073 27.7136 23.7318C27.3023 23.4563 26.8196 23.307 26.3246 23.3022C25.8296 23.2974 25.3441 23.4373 24.9275 23.7047C24.511 23.9721 24.1817 24.3554 23.9801 24.8075C23.3521 24.8338 22.7562 25.0919 22.3074 25.5319C21.8587 25.972 21.5889 26.5627 21.5503 27.19V27.2109V27.2318V27.2527C21.5503 27.2527 21.5503 27.2667 21.5503 27.2737C21.5503 27.2806 21.5503 27.2876 21.5503 27.2946C21.5503 27.3015 21.5503 27.3085 21.5503 27.3155V27.3573V27.3782C21.5503 27.3782 21.5503 27.3921 21.5503 27.3991C21.5503 27.4061 21.5503 27.4131 21.5503 27.42C21.5503 27.427 21.5503 27.434 21.5503 27.4409V27.4618V27.4828C21.5503 27.4828 21.5503 27.4967 21.5503 27.5037V27.5246C21.5503 27.5315 21.5503 27.5385 21.5522 27.5455C21.5542 27.5525 21.5522 27.559 21.5522 27.566C21.5522 27.573 21.5522 27.5799 21.5542 27.5869L21.5565 27.6078L21.5588 27.6287L21.5611 27.6493C21.5611 27.6562 21.5631 27.6632 21.5638 27.6702C21.5646 27.6771 21.5658 27.6841 21.5666 27.6911C21.5673 27.698 21.5685 27.7046 21.5697 27.7116C21.5708 27.7186 21.5716 27.7255 21.5728 27.7321L21.5762 27.753L21.5797 27.7736L21.5832 27.7941C21.5832 27.801 21.5859 27.808 21.5871 27.8146C21.5882 27.8212 21.5898 27.8285 21.5913 27.8355C21.5929 27.8425 21.594 27.8491 21.5952 27.8556C21.5964 27.8622 21.5983 27.8696 21.5995 27.8762L21.6041 27.8967L21.6088 27.9172C21.6088 27.9238 21.6119 27.9308 21.6138 27.9373L21.6184 27.9579C21.6184 27.9645 21.6219 27.9714 21.6239 27.978C21.6258 27.9846 21.6273 27.9916 21.6289 27.9985L21.6347 28.0187C21.6347 28.0252 21.6382 28.0322 21.6401 28.0388L21.6459 28.0589C21.6479 28.0655 21.6498 28.0721 21.6521 28.0791L21.6579 28.0988C21.6603 28.1058 21.6622 28.1124 21.6645 28.1189C21.6668 28.1255 21.6688 28.1321 21.6707 28.1387C21.6727 28.1453 21.6754 28.1522 21.6773 28.1588L21.6843 28.1786L21.6912 28.1983L21.6982 28.2181C21.7005 28.2247 21.7032 28.2309 21.7056 28.2374L21.7129 28.2572C21.7152 28.2638 21.718 28.2703 21.7207 28.2765L21.728 28.2963L21.7362 28.3157L21.7443 28.335L21.7524 28.354L21.7606 28.3733C21.7636 28.3795 21.7664 28.3861 21.7691 28.3923L21.778 28.4117C21.7807 28.4179 21.7838 28.4241 21.7865 28.4307C21.7892 28.4372 21.7927 28.443 21.7954 28.4492L21.8047 28.4682L21.814 28.4868L21.8233 28.5058L21.833 28.5244L21.8426 28.5429L21.8527 28.5612C21.8558 28.5673 21.8593 28.5735 21.8628 28.5797L21.8728 28.5979L21.8833 28.6161L21.8938 28.6343L21.9042 28.6521L21.9151 28.6703C21.9185 28.6762 21.9224 28.682 21.9259 28.6882L21.9371 28.7056C21.9406 28.7118 21.9445 28.7176 21.9484 28.7234C21.9522 28.7292 21.9557 28.735 21.9596 28.7408L21.9712 28.7586L21.9828 28.7757L21.9944 28.7931L22.0064 28.8101C22.0107 28.8159 22.0146 28.8217 22.0188 28.8272L22.0308 28.8442L22.0432 28.8612L22.056 28.8779C22.0599 28.8837 22.0641 28.8891 22.0684 28.8945L22.0812 28.9112L22.0877 28.9193C22.0895 28.9221 22.0917 28.9246 22.0943 28.9267C22.0964 28.9278 22.0984 28.9293 22.1001 28.9309L22.1063 28.9387C22.1102 28.9441 22.1145 28.9491 22.1187 28.9542L22.1311 28.9697L22.1435 28.9848L22.1563 28.9999L22.1691 29.015L22.1822 29.0297L22.195 29.0444C22.1997 29.0494 22.2039 29.0545 22.2086 29.0591C22.2132 29.0638 22.2171 29.0692 22.2217 29.0738L22.2353 29.0882C22.2395 29.0932 22.2442 29.0978 22.2484 29.1025L22.2624 29.1168L22.2759 29.1311L22.2899 29.1451L22.3038 29.159L22.3181 29.1726L22.3321 29.1865C22.3371 29.1908 22.3418 29.1954 22.3464 29.2001L22.3611 29.2132L22.3754 29.2268L22.3902 29.2399L22.4049 29.2531L22.42 29.2659C22.4246 29.2705 22.4297 29.2748 22.4347 29.279L22.4498 29.2918L22.4649 29.3042L22.4804 29.317L22.4955 29.3294L22.511 29.3414L22.5265 29.3538L22.5423 29.3658L22.5578 29.3774L22.5737 29.3894L22.5896 29.401L22.6058 29.4126L22.6217 29.4239L22.638 29.4351L22.6542 29.4463L22.6705 29.4576L22.6872 29.4684L22.7038 29.4792L22.7205 29.4897L22.7371 29.5001L22.7538 29.5106L22.7708 29.5207L22.7874 29.5311L22.8045 29.5408L22.8219 29.5509L22.8389 29.5606C22.8448 29.5637 22.8506 29.5667 22.856 29.5702L22.8734 29.5795L22.8908 29.5888L22.9083 29.5981L22.9261 29.607L22.9435 29.6159L22.9613 29.6248L22.9791 29.6334L22.9969 29.6419L23.0147 29.6504L23.0326 29.6585L23.0508 29.6667L23.0686 29.6744L23.0868 29.6821L23.105 29.6899L23.1232 29.6976L23.1414 29.705L23.1599 29.712L23.1781 29.7189L23.1967 29.7259L23.2153 29.7329L23.2339 29.7394L23.2525 29.746L23.2711 29.7522L23.2901 29.7584L23.3086 29.7646L23.3276 29.7704L23.3466 29.7762L23.3652 29.7817L23.3841 29.7871L23.4035 29.7925L23.4225 29.7975L23.4415 29.8026L23.4604 29.8072L23.4798 29.8119L23.4991 29.8165L23.5181 29.8208L23.5375 29.825L23.5568 29.8293L23.5762 29.8332L23.5956 29.8366L23.6149 29.8401L23.6343 29.8436L23.6536 29.8471L23.6734 29.8502L23.687 29.8521C23.9283 29.8818 24.1715 29.8937 24.4145 29.8877H25.2563H29.3806C29.4833 29.8905 29.5861 29.885 29.688 29.8715C29.7822 29.8551 29.8744 29.8292 29.9633 29.794C30.1637 29.7192 30.354 29.6197 30.5298 29.4978C30.8486 29.2738 31.114 28.9822 31.3073 28.6439C31.5005 28.3056 31.6167 27.9288 31.6477 27.5404C31.6528 27.4762 31.6551 27.4119 31.6547 27.3476Z" fill="#CFD2E8"/>
<path opacity="0.2" d="M31.9449 4.48253C31.9412 4.12542 31.8641 3.77288 31.7185 3.44682C31.5728 3.12076 31.3616 2.82813 31.0981 2.58711C30.8062 2.3289 30.4592 2.14087 30.0835 2.03738C29.7078 1.93389 29.3134 1.91769 28.9305 1.99002C28.7377 1.53413 28.4159 1.1445 28.0046 0.869018C27.5934 0.59354 27.1106 0.444218 26.6156 0.439405C26.1207 0.434593 25.6351 0.574499 25.2186 0.841928C24.802 1.10936 24.4727 1.49266 24.2711 1.94472C23.6431 1.97102 23.0472 2.22912 22.5984 2.66915C22.1497 3.10919 21.8799 3.69994 21.8413 4.32725V4.34816V4.36907V4.38998C21.8413 4.38998 21.8413 4.40392 21.8413 4.41089C21.8413 4.41786 21.8413 4.42483 21.8413 4.4318C21.8413 4.43877 21.8413 4.44574 21.8413 4.45271V4.49453V4.51544C21.8413 4.51544 21.8413 4.52938 21.8413 4.53635C21.8413 4.54332 21.8413 4.55029 21.8413 4.55726C21.8413 4.56423 21.8413 4.5712 21.8413 4.57817V4.59908V4.61999C21.8413 4.61999 21.8413 4.63393 21.8413 4.6409V4.66181C21.8413 4.66878 21.8413 4.67575 21.8432 4.68272C21.8452 4.68969 21.8432 4.69627 21.8432 4.70324C21.8432 4.71021 21.8432 4.71718 21.8432 4.72415L21.8456 4.74506L21.8479 4.76597L21.8502 4.78649C21.8502 4.79346 21.8502 4.80043 21.8529 4.8074C21.8556 4.81437 21.8549 4.82134 21.8556 4.82831C21.8564 4.83528 21.8556 4.84186 21.8587 4.84883C21.8618 4.8558 21.8587 4.86277 21.8618 4.86936L21.8653 4.89027L21.8688 4.91079L21.8723 4.93131C21.8723 4.93828 21.875 4.94525 21.8762 4.95183C21.8773 4.95842 21.8789 4.96577 21.8804 4.97274C21.882 4.97971 21.8831 4.98629 21.8843 4.99288C21.8855 4.99946 21.8874 5.00682 21.8886 5.0134L21.8932 5.03392L21.8978 5.05444C21.8978 5.06103 21.9009 5.068 21.9029 5.07458L21.9075 5.0951C21.9075 5.10169 21.911 5.10865 21.9129 5.11524C21.9149 5.12182 21.9164 5.12879 21.918 5.13576L21.9238 5.1559C21.9238 5.16248 21.9273 5.16945 21.9292 5.17603L21.935 5.19617C21.937 5.20275 21.9389 5.20933 21.9412 5.2163L21.947 5.23605C21.9493 5.24302 21.9513 5.2496 21.9536 5.25618C21.9559 5.26277 21.9579 5.26935 21.9598 5.27593C21.9617 5.28251 21.9644 5.28948 21.9664 5.29607L21.9734 5.31582L21.9803 5.33556L21.9873 5.35531C21.9896 5.36189 21.9923 5.36809 21.9946 5.37467L22.002 5.39442C22.0043 5.401 22.007 5.40759 22.0097 5.41378L22.0171 5.43353L22.0252 5.45289L22.0334 5.47225L22.0415 5.49122L22.0496 5.51058C22.0527 5.51678 22.0554 5.52336 22.0581 5.52956L22.0671 5.54892C22.0698 5.55511 22.0729 5.56131 22.0756 5.56789C22.0783 5.57448 22.0818 5.58028 22.0845 5.58648L22.0938 5.60545L22.1031 5.62404L22.1124 5.64301L22.122 5.6616L22.1317 5.68019L22.1418 5.69838C22.1449 5.70458 22.1484 5.71078 22.1519 5.71697L22.1619 5.73517L22.1724 5.75337L22.1828 5.77157L22.1933 5.78938L22.2041 5.80758C22.2076 5.81339 22.2115 5.8192 22.215 5.82539L22.2262 5.84282C22.2297 5.84901 22.2336 5.85482 22.2374 5.86063C22.2413 5.86644 22.2448 5.87224 22.2487 5.87805L22.2603 5.89586L22.2719 5.9129L22.2835 5.93033L22.2955 5.94736C22.2998 5.95317 22.3036 5.95898 22.3079 5.9644L22.3199 5.98144L22.3323 5.99848L22.3451 6.01513C22.3489 6.02094 22.3532 6.02636 22.3575 6.03178L22.3702 6.04843L22.3768 6.05656C22.3786 6.05936 22.3808 6.06185 22.3834 6.06392C22.3855 6.06508 22.3875 6.06651 22.3892 6.06818L22.3954 6.07592C22.3993 6.08134 22.4035 6.08637 22.4078 6.09141L22.4202 6.1069L22.4326 6.122L22.4454 6.1371L22.4581 6.1522L22.4713 6.16692L22.4841 6.18163C22.4887 6.18666 22.493 6.1917 22.4976 6.19634C22.5023 6.20099 22.5062 6.20641 22.5108 6.21106L22.5244 6.22539C22.5286 6.23042 22.5333 6.23507 22.5375 6.23971L22.5515 6.25404L22.565 6.26837L22.579 6.28231L22.5929 6.29625L22.6072 6.3098L22.6212 6.32374C22.6262 6.328 22.6308 6.33264 22.6355 6.33729L22.6502 6.35046L22.6645 6.36401L22.6792 6.37717L22.694 6.39034L22.7091 6.40312C22.7137 6.40776 22.7187 6.41202 22.7238 6.41628L22.7389 6.42906L22.754 6.44145L22.7695 6.45423L22.7846 6.46662L22.8001 6.47862L22.8155 6.49102L22.8314 6.50302L22.8469 6.51464L22.8628 6.52664L22.8787 6.53826L22.8949 6.54987L22.9108 6.5611L22.9271 6.57233L22.9433 6.58356L22.9596 6.59479L22.9762 6.60563L22.9929 6.61647L23.0095 6.62693L23.0262 6.63738L23.0428 6.64784L23.0599 6.65791L23.0765 6.66836L23.0936 6.67804L23.111 6.68811L23.128 6.69779C23.1338 6.70089 23.1396 6.70398 23.1451 6.70747L23.1625 6.71676L23.1799 6.72605L23.1973 6.73535L23.2151 6.74425L23.2326 6.75316L23.2504 6.76207L23.2682 6.77059L23.286 6.7791L23.3038 6.78762L23.3216 6.79575L23.3398 6.80389L23.3576 6.81163L23.3758 6.81937L23.394 6.82712L23.4122 6.83486L23.4304 6.84222L23.449 6.84919L23.4672 6.85616L23.4858 6.86313L23.5044 6.8701L23.523 6.87668L23.5416 6.88326L23.5602 6.88946L23.5791 6.89566L23.5977 6.90185L23.6167 6.90766L23.6357 6.91347L23.6543 6.91889L23.6732 6.92431L23.6926 6.92973L23.7116 6.93476L23.7305 6.9398L23.7495 6.94444L23.7689 6.94909L23.7882 6.95374L23.8072 6.958L23.8266 6.96226L23.8459 6.96652L23.8653 6.97039L23.8846 6.97387L23.904 6.97736L23.9234 6.98084L23.9427 6.98433L23.9625 6.98743H23.976C24.2174 7.01712 24.4605 7.02903 24.7036 7.02305H25.5454H29.6696C29.7724 7.02579 29.8752 7.02035 29.9771 7.00679C30.0713 6.99043 30.1635 6.96448 30.2524 6.92934C30.4516 6.85407 30.6407 6.75444 30.8154 6.63274C31.1342 6.40871 31.3996 6.11715 31.5928 5.77883C31.7861 5.4405 31.9023 5.06374 31.9333 4.67536C31.9434 4.61108 31.9453 4.54564 31.9449 4.48253Z" fill="#CFD2E8"/>
<path d="M26.1718 2.74514H15.5311C14.727 2.74514 14.0752 3.39698 14.0752 4.20107V27.4263C14.0752 28.2304 14.727 28.8822 15.5311 28.8822H26.1718C26.9759 28.8822 27.6277 28.2304 27.6277 27.4263V4.20107C27.6277 3.39698 26.9759 2.74514 26.1718 2.74514Z" fill="#516582"/>
<path opacity="0.3" d="M27.6668 4.16232V4.47209C27.6669 4.28088 27.6292 4.09153 27.5561 3.91487C27.4829 3.7382 27.3757 3.57768 27.2405 3.44248C27.1053 3.30727 26.9448 3.20003 26.7681 3.12688C26.5914 3.05373 26.4021 3.01611 26.2109 3.01616H15.5702C15.379 3.01611 15.1896 3.05373 15.013 3.12688C14.8363 3.20003 14.6758 3.30727 14.5406 3.44248C14.4054 3.57768 14.2981 3.7382 14.225 3.91487C14.1518 4.09153 14.1142 4.28088 14.1143 4.47209V4.16232C14.1142 3.97111 14.1518 3.78176 14.225 3.6051C14.2981 3.42843 14.4054 3.26791 14.5406 3.13271C14.6758 2.9975 14.8363 2.89026 15.013 2.81711C15.1896 2.74396 15.379 2.70634 15.5702 2.70639H26.2109C26.4021 2.70634 26.5914 2.74396 26.7681 2.81711C26.9448 2.89026 27.1053 2.9975 27.2405 3.13271C27.3757 3.26791 27.4829 3.42843 27.5561 3.6051C27.6292 3.78176 27.6669 3.97111 27.6668 4.16232Z" fill="#233449"/>
<path d="M26.1072 3.39831H15.6198C15.0674 3.39831 14.6196 3.84611 14.6196 4.39849V27.1993C14.6196 27.7517 15.0674 28.1995 15.6198 28.1995H26.1072C26.6595 28.1995 27.1073 27.7517 27.1073 27.1993V4.39849C27.1073 3.84611 26.6595 3.39831 26.1072 3.39831Z" fill="white"/>
<path d="M15.4787 28.0395C15.4787 28.0395 15.1797 26.4132 16.6403 23.4197C16.6403 23.4197 17.4597 23.1347 17.2815 22.2441L17.6277 21.7643L18.4041 20.6879L19.2172 19.5583C19.6873 18.907 20.1528 18.2658 20.492 17.5336C20.6131 17.2722 20.7205 17.0047 20.8137 16.7321C20.8548 16.6116 20.8493 16.48 20.7982 16.3634L20.5628 15.826L14.966 23.954L14.4316 27.159L14.4704 27.4424C14.4704 27.4424 15.3362 28.0039 15.4787 28.0395Z" fill="#CFD2E8"/>
<path d="M26.1845 29.0029H15.5446C15.1227 29.0025 14.7182 28.8348 14.4198 28.5365C14.1215 28.2382 13.9536 27.8338 13.9531 27.4119V4.18628C13.9536 3.76436 14.1215 3.35986 14.4198 3.06152C14.7182 2.76317 15.1227 2.59534 15.5446 2.59483H26.1845C26.6064 2.59534 27.0108 2.76319 27.3091 3.06154C27.6074 3.3599 27.7752 3.76439 27.7756 4.18628V27.4119C27.7752 27.8337 27.6074 28.2382 27.3091 28.5365C27.0108 28.8348 26.6063 29.0025 26.1845 29.0029ZM15.5446 2.86588C15.1945 2.86629 14.8589 3.00553 14.6114 3.25307C14.3638 3.5006 14.2246 3.83622 14.2242 4.18628V27.4119C14.2246 27.7619 14.3638 28.0975 14.6114 28.3449C14.8589 28.5924 15.1945 28.7316 15.5446 28.7319H26.1845C26.5345 28.7315 26.87 28.5923 27.1174 28.3448C27.3649 28.0974 27.5041 27.7618 27.5045 27.4119V4.18628C27.5042 3.83625 27.365 3.50064 27.1176 3.25309C26.8701 3.00554 26.5345 2.86629 26.1845 2.86588H15.5446Z" fill="#1B3C47"/>
<path d="M27.0687 4.29202V27.3058C27.0688 27.4372 27.043 27.5672 26.9927 27.6886C26.9425 27.81 26.8688 27.9203 26.7759 28.0131C26.683 28.106 26.5727 28.1797 26.4514 28.2299C26.33 28.2802 26.1999 28.306 26.0686 28.306H15.5831C15.3976 28.3061 15.2158 28.2545 15.0579 28.1571C14.9 28.0596 14.7725 27.9201 14.6895 27.7542C14.8285 27.8244 14.9821 27.8609 15.1378 27.8607H25.6233C25.7546 27.8607 25.8847 27.8349 26.0061 27.7847C26.1274 27.7344 26.2377 27.6607 26.3306 27.5679C26.4235 27.475 26.4972 27.3647 26.5474 27.2433C26.5977 27.1219 26.6235 26.9919 26.6234 26.8605V3.84866C26.6237 3.6929 26.5872 3.53928 26.517 3.40026C26.6826 3.48312 26.8219 3.61041 26.9193 3.76788C27.0168 3.92536 27.0685 4.10683 27.0687 4.29202Z" fill="#CFD2E8"/>
<path d="M26.0545 28.2963H15.6733C15.3822 28.2959 15.1032 28.18 14.8976 27.974C14.692 27.768 14.5766 27.4888 14.5767 27.1978V4.39853C14.577 4.10776 14.6926 3.82897 14.8982 3.62333C15.1037 3.41768 15.3825 3.30196 15.6733 3.30155H26.0545C26.3454 3.30186 26.6242 3.41753 26.8299 3.62319C27.0355 3.82885 27.1512 4.10769 27.1515 4.39853V27.1978C27.1516 27.4889 27.0361 27.7682 26.8304 27.9741C26.6247 28.1801 26.3456 28.296 26.0545 28.2963ZM15.6733 3.49516C15.4338 3.49547 15.2042 3.59075 15.0349 3.76011C14.8657 3.92948 14.7705 4.15907 14.7703 4.39853V27.1978C14.7705 27.4373 14.8657 27.6669 15.0349 27.8362C15.2042 28.0056 15.4338 28.1009 15.6733 28.1012H26.0545C26.294 28.1009 26.5236 28.0056 26.693 27.8362C26.8623 27.6669 26.9576 27.4373 26.9579 27.1978V4.39853C26.9576 4.15904 26.8623 3.92944 26.693 3.76009C26.5236 3.59074 26.294 3.49547 26.0545 3.49516H15.6733Z" fill="#1B3C47"/>
<path d="M17.0186 3.44209H24.7629C24.7629 3.87342 24.5915 4.28707 24.2865 4.59207C23.9815 4.89706 23.5679 5.0684 23.1366 5.0684H18.6449C18.2135 5.0684 17.7999 4.89706 17.4949 4.59207C17.1899 4.28707 17.0186 3.87342 17.0186 3.44209Z" fill="#516582"/>
<path opacity="0.3" d="M17.3276 4.43763C17.3695 4.49219 17.4149 4.54394 17.4635 4.59252C17.6144 4.74376 17.7937 4.86369 17.991 4.94542C18.1884 5.02716 18.4 5.06909 18.6136 5.0688H23.1053C23.5366 5.0688 23.9503 4.89745 24.2553 4.59246C24.5602 4.28747 24.7316 3.87381 24.7316 3.44249H24.4152C24.3471 3.81728 24.1496 4.15627 23.8571 4.40034C23.5647 4.6444 23.1958 4.77806 22.8149 4.778H18.3232C17.9627 4.7786 17.6123 4.65881 17.3276 4.43763Z" fill="#213144"/>
<path d="M23.1093 5.14584H18.6176C18.1608 5.14533 17.7228 4.96362 17.3998 4.64059C17.0767 4.31755 16.895 3.87957 16.8945 3.42273V3.32593H24.8325V3.42273C24.8319 3.87957 24.6502 4.31755 24.3272 4.64059C24.0042 4.96362 23.5662 5.14533 23.1093 5.14584ZM17.0932 3.51954C17.1182 3.90748 17.2899 4.27137 17.5734 4.53742C17.8568 4.80347 18.2308 4.95176 18.6196 4.95223H23.1113C23.5 4.95176 23.8741 4.80347 24.1575 4.53742C24.441 4.27137 24.6126 3.90748 24.6377 3.51954H17.0932Z" fill="#1B3C47"/>
<path d="M21.7544 4.21649H19.4699C19.4442 4.21649 19.4196 4.20629 19.4014 4.18814C19.3832 4.16998 19.373 4.14536 19.373 4.11968C19.373 4.09401 19.3832 4.06939 19.4014 4.05123C19.4196 4.03308 19.4442 4.02288 19.4699 4.02288H21.7544C21.7801 4.02288 21.8047 4.03308 21.8229 4.05123C21.841 4.06939 21.8512 4.09401 21.8512 4.11968C21.8512 4.14536 21.841 4.16998 21.8229 4.18814C21.8047 4.20629 21.7801 4.21649 21.7544 4.21649Z" fill="#1B3C47"/>
<path d="M22.1421 4.21653C22.1358 4.21712 22.1294 4.21712 22.1231 4.21653C22.1169 4.21532 22.1108 4.2135 22.1049 4.21111C22.0991 4.20861 22.0935 4.20563 22.0882 4.20221C22.0829 4.19873 22.078 4.19471 22.0735 4.1902C22.0645 4.18124 22.0573 4.17056 22.0524 4.1588C22.0474 4.14703 22.0449 4.13441 22.0449 4.12166C22.0449 4.10892 22.0474 4.0963 22.0524 4.08453C22.0573 4.07277 22.0645 4.06209 22.0735 4.05313C22.078 4.04862 22.0829 4.0446 22.0882 4.04112C22.0934 4.03755 22.099 4.03457 22.1049 4.03222C22.1108 4.02983 22.1169 4.02801 22.1231 4.0268C22.1434 4.0228 22.1645 4.02545 22.1833 4.03436C22.202 4.04326 22.2174 4.05794 22.2271 4.07625C22.2369 4.09455 22.2405 4.1155 22.2375 4.13602C22.2344 4.15653 22.2249 4.17553 22.2102 4.1902C22.2057 4.19471 22.2008 4.19873 22.1955 4.20221C22.1902 4.20563 22.1846 4.20861 22.1788 4.21111C22.173 4.2135 22.1669 4.21532 22.1606 4.21653C22.1545 4.2171 22.1482 4.2171 22.1421 4.21653Z" fill="#1B3C47"/>
<path d="M8.28654 20.7312C7.7367 20.7699 7.15781 20.8474 6.6432 21.0518C5.02154 21.6969 5.43354 23.6814 5.22754 25.1455L7.3185 24.9132L7.46448 32.0584C7.46691 32.1768 7.51554 32.2895 7.59998 32.3725C7.68442 32.4555 7.79797 32.5022 7.91637 32.5026H14.4158C14.536 32.5026 14.6514 32.4548 14.7364 32.3698C14.8214 32.2847 14.8692 32.1694 14.8692 32.0492V30.8763C14.8692 25.3004 16.4181 22.8748 16.4181 22.8748V20.7119L8.28654 20.7312Z" fill="white"/>
<path d="M16.4572 20.6344V22.7974C16.4572 22.7974 14.9084 25.223 14.9084 30.7989V31.9717C14.9084 32.0313 14.8966 32.0904 14.8738 32.1454C14.8509 32.2005 14.8175 32.2505 14.7753 32.2926C14.7331 32.3348 14.683 32.3681 14.6279 32.3909C14.5728 32.4136 14.5138 32.4253 14.4542 32.4252H7.95475C7.86172 32.4253 7.77091 32.3967 7.6947 32.3433C7.61849 32.29 7.56056 32.2145 7.52881 32.127C7.57846 32.145 7.63088 32.1542 7.68369 32.1541H14.1831C14.3034 32.1541 14.4187 32.1063 14.5037 32.0213C14.5888 31.9363 14.6365 31.8209 14.6365 31.7007V30.5278C14.6365 24.9519 16.1854 22.5264 16.1854 22.5264V20.6352L16.4572 20.6344Z" fill="#CFD2E8"/>
<path d="M14.7313 20.7088C13.8961 21.6858 12.679 22.3189 11.3238 22.3189C9.94027 22.3189 10.913 21.3779 10.0789 20.3785C10.0789 20.3785 9.7002 20.7123 9.85508 20.2035C10.053 19.553 12.4688 19.4539 12.4688 19.4539C12.4688 19.4539 13.536 21.1278 14.7313 20.7088Z" fill="#CFD2E8"/>
<path d="M14.3313 32.5607H7.92366C7.76793 32.5599 7.61866 32.4985 7.50743 32.3895C7.3962 32.2805 7.33175 32.1325 7.32773 31.9768L7.18523 24.9825L5.07568 25.2168L5.09272 25.0933C5.14035 24.7552 5.15429 24.3963 5.17016 24.0122C5.21895 22.7479 5.26929 21.4407 6.56995 20.9233C7.01409 20.7464 7.54573 20.6426 8.24233 20.5962H8.24659C8.28338 20.5962 9.15345 20.5574 9.36952 19.5716C9.37224 19.5591 9.37738 19.5474 9.38465 19.5369C9.39192 19.5265 9.40118 19.5176 9.4119 19.5107C9.42261 19.5038 9.43457 19.4991 9.4471 19.4969C9.45963 19.4947 9.47248 19.4949 9.48491 19.4976C9.49734 19.5003 9.50912 19.5055 9.51956 19.5128C9.53001 19.52 9.53892 19.5293 9.54579 19.54C9.55265 19.5507 9.55734 19.5627 9.55959 19.5752C9.56183 19.5877 9.56159 19.6006 9.55887 19.613C9.31724 20.7181 8.31978 20.7863 8.2555 20.7898C7.57981 20.8347 7.06713 20.9346 6.64236 21.1034C5.45864 21.5743 5.41101 22.8176 5.36455 24.0203C5.35177 24.3471 5.33899 24.6836 5.3022 24.9972L7.3742 24.7665L7.52134 31.9729C7.52415 32.078 7.56769 32.1779 7.64276 32.2514C7.71783 32.325 7.81856 32.3665 7.92366 32.3671H14.3313C14.438 32.367 14.5402 32.3246 14.6157 32.2492C14.6911 32.1737 14.7335 32.0715 14.7336 31.9648V30.8376C14.7336 27.9455 15.1572 25.9138 15.5127 24.7196C15.8999 23.4182 16.2825 22.8106 16.2987 22.7835C16.313 22.763 16.3347 22.7488 16.3592 22.7439C16.3838 22.739 16.4092 22.7438 16.4303 22.7573C16.4514 22.7708 16.4664 22.7919 16.4723 22.8162C16.4781 22.8405 16.4744 22.8661 16.4618 22.8877C16.4467 22.9117 14.9272 25.3608 14.9272 30.8368V31.964C14.9273 32.0423 14.9119 32.1199 14.882 32.1923C14.8521 32.2646 14.8082 32.3304 14.7528 32.3858C14.6975 32.4412 14.6318 32.4852 14.5595 32.5152C14.4871 32.5452 14.4096 32.5607 14.3313 32.5607Z" fill="#1B3C47"/>
<path d="M14.7082 20.8946C13.7103 20.8946 12.9103 20.0331 12.9003 20.0219C12.883 20.0029 12.8739 19.9778 12.8751 19.9521C12.8763 19.9264 12.8877 19.9023 12.9066 19.885C12.9256 19.8677 12.9507 19.8586 12.9764 19.8598C13.0021 19.861 13.0262 19.8724 13.0435 19.8914C13.0548 19.9041 14.2098 21.1452 15.4055 20.5291C15.4282 20.5186 15.4541 20.5172 15.4777 20.5253C15.5013 20.5334 15.5209 20.5503 15.5324 20.5725C15.5438 20.5947 15.5463 20.6205 15.5391 20.6445C15.532 20.6684 15.5159 20.6887 15.4942 20.701C15.2516 20.828 14.982 20.8944 14.7082 20.8946Z" fill="#1B3C47"/>
<path d="M13.9299 8.84108C13.2064 8.24395 12.318 7.88155 11.3832 7.80218C11.3333 7.79754 11.2826 7.79328 11.2318 7.79018C11.1679 7.78631 11.1033 7.7836 11.0382 7.78205C10.9995 7.78205 10.9608 7.78205 10.9197 7.78205C10.8787 7.78205 10.8404 7.78205 10.8012 7.78205C10.7621 7.78205 10.7312 7.78205 10.6963 7.78553H10.6642C10.6289 7.78553 10.5937 7.7894 10.5585 7.79173H10.5426C10.5077 7.79444 10.4729 7.79715 10.438 7.80063H10.428C10.4024 7.80296 10.3769 7.80567 10.3505 7.80877C10.3025 7.81419 10.2549 7.81999 10.2076 7.82658L10.1747 7.83161C10.1484 7.83548 10.1221 7.83935 10.0973 7.844L10.0481 7.85213L9.96834 7.86685L9.92691 7.87498C9.90329 7.87963 9.88006 7.88427 9.85682 7.88969L9.79642 7.90325C9.77628 7.90751 9.7577 7.91215 9.7364 7.91757L9.68761 7.92958C9.67871 7.93151 9.66941 7.93384 9.66051 7.93655C8.04233 8.359 6.81137 9.58144 6.28786 11.1059C6.28437 11.1156 6.28089 11.1253 6.27818 11.1349C6.16337 11.4774 6.08548 11.8311 6.04585 12.1901C5.98091 12.7697 6.01442 13.3561 6.14497 13.9245C6.15001 13.9481 6.15582 13.9713 6.16162 13.9949C6.16898 14.0267 6.17711 14.0588 6.18563 14.0906C6.1957 14.1293 6.20615 14.168 6.217 14.2067L6.3804 14.9618L6.42609 15.1701L6.56355 15.7963L6.66539 15.7932L6.74284 15.7904L7.09133 15.7796L10.4164 15.6758H10.4346L11.3763 15.6464L15.2345 15.526L15.4761 14.4542L15.5218 14.2516L15.5756 14.0127C15.5818 13.9849 15.588 13.9566 15.5938 13.9287C15.6067 13.8683 15.6183 13.8079 15.6287 13.7475C15.8223 12.6439 15.8742 11.4854 15.4625 10.5526C15.1574 9.8552 14.5073 9.31891 13.9299 8.84108ZM10.0799 14.5521L10.0713 14.5556C10.0839 14.4743 10.0901 14.392 10.0899 14.3097C10.0906 14.181 10.0747 14.0527 10.0427 13.9279C10.0286 13.8734 10.0106 13.82 9.98887 13.768C10.0777 13.7813 10.1597 13.8235 10.2221 13.8881C10.2846 13.9527 10.324 14.036 10.3344 14.1253C10.3447 14.2145 10.3254 14.3046 10.2794 14.3818C10.2334 14.459 10.1633 14.5188 10.0799 14.5521Z" fill="#B0D7E9"/>
<path d="M6.90949 16.619L6.29808 14.8665C6.29149 14.8483 6.28452 14.8278 6.27794 14.8096L6.26981 14.7871C6.19381 14.5673 6.12919 14.3437 6.0762 14.1172C6.06884 14.0859 6.06149 14.0545 6.0549 14.0224C6.04948 13.9995 6.04406 13.9751 6.03942 13.9503C5.90521 13.3198 5.87811 12.6712 5.95926 12.0317V12.0243C6.00009 11.7121 6.0693 11.4043 6.16604 11.1047C6.16952 11.0931 6.17339 11.0815 6.17765 11.0702C6.43435 10.2836 6.885 9.57425 7.48802 9.00763C8.09105 8.44101 8.82705 8.03535 9.62813 7.82807C9.63872 7.82498 9.64917 7.82227 9.6595 7.81994L9.70867 7.80794C9.72726 7.8029 9.74933 7.79787 9.7714 7.79322L9.83181 7.77928C9.85388 7.77425 9.87827 7.76922 9.90344 7.76457L9.94526 7.75605L10.0274 7.74095L10.044 7.73824L10.0796 7.73243C10.1029 7.72817 10.1304 7.7243 10.1571 7.72004H10.1706L10.1908 7.71694C10.2388 7.71036 10.2876 7.70416 10.3363 7.69874C10.3619 7.69565 10.3886 7.69255 10.4138 7.69023H10.4266L10.53 7.68171H10.5462C10.5849 7.679 10.6194 7.67667 10.6554 7.67512H10.6887C10.7232 7.67512 10.7588 7.67241 10.7952 7.67164H11.0368C11.1034 7.67164 11.17 7.6759 11.2351 7.68016C12.7228 7.77386 14.0587 8.57075 14.9012 9.86676C14.9682 9.96938 15.0856 10.0468 15.211 10.1285C15.3791 10.2389 15.5529 10.3531 15.6346 10.5498C16.0048 11.4404 15.9057 12.6226 15.7438 13.7691C15.7365 13.8241 15.7272 13.8853 15.7152 13.9538C15.6985 14.0483 15.6803 14.1409 15.6602 14.2295L15.6218 15.6289L15.4929 15.644L6.90949 16.619ZM6.1912 12.0472V12.0549C6.11265 12.6713 6.13883 13.2966 6.26865 13.9043C6.27329 13.9279 6.27794 13.95 6.28297 13.9724C6.28994 14.0042 6.29653 14.034 6.30388 14.0642C6.35537 14.2827 6.41818 14.4984 6.49207 14.7104L6.49982 14.7325L6.51956 14.7887L7.06825 16.3673L15.3934 15.4214L15.4294 14.1939L15.4321 14.1827C15.4519 14.0948 15.4708 14.0022 15.4867 13.9081C15.4983 13.8419 15.5072 13.7838 15.5146 13.7312C15.6718 12.6164 15.7694 11.4702 15.4209 10.6335C15.3667 10.5026 15.2296 10.4127 15.0844 10.3171C14.9454 10.2257 14.8013 10.1316 14.7084 9.98835C13.8952 8.73648 12.6562 7.99729 11.2235 7.90668C11.1615 7.90319 11.0976 7.90048 11.0345 7.89893C10.9571 7.89893 10.8796 7.89893 10.8022 7.89893C10.7681 7.89893 10.734 7.9001 10.6999 7.90242H10.6713L10.5648 7.90861H10.5501C10.516 7.91133 10.4823 7.91404 10.4483 7.91752H10.437C10.4126 7.91984 10.3886 7.92217 10.3646 7.92526C10.3162 7.93069 10.2697 7.93649 10.2233 7.94269L10.1908 7.94772L10.1164 7.95934L10.0831 7.96476L10.0657 7.96786C10.0405 7.97212 10.0146 7.97715 9.98824 7.98219L9.94758 7.98993C9.92513 7.99458 9.90305 7.99884 9.88137 8.00387L9.82058 8.01742C9.80044 8.02168 9.78186 8.02594 9.76443 8.03097L9.71487 8.04298H9.71061C9.70444 8.04412 9.69836 8.04567 9.69241 8.04763H9.68738C8.92305 8.24523 8.22084 8.63223 7.64559 9.1729C7.07033 9.71357 6.64059 10.3905 6.39604 11.1411C6.39256 11.1512 6.38985 11.1581 6.38791 11.1651V11.1694C6.296 11.4554 6.23016 11.7492 6.1912 12.0472ZM9.92125 14.7472L9.95649 14.5374C9.96798 14.462 9.97367 14.3859 9.97353 14.3097C9.97409 14.1909 9.95952 14.0724 9.93016 13.9573C9.91748 13.9082 9.9013 13.8601 9.88176 13.8133L9.80083 13.6228L10.0057 13.653C10.1199 13.6696 10.2254 13.7235 10.306 13.8061C10.3866 13.8888 10.4376 13.9957 10.4513 14.1104C10.4649 14.225 10.4405 14.3409 10.3816 14.4402C10.3227 14.5395 10.2328 14.6167 10.1257 14.6597L10.1149 14.6644L9.92125 14.7472ZM10.1826 14.0274C10.196 14.1068 10.2036 14.187 10.2055 14.2675C10.2157 14.2369 10.221 14.2049 10.221 14.1726C10.2211 14.1217 10.2079 14.0716 10.1826 14.0274Z" fill="#1B3C47"/>
<path d="M8.91016 20.4912L8.92874 20.4695C8.92306 20.4842 8.91764 20.4989 8.91248 20.5137C8.91054 20.4989 8.91016 20.4912 8.91016 20.4912Z" fill="#C0E5F2"/>
<path d="M6.88538 13.3149C6.8597 13.3149 6.83508 13.3047 6.81693 13.2866C6.79877 13.2684 6.78857 13.2438 6.78857 13.2181V12.0576C6.78857 12.0319 6.79877 12.0073 6.81693 11.9892C6.83508 11.971 6.8597 11.9608 6.88538 11.9608C6.91105 11.9608 6.93567 11.971 6.95383 11.9892C6.97198 12.0073 6.98218 12.0319 6.98218 12.0576V13.2193C6.98188 13.2447 6.97154 13.2691 6.95342 13.287C6.9353 13.3049 6.91085 13.3149 6.88538 13.3149Z" fill="#1B3C47"/>
<path d="M6.88538 11.6239C6.8597 11.6239 6.83508 11.6137 6.81693 11.5956C6.79877 11.5774 6.78857 11.5528 6.78857 11.5271V11.093C6.78857 11.0674 6.79877 11.0427 6.81693 11.0246C6.83508 11.0064 6.8597 10.9962 6.88538 10.9962C6.91105 10.9962 6.93567 11.0064 6.95383 11.0246C6.97198 11.0427 6.98218 11.0674 6.98218 11.093V11.5271C6.98218 11.5528 6.97198 11.5774 6.95383 11.5956C6.93567 11.6137 6.91105 11.6239 6.88538 11.6239Z" fill="#1B3C47"/>
<path d="M11.5138 10.1026C12.0353 10.2142 12.525 10.4418 12.9465 10.7686C13.065 10.86 13.1808 10.6582 13.0627 10.568C12.624 10.2299 12.1151 9.99422 11.5735 9.87836C11.4275 9.84739 11.3655 10.072 11.5115 10.1026H11.5138Z" fill="white"/>
<path d="M16.6447 14.741V15.0256C16.6447 15.2413 16.5591 15.4481 16.4066 15.6006C16.2541 15.7531 16.0473 15.8388 15.8316 15.8388H5.903C5.89539 15.8392 5.88776 15.8392 5.88015 15.8388C5.72643 15.8351 5.57699 15.7874 5.44957 15.7013C5.33875 15.6269 5.24796 15.5263 5.18522 15.4085C5.12249 15.2906 5.08973 15.1591 5.08984 15.0256V14.741C5.08984 14.5254 5.17552 14.3185 5.32801 14.1661C5.48051 14.0136 5.68734 13.9279 5.903 13.9279H10.0427C10.0747 14.0526 10.0906 14.1809 10.09 14.3097C10.0901 14.392 10.0839 14.4742 10.0714 14.5556L10.0799 14.5521C10.1382 14.5289 10.1903 14.4926 10.2323 14.446C10.2743 14.3994 10.305 14.3438 10.322 14.2835C10.3391 14.2231 10.342 14.1596 10.3306 14.098C10.3191 14.0363 10.2936 13.9781 10.2561 13.9279H15.832C16.0476 13.928 16.2543 14.0137 16.4067 14.1662C16.5591 14.3187 16.6447 14.5254 16.6447 14.741Z" fill="#F4CEAE"/>
<path opacity="0.5" d="M16.5535 14.9369C16.5536 15.0624 16.529 15.1867 16.481 15.3026C16.433 15.4186 16.3627 15.5239 16.2739 15.6126C16.2378 15.6486 16.199 15.6818 16.1577 15.7117C16.1958 15.5218 16.196 15.3262 16.1581 15.1362C16.1202 14.9463 16.0452 14.7656 15.9372 14.6048C15.8292 14.444 15.6904 14.3061 15.5289 14.1992C15.3674 14.0922 15.1863 14.0183 14.9961 13.9817H15.5994C15.8525 13.982 16.0952 14.0827 16.2741 14.2619C16.453 14.441 16.5535 14.6838 16.5535 14.9369Z" fill="#CC6F65"/>
<path d="M5.95518 14.2722C5.73943 14.4875 5.61669 14.7789 5.61329 15.0837C5.60989 15.3886 5.72609 15.6826 5.93698 15.9027C5.69467 15.875 5.47215 15.7556 5.31502 15.5691C5.15789 15.3826 5.07805 15.143 5.09187 14.8995C5.10568 14.6561 5.2121 14.4271 5.38932 14.2595C5.56654 14.092 5.80113 13.9985 6.04501 13.9984H6.38576C6.22382 14.0568 6.07679 14.1503 5.95518 14.2722Z" fill="#FCDFCA"/>
<path d="M15.6894 15.955H6.04506C5.97763 15.9549 5.91035 15.9485 5.84409 15.936C5.60624 15.8896 5.39096 15.7644 5.23302 15.5806C5.07508 15.3968 4.9837 15.1652 4.97363 14.9231C4.97363 14.9099 4.97363 14.8963 4.97363 14.8843C4.97374 14.6001 5.08669 14.3275 5.28767 14.1266C5.48865 13.9256 5.76121 13.8126 6.04545 13.8125H15.6894C15.9735 13.8129 16.2459 13.926 16.4467 14.1269C16.6476 14.3278 16.7606 14.6002 16.7609 14.8843C16.7607 15.1684 16.6477 15.4408 16.4468 15.6417C16.2459 15.8426 15.9735 15.9556 15.6894 15.9558V15.955ZM6.04506 14.0441C5.93478 14.0441 5.8256 14.0659 5.72374 14.1082C5.62189 14.1504 5.52935 14.2123 5.45143 14.2904C5.37351 14.3684 5.31172 14.461 5.2696 14.5629C5.22749 14.6648 5.20586 14.7741 5.20596 14.8843V14.9157C5.21388 15.1052 5.28544 15.2865 5.4091 15.4303C5.53276 15.5742 5.70128 15.6721 5.88746 15.7083C5.93926 15.7184 5.99191 15.7234 6.04467 15.7234H15.6894C15.9089 15.7187 16.1178 15.6282 16.2714 15.4713C16.4249 15.3145 16.5109 15.1037 16.5109 14.8841C16.5109 14.6646 16.4249 14.4538 16.2714 14.2969C16.1178 14.1401 15.9089 14.0496 15.6894 14.0448H10.4376C10.4685 14.1676 10.454 14.2975 10.3967 14.4104C10.3394 14.5233 10.2432 14.6117 10.1259 14.6594L10.1151 14.664L9.92148 14.748L9.95671 14.5382C9.9682 14.4628 9.9739 14.3867 9.97375 14.3105C9.97395 14.2214 9.96592 14.1325 9.94974 14.0448L6.04506 14.0441ZM10.1828 14.0274C10.1962 14.1068 10.2039 14.187 10.2057 14.2675C10.216 14.2369 10.2212 14.2049 10.2212 14.1726C10.2213 14.1217 10.2081 14.0716 10.1828 14.0274Z" fill="#1B3C47"/>
<path d="M14.1919 9.93295C13.7699 9.50991 13.2685 9.17443 12.7165 8.94577C12.1645 8.71711 11.5728 8.59978 10.9753 8.60054H10.9528C9.75006 8.60586 8.5984 9.08756 7.75002 9.94015C6.90163 10.7927 6.42564 11.9468 6.42627 13.1495V16.334C6.42788 17.3997 6.79376 18.4329 7.46323 19.2621L7.46517 19.2645C8.29962 20.3006 9.56233 20.974 10.9753 20.974C13.4879 20.974 15.5247 18.801 15.5247 16.2887V13.1499C15.5254 12.5524 15.408 11.9605 15.1793 11.4084C14.9506 10.8564 14.615 10.3549 14.1919 9.93295ZM10.3371 14.1451C10.3371 14.2268 10.3126 14.3067 10.2667 14.3744C10.2208 14.442 10.1556 14.4943 10.0797 14.5245L10.0711 14.528C10.0837 14.4467 10.0899 14.3645 10.0897 14.2822C10.0904 14.1534 10.0745 14.0251 10.0425 13.9004C10.0284 13.8458 10.0104 13.7924 9.98866 13.7404C10.0856 13.755 10.174 13.8038 10.238 13.8781C10.3019 13.9523 10.3371 14.0471 10.3371 14.1451Z" fill="#F4CEAE"/>
<path opacity="0.5" d="M15.5138 13.2088V16.3479C15.5138 18.8606 13.4774 21.0332 10.9648 21.0332C10.8657 21.0332 10.767 21.03 10.6689 21.0236C13.0437 20.8714 14.9225 18.7611 14.9225 16.3475V13.2088C14.9224 12.0534 14.4828 10.9414 13.6928 10.0983C12.9029 9.25526 11.8218 8.74427 10.6689 8.66905C10.7668 8.66285 10.8654 8.65976 10.9648 8.65976C12.1713 8.65976 13.3283 9.13902 14.1814 9.99213C15.0345 10.8452 15.5138 12.0023 15.5138 13.2088Z" fill="#CC6F65"/>
<path d="M10.3612 20.9895C10.2702 20.998 10.1784 20.8857 10.0863 20.8857C8.06074 20.8857 6.41895 18.6132 6.41895 16.1644V13.1054C6.41895 10.6567 8.06074 8.67178 10.0863 8.67178C10.1784 8.67178 10.2702 8.67566 10.3612 8.68417C8.46383 8.85378 6.69 10.6911 6.69 13.028L6.70936 16.4959C6.70936 18.8339 8.46461 20.8199 10.3612 20.9895Z" fill="#FCEADE"/>
<path d="M7.22345 19.2533C7.20495 19.2533 7.18673 19.2488 7.17029 19.2403C7.15386 19.2318 7.13969 19.2196 7.12896 19.2045C7.05152 19.0976 6.98027 18.9861 6.91329 18.8734C6.90519 18.8603 6.89979 18.8457 6.8974 18.8304C6.89501 18.8152 6.89568 18.7996 6.89937 18.7847C6.90305 18.7697 6.90969 18.7556 6.91888 18.7432C6.92807 18.7308 6.93964 18.7204 6.95291 18.7125C6.96617 18.7047 6.98088 18.6995 6.99615 18.6974C7.01143 18.6953 7.02698 18.6962 7.04189 18.7002C7.0568 18.7041 7.07077 18.711 7.083 18.7204C7.09522 18.7298 7.10545 18.7415 7.11309 18.7549C7.17659 18.8622 7.24552 18.9679 7.31793 19.0694C7.32682 19.0818 7.33317 19.0958 7.33662 19.1107C7.34007 19.1256 7.34055 19.141 7.33804 19.1561C7.33552 19.1712 7.33005 19.1856 7.32195 19.1986C7.31385 19.2115 7.30327 19.2227 7.29082 19.2316C7.27116 19.2457 7.24761 19.2532 7.22345 19.2533Z" fill="#1B3C47"/>
<path d="M6.71256 18.3243C6.68945 18.3243 6.66686 18.3175 6.64768 18.3046C6.62851 18.2917 6.61362 18.2733 6.60491 18.2519C6.3794 17.6948 6.26369 17.0993 6.26416 16.4982V13.1775C6.26442 12.0846 6.64811 11.0264 7.34837 10.1874C7.51979 9.9816 7.70882 9.79115 7.91331 9.61818L7.9257 9.60772C8.76677 8.90011 9.83059 8.51205 10.9297 8.5119H10.9557C12.1885 8.51866 13.3686 9.01321 14.2379 9.88746C15.1073 10.7617 15.5951 11.9446 15.5949 13.1775V16.4982C15.5952 16.8524 15.5552 17.2055 15.4756 17.5507C15.4678 17.5797 15.449 17.6046 15.4231 17.6201C15.3973 17.6355 15.3665 17.6403 15.3372 17.6335C15.3078 17.6267 15.2823 17.6087 15.266 17.5835C15.2496 17.5582 15.2437 17.5276 15.2495 17.498C15.325 17.1701 15.3629 16.8347 15.3626 16.4982V13.1775C15.3628 12.0056 14.8989 10.8814 14.0724 10.0507C13.2459 9.21994 12.124 8.75035 10.9522 8.74462H10.9297C9.88378 8.74504 8.87168 9.11537 8.07246 9.7901L8.06588 9.79552C7.87086 9.96016 7.69063 10.1416 7.52726 10.3376C6.86164 11.1349 6.49686 12.1404 6.49649 13.179V16.4998C6.49666 17.0704 6.60656 17.6357 6.8202 18.1648C6.82738 18.1824 6.8301 18.2016 6.82814 18.2205C6.82618 18.2395 6.81959 18.2576 6.80896 18.2734C6.79833 18.2892 6.78397 18.3022 6.76716 18.3111C6.75035 18.3201 6.7316 18.3247 6.71256 18.3247V18.3243Z" fill="#1B3C47"/>
<path d="M5.89682 15.2874C5.88428 15.2872 5.87197 15.2841 5.86093 15.2781C5.84989 15.2722 5.84046 15.2636 5.83346 15.2532C5.82645 15.2428 5.82207 15.2309 5.8207 15.2184C5.81932 15.2059 5.821 15.1933 5.82558 15.1817C5.86529 15.0751 5.87575 14.9598 5.85587 14.8478C5.83598 14.7358 5.78648 14.6311 5.71251 14.5447C5.70527 14.5372 5.69963 14.5282 5.69593 14.5184C5.69223 14.5087 5.69055 14.4982 5.69099 14.4878C5.69142 14.4774 5.69397 14.4671 5.69848 14.4577C5.70298 14.4482 5.70935 14.4398 5.7172 14.4329C5.72505 14.426 5.73421 14.4208 5.74414 14.4175C5.75407 14.4142 5.76456 14.413 5.77498 14.4139C5.78539 14.4148 5.79552 14.4178 5.80475 14.4227C5.81398 14.4276 5.82212 14.4343 5.82867 14.4425C5.921 14.5504 5.9828 14.6811 6.00765 14.8209C6.0325 14.9607 6.0195 15.1047 5.97001 15.2378C5.96432 15.2526 5.95426 15.2652 5.94118 15.2741C5.9281 15.2829 5.91262 15.2876 5.89682 15.2874Z" fill="#1B3C47"/>
<path d="M5.47149 15.0051C5.4571 15.0051 5.44301 15.0011 5.43077 14.9935C5.41854 14.986 5.40865 14.9751 5.40222 14.9623C5.39579 14.9494 5.39306 14.935 5.39436 14.9207C5.39565 14.9064 5.4009 14.8927 5.40953 14.8812C5.46302 14.8108 5.53417 14.7558 5.61578 14.7218C5.69739 14.6878 5.78654 14.676 5.87419 14.6876C5.88436 14.689 5.89415 14.6924 5.903 14.6976C5.91185 14.7028 5.91959 14.7097 5.92578 14.7179C5.93196 14.7261 5.93647 14.7355 5.93905 14.7454C5.94162 14.7553 5.94222 14.7657 5.94079 14.7759C5.93937 14.786 5.93595 14.7958 5.93075 14.8047C5.92554 14.8135 5.91864 14.8213 5.91044 14.8274C5.90224 14.8336 5.89291 14.8381 5.88297 14.8407C5.87303 14.8433 5.86268 14.8439 5.85251 14.8425C5.79215 14.8348 5.73083 14.843 5.67465 14.8664C5.61846 14.8898 5.56938 14.9274 5.53228 14.9757C5.52503 14.9848 5.51579 14.9923 5.50526 14.9974C5.49473 15.0025 5.48318 15.0051 5.47149 15.0051Z" fill="#1B3C47"/>
<path d="M15.9026 15.2963C15.8869 15.2964 15.8716 15.2916 15.8587 15.2828C15.8458 15.2739 15.8358 15.2614 15.8302 15.2468C15.7804 15.1137 15.7672 14.9698 15.7919 14.83C15.8165 14.6901 15.8781 14.5594 15.9703 14.4514C15.9769 14.4433 15.985 14.4365 15.9943 14.4316C16.0035 14.4267 16.0136 14.4237 16.024 14.4228C16.0345 14.4219 16.0449 14.4232 16.0549 14.4264C16.0648 14.4297 16.074 14.435 16.0818 14.4419C16.0897 14.4488 16.096 14.4572 16.1005 14.4666C16.105 14.4761 16.1076 14.4863 16.108 14.4967C16.1085 14.5072 16.1068 14.5176 16.1031 14.5274C16.0994 14.5372 16.0938 14.5461 16.0865 14.5536C16.0125 14.64 15.9629 14.7447 15.943 14.8567C15.923 14.9687 15.9334 15.084 15.9731 15.1906C15.9807 15.2094 15.9806 15.2305 15.9728 15.2492C15.9651 15.268 15.9503 15.2829 15.9316 15.2909C15.9224 15.2946 15.9125 15.2964 15.9026 15.2963Z" fill="#1B3C47"/>
<path d="M16.3281 15.014C16.316 15.0141 16.304 15.0113 16.2932 15.0059C16.2824 15.0006 16.273 14.9927 16.2657 14.9831C16.2287 14.9348 16.1796 14.897 16.1234 14.8736C16.0672 14.8501 16.0059 14.8418 15.9455 14.8495C15.9249 14.8523 15.9041 14.8469 15.8876 14.8344C15.871 14.822 15.8601 14.8034 15.8572 14.7829C15.8543 14.7623 15.8597 14.7415 15.8722 14.7249C15.8847 14.7084 15.9033 14.6975 15.9238 14.6946C16.0114 14.6832 16.1005 14.6951 16.1821 14.7291C16.2636 14.7631 16.3348 14.818 16.3885 14.8882C16.3971 14.8997 16.4023 14.9134 16.4036 14.9277C16.4049 14.942 16.4022 14.9564 16.3958 14.9693C16.3893 14.9821 16.3795 14.993 16.3672 15.0005C16.355 15.0081 16.3409 15.0121 16.3265 15.0121L16.3281 15.014Z" fill="#1B3C47"/>
<path d="M8.58643 20.0428L8.60811 20.0177C8.60153 20.0347 8.59494 20.0517 8.58914 20.0692C8.58681 20.0521 8.58643 20.0428 8.58643 20.0428Z" fill="#C0E5F2"/>
<path d="M11.3803 15.6069C11.3816 15.7363 11.3316 15.8609 11.2411 15.9534C11.1506 16.0459 11.0272 16.0987 10.8978 16.1002C10.6306 16.1002 10.4146 15.7881 10.4146 15.5159L11.3803 15.6069Z" fill="#F4CEAE"/>
<path d="M14.4327 11.167C14.0747 10.4623 13.5396 9.86283 12.8798 9.42752C12.2201 8.99221 11.4584 8.73605 10.6697 8.68422C10.5702 8.6908 10.4718 8.70048 10.3739 8.71287C11.227 8.82401 12.0308 9.17576 12.6914 9.72699L12.8412 9.85748C12.895 9.90627 12.9481 9.95583 12.9992 10.0073C13.3118 10.3196 13.5774 10.6757 13.7876 11.0644C12.7494 10.7729 12.1008 9.97364 12.1008 9.97364C11.2877 10.6706 12.1396 11.0191 12.1396 11.0191L11.3264 11.3289C9.54522 11.7161 9.46778 9.78004 9.46778 9.78004L8.23488 10.6025L7.02832 11.1353C8.30613 11.3289 9.27417 10.206 9.27417 10.206C9.27417 10.5932 9.23274 11.1806 10.2809 11.6C11.4426 12.0646 12.6042 11.0191 12.6042 11.0191C11.9847 10.8255 12.1008 10.4383 12.1008 10.3996C12.6073 11.0253 13.5262 11.2607 13.9227 11.3366C14.1932 11.929 14.3328 12.5727 14.332 13.2239V16.3631C14.332 18.6755 12.6073 20.7208 10.3739 21.0097C10.4718 21.0225 10.5702 21.0321 10.6697 21.0383C13.0445 20.8862 14.9248 18.7298 14.9248 16.317V13.2228C14.9291 12.5281 14.7742 11.715 14.4447 11.1113" fill="#FFB594"/>
<path d="M10.3968 14.7101L10.9002 13.9744L10.4742 13.471C10.4742 13.471 9.85469 13.3161 9.81597 13.3936C9.77725 13.471 9.54492 14.2842 9.54492 14.2842L9.89342 15.0199L10.3968 14.7101Z" fill="#F4CEAE"/>
<path d="M13.703 14.5617C13.703 14.0378 13.2783 13.6131 12.7543 13.6131C12.2304 13.6131 11.8057 14.0378 11.8057 14.5617V14.8843C11.8057 15.4082 12.2304 15.833 12.7543 15.833C13.2783 15.833 13.703 15.4082 13.703 14.8843V14.5617Z" fill="white"/>
<path d="M12.7544 15.2324C13.0106 15.2324 13.2183 15.0247 13.2183 14.7685C13.2183 14.5123 13.0106 14.3047 12.7544 14.3047C12.4982 14.3047 12.2905 14.5123 12.2905 14.7685C12.2905 15.0247 12.4982 15.2324 12.7544 15.2324Z" fill="#274B5B"/>
<path d="M12.622 14.5699C12.805 14.5699 12.9534 14.4215 12.9534 14.2385C12.9534 14.0554 12.805 13.907 12.622 13.907C12.4389 13.907 12.2905 14.0554 12.2905 14.2385C12.2905 14.4215 12.4389 14.5699 12.622 14.5699Z" fill="white"/>
<path d="M12.8573 15.1352C12.9206 15.1352 12.9719 15.0839 12.9719 15.0206C12.9719 14.9573 12.9206 14.906 12.8573 14.906C12.794 14.906 12.7427 14.9573 12.7427 15.0206C12.7427 15.0839 12.794 15.1352 12.8573 15.1352Z" fill="white"/>
<path d="M9.98574 14.5617C9.98574 14.0378 9.561 13.6131 9.03706 13.6131C8.51312 13.6131 8.08838 14.0378 8.08838 14.5617V14.8843C8.08838 15.4082 8.51312 15.833 9.03706 15.833C9.561 15.833 9.98574 15.4082 9.98574 14.8843V14.5617Z" fill="white"/>
<path d="M9.03718 15.9944C8.7599 15.9944 8.49398 15.8843 8.29791 15.6882C8.10185 15.4922 7.9917 15.2262 7.9917 14.949C7.9917 14.9233 8.0019 14.8987 8.02005 14.8805C8.03821 14.8623 8.06283 14.8521 8.0885 14.8521C8.11418 14.8521 8.1388 14.8623 8.15695 14.8805C8.17511 14.8987 8.18531 14.9233 8.18531 14.949C8.18531 15.1749 8.27506 15.3916 8.43482 15.5513C8.59457 15.7111 8.81125 15.8008 9.03718 15.8008C9.26311 15.8008 9.47979 15.7111 9.63955 15.5513C9.79931 15.3916 9.88906 15.1749 9.88906 14.949C9.88906 14.9233 9.89925 14.8987 9.91741 14.8805C9.93556 14.8623 9.96019 14.8521 9.98586 14.8521C10.0115 14.8521 10.0362 14.8623 10.0543 14.8805C10.0725 14.8987 10.0827 14.9233 10.0827 14.949C10.0827 15.2262 9.97251 15.4922 9.77645 15.6882C9.58038 15.8843 9.31446 15.9944 9.03718 15.9944Z" fill="#1B3C47"/>
<path d="M12.754 15.9944C12.4767 15.9944 12.2108 15.8843 12.0147 15.6882C11.8186 15.4922 11.7085 15.2262 11.7085 14.949C11.7085 14.9233 11.7187 14.8987 11.7368 14.8805C11.755 14.8623 11.7796 14.8521 11.8053 14.8521C11.831 14.8521 11.8556 14.8623 11.8738 14.8805C11.8919 14.8987 11.9021 14.9233 11.9021 14.949C11.9021 15.1749 11.9919 15.3916 12.1516 15.5513C12.3114 15.7111 12.528 15.8008 12.754 15.8008C12.9799 15.8008 13.1966 15.7111 13.3563 15.5513C13.5161 15.3916 13.6059 15.1749 13.6059 14.949C13.6059 14.9233 13.6161 14.8987 13.6342 14.8805C13.6524 14.8623 13.677 14.8521 13.7027 14.8521C13.7283 14.8521 13.753 14.8623 13.7711 14.8805C13.7893 14.8987 13.7995 14.9233 13.7995 14.949C13.7995 15.2262 13.6893 15.4922 13.4932 15.6882C13.2972 15.8843 13.0313 15.9944 12.754 15.9944Z" fill="#1B3C47"/>
<path d="M8.99855 15.2324C9.25475 15.2324 9.46244 15.0247 9.46244 14.7685C9.46244 14.5123 9.25475 14.3047 8.99855 14.3047C8.74236 14.3047 8.53467 14.5123 8.53467 14.7685C8.53467 15.0247 8.74236 15.2324 8.99855 15.2324Z" fill="#274B5B"/>
<path d="M8.86564 14.5699C9.04869 14.5699 9.19709 14.4215 9.19709 14.2385C9.19709 14.0554 9.04869 13.907 8.86564 13.907C8.68258 13.907 8.53418 14.0554 8.53418 14.2385C8.53418 14.4215 8.68258 14.5699 8.86564 14.5699Z" fill="white"/>
<path d="M9.10143 15.1352C9.16473 15.1352 9.21605 15.0839 9.21605 15.0206C9.21605 14.9573 9.16473 14.906 9.10143 14.906C9.03813 14.906 8.98682 14.9573 8.98682 15.0206C8.98682 15.0839 9.03813 15.1352 9.10143 15.1352Z" fill="white"/>
<path d="M6.75707 11.1477L8.5189 10.4933C9.10899 10.1244 9.63807 9.66582 10.0871 9.13416L9.55664 9.59882C9.8366 9.43851 9.2004 9.86987 9.46758 9.71498C9.15781 10.7217 10.5131 12.1157 12.12 11.0509C12.12 11.0509 11.5477 10.5831 12.1061 10.0244C12.1061 10.0244 13.3978 11.7091 15.9922 10.896C15.9922 10.896 15.6824 8.88247 13.8625 8.41781L15.1403 7.95315C15.1403 7.95315 12.8557 5.7073 10.4937 7.21744V7.22132C10.4194 7.1468 10.3254 7.09507 10.2227 7.07224C10.2227 7.07224 10.2227 7.66816 9.9245 7.86719C9.9245 7.86719 8.23546 6.54214 6.14876 7.99962C6.14876 7.99962 7.10944 8.09875 7.10944 8.56263C7.10944 8.56263 5.51953 9.12564 5.51953 11.1461L6.33268 11.0687" fill="#B0D7E9"/>
<path d="M10.6679 7.43038C10.6679 7.43038 12.1781 6.26873 14.2303 7.77887C14.2303 7.77887 14.4239 7.89504 14.3852 7.89504C14.3465 7.89504 12.6814 8.51458 12.6814 8.51458C12.6814 8.51458 15.1983 8.63075 15.5856 10.8766H15.9341C15.9341 10.8766 15.6243 8.70819 13.7656 8.43714L15.1596 7.97248C15.1596 7.97248 13.3397 6.0364 10.8615 6.96572L10.5518 7.08189L10.6679 7.43038Z" fill="#E1F4F9"/>
<path d="M9.85469 7.89501C9.85469 7.89501 8.11222 7.12058 6.75696 7.89501C6.75696 7.89501 7.45395 8.0499 7.29907 8.74689C7.29907 8.74689 5.55659 9.44388 5.78892 11.1089L5.44043 11.1476C5.44043 11.1476 5.44043 9.32771 6.98929 8.51456L6.02125 7.97246C6.02125 7.97246 7.95733 6.65592 9.54492 7.74013L9.85469 7.89501Z" fill="#E1F4F9"/>
<path d="M6.33083 11.2638L5.36279 11.2619V11.1457C5.36279 10.0615 5.8139 9.38815 6.19221 9.01371C6.40915 8.79746 6.66185 8.62034 6.93915 8.4902C6.84699 8.24741 6.29947 8.13551 6.09618 8.1146L5.78641 8.08246L6.04197 7.90395C7.15444 7.1272 8.15772 7.13184 8.80359 7.27279C9.18596 7.355 9.54993 7.50687 9.87734 7.7208C10.0303 7.55313 10.0659 7.20619 10.0659 7.07299V6.92933L10.2065 6.95914C10.7424 7.07531 10.8554 7.78701 10.8601 7.8176C10.8647 7.8481 10.8569 7.87917 10.8386 7.90397C10.8203 7.92877 10.7928 7.94527 10.7623 7.94984C10.7318 7.95441 10.7008 7.94667 10.676 7.92834C10.6512 7.91 10.6347 7.88256 10.6301 7.85206C10.6301 7.84277 10.5573 7.40444 10.2882 7.2391C10.2657 7.4513 10.1914 7.8025 9.94859 7.96436L9.8785 8.01121L9.81345 7.95855C9.49227 7.73393 9.1286 7.57726 8.74474 7.49815C7.95907 7.32932 7.17806 7.47685 6.42144 7.9357C6.73896 8.01082 7.18774 8.18391 7.18774 8.56261V8.64469L7.1103 8.67219C6.82545 8.79146 6.56729 8.96641 6.35097 9.1868C5.87547 9.66114 5.623 10.2807 5.59977 11.0299H6.33548C6.36629 11.0299 6.39583 11.0422 6.41762 11.064C6.43941 11.0858 6.45164 11.1153 6.45164 11.1461C6.45164 11.1769 6.43941 11.2065 6.41762 11.2283C6.39583 11.25 6.36629 11.2623 6.33548 11.2623L6.33083 11.2638Z" fill="#1B3C47"/>
<path d="M9.77709 9.5214C9.77709 9.5214 9.38988 11.7285 11.9068 10.9541L12.0307 11.109C12.0307 11.109 11.5114 11.6042 10.9 11.4962C10.0094 11.3413 8.92522 10.412 9.77709 9.5214Z" fill="#54B9D3"/>
<path d="M13.9178 8.96493C14.0403 9.02161 14.1543 9.09497 14.2566 9.18293C14.334 9.25224 14.3728 9.30916 14.3561 9.33123C14.3232 9.37615 14.1017 9.27005 13.833 9.14343C13.5643 9.01681 13.3428 8.9111 13.3571 8.85689C13.3645 8.83095 13.4318 8.82398 13.5348 8.84024C13.6677 8.86384 13.7965 8.9058 13.9178 8.96493Z" fill="#E5F5FA"/>
<path d="M14.917 9.70761C14.985 9.79715 15.0381 9.89704 15.0742 10.0034C15.1006 10.0848 15.1037 10.1413 15.0797 10.1548C15.0557 10.1684 15.0096 10.1355 14.953 10.0735C14.8965 10.0116 14.8307 9.92174 14.7594 9.82687C14.6882 9.732 14.6208 9.64991 14.572 9.58486C14.5232 9.51981 14.4965 9.47218 14.5124 9.44934C14.5283 9.42649 14.5856 9.43578 14.663 9.47876C14.7625 9.53679 14.849 9.61469 14.917 9.70761Z" fill="#E5F5FA"/>
<path d="M15.2967 10.3787C15.3277 10.4627 15.2967 10.5421 15.2441 10.5522C15.1914 10.5622 15.136 10.5134 15.1113 10.4472C15.0865 10.381 15.0965 10.3086 15.1438 10.2811C15.191 10.2536 15.2658 10.2947 15.2967 10.3787Z" fill="#E5F5FA"/>
<path d="M13.1276 8.05542C13.2496 8.00701 13.3646 8.0194 13.3797 8.07168C13.3948 8.12395 13.3131 8.19481 13.2004 8.23934C13.0877 8.28387 12.9797 8.28891 12.9549 8.23934C12.9301 8.18978 13.0052 8.10382 13.1276 8.05542Z" fill="#E5F5FA"/>
<path d="M13.6675 7.8877C13.7341 7.86834 13.8004 7.89506 13.8159 7.94733C13.8313 7.99961 13.7895 8.05808 13.7233 8.07744C13.6571 8.0968 13.5905 8.07008 13.575 8.01781C13.5595 7.96553 13.6013 7.90706 13.6675 7.8877Z" fill="#E5F5FA"/>
<path d="M11.614 7.15704C11.788 7.12438 11.966 7.11838 12.1418 7.13923C12.2762 7.15743 12.3559 7.19073 12.3536 7.21667C12.3478 7.27282 12.0287 7.28095 11.6493 7.35142C11.2698 7.4219 10.9674 7.52257 10.9422 7.47185C10.931 7.44784 10.9941 7.38898 11.1137 7.3247C11.2711 7.24391 11.4398 7.18738 11.614 7.15704Z" fill="#E5F5FA"/>
<path d="M12.7108 7.19767C12.7286 7.20485 12.744 7.21708 12.7551 7.23286C12.7661 7.24865 12.7723 7.2673 12.7729 7.28655C12.7735 7.3058 12.7685 7.32481 12.7585 7.34125C12.7485 7.3577 12.7339 7.37086 12.7165 7.37915C12.6991 7.38743 12.6797 7.39047 12.6606 7.3879C12.6415 7.38532 12.6236 7.37724 12.609 7.36465C12.5944 7.35205 12.5839 7.33549 12.5785 7.31697C12.5732 7.29846 12.5734 7.2788 12.5791 7.2604C12.5883 7.23467 12.6073 7.21363 12.632 7.20187C12.6567 7.19012 12.685 7.18861 12.7108 7.19767Z" fill="#E5F5FA"/>
<path d="M10.0537 10.2253C10.084 10.3284 10.125 10.4281 10.176 10.5227C10.2148 10.5951 10.2465 10.6389 10.2365 10.6493C10.2264 10.6598 10.1776 10.6311 10.1203 10.5626C10.0463 10.4714 9.99192 10.3659 9.96037 10.2528C9.92852 10.1428 9.91044 10.0293 9.90655 9.91478C9.90345 9.82805 9.90964 9.77384 9.9232 9.77229C9.93675 9.77074 9.95495 9.82185 9.97547 9.9051C9.99599 9.98836 10.0177 10.1041 10.0537 10.2253Z" fill="#6AC2D9"/>
<path d="M10.9655 10.8851C11.1002 10.8855 11.2348 10.8739 11.3674 10.8503C11.4712 10.8336 11.537 10.8236 11.5413 10.8371C11.5455 10.8507 11.4871 10.8832 11.3845 10.918C11.2489 10.9637 11.1066 10.986 10.9636 10.9843C10.8184 10.9831 10.6755 10.9478 10.5465 10.8813C10.4486 10.8278 10.4033 10.7744 10.411 10.7651C10.4187 10.7558 10.4776 10.7845 10.5748 10.8178C10.7008 10.8603 10.8326 10.883 10.9655 10.8851Z" fill="#6AC2D9"/>
<path d="M13.8627 13.1031C13.8412 13.1031 13.8202 13.0972 13.8019 13.086C12.6813 12.3991 11.6462 13.0558 11.6029 13.0841C11.5773 13.098 11.5473 13.1018 11.519 13.0947C11.4908 13.0876 11.4662 13.0702 11.4502 13.0458C11.4342 13.0214 11.428 12.9919 11.4327 12.9631C11.4375 12.9343 11.4529 12.9084 11.4759 12.8905C11.5243 12.8587 12.6762 12.123 13.9234 12.8885C13.9451 12.9018 13.9618 12.9217 13.971 12.9453C13.9803 12.9689 13.9816 12.9948 13.9747 13.0192C13.9678 13.0436 13.9531 13.0651 13.9329 13.0804C13.9127 13.0956 13.888 13.1039 13.8627 13.1038V13.1031Z" fill="#1B3C47"/>
<path d="M10.2616 13.1031C10.2401 13.1031 10.2191 13.0972 10.2008 13.086C9.08019 12.3991 8.04516 13.0558 8.00179 13.0841C7.97618 13.098 7.94626 13.1018 7.91797 13.0947C7.88969 13.0876 7.86511 13.0702 7.84911 13.0458C7.83312 13.0214 7.82688 12.9919 7.83163 12.9631C7.83639 12.9343 7.85179 12.9084 7.87478 12.8905C7.92318 12.8587 9.07515 12.123 10.3224 12.8885C10.344 12.9018 10.3607 12.9217 10.37 12.9453C10.3792 12.9689 10.3805 12.9948 10.3736 13.0192C10.3667 13.0436 10.352 13.0651 10.3318 13.0804C10.3116 13.0956 10.2869 13.1039 10.2616 13.1038V13.1031Z" fill="#1B3C47"/>
<g opacity="0.5">
<path d="M14.4659 13.6019L11.5889 15.6541V14.4855L13.0661 13.4323H14.0922C14.1632 13.4307 14.2337 13.4451 14.2984 13.4745C14.3631 13.5038 14.4203 13.5474 14.4659 13.6019Z" fill="white"/>
<path d="M14.5404 14.0994V14.7294L12.5068 16.1814H12.0375C11.9337 16.1823 11.8322 16.1509 11.7471 16.0916L14.5404 14.0994Z" fill="white"/>
</g>
<path opacity="0.3" d="M14.0941 13.4129H11.8959C11.688 13.4129 11.5195 13.5814 11.5195 13.7893V15.7857C11.5195 15.9936 11.688 16.1621 11.8959 16.1621H14.0941C14.302 16.1621 14.4705 15.9936 14.4705 15.7857V13.7893C14.4705 13.5814 14.302 13.4129 14.0941 13.4129Z" fill="white"/>
<path opacity="0.3" d="M9.91249 13.4517H7.71426C7.5064 13.4517 7.33789 13.6202 7.33789 13.828V15.8245C7.33789 16.0324 7.5064 16.2009 7.71426 16.2009H9.91249C10.1204 16.2009 10.2889 16.0324 10.2889 15.8245V13.828C10.2889 13.6202 10.1204 13.4517 9.91249 13.4517Z" fill="white"/>
<path d="M7.52397 10.609C7.95223 10.4654 8.28253 10.3016 8.29647 10.3271C8.31041 10.3527 7.99405 10.5556 7.55534 10.7027C7.11662 10.8499 6.74218 10.8793 6.73831 10.8537C6.73444 10.8282 7.0961 10.755 7.52397 10.609Z" fill="#6AC2D9"/>
<path d="M8.74104 9.94383C8.86302 9.84587 8.97337 9.77849 8.99157 9.7994C9.00977 9.82031 8.92691 9.92137 8.803 10.0209C8.67909 10.1204 8.56215 10.1796 8.54627 10.1576C8.5304 10.1355 8.61907 10.0441 8.74104 9.94383Z" fill="#6AC2D9"/>
<path d="M9.49461 9.2608C9.68821 9.08966 9.87408 8.98975 9.88879 9.01105C9.90351 9.03235 9.74862 9.16826 9.56005 9.33515C9.37147 9.50204 9.21852 9.63989 9.19761 9.6213C9.1767 9.60272 9.30022 9.43195 9.49461 9.2608Z" fill="#6AC2D9"/>
<path d="M6.89349 10.5726C7.21798 10.5026 7.47432 10.4069 7.48439 10.4332C7.49445 10.4596 7.25206 10.5963 6.9144 10.6691C6.57675 10.7419 6.29718 10.719 6.29834 10.6931C6.29951 10.6671 6.56939 10.6447 6.89349 10.5726Z" fill="#6AC2D9"/>
<path opacity="0.5" d="M10.9 14.3976V16.6849C10.9 16.6849 10.2847 16.3941 10.2847 15.8427C10.2847 15.2913 10.3191 14.439 10.3191 14.439L10.7904 14.3136C10.8033 14.3101 10.8168 14.3096 10.8299 14.3121C10.843 14.3147 10.8554 14.3203 10.866 14.3284C10.8766 14.3365 10.8852 14.347 10.8911 14.359C10.897 14.371 10.9 14.3842 10.9 14.3976Z" fill="#FCEADE"/>
<path d="M11.4811 14.5939C11.4689 14.5939 11.4567 14.5919 11.4451 14.5881C10.8155 14.3821 10.388 14.5804 10.3837 14.5827C10.37 14.5893 10.355 14.5931 10.3398 14.5939C10.3245 14.5947 10.3092 14.5925 10.2948 14.5874C10.2804 14.5823 10.2672 14.5745 10.2558 14.5642C10.2445 14.554 10.2352 14.5417 10.2287 14.5279C10.2221 14.5141 10.2183 14.4992 10.2174 14.4839C10.2166 14.4687 10.2188 14.4534 10.2239 14.439C10.229 14.4246 10.2369 14.4114 10.2471 14.4C10.2573 14.3886 10.2697 14.3794 10.2834 14.3728C10.3044 14.3631 10.8004 14.1324 11.5171 14.3674C11.5433 14.376 11.5656 14.3937 11.58 14.4173C11.5944 14.4408 11.5999 14.4687 11.5956 14.496C11.5912 14.5233 11.5773 14.5481 11.5564 14.566C11.5354 14.584 11.5087 14.5939 11.4811 14.5939Z" fill="#1B3C47"/>
<path d="M10.898 16.7623C10.756 16.7611 10.6203 16.7035 10.5207 16.6023C10.4211 16.5011 10.3657 16.3645 10.3667 16.2225C10.3667 16.1917 10.379 16.1621 10.4007 16.1404C10.4225 16.1186 10.4521 16.1063 10.4829 16.1063C10.5137 16.1063 10.5432 16.1186 10.565 16.1404C10.5868 16.1621 10.599 16.1917 10.599 16.2225C10.5976 16.2626 10.6043 16.3027 10.6186 16.3402C10.633 16.3777 10.6548 16.4119 10.6826 16.4408C10.7105 16.4697 10.7439 16.4927 10.7809 16.5084C10.8179 16.5241 10.8576 16.5322 10.8978 16.5322C10.9379 16.5322 10.9777 16.5241 11.0147 16.5084C11.0516 16.4927 11.085 16.4697 11.1129 16.4408C11.1408 16.4119 11.1626 16.3777 11.1769 16.3402C11.1913 16.3027 11.198 16.2626 11.1965 16.2225C11.1965 16.1917 11.2088 16.1621 11.2305 16.1404C11.2523 16.1186 11.2819 16.1063 11.3127 16.1063C11.3435 16.1063 11.373 16.1186 11.3948 16.1404C11.4166 16.1621 11.4288 16.1917 11.4288 16.2225C11.4299 16.3644 11.3746 16.501 11.275 16.6022C11.1755 16.7034 11.0399 16.761 10.898 16.7623Z" fill="#1B3C47"/>
<g opacity="0.3">
<path d="M10.2851 13.6019L7.42627 15.6541V14.4855L8.89343 13.4323H9.91297C9.98377 13.4307 10.054 13.4451 10.1185 13.4745C10.1829 13.5038 10.2399 13.5474 10.2851 13.6019Z" fill="white"/>
<path d="M10.3585 14.0994V14.7294L8.33799 16.1814H7.87334C7.77004 16.1823 7.66906 16.1509 7.58447 16.0916L10.3585 14.0994Z" fill="white"/>
</g>
<path d="M9.91317 16.2589H7.73392C7.60846 16.2588 7.48816 16.2089 7.39945 16.1202C7.31073 16.0315 7.26084 15.9112 7.26074 15.7857V13.7892C7.26084 13.6638 7.31073 13.5435 7.39945 13.4548C7.48816 13.366 7.60846 13.3162 7.73392 13.3161H9.91317C10.0387 13.3162 10.159 13.366 10.2478 13.4547C10.3366 13.5434 10.3865 13.6637 10.3867 13.7892V15.7857C10.3865 15.9112 10.3366 16.0315 10.2478 16.1202C10.159 16.2089 10.0387 16.2588 9.91317 16.2589ZM7.73392 13.5097C7.6598 13.5098 7.58875 13.5393 7.53635 13.5917C7.48394 13.6441 7.45445 13.7151 7.45435 13.7892V15.7857C7.45445 15.8598 7.48394 15.9309 7.53635 15.9833C7.58875 16.0357 7.6598 16.0652 7.73392 16.0653H9.91317C9.98732 16.0652 10.0584 16.0357 10.1109 15.9833C10.1633 15.9309 10.1929 15.8599 10.1931 15.7857V13.7892C10.1929 13.7151 10.1633 13.644 10.1109 13.5916C10.0584 13.5392 9.98732 13.5098 9.91317 13.5097H7.73392Z" fill="#1B3C47"/>
<path d="M10.891 11.545C10.8627 11.545 10.8348 11.545 10.8069 11.543C10.4581 11.528 10.1257 11.3909 9.86754 11.1558C9.42302 10.7516 9.23522 10.0964 9.44161 9.66425C9.44767 9.64979 9.45661 9.6367 9.46787 9.62578C9.47913 9.61486 9.49249 9.60634 9.50714 9.60072C9.52178 9.5951 9.53741 9.59251 9.55309 9.5931C9.56876 9.59369 9.58416 9.59745 9.59834 9.60415C9.61253 9.61085 9.62521 9.62035 9.63562 9.63208C9.64603 9.64381 9.65396 9.65753 9.65892 9.67241C9.66389 9.68729 9.66579 9.70302 9.66451 9.71866C9.66323 9.73429 9.6588 9.74951 9.65148 9.76338C9.51131 10.0596 9.61276 10.6102 10.0255 10.9839C10.3008 11.2344 10.9026 11.5601 11.8962 11.0226C11.7872 10.8932 11.7216 10.7328 11.7088 10.5641C11.6979 10.3465 11.7916 10.1382 11.9868 9.9415L12.0789 9.8505L12.1595 9.95583C12.1626 9.9597 12.4801 10.3651 13.0992 10.6679C13.9016 11.0606 14.8162 11.1105 15.8187 10.8174C15.7281 10.417 15.2913 8.91422 13.7951 8.53281L13.4303 8.43949L14.8793 7.91288C14.4967 7.59082 14.0697 7.32557 13.6115 7.12528C12.5018 6.64978 11.4605 6.71444 10.5177 7.31889C10.4917 7.33552 10.4602 7.34116 10.43 7.33455C10.3999 7.32794 10.3736 7.30963 10.357 7.28365C10.3403 7.25767 10.3347 7.22614 10.3413 7.19601C10.3479 7.16587 10.3662 7.13959 10.3922 7.12296C11.392 6.48405 12.5393 6.41241 13.7099 6.9158C14.2508 7.14994 14.7483 7.47383 15.1813 7.87377L15.3126 8.00271L14.1815 8.41122C14.8073 8.65672 15.3188 9.12293 15.6731 9.77577C15.8618 10.1203 15.9952 10.4923 16.0684 10.8782L16.0835 10.9769L15.9883 11.0067C14.6113 11.4385 13.5957 11.1701 12.9862 10.8693C12.6424 10.702 12.3311 10.475 12.0665 10.199C11.9826 10.2973 11.9375 10.4229 11.9395 10.5521C11.9512 10.7872 12.1529 10.9579 12.1548 10.9599L12.283 11.0648L12.1409 11.1496C11.7014 11.4125 11.2813 11.545 10.891 11.545Z" fill="#1B3C47"/>
<path d="M6.69038 11.2236C6.65957 11.2241 6.62982 11.2123 6.60767 11.1909C6.58553 11.1695 6.5728 11.1401 6.57228 11.1093C6.57177 11.0785 6.58351 11.0488 6.60494 11.0266C6.62636 11.0045 6.6557 10.9918 6.68651 10.9912C8.36432 10.9308 9.99527 9.08459 10.0115 9.066C10.0214 9.05388 10.0335 9.04386 10.0473 9.03655C10.0611 9.02923 10.0762 9.02477 10.0918 9.02342C10.1073 9.02207 10.123 9.02387 10.1378 9.02871C10.1526 9.03355 10.1663 9.04133 10.1781 9.05159C10.1899 9.06184 10.1994 9.07436 10.2063 9.08839C10.2131 9.10243 10.217 9.1177 10.2178 9.13328C10.2186 9.14886 10.2162 9.16445 10.2109 9.1791C10.2055 9.19375 10.1972 9.20717 10.1866 9.21856C9.86203 9.57545 9.50546 9.90182 9.12132 10.1936C8.26093 10.8499 7.44468 11.1965 6.69503 11.2236H6.69038Z" fill="#1B3C47"/>
<path d="M6.8906 12.4805C6.91715 12.3346 6.97045 12.1947 7.04781 12.0681C7.11054 11.9717 7.1725 11.9245 7.20967 11.9404C7.24684 11.9562 7.25497 12.0314 7.24568 12.1378C7.23639 12.2443 7.2116 12.3845 7.18179 12.5375C7.15197 12.6904 7.12293 12.8286 7.09157 12.9312C7.0602 13.0339 7.02574 13.1001 6.98431 13.1012C6.94288 13.1024 6.90415 13.035 6.88208 12.922C6.8577 12.7755 6.86059 12.6259 6.8906 12.4805Z" fill="white"/>
<path d="M7.92999 11.4195C8.18516 11.3273 8.41207 11.2878 8.44885 11.3614C8.48564 11.435 8.30442 11.5992 8.03105 11.6983C7.75767 11.7974 7.51295 11.7873 7.49437 11.7084C7.47578 11.6294 7.67481 11.5128 7.92999 11.4195Z" fill="white"/>
<path d="M8.8165 10.9394C8.89201 10.87 8.99694 10.8522 9.05812 10.9064C9.1193 10.9607 9.10498 11.0772 9.01747 11.1577C8.92996 11.2383 8.81224 11.2429 8.76384 11.1775C8.71544 11.1121 8.74138 11.0087 8.8165 10.9394Z" fill="white"/>
<path d="M6.14824 9.82227C6.18396 9.74839 6.22941 9.67963 6.28338 9.61782C6.32764 9.56753 6.37889 9.52384 6.43556 9.4881C6.53352 9.42808 6.61058 9.42111 6.63381 9.45325C6.65704 9.48539 6.63032 9.55161 6.58425 9.63563C6.56179 9.67668 6.53468 9.72469 6.50448 9.77851C6.47428 9.83234 6.44562 9.88887 6.41581 9.95005C6.38599 10.0112 6.36121 10.0716 6.33836 10.127L6.27757 10.2788C6.23885 10.3671 6.20865 10.4298 6.16644 10.4317C6.12423 10.4337 6.08396 10.3698 6.06925 10.2556C6.06138 10.1891 6.0632 10.1217 6.07467 10.0558C6.08866 9.97499 6.1134 9.89647 6.14824 9.82227Z" fill="white"/>
<path d="M7.0976 9.14535C7.16428 9.11993 7.23462 9.10541 7.30592 9.10237C7.36633 9.10237 7.41473 9.11592 7.43525 9.15154C7.45578 9.18717 7.44338 9.23751 7.40118 9.28939C7.34546 9.35025 7.27577 9.39664 7.19813 9.42457C7.12048 9.4525 7.03721 9.46112 6.95549 9.4497C6.89005 9.43692 6.84785 9.40556 6.83933 9.36529C6.83081 9.32502 6.86101 9.2832 6.90748 9.24525C6.96501 9.20185 7.02922 9.16811 7.0976 9.14535Z" fill="white"/>
<path d="M7.79462 7.80447C7.87734 7.79295 7.96163 7.8035 8.03896 7.83506C8.10014 7.86256 8.13421 7.90283 8.1315 7.9431C8.12879 7.98337 8.09084 8.0186 8.03663 8.04455C7.9039 8.10023 7.75824 8.11767 7.61612 8.09489C7.55726 8.08211 7.51273 8.05616 7.49995 8.01744C7.48717 7.97872 7.51118 7.93187 7.56423 7.89044C7.632 7.84178 7.71154 7.8121 7.79462 7.80447Z" fill="white"/>
<path d="M7.11678 17.0528C7.14952 17.1491 7.17401 17.2481 7.18996 17.3486C7.20081 17.4299 7.19461 17.4915 7.15899 17.5124C7.12336 17.5333 7.06489 17.5073 7.0041 17.4419C6.92705 17.3556 6.86971 17.2536 6.83605 17.143C6.79918 17.0333 6.78688 16.9168 6.80004 16.8018C6.8132 16.712 6.84612 16.657 6.88677 16.6535C6.92743 16.6501 6.96848 16.6961 7.0072 16.7697C7.05146 16.8609 7.08811 16.9555 7.11678 17.0528Z" fill="white"/>
<path d="M14.0943 16.2589H11.896C11.7706 16.2588 11.6503 16.2089 11.5616 16.1202C11.4728 16.0315 11.423 15.9112 11.4229 15.7857V13.7892C11.423 13.6638 11.4728 13.5435 11.5616 13.4548C11.6503 13.366 11.7706 13.3162 11.896 13.3161H14.0943C14.2197 13.3162 14.34 13.366 14.4287 13.4548C14.5174 13.5435 14.5673 13.6638 14.5674 13.7892V15.7857C14.5673 15.9112 14.5174 16.0315 14.4287 16.1202C14.34 16.2089 14.2197 16.2588 14.0943 16.2589ZM11.896 13.5097C11.8219 13.5098 11.7509 13.5393 11.6985 13.5917C11.646 13.6441 11.6166 13.7151 11.6165 13.7892V15.7857C11.6166 15.8598 11.646 15.9309 11.6985 15.9833C11.7509 16.0357 11.8219 16.0652 11.896 16.0653H14.0943C14.1684 16.0652 14.2394 16.0357 14.2918 15.9833C14.3442 15.9309 14.3737 15.8598 14.3738 15.7857V13.7892C14.3737 13.7151 14.3442 13.6441 14.2918 13.5917C14.2394 13.5393 14.1684 13.5098 14.0943 13.5097H11.896Z" fill="#1B3C47"/>
<path d="M7.38323 24.4655L5.25539 24.5011C5.02724 24.505 4.84538 24.693 4.84921 24.9212L4.84921 24.9216C4.85304 25.1497 5.04109 25.3316 5.26924 25.3277L7.39708 25.2921C7.62523 25.2883 7.80708 25.1002 7.80326 24.8721L7.80325 24.8717C7.79943 24.6435 7.61137 24.4617 7.38323 24.4655Z" fill="white"/>
<path d="M7.80024 24.8745V24.8815C7.80016 24.9898 7.75756 25.0938 7.6816 25.1711C7.60564 25.2483 7.50239 25.2927 7.39405 25.2946L5.26437 25.3299C5.21011 25.3308 5.1562 25.321 5.10572 25.3011C5.05524 25.2812 5.00918 25.2515 4.97016 25.2138C4.93115 25.1761 4.89995 25.131 4.87834 25.0813C4.85673 25.0315 4.84515 24.9779 4.84424 24.9237V24.9132C4.84424 24.9062 4.84424 25.1316 4.84424 25.1246L6.76289 25.0859C7.26627 25.0859 7.41148 24.8923 7.38708 24.4664C7.49576 24.4665 7.60004 24.5093 7.67736 24.5857C7.75467 24.6621 7.79882 24.7658 7.80024 24.8745Z" fill="#CFD2E8"/>
<path d="M11.3752 18.2338H9.93208C9.90127 18.2338 9.87173 18.2215 9.84994 18.1997C9.82816 18.178 9.81592 18.1484 9.81592 18.1176C9.81592 18.0868 9.82816 18.0572 9.84994 18.0355C9.87173 18.0137 9.90127 18.0014 9.93208 18.0014H11.3752C11.5163 18.0019 11.6561 17.9743 11.7864 17.9203C11.9167 17.8663 12.0351 17.787 12.1346 17.687C12.1566 17.6665 12.1857 17.6553 12.2158 17.6559C12.2459 17.6564 12.2746 17.6686 12.2959 17.6899C12.3172 17.7111 12.3294 17.7399 12.3299 17.77C12.3304 17.8 12.3193 17.8292 12.2987 17.8512C12.1778 17.9729 12.0338 18.0693 11.8753 18.135C11.7168 18.2006 11.5468 18.2342 11.3752 18.2338Z" fill="#1B3C47"/>
<path d="M29.0221 8.04994C28.9149 8.04994 28.8101 8.01814 28.7209 7.95858C28.6318 7.89901 28.5623 7.81434 28.5212 7.71529C28.4802 7.61623 28.4695 7.50723 28.4904 7.40208C28.5113 7.29692 28.5629 7.20033 28.6388 7.12451C28.7146 7.0487 28.8112 6.99707 28.9163 6.97615C29.0215 6.95523 29.1305 6.96597 29.2295 7.007C29.3286 7.04803 29.4133 7.11751 29.4728 7.20666C29.5324 7.29581 29.5642 7.40062 29.5642 7.50783C29.5642 7.65161 29.5071 7.78949 29.4054 7.89116C29.3037 7.99282 29.1659 8.04994 29.0221 8.04994ZM29.0221 7.19806C28.9608 7.19806 28.9009 7.21623 28.85 7.25027C28.799 7.28431 28.7593 7.33269 28.7359 7.38929C28.7124 7.44589 28.7063 7.50818 28.7183 7.56827C28.7302 7.62836 28.7597 7.68355 28.803 7.72688C28.8464 7.7702 28.9016 7.7997 28.9616 7.81166C29.0217 7.82361 29.084 7.81747 29.1406 7.79403C29.1972 7.77058 29.2456 7.73088 29.2796 7.67994C29.3137 7.62899 29.3319 7.5691 29.3319 7.50783C29.3319 7.42568 29.2992 7.34689 29.2411 7.28879C29.183 7.2307 29.1042 7.19806 29.0221 7.19806Z" fill="#F2BF46"/>
<path d="M28.4799 9.018C28.6082 9.018 28.7122 8.91398 28.7122 8.78567C28.7122 8.65735 28.6082 8.55334 28.4799 8.55334C28.3516 8.55334 28.2476 8.65735 28.2476 8.78567C28.2476 8.91398 28.3516 9.018 28.4799 9.018Z" fill="#B0D7E9"/>
<path d="M10.5519 5.45561C10.4447 5.45561 10.3398 5.42381 10.2507 5.36425C10.1615 5.30468 10.0921 5.22001 10.051 5.12096C10.01 5.0219 9.99927 4.9129 10.0202 4.80775C10.0411 4.70259 10.0927 4.606 10.1685 4.53018C10.2444 4.45437 10.341 4.40274 10.4461 4.38182C10.5513 4.3609 10.6603 4.37164 10.7593 4.41267C10.8584 4.4537 10.943 4.52318 11.0026 4.61233C11.0622 4.70148 11.094 4.80629 11.094 4.91351C11.094 5.05728 11.0369 5.19517 10.9352 5.29683C10.8335 5.39849 10.6956 5.45561 10.5519 5.45561ZM10.5519 4.60373C10.4906 4.60373 10.4307 4.6219 10.3798 4.65594C10.3288 4.68998 10.2891 4.73836 10.2657 4.79496C10.2422 4.85156 10.2361 4.91385 10.248 4.97394C10.26 5.03403 10.2895 5.08922 10.3328 5.13255C10.3761 5.17587 10.4313 5.20537 10.4914 5.21733C10.5515 5.22928 10.6138 5.22314 10.6704 5.1997C10.727 5.17625 10.7754 5.13655 10.8094 5.08561C10.8435 5.03466 10.8616 4.97477 10.8616 4.91351C10.8616 4.83135 10.829 4.75256 10.7709 4.69446C10.7128 4.63637 10.634 4.60373 10.5519 4.60373Z" fill="#F2BF46"/>
<path d="M9.46768 6.26875C9.59599 6.26875 9.70001 6.16473 9.70001 6.03642C9.70001 5.90811 9.59599 5.80409 9.46768 5.80409C9.33937 5.80409 9.23535 5.90811 9.23535 6.03642C9.23535 6.16473 9.33937 6.26875 9.46768 6.26875Z" fill="#B0D7E9"/>
<path d="M19.4033 31.0672C19.3023 31.1033 19.1929 31.1086 19.0889 31.0825C18.9849 31.0565 18.891 31.0001 18.819 30.9207C18.7471 30.8412 18.7003 30.7422 18.6846 30.6362C18.6689 30.5301 18.6849 30.4218 18.7308 30.3249C18.7767 30.228 18.8502 30.1468 18.9422 30.0917C19.0341 30.0366 19.1404 30.01 19.2475 30.0153C19.3545 30.0206 19.4576 30.0575 19.5438 30.1213C19.6299 30.1852 19.6951 30.2732 19.7312 30.3741C19.7552 30.4411 19.7658 30.5123 19.7623 30.5834C19.7588 30.6545 19.7413 30.7242 19.7108 30.7886C19.6804 30.853 19.6375 30.9107 19.5848 30.9585C19.532 31.0063 19.4703 31.0433 19.4033 31.0672ZM19.1167 30.2649C19.059 30.2856 19.0088 30.3228 18.9723 30.372C18.9358 30.4213 18.9147 30.4802 18.9117 30.5414C18.9087 30.6025 18.9239 30.6632 18.9554 30.7158C18.9869 30.7683 19.0333 30.8104 19.0886 30.8366C19.144 30.8628 19.2059 30.872 19.2665 30.863C19.3271 30.854 19.3837 30.8273 19.4291 30.7861C19.4745 30.745 19.5067 30.6913 19.5216 30.6319C19.5365 30.5725 19.5334 30.51 19.5128 30.4523C19.4991 30.414 19.478 30.3787 19.4507 30.3486C19.4234 30.3184 19.3904 30.2939 19.3536 30.2765C19.3168 30.2591 19.277 30.2491 19.2363 30.2472C19.1957 30.2452 19.155 30.2512 19.1167 30.2649Z" fill="#F2BF46"/>
<path d="M4.28946 21.2145C4.41777 21.2145 4.52179 21.1104 4.52179 20.9821C4.52179 20.8538 4.41777 20.7498 4.28946 20.7498C4.16115 20.7498 4.05713 20.8538 4.05713 20.9821C4.05713 21.1104 4.16115 21.2145 4.28946 21.2145Z" fill="#B0D7E9"/>
<path d="M5.82288 31.3023C5.81015 31.3023 5.79754 31.2998 5.78577 31.295C5.77401 31.2902 5.76331 31.283 5.75431 31.274C5.74531 31.265 5.73819 31.2543 5.73334 31.2426C5.72849 31.2308 5.72602 31.2182 5.72607 31.2055V25.3198C5.72607 25.2941 5.73627 25.2695 5.75443 25.2513C5.77258 25.2332 5.7972 25.223 5.82288 25.223C5.84855 25.223 5.87318 25.2332 5.89133 25.2513C5.90948 25.2695 5.91968 25.2941 5.91968 25.3198V31.2055C5.91968 31.2311 5.90948 31.2558 5.89133 31.2739C5.87318 31.2921 5.84855 31.3023 5.82288 31.3023Z" fill="#1B3C47"/>
<path d="M5.26063 25.4247C5.12538 25.4258 4.99524 25.3731 4.89884 25.2782C4.80244 25.1833 4.74768 25.0541 4.7466 24.9188C4.74552 24.7836 4.79821 24.6534 4.89309 24.557C4.98796 24.4606 5.11724 24.4059 5.2525 24.4048L7.38218 24.3692C7.5156 24.3698 7.64344 24.4228 7.73832 24.5166C7.8332 24.6104 7.88757 24.7376 7.8898 24.871C7.89203 25.0044 7.84193 25.1333 7.75023 25.2303C7.65854 25.3272 7.53254 25.3843 7.39922 25.3895L5.27147 25.4247H5.26063ZM7.38876 24.5647H7.38334L5.25559 24.6003C5.19346 24.6019 5.13317 24.6217 5.08221 24.6573C5.03126 24.6928 4.99189 24.7426 4.96903 24.8004C4.94616 24.8582 4.9408 24.9214 4.95361 24.9823C4.96642 25.0431 4.99684 25.0988 5.04108 25.1424C5.07076 25.1716 5.10601 25.1945 5.14473 25.2097C5.18345 25.2249 5.22484 25.2322 5.26644 25.2311L7.39419 25.1959C7.47626 25.1924 7.55377 25.1571 7.61035 25.0976C7.66694 25.038 7.69817 24.9588 7.69747 24.8767C7.69677 24.7945 7.66418 24.7159 7.60658 24.6573C7.54898 24.5987 7.47088 24.5648 7.38876 24.5628V24.5647Z" fill="#1B3C47"/>
<path d="M7.53134 14.7294C7.50518 14.7293 7.47981 14.7205 7.45932 14.7042L5.32963 13.0183C5.30703 12.9987 5.29285 12.9711 5.29006 12.9413C5.28726 12.9116 5.29607 12.8818 5.31463 12.8584C5.33319 12.8349 5.36009 12.8196 5.38972 12.8154C5.41934 12.8113 5.44942 12.8188 5.47368 12.8363L7.60336 14.5222C7.62224 14.5372 7.63599 14.5577 7.64271 14.5808C7.64943 14.6039 7.64879 14.6286 7.64088 14.6514C7.63296 14.6741 7.61817 14.6939 7.59855 14.7078C7.57892 14.7218 7.55543 14.7293 7.53134 14.7294Z" fill="#1B3C47"/>
<path d="M14.1917 14.7294C14.1676 14.7293 14.1441 14.7218 14.1245 14.7078C14.1048 14.6939 14.09 14.6741 14.0821 14.6514C14.0742 14.6286 14.0736 14.6039 14.0803 14.5808C14.087 14.5577 14.1008 14.5372 14.1196 14.5222L16.2493 12.8363C16.2736 12.8188 16.3037 12.8113 16.3333 12.8154C16.3629 12.8196 16.3898 12.8349 16.4084 12.8584C16.4269 12.8818 16.4357 12.9116 16.4329 12.9413C16.4301 12.9711 16.416 12.9987 16.3934 13.0183L14.2637 14.7042C14.2432 14.7205 14.2178 14.7293 14.1917 14.7294Z" fill="#1B3C47"/>
<path d="M9.15283 20.7099V21.0731C9.15283 21.3062 9.19874 21.537 9.28795 21.7524C9.37715 21.9677 9.50789 22.1634 9.67272 22.3282C9.83754 22.4931 10.0332 22.6238 10.2486 22.713C10.4639 22.8022 10.6947 22.8481 10.9278 22.8481C11.1609 22.8481 11.3917 22.8022 11.6071 22.713C11.8224 22.6238 12.0181 22.4931 12.1829 22.3282C12.3478 22.1634 12.4785 21.9677 12.5677 21.7524C12.6569 21.537 12.7028 21.3062 12.7028 21.0731V20.7099L10.9755 21.0662L9.15283 20.7099Z" fill="#F4CEAE"/>
<path d="M12.7443 20.5675V20.9307C12.7442 21.1962 12.6846 21.4583 12.5699 21.6977C12.4551 21.9371 12.2882 22.1477 12.0813 22.3141C11.8744 22.4805 11.6329 22.5984 11.3744 22.6591C11.116 22.7199 10.8472 22.7219 10.5879 22.665C10.983 22.578 11.3366 22.3586 11.5901 22.0432C11.8436 21.7278 11.9818 21.3353 11.9819 20.9307L12.098 20.8343L12.7443 20.5675Z" fill="#FFB594"/>
<path d="M10.9293 21.1638C10.3077 21.1658 9.69206 21.0426 9.11909 20.8015C8.54611 20.5605 8.02752 20.2066 7.59421 19.7609C7.57265 19.7389 7.56071 19.7092 7.56104 19.6784C7.56137 19.6475 7.57393 19.6181 7.59596 19.5965C7.61798 19.575 7.64768 19.563 7.6785 19.5634C7.70933 19.5637 7.73876 19.5763 7.76033 19.5983C8.2795 20.129 8.92362 20.5208 9.63359 20.7378C10.3436 20.9549 11.0967 20.9902 11.8238 20.8405C12.551 20.6908 13.2289 20.3609 13.7954 19.8811C14.362 19.4013 14.799 18.7869 15.0663 18.0943C15.0774 18.0656 15.0995 18.0424 15.1276 18.0299C15.1558 18.0174 15.1878 18.0166 15.2166 18.0277C15.2453 18.0388 15.2685 18.0609 15.281 18.0891C15.2935 18.1172 15.2942 18.1492 15.2832 18.178C14.9437 19.057 14.3461 19.8127 13.569 20.3457C12.7919 20.8786 11.8716 21.1638 10.9293 21.1638Z" fill="#1B3C47"/>
<path d="M16.8225 22.1714L20.3462 17.215L21.3723 15.5693L20.8495 15.1628L20.5785 15.3564L21.2596 14.221C21.2766 14.1926 21.2878 14.161 21.2923 14.1281C21.2968 14.0953 21.2946 14.0618 21.2859 14.0298C21.2772 13.9978 21.2621 13.9679 21.2416 13.9419C21.221 13.9159 21.1954 13.8942 21.1663 13.8784C21.1117 13.8485 21.0479 13.8404 20.9876 13.8557C20.9273 13.871 20.8751 13.9085 20.8414 13.9608L19.7417 15.6646L19.7653 16.3259C19.7653 16.4247 19.7344 16.5745 19.7986 16.6601C19.8788 16.7662 20.0643 16.7709 20.1657 16.6988C20.2761 16.6191 20.3253 16.4665 20.3411 16.3368C20.3733 16.0731 20.2614 15.8032 20.0023 15.7029C19.8821 15.655 19.7486 15.6521 19.6265 15.6948C19.5043 15.7375 19.4017 15.8229 19.3375 15.9352C19.2605 16.0716 19.1963 16.2149 19.1458 16.3631L18.611 17.014L17.4595 18.4188L16.3606 19.7586L16.0407 20.1505C16.007 20.1911 15.9776 20.2148 15.9807 20.2666C15.9842 20.3247 16.0341 20.4033 16.0554 20.4572" fill="#F4CEAE"/>
<path d="M21.4076 14.0247C21.3973 14.0232 21.387 14.0224 21.3766 14.0224C21.3355 14.0224 21.295 14.0327 21.2589 14.0524C21.2227 14.0721 21.1921 14.1005 21.1698 14.1351L20.1685 15.684L20.0698 15.8369V15.84C19.9984 15.8476 19.9294 15.8698 19.8669 15.9051C19.7828 15.9524 19.7132 16.0218 19.6655 16.1056C19.5883 16.2431 19.5241 16.3875 19.4738 16.537L18.9402 17.1875L17.7906 18.5923L16.6917 19.9325L16.3718 20.3228C16.3382 20.3615 16.3087 20.3871 16.3118 20.439C16.3153 20.4967 16.3653 20.5756 16.3866 20.6291L16.9201 22.0749L16.9395 22.133L16.1736 20.4161C16.1523 20.3627 16.1023 20.2837 16.0989 20.226C16.0958 20.1745 16.1252 20.1509 16.1589 20.1098L16.4787 19.7195L17.5776 18.3794L18.7273 16.9753L19.262 16.3244C19.3123 16.175 19.3765 16.0306 19.4537 15.893C19.4952 15.8199 19.5535 15.7577 19.6238 15.7115C19.6941 15.6653 19.7743 15.6365 19.8579 15.6274V15.6243L20.958 13.9206C20.9803 13.886 21.0109 13.8576 21.047 13.8379C21.0832 13.8182 21.1237 13.8079 21.1648 13.8079C21.2247 13.808 21.2825 13.8299 21.3274 13.8695C21.3723 13.9091 21.4012 13.9638 21.4087 14.0232L21.4076 14.0247Z" fill="#FCEADE"/>
<path d="M16.1327 20.5129C16.1133 20.5129 16.0943 20.507 16.0782 20.496C16.0621 20.485 16.0497 20.4695 16.0425 20.4513C16.0367 20.4362 16.0282 20.4196 16.0193 20.4018C15.9895 20.3491 15.9699 20.2913 15.9616 20.2314C15.9604 20.2005 15.9657 20.1697 15.9774 20.1411C15.989 20.1124 16.0066 20.0866 16.029 20.0653L16.0433 20.0482L19.1356 16.2783C19.187 16.1289 19.2518 15.9844 19.3292 15.8466C19.4046 15.7136 19.5256 15.6124 19.6698 15.5617C19.814 15.5111 19.9717 15.5143 20.1137 15.5709C20.3933 15.6793 20.554 15.9747 20.5137 16.3066C20.5002 16.4189 20.4541 16.6237 20.2992 16.7356C20.1621 16.8347 19.912 16.8312 19.7981 16.6779C19.7273 16.5842 19.7354 16.458 19.742 16.3565C19.742 16.3306 19.7451 16.3062 19.7451 16.286C19.745 16.2733 19.7475 16.2607 19.7523 16.249C19.7571 16.2372 19.7642 16.2265 19.7732 16.2175C19.7821 16.2085 19.7928 16.2013 19.8045 16.1964C19.8162 16.1915 19.8288 16.1889 19.8415 16.1889C19.8671 16.1889 19.8917 16.199 19.9098 16.2171C19.928 16.2351 19.9382 16.2597 19.9383 16.2853C19.9383 16.312 19.9383 16.3395 19.9348 16.3689C19.9302 16.4386 19.9248 16.5238 19.9522 16.5625C19.9979 16.6233 20.1246 16.6237 20.1846 16.5799C20.2833 16.5083 20.3124 16.3496 20.3205 16.2845C20.3429 16.0975 20.2841 15.8462 20.0425 15.7525C19.9439 15.7131 19.8345 15.7106 19.7342 15.7455C19.634 15.7803 19.5497 15.8502 19.4969 15.9422C19.4233 16.0741 19.3621 16.2125 19.3141 16.3557L19.3087 16.3736L16.1928 20.1729C16.187 20.1803 16.1812 20.1869 16.1753 20.1934C16.1677 20.2018 16.1607 20.2107 16.1544 20.2202C16.1629 20.2545 16.1759 20.2876 16.1932 20.3185C16.204 20.341 16.2141 20.3619 16.2222 20.3824C16.2269 20.3942 16.2292 20.4069 16.229 20.4196C16.2288 20.4323 16.2261 20.4448 16.221 20.4565C16.2159 20.4682 16.2086 20.4787 16.1994 20.4875C16.1903 20.4963 16.1794 20.5032 16.1676 20.5079C16.1564 20.5117 16.1446 20.5134 16.1327 20.5129Z" fill="#1B3C47"/>
<path d="M16.8995 22.2294C16.8816 22.2294 16.8639 22.2244 16.8486 22.2149C16.8334 22.2055 16.821 22.1919 16.813 22.1759C16.8049 22.1598 16.8015 22.1418 16.8031 22.1239C16.8047 22.106 16.8113 22.0889 16.8221 22.0745L20.3438 17.1208L21.2673 15.6068L20.7876 15.1956C20.7681 15.1789 20.756 15.1551 20.754 15.1294C20.7521 15.1038 20.7604 15.0784 20.7771 15.0589C20.7939 15.0394 20.8177 15.0273 20.8433 15.0254C20.8689 15.0234 20.8943 15.0317 20.9138 15.0485L21.5182 15.5669L20.5037 17.232L16.9801 22.1883C16.971 22.2012 16.959 22.2117 16.9449 22.2189C16.9309 22.226 16.9153 22.2296 16.8995 22.2294Z" fill="#1B3C47"/>
<path d="M16.9537 22.2944L16.1665 20.3172C16.0821 20.1052 15.8418 20.0018 15.6298 20.0862L15.6295 20.0863C15.4175 20.1707 15.314 20.411 15.3984 20.623L16.1857 22.6002C16.2701 22.8122 16.5103 22.9156 16.7223 22.8312L16.7227 22.831C16.9347 22.7466 17.0381 22.5064 16.9537 22.2944Z" fill="white"/>
<path d="M16.5689 22.957C16.4669 22.9567 16.3674 22.926 16.283 22.8687C16.1986 22.8114 16.1333 22.7302 16.0954 22.6356L15.3081 20.6584C15.2812 20.5958 15.2671 20.5284 15.2666 20.4602C15.2662 20.392 15.2794 20.3244 15.3055 20.2614C15.3316 20.1984 15.37 20.1413 15.4186 20.0934C15.4671 20.0455 15.5248 20.0079 15.5881 19.9826C15.6515 19.9574 15.7192 19.9451 15.7874 19.9465C15.8556 19.9479 15.9228 19.963 15.9851 19.9908C16.0473 20.0186 16.1034 20.0586 16.1499 20.1084C16.1965 20.1582 16.2326 20.2169 16.2561 20.2809L17.0433 22.258C17.074 22.3355 17.0852 22.4192 17.0761 22.502C17.067 22.5848 17.0378 22.6641 16.9911 22.733C16.9443 22.8019 16.8814 22.8584 16.8078 22.8974C16.7342 22.9364 16.6522 22.9569 16.5689 22.957ZM15.7821 20.1531C15.7304 20.1531 15.6795 20.1658 15.6338 20.19C15.5882 20.2142 15.5491 20.2492 15.5201 20.292C15.4911 20.3348 15.473 20.384 15.4675 20.4354C15.4619 20.4868 15.469 20.5388 15.4882 20.5868L16.275 22.5639C16.2894 22.6039 16.3117 22.6406 16.3405 22.6718C16.3694 22.7031 16.4042 22.7281 16.443 22.7456C16.4817 22.7631 16.5236 22.7726 16.5661 22.7735C16.6086 22.7744 16.6508 22.7668 16.6903 22.7511C16.7298 22.7354 16.7657 22.7119 16.7959 22.682C16.8261 22.6521 16.85 22.6164 16.8662 22.5771C16.8823 22.5377 16.8903 22.4956 16.8898 22.4531C16.8893 22.4106 16.8803 22.3686 16.8632 22.3297L16.076 20.3525C16.0525 20.2938 16.012 20.2434 15.9596 20.2078C15.9072 20.1723 15.8454 20.1532 15.7821 20.1531Z" fill="#1B3C47"/>
<path d="M19.8089 15.6846C19.7915 15.6846 19.7745 15.6799 19.7595 15.6709C19.7446 15.662 19.7324 15.6492 19.7241 15.6339C19.7158 15.6186 19.7118 15.6014 19.7125 15.584C19.7132 15.5666 19.7185 15.5498 19.728 15.5352L20.8277 13.8314C20.8747 13.7588 20.9473 13.7066 21.0311 13.6851C21.1149 13.6636 21.2037 13.6743 21.2799 13.7153C21.3205 13.7374 21.3562 13.7676 21.3849 13.8039C21.4135 13.8401 21.4346 13.8819 21.4467 13.9265C21.4589 13.9711 21.4619 14.0177 21.4556 14.0635C21.4493 14.1093 21.4338 14.1534 21.41 14.1931L20.7285 15.3284C20.7235 15.3414 20.7157 15.3532 20.7057 15.3629C20.6956 15.3726 20.6836 15.38 20.6705 15.3847C20.6573 15.3893 20.6433 15.391 20.6294 15.3898C20.6155 15.3885 20.602 15.3842 20.5899 15.3772C20.5778 15.3702 20.5674 15.3607 20.5593 15.3493C20.5512 15.3379 20.5457 15.3249 20.5432 15.3112C20.5406 15.2975 20.541 15.2834 20.5444 15.2698C20.5478 15.2563 20.5541 15.2436 20.5628 15.2328L21.2439 14.0978C21.2635 14.0642 21.2693 14.0243 21.2599 13.9866C21.2506 13.9488 21.2269 13.9162 21.1939 13.8956C21.1609 13.8751 21.1211 13.8682 21.0831 13.8764C21.0451 13.8847 21.0118 13.9074 20.9903 13.9398L19.8906 15.6417C19.8816 15.655 19.8694 15.6659 19.8552 15.6734C19.8409 15.6809 19.825 15.6848 19.8089 15.6846Z" fill="#1B3C47"/>
<path d="M29.8276 12.2245L29.8721 12.6357L29.9167 13.047L29.538 12.8801L29.1597 12.7128L29.4938 12.4685L29.8276 12.2245Z" fill="#00B8FF"/>
<path d="M15.449 1.92229L15.1269 1.66286L14.8047 1.40342L15.1904 1.25396L15.576 1.10449L15.5125 1.51339L15.449 1.92229Z" fill="#00B8FF"/>
<path d="M21.1492 30.2982L20.827 30.0388L20.5049 29.7793L20.8905 29.6303L21.2762 29.4808L21.2127 29.8897L21.1492 30.2982Z" fill="#00B8FF"/>
<path d="M10.939 22.9643C10.4376 22.9637 9.95697 22.7643 9.60244 22.4098C9.24791 22.0552 9.04847 21.5746 9.04785 21.0732V20.71C9.04785 20.6792 9.06009 20.6496 9.08188 20.6278C9.10366 20.6061 9.13321 20.5938 9.16402 20.5938C9.19483 20.5938 9.22437 20.6061 9.24616 20.6278C9.26794 20.6496 9.28018 20.6792 9.28018 20.71V21.0732C9.28684 21.5088 9.46455 21.9243 9.77496 22.23C10.0854 22.5357 10.5035 22.7071 10.9392 22.7071C11.3749 22.7071 11.7931 22.5357 12.1035 22.23C12.4139 21.9243 12.5916 21.5088 12.5982 21.0732V20.71C12.5982 20.6792 12.6105 20.6496 12.6323 20.6278C12.654 20.6061 12.6836 20.5938 12.7144 20.5938C12.7452 20.5938 12.7748 20.6061 12.7965 20.6278C12.8183 20.6496 12.8306 20.6792 12.8306 20.71V21.0732C12.8299 21.5746 12.6304 22.0554 12.2758 22.4099C11.9212 22.7644 11.4405 22.9638 10.939 22.9643Z" fill="#1B3C47"/>
<defs>
<linearGradient id="paint0_linear_4100_174939" x1="-0.00261049" y1="8.63199" x2="30.2346" y2="8.63199" gradientUnits="userSpaceOnUse">
<stop stop-color="#5B38D2"/>
<stop offset="1" stop-color="#CF4DA7"/>
</linearGradient>
</defs>
</svg>
