<svg width="34" height="46" viewBox="0 0 34 46" fill="none" xmlns="http://www.w3.org/2000/svg">
<rect x="2" y="0.5" width="30" height="45" fill="white"/>
<path d="M13.7114 4.0436V2.5" stroke="#732E54" stroke-width="2.30601" stroke-miterlimit="10" stroke-linecap="round"/>
<path d="M6.85107 4.15991L7.84305 5.27399" stroke="#732E54" stroke-width="2.30601" stroke-miterlimit="10" stroke-linecap="round"/>
<path d="M20.6155 4.15991L19.6284 5.27399" stroke="#732E54" stroke-width="2.30601" stroke-miterlimit="10" stroke-linecap="round"/>
<path opacity="0.8" d="M28.4966 16.2761L18.5917 22.1149C18.3025 22.2592 17.9637 22.2986 17.6437 22.2251C17.3237 22.1517 17.0464 21.9708 16.8678 21.7192C16.6892 21.4675 16.6227 21.1637 16.6816 20.8693C16.7405 20.5748 16.9205 20.3116 17.1852 20.1329L27.0556 14.294C27.1991 14.2094 27.3596 14.1513 27.528 14.1229C27.6963 14.0945 27.8692 14.0965 28.0367 14.1287C28.2042 14.1609 28.363 14.2227 28.5042 14.3106C28.6454 14.3984 28.766 14.5106 28.8594 14.6408C28.9527 14.7709 29.0168 14.9164 29.0481 15.0691C29.0794 15.2217 29.0772 15.3784 29.0417 15.5302C29.0062 15.6821 28.938 15.8261 28.8411 15.9541C28.7442 16.0821 28.6204 16.1915 28.4769 16.2761H28.4966Z" fill="#6750A4"/>
<path opacity="0.8" d="M15.2606 24.0791L8.63757 28.003C8.49401 28.0876 8.33348 28.1458 8.16514 28.1741C7.9968 28.2025 7.82395 28.2005 7.65645 28.1683C7.31817 28.1033 7.02223 27.9191 6.83375 27.6563C6.64527 27.3934 6.57968 27.0735 6.65141 26.7668C6.72314 26.4601 6.92631 26.1918 7.21623 26.0209L13.8393 22.0971C14.1292 21.9262 14.4821 21.8667 14.8204 21.9317C15.1587 21.9968 15.4546 22.181 15.6431 22.4438C15.8316 22.7067 15.8971 23.0266 15.8254 23.3333C15.7537 23.64 15.5505 23.9083 15.2606 24.0791Z" fill="#FF9D23"/>
<path d="M23.8477 14.907L13.9427 20.7235C13.7992 20.8081 13.6387 20.8662 13.4703 20.8946C13.302 20.9229 13.1291 20.921 12.9616 20.8888C12.7941 20.8566 12.6353 20.7948 12.4941 20.7069C12.3529 20.6191 12.2322 20.5069 12.1389 20.3767C12.0456 20.2466 11.9815 20.101 11.9502 19.9484C11.9189 19.7958 11.9211 19.6391 11.9566 19.4872C11.9921 19.3354 12.0603 19.1914 12.1572 19.0634C12.2541 18.9354 12.3778 18.826 12.5214 18.7414L22.4214 12.9204C22.7119 12.7599 23.0599 12.7082 23.3917 12.7765C23.7234 12.8447 24.0128 13.0275 24.1984 13.2859C24.384 13.5444 24.4511 13.8583 24.3857 14.1609C24.3202 14.4636 24.1272 14.7312 23.8477 14.907Z" fill="#AA7DFF"/>
<path d="M10.6068 22.7055L3.98873 26.6115C3.69828 26.7721 3.35024 26.8237 3.01847 26.7555C2.68671 26.6872 2.39733 26.5045 2.21174 26.246C2.02616 25.9875 1.95898 25.6736 2.02446 25.371C2.08994 25.0683 2.28292 24.8007 2.56246 24.6249L9.18549 20.7234C9.32904 20.6388 9.48957 20.5807 9.65791 20.5523C9.82626 20.5239 9.99911 20.5259 10.1666 20.5581C10.3341 20.5903 10.493 20.6521 10.6341 20.74C10.7753 20.8278 10.896 20.94 10.9893 21.0702C11.0826 21.2003 11.1468 21.3459 11.1781 21.4985C11.2093 21.6511 11.2072 21.8078 11.1716 21.9597C11.1361 22.1115 11.068 22.2555 10.9711 22.3835C10.8741 22.5115 10.7504 22.6209 10.6068 22.7055Z" fill="#6750A4"/>
<path d="M26.8339 13.1442L26.7747 13.18C26.6311 13.2649 26.4705 13.3233 26.3021 13.352C26.1336 13.3806 25.9606 13.3789 25.7928 13.3469C25.6251 13.3149 25.466 13.2533 25.3245 13.1655C25.1831 13.0778 25.062 12.9656 24.9684 12.8355C24.8747 12.7053 24.8103 12.5597 24.7787 12.407C24.7471 12.2543 24.749 12.0974 24.7843 11.9453C24.8196 11.7933 24.8876 11.649 24.9844 11.5208C25.0811 11.3925 25.2049 11.2828 25.3484 11.1979L25.4126 11.1621C25.7025 10.9912 26.0554 10.9318 26.3937 10.9968C26.732 11.0618 27.0279 11.246 27.2164 11.5089C27.4049 11.7717 27.4705 12.0917 27.3987 12.3984C27.327 12.705 27.1238 12.9733 26.8339 13.1442Z" fill="#FF9D23"/>
<path opacity="0.5" d="M27.9933 20.6876L18.0883 26.5265C17.7998 26.6609 17.4663 26.6929 17.1531 26.6162C16.8399 26.5395 16.5695 26.3596 16.3949 26.1118C16.2202 25.8639 16.1538 25.5659 16.2087 25.276C16.2636 24.9861 16.4358 24.7252 16.6917 24.5444L26.5621 18.7056C26.852 18.5347 27.2049 18.4752 27.5432 18.5402C27.8815 18.6053 28.1774 18.7895 28.3659 19.0523C28.5543 19.3151 28.6199 19.6351 28.5482 19.9418C28.4765 20.2485 28.2733 20.5167 27.9834 20.6876H27.9933Z" fill="#6750A4"/>
<path opacity="0.5" d="M14.7572 28.4906L8.13414 32.3921C7.99059 32.4767 7.83006 32.5349 7.66172 32.5633C7.49338 32.5916 7.32052 32.5896 7.15302 32.5575C6.98552 32.5253 6.82666 32.4635 6.6855 32.3756C6.54434 32.2877 6.42366 32.1755 6.33033 32.0454C6.237 31.9152 6.17287 31.7697 6.14158 31.6171C6.11029 31.4645 6.11247 31.3078 6.14799 31.1559C6.21972 30.8492 6.42289 30.5809 6.71281 30.4101L13.3358 26.5086C13.6258 26.3377 13.9787 26.2782 14.317 26.3432C14.6552 26.4083 14.9512 26.5925 15.1397 26.8553C15.3281 27.1182 15.3937 27.4381 15.322 27.7448C15.2503 28.0515 15.0471 28.3198 14.7572 28.4906Z" fill="#AA7DFF"/>
<path opacity="0.5" d="M31.0034 18.9292L30.9442 18.965C30.8006 19.0496 30.6401 19.1077 30.4718 19.1361C30.3034 19.1645 30.1306 19.1625 29.9631 19.1303C29.7956 19.0981 29.6367 19.0363 29.4956 18.9484C29.3544 18.8606 29.2337 18.7484 29.1404 18.6182C29.0471 18.4881 28.9829 18.3426 28.9516 18.1899C28.9204 18.0373 28.9225 17.8806 28.958 17.7288C28.9936 17.5769 29.0617 17.4329 29.1586 17.3049C29.2555 17.1769 29.3793 17.0675 29.5229 16.9829L29.5821 16.9471C29.7256 16.8625 29.8862 16.8044 30.0545 16.776C30.2229 16.7476 30.3957 16.7496 30.5632 16.7818C30.7307 16.814 30.8896 16.8758 31.0307 16.9637C31.1719 17.0515 31.2926 17.1637 31.3859 17.2939C31.4792 17.424 31.5434 17.5696 31.5747 17.7222C31.6059 17.8748 31.6038 18.0315 31.5682 18.1834C31.5327 18.3352 31.4646 18.4792 31.3677 18.6072C31.2707 18.7352 31.147 18.8446 31.0034 18.9292Z" fill="#FF9D23"/>
<path d="M5.13869 18.9249C5.76053 20.2671 6.71796 21.4573 7.51746 22.7235C8.31696 23.9897 8.99802 25.408 8.90425 26.8531H18.2811C18.2071 25.3946 18.8635 23.9897 19.663 22.7235C20.4625 21.4573 21.4199 20.2626 22.0467 18.9249C24.6376 13.3589 20.6401 6.29864 13.5976 6.39708C6.54522 6.29864 2.55759 13.3589 5.13869 18.9249Z" fill="white"/>
<path d="M13.7012 6.32994V26.786H18.3945C18.3205 25.3274 18.9769 23.9225 19.7764 22.6563C20.5759 21.3901 21.5383 20.1955 22.1601 18.8577C24.7412 13.2918 20.7536 6.2315 13.7012 6.32994Z" fill="#CEC1BC"/>
<path d="M5.20757 19.0546C5.83434 20.3968 6.79176 21.587 7.59127 22.8532C8.29899 23.8878 8.76276 25.044 8.95338 26.2491C8.98017 26.4531 9.08925 26.6409 9.25964 26.7764C9.43002 26.9119 9.64965 26.9854 9.87626 26.9829H17.4617C17.6883 26.9854 17.9079 26.9119 18.0783 26.7764C18.2487 26.6409 18.3577 26.4531 18.3845 26.2491C18.5706 25.043 19.0347 23.8859 19.7466 22.8532C20.5462 21.587 21.5036 20.3968 22.1205 19.0546C24.7016 13.4887 20.7139 6.42837 13.6616 6.52681C6.61903 6.42837 2.62646 13.4887 5.20757 19.0546Z" stroke="#732E54" stroke-width="2.30601" stroke-miterlimit="10"/>
<path d="M10.1777 30.5891H16.8896V30.7233C16.8896 31.1228 16.8028 31.5185 16.6341 31.8876C16.4655 32.2567 16.2183 32.5921 15.9067 32.8747C15.595 33.1572 15.2251 33.3813 14.8179 33.5342C14.4108 33.6871 13.9744 33.7658 13.5337 33.7658C12.6436 33.7658 11.79 33.4452 11.1607 32.8747C10.5313 32.3041 10.1777 31.5302 10.1777 30.7233V30.5891Z" fill="url(#paint0_linear_4100_174716)"/>
<path d="M10.2764 30.6875H17.003V30.8217C17.003 31.2213 16.9162 31.6169 16.7476 31.986C16.5789 32.3552 16.3317 32.6906 16.0201 32.9731C15.7085 33.2556 15.3385 33.4797 14.9314 33.6326C14.5242 33.7855 14.0878 33.8642 13.6471 33.8642C13.2052 33.866 12.7672 33.7886 12.3583 33.6365C11.9494 33.4844 11.5777 33.2605 11.2645 32.9778C10.9513 32.6951 10.7028 32.3591 10.5332 31.9891C10.3637 31.6191 10.2764 31.2224 10.2764 30.8217V30.6875Z" stroke="#732E54" stroke-width="2.30601" stroke-miterlimit="10"/>
<path d="M6.81201 30.674H20.3147" stroke="#732E54" stroke-width="2.30601" stroke-miterlimit="10" stroke-linecap="round"/>
<path d="M9.21045 28.9291H17.2844" stroke="#732E54" stroke-width="2.30601" stroke-miterlimit="10" stroke-linecap="round"/>
<path d="M23.2358 8.70123L25.0619 7.69901" stroke="#732E54" stroke-width="2.30601" stroke-miterlimit="10" stroke-linecap="round"/>
<path d="M4.2059 8.70123L2.37988 7.69901" stroke="#732E54" stroke-width="2.30601" stroke-miterlimit="10" stroke-linecap="round"/>
<path d="M13.7012 26.786V23.144" stroke="#732E54" stroke-width="2.30601" stroke-miterlimit="10" stroke-linecap="round"/>
<path d="M15.4528 20.8576L14.5842 21.9538L13.7157 23.05L12.852 21.9538L11.9834 20.8576" stroke="#732E54" stroke-width="2.30601" stroke-miterlimit="10" stroke-linecap="round"/>
<path d="M19.4452 18.4326C19.3114 18.7669 19.1463 19.0903 18.9517 19.399" stroke="white" stroke-width="1.15301" stroke-miterlimit="10" stroke-linecap="round"/>
<path opacity="0.3" d="M20.1467 15.4439C20.1316 15.8218 20.0787 16.1977 19.9888 16.5669" stroke="white" stroke-width="1.15301" stroke-miterlimit="10" stroke-linecap="round"/>
<path d="M16.6182 9.10394C17.5181 9.54797 18.3024 10.162 18.918 10.9046C19.5336 11.6472 19.9661 12.5009 20.1863 13.4081" stroke="white" stroke-width="1.15301" stroke-miterlimit="10" stroke-linecap="round"/>
<path opacity="0.7" d="M8.84473 9.63182C9.66784 9.06093 10.62 8.66215 11.6331 8.46405C12.5428 8.28072 13.4831 8.25945 14.4018 8.40141" stroke="white" stroke-width="1.15301" stroke-miterlimit="10" stroke-linecap="round"/>
<path d="M7.35938 11.6722C7.8852 10.8074 8.62098 10.0623 9.51112 9.49326" stroke="white" stroke-width="2.30601" stroke-miterlimit="10" stroke-linecap="round"/>
<path d="M9.04695 19.8018C7.93846 18.9646 7.13342 17.8444 6.73648 16.5868C6.33953 15.3293 6.36905 13.9926 6.82118 12.7505" stroke="white" stroke-width="2.30601" stroke-miterlimit="10" stroke-linecap="round"/>
<defs>
<linearGradient id="paint0_linear_4100_174716" x1="10.1777" y1="32.1774" x2="16.8896" y2="32.1774" gradientUnits="userSpaceOnUse">
<stop offset="0.04" stop-color="#F27B40"/>
<stop offset="1" stop-color="#EC697D"/>
</linearGradient>
</defs>
</svg>
