<svg width="32" height="32" viewBox="0 0 32 32" fill="none" xmlns="http://www.w3.org/2000/svg">
<path d="M24.4908 4.5016H7.3651C3.56228 4.5016 0.479492 7.58439 0.479492 11.3872V24.457C0.479492 28.2598 3.56228 31.3426 7.3651 31.3426H24.4908C28.2937 31.3426 31.3765 28.2598 31.3765 24.457V11.3872C31.3765 7.58439 28.2937 4.5016 24.4908 4.5016Z" fill="#961DF5"/>
<path d="M0.514648 12.7933H31.4116V13.3525H0.514648V12.7933Z" fill="#6750A4"/>
<path d="M31.4116 23.0813V25.3334C31.4074 26.9446 30.7656 28.4887 29.6264 29.6282C28.4872 30.7676 26.9433 31.4099 25.3321 31.4145H6.59498C4.9836 31.4101 3.43949 30.7679 2.30015 29.6284C1.1608 28.4889 0.518867 26.9448 0.51465 25.3334V10.6522C0.514427 10.3433 0.53793 10.0348 0.584952 9.72951V22.1586C0.589379 23.7698 1.23141 25.3138 2.37073 26.4531C3.51006 27.5925 5.05404 28.2345 6.66528 28.2389H25.4048C26.8557 28.2338 28.2574 27.7118 29.3582 26.7666C30.4591 25.8214 31.1871 24.5148 31.4116 23.0813Z" fill="#6750A4"/>
<path d="M28.8253 18.6974C28.9943 18.6944 29.1152 17.7997 29.0954 16.699C29.0756 15.5984 28.9226 14.7086 28.7537 14.7116C28.5847 14.7147 28.4638 15.6094 28.4836 16.71C28.5034 17.8107 28.6564 18.7005 28.8253 18.6974Z" fill="white"/>
<path d="M28.8662 21.6015C29.0351 21.5984 29.1641 21.1496 29.1542 20.5991C29.1443 20.0486 28.9993 19.6047 28.8303 19.6078C28.6614 19.6108 28.5324 20.0596 28.5423 20.6101C28.5522 21.1606 28.6972 21.6045 28.8662 21.6015Z" fill="white"/>
<path d="M31.3765 10.4406V12.2261H0.584945V9.58977C0.537923 9.89509 0.51442 10.2036 0.514643 10.5125V12.2277H0.479492V10.4406C0.484129 8.82962 1.12614 7.28596 2.26527 6.14683C3.4044 5.0077 4.94806 4.36569 6.55902 4.36105H25.2969C26.9079 4.36569 28.4515 5.0077 29.5907 6.14683C30.7298 7.28596 31.3718 8.82962 31.3765 10.4406Z" fill="#FFD947"/>
<path d="M31.7293 10.7936V12.5792H31.5998C31.3094 11.2152 30.5605 9.99179 29.4779 9.11268C28.3953 8.23358 27.0443 7.75178 25.6497 7.74749H6.91183C5.51671 7.75105 4.16492 8.23252 3.08167 9.11168C1.99841 9.99085 1.24908 11.2146 0.958521 12.5792H0.934555V9.94283C0.887532 10.2482 0.864029 10.5566 0.864253 10.8655V12.5808H0.829102V10.7936C0.833532 9.18199 1.47589 7.63765 2.61573 6.49825C3.75557 5.35886 5.30017 4.71711 6.91183 4.71332H25.6489C27.2602 4.71775 28.8042 5.35977 29.9435 6.4991C31.0828 7.63842 31.7248 9.18241 31.7293 10.7936Z" fill="#F3A70F"/>
<path d="M0.479492 11.8882H31.3765V12.8468H0.479492V11.8882Z" fill="#426572"/>
<path d="M24.4907 31.822H7.36494C5.41229 31.8199 3.54021 31.0433 2.15948 29.6625C0.778741 28.2818 0.00211464 26.4097 0 24.4571L0 11.3873C0.00211464 9.43461 0.778741 7.56254 2.15948 6.1818C3.54021 4.80106 5.41229 4.02444 7.36494 4.02232H24.4907C26.4433 4.02444 28.3154 4.80106 29.6961 6.1818C31.0769 7.56254 31.8535 9.43461 31.8556 11.3873V24.4571C31.8535 26.4097 31.0769 28.2818 29.6961 29.6625C28.3154 31.0433 26.4433 31.8199 24.4907 31.822ZM7.36494 4.98099C5.66647 4.98289 4.03812 5.65845 2.83712 6.85944C1.63612 8.06044 0.960568 9.6888 0.958665 11.3873V24.4571C0.960568 26.1555 1.63612 27.7839 2.83712 28.9849C4.03812 30.1859 5.66647 30.8614 7.36494 30.8633H24.4907C26.1891 30.8614 27.8175 30.1859 29.0185 28.9849C30.2195 27.7839 30.8951 26.1555 30.897 24.4571V11.3873C30.8951 9.6888 30.2195 8.06044 29.0185 6.85944C27.8175 5.65845 26.1891 4.98289 24.4907 4.98099H7.36494Z" fill="#426572"/>
<path d="M10.954 2.35016C10.954 1.41523 10.1961 0.657318 9.2612 0.657318C8.32627 0.657318 7.56836 1.41523 7.56836 2.35016V6.44206C7.56836 7.37699 8.32627 8.1349 9.2612 8.1349C10.1961 8.1349 10.954 7.37699 10.954 6.44206V2.35016Z" fill="#961DF5"/>
<path d="M23.7221 2.35016C23.7221 1.41523 22.9642 0.657318 22.0293 0.657318C21.0943 0.657318 20.3364 1.41523 20.3364 2.35016V6.44206C20.3364 7.37699 21.0943 8.1349 22.0293 8.1349C22.9642 8.1349 23.7221 7.37699 23.7221 6.44206V2.35016Z" fill="#961DF5"/>
<path d="M9.26153 8.61429C8.68563 8.61365 8.1335 8.3846 7.72627 7.97737C7.31905 7.57015 7.08999 7.01801 7.08936 6.44211V2.35021C7.08936 1.77412 7.31821 1.22162 7.72557 0.814255C8.13293 0.406893 8.68543 0.17804 9.26153 0.17804C9.83763 0.17804 10.3901 0.406893 10.7975 0.814255C11.2049 1.22162 11.4337 1.77412 11.4337 2.35021V6.44211C11.4331 7.01801 11.204 7.57015 10.7968 7.97737C10.3896 8.3846 9.83743 8.61365 9.26153 8.61429ZM9.26153 1.1367C8.93982 1.13713 8.6314 1.26511 8.40392 1.4926C8.17643 1.72009 8.04844 2.0285 8.04802 2.35021V6.44211C8.04802 6.76396 8.17587 7.07262 8.40345 7.30019C8.63103 7.52777 8.93969 7.65562 9.26153 7.65562C9.58337 7.65562 9.89203 7.52777 10.1196 7.30019C10.3472 7.07262 10.475 6.76396 10.475 6.44211V2.35021C10.4746 2.0285 10.3466 1.72009 10.1191 1.4926C9.89166 1.26511 9.58324 1.13713 9.26153 1.1367Z" fill="#426572"/>
<path d="M22.0291 8.61429C21.4532 8.61365 20.9011 8.3846 20.4938 7.97737C20.0866 7.57015 19.8576 7.01801 19.8569 6.44211V2.35021C19.8569 1.77412 20.0858 1.22162 20.4931 0.814255C20.9005 0.406893 21.453 0.17804 22.0291 0.17804C22.6052 0.17804 23.1577 0.406893 23.5651 0.814255C23.9724 1.22162 24.2013 1.77412 24.2013 2.35021V6.44211C24.2006 7.01801 23.9716 7.57015 23.5644 7.97737C23.1571 8.3846 22.605 8.61365 22.0291 8.61429ZM22.0291 1.1367C21.7074 1.13713 21.399 1.26511 21.1715 1.4926C20.944 1.72009 20.816 2.0285 20.8156 2.35021V6.44211C20.8156 6.76396 20.9434 7.07262 21.171 7.30019C21.3986 7.52777 21.7073 7.65562 22.0291 7.65562C22.351 7.65562 22.6596 7.52777 22.8872 7.30019C23.1148 7.07262 23.2426 6.76396 23.2426 6.44211V2.35021C23.2422 2.0285 23.1142 1.72009 22.8867 1.4926C22.6592 1.26511 22.3508 1.13713 22.0291 1.1367Z" fill="#426572"/>
<path d="M13.6899 26.7812C13.0077 26.7812 12.3927 26.6675 11.8449 26.4401C11.2971 26.2024 10.863 25.8251 10.5426 25.3083C10.2221 24.7812 10.0619 24.0835 10.0619 23.2153V18.9207C10.0619 18.0525 10.2221 17.36 10.5426 16.8432C10.863 16.316 11.2971 15.9388 11.8449 15.7114C12.3927 15.4736 13.0077 15.3548 13.6899 15.3548C14.3721 15.3548 14.987 15.4736 15.5349 15.7114C16.093 15.9388 16.5323 16.316 16.8527 16.8432C17.1731 17.36 17.3333 18.0525 17.3333 18.9207V23.2153C17.3333 24.0835 17.1731 24.7812 16.8527 25.3083C16.5323 25.8251 16.093 26.2024 15.5349 26.4401C14.987 26.6675 14.3721 26.7812 13.6899 26.7812ZM13.6899 25.0138C14.1963 25.0138 14.5943 24.8691 14.8837 24.5797C15.1731 24.2902 15.3178 23.8355 15.3178 23.2153V18.9207C15.3178 18.3005 15.1731 17.8458 14.8837 17.5563C14.5943 17.2669 14.1963 17.1222 13.6899 17.1222C13.1834 17.1222 12.7855 17.2669 12.4961 17.5563C12.217 17.8458 12.0775 18.3005 12.0775 18.9207V23.2153C12.0775 23.8355 12.217 24.2902 12.4961 24.5797C12.7855 24.8691 13.1834 25.0138 13.6899 25.0138ZM13.6899 21.8044C13.4728 21.8044 13.2971 21.7373 13.1627 21.6029C13.0387 21.4582 12.9767 21.2825 12.9767 21.0758C12.9767 20.8587 13.0387 20.6882 13.1627 20.5641C13.2971 20.4298 13.4728 20.3626 13.6899 20.3626C13.9173 20.3626 14.093 20.4298 14.217 20.5641C14.3514 20.6882 14.4186 20.8587 14.4186 21.0758C14.4186 21.2825 14.3514 21.4582 14.217 21.6029C14.093 21.7373 13.9173 21.8044 13.6899 21.8044ZM20.5829 26.6882C20.3348 26.6882 20.1022 26.6365 19.8852 26.5332C19.6785 26.4195 19.5751 26.2541 19.5751 26.037V17.7734L19.079 18.2695C19.017 18.3109 18.9549 18.347 18.8929 18.3781C18.8309 18.3987 18.7741 18.4091 18.7224 18.4091C18.526 18.4091 18.3658 18.3264 18.2418 18.161C18.1281 17.9853 18.0712 17.7941 18.0712 17.5874C18.0712 17.453 18.1022 17.3238 18.1642 17.1997C18.2263 17.0654 18.3193 16.9569 18.4433 16.8742L20.2728 15.4788C20.3348 15.4271 20.3968 15.3909 20.4588 15.3703C20.5312 15.3393 20.6139 15.3238 20.7069 15.3238C20.9136 15.3238 21.11 15.3858 21.296 15.5098C21.4924 15.6235 21.5906 15.7837 21.5906 15.9904V26.037C21.5906 26.2541 21.4873 26.4195 21.2805 26.5332C21.0738 26.6365 20.8413 26.6882 20.5829 26.6882Z" fill="white"/>
</svg>
