<svg width="32" height="32" viewBox="0 0 32 32" fill="none" xmlns="http://www.w3.org/2000/svg">
<rect width="29.8577" height="30.9926" fill="white"/>
<g clip-path="url(#clip0_4100_174673)">
<path opacity="0.8" d="M22.7336 9.46105L14.2487 14.9781C14.0003 15.1396 13.698 15.1958 13.4082 15.1343C13.1184 15.0729 12.8649 14.8989 12.7034 14.6505C12.542 14.4021 12.4858 14.0998 12.5472 13.81C12.6087 13.5203 12.7827 13.2667 13.0311 13.1053L21.516 7.60933C21.7644 7.44787 22.0667 7.39168 22.3565 7.45313C22.6462 7.51457 22.8998 7.68862 23.0612 7.93697C23.2227 8.18533 23.2789 8.48765 23.2174 8.77744C23.156 9.06722 22.9819 9.32072 22.7336 9.48218V9.46105Z" fill="#6750A4"/>
<path opacity="0.8" d="M11.3948 16.8341L5.72131 20.5121C5.59834 20.5921 5.46082 20.647 5.31661 20.6738C5.17241 20.7006 5.02433 20.6988 4.88085 20.6683C4.73736 20.6379 4.60127 20.5795 4.48035 20.4965C4.35943 20.4135 4.25605 20.3075 4.1761 20.1845C4.09615 20.0615 4.04121 19.924 4.01441 19.7798C3.98761 19.6356 3.98947 19.4875 4.0199 19.344C4.05032 19.2005 4.10871 19.0644 4.19173 18.9435C4.27475 18.8226 4.38077 18.7192 4.50374 18.6393L10.1773 14.9528C10.3002 14.8728 10.4377 14.8179 10.582 14.7911C10.7262 14.7643 10.8742 14.7661 11.0177 14.7966C11.1612 14.827 11.2973 14.8854 11.4182 14.9684C11.5391 15.0514 11.6425 15.1574 11.7225 15.2804C11.8024 15.4034 11.8574 15.5409 11.8842 15.6851C11.911 15.8293 11.9091 15.9774 11.8787 16.1209C11.8482 16.2643 11.7899 16.4004 11.7068 16.5214C11.6238 16.6423 11.5178 16.7457 11.3948 16.8256V16.8341Z" fill="#FF9D23"/>
<path d="M18.7469 8.16308L10.2662 13.6802C10.1433 13.7601 10.0057 13.8151 9.86154 13.8419C9.71733 13.8687 9.56926 13.8668 9.42577 13.8364C9.13599 13.7749 8.88248 13.6009 8.72103 13.3525C8.55957 13.1042 8.50338 12.8019 8.56482 12.5121C8.62627 12.2223 8.80031 11.9688 9.04867 11.8073L17.5294 6.31137C17.6523 6.23142 17.7898 6.17648 17.934 6.14968C18.0783 6.12288 18.2263 6.12474 18.3698 6.15517C18.5133 6.18559 18.6494 6.24398 18.7703 6.327C18.8912 6.41002 18.9946 6.51604 19.0746 6.63901C19.1545 6.76199 19.2095 6.8995 19.2363 7.04371C19.2631 7.18791 19.2612 7.33599 19.2308 7.47947C19.2003 7.62296 19.142 7.75905 19.0589 7.87997C18.9759 8.00089 18.8699 8.10428 18.7469 8.18422V8.16308Z" fill="#AA7DFF"/>
<path d="M7.4081 15.5362L1.73458 19.2438C1.48342 19.4053 1.17841 19.4604 0.886648 19.3969C0.594883 19.3335 0.340264 19.1568 0.178805 18.9056C0.0173456 18.6545 -0.0377282 18.3494 0.025699 18.0577C0.0891262 17.7659 0.265859 17.5113 0.517018 17.3498L6.19054 13.6633C6.31351 13.5834 6.45103 13.5284 6.59523 13.5016C6.73944 13.4748 6.88751 13.4767 7.031 13.5071C7.17448 13.5375 7.31057 13.5959 7.43149 13.6789C7.55241 13.762 7.6558 13.868 7.73575 13.991C7.81569 14.1139 7.87063 14.2514 7.89744 14.3957C7.92424 14.5399 7.92237 14.6879 7.89195 14.8314C7.86152 14.9749 7.80313 15.111 7.72012 15.2319C7.6371 15.3528 7.53108 15.4562 7.4081 15.5362Z" fill="#6750A4"/>
<path d="M21.3085 6.50162L21.2535 6.53544C21.1306 6.61539 20.993 6.67033 20.8488 6.69713C20.7046 6.72394 20.5566 6.72207 20.4131 6.69165C20.2696 6.66122 20.1335 6.60283 20.0126 6.51982C19.8917 6.4368 19.7883 6.33077 19.7083 6.2078C19.6284 6.08483 19.5734 5.94731 19.5466 5.80311C19.5198 5.6589 19.5217 5.51083 19.5521 5.36734C19.5825 5.22385 19.6409 5.08777 19.724 4.96684C19.807 4.84592 19.913 4.74254 20.036 4.66259L20.0909 4.62877C20.3393 4.46731 20.6416 4.41112 20.9314 4.47257C21.2212 4.53401 21.4747 4.70806 21.6361 4.95641C21.7976 5.20477 21.8538 5.50709 21.7923 5.79688C21.7309 6.08666 21.5569 6.34016 21.3085 6.50162Z" fill="#FF9D23"/>
<path opacity="0.5" d="M22.3019 13.6295L13.817 19.1466C13.5684 19.2894 13.2746 19.3314 12.996 19.2641C12.7173 19.1968 12.4751 19.0253 12.3191 18.7848C12.1631 18.5443 12.1052 18.2532 12.1574 17.9713C12.2095 17.6894 12.3677 17.4383 12.5994 17.2695L21.0843 11.7735C21.3327 11.6121 21.635 11.5559 21.9248 11.6173C22.2146 11.6788 22.4681 11.8528 22.6296 12.1012C22.791 12.3495 22.8472 12.6519 22.7858 12.9417C22.7243 13.2314 22.5503 13.4849 22.3019 13.6464V13.6295Z" fill="#6750A4"/>
<path opacity="0.5" d="M10.9632 21.0025L5.28967 24.689C5.04132 24.8505 4.73899 24.9067 4.44921 24.8452C4.15943 24.7838 3.90592 24.6097 3.74446 24.3614C3.583 24.113 3.52682 23.8107 3.58826 23.5209C3.64971 23.2311 3.82375 22.9776 4.07211 22.8162L9.73294 19.1254C9.98151 18.9827 10.2753 18.9406 10.554 19.0079C10.8326 19.0752 11.0749 19.2467 11.2309 19.4872C11.3868 19.7277 11.4447 20.0189 11.3926 20.3007C11.3404 20.5826 11.1822 20.8338 10.9505 21.0025H10.9632Z" fill="#AA7DFF"/>
<path opacity="0.5" d="M24.8599 11.968L24.8092 12.0018C24.5606 12.1446 24.2668 12.1866 23.9882 12.1193C23.7095 12.052 23.4673 11.8805 23.3113 11.64C23.1553 11.3995 23.0974 11.1084 23.1496 10.8265C23.2017 10.5446 23.3599 10.2935 23.5916 10.1247L23.6424 10.0909C23.7654 10.0013 23.9054 9.93767 24.0539 9.90397C24.2023 9.87026 24.3561 9.86716 24.5057 9.89486C24.6554 9.92255 24.7979 9.98045 24.9244 10.065C25.051 10.1496 25.159 10.2591 25.2418 10.3868C25.3247 10.5145 25.3806 10.6578 25.4063 10.8078C25.4319 10.9579 25.4267 11.1116 25.3909 11.2595C25.3552 11.4075 25.2897 11.5466 25.1984 11.6684C25.1071 11.7902 24.9919 11.8922 24.8599 11.968Z" fill="#FF9D23"/>
<path d="M7.18408 29.6904L23.4859 22.1567" stroke="#732E54" stroke-width="1.93893" stroke-miterlimit="10" stroke-linecap="round"/>
<path d="M14.3247 13.3927H19.2161V29.6184H14.3247V13.3927Z" fill="white"/>
<path d="M21.875 7.08928H26.7749V31.1658H21.875V7.08928Z" fill="url(#paint0_linear_4100_174673)"/>
<path d="M21.5752 7.39362H27.0246V31.4701H21.5752V7.39362Z" stroke="#732E54" stroke-width="1.93893" stroke-miterlimit="10"/>
<path d="M14.3369 14.1579H19.2283V31.0685H14.3369V14.1579Z" fill="url(#paint1_linear_4100_174673)"/>
<path d="M14.0244 13.7731H19.4739V31.4701H14.0244V13.7731Z" stroke="#732E54" stroke-width="1.93893" stroke-miterlimit="10"/>
<path d="M6.65576 20.2584H11.5768V31.3772H6.65576V20.2584Z" fill="url(#paint2_linear_4100_174673)"/>
<path d="M6.47803 20.3472H11.9275V31.4659H6.47803V20.3472Z" stroke="#732E54" stroke-width="1.93893" stroke-miterlimit="10"/>
<path d="M26.8133 10.4291C28.2843 10.4291 29.4768 9.23667 29.4768 7.7657C29.4768 6.29474 28.2843 5.10228 26.8133 5.10228C25.3424 5.10228 24.1499 6.29474 24.1499 7.7657C24.1499 9.23667 25.3424 10.4291 26.8133 10.4291Z" fill="white"/>
<path fill-rule="evenodd" clip-rule="evenodd" d="M29.5567 7.85444C29.571 8.21285 29.5127 8.57045 29.3854 8.9058C29.2581 9.24115 29.0644 9.54732 28.8158 9.80596C28.5673 10.0646 28.2691 10.2704 27.9391 10.4109C27.6091 10.5515 27.2541 10.624 26.8954 10.624C26.5367 10.624 26.1817 10.5515 25.8517 10.4109C25.5216 10.2704 25.2234 10.0646 24.9749 9.80596C24.7264 9.54732 24.5326 9.24115 24.4053 8.9058C24.278 8.57045 24.2198 8.21285 24.234 7.85444C24.2326 7.6229 24.2639 7.39232 24.3271 7.16956C24.4789 7.73577 24.8133 8.23607 25.2784 8.59289C25.7435 8.94971 26.3134 9.14311 26.8996 9.14311C27.4858 9.14311 28.0556 8.94971 28.5208 8.59289C28.9859 8.23607 29.3203 7.73577 29.4721 7.16956C29.5283 7.39352 29.5567 7.62354 29.5567 7.85444Z" fill="#CEC1BC"/>
<path d="M27.0541 10.6743C28.525 10.6743 29.7175 9.48188 29.7175 8.01091C29.7175 6.53994 28.525 5.34749 27.0541 5.34749C25.5831 5.34749 24.3906 6.53994 24.3906 8.01091C24.3906 9.48188 25.5831 10.6743 27.0541 10.6743Z" stroke="#732E54" stroke-width="1.93893" stroke-miterlimit="10"/>
<path d="M6.81626 22.85C8.28723 22.85 9.47968 21.6575 9.47968 20.1866C9.47968 18.7156 8.28723 17.5231 6.81626 17.5231C5.34529 17.5231 4.15283 18.7156 4.15283 20.1866C4.15283 21.6575 5.34529 22.85 6.81626 22.85Z" fill="white"/>
<path fill-rule="evenodd" clip-rule="evenodd" d="M9.56428 20.2753C9.56428 20.9817 9.28367 21.6591 8.78418 22.1586C8.28469 22.6581 7.60724 22.9387 6.90086 22.9387C6.19447 22.9387 5.51702 22.6581 5.01753 22.1586C4.51804 21.6591 4.23743 20.9817 4.23743 20.2753C4.235 20.0434 4.26778 19.8125 4.33467 19.5904C4.48498 20.1574 4.81855 20.6588 5.28345 21.0166C5.74835 21.3743 6.31849 21.5682 6.90508 21.5682C7.49168 21.5682 8.06182 21.3743 8.52672 21.0166C8.99162 20.6588 9.32519 20.1574 9.4755 19.5904C9.53542 19.8138 9.56527 20.0441 9.56428 20.2753Z" fill="#CEC1BC"/>
<path d="M7.06137 23.0909C8.53234 23.0909 9.7248 21.8985 9.7248 20.4275C9.7248 18.9565 8.53234 17.7641 7.06137 17.7641C5.59041 17.7641 4.39795 18.9565 4.39795 20.4275C4.39795 21.8985 5.59041 23.0909 7.06137 23.0909Z" stroke="#732E54" stroke-width="1.93893" stroke-miterlimit="10"/>
<path opacity="0.3" d="M24.8428 29.9821H25.2529" stroke="white" stroke-width="0.969466" stroke-miterlimit="10" stroke-linecap="round"/>
<path d="M23.0249 27.4244V29.9821H23.9508" stroke="white" stroke-width="0.969466" stroke-miterlimit="10" stroke-linecap="round"/>
<path opacity="0.6" d="M23.0249 25.5641V26.0545" stroke="white" stroke-width="0.969466" stroke-miterlimit="10" stroke-linecap="round"/>
<path d="M23.0249 22.8796V24.2367" stroke="white" stroke-width="0.969466" stroke-miterlimit="10" stroke-linecap="round"/>
</g>
<defs>
<linearGradient id="paint0_linear_4100_174673" x1="21.875" y1="19.1297" x2="26.7749" y2="19.1297" gradientUnits="userSpaceOnUse">
<stop offset="0.04" stop-color="#F27B40"/>
<stop offset="1" stop-color="#EC697D"/>
</linearGradient>
<linearGradient id="paint1_linear_4100_174673" x1="14.3369" y1="22.6132" x2="19.2283" y2="22.6132" gradientUnits="userSpaceOnUse">
<stop offset="0.04" stop-color="#F27B40"/>
<stop offset="1" stop-color="#EC697D"/>
</linearGradient>
<linearGradient id="paint2_linear_4100_174673" x1="6.65576" y1="25.8178" x2="11.5768" y2="25.8178" gradientUnits="userSpaceOnUse">
<stop offset="0.04" stop-color="#F27B40"/>
<stop offset="1" stop-color="#EC697D"/>
</linearGradient>
<clipPath id="clip0_4100_174673">
<rect width="32" height="30.2034" fill="white" transform="translate(0 1.79665)"/>
</clipPath>
</defs>
</svg>
