<svg width="24" height="25" viewBox="0 0 24 25" fill="none" xmlns="http://www.w3.org/2000/svg">
<path d="M3.11482 3.13001L1.69482 4.54001L3.96482 6.81001C2.91482 8.39001 2.30482 10.28 2.30482 12.32C2.30482 17.84 6.78482 22.32 12.3048 22.32C14.3448 22.32 16.2348 21.71 17.8148 20.66L20.0848 22.93L21.4948 21.52L3.11482 3.13001ZM12.3048 20.32C7.89482 20.32 4.30482 16.73 4.30482 12.32C4.30482 10.84 4.71482 9.46001 5.42482 8.26001L16.3648 19.2C15.1648 19.91 13.7848 20.32 12.3048 20.32ZM8.24482 5.44001L6.79482 3.98001C8.37482 2.93001 10.2648 2.32001 12.3048 2.32001C17.8248 2.32001 22.3048 6.80001 22.3048 12.32C22.3048 14.36 21.6948 16.25 20.6448 17.83L19.1848 16.37C19.8948 15.18 20.3048 13.8 20.3048 12.32C20.3048 7.91001 16.7148 4.32001 12.3048 4.32001C10.8248 4.32001 9.44482 4.73001 8.24482 5.44001Z" fill="black"/>
</svg>
