<svg width="32" height="31" viewBox="0 0 32 31" fill="none" xmlns="http://www.w3.org/2000/svg">
<path opacity="0.8" d="M23.7779 8.3891L14.9031 14.1597C14.6434 14.3286 14.3272 14.3873 14.0241 14.3231C13.721 14.2588 13.4558 14.0767 13.2869 13.817C13.1181 13.5572 13.0593 13.241 13.1236 12.9379C13.1878 12.6348 13.3699 12.3697 13.6296 12.2008L22.5044 6.45231C22.7641 6.28343 23.0804 6.22466 23.3835 6.28893C23.6866 6.3532 23.9517 6.53524 24.1206 6.79501C24.2895 7.05477 24.3482 7.37099 24.284 7.67408C24.2197 7.97718 24.0377 8.24233 23.7779 8.41121V8.3891Z" fill="#6750A4"/>
<path opacity="0.8" d="M11.9184 16.1009L5.98419 19.9479C5.85557 20.0316 5.71173 20.089 5.5609 20.1171C5.41007 20.1451 5.25519 20.1431 5.10511 20.1113C4.95503 20.0795 4.81269 20.0184 4.68622 19.9316C4.55974 19.8448 4.45161 19.7339 4.36799 19.6052C4.28437 19.4766 4.2269 19.3328 4.19887 19.1819C4.17083 19.0311 4.17279 18.8762 4.20461 18.7262C4.23643 18.5761 4.2975 18.4337 4.38433 18.3073C4.47117 18.1808 4.58206 18.0727 4.71068 17.989L10.6449 14.1331C10.7735 14.0495 10.9173 13.9921 11.0682 13.964C11.219 13.936 11.3739 13.9379 11.5239 13.9698C11.674 14.0016 11.8164 14.0627 11.9428 14.1495C12.0693 14.2363 12.1775 14.3472 12.2611 14.4758C12.3447 14.6045 12.4022 14.7483 12.4302 14.8991C12.4582 15.05 12.4563 15.2048 12.4244 15.3549C12.3926 15.505 12.3316 15.6473 12.2447 15.7738C12.1579 15.9003 12.047 16.0084 11.9184 16.092V16.1009Z" fill="#FF9D23"/>
<path d="M19.6079 7.03148L10.7376 12.8021C10.609 12.8857 10.4652 12.9431 10.3143 12.9712C10.1635 12.9992 10.0086 12.9973 9.85853 12.9654C9.55544 12.9012 9.29029 12.7191 9.12141 12.4594C8.95253 12.1996 8.89376 11.8834 8.95803 11.5803C9.0223 11.2772 9.20434 11.012 9.4641 10.8432L18.3344 5.09469C18.4631 5.01107 18.6069 4.9536 18.7577 4.92557C18.9086 4.89754 19.0634 4.89949 19.2135 4.93131C19.3636 4.96313 19.5059 5.02421 19.6324 5.11104C19.7589 5.19787 19.867 5.30876 19.9506 5.43739C20.0343 5.56601 20.0917 5.70984 20.1198 5.86068C20.1478 6.01151 20.1458 6.16639 20.114 6.31646C20.0822 6.46654 20.0211 6.60888 19.9343 6.73536C19.8475 6.86184 19.7366 6.96997 19.6079 7.05359V7.03148Z" fill="#AA7DFF"/>
<path d="M7.74846 14.7433L1.81428 18.6213C1.55158 18.7902 1.23255 18.8478 0.927384 18.7814C0.622214 18.7151 0.355897 18.5302 0.18702 18.2675C0.0181426 18.0048 -0.0394616 17.6858 0.0268797 17.3806C0.093221 17.0755 0.278073 16.8092 0.540772 16.6403L6.47496 12.7844C6.60358 12.7008 6.74741 12.6433 6.89825 12.6153C7.04908 12.5872 7.20395 12.5892 7.35403 12.621C7.50411 12.6528 7.64645 12.7139 7.77293 12.8007C7.89941 12.8876 8.00754 12.9985 8.09116 13.1271C8.17478 13.2557 8.23225 13.3995 8.26028 13.5504C8.28831 13.7012 8.28636 13.8561 8.25454 14.0062C8.22272 14.1562 8.16164 14.2986 8.07481 14.4251C7.98798 14.5515 7.87709 14.6597 7.74846 14.7433Z" fill="#6750A4"/>
<path d="M22.2878 5.29366L22.2303 5.32903C22.1017 5.41265 21.9578 5.47012 21.807 5.49815C21.6562 5.52618 21.5013 5.52423 21.3512 5.49241C21.2011 5.46059 21.0588 5.39952 20.9323 5.31269C20.8058 5.22585 20.6977 5.11496 20.6141 4.98634C20.5305 4.85771 20.473 4.71388 20.445 4.56305C20.4169 4.41222 20.4189 4.25734 20.4507 4.10726C20.4825 3.95718 20.5436 3.81484 20.6304 3.68836C20.7173 3.56189 20.8282 3.45375 20.9568 3.37013L21.0143 3.33476C21.274 3.16588 21.5902 3.10711 21.8933 3.17138C22.1964 3.23565 22.4616 3.41769 22.6305 3.67746C22.7993 3.93722 22.8581 4.25344 22.7938 4.55653C22.7296 4.85963 22.5475 5.12478 22.2878 5.29366Z" fill="#FF9D23"/>
<path opacity="0.5" d="M23.327 12.749L14.4522 18.5196C14.1922 18.6689 13.8849 18.7129 13.5935 18.6425C13.302 18.5721 13.0486 18.3927 12.8855 18.1412C12.7223 17.8896 12.6618 17.5851 12.7163 17.2903C12.7709 16.9955 12.9364 16.7328 13.1787 16.5563L22.0535 10.8078C22.3132 10.6389 22.6294 10.5802 22.9325 10.6444C23.2356 10.7087 23.5008 10.8907 23.6697 11.1505C23.8385 11.4103 23.8973 11.7265 23.833 12.0296C23.7688 12.3327 23.5867 12.5978 23.327 12.7667V12.749Z" fill="#6750A4"/>
<path opacity="0.5" d="M11.4667 20.4609L5.53253 24.3168C5.27277 24.4857 4.95655 24.5444 4.65346 24.4802C4.35036 24.4159 4.08521 24.2338 3.91633 23.9741C3.74745 23.7143 3.68868 23.3981 3.75295 23.095C3.81722 22.7919 3.99926 22.5268 4.25903 22.3579L10.1799 18.4976C10.4399 18.3482 10.7473 18.3042 11.0387 18.3746C11.3302 18.445 11.5835 18.6245 11.7467 18.876C11.9098 19.1275 11.9704 19.432 11.9158 19.7269C11.8613 20.0217 11.6958 20.2844 11.4535 20.4609H11.4667Z" fill="#AA7DFF"/>
<path opacity="0.5" d="M26.0024 11.0112L25.9493 11.0466C25.6893 11.1959 25.382 11.2399 25.0905 11.1695C24.7991 11.0991 24.5457 10.9197 24.3826 10.6681C24.2194 10.4166 24.1589 10.1121 24.2134 9.81726C24.268 9.52244 24.4334 9.25975 24.6758 9.08324L24.7288 9.04786C24.8575 8.95413 25.004 8.8876 25.1593 8.85235C25.3145 8.8171 25.4753 8.81386 25.6319 8.84282C25.7885 8.87179 25.9375 8.93235 26.0698 9.02082C26.2022 9.10929 26.3152 9.22381 26.4018 9.35739C26.4885 9.49096 26.547 9.64079 26.5738 9.79773C26.6006 9.95467 26.5951 10.1154 26.5578 10.2702C26.5204 10.425 26.4519 10.5705 26.3564 10.6979C26.2609 10.8253 26.1404 10.9319 26.0024 11.0112Z" fill="#FF9D23"/>
<path opacity="0.15" d="M20.5382 4.12056L6.25808 19.1383C4.22543 21.276 4.22543 24.7418 6.25808 26.8794C8.29074 29.0171 11.5863 29.0171 13.619 26.8794L27.8991 11.8617C29.9318 9.72403 29.9318 6.25821 27.8991 4.12056C25.8665 1.98291 22.5709 1.98291 20.5382 4.12056Z" fill="#F7AFA3"/>
<path d="M22.4132 4.2241L22.3944 4.64887C22.3765 5.06806 22.4996 5.48048 22.7421 5.81369L22.9878 6.15088C23.2299 6.48391 23.3527 6.89594 23.3348 7.31471C23.3169 7.73348 23.1594 8.13225 22.8899 8.44111L22.6172 8.75421C22.3472 9.06328 22.1895 9.46254 22.1716 9.88182L22.1529 10.3066C22.1347 10.7255 21.9768 11.1243 21.7069 11.433C21.4369 11.7417 21.0722 11.9406 20.6768 11.9947L20.2771 12.0494C19.8813 12.1037 19.5164 12.3029 19.2465 12.6121L18.9737 12.9165C18.7037 13.2253 18.3389 13.4242 17.9433 13.4783C17.5477 13.5323 17.1466 13.4381 16.8106 13.2121L16.4712 12.9931C16.1353 12.7668 15.7343 12.6723 15.3386 12.726L14.9368 12.7632C14.5415 12.8169 14.1409 12.7226 13.8052 12.4969C13.4694 12.2711 13.2199 11.9282 13.1005 11.5283L12.9797 11.1233C12.8603 10.7227 12.6104 10.3793 12.2739 10.1533L11.9346 9.93436C11.5985 9.70821 11.349 9.36476 11.2298 8.96434C11.1106 8.56392 11.1294 8.13214 11.2829 7.74485L11.437 7.35292C11.5901 6.96548 11.6086 6.53367 11.489 6.13336L11.3683 5.7283C11.2487 5.32872 11.2666 4.89763 11.4189 4.51054C11.5711 4.12344 11.848 3.80502 12.2011 3.61104L12.5592 3.41617C12.9129 3.22316 13.1908 2.90535 13.3441 2.51847L13.4981 2.12654C13.6515 1.73939 13.9296 1.42141 14.2837 1.22842C14.6378 1.03543 15.0452 0.979767 15.4344 1.07119L15.8362 1.15878C16.2257 1.25024 16.6333 1.19442 16.9875 1.00113L17.3456 0.806263C17.7002 0.614063 18.1079 0.559411 18.497 0.651908C18.8862 0.744404 19.2319 0.978133 19.4734 1.31204L19.7253 1.64923C19.9679 1.98236 20.3144 2.21493 20.7039 2.30608L21.0973 2.39804C21.4856 2.4916 21.8302 2.72581 22.0707 3.05966C22.3113 3.39351 22.4325 3.80572 22.4132 4.2241Z" fill="white"/>
<path d="M25.5732 11.6226C25.3142 11.6226 25.061 11.5418 24.8457 11.3905C24.6303 11.2392 24.4625 11.0241 24.3634 10.7724C24.2642 10.5208 24.2383 10.2439 24.2888 9.97671C24.3394 9.70956 24.4641 9.46416 24.6472 9.27155C24.8304 9.07895 25.0637 8.94778 25.3178 8.89464C25.5718 8.8415 25.8351 8.86878 26.0744 8.97301C26.3137 9.07725 26.5182 9.25377 26.6621 9.48025C26.806 9.70673 26.8828 9.973 26.8828 10.2454C26.8822 10.6105 26.7441 10.9604 26.4986 11.2186C26.2532 11.4767 25.9204 11.622 25.5732 11.6226ZM25.5732 9.52285C25.4378 9.52285 25.3053 9.56509 25.1927 9.64425C25.08 9.7234 24.9922 9.8359 24.9404 9.96753C24.8886 10.0992 24.875 10.244 24.9014 10.3837C24.9279 10.5235 24.9931 10.6518 25.0889 10.7526C25.1847 10.8533 25.3067 10.9219 25.4396 10.9497C25.5725 10.9775 25.7102 10.9632 25.8354 10.9087C25.9605 10.8542 26.0675 10.7619 26.1428 10.6434C26.218 10.5249 26.2582 10.3857 26.2582 10.2432C26.2571 10.0527 26.1845 9.87038 26.0562 9.73588C25.928 9.60139 25.7544 9.52561 25.5732 9.52504V9.52285Z" fill="#F5A8A0"/>
<path d="M17.079 13.4399L13.04 22.8482L12.2093 20.385L9.90039 21.3572L13.5459 12.5706" fill="#D5DFEB"/>
<path d="M17.1919 13.4399L21.2288 22.8482L22.0616 20.385L24.3705 21.3572L20.3315 11.9488" fill="#D5DFEB"/>
<path d="M20.417 5.20293L20.4045 5.481C20.3926 5.75515 20.4729 6.02493 20.6314 6.24295L20.7917 6.46191C20.9499 6.67976 21.0302 6.94922 21.0184 7.22306C21.0066 7.4969 20.9035 7.75763 20.7272 7.95954L20.5586 8.16535C20.3823 8.36701 20.2791 8.62743 20.2671 8.90103L20.2546 9.1791C20.2407 9.45123 20.1368 9.70969 19.9607 9.90964C19.7846 10.1096 19.5476 10.2385 19.2906 10.2739L19.0283 10.3089C18.77 10.3447 18.532 10.4749 18.3558 10.6767L18.1768 10.8804C18.0002 11.082 17.7617 11.2117 17.5033 11.247C17.2448 11.2822 16.9828 11.2206 16.7631 11.073L16.5403 10.9241C16.3203 10.7766 16.0579 10.7154 15.7992 10.7512L15.5285 10.7928C15.2699 10.828 15.0078 10.7663 14.7881 10.6186C14.5685 10.4708 14.4053 10.2465 14.3272 9.98484L14.2481 9.71991C14.17 9.45876 14.0072 9.23478 13.788 9.08714L13.5652 8.93825C13.3476 8.7889 13.1868 8.564 13.1107 8.30272C13.0346 8.04145 13.0481 7.76038 13.1488 7.5085L13.2508 7.25232C13.347 6.99682 13.3544 6.71381 13.2716 6.45315L13.1967 6.19478C13.119 5.93323 13.1312 5.65124 13.2313 5.39824C13.3314 5.14523 13.513 4.93735 13.7443 4.81101L13.9795 4.68402C14.2112 4.55805 14.3932 4.35029 14.4938 4.09723L14.5958 3.84105C14.6961 3.58804 14.878 3.38026 15.1095 3.25415C15.3409 3.12804 15.6072 3.09165 15.8616 3.15135L16.1198 3.21266C16.374 3.27219 16.6401 3.23576 16.8714 3.10975L17.1066 2.98276C17.338 2.8568 17.6041 2.82047 17.8584 2.88011C18.1127 2.93976 18.3389 3.09158 18.4974 3.309L18.6577 3.52795C18.8149 3.74877 19.0413 3.90391 19.2969 3.96585L19.555 4.02716C19.8061 4.08749 20.0295 4.2378 20.1867 4.45232C20.344 4.66684 20.4254 4.93221 20.417 5.20293Z" fill="#F5A8A0"/>
<path d="M13.0067 23.7283L12.024 20.8163L9.30908 21.9614L13.2586 12.4392L13.8311 12.7019L10.4916 20.755L12.3946 19.9514L13.0754 21.9701L16.7938 13.3062L17.3642 13.5755L13.0067 23.7283Z" fill="#3E6177"/>
<path d="M21.2638 23.7283L16.9062 13.5756L17.4746 13.3062L21.1951 21.9702L21.8759 19.9514L23.7664 20.7484L20.0459 12.0845L20.6142 11.8152L24.9718 21.9658L22.2465 20.8163L21.2638 23.7283Z" fill="#3E6177"/>
<path d="M17.5165 13.8231C17.1328 13.8235 16.757 13.708 16.4339 13.4902L16.0945 13.2713C15.8203 13.0866 15.4931 13.0091 15.1701 13.0523L14.7704 13.1071C14.3021 13.1715 13.8271 13.0601 13.4292 12.7926C13.0312 12.5251 12.7357 12.1185 12.5947 11.6445L12.474 11.2307C12.3764 10.9045 12.1731 10.6247 11.8993 10.4402L11.56 10.2213C11.1618 9.95434 10.866 9.54815 10.7247 9.07431C10.5834 8.60046 10.6056 8.08937 10.7876 7.6311L10.9416 7.23917C11.0677 6.91971 11.0817 6.56351 10.9812 6.23418L10.8604 5.82912C10.7187 5.35492 10.7408 4.84331 10.9229 4.3846C11.105 3.9259 11.4353 3.5496 11.8556 3.32212L12.2137 3.12945C12.5031 2.97117 12.7301 2.71068 12.855 2.39377L13.009 2.00184C13.1898 1.54329 13.5185 1.16649 13.9375 0.937801C14.3564 0.709108 14.8386 0.643181 15.2992 0.751629L15.6927 0.843589C16.0103 0.920483 16.3436 0.877064 16.6337 0.720976L16.9918 0.526109C17.4109 0.294661 17.8943 0.226611 18.3566 0.334006C18.8188 0.4414 19.2299 0.717312 19.5173 1.1129L19.7629 1.45009C19.96 1.72144 20.2415 1.91131 20.5583 1.98652L20.9518 2.07848C21.4127 2.18623 21.8228 2.46165 22.1096 2.85619C22.3964 3.25073 22.5415 3.73907 22.5195 4.23515L22.4987 4.66211C22.4839 5.00401 22.5842 5.34045 22.7818 5.61236L23.0275 5.94955C23.3151 6.3437 23.4611 6.832 23.4398 7.32832C23.4184 7.82464 23.2311 8.29709 22.9109 8.66236L22.6402 8.97327C22.4199 9.22532 22.2909 9.55086 22.2759 9.89287L22.2572 10.3176C22.2365 10.8138 22.05 11.2864 21.7304 11.6521C21.4108 12.0179 20.9788 12.2532 20.5104 12.3167L20.1106 12.3714C19.7908 12.4172 19.4962 12.579 19.2778 12.829L19.0051 13.1421C18.8158 13.3585 18.5856 13.5308 18.3293 13.6481C18.0729 13.7654 17.7961 13.825 17.5165 13.8231ZM15.3533 12.3758C15.737 12.3758 16.1127 12.4913 16.436 12.7086L16.7753 12.9275C17.0492 13.112 17.3762 13.1889 17.6987 13.1449C18.0213 13.1008 18.3187 12.9386 18.5387 12.6867L18.8115 12.3736C19.1325 12.0112 19.5643 11.7787 20.0315 11.7167L20.4271 11.6686C20.7497 11.6246 21.0472 11.4624 21.2673 11.2105C21.4874 10.9586 21.616 10.6331 21.6305 10.2914L21.6492 9.86659C21.6712 9.37062 21.8584 8.8986 22.178 8.53318L22.4508 8.22008C22.6715 7.96837 22.8007 7.64279 22.8156 7.30072C22.8304 6.95865 22.73 6.62205 22.532 6.35023L22.2863 6.00866C21.9974 5.61475 21.85 5.12628 21.8699 4.62927L21.8886 4.2045C21.9038 3.86257 21.8037 3.52599 21.606 3.25404C21.4084 2.98208 21.1258 2.7922 20.8081 2.71782L20.4146 2.62586C19.954 2.51764 19.5442 2.24249 19.257 1.84858L19.0176 1.51139C18.82 1.23944 18.5376 1.0495 18.22 0.97501C17.9024 0.900516 17.5699 0.946243 17.2812 1.10414L16.9231 1.29901C16.504 1.52692 16.0221 1.59279 15.5615 1.48512L15.1659 1.39316C14.8484 1.31797 14.5158 1.36306 14.2267 1.52046C13.9376 1.67787 13.7106 1.93751 13.5857 2.25364L13.4317 2.64556C13.2499 3.10421 12.9205 3.48094 12.501 3.70967L12.1429 3.90454C11.854 4.06191 11.6271 4.32144 11.5021 4.63744C11.3772 4.95343 11.3623 5.30564 11.46 5.63207L11.5808 6.03713C11.7214 6.51092 11.6993 7.02162 11.5183 7.48002L11.3643 7.87194C11.2393 8.18779 11.2242 8.53988 11.3217 8.86628C11.4191 9.19267 11.623 9.47245 11.8972 9.6564L12.2366 9.87535C12.6334 10.1434 12.9282 10.5494 13.0694 11.0227L13.1902 11.4496C13.2874 11.7762 13.491 12.0562 13.7652 12.2404C14.0394 12.4247 14.3666 12.5013 14.6892 12.4568L15.0889 12.4021C15.1764 12.3871 15.2647 12.3784 15.3533 12.3758Z" fill="#3E6177"/>
<path d="M17.3502 11.5941C17.0786 11.5941 16.8126 11.512 16.584 11.3576L16.3613 11.2087C16.2036 11.1033 16.0158 11.0591 15.8304 11.0839L15.5618 11.1189C15.2305 11.1643 14.8945 11.0853 14.6131 10.8959C14.3317 10.7064 14.1228 10.4187 14.0232 10.0833L13.9441 9.81836C13.8881 9.63037 13.7709 9.46914 13.6131 9.36294L13.3903 9.21406C13.1108 9.02319 12.904 8.73501 12.8062 8.39996C12.7084 8.06492 12.7257 7.70437 12.8552 7.38143L12.9572 7.12525C13.029 6.94373 13.0379 6.74147 12.9822 6.55379L12.9031 6.28886C12.803 5.95367 12.8184 5.59209 12.9468 5.26771C13.0751 4.94333 13.3081 4.67693 13.6047 4.51535L13.84 4.38836C14.0061 4.29726 14.1366 4.1477 14.2085 3.96578L14.3126 3.70742C14.4419 3.38418 14.6753 3.11918 14.9719 2.95901C15.2686 2.79884 15.6094 2.75373 15.9345 2.83161L16.1926 2.89291C16.3758 2.93585 16.5675 2.90949 16.7339 2.81847L16.9588 2.69148C17.2552 2.52965 17.5963 2.48287 17.9223 2.55935C18.2482 2.63583 18.5381 2.83069 18.741 3.10968L18.9013 3.32863C19.0155 3.48511 19.1783 3.59439 19.3614 3.63735L19.6196 3.69866C19.9468 3.77524 20.2377 3.97113 20.4408 4.25164C20.6439 4.53215 20.7461 4.87919 20.7293 5.23132L20.7168 5.50939C20.7082 5.70622 20.7657 5.89996 20.8792 6.05677L21.0395 6.27572C21.2428 6.55487 21.3459 6.90052 21.3307 7.25179C21.3155 7.60306 21.1828 7.9374 20.9562 8.19593L20.7771 8.39955C20.6507 8.54497 20.577 8.73256 20.5689 8.92942L20.5585 9.19216C20.5436 9.54328 20.4115 9.87763 20.1853 10.1363C19.959 10.3951 19.6533 10.5616 19.3218 10.6066L19.0595 10.6416C18.8739 10.6676 18.7029 10.7613 18.5765 10.9066L18.3974 11.1102C18.2643 11.2628 18.1025 11.3846 17.9222 11.4679C17.7419 11.5512 17.5471 11.5942 17.3502 11.5941ZM15.9324 10.4205C16.204 10.4209 16.4698 10.5029 16.6986 10.6569L16.9213 10.8058C17.079 10.9124 17.2674 10.957 17.4533 10.9318C17.6391 10.9066 17.8106 10.8131 17.9373 10.6679L18.1164 10.4643C18.3429 10.2055 18.6488 10.0389 18.9804 9.99352L19.2427 9.95849C19.4289 9.9328 19.6003 9.8387 19.7268 9.69284C19.8533 9.54699 19.9267 9.35877 19.9339 9.16151L19.9464 8.88344C19.9629 8.53491 20.0947 8.2034 20.3191 7.94632L20.4982 7.7427C20.6249 7.59782 20.6989 7.41059 20.7073 7.21395C20.7157 7.01731 20.6578 6.82386 20.544 6.66764L20.3837 6.44869C20.1803 6.16937 20.0771 5.8236 20.0922 5.47217L20.1047 5.1941C20.1134 4.99682 20.0555 4.80264 19.9412 4.64596C19.8269 4.48927 19.6635 4.38018 19.4801 4.338L19.2219 4.27669C18.8961 4.19938 18.6065 4.00407 18.4037 3.72493L18.2434 3.50598C18.1297 3.34942 17.9671 3.24009 17.7843 3.19723C17.6015 3.15437 17.4102 3.18074 17.244 3.2717L17.0192 3.39212C16.7225 3.55363 16.3812 3.60014 16.0552 3.5235L15.7971 3.46219C15.6143 3.41917 15.423 3.44518 15.2566 3.53566C15.0903 3.62614 14.9595 3.77531 14.8872 3.95702L14.779 4.22414C14.6505 4.54862 14.4176 4.81524 14.1211 4.97734L13.8962 5.09995C13.7298 5.19039 13.5991 5.33968 13.5271 5.52152C13.4552 5.70337 13.4465 5.9061 13.5027 6.09399L13.5818 6.35892C13.6814 6.69391 13.6659 7.05503 13.5381 7.37924L13.4361 7.63541C13.3641 7.81709 13.3553 8.01966 13.4112 8.20749C13.4672 8.39532 13.5844 8.55637 13.7422 8.6623L13.9649 8.81118C14.2466 9.00057 14.4559 9.28813 14.5562 9.6235L14.6353 9.88843C14.6914 10.0761 14.8085 10.2371 14.9661 10.3431C15.1237 10.4492 15.3117 10.4936 15.4973 10.4686L15.7596 10.4336C15.8169 10.4255 15.8746 10.4211 15.9324 10.4205Z" fill="#3E6177"/>
<path d="M9.03052 19.1479C8.74886 19.1479 8.47353 19.0601 8.23935 18.8955C8.00516 18.731 7.82263 18.4971 7.71485 18.2234C7.60706 17.9498 7.57886 17.6486 7.63381 17.3581C7.68876 17.0676 7.82439 16.8008 8.02355 16.5913C8.22271 16.3819 8.47645 16.2392 8.75269 16.1815C9.02894 16.1237 9.31527 16.1533 9.57549 16.2667C9.8357 16.38 10.0581 16.572 10.2146 16.8183C10.3711 17.0646 10.4546 17.3541 10.4546 17.6503C10.454 18.0473 10.3038 18.4279 10.0369 18.7087C9.76993 18.9894 9.40803 19.1474 9.03052 19.1479ZM9.03052 16.8095C8.87239 16.8095 8.71782 16.8588 8.58635 16.9512C8.45488 17.0436 8.35241 17.1749 8.29189 17.3286C8.23138 17.4822 8.21555 17.6512 8.2464 17.8143C8.27725 17.9774 8.35339 18.1272 8.4652 18.2448C8.57701 18.3624 8.71946 18.4425 8.87455 18.4749C9.02963 18.5074 9.19038 18.4907 9.33646 18.4271C9.48255 18.3635 9.60741 18.2557 9.69526 18.1174C9.78311 17.9792 9.82999 17.8166 9.82999 17.6503C9.82944 17.4277 9.74497 17.2144 9.5951 17.0572C9.44523 16.9 9.24219 16.8117 9.03052 16.8117V16.8095Z" fill="#3E6177"/>
<path d="M15.7552 22.2023C16.0932 22.2023 16.3673 21.9141 16.3673 21.5586C16.3673 21.203 16.0932 20.9148 15.7552 20.9148C15.4171 20.9148 15.1431 21.203 15.1431 21.5586C15.1431 21.9141 15.4171 22.2023 15.7552 22.2023Z" fill="#F5A8A0"/>
<path d="M11.531 2.09604C11.8691 2.09604 12.1431 1.80784 12.1431 1.45232C12.1431 1.09681 11.8691 0.808604 11.531 0.808604C11.193 0.808604 10.9189 1.09681 10.9189 1.45232C10.9189 1.80784 11.193 2.09604 11.531 2.09604Z" fill="#F5A8A0"/>
<path d="M23.9812 4.90063C24.3193 4.90063 24.5933 4.61243 24.5933 4.25691C24.5933 3.90139 24.3193 3.61319 23.9812 3.61319C23.6432 3.61319 23.3691 3.90139 23.3691 4.25691C23.3691 4.61243 23.6432 4.90063 23.9812 4.90063Z" fill="#D5DFEB"/>
<g opacity="0.3">
<path opacity="0.3" d="M15.0273 7.1295L17.1391 4.79083L17.592 5.24315L15.4803 7.58182L15.0273 7.1295Z" fill="#3E6177"/>
<path opacity="0.3" d="M16.4712 7.48258L17.8057 5.96222L18.2646 6.40775L16.9301 7.92812L16.4712 7.48258Z" fill="#3E6177"/>
</g>
<path d="M13.8599 16.8285L15.16 13.8544L15.5383 14.0373L14.2382 17.0114L13.8599 16.8285Z" fill="white"/>
<path d="M13.1177 18.5283L13.6751 17.2531L14.0535 17.436L13.496 18.7112L13.1177 18.5283Z" fill="white"/>
<path d="M12.7456 19.3744L12.9319 18.9487L13.3101 19.1318L13.1239 19.5574L12.7456 19.3744Z" fill="white"/>
<path d="M23.54 19.5706H23.9564V22.3491H23.54V19.5706Z" fill="white"/>
<path d="M23.54 22.7455H23.9564V23.9366H23.54V22.7455Z" fill="white"/>
<path d="M23.54 24.3329H23.9564V24.7292H23.54V24.3329Z" fill="white"/>
<path d="M23.3938 24.878C26.403 24.878 28.8424 22.3126 28.8424 19.148C28.8424 15.9834 26.403 13.418 23.3938 13.418C20.3847 13.418 17.9453 15.9834 17.9453 19.148C17.9453 22.3126 20.3847 24.878 23.3938 24.878Z" fill="white"/>
<path d="M23.5831 23.7963C26.0242 23.7963 28.0032 21.7151 28.0032 19.1479C28.0032 16.5807 26.0242 14.4996 23.5831 14.4996C21.142 14.4996 19.1631 16.5807 19.1631 19.1479C19.1631 21.7151 21.142 23.7963 23.5831 23.7963Z" fill="#F5A8A0"/>
<path d="M23.394 24.1247C22.458 24.1247 21.543 23.8328 20.7648 23.2859C19.9866 22.7391 19.38 21.9618 19.0218 21.0524C18.6637 20.143 18.57 19.1424 18.7526 18.177C18.9352 17.2116 19.3859 16.3248 20.0477 15.6288C20.7095 14.9328 21.5527 14.4588 22.4707 14.2668C23.3887 14.0747 24.3402 14.1733 25.2049 14.55C26.0697 14.9266 26.8087 15.5645 27.3287 16.383C27.8487 17.2014 28.1263 18.1636 28.1263 19.1479C28.1246 20.4673 27.6255 21.7321 26.7384 22.6651C25.8513 23.598 24.6485 24.1229 23.394 24.1247ZM23.394 14.8258C22.5815 14.8258 21.7873 15.0792 21.1118 15.5538C20.4363 16.0285 19.9098 16.7032 19.5989 17.4926C19.288 18.2819 19.2066 19.1505 19.3651 19.9885C19.5236 20.8265 19.9149 21.5962 20.4893 22.2004C21.0638 22.8045 21.7957 23.2159 22.5926 23.3826C23.3894 23.5493 24.2153 23.4638 24.9659 23.1368C25.7165 22.8098 26.358 22.2561 26.8094 21.5457C27.2608 20.8353 27.5017 20.0001 27.5017 19.1457C27.4995 18.0009 27.0659 16.9037 26.296 16.0944C25.5261 15.2851 24.4825 14.8297 23.394 14.828V14.8258Z" fill="#3E6177"/>
<path d="M22.994 21.2236C22.912 21.2233 22.832 21.1966 22.765 21.1469L21.1681 19.9712C21.1002 19.9212 21.0539 19.8449 21.0395 19.7591C21.025 19.6733 21.0436 19.585 21.0911 19.5135C21.1385 19.4421 21.2111 19.3935 21.2927 19.3783C21.3743 19.3631 21.4583 19.3826 21.5262 19.4325L22.944 20.4769L25.2613 17.2277C25.2859 17.1932 25.3167 17.1641 25.352 17.1421C25.3873 17.1202 25.4263 17.1057 25.4669 17.0996C25.5075 17.0935 25.5489 17.0959 25.5886 17.1066C25.6283 17.1173 25.6657 17.1361 25.6985 17.162C25.7313 17.1879 25.7589 17.2203 25.7798 17.2574C25.8007 17.2945 25.8144 17.3356 25.8202 17.3783C25.826 17.421 25.8238 17.4645 25.8136 17.5063C25.8034 17.548 25.7855 17.5873 25.7609 17.6218L23.3146 21.0528C23.2775 21.1056 23.2292 21.1485 23.1736 21.1782C23.1179 21.2079 23.0564 21.2234 22.994 21.2236Z" fill="white"/>
</svg>
