<svg width="24" height="25" viewBox="0 0 24 25" fill="none" xmlns="http://www.w3.org/2000/svg">
<path d="M11.3052 22.125C12.4052 22.125 13.3052 21.225 13.3052 20.125H9.30518C9.30518 21.225 10.2052 22.125 11.3052 22.125ZM11.3052 6.625C13.7952 6.625 15.3052 8.645 15.3052 11.125V11.225L17.3052 13.225V11.125C17.3052 8.055 15.6752 5.485 12.8052 4.805V4.125C12.8052 3.295 12.1352 2.625 11.3052 2.625C10.4752 2.625 9.80518 3.295 9.80518 4.125V4.805C9.56518 4.865 9.33518 4.955 9.11518 5.035L10.7552 6.675C10.9352 6.655 11.1152 6.625 11.3052 6.625ZM4.71518 3.475L3.30518 4.885L6.11518 7.695C5.59518 8.695 5.30518 9.865 5.30518 11.125V16.125L3.30518 18.125V19.125H17.5452L19.2852 20.865L20.6952 19.455L4.71518 3.475ZM15.3052 17.125H7.30518V11.125C7.30518 10.445 7.42518 9.805 7.64518 9.225L15.3052 16.885V17.125Z" fill="#49454E"/>
</svg>
