<svg width="24" height="25" viewBox="0 0 24 25" fill="none" xmlns="http://www.w3.org/2000/svg">
<path d="M10.01 21.635C10.01 22.735 10.9 23.625 12 23.625C13.1 23.625 13.99 22.735 13.99 21.635H10.01ZM12 6.625C14.76 6.625 17 8.865 17 11.625V18.625H7V11.625C7 8.865 9.24 6.625 12 6.625ZM12 2.125C11.17 2.125 10.5 2.795 10.5 3.625V4.795C7.36 5.475 5 8.275 5 11.625V17.625L3 19.625V20.625H21V19.625L19 17.625V11.625C19 8.275 16.64 5.475 13.5 4.795V3.625C13.5 2.795 12.83 2.125 12 2.125ZM11 8.625H13V12.625H11V8.625ZM11 14.625H13V16.625H11V14.625Z" fill="black"/>
</svg>
