<svg width="32" height="28" viewBox="0 0 32 28" fill="none" xmlns="http://www.w3.org/2000/svg">
<path d="M31.8471 26.5152C31.8459 26.8951 31.6944 27.2592 31.4258 27.5279C31.1572 27.7966 30.7933 27.9481 30.4134 27.9495H1.43097C1.05578 27.942 0.698483 27.7877 0.435797 27.5197C0.173111 27.2517 0.025975 26.8913 0.025975 26.5161C0.025975 26.1408 0.173111 25.7805 0.435797 25.5125C0.698483 25.2445 1.05578 25.0902 1.43097 25.0826H7.53883C7.91403 25.0751 8.27132 24.9208 8.534 24.6528C8.79669 24.3848 8.94383 24.0245 8.94383 23.6492C8.94383 23.2739 8.79669 22.9136 8.534 22.6456C8.27132 22.3776 7.91403 22.2233 7.53883 22.2158H1.01427C0.68607 22.1154 0.404782 21.9005 0.221514 21.6104C0.0382456 21.3202 -0.0348429 20.9739 0.0155279 20.6344C0.0658988 20.2949 0.236387 19.9847 0.496015 19.7602C0.755643 19.5357 1.08718 19.4119 1.4304 19.4111H14.4548C14.83 19.4035 15.1873 19.2492 15.4499 18.9812C15.7126 18.7132 15.8598 18.3529 15.8598 17.9776C15.8598 17.6023 15.7126 17.242 15.4499 16.974C15.1873 16.706 14.83 16.5517 14.4548 16.5442H7.85078C7.47559 16.5367 7.11829 16.3823 6.85561 16.1143C6.59292 15.8463 6.44579 15.486 6.44579 15.1108C6.44579 14.7355 6.59292 14.3752 6.85561 14.1072C7.11829 13.8392 7.47559 13.6848 7.85078 13.6773H23.9935C24.3687 13.6848 24.726 13.8392 24.9887 14.1072C25.2514 14.3752 25.3985 14.7355 25.3985 15.1108C25.3985 15.486 25.2514 15.8463 24.9887 16.1143C24.726 16.3823 24.3687 16.5367 23.9935 16.5442H20.3784C20.0033 16.5517 19.646 16.706 19.3833 16.974C19.1206 17.242 18.9734 17.6023 18.9734 17.9776C18.9734 18.3529 19.1206 18.7132 19.3833 18.9812C19.646 19.2492 20.0033 19.4035 20.3784 19.4111H30.4134C30.7886 19.4186 31.1458 19.5729 31.4085 19.8409C31.6712 20.1089 31.8184 20.4692 31.8184 20.8445C31.8184 21.2198 31.6712 21.5801 31.4085 21.8481C31.1458 22.1161 30.7886 22.2704 30.4134 22.2779H30.0197C29.8848 22.2366 29.7446 22.2157 29.6035 22.2158H13.4602C13.0804 22.2171 12.7165 22.3686 12.4479 22.6372C12.1793 22.9058 12.0278 23.2697 12.0265 23.6495C12.0278 24.0293 12.1793 24.3932 12.4479 24.6618C12.7165 24.9304 13.0804 25.0818 13.4602 25.0832H30.4134C30.7929 25.0846 31.1565 25.2358 31.425 25.504C31.6936 25.7722 31.8453 26.1357 31.8471 26.5152Z" fill="url(#paint0_linear_4100_174762)"/>
<path d="M4.69092 12.1443L6.28264 9.75583L7.38387 10.9492L9.08459 9.09058L12.6551 9.95879L15.35 7.07228C15.35 7.07228 16.1919 7.88787 16.2483 7.82397C16.3046 7.76008 18.2534 5.33961 18.2534 5.33961" stroke="#202020" stroke-width="0.406793" stroke-linecap="round" stroke-linejoin="round"/>
<path d="M18.1062 5.88458C18.3636 5.88458 18.5722 5.67592 18.5722 5.41853C18.5722 5.16113 18.3636 4.95248 18.1062 4.95248C17.8488 4.95248 17.6401 5.16113 17.6401 5.41853C17.6401 5.67592 17.8488 5.88458 18.1062 5.88458Z" fill="#202020"/>
<path d="M2.76074 2.26518V14.982H20.5459V2.26518H2.76074ZM19.8261 14.2435H3.47673V3.00372H19.8261V14.2435Z" fill="#F59B79"/>
<path d="M17.9052 14.2434H3.47266V14.4389H17.9052V14.2434Z" fill="#F06733"/>
<path d="M3.03135 2.26518H2.76074V14.9801H3.03135V2.26518Z" fill="#FFC4AD"/>
<path d="M3.92946 3.07513H3.53857V14.1645H3.92946V3.07513Z" fill="#EBE0FD"/>
<path d="M19.7998 3.46602V3.07513L3.71913 3.07513V3.46602L19.7998 3.46602Z" fill="#EBE0FD"/>
<path d="M2.76074 12.9468V10.1148" stroke="black" stroke-width="0.406793" stroke-linecap="round" stroke-linejoin="round"/>
<path d="M2.76074 4.62551V2.26518H20.5459V14.982H2.76074V13.5106" stroke="black" stroke-width="0.406793" stroke-linecap="round" stroke-linejoin="round"/>
<path d="M2.76074 9.2541V6.14207" stroke="black" stroke-width="0.406793" stroke-linecap="round" stroke-linejoin="round"/>
<path d="M19.828 3.00372H3.48047V14.2435H19.828V3.00372Z" stroke="black" stroke-width="0.406793" stroke-linecap="round" stroke-linejoin="round"/>
<path d="M30.4665 15.4744H17.791V6.75093L19.1272 6.563H30.6544L30.4665 15.4744Z" fill="#BBF0F9"/>
<path d="M30.4665 15.4743H17.791V15.0064H19.1272H30.4665V15.4743Z" fill="#3ACDDD"/>
<path d="M19.377 9.31798L19.4315 6.7453H29.164" stroke="white" stroke-width="1.08478" stroke-linecap="round" stroke-linejoin="round"/>
<path d="M19.0724 15.4744H17.8452V6.79603L19.2603 6.563L19.0724 15.4744Z" fill="#3ACDDD"/>
<path d="M18.1479 7.75446C18.1863 7.64394 18.2302 7.53543 18.2795 7.42935C18.3237 7.319 18.394 7.221 18.4843 7.14371C18.4317 7.24708 18.3733 7.34746 18.3096 7.44439C18.2513 7.54586 18.2006 7.64922 18.1479 7.75446Z" fill="black"/>
<path d="M18.0786 7.5665C18.0956 7.46732 18.1214 7.36985 18.1557 7.27522C18.183 7.17581 18.2385 7.08642 18.3154 7.01776C18.2781 7.11039 18.2355 7.20075 18.1876 7.28837C18.1462 7.37836 18.1117 7.47133 18.0843 7.5665H18.0786Z" fill="black"/>
<path d="M18.5708 14.9952C18.5199 14.8899 18.4747 14.782 18.4355 14.6719C18.3892 14.5648 18.3692 14.4482 18.3772 14.3318C18.4136 14.4421 18.4437 14.5544 18.4674 14.6682C18.4975 14.779 18.5351 14.8899 18.5727 15.0008L18.5708 14.9952Z" fill="black"/>
<path d="M18.3922 14.9125C18.3321 14.8312 18.2811 14.7436 18.24 14.6512C18.1882 14.5619 18.1641 14.4593 18.1704 14.3562C18.2083 14.4476 18.2409 14.5411 18.2682 14.6362C18.3031 14.7301 18.3439 14.8218 18.3903 14.9106L18.3922 14.9125Z" fill="black"/>
<path d="M30.2673 15.4744H17.9545C17.9112 15.4744 17.8696 15.4571 17.8389 15.4265C17.8082 15.3958 17.791 15.3542 17.791 15.3109V6.88435C17.7907 6.84704 17.8042 6.81092 17.8288 6.78285C17.8534 6.75479 17.8874 6.73674 17.9244 6.73214L19.1272 6.563H30.4552C30.5081 6.563 30.5587 6.58399 30.5961 6.62135C30.6334 6.6587 30.6544 6.70937 30.6544 6.7622L30.4665 15.2733C30.4665 15.3263 30.4456 15.3772 30.4083 15.4148C30.371 15.4525 30.3203 15.4739 30.2673 15.4744Z" stroke="black" stroke-width="0.406793" stroke-linecap="round" stroke-linejoin="round"/>
<path d="M19.0728 15.4744L19.2607 6.563" stroke="black" stroke-width="0.406793" stroke-linecap="round" stroke-linejoin="round"/>
<path d="M19.1665 14.8429H20.3955" stroke="black" stroke-width="0.271195" stroke-linecap="round" stroke-linejoin="round"/>
<path d="M20.7246 14.8429H20.8731" stroke="black" stroke-width="0.271195" stroke-linecap="round" stroke-linejoin="round"/>
<path d="M3.46729 3.83246H4.69631" stroke="black" stroke-width="0.271195" stroke-linecap="round" stroke-linejoin="round"/>
<path d="M5.02539 3.83246H5.17385" stroke="black" stroke-width="0.271195" stroke-linecap="round" stroke-linejoin="round"/>
<path d="M19.2603 7.65109H20.9591" stroke="black" stroke-width="0.271195" stroke-linecap="round" stroke-linejoin="round"/>
<path d="M21.2881 7.65109H21.6733" stroke="black" stroke-width="0.271195" stroke-linecap="round" stroke-linejoin="round"/>
<path d="M19.2603 7.21133H22.2746" stroke="black" stroke-width="0.271195" stroke-linecap="round" stroke-linejoin="round"/>
<path d="M3.51807 2.62222H6.53425" stroke="black" stroke-width="0.271195" stroke-linecap="round" stroke-linejoin="round"/>
<path d="M19.7436 4.20081H19.1704" stroke="black" stroke-width="0.271195" stroke-linecap="round" stroke-linejoin="round"/>
<path d="M18.8413 4.20081H18.4561" stroke="black" stroke-width="0.271195" stroke-linecap="round" stroke-linejoin="round"/>
<path d="M19.7431 3.76105H17.8545" stroke="black" stroke-width="0.271195" stroke-linecap="round" stroke-linejoin="round"/>
<path d="M22.4195 15.3729C22.4114 15.3747 22.4031 15.3747 22.395 15.3729C22.3829 15.3701 22.3716 15.3648 22.3616 15.3574C22.3517 15.35 22.3433 15.3406 22.3372 15.3299C22.331 15.3191 22.3271 15.3072 22.3257 15.2949C22.3244 15.2826 22.3256 15.2701 22.3293 15.2582C22.3462 15.1943 22.7728 13.6853 23.7518 13.223C23.7746 13.2126 23.8004 13.2116 23.824 13.22C23.8475 13.2284 23.8668 13.2457 23.8778 13.2681C23.8831 13.2793 23.8862 13.2915 23.8869 13.3039C23.8875 13.3164 23.8857 13.3288 23.8815 13.3405C23.8773 13.3522 23.8708 13.363 23.8625 13.3722C23.8541 13.3814 23.8439 13.3888 23.8326 13.394C22.9306 13.8187 22.5172 15.2939 22.5172 15.309C22.5108 15.3293 22.4976 15.3467 22.4797 15.3584C22.4619 15.37 22.4406 15.3752 22.4195 15.3729Z" fill="#3ACDDD"/>
<path d="M23.9997 13.4749C22.9323 13.4749 22.0679 16.7598 22.0679 17.7971V17.9023H25.926V17.8065C25.926 16.7598 25.0671 13.4749 23.9997 13.4749Z" fill="#BBF0F9"/>
<path d="M23.9491 13.4053C22.9098 13.4053 22.0698 16.6902 22.0698 17.7276V17.8234H25.8283V17.7276C25.8283 16.0231 24.9864 13.4053 23.9491 13.4053Z" stroke="black" stroke-width="0.406793" stroke-linecap="round" stroke-linejoin="round"/>
<path d="M24.4733 15.6153C24.4733 16.0852 24.2383 16.4666 23.9471 16.4666C23.8935 16.4664 23.8407 16.4536 23.793 16.4291C24.0072 16.3219 24.1688 15.9987 24.1688 15.6153C24.1688 15.232 24.0128 14.9088 23.793 14.8016C23.8407 14.7771 23.8935 14.7643 23.9471 14.7641C24.2346 14.7641 24.4733 15.1455 24.4733 15.6153Z" fill="#3ACDDD"/>
<path d="M23.9491 16.4666C24.2387 16.4666 24.4734 16.0855 24.4734 15.6153C24.4734 15.1452 24.2387 14.7641 23.9491 14.7641C23.6595 14.7641 23.4248 15.1452 23.4248 15.6153C23.4248 16.0855 23.6595 16.4666 23.9491 16.4666Z" stroke="black" stroke-width="0.406793" stroke-linecap="round" stroke-linejoin="round"/>
<path d="M21.8276 17.8253V18.3966" stroke="black" stroke-width="0.406793" stroke-linecap="round" stroke-linejoin="round"/>
<path d="M27.0896 17.8253H20.2905V18.3966H27.0896V17.8253Z" fill="#BBF0F9"/>
<path d="M21.8277 17.8253H20.2905V18.3966H21.8277V17.8253Z" fill="#3ACDDD"/>
<path d="M27.0896 17.8253H20.2905V18.3966H27.0896V17.8253Z" stroke="black" stroke-width="0.406793" stroke-linecap="round" stroke-linejoin="round"/>
<path d="M21.8276 17.8253V18.3966" stroke="black" stroke-width="0.406793" stroke-linecap="round" stroke-linejoin="round"/>
<path d="M11.0483 0.690338C11.0483 0.690338 10.4995 -0.0388079 9.17278 0.152875C8.20872 0.290059 7.6863 1.4176 7.54911 2.06406C7.41193 2.71052 7.07554 3.53927 6.62264 4.86225C6.16975 6.18524 6.49861 6.76405 6.98534 7.35977C7.47206 7.95549 7.3875 9.02477 7.3875 9.02477C7.58857 10.8176 9.10888 11.0393 9.10888 11.0393C9.10888 11.0393 11.2118 11.3682 12.2078 11.2723C12.498 11.2805 12.7866 11.2253 13.0534 11.1107C13.6322 10.842 13.9724 10.0847 14.0043 9.44573C14.0037 9.07559 14.0498 8.70685 14.1415 8.34825C14.3596 7.74933 14.4801 7.11929 14.4985 6.48216C14.4854 5.91839 14.211 5.41099 14.2242 4.99944C14.2373 4.58789 14.6 4.02599 14.5117 3.07885C14.4757 2.56665 14.3212 2.06983 14.0603 1.62759C13.7994 1.18535 13.4392 0.809808 13.0083 0.530602C12.2359 0.023207 11.2963 0.31449 10.9054 0.476104" fill="#B994FC"/>
<path d="M11.7661 0.438553C11.7661 0.438553 13.9761 0.120961 14.3971 3.31567" stroke="#DBC7FF" stroke-width="0.54239" stroke-linecap="round" stroke-linejoin="round"/>
<path d="M11.9613 11.3137C11.0329 11.2921 10.1069 11.2092 9.18938 11.0657C9.18938 11.0657 7.67095 10.8439 7.46988 9.05111C7.42746 8.4785 7.29161 7.9167 7.06772 7.38798C6.72382 6.6983 6.25025 6.21533 6.70314 4.89047C7.15604 3.5656 7.49243 2.73498 7.62961 2.0904C7.7668 1.44582 8.15204 0.2976 9.11797 0.160415C9.29815 0.138571 9.47996 0.133538 9.66107 0.145381C9.57838 0.145381 9.66107 0.145381 9.22509 0.308875C8.31365 0.650897 8.02801 1.44582 7.88519 2.0904C7.74237 2.73498 7.41162 3.5656 6.95872 4.89047C6.50582 6.21533 6.84033 6.79038 7.32141 7.38798C7.8025 7.98558 7.72357 9.05111 7.72357 9.05111C7.92465 10.8439 9.44308 11.0657 9.44308 11.0657C10.2773 11.194 11.118 11.2769 11.9613 11.3137Z" fill="#DBC7FF"/>
<path d="M7.41552 8.22424C7.44569 8.37917 7.46329 8.53628 7.46814 8.69405C7.46919 8.84349 7.47797 8.99277 7.49445 9.14131C7.5292 9.43259 7.61777 9.71489 7.75566 9.97381C7.89459 10.2317 8.09381 10.4522 8.33635 10.6165C8.45539 10.6978 8.58113 10.7688 8.71219 10.8289C8.77985 10.8589 8.8475 10.8852 8.91703 10.9097L9.02227 10.9416L9.07489 10.9567H9.10308H9.11811C9.13427 10.9622 9.14903 10.9711 9.16133 10.983L9.10496 10.9567C9.4808 11.0074 9.84162 11.0619 10.2118 11.1032C10.582 11.1446 10.9466 11.1615 11.3131 11.1878C11.6781 11.2101 12.0443 11.2051 12.4087 11.1728C12.5874 11.1609 12.7641 11.1274 12.9349 11.0732C13.0994 11.0145 13.2489 10.9201 13.3727 10.7969C13.6277 10.538 13.8043 10.2123 13.882 9.8573C13.9722 9.50964 13.929 9.13755 13.9722 8.75982C13.9835 8.66586 13.9966 8.5719 14.0173 8.47793C14.038 8.38397 14.0699 8.29001 14.0962 8.20356C14.1507 8.02879 14.2033 7.85215 14.2484 7.6755C14.3449 7.32473 14.4011 6.96408 14.4157 6.60057C14.4079 6.23788 14.3445 5.87852 14.2278 5.53504C14.1705 5.35265 14.1419 5.16245 14.1432 4.97127C14.1674 4.77929 14.2115 4.59035 14.2747 4.4075C14.3957 4.06446 14.4592 3.70381 14.4627 3.34009C14.454 2.97686 14.3907 2.61702 14.2747 2.27268C14.044 1.57428 13.5794 0.976894 12.9593 0.58136C12.6572 0.38761 12.3032 0.290587 11.9445 0.303233C11.5826 0.314478 11.2262 0.394186 10.894 0.538138C10.8826 0.534991 10.8723 0.528927 10.864 0.520548C10.8557 0.512169 10.8497 0.501765 10.8467 0.490369C10.8436 0.478974 10.8436 0.466981 10.8467 0.455582C10.8497 0.444182 10.8556 0.433772 10.8639 0.425383C11.2121 0.273954 11.5857 0.189176 11.9652 0.175444C12.3526 0.160971 12.735 0.265938 13.0608 0.476123C13.6997 0.890868 14.1788 1.51043 14.4195 2.23321C14.5371 2.59199 14.6004 2.96634 14.6074 3.34385C14.6114 3.72266 14.5569 4.09983 14.4458 4.46199C14.3877 4.63033 14.3468 4.8041 14.3236 4.98067C14.3242 5.15679 14.3521 5.33175 14.4063 5.49934C14.5264 5.85814 14.5898 6.23349 14.5942 6.61185C14.5772 6.98835 14.5199 7.36195 14.4232 7.72624C14.3781 7.91416 14.3255 8.08517 14.2691 8.2637C14.2108 8.43414 14.1687 8.60968 14.1432 8.78801C14.1188 8.97593 14.1037 9.14882 14.0906 9.33487C14.0831 9.52532 14.0547 9.71438 14.006 9.89864C13.9167 10.271 13.7351 10.6148 13.478 10.8984C13.342 11.0399 13.1773 11.1508 12.995 11.2235C12.8118 11.2836 12.6229 11.3245 12.4312 11.3457C12.0565 11.3819 11.6795 11.3888 11.3037 11.3663C10.9278 11.3569 10.552 11.31 10.193 11.2648C9.8341 11.2197 9.44134 11.1671 9.09932 11.1201L9.04294 11.092C9.0502 11.1026 9.06077 11.1105 9.07301 11.1145H9.05985H9.03354L8.97717 11.0995L8.86441 11.0656C8.79112 11.0393 8.71783 11.0112 8.64642 10.9792C8.50203 10.9181 8.36519 10.8406 8.23863 10.7481C7.98218 10.5651 7.76864 10.3284 7.61284 10.0546C7.46046 9.78026 7.36822 9.47661 7.34223 9.16386C7.32719 9.00976 7.32531 8.85002 7.32156 8.70532C7.31727 8.55713 7.30156 8.40948 7.27457 8.2637C7.27295 8.25494 7.27307 8.24594 7.27493 8.23722C7.27679 8.22851 7.28035 8.22024 7.28542 8.21291C7.29048 8.20557 7.29695 8.19931 7.30444 8.19448C7.31193 8.18966 7.3203 8.18636 7.32907 8.18477C7.34578 8.17867 7.36421 8.17939 7.38039 8.18677C7.39657 8.19416 7.40919 8.20762 7.41552 8.22424Z" fill="black"/>
<path d="M11.0033 0.73172C10.863 0.574579 10.6871 0.453417 10.4903 0.378423C10.2936 0.293535 10.0851 0.239041 9.87199 0.216808C9.65709 0.197372 9.44062 0.204314 9.22741 0.23748C9.01865 0.252696 8.81645 0.317091 8.63733 0.425404C8.45703 0.535892 8.30206 0.683174 8.18255 0.857629C8.0521 1.03192 7.94295 1.22119 7.85744 1.4214C7.77073 1.61974 7.69973 1.82458 7.64509 2.03403C7.59247 2.24827 7.52482 2.46626 7.45717 2.67674C7.31434 3.09769 7.19595 3.52615 7.04937 3.94334C6.90279 4.36054 6.74118 4.77773 6.6209 5.19492C6.50063 5.61211 6.40479 6.05185 6.5401 6.45965C6.6754 6.86744 7.00427 7.1794 7.20347 7.58719C7.20906 7.59522 7.21284 7.60436 7.21455 7.61399C7.21627 7.62362 7.21588 7.6335 7.2134 7.64297C7.21093 7.65243 7.20643 7.66124 7.20022 7.6688C7.19402 7.67635 7.18624 7.68248 7.17744 7.68674C7.16864 7.691 7.15902 7.69331 7.14924 7.69349C7.13946 7.69368 7.12976 7.69174 7.1208 7.68782C7.11184 7.68389 7.10384 7.67807 7.09735 7.67076C7.09086 7.66345 7.08603 7.65481 7.0832 7.64545C6.89527 7.2696 6.54949 6.94637 6.40855 6.49348C6.3462 6.27116 6.32268 6.03975 6.33902 5.80943C6.34986 5.5823 6.38964 5.35748 6.45741 5.14042C6.59272 4.71007 6.7393 4.29664 6.88776 3.87757C7.03622 3.4585 7.22226 3.05634 7.34441 2.63351C7.40792 2.42301 7.45937 2.20906 7.49851 1.99269C7.542 1.77019 7.60877 1.55289 7.69771 1.34435C7.78753 1.13419 7.90102 0.93496 8.03597 0.750513C8.18095 0.569241 8.35418 0.412509 8.54901 0.28634C8.74678 0.16494 8.96997 0.0909711 9.2011 0.0702271C9.4271 0.0439127 9.65539 0.0439127 9.88139 0.0702271C10.3485 0.0995224 10.7862 0.30826 11.1029 0.652792C11.1151 0.665403 11.1219 0.682246 11.1219 0.699773C11.1219 0.7173 11.1151 0.734143 11.1029 0.746754C11.0968 0.753004 11.0895 0.75797 11.0814 0.76136C11.0733 0.76475 11.0647 0.766496 11.0559 0.766496C11.0472 0.766496 11.0385 0.76475 11.0304 0.76136C11.0224 0.75797 11.0151 0.753004 11.0089 0.746754L11.0033 0.73172Z" fill="black"/>
<path d="M8.26104 10.0095C8.0715 9.74217 7.95786 9.42852 7.93217 9.10182C7.9209 8.94209 7.93217 8.77859 7.9209 8.61886" stroke="black" stroke-width="0.135598" stroke-linecap="round" stroke-linejoin="round"/>
<path d="M8.3928 9.85172C8.21169 9.63585 8.11254 9.36301 8.11279 9.08123" stroke="black" stroke-width="0.135598" stroke-linecap="round" stroke-linejoin="round"/>
<path d="M15.1993 15.9442C15.0308 15.7626 14.8936 15.5543 14.7934 15.3278C14.5791 14.8955 14.2747 14.2228 13.8068 13.379C13.3388 12.5352 13.0889 11.9978 12.901 11.59C12.7131 11.1822 12.6322 10.8589 12.3729 10.5169C11.8599 9.8385 11.0838 9.88172 10.6459 9.90428C10.208 9.92683 9.4864 10.4192 9.4864 10.4192C8.08824 11.6632 4.91796 15.3729 4.91796 15.3729L4.18506 17.1506H5.66778L5.94215 16.2899C5.94215 16.2899 8.23482 14.0875 8.22355 14.0574L8.08261 13.7436C8.74222 14.9331 8.70463 18.3552 8.70463 18.3552H12.2921L12.8803 14.6963C13.0629 15.3671 13.3149 16.0171 13.632 16.6357C13.7842 16.9383 14.13 17.0886 14.4025 17.41L14.6506 17.5847L15.4436 17.9023L16.3569 18.0207L17.3172 17.9474L17.3999 17.6881C17.3999 17.658 17.5014 17.4212 17.5014 17.4212L17.6141 17.2333C17.6141 17.2333 17.4694 17.1506 17.4544 17.1506" fill="#FF61BF"/>
<path d="M17.3511 17.7351C17.3266 17.8084 17.2815 17.9568 17.2815 17.9568L16.3194 18.0301L15.4023 17.9117L14.6149 17.5885L14.3687 17.4137C14.0981 17.0924 13.7505 16.942 13.5982 16.6395C13.5061 16.4516 13.4235 16.2824 13.3521 16.1171C13.8219 16.6583 15.2745 18.0771 17.3511 17.7351Z" fill="#C3268A"/>
<path opacity="0.5" d="M8.95082 18.0302H8.7629C8.78152 16.7119 8.61257 15.3977 8.26114 14.127C8.24186 14.0696 8.22863 14.0104 8.22168 13.9503H8.31564H8.4096C8.4096 13.9654 8.42464 14.0142 8.44343 14.0875C8.79812 15.3711 8.96896 16.6986 8.95082 18.0302Z" fill="#C3268A"/>
<g opacity="0.5">
<path d="M12.8014 14.6532L12.2696 18.2782H8.68213V18.1129C10.0371 17.7276 11.7378 17.6938 12.0798 15.6473C12.1474 15.2451 12.5834 15.0008 12.8014 14.6532Z" fill="#C3268A"/>
</g>
<path d="M4.55371 16.7504L5.04795 15.5289L6.37845 14.0104L6.30141 13.9503L6.90276 13.2982L8.25958 11.8437" stroke="#F3A0CA" stroke-width="0.813585" stroke-linecap="round" stroke-linejoin="round"/>
<path d="M6.2168 16.025L8.06033 13.847L8.16181 14.0086V14.127L7.86865 14.5385L6.2168 16.025Z" fill="#C3268A"/>
<path d="M8.08301 12.0128L9.22559 10.812" stroke="white" stroke-width="0.54239" stroke-linecap="round" stroke-linejoin="round"/>
<path d="M12.9312 14.0011V14.2811L12.9124 14.5667L12.8428 15.1305L12.6793 16.2336C12.5628 16.9684 12.4613 17.7051 12.3505 18.4399C12.3482 18.4548 12.3408 18.4685 12.3294 18.4785C12.3181 18.4884 12.3036 18.4941 12.2885 18.4944C11.9897 18.4944 11.6909 18.4944 11.3921 18.4944H10.4957C9.89806 18.4944 9.30046 18.5131 8.70098 18.5075C8.69292 18.5075 8.68495 18.5059 8.67752 18.5028C8.6701 18.4996 8.66339 18.495 8.65778 18.4892C8.65217 18.4834 8.64778 18.4766 8.64487 18.4691C8.64196 18.4616 8.64059 18.4535 8.64084 18.4455C8.64084 17.6675 8.6089 16.8876 8.53561 16.1134C8.49802 15.7262 8.44728 15.341 8.37587 14.9595C8.31673 14.578 8.2028 14.2071 8.03761 13.8583C8.0347 13.8527 8.03293 13.8467 8.0324 13.8404C8.03186 13.8342 8.03258 13.8279 8.03451 13.822C8.03643 13.816 8.03953 13.8105 8.04361 13.8058C8.04769 13.801 8.05268 13.7972 8.05828 13.7944C8.06382 13.7915 8.06988 13.7897 8.07611 13.7892C8.08235 13.7886 8.08862 13.7893 8.09457 13.7913C8.10052 13.7932 8.10603 13.7963 8.11077 13.8004C8.11551 13.8045 8.11939 13.8094 8.12217 13.815C8.30041 14.1703 8.42395 14.5504 8.48863 14.9426C8.56469 15.3278 8.62114 15.7167 8.65776 16.1077C8.73293 16.8876 8.76487 17.6694 8.76299 18.453L8.70098 18.391C9.30046 18.391 9.89806 18.4079 10.4957 18.406H11.3921C11.6909 18.406 11.9897 18.3948 12.2885 18.3948L12.2264 18.4492C12.3317 17.7126 12.4463 16.9778 12.544 16.2411L12.7056 15.1361L12.7977 14.5855L12.8222 14.3168V14.0011C12.8226 13.9875 12.8284 13.9746 12.8382 13.9651C12.848 13.9556 12.8611 13.9503 12.8748 13.9503C12.8819 13.9495 12.8891 13.9503 12.8959 13.9525C12.9028 13.9546 12.909 13.9583 12.9144 13.9631C12.9197 13.9678 12.9239 13.9737 12.9268 13.9803C12.9297 13.9868 12.9312 13.9939 12.9312 14.0011Z" fill="black"/>
<path d="M7.60547 12.3191C8.11286 11.7554 8.61462 11.216 9.03557 10.7969C9.39285 10.4333 9.83832 10.1685 10.3285 10.0283C10.4301 9.99815 10.5347 9.97924 10.6404 9.97196C11.0783 9.94941 11.768 9.75021 12.2754 10.4267C12.5015 10.7284 12.6837 11.0606 12.8166 11.4133" stroke="black" stroke-width="0.406793" stroke-linecap="round" stroke-linejoin="round"/>
<path d="M6.61133 13.4466C6.77482 13.2587 6.94207 13.0708 7.11309 12.8829" stroke="black" stroke-width="0.406793" stroke-linecap="round" stroke-linejoin="round"/>
<path d="M4.87891 17.2146H4.18359L4.9165 15.4387C4.9165 15.4387 5.49343 14.7434 6.26391 13.847" stroke="black" stroke-width="0.406793" stroke-linecap="round" stroke-linejoin="round"/>
<path d="M8.19158 14.1645C8.20286 14.1946 5.93649 16.3538 5.93649 16.3538L5.66776 17.2145H5.12842" stroke="black" stroke-width="0.406793" stroke-linecap="round" stroke-linejoin="round"/>
<path d="M8.35717 4.55976C8.35717 4.55976 8.29327 6.36195 8.86832 7.45943C9.44337 8.55691 10.1049 9.17142 10.9919 9.17142C11.8789 9.17142 12.9049 8.57382 13.1417 7.10425C13.3033 6.1045 13.5176 5.97671 13.4518 4.08619C13.4518 4.08619 11.4316 3.38148 11.1009 1.33122C11.1009 1.33122 10.2233 4.55224 7.60547 4.55224" fill="#F8C5A6"/>
<path d="M10.2981 8.99663C9.7663 8.74669 9.32468 8.21674 8.9244 7.45189C8.34935 6.35441 8.41136 4.55974 8.41136 4.55974H7.65967C8.13793 4.56253 8.60937 4.44628 9.03151 4.22147C8.92816 5.30016 8.87742 7.72626 10.2981 8.99663Z" fill="#FFE5D5"/>
<path d="M11.0801 1.65067C11.0801 1.65067 11.377 3.30252 13.354 4.17261C13.354 4.17261 13.463 7.57591 12.249 8.56252" stroke="#F57A59" stroke-width="0.54239" stroke-linecap="round" stroke-linejoin="round"/>
<path d="M8.99429 5.40354C9.11572 5.40354 9.21416 5.3051 9.21416 5.18367C9.21416 5.06224 9.11572 4.9638 8.99429 4.9638C8.87285 4.9638 8.77441 5.06224 8.77441 5.18367C8.77441 5.3051 8.87285 5.40354 8.99429 5.40354Z" fill="#FFE6D7"/>
<path d="M9.26264 4.99763C9.31142 4.99763 9.35096 4.95808 9.35096 4.9093C9.35096 4.86052 9.31142 4.82098 9.26264 4.82098C9.21386 4.82098 9.17432 4.86052 9.17432 4.9093C9.17432 4.95808 9.21386 4.99763 9.26264 4.99763Z" fill="#FFE6D7"/>
<path d="M9.34007 4.64806C9.37121 4.64806 9.39645 4.62282 9.39645 4.59169C9.39645 4.56055 9.37121 4.53531 9.34007 4.53531C9.30893 4.53531 9.28369 4.56055 9.28369 4.59169C9.28369 4.62282 9.30893 4.64806 9.34007 4.64806Z" fill="#FFE6D7"/>
<path d="M9.0975 4.72887C9.15458 4.72887 9.20086 4.6826 9.20086 4.62551C9.20086 4.56843 9.15458 4.52216 9.0975 4.52216C9.04042 4.52216 8.99414 4.56843 8.99414 4.62551C8.99414 4.6826 9.04042 4.72887 9.0975 4.72887Z" fill="#FFE6D7"/>
<path d="M9.05428 5.86393C9.12174 5.86393 9.17643 5.80924 9.17643 5.74178C9.17643 5.67432 9.12174 5.61963 9.05428 5.61963C8.98682 5.61963 8.93213 5.67432 8.93213 5.74178C8.93213 5.80924 8.98682 5.86393 9.05428 5.86393Z" fill="#FFE6D7"/>
<path d="M9.27017 5.49559C9.30234 5.49559 9.32843 5.46951 9.32843 5.43734C9.32843 5.40516 9.30234 5.37908 9.27017 5.37908C9.238 5.37908 9.21191 5.40516 9.21191 5.43734C9.21191 5.46951 9.238 5.49559 9.27017 5.49559Z" fill="#FFE6D7"/>
<path d="M8.35364 5.33022C8.31547 5.25656 8.26087 5.19266 8.19408 5.14346C8.12728 5.09425 8.05006 5.06107 7.96839 5.04646C7.8918 5.02015 7.81023 5.01155 7.72983 5.02132C7.64943 5.03108 7.57229 5.05895 7.50422 5.10284C7.43466 5.16924 7.3842 5.25309 7.35808 5.34564C7.33197 5.43819 7.33117 5.53606 7.35576 5.62902C7.38959 5.81695 7.47415 5.99547 7.50422 6.1928C7.53429 6.39012 7.52113 6.6175 7.67523 6.73778C7.74298 6.77971 7.82107 6.80192 7.90074 6.80192C7.98041 6.80192 8.05851 6.77971 8.12625 6.73778C8.26719 6.66449 8.38371 6.54985 8.52465 6.47656" fill="#F8C5A6"/>
<path d="M7.89508 6.68891C7.67897 6.5536 7.70716 6.23413 7.6489 6.00862C7.56246 5.71922 7.32567 5.22122 7.803 5.14417C7.89132 5.12914 7.85374 4.99383 7.76541 5.00699C7.36889 5.07088 7.32943 5.40539 7.41587 5.74553C7.4497 5.88271 7.50984 6.0105 7.54178 6.14769C7.57373 6.28487 7.54178 6.38635 7.56809 6.51226C7.59628 6.66824 7.694 6.73025 7.82367 6.81106C7.90072 6.85992 7.97213 6.73777 7.89508 6.68891Z" fill="#F57A59"/>
<path d="M7.75 4.35488C7.75 4.35488 9.81717 4.5334 10.8639 1.39131" stroke="#9B63FF" stroke-width="1.08478" stroke-linecap="round" stroke-linejoin="round"/>
<path d="M8.62598 3.98093C9.39127 3.59332 9.99931 2.95342 10.3474 2.16934L8.62598 3.98093Z" fill="#B994FC"/>
<path d="M8.60906 3.9471C8.98228 3.75198 9.32173 3.49818 9.61446 3.19541C9.91156 2.89424 10.1533 2.54309 10.3286 2.15806C10.3318 2.15181 10.3373 2.14699 10.3439 2.14455C10.3505 2.14212 10.3578 2.14225 10.3643 2.14491C10.3675 2.14632 10.3705 2.14839 10.3729 2.15097C10.3754 2.15356 10.3773 2.15661 10.3785 2.15995C10.3797 2.16329 10.3803 2.16684 10.3801 2.17039C10.3799 2.17394 10.379 2.17742 10.3774 2.18061C10.2036 2.57249 9.96468 2.93211 9.67083 3.24427C9.37718 3.56309 9.02666 3.82438 8.63725 4.01475C8.62828 4.01924 8.61789 4.01998 8.60838 4.01681C8.59886 4.01363 8.591 4.00681 8.58651 3.99784C8.58203 3.98887 8.58129 3.97848 8.58446 3.96897C8.58763 3.95945 8.59445 3.95159 8.60343 3.9471H8.60906Z" fill="black"/>
<path d="M9.17831 3.14278C9.36428 3.02865 9.5332 2.88883 9.68006 2.72746C9.82439 2.56263 9.94519 2.37859 10.039 2.1806C10.0406 2.17703 10.0429 2.17383 10.0458 2.1712C10.0487 2.16857 10.0521 2.16657 10.0558 2.16533C10.0595 2.1641 10.0635 2.16365 10.0674 2.16401C10.0713 2.16437 10.075 2.16554 10.0785 2.16745C10.0853 2.17106 10.0905 2.17719 10.093 2.18454C10.0954 2.19189 10.0949 2.19991 10.0916 2.20691C9.99779 2.40966 9.87774 2.5992 9.73456 2.77069C9.58642 2.94129 9.41423 3.08943 9.22341 3.21043C9.21876 3.21351 9.21353 3.21562 9.20804 3.21662C9.20255 3.21763 9.19691 3.21752 9.19147 3.21629C9.18603 3.21506 9.18089 3.21274 9.17637 3.20947C9.17184 3.2062 9.16803 3.20205 9.16515 3.19727C9.16199 3.19274 9.15976 3.18761 9.15861 3.18219C9.15747 3.17678 9.15742 3.17119 9.15847 3.16576C9.15952 3.16033 9.16165 3.15516 9.16474 3.15057C9.16782 3.14597 9.1718 3.14205 9.17643 3.13902L9.17831 3.14278Z" fill="black"/>
<path d="M11.2114 1.33122C11.2114 1.35941 11.3862 3.03382 13.4665 3.91142" stroke="#9B63FF" stroke-width="1.08478" stroke-linecap="round" stroke-linejoin="round"/>
<path d="M14.442 0.989212L14.5059 0.96854C14.6769 0.912163 14.6036 0.639673 14.4307 0.69605L14.3687 0.716722C14.1958 0.773099 14.2691 1.04559 14.442 0.989212Z" fill="white"/>
<path d="M6.89106 6.3732C6.752 6.08379 6.83469 5.63277 6.89106 5.32834C6.90798 5.24001 6.77267 5.20243 6.75576 5.29075C6.68623 5.64593 6.60542 6.10634 6.76703 6.44461C6.8065 6.52541 6.92865 6.44461 6.88918 6.3732H6.89106Z" fill="white"/>
<path d="M6.86468 6.71711C6.89947 6.79114 6.94033 6.86217 6.98683 6.92946C7.03945 7.00463 7.1616 6.92946 7.10898 6.85805C7.06175 6.79122 7.02086 6.72013 6.98683 6.6457C6.94737 6.56489 6.82522 6.6363 6.86468 6.71711Z" fill="white"/>
<path d="M7.73862 2.86841C7.86368 2.57795 7.95205 2.27305 8.00172 1.96074C8.01863 1.87241 7.88332 1.83483 7.86641 1.92315C7.81916 2.22356 7.73522 2.51704 7.61647 2.797C7.57889 2.87781 7.70104 2.9511 7.73862 2.86841Z" fill="white"/>
<path d="M8.09559 1.65257C8.11072 1.58165 8.13604 1.51329 8.17076 1.44962C8.21586 1.37069 8.09371 1.29928 8.05049 1.3782C8.00917 1.45238 7.97879 1.53213 7.96028 1.61499C7.94149 1.70331 8.07679 1.7409 8.09559 1.65257Z" fill="white"/>
<path d="M7.7876 5.6084C7.88532 5.7437 7.99807 5.87525 8.11083 6.00116" stroke="black" stroke-width="0.271195" stroke-linecap="round" stroke-linejoin="round"/>
<path d="M8.11054 5.6084C8.00719 5.7437 7.92262 5.97297 7.81738 6.09888" stroke="black" stroke-width="0.271195" stroke-linecap="round" stroke-linejoin="round"/>
<path d="M9.82842 3.96965C9.87341 3.94477 9.91561 3.91516 9.95433 3.88133C10.0239 3.82307 9.92426 3.72347 9.85473 3.78173C9.82489 3.80747 9.79208 3.82955 9.75701 3.8475C9.67808 3.89072 9.75701 4.01287 9.82842 3.96965Z" fill="white"/>
<path d="M10.1915 3.66523C10.4687 3.39486 10.6948 3.07652 10.8586 2.72561C10.8981 2.64293 10.7759 2.57152 10.7364 2.6542C10.5772 2.99152 10.3589 3.29764 10.0919 3.55812C10.028 3.62013 10.1276 3.72161 10.1915 3.65772V3.66523Z" fill="white"/>
<path d="M8.55626 6.0443C8.55156 6.08865 8.55156 6.13337 8.55626 6.17772C8.56753 6.26793 8.70848 6.26793 8.6972 6.17772C8.6925 6.13337 8.6925 6.08865 8.6972 6.0443C8.6972 5.95221 8.5619 5.95409 8.55626 6.0443Z" fill="white"/>
<path d="M8.61669 6.5141C8.69593 6.89136 8.84028 7.25193 9.04328 7.57963C9.09214 7.65668 9.21241 7.57963 9.16543 7.50822C8.96853 7.19126 8.8292 6.84198 8.75388 6.47652C8.73509 6.3882 8.59978 6.42578 8.61669 6.5141Z" fill="white"/>
<path d="M8.54126 6.57988C8.61676 6.86923 8.71542 7.15203 8.8363 7.42554C8.95554 7.69925 9.10158 7.96049 9.27229 8.20543C9.43692 8.45236 9.64215 8.66966 9.87928 8.84813C10.1206 9.01678 10.3957 9.13092 10.6855 9.18263C10.7038 9.18628 10.72 9.19698 10.7306 9.21245C10.7411 9.22791 10.7452 9.2469 10.7419 9.26532C10.7378 9.28345 10.727 9.29935 10.7116 9.30982C10.6963 9.32028 10.6775 9.32453 10.6592 9.3217C10.3476 9.26488 10.0517 9.14253 9.79096 8.96276C9.53947 8.77578 9.31553 8.55437 9.1257 8.30503C8.94136 8.05413 8.78508 7.78379 8.65965 7.49883C8.53307 7.21775 8.43182 6.92594 8.35709 6.62686C8.35194 6.60273 8.35629 6.57754 8.36924 6.55654C8.3822 6.53554 8.40275 6.52034 8.42663 6.51411C8.45054 6.5084 8.47573 6.51228 8.49681 6.52493C8.51789 6.53757 8.53317 6.55798 8.53938 6.58176L8.54126 6.57988Z" fill="#9B63FF"/>
<path d="M13.6548 4.99575C13.6575 5.40877 13.6298 5.82143 13.5721 6.23041C13.5179 6.64047 13.4247 7.04445 13.294 7.43688C13.1592 7.83238 12.9605 8.20312 12.7058 8.53436C12.4435 8.87001 12.0817 9.11406 11.6722 9.23156C11.6633 9.23412 11.654 9.23488 11.6449 9.23381C11.6357 9.23273 11.6268 9.22983 11.6187 9.22528C11.6107 9.22073 11.6036 9.21462 11.598 9.20731C11.5923 9.2 11.5882 9.19163 11.5858 9.1827C11.5806 9.16451 11.5828 9.14498 11.5919 9.12842C11.6011 9.11186 11.6165 9.09961 11.6346 9.09437C12.0158 8.98659 12.352 8.75852 12.5931 8.44415C12.7157 8.28815 12.8221 8.12003 12.9106 7.9424C12.9948 7.75913 13.0676 7.57085 13.1286 7.37862C13.2505 6.99502 13.3379 6.60133 13.3899 6.20222C13.4454 5.80316 13.4712 5.40051 13.4669 4.99763C13.4669 4.97271 13.4768 4.94881 13.4944 4.93118C13.512 4.91356 13.5359 4.90366 13.5609 4.90366C13.5858 4.90366 13.6097 4.91356 13.6273 4.93118C13.6449 4.94881 13.6548 4.97271 13.6548 4.99763V4.99575Z" fill="#9B63FF"/>
<path d="M8.35364 5.33022C8.31547 5.25656 8.26087 5.19266 8.19408 5.14346C8.12728 5.09425 8.05006 5.06107 7.96839 5.04646C7.8918 5.02015 7.81023 5.01155 7.72983 5.02132C7.64943 5.03108 7.57229 5.05895 7.50422 5.10284C7.43466 5.16924 7.3842 5.25309 7.35808 5.34564C7.33197 5.43819 7.33117 5.53606 7.35576 5.62902C7.38959 5.81695 7.47415 5.99548 7.50422 6.1928C7.53429 6.39012 7.52113 6.6175 7.67523 6.73778C7.74298 6.77971 7.82107 6.80192 7.90074 6.80192C7.98041 6.80192 8.05851 6.77971 8.12625 6.73778C8.26719 6.66449 8.38371 6.54985 8.52465 6.47656" stroke="black" stroke-width="0.271195" stroke-linecap="round" stroke-linejoin="round"/>
<path d="M11.6323 5.6084L11.9612 6.7942" stroke="black" stroke-width="0.271195" stroke-linecap="round" stroke-linejoin="round"/>
<path d="M10.7568 8.81621C10.7436 8.81621 10.6233 9.77086 10.5594 10.2895C10.541 10.4256 10.5765 10.5634 10.6583 10.6737C10.7401 10.7839 10.8618 10.8578 10.9973 10.8796H11.0105C11.0809 10.8852 11.1518 10.8765 11.2187 10.854C11.2857 10.8314 11.3474 10.7955 11.4001 10.7485C11.4528 10.7014 11.4954 10.6441 11.5254 10.5801C11.5553 10.516 11.5719 10.4466 11.5742 10.376L11.6494 8.90265" fill="#F8C5A6"/>
<path d="M10.7417 9.21274C10.9479 9.29158 11.1643 9.34032 11.3844 9.35744L11.531 10.47L11.6437 9.05864L10.7417 9.21274Z" fill="#F57A59"/>
<path d="M10.7042 9.13945C10.691 9.13945 10.6046 9.85544 10.5538 10.2895C10.5359 10.4253 10.5717 10.5627 10.6534 10.6725C10.7352 10.7823 10.8565 10.8559 10.9917 10.8777H11.0048C11.0752 10.8831 11.146 10.8742 11.2128 10.8516C11.2797 10.8289 11.3413 10.793 11.394 10.746C11.4466 10.6989 11.4892 10.6418 11.5192 10.5779C11.5492 10.514 11.566 10.4447 11.5686 10.3741L11.6344 9.05864" stroke="black" stroke-width="0.406793" stroke-linecap="round" stroke-linejoin="round"/>
<path d="M8.35717 4.55972C8.35717 4.55972 8.29327 6.36191 8.86832 7.45939C9.44337 8.55687 10.1049 9.17138 10.9919 9.17138C11.3888 9.16643 11.7762 9.04881 12.1089 8.83222C12.4416 8.61563 12.7059 8.30899 12.8711 7.94799C13.1962 7.2865 13.3372 6.25667 13.3954 5.8019C13.4598 5.23172 13.4755 4.65711 13.4424 4.08427C13.4424 4.08427 11.4316 3.37204 11.1009 1.32178C11.1009 1.32178 10.2233 4.5428 7.60547 4.5428" stroke="black" stroke-width="0.406793" stroke-linecap="round" stroke-linejoin="round"/>
<path d="M12.8916 14.7565C13.057 15.2846 13.4685 16.5192 13.7861 16.8368C14.1977 17.2484 14.4852 17.8516 16.0638 18.002C16.4894 18.0473 16.9195 18.0289 17.3398 17.9475C17.3785 17.6971 17.4722 17.4583 17.6141 17.2484L15.3083 16.0532L14.9513 15.6961L12.9104 11.6483" stroke="black" stroke-width="0.406793" stroke-linecap="round" stroke-linejoin="round"/>
<path d="M11.753 10.4981L11.9616 10.9999L11.6534 11.2198L10.8641 11.1841L10.1782 10.7706L10.4225 10.3534L11.0295 10.5977L11.753 10.4981Z" fill="#FF61BF"/>
<path d="M10.3472 10.2783C10.3472 10.2783 10.7738 10.842 11.8506 10.4662L10.3472 10.2783Z" fill="#FF61BF"/>
<path d="M4.01791 18.359L3.85254 16.8124C3.85254 16.8124 5.55513 16.8481 6.01179 17.0135L5.73742 18.359" fill="#FBB63A"/>
<path d="M5.604 18.2369C5.63971 18.2011 5.85018 17.1243 5.85018 17.1243" stroke="#D08600" stroke-width="0.54239" stroke-miterlimit="10"/>
<path d="M4.01791 18.359L3.85254 16.8124C3.85254 16.8124 5.55513 16.8481 6.01179 17.0135L5.73742 18.359" stroke="black" stroke-width="0.406793" stroke-linecap="round" stroke-linejoin="round"/>
<path d="M3.93701 17.3818L5.41598 17.4645" stroke="black" stroke-width="0.271195" stroke-linecap="round" stroke-linejoin="round"/>
<path d="M18.0934 18.3553C18.5583 18.3553 18.9353 17.9783 18.9353 17.5134C18.9353 17.0484 18.5583 16.6715 18.0934 16.6715C17.6284 16.6715 17.2515 17.0484 17.2515 17.5134C17.2515 17.9783 17.6284 18.3553 18.0934 18.3553Z" fill="#F8C5A6"/>
<path d="M18.9353 17.5848C18.9353 17.808 18.8466 18.0222 18.6887 18.1801C18.5308 18.338 18.3167 18.4267 18.0934 18.4267C18.0615 18.4285 18.0295 18.4285 17.9976 18.4267C18.2038 18.4047 18.3947 18.3073 18.5334 18.1531C18.6721 17.9989 18.7489 17.7988 18.7489 17.5913C18.7489 17.3839 18.6721 17.1838 18.5334 17.0296C18.3947 16.8754 18.2038 16.7779 17.9976 16.756C18.0295 16.7541 18.0615 16.7541 18.0934 16.756C18.3144 16.756 18.5266 16.8429 18.6841 16.9979C18.8416 17.153 18.9318 17.3638 18.9353 17.5848Z" fill="#F57A59"/>
<path d="M18.0934 18.4229C18.5583 18.4229 18.9353 18.046 18.9353 17.581C18.9353 17.1161 18.5583 16.7391 18.0934 16.7391C17.6284 16.7391 17.2515 17.1161 17.2515 17.581C17.2515 18.046 17.6284 18.4229 18.0934 18.4229Z" stroke="black" stroke-width="0.406793" stroke-linecap="round" stroke-linejoin="round"/>
<path d="M18.0182 17.4495C18.0785 17.3025 18.0253 17.1416 17.8995 17.0901C17.7737 17.0385 17.6229 17.1158 17.5627 17.2627C17.5024 17.4097 17.5556 17.5706 17.6814 17.6221C17.8072 17.6737 17.958 17.5964 18.0182 17.4495Z" fill="#FFE5D5"/>
<path d="M4.09473 16.8425C4.09473 16.8612 4.1154 17.0868 4.1154 17.0868" stroke="black" stroke-width="0.135598" stroke-linecap="round" stroke-linejoin="round"/>
<path d="M4.2998 16.8425C4.2998 16.8612 4.32048 17.0868 4.32048 17.0868" stroke="black" stroke-width="0.135598" stroke-linecap="round" stroke-linejoin="round"/>
<path d="M4.87855 16.8425C4.87855 16.8612 4.84473 17.1243 4.84473 17.1243" stroke="black" stroke-width="0.135598" stroke-linecap="round" stroke-linejoin="round"/>
<path d="M5.10804 16.8613C5.10804 16.8801 5.07422 17.1432 5.07422 17.1432" stroke="black" stroke-width="0.135598" stroke-linecap="round" stroke-linejoin="round"/>
<path d="M5.35219 16.8782C5.35219 16.8951 5.31836 17.1582 5.31836 17.1582" stroke="black" stroke-width="0.135598" stroke-linecap="round" stroke-linejoin="round"/>
<path d="M5.60414 16.9045C5.60414 16.9214 5.57031 17.1845 5.57031 17.1845" stroke="black" stroke-width="0.135598" stroke-linecap="round" stroke-linejoin="round"/>
<path d="M5.77113 16.9627C5.77113 16.9796 5.7373 17.2427 5.7373 17.2427" stroke="black" stroke-width="0.135598" stroke-linecap="round" stroke-linejoin="round"/>
<path d="M4.55371 16.8425C4.55371 16.8612 4.57438 17.0868 4.57438 17.0868" stroke="black" stroke-width="0.135598" stroke-linecap="round" stroke-linejoin="round"/>
<path d="M8.93213 14.048C9.01444 14.2121 9.14214 14.3491 9.30005 14.4427C9.45796 14.5363 9.63943 14.5826 9.82289 14.5761C10.1904 14.5562 10.5471 14.4444 10.8602 14.251" stroke="black" stroke-width="0.271195" stroke-linecap="round" stroke-linejoin="round"/>
<path d="M11.7812 14.4145C12.104 14.3133 12.4013 14.1441 12.6532 13.9184C12.7772 13.8048 12.8751 13.6657 12.94 13.5106C13.0049 13.3555 13.0353 13.1881 13.0291 13.0201C13.0009 12.6442 12.7397 12.3172 12.5273 11.994C12.3444 11.7141 12.1932 11.4147 12.0763 11.1014" stroke="black" stroke-width="0.271195" stroke-linecap="round" stroke-linejoin="round"/>
<path d="M10.9113 5.01452C10.7522 4.90107 10.5564 4.85144 10.3625 4.87545C10.1693 4.90266 9.98934 4.98936 9.84763 5.12351C9.80457 5.1734 9.75054 5.21264 9.68977 5.23815C9.66189 5.24444 9.63294 5.2443 9.60512 5.23772C9.5773 5.23114 9.55135 5.2183 9.52924 5.20018C9.50713 5.18206 9.48945 5.15913 9.47754 5.13314C9.46563 5.10716 9.4598 5.0788 9.46051 5.05022" stroke="black" stroke-width="0.271195" stroke-linecap="round" stroke-linejoin="round"/>
<path d="M9.76445 5.16302C9.74198 5.15015 9.72241 5.13277 9.70697 5.11198C9.69153 5.09119 9.68056 5.06743 9.67473 5.0422C9.66891 5.01697 9.66837 4.9908 9.67313 4.96535C9.6779 4.9399 9.68788 4.9157 9.70244 4.89429" stroke="black" stroke-width="0.271195" stroke-linecap="round" stroke-linejoin="round"/>
<path d="M12.0195 4.95438C12.0546 4.88958 12.1074 4.83612 12.1718 4.80029C12.2661 4.73542 12.3768 4.69831 12.4912 4.69317C12.5941 4.69879 12.695 4.72432 12.7881 4.76834C12.8807 4.81344 12.9807 4.84145 13.0832 4.85102C13.1326 4.85319 13.1817 4.84256 13.2259 4.82018C13.27 4.79779 13.3076 4.7644 13.335 4.72324" stroke="black" stroke-width="0.271195" stroke-linecap="round" stroke-linejoin="round"/>
<path d="M12.8467 4.78146C12.912 4.78107 12.9763 4.76564 13.0346 4.73636C13.0628 4.72053 13.0865 4.69767 13.1033 4.67002C13.12 4.64236 13.1294 4.61084 13.1304 4.57851" stroke="black" stroke-width="0.271195" stroke-linecap="round" stroke-linejoin="round"/>
<path d="M4.60803 18.2275C4.65009 18.2694 4.68445 18.3183 4.70951 18.3722C4.71936 18.4344 4.71936 18.4978 4.70951 18.5601C4.70986 18.6262 4.73175 18.6905 4.77187 18.7431C4.81199 18.7957 4.86815 18.8338 4.93186 18.8516C4.99557 18.8695 5.06336 18.8661 5.12496 18.842C5.18656 18.8178 5.23863 18.7743 5.27328 18.7179C5.30151 18.6694 5.31638 18.6143 5.31638 18.5582C5.31638 18.5021 5.30151 18.447 5.27328 18.3985V18.3722C5.27127 18.3513 5.26417 18.3313 5.25261 18.3139C5.2263 18.2782 5.17368 18.2688 5.14362 18.2368C5.11355 18.2049 5.1267 18.0959 5.13422 18.0207C5.14004 17.955 5.1238 17.8892 5.08807 17.8337C5.05234 17.7783 4.99915 17.7363 4.9369 17.7144C4.87208 17.698 4.80374 17.7022 4.74143 17.7265C4.67911 17.7507 4.62591 17.7938 4.58924 17.8497C4.55535 17.9077 4.53908 17.9743 4.54242 18.0414C4.54576 18.1085 4.56856 18.1731 4.60803 18.2275Z" fill="white"/>
<path d="M26.4052 19.5204H3.1665V26.1541H26.4052V19.5204Z" fill="#F57A59"/>
<path d="M26.4052 19.5204H3.1665V20.3942H26.4052V19.5204Z" fill="#EE4517"/>
<path d="M26.4052 19.5204H3.1665V26.1541H26.4052V19.5204Z" stroke="black" stroke-width="0.54239" stroke-linecap="round" stroke-linejoin="round"/>
<path d="M5.14551 19.137H5.75438" stroke="black" stroke-width="0.54239" stroke-linecap="round" stroke-linejoin="round"/>
<path d="M28.4648 18.3853H1.40186V19.8924H28.4648V18.3853Z" fill="#F57A59"/>
<path d="M28.4572 19.5204H1.41113V19.8906H28.4572V19.5204Z" fill="#EE4517"/>
<path d="M13.2334 18.981H1.41113V18.3853H13.831C13.8305 18.5435 13.7674 18.695 13.6553 18.8066C13.5433 18.9183 13.3916 18.981 13.2334 18.981Z" fill="#FF9A80"/>
<path d="M1.41113 19.137H4.46114" stroke="black" stroke-width="0.406793" stroke-linecap="round" stroke-linejoin="round"/>
<path d="M4.95557 19.137H5.35397" stroke="black" stroke-width="0.406793" stroke-linecap="round" stroke-linejoin="round"/>
<path d="M1.58057 18.5883H11.5349" stroke="white" stroke-width="1.08478" stroke-linecap="round" stroke-linejoin="round"/>
<path d="M28.4648 18.3853H1.40186V19.8924H28.4648V18.3853Z" stroke="black" stroke-width="0.54239" stroke-linecap="round" stroke-linejoin="round"/>
<path d="M4.46143 19.8906V26.1541" stroke="black" stroke-width="0.406793" stroke-linecap="round" stroke-linejoin="round"/>
<path d="M25.1929 19.8906V26.1541" stroke="black" stroke-width="0.406793" stroke-linecap="round" stroke-linejoin="round"/>
<path d="M3.60645 21.2512C3.69195 21.0348 3.80365 20.8297 3.93907 20.6404" stroke="black" stroke-width="0.141021" stroke-linecap="round" stroke-linejoin="round"/>
<path d="M3.53857 21.0651C3.58249 20.869 3.66281 20.6829 3.77536 20.5164" stroke="black" stroke-width="0.141021" stroke-linecap="round" stroke-linejoin="round"/>
<path d="M20.2642 22.2923C20.3026 22.1815 20.3472 22.073 20.3976 21.9671C20.4404 21.8565 20.5102 21.7583 20.6005 21.6815C20.5481 21.7846 20.4904 21.885 20.4277 21.9822C20.3694 22.0818 20.3187 22.187 20.2642 22.2923Z" fill="black"/>
<path d="M20.1966 22.1081C20.2121 22.0079 20.2379 21.9097 20.2737 21.8149C20.3012 21.7156 20.3567 21.6262 20.4334 21.5574C20.3955 21.6495 20.3522 21.7392 20.3038 21.8262C20.2622 21.9172 20.2264 22.0107 20.1966 22.1062C20.1966 22.1062 20.1948 22.1099 20.1966 22.1081Z" fill="black"/>
<path d="M3.93896 25.5791C3.8765 25.3544 3.84303 25.1226 3.83936 24.8894" stroke="black" stroke-width="0.141021" stroke-linecap="round" stroke-linejoin="round"/>
<path d="M3.76253 25.4719C3.68031 25.2886 3.63253 25.0918 3.62158 24.8912" stroke="black" stroke-width="0.141021" stroke-linecap="round" stroke-linejoin="round"/>
<path d="M5.71307 24.5022C5.57768 24.3126 5.46657 24.1068 5.38232 23.8896" stroke="black" stroke-width="0.141021" stroke-linecap="round" stroke-linejoin="round"/>
<path d="M5.52103 24.4609C5.37987 24.3169 5.26647 24.148 5.18652 23.9629" stroke="black" stroke-width="0.141021" stroke-linecap="round" stroke-linejoin="round"/>
<path d="M21.1266 25.1995C21.0571 25.1074 20.9876 25.0115 20.9256 24.9119C20.8556 24.8155 20.811 24.7031 20.7959 24.5849C20.856 24.6883 20.9068 24.7898 20.9556 24.895C21.0045 25.0003 21.0684 25.098 21.1285 25.1995H21.1266Z" fill="black"/>
<path d="M20.9351 25.1562C20.8597 25.0892 20.7911 25.015 20.7303 24.9345C20.6617 24.8573 20.6167 24.7621 20.6006 24.6601C20.6588 24.7447 20.7077 24.8274 20.7566 24.9138C20.8093 24.9989 20.8683 25.08 20.9332 25.1562C20.9332 25.1562 20.9351 25.1581 20.9351 25.1562Z" fill="black"/>
<path d="M3.72839 16.5155L3.59309 16.6546L3.51416 16.3576L3.72839 16.3802V16.5155Z" fill="#F59B79"/>
<path d="M3.97627 16.5361C4.01467 16.5361 4.0458 16.505 4.0458 16.4666C4.0458 16.4282 4.01467 16.3971 3.97627 16.3971C3.93787 16.3971 3.90674 16.4282 3.90674 16.4666C3.90674 16.505 3.93787 16.5361 3.97627 16.5361Z" fill="#F59B79"/>
<path d="M3.23604 16.5756C3.27444 16.5756 3.30557 16.5445 3.30557 16.5061C3.30557 16.4677 3.27444 16.4366 3.23604 16.4366C3.19763 16.4366 3.1665 16.4677 3.1665 16.5061C3.1665 16.5445 3.19763 16.5756 3.23604 16.5756Z" fill="#F59B79"/>
<path d="M3.47285 16.8707C3.51125 16.8707 3.54238 16.8395 3.54238 16.8011C3.54238 16.7627 3.51125 16.7316 3.47285 16.7316C3.43445 16.7316 3.40332 16.7627 3.40332 16.8011C3.40332 16.8395 3.43445 16.8707 3.47285 16.8707Z" fill="#F59B79"/>
<path d="M3.53877 16.1866C3.57717 16.1866 3.6083 16.1555 3.6083 16.1171C3.6083 16.0787 3.57717 16.0475 3.53877 16.0475C3.50037 16.0475 3.46924 16.0787 3.46924 16.1171C3.46924 16.1555 3.50037 16.1866 3.53877 16.1866Z" fill="#F59B79"/>
<path d="M13.0405 14.7283C13.0405 14.7283 13.4671 16.117 13.7678 16.506" stroke="#C3268A" stroke-width="0.54239" stroke-linecap="round" stroke-linejoin="round"/>
<path d="M10.8921 7.32409C10.936 7.38328 10.992 7.43255 11.0563 7.46866C11.1205 7.50477 11.1917 7.52692 11.2651 7.53366C11.3386 7.54039 11.4126 7.53157 11.4824 7.50777C11.5521 7.48396 11.6161 7.44571 11.6701 7.3955C11.6826 7.40862 11.6978 7.41879 11.7147 7.42529C11.7316 7.43179 11.7498 7.43445 11.7678 7.43308C11.8123 7.43149 11.8556 7.41855 11.8937 7.3955C11.8937 7.3955 12.0967 7.60597 12.4049 7.30717C12.4049 7.30717 12.2376 8.0476 11.6532 8.04196C11.4766 8.05374 11.3019 7.9995 11.163 7.88978C11.0241 7.78006 10.9309 7.62266 10.9015 7.44812C10.8921 7.30717 10.8921 7.32409 10.8921 7.32409Z" fill="#FF3838"/>
<path d="M10.8921 7.32409C10.936 7.38328 10.992 7.43255 11.0563 7.46866C11.1205 7.50477 11.1917 7.52692 11.2651 7.53366C11.3386 7.54039 11.4126 7.53157 11.4824 7.50777C11.5521 7.48396 11.6161 7.44571 11.6701 7.3955C11.6826 7.40862 11.6978 7.41879 11.7147 7.42529C11.7316 7.43179 11.7498 7.43445 11.7678 7.43308C11.8158 7.42804 11.8605 7.40606 11.8937 7.37107C11.8937 7.37107 12.0967 7.60597 12.4049 7.30717C12.4049 7.30717 12.2376 8.0476 11.6532 8.04196C11.4766 8.05374 11.3019 7.9995 11.163 7.88978C11.0241 7.78006 10.9309 7.62266 10.9015 7.44812C10.8921 7.30717 10.8921 7.32409 10.8921 7.32409Z" stroke="#202020" stroke-width="0.271195" stroke-miterlimit="10"/>
<path d="M10.9448 7.41994C10.9448 7.41994 11.6965 8.23553 12.343 7.41994" stroke="#202020" stroke-width="0.135598" stroke-miterlimit="10"/>
<path d="M22.1509 17.3198H23.8516" stroke="black" stroke-width="0.406793" stroke-linecap="round" stroke-linejoin="round"/>
<path d="M24.1802 17.3198H24.5654" stroke="black" stroke-width="0.406793" stroke-linecap="round" stroke-linejoin="round"/>
<g opacity="0.4">
<path d="M9.33774 2.09796C9.40198 2.03376 9.45193 1.95671 9.48432 1.87186C9.51671 1.78701 9.5308 1.69627 9.52567 1.6056C9.51263 1.5124 9.47145 1.4254 9.40765 1.35622C9.34385 1.28704 9.26045 1.23899 9.16861 1.21847C9.08661 1.20466 9.00248 1.21076 8.92334 1.23627C8.84419 1.26179 8.77233 1.30595 8.71383 1.36505C8.59538 1.48278 8.52219 1.63847 8.50712 1.8048C8.50751 1.91641 8.48778 2.02718 8.44886 2.13178C8.39422 2.20869 8.33119 2.27928 8.26094 2.34226C8.22801 2.37459 8.2057 2.41618 8.19697 2.46149C8.18825 2.50681 8.19351 2.55371 8.21208 2.59596C8.26845 2.68428 8.4 2.6824 8.50148 2.65045C8.68131 2.58112 8.84644 2.47847 8.9882 2.3479C9.12012 2.28856 9.23893 2.2036 9.33774 2.09796Z" fill="#DBC7FF"/>
<path d="M9.05427 2.46437C8.89265 2.50572 8.78554 2.63163 8.8156 2.74626C8.84567 2.86089 9.00353 2.91915 9.16138 2.87781C9.31924 2.83646 9.43012 2.71055 9.40005 2.59592C9.36988 2.5342 9.31736 2.48626 9.25315 2.46183C9.18894 2.4374 9.11783 2.43831 9.05427 2.46437Z" fill="#DBC7FF"/>
</g>
<path d="M11.6476 10.2801L11.875 10.7236L11.6344 10.9529L10.9579 10.9924L10.334 10.6748L10.5012 10.2651L11.0406 10.4361L11.6476 10.2801Z" fill="#FF61BF"/>
<path d="M10.4302 10.1975C10.4302 10.1975 10.8474 10.6804 11.7231 10.2388" stroke="black" stroke-width="0.271195" stroke-linecap="round" stroke-linejoin="round"/>
<defs>
<linearGradient id="paint0_linear_4100_174762" x1="-0.00274971" y1="20.812" x2="31.8471" y2="20.812" gradientUnits="userSpaceOnUse">
<stop stop-color="#5B38D2"/>
<stop offset="1" stop-color="#CF4DA7"/>
</linearGradient>
</defs>
</svg>
