<svg width="24" height="25" viewBox="0 0 24 25" fill="none" xmlns="http://www.w3.org/2000/svg">
<path d="M15.1552 7.42002C15.1552 6.00002 14.6552 4.69002 13.8252 3.66002C14.2452 3.52002 14.6852 3.42002 15.1552 3.42002C17.3652 3.42002 19.1552 5.21002 19.1552 7.42002C19.1552 9.63002 17.3652 11.42 15.1552 11.42C15.0952 11.42 15.0352 11.42 14.9752 11.42L14.2052 10.65C14.8052 9.71002 15.1552 8.60002 15.1552 7.42002ZM22.9852 19.42H23.1552V16.42C23.1552 14.24 19.5752 12.95 16.8152 12.55C17.9152 13.3 18.7652 14.26 19.0452 15.49L22.9852 19.42ZM9.15522 5.42002C9.09521 5.42002 9.04522 5.42002 8.99522 5.43002L7.39521 3.83002C7.92521 3.57002 8.52522 3.42002 9.15522 3.42002C11.3652 3.42002 13.1552 5.21002 13.1552 7.42002C13.1552 8.05002 13.0052 8.65002 12.7452 9.18002L11.1452 7.58002C11.1552 7.53002 11.1552 7.48002 11.1552 7.42002C11.1552 6.32002 10.2552 5.42002 9.15522 5.42002ZM9.32522 11.42C9.26521 11.42 9.21522 11.42 9.15522 11.42C6.94522 11.42 5.15521 9.63002 5.15521 7.42002C5.15521 7.36002 5.15521 7.31002 5.15521 7.25002L0.845215 2.93002L2.25521 1.52002L22.0552 21.32L20.6452 22.73L17.1552 19.25V19.42H1.15521V16.42C1.15521 13.76 6.48522 12.42 9.15522 12.42C9.52522 12.42 9.95522 12.45 10.4052 12.5L9.32522 11.42ZM9.15522 14.42C6.45522 14.42 3.35521 15.71 3.15521 16.43V17.42H15.1552V17.25L13.0452 15.14C11.9152 14.73 10.4852 14.42 9.15522 14.42Z" fill="#49454E"/>
</svg>
