<svg width="32" height="24" viewBox="0 0 32 24" fill="none" xmlns="http://www.w3.org/2000/svg">
<path d="M31.7775 13.802C31.7764 14.1847 31.6407 14.5514 31.4001 14.8221C31.1594 15.0928 30.8333 15.2454 30.4928 15.2468H4.52389C4.1877 15.2392 3.86756 15.0838 3.63218 14.8138C3.39681 14.5438 3.26497 14.1809 3.26497 13.8028C3.26497 13.4248 3.39681 13.0619 3.63218 12.7919C3.86756 12.5219 4.1877 12.3664 4.52389 12.3589H9.99668C10.3329 12.3513 10.653 12.1958 10.8884 11.9259C11.1238 11.6559 11.2556 11.2929 11.2556 10.9149C11.2556 10.5369 11.1238 10.1739 10.8884 9.90394C10.653 9.63397 10.3329 9.47851 9.99668 9.47093H4.15051C3.85644 9.36978 3.60439 9.15339 3.44018 8.86107C3.27597 8.56875 3.21048 8.2199 3.25561 7.87791C3.30075 7.53591 3.45351 7.22347 3.68614 6.99734C3.91877 6.77122 4.21584 6.64642 4.52337 6.64561H16.1935C16.5297 6.63804 16.8499 6.48258 17.0852 6.21261C17.3206 5.94264 17.4525 5.57967 17.4525 5.20164C17.4525 4.82361 17.3206 4.46065 17.0852 4.19068C16.8499 3.92071 16.5297 3.76525 16.1935 3.75767H10.2762C9.94001 3.7501 9.61987 3.59464 9.3845 3.32467C9.14912 3.0547 9.01729 2.69174 9.01729 2.3137C9.01729 1.93567 9.14912 1.57271 9.3845 1.30274C9.61987 1.03277 9.94001 0.87731 10.2762 0.869736H24.7405C25.0767 0.87731 25.3969 1.03277 25.6322 1.30274C25.8676 1.57271 25.9994 1.93567 25.9994 2.3137C25.9994 2.69174 25.8676 3.0547 25.6322 3.32467C25.3969 3.59464 25.0767 3.7501 24.7405 3.75767H21.5013C21.1651 3.76525 20.845 3.92071 20.6096 4.19068C20.3742 4.46065 20.2424 4.82361 20.2424 5.20164C20.2424 5.57967 20.3742 5.94264 20.6096 6.21261C20.845 6.48258 21.1651 6.63804 21.5013 6.64561H30.4928C30.829 6.65319 31.1492 6.80865 31.3845 7.07862C31.6199 7.34859 31.7518 7.71155 31.7518 8.08958C31.7518 8.46761 31.6199 8.83057 31.3845 9.10055C31.1492 9.37052 30.829 9.52598 30.4928 9.53355H30.1401C30.0193 9.49194 29.8936 9.47084 29.7672 9.47093H15.3024C14.962 9.47231 14.636 9.62491 14.3953 9.89547C14.1547 10.166 14.019 10.5326 14.0177 10.9152C14.019 11.2978 14.1547 11.6644 14.3953 11.9349C14.636 12.2055 14.962 12.3581 15.3024 12.3595H30.4928C30.8329 12.3608 31.1587 12.5132 31.3993 12.7834C31.6399 13.0535 31.7759 13.4197 31.7775 13.802Z" fill="url(#paint0_linear_4100_175128)"/>
<path d="M7.23242 3.81915C7.9573 3.81915 8.54492 3.15851 8.54492 2.34358C8.54492 1.52865 7.9573 0.868011 7.23242 0.868011C6.50755 0.868011 5.91992 1.52865 5.91992 2.34358C5.91992 3.15851 6.50755 3.81915 7.23242 3.81915Z" fill="url(#paint1_linear_4100_175128)"/>
<path d="M1.3125 15.3715C2.03738 15.3715 2.625 14.7109 2.625 13.8959C2.625 13.081 2.03738 12.4204 1.3125 12.4204C0.587627 12.4204 0 13.081 0 13.8959C0 14.7109 0.587627 15.3715 1.3125 15.3715Z" fill="url(#paint2_linear_4100_175128)"/>
<g opacity="0.5">
<path d="M11.7646 8.19828C11.8195 8.19828 11.8641 8.14818 11.8641 8.08638C11.8641 8.02458 11.8195 7.97448 11.7646 7.97448C11.7096 7.97448 11.665 8.02458 11.665 8.08638C11.665 8.14818 11.7096 8.19828 11.7646 8.19828Z" fill="white"/>
<path d="M13.1362 7.684C13.1911 7.684 13.2357 7.63391 13.2357 7.5721C13.2357 7.5103 13.1911 7.46021 13.1362 7.46021C13.0812 7.46021 13.0366 7.5103 13.0366 7.5721C13.0366 7.63391 13.0812 7.684 13.1362 7.684Z" fill="white"/>
<path d="M10.7308 8.62969C10.706 8.62969 10.6818 8.62142 10.6612 8.60594C10.6406 8.59046 10.6245 8.56846 10.615 8.54271C10.6055 8.51697 10.603 8.48864 10.6079 8.46131C10.6127 8.43398 10.6246 8.40888 10.6422 8.38917C10.6597 8.36947 10.682 8.35605 10.7063 8.35062C10.7306 8.34518 10.7558 8.34797 10.7787 8.35863C10.8016 8.3693 10.8212 8.38735 10.835 8.41052C10.8488 8.43369 10.8561 8.46093 10.8561 8.4888C10.8561 8.52616 10.8429 8.562 10.8194 8.58842C10.7959 8.61484 10.764 8.62969 10.7308 8.62969ZM10.7308 8.40647C10.7162 8.40647 10.7019 8.41133 10.6898 8.42044C10.6777 8.42955 10.6682 8.4425 10.6627 8.45765C10.6571 8.4728 10.6556 8.48947 10.6585 8.50555C10.6613 8.52163 10.6683 8.53641 10.6786 8.548C10.689 8.5596 10.7021 8.5675 10.7164 8.57069C10.7307 8.57389 10.7455 8.57225 10.759 8.56598C10.7725 8.5597 10.784 8.54907 10.7921 8.53544C10.8002 8.5218 10.8045 8.50578 10.8045 8.48938C10.8047 8.47839 10.8029 8.46749 10.7992 8.45729C10.7956 8.4471 10.7902 8.43782 10.7833 8.43C10.7764 8.42218 10.7683 8.41597 10.7593 8.41173C10.7502 8.40749 10.7406 8.40531 10.7308 8.40531V8.40647Z" fill="white"/>
<path d="M10.5856 7.71359L10.7619 7.89448C10.7986 7.93217 10.8537 7.87071 10.8166 7.83302L10.6402 7.65155C10.6036 7.61386 10.5484 7.67532 10.5856 7.71301V7.71359Z" fill="white"/>
<path d="M10.7544 7.64344L10.5935 7.84173C10.56 7.88289 10.6146 7.94493 10.6482 7.90319L10.8091 7.7049C10.8426 7.66373 10.7879 7.60169 10.7544 7.64344Z" fill="white"/>
<path d="M13.1405 8.04697L12.978 8.24352C12.944 8.28469 12.9987 8.34614 13.0327 8.30498L13.1952 8.10843C13.2292 8.06726 13.1745 8.00581 13.1405 8.04697Z" fill="white"/>
<path d="M13.2021 8.23653L13.0272 8.05389C12.9906 8.01563 12.9359 8.07709 12.9726 8.11535L13.1474 8.29799C13.184 8.33625 13.2387 8.27479 13.2021 8.23653Z" fill="white"/>
<path d="M18.4662 8.19828C18.5212 8.19828 18.5658 8.14818 18.5658 8.08638C18.5658 8.02458 18.5212 7.97448 18.4662 7.97448C18.4113 7.97448 18.3667 8.02458 18.3667 8.08638C18.3667 8.14818 18.4113 8.19828 18.4662 8.19828Z" fill="white"/>
<path d="M19.8378 7.684C19.8928 7.684 19.9373 7.63391 19.9373 7.5721C19.9373 7.5103 19.8928 7.46021 19.8378 7.46021C19.7828 7.46021 19.7383 7.5103 19.7383 7.5721C19.7383 7.63391 19.7828 7.684 19.8378 7.684Z" fill="white"/>
<path d="M17.431 8.62969C17.4062 8.62969 17.382 8.62142 17.3614 8.60594C17.3408 8.59046 17.3247 8.56846 17.3152 8.54271C17.3057 8.51697 17.3032 8.48864 17.3081 8.46131C17.3129 8.43398 17.3248 8.40888 17.3424 8.38917C17.3599 8.36947 17.3822 8.35605 17.4065 8.35062C17.4308 8.34518 17.456 8.34797 17.4789 8.35863C17.5018 8.3693 17.5214 8.38735 17.5352 8.41052C17.549 8.43369 17.5563 8.46093 17.5563 8.4888C17.5563 8.52616 17.5431 8.562 17.5196 8.58842C17.4961 8.61484 17.4642 8.62969 17.431 8.62969ZM17.431 8.40647C17.4164 8.40647 17.4021 8.41133 17.39 8.42044C17.3779 8.42955 17.3684 8.4425 17.3628 8.45765C17.3573 8.4728 17.3558 8.48947 17.3587 8.50555C17.3615 8.52163 17.3685 8.53641 17.3788 8.548C17.3891 8.5596 17.4023 8.5675 17.4166 8.57069C17.4309 8.57389 17.4457 8.57225 17.4592 8.56598C17.4727 8.5597 17.4842 8.54907 17.4923 8.53544C17.5004 8.5218 17.5047 8.50578 17.5047 8.48938C17.5049 8.47839 17.5031 8.46749 17.4994 8.45729C17.4958 8.4471 17.4904 8.43782 17.4835 8.43C17.4766 8.42218 17.4685 8.41597 17.4594 8.41173C17.4504 8.40749 17.4408 8.40531 17.431 8.40531V8.40647Z" fill="white"/>
<path d="M17.2872 7.71359L17.4636 7.89448C17.5002 7.93217 17.5554 7.87071 17.5183 7.83302L17.3419 7.65155C17.3053 7.61386 17.2501 7.67532 17.2872 7.71301V7.71359Z" fill="white"/>
<path d="M17.4561 7.64344L17.2952 7.84173C17.2616 7.88289 17.3163 7.94493 17.3498 7.90319L17.5107 7.7049C17.5442 7.66373 17.4896 7.60169 17.4561 7.64344Z" fill="white"/>
<path d="M19.8421 8.04697L19.6797 8.24352C19.6457 8.28469 19.7003 8.34614 19.7344 8.30498L19.8968 8.10843C19.9308 8.06726 19.8762 8.00581 19.8421 8.04697Z" fill="white"/>
<path d="M19.9027 8.23653L19.7279 8.05389C19.6913 8.01563 19.6366 8.07709 19.6732 8.11535L19.8481 8.29799C19.8847 8.33625 19.9394 8.27479 19.9027 8.23653Z" fill="white"/>
<path d="M28.9101 8.19828C28.9651 8.19828 29.0096 8.14818 29.0096 8.08638C29.0096 8.02458 28.9651 7.97448 28.9101 7.97448C28.8551 7.97448 28.8105 8.02458 28.8105 8.08638C28.8105 8.14818 28.8551 8.19828 28.9101 8.19828Z" fill="white"/>
<path d="M30.2822 7.684C30.3371 7.684 30.3817 7.63391 30.3817 7.5721C30.3817 7.5103 30.3371 7.46021 30.2822 7.46021C30.2272 7.46021 30.1826 7.5103 30.1826 7.5721C30.1826 7.63391 30.2272 7.684 30.2822 7.684Z" fill="white"/>
<path d="M27.8758 8.62969C27.851 8.62969 27.8268 8.62142 27.8062 8.60594C27.7856 8.59046 27.7695 8.56846 27.76 8.54271C27.7505 8.51697 27.7481 8.48864 27.7529 8.46131C27.7577 8.43398 27.7697 8.40888 27.7872 8.38917C27.8047 8.36947 27.827 8.35605 27.8514 8.35062C27.8757 8.34518 27.9009 8.34797 27.9238 8.35863C27.9467 8.3693 27.9662 8.38735 27.98 8.41052C27.9938 8.43369 28.0011 8.46093 28.0011 8.4888C28.0011 8.52616 27.9879 8.562 27.9644 8.58842C27.9409 8.61484 27.909 8.62969 27.8758 8.62969ZM27.8758 8.40647C27.8612 8.40647 27.847 8.41133 27.8348 8.42044C27.8227 8.42955 27.8133 8.4425 27.8077 8.45765C27.8021 8.4728 27.8006 8.48947 27.8035 8.50555C27.8063 8.52163 27.8133 8.53641 27.8237 8.548C27.834 8.5596 27.8471 8.5675 27.8614 8.57069C27.8757 8.57389 27.8906 8.57225 27.904 8.56598C27.9175 8.5597 27.929 8.54907 27.9371 8.53544C27.9452 8.5218 27.9496 8.50578 27.9496 8.48938C27.9497 8.47839 27.9479 8.46749 27.9442 8.45729C27.9406 8.4471 27.9352 8.43782 27.9283 8.43C27.9215 8.42218 27.9133 8.41597 27.9043 8.41173C27.8953 8.40749 27.8856 8.40531 27.8758 8.40531V8.40647Z" fill="white"/>
<path d="M27.7311 7.71359L27.9075 7.89448C27.9441 7.93217 27.9992 7.87071 27.9621 7.83302L27.7857 7.65155C27.7491 7.61386 27.6939 7.67532 27.7311 7.71301V7.71359Z" fill="white"/>
<path d="M27.8999 7.64344L27.739 7.84173C27.7055 7.88289 27.7601 7.94493 27.7937 7.90319L27.9546 7.7049C27.9881 7.66373 27.9334 7.60169 27.8999 7.64344Z" fill="white"/>
<path d="M30.286 8.04697L30.1235 8.24352C30.0895 8.28469 30.1442 8.34614 30.1782 8.30498L30.3407 8.10843C30.3747 8.06726 30.32 8.00581 30.286 8.04697Z" fill="white"/>
<path d="M30.3466 8.23653L30.1718 8.05389C30.1351 8.01563 30.0805 8.07709 30.1171 8.11535L30.2919 8.29799C30.3285 8.33625 30.3832 8.27479 30.3466 8.23653Z" fill="white"/>
<path d="M5.73283 8.19828C5.78781 8.19828 5.83237 8.14818 5.83237 8.08638C5.83237 8.02458 5.78781 7.97448 5.73283 7.97448C5.67786 7.97448 5.6333 8.02458 5.6333 8.08638C5.6333 8.14818 5.67786 8.19828 5.73283 8.19828Z" fill="white"/>
<path d="M7.1049 7.684C7.15988 7.684 7.20444 7.63391 7.20444 7.5721C7.20444 7.5103 7.15988 7.46021 7.1049 7.46021C7.04993 7.46021 7.00537 7.5103 7.00537 7.5721C7.00537 7.63391 7.04993 7.684 7.1049 7.684Z" fill="white"/>
<path d="M4.69905 8.62969C4.67426 8.62969 4.65003 8.62142 4.62943 8.60594C4.60882 8.59046 4.59275 8.56846 4.58327 8.54271C4.57378 8.51697 4.5713 8.48864 4.57614 8.46131C4.58097 8.43398 4.59291 8.40888 4.61044 8.38917C4.62796 8.36947 4.65029 8.35605 4.6746 8.35062C4.69891 8.34518 4.72411 8.34797 4.74701 8.35863C4.76991 8.3693 4.78948 8.38735 4.80325 8.41052C4.81702 8.43369 4.82437 8.46093 4.82437 8.4888C4.82437 8.52616 4.81117 8.562 4.78766 8.58842C4.76416 8.61484 4.73229 8.62969 4.69905 8.62969ZM4.69905 8.40647C4.68446 8.40647 4.67021 8.41133 4.65808 8.42044C4.64595 8.42955 4.6365 8.4425 4.63092 8.45765C4.62533 8.4728 4.62387 8.48947 4.62672 8.50555C4.62956 8.52163 4.63659 8.53641 4.6469 8.548C4.65722 8.5596 4.67036 8.5675 4.68466 8.57069C4.69897 8.57389 4.7138 8.57225 4.72727 8.56598C4.74075 8.5597 4.75227 8.54907 4.76037 8.53544C4.76847 8.5218 4.7728 8.50578 4.7728 8.48938C4.77293 8.47839 4.77113 8.46749 4.76748 8.45729C4.76384 8.4471 4.75843 8.43782 4.75157 8.43C4.7447 8.42218 4.73653 8.41597 4.72751 8.41173C4.7185 8.40749 4.70882 8.40531 4.69905 8.40531V8.40647Z" fill="white"/>
<path d="M4.55432 7.71359L4.73069 7.89448C4.76731 7.93217 4.82249 7.87071 4.78536 7.83302L4.60898 7.65155C4.57237 7.61386 4.51718 7.67532 4.55432 7.71301V7.71359Z" fill="white"/>
<path d="M4.72217 7.64344L4.56126 7.84173C4.52774 7.88289 4.58241 7.94493 4.61593 7.90319L4.77683 7.7049C4.81036 7.66373 4.75569 7.60169 4.72217 7.64344Z" fill="white"/>
<path d="M7.10924 8.04697L6.94679 8.24352C6.91275 8.28469 6.96741 8.34614 7.00145 8.30498L7.1639 8.10843C7.19794 8.06726 7.14327 8.00581 7.10924 8.04697Z" fill="white"/>
<path d="M7.16836 8.23653L6.99353 8.05389C6.95692 8.01563 6.90225 8.07709 6.93887 8.11535L7.1137 8.29799C7.15031 8.33625 7.20498 8.27479 7.16836 8.23653Z" fill="white"/>
</g>
<g opacity="0.5">
<path d="M11.3178 2.48446C11.3728 2.48446 11.4173 2.43436 11.4173 2.37256C11.4173 2.31076 11.3728 2.26066 11.3178 2.26066C11.2628 2.26066 11.2183 2.31076 11.2183 2.37256C11.2183 2.43436 11.2628 2.48446 11.3178 2.48446Z" fill="white"/>
<path d="M12.6899 1.97078C12.7448 1.97078 12.7894 1.92068 12.7894 1.85888C12.7894 1.79708 12.7448 1.74698 12.6899 1.74698C12.6349 1.74698 12.5903 1.79708 12.5903 1.85888C12.5903 1.92068 12.6349 1.97078 12.6899 1.97078Z" fill="white"/>
<path d="M10.284 2.91587C10.2592 2.91587 10.235 2.9076 10.2144 2.89212C10.1938 2.87664 10.1777 2.85464 10.1682 2.82889C10.1587 2.80315 10.1563 2.77482 10.1611 2.74749C10.1659 2.72016 10.1779 2.69506 10.1954 2.67535C10.2129 2.65565 10.2353 2.64223 10.2596 2.63679C10.2839 2.63136 10.3091 2.63415 10.332 2.64481C10.3549 2.65547 10.3744 2.67353 10.3882 2.6967C10.402 2.71987 10.4093 2.74711 10.4093 2.77498C10.4093 2.81234 10.3961 2.84818 10.3726 2.8746C10.3491 2.90102 10.3172 2.91587 10.284 2.91587ZM10.284 2.69265C10.2694 2.69265 10.2552 2.69751 10.243 2.70662C10.2309 2.71573 10.2215 2.72868 10.2159 2.74383C10.2103 2.75898 10.2088 2.77565 10.2117 2.79173C10.2145 2.80781 10.2215 2.82259 10.2319 2.83418C10.2422 2.84578 10.2553 2.85367 10.2696 2.85687C10.2839 2.86007 10.2988 2.85843 10.3122 2.85215C10.3257 2.84588 10.3372 2.83525 10.3453 2.82162C10.3534 2.80798 10.3578 2.79195 10.3578 2.77556C10.3578 2.75357 10.35 2.73248 10.3362 2.71693C10.3223 2.70138 10.3036 2.69265 10.284 2.69265Z" fill="white"/>
<path d="M10.1388 2.00035L10.3142 2.18124C10.3508 2.21893 10.406 2.15747 10.3689 2.11978L10.1925 1.93889C10.1559 1.9012 10.1007 1.96266 10.1378 2.00035H10.1388Z" fill="white"/>
<path d="M10.3071 1.93014L10.1462 2.12843C10.1127 2.16959 10.1674 2.23163 10.2009 2.18988L10.3618 1.99159C10.3953 1.95043 10.3407 1.88839 10.3071 1.93014Z" fill="white"/>
<path d="M12.6937 2.33307L12.5317 2.52961C12.4977 2.57078 12.5524 2.63224 12.5864 2.59107L12.7489 2.39452C12.7829 2.35336 12.7282 2.2919 12.6942 2.33307H12.6937Z" fill="white"/>
<path d="M12.7548 2.5227L12.58 2.34007C12.5433 2.3018 12.4887 2.36326 12.5253 2.40152L12.7001 2.58416C12.7367 2.62242 12.7914 2.56097 12.7548 2.5227Z" fill="white"/>
<path d="M16.8466 2.48446C16.9016 2.48446 16.9461 2.43436 16.9461 2.37256C16.9461 2.31076 16.9016 2.26066 16.8466 2.26066C16.7916 2.26066 16.7471 2.31076 16.7471 2.37256C16.7471 2.43436 16.7916 2.48446 16.8466 2.48446Z" fill="white"/>
<path d="M18.2187 1.97078C18.2736 1.97078 18.3182 1.92068 18.3182 1.85888C18.3182 1.79708 18.2736 1.74698 18.2187 1.74698C18.1637 1.74698 18.1191 1.79708 18.1191 1.85888C18.1191 1.92068 18.1637 1.97078 18.2187 1.97078Z" fill="white"/>
<path d="M15.8128 2.91587C15.788 2.91587 15.7638 2.9076 15.7432 2.89212C15.7226 2.87664 15.7065 2.85464 15.697 2.82889C15.6876 2.80315 15.6851 2.77482 15.6899 2.74749C15.6947 2.72016 15.7067 2.69506 15.7242 2.67535C15.7417 2.65565 15.7641 2.64223 15.7884 2.63679C15.8127 2.63136 15.8379 2.63415 15.8608 2.64481C15.8837 2.65547 15.9032 2.67353 15.917 2.6967C15.9308 2.71987 15.9381 2.74711 15.9381 2.77498C15.9381 2.81234 15.9249 2.84818 15.9014 2.8746C15.8779 2.90102 15.8461 2.91587 15.8128 2.91587ZM15.8128 2.69265C15.7982 2.69265 15.784 2.69751 15.7718 2.70662C15.7597 2.71573 15.7503 2.72868 15.7447 2.74383C15.7391 2.75898 15.7376 2.77565 15.7405 2.79173C15.7433 2.80781 15.7504 2.82259 15.7607 2.83418C15.771 2.84578 15.7841 2.85367 15.7984 2.85687C15.8127 2.86007 15.8276 2.85843 15.841 2.85215C15.8545 2.84588 15.866 2.83525 15.8741 2.82162C15.8822 2.80798 15.8866 2.79195 15.8866 2.77556C15.8866 2.75357 15.8788 2.73248 15.865 2.71693C15.8511 2.70138 15.8324 2.69265 15.8128 2.69265Z" fill="white"/>
<path d="M15.6681 2.0003L15.8445 2.18119C15.8811 2.21888 15.9363 2.15742 15.8991 2.11974L15.7228 1.93884C15.6861 1.90116 15.631 1.96261 15.6681 2.0003Z" fill="white"/>
<path d="M15.8363 1.93014L15.678 2.12843C15.6444 2.16959 15.6991 2.23163 15.7326 2.18988L15.8935 1.99159C15.9271 1.95043 15.8724 1.88839 15.8389 1.93014H15.8363Z" fill="white"/>
<path d="M18.223 2.33307L18.0606 2.52961C18.0265 2.57078 18.0812 2.63224 18.1152 2.59107L18.2777 2.39452C18.3117 2.35336 18.257 2.2919 18.223 2.33307Z" fill="white"/>
<path d="M18.2836 2.5227L18.1088 2.34007C18.0722 2.3018 18.0175 2.36326 18.0541 2.40152L18.2289 2.58416C18.2655 2.62242 18.3202 2.56097 18.2836 2.5227Z" fill="white"/>
<path d="M23.4369 2.48446C23.4919 2.48446 23.5365 2.43436 23.5365 2.37256C23.5365 2.31076 23.4919 2.26066 23.4369 2.26066C23.382 2.26066 23.3374 2.31076 23.3374 2.37256C23.3374 2.43436 23.382 2.48446 23.4369 2.48446Z" fill="white"/>
<path d="M24.8085 1.97078C24.8635 1.97078 24.9081 1.92068 24.9081 1.85888C24.9081 1.79708 24.8635 1.74698 24.8085 1.74698C24.7535 1.74698 24.709 1.79708 24.709 1.85888C24.709 1.92068 24.7535 1.97078 24.8085 1.97078Z" fill="white"/>
<path d="M22.4032 2.91587C22.3784 2.91587 22.3541 2.9076 22.3335 2.89212C22.3129 2.87664 22.2969 2.85464 22.2874 2.82889C22.2779 2.80315 22.2754 2.77482 22.2802 2.74749C22.2851 2.72016 22.297 2.69506 22.3145 2.67535C22.3321 2.65565 22.3544 2.64223 22.3787 2.63679C22.403 2.63136 22.4282 2.63415 22.4511 2.64481C22.474 2.65547 22.4936 2.67353 22.5074 2.6967C22.5211 2.71987 22.5285 2.74711 22.5285 2.77498C22.5285 2.81234 22.5153 2.84818 22.4918 2.8746C22.4683 2.90102 22.4364 2.91587 22.4032 2.91587ZM22.4032 2.69265C22.3886 2.69265 22.3743 2.69751 22.3622 2.70662C22.3501 2.71573 22.3406 2.72868 22.335 2.74383C22.3294 2.75898 22.328 2.77565 22.3308 2.79173C22.3337 2.80781 22.3407 2.82259 22.351 2.83418C22.3613 2.84578 22.3745 2.85367 22.3888 2.85687C22.4031 2.86007 22.4179 2.85843 22.4314 2.85215C22.4448 2.84588 22.4564 2.83525 22.4645 2.82162C22.4726 2.80798 22.4769 2.79195 22.4769 2.77556C22.4769 2.75357 22.4691 2.73248 22.4553 2.71693C22.4415 2.70138 22.4227 2.69265 22.4032 2.69265Z" fill="white"/>
<path d="M22.258 2.0003L22.4338 2.18119C22.4704 2.21888 22.5256 2.15742 22.4885 2.11974L22.3121 1.93884C22.2755 1.90116 22.2203 1.96261 22.2574 2.0003H22.258Z" fill="white"/>
<path d="M22.4268 1.93014L22.2659 2.12843C22.2323 2.16959 22.287 2.23163 22.3205 2.18988L22.4814 1.99159C22.5149 1.95043 22.4603 1.88839 22.4268 1.93014Z" fill="white"/>
<path d="M24.8128 2.33307L24.6514 2.52961C24.6173 2.57078 24.672 2.63224 24.706 2.59107L24.8685 2.39452C24.9025 2.35336 24.8479 2.2919 24.8138 2.33307H24.8128Z" fill="white"/>
<path d="M24.8734 2.5227L24.6986 2.34007C24.662 2.3018 24.6073 2.36326 24.6439 2.40152L24.8188 2.58416C24.8554 2.62242 24.9101 2.56097 24.8734 2.5227Z" fill="white"/>
</g>
<g opacity="0.5">
<path d="M8.1342 14.0374C8.18917 14.0374 8.23373 13.9873 8.23373 13.9255C8.23373 13.8637 8.18917 13.8136 8.1342 13.8136C8.07923 13.8136 8.03467 13.8637 8.03467 13.9255C8.03467 13.9873 8.07923 14.0374 8.1342 14.0374Z" fill="white"/>
<path d="M9.50627 13.5231C9.56124 13.5231 9.60581 13.473 9.60581 13.4112C9.60581 13.3494 9.56124 13.2993 9.50627 13.2993C9.4513 13.2993 9.40674 13.3494 9.40674 13.4112C9.40674 13.473 9.4513 13.5231 9.50627 13.5231Z" fill="white"/>
<path d="M7.10091 14.4688C7.07612 14.4688 7.05189 14.4605 7.03128 14.445C7.01067 14.4295 6.99461 14.4075 6.98513 14.3818C6.97564 14.356 6.97316 14.3277 6.97799 14.3004C6.98283 14.273 6.99476 14.2479 7.01229 14.2282C7.02982 14.2085 7.05215 14.1951 7.07646 14.1897C7.10077 14.1842 7.12596 14.187 7.14886 14.1977C7.17176 14.2084 7.19133 14.2264 7.2051 14.2496C7.21887 14.2728 7.22622 14.3 7.22622 14.3279C7.22622 14.3652 7.21302 14.4011 7.18952 14.4275C7.16602 14.4539 7.13414 14.4688 7.10091 14.4688ZM7.10091 14.2455C7.08632 14.2455 7.07206 14.2504 7.05993 14.2595C7.04781 14.2686 7.03835 14.2816 7.03277 14.2967C7.02719 14.3119 7.02573 14.3285 7.02857 14.3446C7.03142 14.3607 7.03844 14.3755 7.04876 14.3871C7.05907 14.3987 7.07221 14.4066 7.08652 14.4098C7.10082 14.413 7.11565 14.4113 7.12913 14.405C7.1426 14.3988 7.15412 14.3881 7.16222 14.3745C7.17033 14.3609 7.17465 14.3448 7.17465 14.3284C7.17472 14.3175 7.17286 14.3067 7.16919 14.2965C7.16551 14.2864 7.16009 14.2772 7.15324 14.2694C7.14638 14.2617 7.13823 14.2555 7.12925 14.2513C7.12027 14.2471 7.11063 14.245 7.10091 14.245V14.2455Z" fill="white"/>
<path d="M6.95519 13.5533L7.13157 13.7342C7.16819 13.7719 7.22337 13.7104 7.18624 13.6727L7.00986 13.4918C6.97324 13.4541 6.91806 13.5156 6.95519 13.5533Z" fill="white"/>
<path d="M7.12408 13.4831L6.96214 13.6814C6.92862 13.7226 6.98329 13.7846 7.01681 13.7429L7.17771 13.5446C7.21123 13.5034 7.15657 13.4414 7.12305 13.4831H7.12408Z" fill="white"/>
<path d="M9.51012 13.886L9.34766 14.0826C9.31363 14.1238 9.36829 14.1852 9.40233 14.1441L9.56478 13.9475C9.59882 13.9063 9.54415 13.8449 9.51012 13.886Z" fill="white"/>
<path d="M9.57119 14.0757L9.39637 13.893C9.35975 13.8548 9.30508 13.9162 9.3417 13.9545L9.51653 14.1371C9.55314 14.1754 9.60781 14.1139 9.57119 14.0757Z" fill="white"/>
<path d="M16.8466 14.0374C16.9016 14.0374 16.9461 13.9873 16.9461 13.9255C16.9461 13.8637 16.9016 13.8136 16.8466 13.8136C16.7916 13.8136 16.7471 13.8637 16.7471 13.9255C16.7471 13.9873 16.7916 14.0374 16.8466 14.0374Z" fill="white"/>
<path d="M18.2187 13.5231C18.2736 13.5231 18.3182 13.473 18.3182 13.4112C18.3182 13.3494 18.2736 13.2993 18.2187 13.2993C18.1637 13.2993 18.1191 13.3494 18.1191 13.4112C18.1191 13.473 18.1637 13.5231 18.2187 13.5231Z" fill="white"/>
<path d="M15.8128 14.4688C15.788 14.4688 15.7638 14.4605 15.7432 14.445C15.7226 14.4295 15.7065 14.4075 15.697 14.3818C15.6876 14.356 15.6851 14.3277 15.6899 14.3004C15.6947 14.273 15.7067 14.2479 15.7242 14.2282C15.7417 14.2085 15.7641 14.1951 15.7884 14.1897C15.8127 14.1842 15.8379 14.187 15.8608 14.1977C15.8837 14.2084 15.9032 14.2264 15.917 14.2496C15.9308 14.2728 15.9381 14.3 15.9381 14.3279C15.9381 14.3652 15.9249 14.4011 15.9014 14.4275C15.8779 14.4539 15.8461 14.4688 15.8128 14.4688ZM15.8128 14.2455C15.7982 14.2455 15.784 14.2504 15.7718 14.2595C15.7597 14.2686 15.7503 14.2816 15.7447 14.2967C15.7391 14.3119 15.7376 14.3285 15.7405 14.3446C15.7433 14.3607 15.7504 14.3755 15.7607 14.3871C15.771 14.3987 15.7841 14.4066 15.7984 14.4098C15.8127 14.413 15.8276 14.4113 15.841 14.405C15.8545 14.3988 15.866 14.3881 15.8741 14.3745C15.8822 14.3609 15.8866 14.3448 15.8866 14.3284C15.8866 14.3175 15.8848 14.3067 15.8811 14.2965C15.8774 14.2864 15.872 14.2772 15.8651 14.2694C15.8583 14.2617 15.8501 14.2555 15.8412 14.2513C15.8322 14.2471 15.8225 14.245 15.8128 14.245V14.2455Z" fill="white"/>
<path d="M15.6681 13.5533L15.8445 13.7342C15.8811 13.7719 15.9363 13.7104 15.8991 13.6727L15.7228 13.4918C15.6861 13.4541 15.631 13.5156 15.6681 13.5533Z" fill="white"/>
<path d="M15.8363 13.4831L15.678 13.6814C15.6444 13.7226 15.6991 13.7846 15.7326 13.7429L15.8935 13.5446C15.9271 13.5034 15.8724 13.4414 15.8389 13.4831H15.8363Z" fill="white"/>
<path d="M18.223 13.886L18.0606 14.0826C18.0265 14.1238 18.0812 14.1852 18.1152 14.1441L18.2777 13.9475C18.3117 13.9063 18.257 13.8449 18.223 13.886Z" fill="white"/>
<path d="M18.2836 14.0757L18.1088 13.893C18.0722 13.8548 18.0175 13.9162 18.0541 13.9545L18.2289 14.1371C18.2655 14.1754 18.3202 14.1139 18.2836 14.0757Z" fill="white"/>
<path d="M27.3466 14.0374C27.4016 14.0374 27.4461 13.9873 27.4461 13.9255C27.4461 13.8637 27.4016 13.8136 27.3466 13.8136C27.2916 13.8136 27.2471 13.8637 27.2471 13.9255C27.2471 13.9873 27.2916 14.0374 27.3466 14.0374Z" fill="white"/>
<path d="M28.7182 13.5231C28.7732 13.5231 28.8177 13.473 28.8177 13.4112C28.8177 13.3494 28.7732 13.2993 28.7182 13.2993C28.6632 13.2993 28.6187 13.3494 28.6187 13.4112C28.6187 13.473 28.6632 13.5231 28.7182 13.5231Z" fill="white"/>
<path d="M26.3123 14.4688C26.2875 14.4688 26.2633 14.4605 26.2427 14.445C26.2221 14.4295 26.206 14.4075 26.1966 14.3818C26.1871 14.356 26.1846 14.3277 26.1894 14.3004C26.1943 14.273 26.2062 14.2479 26.2237 14.2282C26.2412 14.2085 26.2636 14.1951 26.2879 14.1897C26.3122 14.1842 26.3374 14.187 26.3603 14.1977C26.3832 14.2084 26.4028 14.2264 26.4165 14.2496C26.4303 14.2728 26.4377 14.3 26.4377 14.3279C26.4377 14.3652 26.4244 14.4011 26.4009 14.4275C26.3774 14.4539 26.3456 14.4688 26.3123 14.4688ZM26.3123 14.2455C26.2977 14.2455 26.2835 14.2504 26.2714 14.2595C26.2592 14.2686 26.2498 14.2816 26.2442 14.2967C26.2386 14.3119 26.2372 14.3285 26.24 14.3446C26.2428 14.3607 26.2499 14.3755 26.2602 14.3871C26.2705 14.3987 26.2836 14.4066 26.2979 14.4098C26.3122 14.413 26.3271 14.4113 26.3406 14.405C26.354 14.3988 26.3655 14.3881 26.3736 14.3745C26.3818 14.3609 26.3861 14.3448 26.3861 14.3284C26.3861 14.3175 26.3843 14.3067 26.3806 14.2965C26.3769 14.2864 26.3715 14.2772 26.3647 14.2694C26.3578 14.2617 26.3497 14.2555 26.3407 14.2513C26.3317 14.2471 26.3221 14.245 26.3123 14.245V14.2455Z" fill="white"/>
<path d="M26.1671 13.5533L26.3435 13.7342C26.3801 13.7719 26.4353 13.7104 26.3981 13.6727L26.2218 13.4918C26.1852 13.4541 26.13 13.5156 26.1671 13.5533Z" fill="white"/>
<path d="M26.3359 13.4831L26.175 13.6814C26.1415 13.7226 26.1962 13.7846 26.2297 13.7429L26.3906 13.5446C26.4241 13.5034 26.3695 13.4414 26.3359 13.4831Z" fill="white"/>
<path d="M28.722 13.886L28.5596 14.0826C28.5255 14.1238 28.5802 14.1852 28.6142 14.1441L28.7767 13.9475C28.8107 13.9063 28.7561 13.8449 28.722 13.886Z" fill="white"/>
<path d="M28.7831 14.0757L28.6083 13.893C28.5717 13.8548 28.517 13.9162 28.5536 13.9545L28.7284 14.1371C28.7651 14.1754 28.8197 14.1139 28.7831 14.0757Z" fill="white"/>
</g>
<path d="M8.71582 2.38068H24.9537V22.9233H8.71582V2.38068Z" fill="#60696D"/>
<path d="M8.78223 21.8484H24.9118V22.3354H8.78223V21.8484Z" fill="#4F585B"/>
<path d="M25.0827 23.132H8.58691V2.29836H25.0827V23.132ZM8.84477 22.8421H24.8248V2.58826H8.84477V22.8421Z" fill="#172D35"/>
<path d="M6.2915 3.65388H27.5726V21.7126H6.2915V3.65388Z" fill="#60696D"/>
<path d="M6.46631 3.71191H6.84742V21.7707H6.46631V3.71191Z" fill="#4F585B"/>
<path d="M27.2017 3.71191H27.5389V21.7707H27.2017V3.71191Z" fill="#4F585B"/>
<path d="M6.43896 3.73855H27.6422V4.14266H6.43896V3.73855Z" fill="#4F585B"/>
<path d="M6.34326 21.2465H27.6424V21.6524H6.34326V21.2465Z" fill="#4F585B"/>
<path d="M7.92188 5.43042H26.0638V19.9368H7.92188V5.43042Z" fill="#008FD7"/>
<g opacity="0.6">
<path d="M7.8623 5.43042H26.0042V5.8241H7.8623V5.43042Z" fill="#333C5C"/>
<path d="M7.94238 19.5071H26.1921V19.9129H7.94238V19.5071Z" fill="#333C5C"/>
<path d="M7.9458 5.54047H8.32382V19.9123H7.9458V5.54047Z" fill="#333C5C"/>
<path d="M25.709 5.54047H26.0437V19.9123H25.709V5.54047Z" fill="#333C5C"/>
</g>
<path d="M27.767 21.8565H6.22803V3.50898H27.767V21.8565ZM6.48589 21.5666H27.5091V3.79888H6.48589V21.5666Z" fill="#172D35"/>
<path d="M26.1987 20.0817H7.79736V5.28543H26.1987V20.0817ZM8.05677 19.7918H25.9408V5.57533H8.05522L8.05677 19.7918Z" fill="#172D35"/>
<path d="M24.875 6.57835V7.55413C24.875 7.77793 25.1844 7.77851 25.1844 7.55413V6.57835C25.1844 6.35455 24.875 6.35397 24.875 6.57835Z" fill="white"/>
<path d="M24.875 8.18963V10.1702C24.875 10.394 25.1844 10.3946 25.1844 10.1702V8.18963C25.1844 7.96583 24.875 7.96525 24.875 8.18963Z" fill="white"/>
<path d="M17.3714 11.4919V10.9271H16.8066V10.3622H16.2417V8.66763H16.8066V8.10276H17.3714V7.5379H19.066V8.10276H19.6309V8.66763H20.1957V10.3622H19.6309V10.9271H19.066V11.4919H17.3714ZM17.9363 10.9271H19.066V8.66763H18.5011V8.10276H17.3714V10.3622H17.9363V10.9271ZM20.7606 11.4919V10.3622H21.3255V9.79735H21.8903V9.23249H23.02V8.66763H23.5849V8.10276H21.8903V8.66763H20.7606V8.10276H21.3255V7.5379H24.1498V8.10276H24.7146V9.23249H24.1498V9.79735H23.5849V10.3622H22.4552V10.9271H24.7146V11.4919H20.7606Z" fill="#58BF44"/>
<defs>
<linearGradient id="paint0_linear_4100_175128" x1="3.23924" y1="8.05682" x2="31.7775" y2="8.05682" gradientUnits="userSpaceOnUse">
<stop stop-color="#5B38D2"/>
<stop offset="1" stop-color="#CF4DA7"/>
</linearGradient>
<linearGradient id="paint1_linear_4100_175128" x1="5.91992" y1="2.34358" x2="8.54492" y2="2.34358" gradientUnits="userSpaceOnUse">
<stop stop-color="#5B38D2"/>
<stop offset="1" stop-color="#CF4DA7"/>
</linearGradient>
<linearGradient id="paint2_linear_4100_175128" x1="0" y1="13.8959" x2="2.625" y2="13.8959" gradientUnits="userSpaceOnUse">
<stop stop-color="#5B38D2"/>
<stop offset="1" stop-color="#CF4DA7"/>
</linearGradient>
</defs>
</svg>
