<svg width="24" height="24" viewBox="0 0 24 24" fill="none" xmlns="http://www.w3.org/2000/svg">
<path d="M20.6769 23.9999H3.32308C1.48923 23.9999 0 22.5107 0 20.6769V3.32307C0 1.48923 1.48923 0 3.32308 0H20.6769C22.5108 0 24 1.48923 24 3.32307V20.6769C24 22.5107 22.5108 23.9999 20.6769 23.9999Z" fill="white"/>
<path d="M21.649 3.88928L13.809 14.0554V24H10.1783V14.0677L2.35059 3.88928H6.00597L12.0121 11.7293L17.9937 3.88928C17.9937 3.88928 21.649 3.88928 21.649 3.88928Z" fill="#6750A4"/>
<path d="M12.0002 8.94777C13.1014 8.94777 13.994 8.05509 13.994 6.95392C13.994 5.85276 13.1014 4.96008 12.0002 4.96008C10.899 4.96008 10.0063 5.85276 10.0063 6.95392C10.0063 8.05509 10.899 8.94777 12.0002 8.94777Z" fill="#6750A4"/>
</svg>
