<svg width="23" height="22" viewBox="0 0 23 22" fill="none" xmlns="http://www.w3.org/2000/svg">
<g clip-path="url(#clip0_4944_4053)">
<path d="M19.3097 4.74837L8.85049 15.2167L4.96382 11.33L6.25632 10.0375L8.85049 12.6317L18.0172 3.46504L19.3097 4.74837ZM10.143 18.3334C6.10049 18.3334 2.80965 15.0425 2.80965 11C2.80965 6.95754 6.10049 3.66671 10.143 3.66671C11.5822 3.66671 12.9297 4.08837 14.0663 4.81254L15.3955 3.48337C13.9013 2.44754 12.0955 1.83337 10.143 1.83337C5.08299 1.83337 0.976318 5.94004 0.976318 11C0.976318 16.06 5.08299 20.1667 10.143 20.1667C11.7288 20.1667 13.223 19.7634 14.5247 19.0484L13.1497 17.6734C12.233 18.095 11.2155 18.3334 10.143 18.3334ZM16.5597 13.75H13.8097V15.5834H16.5597V18.3334H18.393V15.5834H21.143V13.75H18.393V11H16.5597V13.75Z" fill="#48464A"/>
</g>
<defs>
<clipPath id="clip0_4944_4053">
<rect width="22" height="22" fill="white" transform="translate(0.0595703)"/>
</clipPath>
</defs>
</svg>
