<svg width="45" height="39" viewBox="0 0 45 39" fill="none" xmlns="http://www.w3.org/2000/svg">
<path d="M28.9128 21.0049C28.9131 21.6027 28.8751 22.1998 28.799 22.7927C28.7062 23.6611 28.5316 24.5188 28.2776 25.3544L28.2217 25.3399C27.3077 28.1156 25.5408 30.5319 23.1729 32.2445C20.805 33.957 17.9569 34.8784 15.0346 34.8773H14.9305H14.865C13.3836 34.8789 11.9115 34.6427 10.5049 34.1776L5.07608 37.758C4.86015 37.9019 4.60614 37.9779 4.34667 37.9763C4.08719 37.9748 3.83412 37.8956 3.61996 37.7491C3.4058 37.6026 3.24033 37.3954 3.14482 37.1542C3.04932 36.9129 3.02813 36.6486 3.08399 36.3952L4.44 30.1558C2.6802 28.1514 1.53562 25.6822 1.14337 23.0439C0.751126 20.4056 1.12785 17.7101 2.22842 15.2804C3.32898 12.8508 5.10671 10.7899 7.34862 9.34484C9.59053 7.89973 12.2015 7.13163 14.8688 7.13257H14.9334H15.0394C16.8613 7.13244 18.6653 7.49117 20.3484 8.18826C22.0316 8.88536 23.561 9.90717 24.8493 11.1953C26.1376 12.4835 27.1595 14.0129 27.8567 15.696C28.5539 17.3791 28.9128 19.1831 28.9128 21.0049Z" fill="white"/>
<path d="M14.4314 7.13159C13.8599 7.13138 13.2889 7.16614 12.7216 7.23568C16.0793 7.65297 19.1688 9.28246 21.4093 11.8178C23.6498 14.3531 24.887 17.6195 24.8882 21.003C24.8882 21.6011 24.8499 22.1985 24.7735 22.7917C24.681 23.6599 24.5064 24.5173 24.2521 25.3524L24.1962 25.337C23.3733 27.8336 21.8588 30.0453 19.8285 31.715C17.7983 33.3847 15.3359 34.4439 12.7274 34.7693C15.9164 35.1643 19.1436 34.4398 21.8577 32.7194C24.5717 30.999 26.6042 28.3896 27.6079 25.337L27.6638 25.3524C27.9181 24.5173 28.0927 23.6599 28.1852 22.7917C28.4384 20.8359 28.2719 18.8485 27.6967 16.9621C27.1215 15.0756 26.1508 13.3334 24.8494 11.8516C23.5479 10.3698 21.9456 9.18238 20.1492 8.36849C18.3528 7.5546 16.4035 7.13293 14.4314 7.13159Z" fill="#C5C6EF"/>
<path d="M4.03912 38.6514C3.74413 38.6502 3.45313 38.5831 3.18739 38.455C2.92164 38.3269 2.68787 38.1411 2.50313 37.9111C2.3184 37.6811 2.18738 37.4128 2.11964 37.1256C2.0519 36.8385 2.04915 36.5399 2.1116 36.2516L3.39629 30.3409C1.20278 27.7244 0.000401311 24.4192 0 21.0049C0 12.9826 6.52658 6.45215 14.5528 6.45215H14.7234C22.7457 6.45215 29.2761 12.9787 29.2761 21.0049C29.2762 21.6291 29.2366 22.2526 29.1576 22.8717C29.0596 23.7799 28.8767 24.6769 28.6111 25.551L28.4184 26.1697L28.3355 26.1485C27.2943 28.9158 25.4329 31.2992 23.0004 32.98C20.5678 34.6608 17.6801 35.5588 14.7234 35.5538H14.6193H14.5537C13.1109 35.5555 11.6758 35.3421 10.2958 34.9207L5.1272 38.3227C4.8046 38.5366 4.4262 38.6509 4.03912 38.6514ZM14.5528 7.80912C7.26964 7.80912 1.34926 13.7285 1.34926 21.0049C1.34762 24.2082 2.51244 27.3026 4.62605 29.7096L4.85157 29.966L3.42328 36.5388C3.39712 36.6602 3.40768 36.7866 3.45361 36.902C3.49954 37.0173 3.57876 37.1164 3.68118 37.1866C3.78361 37.2567 3.90461 37.2948 4.02876 37.296C4.15292 37.2972 4.27462 37.2614 4.37836 37.1932L10.0848 33.4345L10.3961 33.5377C11.733 33.9797 13.1322 34.2042 14.5402 34.2027H14.6742H14.7099C17.49 34.2075 20.2003 33.3323 22.4526 31.7026C24.7049 30.0728 26.3837 27.772 27.2484 25.1298L27.4411 24.5284L27.4681 24.5352C27.618 23.9388 27.7262 23.3328 27.792 22.7214V22.7069C27.8641 22.1428 27.9001 21.5746 27.8999 21.0059C27.8999 13.7295 21.9805 7.81009 14.7041 7.81009H14.6665C14.6395 7.81105 14.5981 7.81105 14.5528 7.80912Z" fill="#385868"/>
<path d="M16.089 15.0123C16.0849 15.6098 16.119 16.207 16.1912 16.8001C16.2808 17.6688 16.4521 18.5272 16.7029 19.3637L16.7588 19.3493C17.6615 22.1275 19.4179 24.55 21.7777 26.2718C24.1375 27.9936 26.9805 28.9269 29.9016 28.9387H30.0057H30.0712C31.5527 28.9462 33.0258 28.7158 34.4342 28.2563L39.8525 31.8579C40.0678 32.0015 40.3211 32.0776 40.58 32.0765C40.8388 32.0753 41.0914 31.997 41.3055 31.8515C41.5196 31.706 41.6855 31.5 41.7818 31.2597C41.8782 31.0195 41.9007 30.756 41.8465 30.5029L40.5146 24.2577C42.2816 22.2608 43.4357 19.7968 43.8385 17.1609C44.2414 14.525 43.876 11.8289 42.7861 9.39532C41.6961 6.96174 39.9279 4.89388 37.693 3.43933C35.4582 1.98479 32.8515 1.20521 30.185 1.19395H30.1204H30.0144C26.3354 1.17986 22.8014 2.62779 20.1899 5.21922C17.5784 7.81065 16.1033 11.3333 16.089 15.0123Z" fill="#6AE184"/>
<path d="M41.9476 31.0819C42.0014 31.3349 41.9785 31.5982 41.882 31.8382C41.7855 32.0781 41.6197 32.2839 41.4058 32.4293C41.1919 32.5747 40.9395 32.653 40.6809 32.6544C40.4223 32.6558 40.1691 32.5801 39.9536 32.437L39.7965 32.3329C39.9736 32.1819 40.106 31.9853 40.1793 31.7645C40.2527 31.5437 40.2643 31.307 40.2129 31.08L38.881 24.8349C40.6064 22.8844 41.7479 20.4876 42.1749 17.9187C42.6019 15.3499 42.2972 12.7127 41.2956 10.3089C40.294 7.90509 38.636 5.83178 36.5112 4.32617C34.3865 2.82056 31.8808 1.94346 29.2809 1.79521C29.5556 1.77882 29.8322 1.77208 30.1117 1.77304H30.2168H30.2813C32.9482 1.78338 35.5556 2.56229 37.7912 4.01647C40.0267 5.47066 41.7957 7.53846 42.8862 9.97222C43.9768 12.406 44.3426 15.1025 43.9399 17.7388C43.5372 20.3752 42.3831 22.8395 40.6157 24.8368L41.9476 31.0819Z" fill="#A8FF8C"/>
<path d="M30.6235 1.19393C31.1942 1.19639 31.7642 1.23373 32.3303 1.30573C30.5151 1.52484 28.761 2.10036 27.1688 2.99925C25.5766 3.89815 24.1777 5.1027 23.0523 6.54374C21.9269 7.98479 21.0973 9.63394 20.611 11.3965C20.1247 13.1591 19.9914 15.0003 20.2187 16.8146C20.3075 17.6833 20.4786 18.5417 20.7295 19.3782L20.7854 19.3637C21.5982 21.863 23.1035 24.0804 25.1265 25.7581C27.1495 27.4358 29.6071 28.505 32.2137 28.8413C29.0235 29.2235 25.7995 28.4861 23.0925 26.7553C20.3856 25.0244 18.3635 22.4073 17.3718 19.3512L17.3159 19.3656C17.0649 18.5292 16.8939 17.6708 16.8051 16.802C16.5592 14.8448 16.7334 12.8576 17.316 10.9729C17.8987 9.08826 18.8764 7.34949 20.184 5.8725C21.4916 4.39552 23.0991 3.21427 24.8993 2.40752C26.6994 1.60076 28.6508 1.18704 30.6235 1.19393Z" fill="#389D9C"/>
<path d="M40.9 32.7551C40.5093 32.7544 40.1276 32.6376 39.8032 32.4197L34.6548 28.9974C33.2731 29.4136 31.8371 29.6215 30.3941 29.6142H30.3362H30.2919C30.2697 29.6142 30.2485 29.6142 30.2244 29.6142C27.2678 29.6077 24.3836 28.6987 21.9577 27.0086C19.5317 25.3185 17.6795 22.9281 16.6489 20.1569L16.566 20.1781L16.3839 19.5593C16.1218 18.6843 15.9424 17.7867 15.848 16.8782C15.7715 16.2585 15.7345 15.6347 15.7372 15.0104C15.7651 7.00828 22.2859 0.519287 30.2803 0.519287H30.5097C38.5311 0.551091 45.0316 7.1037 44.9998 15.1251C44.9874 18.5387 43.7738 21.839 41.5717 24.4475L42.8333 30.364C42.8945 30.6523 42.8907 30.9506 42.822 31.2371C42.7533 31.5237 42.6216 31.7913 42.4363 32.0205C42.2511 32.2497 42.0171 32.4346 41.7513 32.5619C41.4855 32.6892 41.1947 32.7555 40.9 32.7561V32.7551ZM34.8621 27.5132L40.5531 31.296C40.6565 31.3646 40.7779 31.4009 40.902 31.4003C41.0261 31.3997 41.1472 31.3621 41.2499 31.2925C41.3526 31.2229 41.4323 31.1242 41.4788 31.0092C41.5253 30.8941 41.5365 30.7679 41.511 30.6464L40.1078 24.0668L40.3343 23.8114C42.4581 21.4132 43.6359 18.3237 43.6477 15.1203C43.6766 7.84386 37.7794 1.90036 30.5039 1.86855H30.2813C26.7899 1.86853 23.4408 3.25218 20.9675 5.71646C18.4941 8.18074 17.0982 11.5248 17.0855 15.0162C17.0833 15.5851 17.1174 16.1536 17.1877 16.7182V16.7326C17.2515 17.3422 17.3574 17.9466 17.5047 18.5416L17.5317 18.5349L17.7245 19.1382C18.5788 21.7838 20.2485 24.0911 22.4944 25.7297C24.7403 27.3683 27.4472 28.2541 30.2273 28.2602H30.262H30.3295H30.3873C31.7993 28.2679 33.2034 28.0489 34.5459 27.6115L34.8621 27.5132Z" fill="#385868"/>
<path d="M8.32196 15.8508H16.4869V17.203H8.32196V15.8508Z" fill="#385868"/>
<path d="M11.167 23.0259H19.333V24.378H11.167V23.0259Z" fill="#385868"/>
<path d="M3.99182 19.3145H17.1057V20.6666H3.99182V19.3145Z" fill="#385868"/>
<path d="M23.8452 10.8391H32.0102V12.1913H23.8452V10.8391Z" fill="#385868"/>
<path d="M23.8452 18.0144H32.0112V19.3666H23.8452V18.0144Z" fill="#385868"/>
<path d="M23.8452 14.303H36.9591V15.6551H23.8452V14.303Z" fill="#385868"/>
<path d="M24.9715 18.7458V27.7475H19.5703V18.7458H24.9715ZM24.9715 16.9451H19.5703C19.0927 16.9451 18.6347 17.1348 18.297 17.4725C17.9593 17.8102 17.7696 18.2682 17.7696 18.7458V27.7475C17.7696 27.984 17.8162 28.2182 17.9067 28.4366C17.9972 28.6551 18.1298 28.8536 18.297 29.0208C18.4642 29.188 18.6627 29.3207 18.8812 29.4112C19.0997 29.5017 19.3338 29.5482 19.5703 29.5482H24.9715C25.4491 29.5482 25.9071 29.3585 26.2448 29.0208C26.5825 28.6831 26.7722 28.2251 26.7722 27.7475V18.7458C26.7722 18.5093 26.7257 18.2751 26.6352 18.0567C26.5447 17.8382 26.412 17.6397 26.2448 17.4725C26.0776 17.3053 25.8791 17.1726 25.6606 17.0821C25.4422 16.9916 25.208 16.9451 24.9715 16.9451Z" fill="#395462"/>
<path d="M24.9716 29.817H19.5703C19.0217 29.8165 18.4956 29.5983 18.1077 29.2103C17.7198 28.8223 17.5017 28.2962 17.5013 27.7475V18.7458C17.5019 18.1974 17.7201 17.6716 18.1079 17.2838C18.4957 16.896 19.0215 16.6778 19.5699 16.6772H24.9711C25.5195 16.6778 26.0453 16.896 26.4331 17.2838C26.8209 17.6716 27.0391 18.1974 27.0397 18.7458V27.7475C27.0393 28.2961 26.8213 28.822 26.4336 29.21C26.0459 29.598 25.5201 29.8163 24.9716 29.817ZM19.5699 17.2129C19.1635 17.2134 18.7739 17.375 18.4865 17.6624C18.1991 17.9498 18.0375 18.3394 18.037 18.7458V27.7475C18.0375 28.1539 18.1991 28.5436 18.4865 28.8309C18.7739 29.1183 19.1635 29.28 19.5699 29.2804H24.9711C25.3776 29.2801 25.7673 29.1185 26.0548 28.8311C26.3423 28.5437 26.504 28.154 26.5044 27.7475V18.7458C26.504 18.3394 26.3423 17.9498 26.055 17.6624C25.7676 17.375 25.378 17.2134 24.9716 17.2129H19.5699ZM25.2389 28.0154H19.3021V18.478H25.2389V28.0154ZM19.8377 27.4797H24.7033V19.0136H19.8377V27.4797Z" fill="#20363F"/>
<path d="M29.4715 20.0962H15.0685C14.591 20.0962 14.1329 20.2859 13.7952 20.6236C13.4575 20.9613 13.2678 21.4193 13.2678 21.8969V29.9996C13.2678 30.4772 13.4575 30.9352 13.7952 31.2729C14.1329 31.6106 14.591 31.8004 15.0685 31.8004H29.4715C29.9491 31.8004 30.4071 31.6106 30.7448 31.2729C31.0825 30.9352 31.2722 30.4772 31.2722 29.9996V21.8969C31.2722 21.4193 31.0825 20.9613 30.7448 20.6236C30.4071 20.2859 29.9491 20.0962 29.4715 20.0962Z" fill="#395462"/>
<path d="M29.4715 20.0962H15.0685C14.074 20.0962 13.2678 21.0666 13.2678 22.2634V32.016C13.2678 33.2127 14.074 34.1832 15.0685 34.1832H29.4715C30.4661 34.1832 31.2722 33.2127 31.2722 32.016V22.2634C31.274 21.0666 30.4674 20.0962 29.4715 20.0962Z" fill="#395462"/>
<path opacity="0.5" d="M31.274 21.9179V23.0606C31.2738 22.8241 31.2271 22.59 31.1364 22.3715C31.0457 22.1531 30.9129 21.9547 30.7455 21.7876C30.5781 21.6205 30.3795 21.488 30.1609 21.3977C29.9423 21.3074 29.708 21.261 29.4715 21.2613H15.0685C14.5912 21.2613 14.1334 21.4508 13.7957 21.7882C13.4581 22.1256 13.2682 22.5833 13.2678 23.0606V21.9179C13.2678 21.4403 13.4575 20.9823 13.7952 20.6446C14.1329 20.3069 14.591 20.1172 15.0685 20.1172H29.4715C29.7082 20.117 29.9425 20.1634 30.1612 20.2537C30.3799 20.3441 30.5786 20.4767 30.746 20.644C30.9134 20.8112 31.0462 21.0098 31.1368 21.2284C31.2274 21.447 31.274 21.6813 31.274 21.9179Z" fill="#283D48"/>
<path d="M29.4715 34.451H15.0685C13.928 34.451 13 33.3587 13 32.016V22.2634C13 20.9207 13.928 19.8284 15.0685 19.8284H29.4715C30.612 19.8284 31.5401 20.9207 31.5401 22.2634V32.016C31.5419 33.3587 30.6138 34.451 29.4715 34.451ZM15.0685 20.364C14.2231 20.364 13.5357 21.2162 13.5357 22.2634V32.016C13.5357 33.0632 14.2231 33.9153 15.0685 33.9153H29.4715C30.3165 33.9153 31.0044 33.0632 31.0044 32.016V22.2634C31.0044 21.2162 30.317 20.364 29.4715 20.364H15.0685Z" fill="#20363F"/>
<path d="M18.9078 24.905V25.9598C18.9078 26.3431 19.0601 26.7106 19.3311 26.9816C19.602 27.2525 19.9696 27.4048 20.3528 27.4048H24.1885C24.5717 27.4045 24.9391 27.2521 25.2099 26.9811C25.4807 26.71 25.6327 26.3425 25.6326 25.9594V24.905" fill="#E7E7E7"/>
<path d="M18.9078 24.9893H25.6335V25.5825H18.9078V24.9893Z" fill="#CED0D0"/>
<path d="M13.2678 24.6372H31.274V25.1729H13.2678V24.6372Z" fill="#20363F"/>
<path d="M24.1886 27.6722H20.3528C19.8987 27.6717 19.4633 27.4911 19.1422 27.17C18.8211 26.8489 18.6405 26.4135 18.64 25.9594V24.905H19.1757V25.9598C19.176 26.2719 19.3002 26.5711 19.5208 26.7918C19.7415 27.0125 20.0407 27.1366 20.3528 27.1369H24.1886C24.5006 27.1364 24.7996 27.0121 25.0201 26.7913C25.2406 26.5706 25.3645 26.2714 25.3648 25.9594V24.905H25.9004V25.9598C25.8998 26.4137 25.7193 26.8488 25.3984 27.1698C25.0775 27.4908 24.6424 27.6714 24.1886 27.6722Z" fill="#20363F"/>
<path d="M21.6777 25.9548H22.8642V26.3119H21.6777V25.9548Z" fill="#20363F"/>
<path d="M30.3594 29.5634C30.4538 29.5611 30.5185 29.09 30.504 28.5114C30.4894 27.9327 30.4011 27.4655 30.3067 27.4679C30.2124 27.4702 30.1476 27.9413 30.1622 28.5199C30.1767 29.0986 30.265 29.5658 30.3594 29.5634Z" fill="white"/>
<path d="M30.3019 26.9881C30.3963 26.9857 30.4669 26.7492 30.4596 26.4599C30.4523 26.1705 30.3699 25.9379 30.2755 25.9403C30.1811 25.9427 30.1105 26.1791 30.1178 26.4685C30.1251 26.7578 30.2075 26.9904 30.3019 26.9881Z" fill="white"/>
</svg>
