<svg width="280" height="56" viewBox="0 0 280 56" fill="none" xmlns="http://www.w3.org/2000/svg">
<path d="M63.2148 9.07483H73.3819L83.0448 25.7887L92.6517 9.07483H102.763L87.4421 35.1507V51.4051H78.3674V34.921L63.2148 9.07483Z" fill="#6750A4"/>
<path d="M116.459 9.07483V43.5651H136.569V51.4051H107.384V9.07483H116.459Z" fill="#6750A4"/>
<path d="M151.889 9.07483V51.4051H142.814V9.07483H151.889Z" fill="#6750A4"/>
<path d="M191.325 51.4051L184.323 22.601H184.211L177.321 51.4051H168.134L157.211 9.07483H166.286L172.812 37.8789H172.924L180.094 9.07483H188.58L195.638 38.2236H195.75L202.5 9.07483H211.407L200.344 51.4051H191.325Z" fill="#6750A4"/>
<path d="M232.47 9.07483L247.902 51.4051H238.492L235.383 41.9856H219.95L216.701 51.4051H207.57L223.171 9.07483C223.171 9.07483 232.47 9.07483 232.47 9.07483ZM233.002 35.0359L227.792 19.4994H227.68L222.303 35.0359H233.002Z" fill="#6750A4"/>
<path d="M240.452 9.07483H250.619L260.282 25.7887L269.889 9.07483H280L264.679 35.1507V51.4051H255.605V34.921L240.452 9.07483Z" fill="#6750A4"/>
<path d="M48.2462 56H7.75385C3.47487 56 0 52.5251 0 48.2462V7.75385C0 3.47487 3.47487 0 7.75385 0H48.2462C52.5251 0 56 3.47487 56 7.75385V48.2462C56 52.5251 52.5251 56 48.2462 56Z" fill="#6750A4"/>
<path d="M50.5151 9.07483L32.2218 32.7959V56H23.75V32.8246L5.48535 9.07483H14.0146L28.0289 27.3682L41.9859 9.07483C41.9859 9.07483 50.5151 9.07483 50.5151 9.07483Z" fill="white"/>
<path d="M28 20.878C30.5694 20.878 32.6523 18.7951 32.6523 16.2257C32.6523 13.6563 30.5694 11.5734 28 11.5734C25.4306 11.5734 23.3477 13.6563 23.3477 16.2257C23.3477 18.7951 25.4306 20.878 28 20.878Z" fill="white"/>
</svg>
