<svg width="44" height="40" viewBox="0 0 44 40" fill="none" xmlns="http://www.w3.org/2000/svg">
<path opacity="0.8" d="M31.9543 7.23859L20.0277 14.9935C19.6786 15.2205 19.2537 15.2994 18.8464 15.2131C18.439 15.1267 18.0827 14.8821 17.8558 14.533C17.6288 14.1839 17.5498 13.7589 17.6362 13.3516C17.7226 12.9443 17.9672 12.588 18.3163 12.361L30.2428 4.63579C30.5919 4.40884 31.0169 4.32986 31.4242 4.41623C31.8315 4.5026 32.1879 4.74724 32.4148 5.09633C32.6418 5.44543 32.7207 5.87038 32.6344 6.2777C32.548 6.68502 32.3034 7.04136 31.9543 7.26831V7.23859Z" fill="#6750A4"/>
<path opacity="0.8" d="M16.0167 17.6022L8.04189 22.7722C7.86904 22.8846 7.67574 22.9618 7.47304 22.9995C7.27034 23.0371 7.06221 23.0345 6.86052 22.9917C6.65884 22.949 6.46755 22.8669 6.29758 22.7502C6.12761 22.6335 5.98229 22.4845 5.86992 22.3116C5.75754 22.1388 5.68031 21.9455 5.64264 21.7428C5.60497 21.5401 5.60759 21.332 5.65036 21.1303C5.69312 20.9286 5.77519 20.7373 5.89189 20.5673C6.00858 20.3974 6.1576 20.252 6.33046 20.1397L14.3053 14.9578C14.4781 14.8455 14.6714 14.7682 14.8741 14.7306C15.0768 14.6929 15.2849 14.6955 15.4866 14.7383C15.6883 14.781 15.8796 14.8631 16.0496 14.9798C16.2195 15.0965 16.3648 15.2455 16.4772 15.4184C16.5896 15.5912 16.6668 15.7845 16.7045 15.9872C16.7422 16.1899 16.7395 16.3981 16.6968 16.5997C16.654 16.8014 16.5719 16.9927 16.4553 17.1627C16.3386 17.3327 16.1895 17.478 16.0167 17.5904V17.6022Z" fill="#FF9D23"/>
<path d="M26.3507 5.41415L14.4301 13.1691C14.2572 13.2814 14.0639 13.3587 13.8612 13.3963C13.6585 13.434 13.4504 13.4314 13.2487 13.3886C12.8414 13.3023 12.4851 13.0576 12.2581 12.7085C12.0312 12.3594 11.9522 11.9345 12.0385 11.5272C12.1249 11.1198 12.3696 10.7635 12.7186 10.5366L24.6392 2.81135C24.8121 2.69898 25.0054 2.62175 25.2081 2.58408C25.4108 2.54641 25.6189 2.54903 25.8206 2.59179C26.0223 2.63456 26.2136 2.71663 26.3835 2.83332C26.5535 2.95001 26.6988 3.09904 26.8112 3.27189C26.9236 3.44475 27.0008 3.63804 27.0385 3.84074C27.0762 4.04344 27.0735 4.25158 27.0308 4.45326C26.988 4.65495 26.9059 4.84624 26.7892 5.0162C26.6726 5.18617 26.5235 5.33149 26.3507 5.44387V5.41415Z" fill="#AA7DFF"/>
<path d="M10.413 15.7779L2.43816 20.9894C2.08513 21.2164 1.6564 21.2938 1.24629 21.2046C0.836177 21.1155 0.478281 20.8671 0.251331 20.514C0.0243813 20.161 -0.0530314 19.7323 0.0361229 19.3222C0.125277 18.912 0.373696 18.5542 0.726729 18.3272L8.70152 13.1454C8.87437 13.033 9.06767 12.9558 9.27037 12.9181C9.47307 12.8804 9.6812 12.883 9.88289 12.9258C10.0846 12.9686 10.2759 13.0506 10.4458 13.1673C10.6158 13.284 10.7611 13.4331 10.8735 13.6059C10.9859 13.7788 11.0631 13.9721 11.1008 14.1748C11.1384 14.3775 11.1358 14.5856 11.0931 14.7873C11.0503 14.989 10.9682 15.1803 10.8515 15.3502C10.7348 15.5202 10.5858 15.6655 10.413 15.7779Z" fill="#6750A4"/>
<path d="M29.9517 3.07879L29.8744 3.12633C29.7016 3.2387 29.5083 3.31593 29.3056 3.3536C29.1029 3.39128 28.8947 3.38866 28.693 3.34589C28.4914 3.30312 28.3001 3.22105 28.1301 3.10436C27.9601 2.98767 27.8148 2.83864 27.7024 2.66579C27.5901 2.49294 27.5128 2.29964 27.4752 2.09694C27.4375 1.89424 27.4401 1.68611 27.4829 1.48442C27.5256 1.28274 27.6077 1.09145 27.7244 0.921479C27.8411 0.751511 27.9901 0.606191 28.163 0.493817L28.2402 0.446277C28.5893 0.219327 29.0143 0.140349 29.4216 0.226718C29.8289 0.313086 30.1853 0.557726 30.4122 0.906819C30.6392 1.25591 30.7181 1.68086 30.6318 2.08819C30.5454 2.49551 30.3008 2.85184 29.9517 3.07879Z" fill="#FF9D23"/>
<path opacity="0.5" d="M31.3481 13.0978L19.4216 20.8528C19.0722 21.0534 18.6592 21.1126 18.2675 21.018C17.8759 20.9234 17.5354 20.6822 17.3161 20.3442C17.0968 20.0062 17.0155 19.5969 17.0888 19.2007C17.1621 18.8045 17.3845 18.4515 17.7102 18.2143L29.6367 10.4891C29.9858 10.2621 30.4107 10.1832 30.8181 10.2695C31.2254 10.3559 31.5817 10.6005 31.8087 10.9496C32.0356 11.2987 32.1146 11.7237 32.0282 12.131C31.9419 12.5383 31.6972 12.8947 31.3481 13.1216V13.0978Z" fill="#6750A4"/>
<path opacity="0.5" d="M15.4102 23.4615L7.43545 28.6433C7.08636 28.8703 6.66141 28.9492 6.25408 28.8629C5.84676 28.7765 5.49043 28.5319 5.26348 28.1828C5.03653 27.8337 4.95755 27.4087 5.04392 27.0014C5.13029 26.5941 5.37493 26.2378 5.72402 26.0108L13.681 20.823C14.0304 20.6223 14.4434 20.5632 14.8351 20.6578C15.2267 20.7524 15.5672 20.9936 15.7865 21.3316C16.0057 21.6696 16.0871 22.0789 16.0138 22.475C15.9405 22.8712 15.7181 23.2243 15.3924 23.4615H15.4102Z" fill="#AA7DFF"/>
<path opacity="0.5" d="M34.9436 10.7624L34.8723 10.8099C34.5229 11.0106 34.1099 11.0697 33.7182 10.9751C33.3265 10.8805 32.9861 10.6394 32.7668 10.3013C32.5475 9.96331 32.4662 9.55408 32.5395 9.15789C32.6128 8.76169 32.8352 8.40866 33.1608 8.17145L33.2322 8.12391C33.4051 7.99794 33.6019 7.90854 33.8106 7.86117C34.0192 7.81379 34.2353 7.80944 34.4457 7.84836C34.6561 7.88729 34.8564 7.96868 35.0343 8.08757C35.2122 8.20646 35.364 8.36036 35.4804 8.53987C35.5968 8.71938 35.6755 8.92073 35.7115 9.13164C35.7475 9.34255 35.7402 9.55859 35.69 9.76657C35.6398 9.97456 35.5477 10.1701 35.4193 10.3413C35.291 10.5125 35.1291 10.6558 34.9436 10.7624Z" fill="#FF9D23"/>
<path d="M10.0981 35.6733L33.0123 25.0838" stroke="#732E54" stroke-width="2.7254" stroke-miterlimit="10" stroke-linecap="round"/>
<path d="M20.1348 12.765H27.0102V35.5722H20.1348V12.765Z" fill="white"/>
<path d="M30.748 3.90482H37.6354V37.7472H30.748V3.90482Z" fill="url(#paint0_linear_4100_97431)"/>
<path d="M30.3262 4.33258H37.986V38.1749H30.3262V4.33258Z" stroke="#732E54" stroke-width="2.7254" stroke-miterlimit="10"/>
<path d="M20.1523 13.8405H27.0278V37.6104H20.1523V13.8405Z" fill="url(#paint1_linear_4100_97431)"/>
<path d="M19.7129 13.2998H27.3727V38.1749H19.7129V13.2998Z" stroke="#732E54" stroke-width="2.7254" stroke-miterlimit="10"/>
<path d="M9.35547 22.4156H16.2725V38.0443H9.35547V22.4156Z" fill="url(#paint2_linear_4100_97431)"/>
<path d="M9.10547 22.5403H16.7653V38.169H9.10547V22.5403Z" stroke="#732E54" stroke-width="2.7254" stroke-miterlimit="10"/>
<path d="M37.6891 8.59936C39.7567 8.59936 41.4328 6.92322 41.4328 4.8556C41.4328 2.78798 39.7567 1.11185 37.6891 1.11185C35.6215 1.11185 33.9453 2.78798 33.9453 4.8556C33.9453 6.92322 35.6215 8.59936 37.6891 8.59936Z" fill="white"/>
<path fill-rule="evenodd" clip-rule="evenodd" d="M41.5456 4.98032C41.5657 5.48411 41.4838 5.98677 41.3048 6.45814C41.1259 6.9295 40.8536 7.35987 40.5042 7.72342C40.1549 8.08697 39.7357 8.37621 39.2718 8.57378C38.808 8.77136 38.309 8.8732 37.8048 8.8732C37.3006 8.8732 36.8016 8.77136 36.3377 8.57378C35.8739 8.37621 35.4547 8.08697 35.1053 7.72342C34.756 7.35987 34.4837 6.9295 34.3048 6.45814C34.1258 5.98677 34.0439 5.48411 34.064 4.98032C34.062 4.65487 34.106 4.33077 34.1947 4.01764C34.4082 4.81352 34.8782 5.51675 35.532 6.0183C36.1858 6.51985 36.9867 6.7917 37.8107 6.7917C38.6347 6.7917 39.4357 6.51985 40.0895 6.0183C40.7433 5.51675 41.2133 4.81352 41.4267 4.01764C41.5057 4.33245 41.5456 4.65577 41.5456 4.98032Z" fill="#CEC1BC"/>
<path d="M38.0274 8.94402C40.0951 8.94402 41.7712 7.26789 41.7712 5.20027C41.7712 3.13265 40.0951 1.45651 38.0274 1.45651C35.9598 1.45651 34.2837 3.13265 34.2837 5.20027C34.2837 7.26789 35.9598 8.94402 38.0274 8.94402Z" stroke="#732E54" stroke-width="2.7254" stroke-miterlimit="10"/>
<path d="M9.58116 26.0583C11.6488 26.0583 13.3249 24.3822 13.3249 22.3146C13.3249 20.247 11.6488 18.5708 9.58116 18.5708C7.51354 18.5708 5.8374 20.247 5.8374 22.3146C5.8374 24.3822 7.51354 26.0583 9.58116 26.0583Z" fill="white"/>
<path fill-rule="evenodd" clip-rule="evenodd" d="M13.4437 22.4393C13.4437 23.4322 13.0493 24.3844 12.3472 25.0865C11.6451 25.7886 10.6929 26.1831 9.69999 26.1831C8.70708 26.1831 7.75484 25.7886 7.05275 25.0865C6.35066 24.3844 5.95623 23.4322 5.95623 22.4393C5.95281 22.1133 5.9989 21.7888 6.09291 21.4766C6.30418 22.2736 6.77306 22.9784 7.42654 23.4812C8.08001 23.984 8.8814 24.2567 9.70593 24.2567C10.5305 24.2567 11.3319 23.984 11.9853 23.4812C12.6388 22.9784 13.1077 22.2736 13.319 21.4766C13.4032 21.7905 13.4451 22.1143 13.4437 22.4393Z" fill="#CEC1BC"/>
<path d="M9.9254 26.397C11.993 26.397 13.6691 24.7209 13.6691 22.6532C13.6691 20.5856 11.993 18.9095 9.9254 18.9095C7.85778 18.9095 6.18164 20.5856 6.18164 22.6532C6.18164 24.7209 7.85778 26.397 9.9254 26.397Z" stroke="#732E54" stroke-width="2.7254" stroke-miterlimit="10"/>
<path opacity="0.3" d="M34.9194 36.0834H35.4959" stroke="white" stroke-width="1.3627" stroke-miterlimit="10" stroke-linecap="round"/>
<path d="M32.3643 32.4882V36.0834H33.6657" stroke="white" stroke-width="1.3627" stroke-miterlimit="10" stroke-linecap="round"/>
<path opacity="0.6" d="M32.3643 29.8733V30.5626" stroke="white" stroke-width="1.3627" stroke-miterlimit="10" stroke-linecap="round"/>
<path d="M32.3643 26.1V28.0075" stroke="white" stroke-width="1.3627" stroke-miterlimit="10" stroke-linecap="round"/>
<defs>
<linearGradient id="paint0_linear_4100_97431" x1="30.748" y1="20.829" x2="37.6354" y2="20.829" gradientUnits="userSpaceOnUse">
<stop offset="0.04" stop-color="#F27B40"/>
<stop offset="1" stop-color="#EC697D"/>
</linearGradient>
<linearGradient id="paint1_linear_4100_97431" x1="20.1523" y1="25.7255" x2="27.0278" y2="25.7255" gradientUnits="userSpaceOnUse">
<stop offset="0.04" stop-color="#F27B40"/>
<stop offset="1" stop-color="#EC697D"/>
</linearGradient>
<linearGradient id="paint2_linear_4100_97431" x1="9.35547" y1="30.2299" x2="16.2725" y2="30.2299" gradientUnits="userSpaceOnUse">
<stop offset="0.04" stop-color="#F27B40"/>
<stop offset="1" stop-color="#EC697D"/>
</linearGradient>
</defs>
</svg>
