<svg width="24" height="24" viewBox="0 0 24 24" fill="none" xmlns="http://www.w3.org/2000/svg">
<path fill-rule="evenodd" clip-rule="evenodd" d="M8.70389 17.8247C8.70389 19.2467 7.55119 20.3994 6.12921 20.3994C4.70738 20.3994 3.55469 19.2467 3.55469 17.8247C3.55469 16.4027 4.70738 15.25 6.12921 15.25C7.55119 15.25 8.70389 16.4027 8.70389 17.8247Z" fill="#A400FF"/>
<path fill-rule="evenodd" clip-rule="evenodd" d="M14.9536 17.8244C14.9536 19.2462 13.801 20.3987 12.3792 20.3987C10.9574 20.3987 9.80469 19.2462 9.80469 17.8244C9.80469 16.4025 10.9574 15.25 12.3792 15.25C13.801 15.25 14.9536 16.4025 14.9536 17.8244Z" fill="#A400FF"/>
<path fill-rule="evenodd" clip-rule="evenodd" d="M21.2895 17.8244C21.2895 19.2462 20.1368 20.3987 18.715 20.3987C17.2932 20.3987 16.1406 19.2462 16.1406 17.8244C16.1406 16.4025 17.2932 15.25 18.715 15.25C20.1368 15.25 21.2895 16.4025 21.2895 17.8244Z" fill="#A400FF"/>
<path fill-rule="evenodd" clip-rule="evenodd" d="M8.3652 9.17479C8.3652 10.9324 6.94028 12.3572 5.1826 12.3572C3.42492 12.3572 2 10.9325 2 9.17479C2 7.41711 3.42492 5.99219 5.1826 5.99219C6.94028 5.99219 8.3652 7.41711 8.3652 9.17479Z" fill="#A400FF"/>
<path fill-rule="evenodd" clip-rule="evenodd" d="M10.9389 9.38281L10.0966 10.2163L8.74962 11.5476L8.14062 12.1499L10.761 9.5295C10.8167 9.47385 10.8767 9.42501 10.9389 9.38284L10.9389 9.38281Z" fill="#A400FF"/>
<path d="M22.0024 4.28294V13.0043C21.9978 13.3709 21.7001 13.6646 21.3356 13.6646L11.4184 13.6647L12.7676 12.3311H20.6621V4.94293H10.1473V9.1615L8.82031 10.4928V4.26953C8.82248 3.90504 9.12031 3.60938 9.48713 3.60938H21.336C21.5138 3.60938 21.6849 3.68054 21.8094 3.8072C21.9339 3.93387 22.0028 4.10503 22.0028 4.28284L22.0024 4.28294Z" fill="#A400FF"/>
<path d="M12.9348 10.4375C12.9348 10.6575 12.877 10.8776 12.7615 11.0731L11.4857 12.3334L10.1366 13.6671L8.8941 14.8939L8.8741 14.9073L8.87425 14.9139L8.87208 14.9163L8.87425 14.9185V15.6898L8.5986 15.3565C7.95627 14.7142 7.06949 14.3186 6.08933 14.3186C4.62019 14.3186 3.3599 15.2124 2.81993 16.4833L2.71109 16.839L2.71094 13.6003C2.71094 13.0333 3.17109 12.5735 3.73774 12.5735H7.72055L8.13836 12.1556L8.74735 11.5533L10.0943 10.222L10.9366 9.38855C11.1545 9.23739 11.4078 9.16406 11.6613 9.16406C11.9858 9.16406 12.3124 9.28623 12.5614 9.53522C12.8104 9.78405 12.9348 10.1109 12.9348 10.4375L12.9348 10.4375Z" fill="#A400FF"/>
<path d="M10.9361 9.38281L10.0938 10.2163V10.1941L10.7582 9.52964C10.8139 9.47383 10.8739 9.42498 10.9361 9.38281Z" fill="#A400FF"/>
<path d="M8.74962 11.5469V11.5535L8.14062 12.1559L8.74962 11.5469Z" fill="#A400FF"/>
<path d="M10.097 10.2031V10.2255L8.75 11.5567V11.5501L10.097 10.2031Z" fill="#A400FF"/>
</svg>
