<svg width="44" height="45" viewBox="0 0 44 45" fill="none" xmlns="http://www.w3.org/2000/svg">
<path d="M41.6441 19.252C41.6425 19.7488 41.4445 20.2248 41.0933 20.5762C40.742 20.9276 40.2661 21.1257 39.7693 21.1275H1.87118C1.38056 21.1177 0.913355 20.9159 0.56986 20.5655C0.226365 20.215 0.0339656 19.7439 0.0339656 19.2531C0.0339656 18.7624 0.226365 18.2913 0.56986 17.9408C0.913355 17.5904 1.38056 17.3886 1.87118 17.3787H9.85797C10.3486 17.3689 10.8158 17.1671 11.1593 16.8167C11.5028 16.4662 11.6952 15.9951 11.6952 15.5043C11.6952 15.0136 11.5028 14.5425 11.1593 14.192C10.8158 13.8416 10.3486 13.6398 9.85797 13.6299H1.32628C0.897123 13.4986 0.529304 13.2177 0.289657 12.8383C0.0500109 12.4588 -0.0455615 12.006 0.0203048 11.5621C0.086171 11.1181 0.309106 10.7125 0.648602 10.419C0.988099 10.1255 1.42163 9.96348 1.87043 9.96243H18.9014C19.3921 9.9526 19.8593 9.7508 20.2028 9.40035C20.5462 9.04991 20.7386 8.57875 20.7386 8.08804C20.7386 7.59732 20.5462 7.12616 20.2028 6.77572C19.8593 6.42527 19.3921 6.22347 18.9014 6.21364H10.2659C9.77527 6.20381 9.30807 6.00201 8.96457 5.65156C8.62108 5.30111 8.42868 4.82996 8.42868 4.33924C8.42868 3.84853 8.62108 3.37737 8.96457 3.02692C9.30807 2.67648 9.77527 2.47468 10.2659 2.46484H31.3746C31.8652 2.47468 32.3324 2.67648 32.6759 3.02692C33.0194 3.37737 33.2118 3.84853 33.2118 4.33924C33.2118 4.82996 33.0194 5.30111 32.6759 5.65156C32.3324 6.00201 31.8652 6.20381 31.3746 6.21364H26.6474C26.1568 6.22347 25.6896 6.42527 25.3461 6.77572C25.0026 7.12616 24.8102 7.59732 24.8102 8.08804C24.8102 8.57875 25.0026 9.04991 25.3461 9.40035C25.6896 9.7508 26.1568 9.9526 26.6474 9.96243H39.7693C40.2599 9.97227 40.7271 10.1741 41.0706 10.5245C41.4141 10.875 41.6065 11.3461 41.6065 11.8368C41.6065 12.3275 41.4141 12.7987 41.0706 13.1491C40.7271 13.4996 40.2599 13.7014 39.7693 13.7112H39.2545C39.0782 13.6572 38.8948 13.6298 38.7104 13.6299H17.6009C17.1042 13.6317 16.6284 13.8298 16.2772 14.181C15.926 14.5322 15.7279 15.008 15.7261 15.5047C15.7279 16.0014 15.926 16.4772 16.2772 16.8284C16.6284 17.1796 17.1042 17.3777 17.6009 17.3795H39.7693C40.2656 17.3813 40.7411 17.5791 41.0922 17.9298C41.4433 18.2805 41.6417 18.7557 41.6441 19.252Z" fill="url(#paint0_linear_4323_436124)"/>
<path d="M8.00021 34.8062H10.1336V42.8862H8.00021V34.8062Z" fill="#F4CEAE"/>
<path d="M10.1335 34.8062V42.8862H9.09349C9.09291 42.7859 9.11535 42.6868 9.15909 42.5966C9.29295 42.3225 9.39482 41.9534 9.47322 41.5955C9.78042 40.1939 9.92922 38.667 10.0167 37.1406C10.0615 36.3646 10.0903 35.5859 10.109 34.8062H10.1335Z" fill="#FFB594"/>
<path opacity="0.3" d="M25.3064 9.25241C25.3013 8.76054 25.1951 8.27497 24.9944 7.82586C24.7938 7.37675 24.5029 6.9737 24.14 6.64172C23.7379 6.28584 23.2597 6.02665 22.742 5.88402C22.2243 5.74138 21.6809 5.71907 21.1533 5.81879C20.8877 5.19085 20.4445 4.65419 19.878 4.27476C19.3116 3.89533 18.6467 3.68966 17.9649 3.68303C17.2832 3.6764 16.6143 3.8691 16.0406 4.23745C15.4669 4.60579 15.0134 5.13374 14.7356 5.75638C13.8707 5.79261 13.0499 6.14811 12.4318 6.7542C11.8137 7.36029 11.4421 8.17396 11.3889 9.03801V9.06681V9.09561V9.12441C11.3889 9.12441 11.3889 9.14361 11.3889 9.15321C11.3889 9.16281 11.3889 9.17241 11.3889 9.18201C11.3889 9.19161 11.3889 9.20121 11.3889 9.21081V9.26841V9.29721C11.3889 9.29721 11.3889 9.31641 11.3889 9.32601C11.3889 9.33561 11.3889 9.34521 11.3889 9.35481C11.3889 9.36441 11.3889 9.37401 11.3889 9.38361V9.41241V9.44121C11.3889 9.44121 11.3889 9.46041 11.3889 9.47001V9.49881C11.3889 9.50841 11.3889 9.51801 11.3916 9.52761C11.3943 9.53721 11.3916 9.54628 11.3916 9.55588C11.3916 9.56548 11.3916 9.57508 11.3943 9.58468L11.3975 9.61348L11.4007 9.64228L11.4039 9.67054C11.4039 9.68014 11.4039 9.68974 11.4076 9.69934C11.4113 9.70894 11.4103 9.71854 11.4113 9.72814C11.4124 9.73774 11.414 9.74681 11.4156 9.75641C11.4172 9.76601 11.4156 9.77561 11.4199 9.78468L11.4247 9.81348L11.4295 9.84174L11.4343 9.87001C11.4343 9.87961 11.438 9.88921 11.4396 9.89828C11.4412 9.90734 11.4433 9.91748 11.4455 9.92708C11.4476 9.93668 11.4492 9.94574 11.4508 9.95481C11.4524 9.96388 11.4551 9.97401 11.4567 9.98308L11.4631 10.0113L11.4695 10.0396C11.4695 10.0487 11.4737 10.0583 11.4764 10.0673L11.4828 10.0956C11.4855 10.1047 11.4876 10.1143 11.4903 10.1233C11.4929 10.1324 11.4951 10.142 11.4972 10.1516L11.5052 10.1793C11.5052 10.1884 11.51 10.198 11.5127 10.2071L11.5207 10.2348C11.5207 10.2439 11.526 10.2529 11.5292 10.2625L11.5372 10.2897C11.5404 10.2993 11.5431 10.3084 11.5463 10.3175C11.5495 10.3265 11.5521 10.3356 11.5548 10.3447C11.5575 10.3537 11.5612 10.3633 11.5639 10.3724L11.5735 10.3996L11.5831 10.4268L11.5927 10.454C11.5959 10.4631 11.5996 10.4716 11.6028 10.4807L11.6129 10.5079C11.6161 10.5169 11.6199 10.526 11.6236 10.5345L11.6337 10.5617L11.6449 10.5884L11.6561 10.6151L11.6673 10.6412L11.6785 10.6679C11.6828 10.6764 11.6865 10.6855 11.6903 10.694L11.7025 10.7207C11.7063 10.7292 11.7105 10.7377 11.7143 10.7468C11.718 10.7559 11.7228 10.7639 11.7265 10.7724L11.7393 10.7985L11.7521 10.8241L11.7649 10.8503L11.7783 10.8759L11.7916 10.9015L11.8055 10.9265C11.8097 10.9351 11.8145 10.9436 11.8193 10.9522L11.8332 10.9772L11.8476 11.0023L11.862 11.0274L11.8764 11.0519L11.8913 11.077C11.8961 11.085 11.9015 11.093 11.9063 11.1015L11.9217 11.1255C11.9265 11.134 11.9319 11.142 11.9372 11.15C11.9425 11.158 11.9473 11.166 11.9527 11.174L11.9687 11.1986L11.9847 11.222L12.0007 11.246L12.0172 11.2695C12.0231 11.2775 12.0284 11.2855 12.0343 11.293L12.0508 11.3164L12.0679 11.3399L12.0855 11.3628C12.0908 11.3708 12.0967 11.3783 12.1026 11.3858L12.1202 11.4087L12.1292 11.4199C12.1317 11.4237 12.1347 11.4272 12.1383 11.43C12.1412 11.4316 12.1439 11.4336 12.1463 11.4359L12.1548 11.4466C12.1602 11.454 12.166 11.461 12.1719 11.4679L12.189 11.4892L12.206 11.51L12.2236 11.5308L12.2412 11.5516L12.2594 11.5719L12.277 11.5922C12.2834 11.5991 12.2892 11.606 12.2956 11.6124C12.302 11.6188 12.3074 11.6263 12.3138 11.6327L12.3324 11.6524C12.3383 11.6594 12.3447 11.6658 12.3506 11.6722L12.3698 11.6919L12.3884 11.7116L12.4076 11.7308L12.4268 11.75L12.4466 11.7687L12.4658 11.7879C12.4727 11.7938 12.4791 11.8002 12.4855 11.8066L12.5058 11.8247L12.5255 11.8434L12.5458 11.8615L12.566 11.8796L12.5868 11.8972C12.5932 11.9036 12.6002 11.9095 12.6071 11.9154L12.6279 11.933L12.6487 11.95L12.67 11.9676L12.6908 11.9847L12.7122 12.0012L12.7335 12.0183L12.7554 12.0348L12.7767 12.0508L12.7986 12.0674L12.8204 12.0834L12.8428 12.0994L12.8647 12.1148L12.8871 12.1303L12.9095 12.1458L12.9319 12.1612L12.9548 12.1762L12.9778 12.1911L13.0007 12.2055L13.0236 12.2199L13.0466 12.2343L13.07 12.2482L13.093 12.2626L13.1164 12.2759L13.1404 12.2898L13.1639 12.3031C13.1719 12.3074 13.1799 12.3116 13.1874 12.3164L13.2114 12.3292L13.2354 12.342L13.2594 12.3548L13.2839 12.3671L13.3079 12.3794L13.3324 12.3916L13.357 12.4034L13.3815 12.4151L13.406 12.4268L13.4306 12.438L13.4556 12.4492L13.4802 12.4599L13.5052 12.4706L13.5303 12.4812L13.5554 12.4919L13.5804 12.502L13.606 12.5116L13.6311 12.5212L13.6567 12.5308L13.6823 12.5404L13.7079 12.5495L13.7335 12.5586L13.7591 12.5671L13.7852 12.5756L13.8108 12.5842L13.837 12.5922L13.8631 12.6002L13.8887 12.6076L13.9148 12.6151L13.9415 12.6226L13.9676 12.6295L13.9938 12.6364L14.0199 12.6428L14.0466 12.6492L14.0732 12.6556L14.0994 12.6615L14.126 12.6674L14.1527 12.6732L14.1794 12.6786L14.206 12.6834L14.2327 12.6882L14.2594 12.693L14.286 12.6978L14.3132 12.702H14.3319C14.6643 12.7429 14.9992 12.7593 15.334 12.7511H16.4935H22.1741C22.3156 12.7549 22.4572 12.7474 22.5976 12.7287C22.7273 12.7062 22.8543 12.6704 22.9768 12.622C23.2527 12.5189 23.5148 12.3818 23.757 12.214C24.1961 11.9055 24.5617 11.5039 24.8278 11.0379C25.094 10.5719 25.2541 10.0529 25.2968 9.51801C25.3037 9.42947 25.3069 9.34094 25.3064 9.25241Z" fill="#CFD2E8"/>
<path opacity="0.3" d="M16.6664 25.7324C16.6613 25.2405 16.5551 24.755 16.3544 24.3058C16.1538 23.8567 15.8629 23.4537 15.4999 23.1217C15.0979 22.7658 14.6197 22.5066 14.102 22.364C13.5843 22.2214 13.0409 22.199 12.5133 22.2988C12.2477 21.6708 11.8045 21.1342 11.238 20.7547C10.6716 20.3753 10.0066 20.1696 9.3249 20.163C8.64316 20.1564 7.97433 20.3491 7.40063 20.7174C6.82692 21.0858 6.37334 21.6137 6.09562 22.2364C5.23089 22.2728 4.41034 22.6285 3.79246 23.2345C3.17457 23.8406 2.80318 24.6541 2.75 25.518V25.5468V25.5756V25.6044C2.75 25.6044 2.75 25.6236 2.75 25.6332C2.75 25.6428 2.75 25.6524 2.75 25.662C2.75 25.6716 2.75 25.6812 2.75 25.6908V25.7484V25.7772C2.75 25.7772 2.75 25.7964 2.75 25.806C2.75 25.8156 2.75 25.8252 2.75 25.8348C2.75 25.8444 2.75 25.854 2.75 25.8636V25.8924V25.9212C2.75 25.9212 2.75 25.9404 2.75 25.95V25.9788V26.0076C2.75 26.0076 2.75 26.0263 2.75 26.0359C2.75 26.0455 2.75 26.0551 2.75 26.0647L2.7532 26.0935L2.7564 26.1223L2.7596 26.1505C2.7596 26.1601 2.76227 26.1697 2.76333 26.1793C2.7644 26.1889 2.76333 26.1985 2.76707 26.2081C2.7708 26.2177 2.76973 26.2268 2.77133 26.2364C2.77293 26.246 2.774 26.2556 2.7756 26.2647L2.7804 26.2935L2.7852 26.3217L2.79 26.35C2.79 26.3596 2.79373 26.3692 2.79533 26.3783C2.79693 26.3873 2.79907 26.3975 2.8012 26.4071C2.80333 26.4167 2.80493 26.4257 2.80653 26.4348C2.80813 26.4439 2.8108 26.454 2.8124 26.4631L2.8188 26.4913L2.8252 26.5196C2.8252 26.5287 2.82947 26.5383 2.83213 26.5473L2.83853 26.5756C2.8412 26.5847 2.84333 26.5943 2.846 26.6033C2.84867 26.6124 2.8508 26.622 2.85293 26.6316L2.86093 26.6593C2.86093 26.6684 2.86573 26.678 2.8684 26.6871L2.8764 26.7148C2.8764 26.7239 2.88173 26.7329 2.88493 26.7425L2.89293 26.7697C2.89613 26.7793 2.8988 26.7884 2.902 26.7975C2.9052 26.8065 2.90787 26.8156 2.91053 26.8247C2.9132 26.8337 2.91693 26.8433 2.9196 26.8524L2.9292 26.8796L2.9388 26.9068L2.9484 26.934C2.9516 26.9431 2.95533 26.9516 2.95853 26.9607L2.96867 26.9879C2.97187 26.9969 2.9756 27.006 2.97933 27.0145L2.98947 27.0417L3.00067 27.0684L3.01187 27.0951L3.02307 27.1212L3.03427 27.1479C3.03854 27.1564 3.04227 27.1655 3.046 27.174L3.05827 27.2007C3.062 27.2092 3.06627 27.2177 3.07 27.2268C3.07374 27.2359 3.07854 27.2439 3.08227 27.2524L3.09507 27.2785L3.10787 27.3041L3.12067 27.3303L3.134 27.3559L3.14734 27.3815L3.1612 27.4065C3.16547 27.4151 3.17027 27.4236 3.17507 27.4321L3.18894 27.4572L3.20334 27.4823L3.21774 27.5073L3.23214 27.5319L3.24707 27.5569C3.25187 27.5649 3.2572 27.5729 3.262 27.5815L3.27747 27.6055C3.28227 27.614 3.2876 27.622 3.29294 27.63C3.29827 27.638 3.30307 27.646 3.3084 27.654L3.3244 27.6785L3.3404 27.702L3.3564 27.726L3.37294 27.7495C3.3788 27.7575 3.38414 27.7655 3.39 27.7729L3.40654 27.7964L3.4236 27.8199L3.4412 27.8428C3.44654 27.8508 3.4524 27.8583 3.45827 27.8657L3.47587 27.8887L3.48494 27.8999C3.48738 27.9037 3.49044 27.9072 3.494 27.91C3.49691 27.9116 3.4996 27.9136 3.502 27.9159L3.51054 27.9265C3.51587 27.934 3.52174 27.9409 3.5276 27.9479L3.54467 27.9692L3.56174 27.99L3.57934 28.0108L3.59694 28.0316L3.61507 28.0519L3.63267 28.0721C3.63907 28.0791 3.64494 28.086 3.65134 28.0924C3.65774 28.0988 3.66307 28.1063 3.66947 28.1127L3.68814 28.1324C3.69401 28.1393 3.70041 28.1457 3.70627 28.1521L3.72547 28.1719L3.75694 28.1927L3.77614 28.2119L3.79534 28.2311L3.81507 28.2497L3.83427 28.2689C3.84121 28.2748 3.84761 28.2812 3.85401 28.2876L3.87427 28.3057L3.89401 28.3244L3.91427 28.3425L3.93454 28.3607L3.95534 28.3783C3.96174 28.3847 3.96867 28.3905 3.97561 28.3964L3.99641 28.414L4.01721 28.4311L4.03854 28.4487L4.05934 28.4657L4.08067 28.4823L4.10201 28.4993L4.12388 28.5159L4.14521 28.5319L4.16708 28.5484L4.18894 28.5644L4.21134 28.5804L4.23321 28.5959L4.25561 28.6113L4.27801 28.6268L4.30041 28.6423L4.32334 28.6572L4.34361 28.6727L4.36654 28.6871L4.38948 28.7015L4.41241 28.7159L4.43588 28.7297L4.45881 28.7441L4.48228 28.7575L4.50628 28.7713L4.52974 28.7847C4.53774 28.7889 4.54574 28.7932 4.55321 28.798L4.57721 28.8108L4.60121 28.8236L4.62521 28.8364L4.64975 28.8487L4.67375 28.8609L4.69828 28.8732L4.72281 28.8849L4.74735 28.8967L4.77188 28.9084L4.79641 28.9196L4.82148 28.9308L4.84601 28.9415L4.87108 28.9521L4.89615 28.9628L4.92121 28.9735L4.94628 28.9836L4.97188 28.9932L4.99695 29.0028L5.02255 29.0124L5.04815 29.022L5.07375 29.0311L5.09935 29.0401L5.12495 29.0487L5.15108 29.0572L5.17668 29.0657L5.20282 29.0737L5.22895 29.0817L5.25455 29.0892L5.28068 29.0967L5.30735 29.1041L5.33348 29.1111L5.35962 29.118L5.38575 29.1244L5.41242 29.1308L5.43908 29.1372L5.46522 29.1431L5.49188 29.1489L5.51855 29.1548L5.54522 29.1601L5.57188 29.1649L5.59855 29.1697L5.62522 29.1745L5.65188 29.1793L5.67908 29.1836L5.69775 29.1863C6.03014 29.2272 6.36509 29.2436 6.69989 29.2353H7.85936H13.5399C13.6815 29.2391 13.8231 29.2316 13.9634 29.2129C14.0931 29.1904 14.2202 29.1547 14.3426 29.1063C14.6168 29.0013 14.8769 28.8629 15.117 28.694C15.5561 28.3854 15.9217 27.9839 16.1878 27.5179C16.4539 27.0519 16.6141 26.5329 16.6568 25.998C16.6637 25.9095 16.6669 25.8209 16.6664 25.7324Z" fill="#CFD2E8"/>
<path opacity="0.3" d="M44 23.9191C43.9952 23.4268 43.8892 22.9408 43.6885 22.4912C43.4879 22.0416 43.1968 21.6381 42.8336 21.3058C42.4315 20.9499 41.9533 20.6907 41.4356 20.5481C40.9179 20.4054 40.3745 20.3831 39.8469 20.4828C39.5813 19.8549 39.1381 19.3183 38.5717 18.9388C38.0052 18.5594 37.3403 18.3537 36.6585 18.3471C35.9768 18.3405 35.308 18.5332 34.7342 18.9015C34.1605 19.2699 33.707 19.7978 33.4292 20.4204C32.5643 20.4567 31.7435 20.8122 31.1254 21.4183C30.5073 22.0244 30.1357 22.838 30.0826 23.7021V23.7309V23.7597V23.7885C30.0826 23.7885 30.0826 23.8077 30.0826 23.8173C30.0826 23.8269 30.0826 23.8365 30.0826 23.8461C30.0826 23.8557 30.0826 23.8653 30.0826 23.8749V23.9325V23.9613C30.0826 23.9613 30.0826 23.9805 30.0826 23.9901C30.0826 23.9997 30.0826 24.0093 30.0826 24.0189C30.0826 24.0285 30.0826 24.0381 30.0826 24.0477V24.0765V24.1053C30.0826 24.1053 30.0826 24.1245 30.0826 24.1341V24.1629C30.0826 24.1725 30.0826 24.1821 30.0852 24.1917C30.0879 24.2013 30.0852 24.2109 30.0852 24.2205C30.0852 24.2301 30.0852 24.2391 30.0852 24.2487L30.0884 24.2775L30.0916 24.3063L30.0948 24.3351C30.0948 24.3442 30.0948 24.3538 30.0986 24.3634C30.1023 24.373 30.1012 24.3826 30.1023 24.3922C30.1033 24.4018 30.1023 24.4109 30.1066 24.4205C30.1108 24.4301 30.1066 24.4397 30.1108 24.4493L30.1156 24.4775L30.1204 24.5058L30.1252 24.5341C30.1252 24.5437 30.129 24.5533 30.1306 24.5629C30.1322 24.5725 30.1343 24.5815 30.1364 24.5911C30.1386 24.6007 30.1402 24.6098 30.1418 24.6194C30.1434 24.629 30.146 24.6381 30.1476 24.6477L30.154 24.6754L30.1604 24.7037C30.1604 24.7133 30.1647 24.7223 30.1674 24.7319L30.1738 24.7597L30.1812 24.7879C30.1812 24.797 30.186 24.8061 30.1882 24.8157L30.1962 24.8434C30.1962 24.8525 30.201 24.8621 30.2036 24.8711L30.2116 24.8989C30.2143 24.9079 30.217 24.9175 30.2202 24.9266L30.2282 24.9543L30.2372 24.9815C30.2399 24.9906 30.2431 24.9997 30.2458 25.0087C30.2484 25.0178 30.2522 25.0274 30.2548 25.0365L30.2644 25.0637L30.274 25.0909L30.2836 25.1181L30.2938 25.1453C30.297 25.1538 30.3007 25.1629 30.3039 25.1719C30.3071 25.181 30.3108 25.1901 30.3146 25.1991C30.3183 25.2082 30.3215 25.2167 30.3247 25.2258L30.3359 25.2525L30.3471 25.2791L30.3583 25.3058L30.3695 25.3319L30.3812 25.3581L30.3935 25.3847C30.3972 25.3933 30.4015 25.4018 30.4052 25.4109C30.409 25.4199 30.4138 25.4279 30.4175 25.437L30.4303 25.4626L30.4431 25.4887L30.4559 25.5143L30.4692 25.5399L30.4826 25.5655C30.4874 25.5741 30.4916 25.5826 30.4964 25.5906C30.5012 25.5986 30.5055 25.6077 30.5103 25.6162C30.5151 25.6247 30.5194 25.6327 30.5242 25.6413L30.5386 25.6663L30.553 25.6914L30.5674 25.7159L30.5823 25.741C30.5871 25.749 30.5924 25.757 30.5972 25.7655L30.6127 25.7901C30.6175 25.7981 30.6228 25.8061 30.6282 25.8141L30.6436 25.8386L30.6596 25.8626L30.6756 25.8866L30.6916 25.9101L30.7082 25.9341C30.714 25.9415 30.7194 25.9495 30.7252 25.9575L30.7418 25.9805C30.7476 25.9885 30.753 25.9965 30.7588 26.0039L30.7764 26.0269C30.7818 26.0349 30.7876 26.0423 30.7935 26.0498L30.8111 26.0727L30.8202 26.0839C30.8226 26.0878 30.8257 26.0912 30.8292 26.0941L30.8372 26.0999L30.8458 26.1111L30.8628 26.1319C30.8682 26.1394 30.874 26.1464 30.8799 26.1533L30.897 26.1741L30.9146 26.1949L30.9322 26.2157L30.9503 26.2359L30.9679 26.2568C30.9743 26.2632 30.9802 26.2701 30.9866 26.277C30.993 26.2839 30.9983 26.2904 31.0047 26.2968C31.0111 26.3032 31.017 26.3101 31.0234 26.317C31.0298 26.324 31.0356 26.3298 31.0415 26.3368L31.0607 26.356L31.0794 26.3757L31.0986 26.3949L31.1178 26.4141L31.1375 26.4333L31.1567 26.452L31.1764 26.4706L31.1967 26.4893L31.2164 26.5074L31.2367 26.5256L31.257 26.5437L31.2778 26.5618L31.298 26.5794L31.3188 26.597L31.3396 26.6141L31.361 26.6317L31.3818 26.6488L31.4031 26.6653L31.4244 26.6824L31.4463 26.6989L31.4676 26.7154L31.4895 26.7314L31.5114 26.7474L31.5338 26.7634L31.5556 26.7789L31.578 26.7944L31.6004 26.8098L31.6228 26.8253L31.6458 26.8402L31.6687 26.8552L31.6916 26.8696L31.7146 26.884L31.7375 26.8984L31.761 26.9128L31.7839 26.9266L31.8074 26.9405L31.8314 26.9538L31.8548 26.9672L31.8783 26.9805L31.9023 26.9933L31.9263 27.0061L31.9503 27.0189L31.9748 27.0312L31.9988 27.0434L32.0234 27.0557L32.0479 27.0674L32.0724 27.0792L32.097 27.0909L32.1215 27.1021L32.1466 27.1133L32.1711 27.124L32.1962 27.1352L32.2212 27.1453L32.2463 27.156L32.2714 27.1661L32.297 27.1757L32.322 27.1858L32.3476 27.1949L32.3732 27.2045L32.3988 27.2136L32.4244 27.2226L32.45 27.2312L32.4762 27.2397L32.5018 27.2482L32.5279 27.2562L32.554 27.2642L32.5796 27.2717L32.6058 27.2792L32.6324 27.2866L32.6586 27.2936L32.6847 27.3005L32.7108 27.3074L32.7375 27.3138L32.7642 27.3197L32.7903 27.3256L32.817 27.3314L32.8436 27.3373L32.8703 27.3426L32.897 27.3474L32.9236 27.3528L32.9503 27.357L32.977 27.3618L33.0042 27.3661H33.0228C33.3552 27.407 33.6902 27.4234 34.025 27.4152H35.1845H40.865C41.0065 27.4189 41.1481 27.4114 41.2885 27.3928C41.4182 27.3702 41.5453 27.3345 41.6677 27.2861C41.942 27.1824 42.2025 27.0452 42.4432 26.8776C42.8822 26.569 43.2478 26.1674 43.514 25.7014C43.7801 25.2354 43.9402 24.7165 43.9829 24.1815C43.9978 24.0957 44.0005 24.0071 44 23.9191Z" fill="#CFD2E8"/>
<path opacity="0.2" d="M43.5998 37.5725C43.5951 37.0801 43.4891 36.5941 43.2884 36.1445C43.0878 35.6949 42.7967 35.2914 42.4334 34.9591C42.0313 34.6032 41.5531 34.344 41.0355 34.2014C40.5178 34.0588 39.9744 34.0364 39.4467 34.1362C39.1812 33.5082 38.7379 32.9716 38.1715 32.5921C37.6051 32.2127 36.9401 32.007 36.2584 32.0004C35.5766 31.9938 34.9078 32.1865 34.3341 32.5548C33.7604 32.9232 33.3068 33.4511 33.0291 34.0738C32.1642 34.11 31.3434 34.4655 30.7253 35.0716C30.1071 35.6777 29.7356 36.4913 29.6824 37.3554V37.3842V37.413V37.4418C29.6824 37.4418 29.6824 37.461 29.6824 37.4706C29.6824 37.4802 29.6824 37.4898 29.6824 37.4994C29.6824 37.509 29.6824 37.5186 29.6824 37.5282V37.5858V37.6146C29.6824 37.6146 29.6824 37.6338 29.6824 37.6434C29.6824 37.653 29.6824 37.6626 29.6824 37.6722C29.6824 37.6818 29.6824 37.6914 29.6824 37.701V37.7298V37.7586C29.6824 37.7586 29.6824 37.7778 29.6824 37.7874V37.8162C29.6824 37.8258 29.6824 37.8354 29.6851 37.845C29.6877 37.8546 29.6851 37.8637 29.6851 37.8733C29.6851 37.8829 29.6851 37.8925 29.6877 37.9021L29.6909 37.9309L29.6941 37.9597L29.6973 37.9879C29.6973 37.9975 29.7 38.0071 29.7011 38.0167C29.7021 38.0263 29.7037 38.0359 29.7048 38.0455C29.7059 38.0551 29.7075 38.0642 29.7091 38.0738C29.7107 38.0834 29.7117 38.093 29.7133 38.1021L29.7181 38.1309L29.7229 38.1591L29.7277 38.1874C29.7277 38.197 29.7315 38.2066 29.7331 38.2157C29.7347 38.2247 29.7368 38.2349 29.7389 38.2445C29.7411 38.2541 29.7427 38.2631 29.7443 38.2722C29.7459 38.2813 29.7485 38.2914 29.7501 38.3005L29.7565 38.3287L29.7629 38.357C29.7629 38.3661 29.7672 38.3757 29.7699 38.3847L29.7763 38.413C29.7763 38.4221 29.7811 38.4317 29.7837 38.4407C29.7864 38.4498 29.7885 38.4594 29.7907 38.469L29.7987 38.4967C29.7987 38.5058 29.8035 38.5154 29.8061 38.5245L29.8141 38.5522C29.8168 38.5613 29.8195 38.5703 29.8227 38.5799L29.8307 38.6071C29.8339 38.6167 29.8365 38.6258 29.8397 38.6349C29.8429 38.6439 29.8456 38.653 29.8483 38.6621C29.8509 38.6711 29.8547 38.6807 29.8573 38.6898L29.8669 38.717L29.8765 38.7442L29.8861 38.7714C29.8893 38.7805 29.8931 38.789 29.8963 38.7981L29.9064 38.8253C29.9096 38.8343 29.9133 38.8434 29.9171 38.8519L29.9272 38.8791L29.9384 38.9058L29.9496 38.9325L29.9608 38.9586L29.972 38.9853C29.9763 38.9938 29.98 39.0029 29.9837 39.0114L29.996 39.0381C29.9997 39.0466 30.004 39.0551 30.0077 39.0642C30.0115 39.0733 30.0163 39.0813 30.02 39.0898L30.0328 39.1159L30.0456 39.1415L30.0584 39.1677L30.0717 39.1933L30.0851 39.2189L30.0989 39.2439C30.1032 39.2525 30.108 39.261 30.1128 39.2695L30.1267 39.2946L30.1411 39.3197L30.1555 39.3447L30.1699 39.3693L30.1848 39.3943C30.1896 39.4023 30.1949 39.4103 30.1997 39.4189L30.2152 39.4429C30.22 39.4514 30.2253 39.4594 30.2307 39.4674C30.236 39.4754 30.2408 39.4834 30.2461 39.4914L30.2621 39.5159L30.2781 39.5394L30.2941 39.5634L30.3107 39.5869C30.3165 39.5949 30.3219 39.6029 30.3277 39.6103L30.3443 39.6338L30.3613 39.6573L30.3789 39.6802C30.3843 39.6882 30.3901 39.6957 30.396 39.7031L30.4136 39.7261L30.4227 39.7373C30.4251 39.7411 30.4282 39.7446 30.4317 39.7474C30.4347 39.749 30.4373 39.751 30.4397 39.7533L30.4483 39.7639C30.4536 39.7714 30.4595 39.7783 30.4653 39.7853L30.4824 39.8066L30.4995 39.8274L30.5171 39.8482L30.5347 39.869L30.5528 39.8893L30.5704 39.9095C30.5768 39.9165 30.5827 39.9234 30.5891 39.9298C30.5955 39.9362 30.6008 39.9437 30.6072 39.9501L30.6259 39.9698C30.6317 39.9767 30.6381 39.9831 30.644 39.9895L30.6632 40.0093L30.6819 40.029L30.7011 40.0482L30.7203 40.0674L30.74 40.0861L30.7592 40.1053C30.7661 40.1111 30.7725 40.1175 30.7789 40.1239L30.7992 40.1421L30.8189 40.1607L30.8392 40.1789L30.8595 40.197L30.8803 40.2146C30.8867 40.221 30.8936 40.2269 30.9005 40.2327L30.9213 40.2503L30.9421 40.2674L30.9635 40.285L30.9843 40.3021L31.0056 40.3186L31.0269 40.3357L31.0488 40.3522L31.0701 40.3682L31.092 40.3847L31.1139 40.4007L31.1363 40.4167L31.1581 40.4322L31.1805 40.4477L31.2029 40.4631L31.2253 40.4786L31.2483 40.4935L31.2712 40.5085L31.2941 40.5229L31.3171 40.5373L31.34 40.5517L31.3635 40.5655L31.3864 40.5799L31.4099 40.5933L31.4339 40.6071L31.4573 40.6205C31.4653 40.6247 31.4733 40.629 31.4808 40.6338L31.5048 40.6466L31.5288 40.6594L31.5528 40.6722L31.5773 40.6845L31.6013 40.6967L31.6259 40.709L31.6504 40.7207L31.675 40.7325L31.6995 40.7442L31.724 40.7554L31.7491 40.7666L31.7736 40.7773L31.7987 40.7879L31.8238 40.7986L31.8488 40.8093L31.8739 40.8194L31.8995 40.829L31.9246 40.8386L31.9502 40.8482L31.9757 40.8578L32.0014 40.8669L32.027 40.8759L32.0526 40.8845L32.0787 40.893L32.1043 40.9015L32.1304 40.9095L32.1566 40.9175L32.1822 40.925L32.2083 40.9325L32.235 40.9399L32.2611 40.9469L32.2872 40.9538L32.3134 40.9602L32.34 40.9666L32.3667 40.973L32.3928 40.9789L32.4195 40.9847L32.4462 40.9906L32.4728 40.9959L32.4995 41.0007L32.5262 41.0055L32.5528 41.0103L32.5795 41.0151L32.6067 41.0194L32.6254 41.0221C32.9577 41.063 33.2927 41.0794 33.6275 41.0711H34.787H40.4675C40.6091 41.0749 40.7507 41.0674 40.891 41.0487C41.0207 41.0262 41.1478 40.9905 41.2702 40.9421C41.5462 40.8389 41.8083 40.7019 42.0505 40.5341C42.4895 40.2255 42.8551 39.8239 43.1213 39.3579C43.3874 38.8919 43.5475 38.373 43.5902 37.8381C43.5972 37.7495 43.6004 37.661 43.5998 37.5725Z" fill="#CFD2E8"/>
<path opacity="0.2" d="M43.9998 6.07902C43.9947 5.58715 43.8885 5.10159 43.6879 4.65248C43.4872 4.20337 43.1964 3.80031 42.8334 3.46834C42.4314 3.1127 41.9533 2.85371 41.4359 2.71117C40.9184 2.56863 40.3752 2.54631 39.8478 2.64593C39.5822 2.018 39.139 1.48134 38.5725 1.10191C38.0061 0.722474 37.3412 0.516804 36.6594 0.510175C35.9777 0.503546 35.3088 0.696248 34.7351 1.0646C34.1614 1.43294 33.7078 1.96088 33.4301 2.58353C32.5652 2.61976 31.7444 2.97526 31.1263 3.58135C30.5082 4.18744 30.1366 5.00111 30.0834 5.86515V5.89395V5.92275V5.95155C30.0834 5.95155 30.0834 5.97075 30.0834 5.98035C30.0834 5.98995 30.0834 5.99955 30.0834 6.00915C30.0834 6.01875 30.0834 6.02835 30.0834 6.03795V6.09556V6.12436C30.0834 6.12436 30.0834 6.14356 30.0834 6.15316C30.0834 6.16276 30.0834 6.17236 30.0834 6.18196C30.0834 6.19156 30.0834 6.20116 30.0834 6.21076V6.23956V6.26836C30.0834 6.26836 30.0834 6.28756 30.0834 6.29716V6.32596C30.0834 6.33556 30.0834 6.34516 30.0861 6.35476C30.0888 6.36436 30.0861 6.37342 30.0861 6.38302C30.0861 6.39262 30.0861 6.40222 30.0861 6.41182L30.0893 6.44062L30.0925 6.46942L30.0957 6.49769C30.0957 6.50729 30.0957 6.51689 30.0994 6.52649C30.1032 6.53609 30.1021 6.54569 30.1032 6.55529C30.1042 6.56489 30.1032 6.57396 30.1074 6.58356C30.1117 6.59316 30.1074 6.60276 30.1117 6.61182L30.1165 6.64063L30.1213 6.66889L30.1261 6.69716C30.1261 6.70676 30.1298 6.71636 30.1314 6.72543C30.133 6.73449 30.1352 6.74463 30.1373 6.75423C30.1394 6.76383 30.141 6.77289 30.1426 6.78196C30.1442 6.79103 30.1469 6.80116 30.1485 6.81023L30.1549 6.83849L30.1613 6.86676C30.1613 6.87583 30.1656 6.88543 30.1682 6.89449L30.1746 6.92276C30.1746 6.93183 30.1794 6.94143 30.1821 6.95049C30.1848 6.95956 30.1869 6.96916 30.189 6.97876L30.197 7.00649C30.197 7.01556 30.2018 7.02516 30.2045 7.03423L30.2125 7.06196C30.2152 7.07103 30.2178 7.08009 30.221 7.08969L30.229 7.1169C30.2322 7.1265 30.2349 7.13556 30.2381 7.14463C30.2413 7.1537 30.244 7.16276 30.2466 7.17183C30.2493 7.1809 30.253 7.1905 30.2557 7.19956L30.2653 7.22676L30.2749 7.25396L30.2845 7.28116C30.2877 7.29023 30.2914 7.29876 30.2946 7.30783L30.3048 7.33503C30.308 7.3441 30.3117 7.35316 30.3154 7.3617L30.3256 7.3889L30.3368 7.41556L30.348 7.44223L30.3592 7.46836L30.3704 7.49503C30.3746 7.50356 30.3784 7.51263 30.3821 7.52116L30.3944 7.54783C30.3981 7.55636 30.4024 7.5649 30.4061 7.57396C30.4098 7.58303 30.4146 7.59103 30.4184 7.59957L30.4312 7.6257L30.444 7.6513L30.4568 7.67743L30.4701 7.70303L30.4834 7.72863L30.4973 7.7537C30.5016 7.76223 30.5064 7.77077 30.5112 7.7793L30.525 7.80437L30.5394 7.82943L30.5538 7.8545L30.5682 7.87903L30.5832 7.9041C30.588 7.9121 30.5933 7.9201 30.5981 7.92863L30.6136 7.95263C30.6184 7.96117 30.6237 7.96917 30.629 7.97717C30.6344 7.98517 30.6392 7.99317 30.6445 8.00117L30.6605 8.0257L30.6765 8.04917L30.6925 8.07317L30.709 8.09663C30.7149 8.10463 30.7202 8.11263 30.7261 8.1201L30.7426 8.14357L30.7597 8.16704L30.7773 8.18997C30.7826 8.19797 30.7885 8.20544 30.7944 8.2129L30.812 8.23584L30.821 8.24704C30.8235 8.25089 30.8265 8.25432 30.8301 8.25717C30.833 8.25877 30.8357 8.26074 30.8381 8.26304L30.8466 8.2737C30.852 8.28117 30.8578 8.2881 30.8637 8.29504L30.8808 8.31637L30.8978 8.33717L30.9154 8.35797L30.933 8.37877L30.9512 8.39904L30.9688 8.4193C30.9752 8.42624 30.981 8.43317 30.9874 8.43957C30.9938 8.44597 30.9992 8.45344 31.0056 8.45984L31.0242 8.47957C31.0301 8.4865 31.0365 8.4929 31.0424 8.4993L31.0616 8.51904L31.0802 8.53877L31.0994 8.55797L31.1186 8.57717L31.1384 8.59584L31.1576 8.61504C31.1645 8.6209 31.1709 8.62731 31.1773 8.63371L31.1976 8.65184L31.2173 8.6705L31.2376 8.68864L31.2578 8.70677L31.2786 8.72437C31.285 8.73077 31.292 8.73664 31.2989 8.74251L31.3197 8.76011L31.3405 8.77717L31.3618 8.79477L31.3826 8.81184L31.404 8.82837L31.4253 8.84544L31.4472 8.86197L31.4685 8.87797L31.4904 8.89451L31.5122 8.91051L31.5346 8.92651L31.5565 8.94197L31.5789 8.95744L31.6013 8.97291L31.6237 8.98837L31.6466 9.00331L31.6696 9.01824L31.6925 9.03264L31.7154 9.04704L31.7384 9.06144L31.7618 9.07531L31.7848 9.08971L31.8082 9.10304L31.8322 9.11691L31.8557 9.13024C31.8637 9.13451 31.8717 9.13877 31.8792 9.14357L31.9032 9.15637L31.9272 9.16917L31.9512 9.18197L31.9757 9.19424L31.9997 9.20651L32.0242 9.21877L32.0488 9.23051L32.0733 9.24224L32.0978 9.25397L32.1224 9.26517L32.1474 9.27638L32.172 9.28704L32.197 9.29771L32.2221 9.30838L32.2472 9.31904L32.2722 9.32917L32.2978 9.33878L32.3229 9.34838L32.3485 9.35798L32.3741 9.36758L32.3997 9.37664L32.4253 9.38571L32.4509 9.39424L32.4771 9.40278L32.5026 9.41131L32.5288 9.41931L32.5549 9.42731L32.5805 9.43478L32.6067 9.44224L32.6333 9.44971L32.6595 9.45664L32.6856 9.46358L32.7117 9.46998L32.7384 9.47638L32.7651 9.48278L32.7912 9.48864L32.8179 9.49451L32.8445 9.50038L32.8712 9.50571L32.8979 9.51051L32.9245 9.51531L32.9512 9.52011L32.9779 9.52491L33.0051 9.52918H33.0237C33.3561 9.57008 33.6911 9.58648 34.0259 9.57824H35.1853H40.8659C41.0074 9.58201 41.149 9.57452 41.2894 9.55584C41.4191 9.53331 41.5461 9.49757 41.6686 9.44918C41.9429 9.3455 42.2034 9.20827 42.444 9.04064C42.8831 8.73207 43.2487 8.33049 43.5148 7.8645C43.781 7.3985 43.9411 6.87956 43.9838 6.34462C43.9977 6.25609 44.0003 6.16596 43.9998 6.07902Z" fill="#CFD2E8"/>
<path d="M36.0484 3.68604H21.3923C20.2848 3.68604 19.3869 4.58386 19.3869 5.69138V37.6809C19.3869 38.7884 20.2848 39.6863 21.3923 39.6863H36.0484C37.1559 39.6863 38.0537 38.7884 38.0537 37.6809V5.69138C38.0537 4.58386 37.1559 3.68604 36.0484 3.68604Z" fill="#516582"/>
<path opacity="0.3" d="M38.107 5.63791V6.06458C38.107 5.80122 38.0552 5.54042 37.9545 5.29709C37.8537 5.05376 37.706 4.83266 37.5198 4.64643C37.3335 4.46021 37.1124 4.3125 36.8691 4.21174C36.6258 4.11099 36.365 4.05917 36.1016 4.05924H21.4455C21.1822 4.05917 20.9214 4.11099 20.678 4.21174C20.4347 4.3125 20.2136 4.46021 20.0274 4.64643C19.8412 4.83266 19.6934 5.05376 19.5927 5.29709C19.4919 5.54042 19.4401 5.80122 19.4402 6.06458V5.63791C19.4401 5.37455 19.4919 5.11375 19.5927 4.87042C19.6934 4.62709 19.8412 4.40599 20.0274 4.21976C20.2136 4.03354 20.4347 3.88583 20.678 3.78507C20.9214 3.68432 21.1822 3.6325 21.4455 3.63257H36.1016C36.365 3.6325 36.6258 3.68432 36.8691 3.78507C37.1124 3.88583 37.3335 4.03354 37.5198 4.21976C37.706 4.40599 37.8537 4.62709 37.9545 4.87042C38.0552 5.11375 38.107 5.37455 38.107 5.63791Z" fill="#233449"/>
<path d="M35.9591 4.58569H21.5142C20.7534 4.58569 20.1366 5.20247 20.1366 5.9633V37.3683C20.1366 38.1291 20.7534 38.7459 21.5142 38.7459H35.9591C36.72 38.7459 37.3367 38.1291 37.3367 37.3683V5.9633C37.3367 5.20247 36.72 4.58569 35.9591 4.58569Z" fill="white"/>
<path d="M21.3199 38.5256C21.3199 38.5256 20.9081 36.2856 22.9199 32.1624C22.9199 32.1624 24.0484 31.7699 23.8031 30.5432L24.2799 29.8824L25.3492 28.3997L26.4692 26.844C27.1167 25.9469 27.7578 25.0637 28.225 24.0551C28.3918 23.6951 28.5397 23.3266 28.6682 22.9511C28.7248 22.7852 28.7172 22.604 28.6468 22.4434L28.3226 21.7031L20.6137 32.8984L19.8777 37.3128L19.931 37.7032C19.931 37.7032 21.1236 38.4766 21.3199 38.5256Z" fill="#CFD2E8"/>
<path d="M36.0655 39.8526H21.4104C20.8293 39.852 20.2722 39.6209 19.8613 39.2101C19.4503 38.7993 19.2191 38.2422 19.2184 37.6611V5.67102C19.2191 5.08988 19.4503 4.53274 19.8612 4.12181C20.2721 3.71088 20.8293 3.47971 21.4104 3.479H36.0655C36.6465 3.47971 37.2036 3.7109 37.6145 4.12184C38.0253 4.53279 38.2564 5.08993 38.2569 5.67102V37.6611C38.2564 38.2421 38.0253 38.7992 37.6144 39.2101C37.2036 39.6209 36.6465 39.852 36.0655 39.8526ZM21.4104 3.85234C20.9283 3.8529 20.466 4.0447 20.1251 4.38564C19.7841 4.72659 19.5923 5.18885 19.5917 5.67102V37.6611C19.5923 38.1432 19.7841 38.6054 20.1251 38.9463C20.466 39.2871 20.9283 39.4788 21.4104 39.4792H36.0655C36.5475 39.4787 37.0096 39.2869 37.3505 38.9461C37.6913 38.6052 37.883 38.1431 37.8836 37.6611V5.67102C37.8832 5.1889 37.6915 4.72664 37.3506 4.38567C37.0098 4.04471 36.5476 3.8529 36.0655 3.85234H21.4104Z" fill="#1B3C47"/>
<path d="M37.2834 5.81665V37.515C37.2835 37.6959 37.2479 37.8751 37.1787 38.0423C37.1095 38.2094 37.008 38.3613 36.8801 38.4893C36.7521 38.6172 36.6002 38.7187 36.4331 38.7879C36.2659 38.8571 36.0867 38.8927 35.9058 38.8926H21.4636C21.2081 38.8927 20.9575 38.8217 20.7401 38.6875C20.5227 38.5533 20.347 38.3611 20.2326 38.1326C20.4241 38.2293 20.6357 38.2796 20.8502 38.2793H35.2925C35.4734 38.2793 35.6526 38.2437 35.8197 38.1745C35.9869 38.1053 36.1388 38.0039 36.2667 37.8759C36.3947 37.748 36.4961 37.5961 36.5653 37.4289C36.6346 37.2617 36.6701 37.0826 36.6701 36.9016V5.20598C36.6704 4.99145 36.6201 4.77987 36.5234 4.58838C36.7515 4.70251 36.9434 4.87783 37.0776 5.09473C37.2118 5.31163 37.2831 5.56158 37.2834 5.81665Z" fill="#CFD2E8"/>
<path d="M35.8863 38.8793H21.5875C21.1867 38.8787 20.8024 38.719 20.5192 38.4353C20.236 38.1516 20.077 37.7671 20.0771 37.3662V5.96334C20.0775 5.56283 20.2368 5.17884 20.5199 4.89559C20.8031 4.61234 21.187 4.45296 21.5875 4.45239H35.8863C36.2869 4.45282 36.6709 4.61214 36.9542 4.89541C37.2375 5.17867 37.3968 5.56274 37.3972 5.96334V37.3662C37.3974 37.7672 37.2383 38.1518 36.955 38.4355C36.6716 38.7192 36.2872 38.8789 35.8863 38.8793ZM21.5875 4.71906C21.2577 4.71948 20.9415 4.85073 20.7083 5.084C20.4752 5.31727 20.3441 5.63351 20.3438 5.96334V37.3662C20.3441 37.696 20.4752 38.0123 20.7083 38.2455C20.9415 38.4788 21.2577 38.6101 21.5875 38.6105H35.8863C36.2162 38.6101 36.5324 38.4788 36.7656 38.2456C36.9989 38.0123 37.1301 37.6961 37.1306 37.3662V5.96334C37.1301 5.63346 36.9989 5.31722 36.7656 5.08397C36.5324 4.85071 36.2162 4.71948 35.8863 4.71906H21.5875Z" fill="#1B3C47"/>
<path d="M23.4403 4.646H34.107C34.107 5.24008 33.871 5.80984 33.451 6.22993C33.0309 6.65001 32.4611 6.88601 31.867 6.88601H25.6803C25.0862 6.88601 24.5165 6.65001 24.0964 6.22993C23.6763 5.80984 23.4403 5.24008 23.4403 4.646Z" fill="#516582"/>
<path opacity="0.3" d="M23.8669 6.01716C23.9245 6.09231 23.987 6.16358 24.0541 6.23049C24.2618 6.4388 24.5088 6.60399 24.7806 6.71657C25.0524 6.82915 25.3438 6.8869 25.6381 6.8865H31.8248C32.4189 6.8865 32.9886 6.6505 33.4087 6.23041C33.8288 5.81033 34.0648 5.24057 34.0648 4.64648H33.629C33.5352 5.16271 33.2632 5.62962 32.8603 5.96579C32.4575 6.30195 31.9494 6.48605 31.4248 6.48596H25.2381C24.7415 6.48679 24.2589 6.3218 23.8669 6.01716Z" fill="#213144"/>
<path d="M31.83 6.99252H25.6433C25.0141 6.99182 24.4108 6.74154 23.9659 6.2966C23.521 5.85167 23.2707 5.24841 23.27 4.61917V4.48584H34.2034V4.61917C34.2027 5.24841 33.9524 5.85167 33.5075 6.2966C33.0625 6.74154 32.4593 6.99182 31.83 6.99252ZM23.5436 4.75251C23.5781 5.28685 23.8146 5.78806 24.205 6.1545C24.5954 6.52095 25.1106 6.72521 25.646 6.72585H31.8327C32.3682 6.72521 32.8833 6.52095 33.2737 6.1545C33.6642 5.78806 33.9006 5.28685 33.9351 4.75251H23.5436Z" fill="#1B3C47"/>
<path d="M29.9636 5.71271H26.8169C26.7815 5.71271 26.7476 5.69867 26.7226 5.67366C26.6976 5.64866 26.6835 5.61474 26.6835 5.57938C26.6835 5.54402 26.6976 5.5101 26.7226 5.4851C26.7476 5.46009 26.7815 5.44604 26.8169 5.44604H29.9636C29.9989 5.44604 30.0328 5.46009 30.0578 5.4851C30.0828 5.5101 30.0969 5.54402 30.0969 5.57938C30.0969 5.61474 30.0828 5.64866 30.0578 5.67366C30.0328 5.69867 29.9989 5.71271 29.9636 5.71271Z" fill="#1B3C47"/>
<path d="M30.4974 5.71256C30.4887 5.71337 30.48 5.71337 30.4713 5.71256C30.4627 5.71088 30.4543 5.70838 30.4462 5.70509C30.4382 5.70165 30.4306 5.69754 30.4233 5.69283C30.416 5.68804 30.4092 5.6825 30.403 5.67629C30.3905 5.66394 30.3806 5.64924 30.3739 5.63304C30.3671 5.61683 30.3636 5.59945 30.3636 5.58189C30.3636 5.56433 30.3671 5.54695 30.3739 5.53075C30.3806 5.51454 30.3905 5.49984 30.403 5.48749C30.4092 5.48128 30.416 5.47574 30.4233 5.47096C30.4304 5.46604 30.4381 5.46193 30.4462 5.45869C30.4543 5.4554 30.4627 5.4529 30.4713 5.45122C30.4993 5.44573 30.5284 5.44938 30.5542 5.46164C30.58 5.4739 30.6012 5.49413 30.6146 5.51933C30.628 5.54454 30.633 5.5734 30.6288 5.60166C30.6246 5.62992 30.6115 5.65608 30.5913 5.67629C30.5851 5.6825 30.5783 5.68804 30.571 5.69283C30.5637 5.69754 30.5561 5.70165 30.5481 5.70509C30.54 5.70838 30.5316 5.71088 30.523 5.71256C30.5145 5.71335 30.5059 5.71335 30.4974 5.71256Z" fill="#1B3C47"/>
<path d="M11.4135 28.4593C10.6562 28.5126 9.85885 28.6193 9.15004 28.9009C6.91643 29.7894 7.4839 32.5228 7.20016 34.5393L10.0802 34.2193L10.2813 44.061C10.2846 44.224 10.3516 44.3793 10.4679 44.4936C10.5842 44.6079 10.7406 44.6722 10.9037 44.6727H19.8557C20.0213 44.6727 20.1802 44.6069 20.2973 44.4898C20.4144 44.3727 20.4802 44.2138 20.4802 44.0482V42.4327C20.4802 34.7527 22.6136 31.4118 22.6136 31.4118V28.4326L11.4135 28.4593Z" fill="white"/>
<path d="M22.6679 28.3262V31.3054C22.6679 31.3054 20.5345 34.6462 20.5345 42.3263V43.9417C20.5345 44.0238 20.5183 44.1051 20.4869 44.181C20.4554 44.2568 20.4093 44.3257 20.3512 44.3837C20.2931 44.4417 20.2242 44.4877 20.1483 44.519C20.0724 44.5504 19.991 44.5664 19.9089 44.5663H10.9569C10.8287 44.5664 10.7037 44.5271 10.5987 44.4536C10.4937 44.3801 10.4139 44.276 10.3702 44.1556C10.4386 44.1804 10.5108 44.193 10.5835 44.1929H19.5356C19.7012 44.1929 19.8601 44.1271 19.9772 44.01C20.0943 43.8929 20.1601 43.734 20.1601 43.5684V41.9529C20.1601 34.2729 22.2935 30.9321 22.2935 30.9321V28.3272L22.6679 28.3262Z" fill="#CFD2E8"/>
<path d="M20.2904 28.4285C19.14 29.7741 17.4637 30.6461 15.597 30.6461C13.6914 30.6461 15.0312 29.3501 13.8824 27.9736C13.8824 27.9736 13.3607 28.4333 13.5741 27.7325C13.8466 26.8365 17.1741 26.7 17.1741 26.7C17.1741 26.7 18.644 29.0056 20.2904 28.4285Z" fill="#CFD2E8"/>
<path d="M19.7395 44.7528H10.9138C10.6994 44.7516 10.4937 44.667 10.3405 44.5169C10.1873 44.3668 10.0986 44.163 10.093 43.9485L9.89677 34.3149L6.99115 34.6375L7.01462 34.4674C7.08022 34.0018 7.09942 33.5074 7.12128 32.9783C7.18848 31.237 7.25782 29.4364 9.0493 28.7239C9.66103 28.4802 10.3933 28.3372 11.3528 28.2732H11.3586C11.4093 28.2732 12.6077 28.2199 12.9053 26.862C12.9091 26.8449 12.9162 26.8287 12.9262 26.8143C12.9362 26.7999 12.9489 26.7876 12.9637 26.7782C12.9784 26.7687 12.9949 26.7623 13.0122 26.7592C13.0294 26.7561 13.0471 26.7564 13.0643 26.7602C13.0814 26.7639 13.0976 26.771 13.112 26.781C13.1264 26.791 13.1386 26.8038 13.1481 26.8185C13.1576 26.8333 13.164 26.8498 13.1671 26.867C13.1702 26.8843 13.1699 26.902 13.1661 26.9191C12.8333 28.4412 11.4594 28.5351 11.3709 28.5399C10.4402 28.6018 9.7341 28.7394 9.14903 28.9719C7.51862 29.6204 7.45302 31.333 7.38902 32.9895C7.37142 33.4397 7.35382 33.9031 7.30315 34.3351L10.157 34.0173L10.3597 43.9432C10.3636 44.0879 10.4235 44.2255 10.5269 44.3268C10.6303 44.4281 10.7691 44.4852 10.9138 44.4861H19.7395C19.8864 44.486 20.0273 44.4276 20.1312 44.3237C20.2351 44.2198 20.2935 44.0789 20.2936 43.932V42.3795C20.2936 38.396 20.8771 35.5976 21.3667 33.9527C21.9 32.1602 22.427 31.3234 22.4494 31.2861C22.4691 31.2578 22.4989 31.2383 22.5327 31.2315C22.5665 31.2248 22.6016 31.2314 22.6306 31.2499C22.6596 31.2685 22.6803 31.2975 22.6884 31.331C22.6965 31.3645 22.6913 31.3998 22.6739 31.4295C22.6531 31.4626 20.5603 34.8359 20.5603 42.3784V43.9309C20.5604 44.0388 20.5392 44.1456 20.498 44.2453C20.4568 44.345 20.3963 44.4356 20.3201 44.5119C20.2439 44.5882 20.1534 44.6487 20.0538 44.6901C19.9541 44.7314 19.8474 44.7527 19.7395 44.7528Z" fill="#1B3C47"/>
<path d="M20.2585 28.6845C18.8841 28.6845 17.7822 27.4978 17.7683 27.4824C17.7445 27.4562 17.732 27.4216 17.7337 27.3863C17.7353 27.3509 17.7509 27.3177 17.7771 27.2938C17.8033 27.27 17.8378 27.2575 17.8732 27.2592C17.9086 27.2608 17.9418 27.2765 17.9656 27.3026C17.9811 27.3202 19.5721 29.0296 21.219 28.181C21.2502 28.1665 21.2858 28.1647 21.3184 28.1758C21.3509 28.1869 21.3779 28.2102 21.3937 28.2408C21.4095 28.2714 21.4128 28.3069 21.403 28.3399C21.3932 28.3729 21.371 28.4008 21.3411 28.4178C21.007 28.5927 20.6356 28.6842 20.2585 28.6845Z" fill="#1B3C47"/>
<path d="M19.1862 12.0822C18.1896 11.2597 16.966 10.7606 15.6785 10.6513C15.6097 10.6449 15.5398 10.639 15.4699 10.6347C15.3819 10.6294 15.2929 10.6257 15.2033 10.6235C15.1499 10.6235 15.0966 10.6235 15.0401 10.6235C14.9835 10.6235 14.9307 10.6235 14.8769 10.6235C14.823 10.6235 14.7803 10.6235 14.7323 10.6283H14.6881C14.6395 10.6283 14.591 10.6337 14.5425 10.6369H14.5206C14.4726 10.6406 14.4246 10.6443 14.3766 10.6491H14.3627C14.3275 10.6523 14.2923 10.6561 14.2561 10.6603C14.1899 10.6678 14.1243 10.6758 14.0593 10.6849L14.0139 10.6918C13.9777 10.6971 13.9414 10.7025 13.9073 10.7089L13.8395 10.7201L13.7297 10.7403L13.6726 10.7515C13.6401 10.7579 13.6081 10.7643 13.5761 10.7718L13.4929 10.7905C13.4651 10.7963 13.4395 10.8027 13.4102 10.8102L13.343 10.8267C13.3307 10.8294 13.3179 10.8326 13.3057 10.8363C11.0769 11.4182 9.38138 13.102 8.66031 15.2017C8.65551 15.215 8.65071 15.2284 8.64697 15.2417C8.48884 15.7134 8.38157 16.2006 8.32697 16.695C8.23753 17.4933 8.28369 18.301 8.46351 19.0839C8.47044 19.1164 8.47844 19.1484 8.48644 19.1809C8.49657 19.2247 8.50777 19.2689 8.51951 19.3127C8.53337 19.366 8.54777 19.4193 8.56271 19.4727L8.78777 20.5127L8.85071 20.7996L9.04004 21.662L9.18031 21.6577L9.28698 21.654L9.76698 21.6391L14.3467 21.4961H14.3718L15.6689 21.4556L20.983 21.2897L21.3159 19.8135L21.3788 19.5345L21.4529 19.2055C21.4615 19.1671 21.47 19.1281 21.478 19.0897C21.4958 19.0065 21.5118 18.9233 21.526 18.8401C21.7927 17.3201 21.8641 15.7244 21.2972 14.4396C20.8769 13.479 19.9814 12.7403 19.1862 12.0822ZM13.8833 19.9484L13.8715 19.9532C13.8888 19.8411 13.8974 19.7279 13.8971 19.6145C13.898 19.4372 13.8762 19.2604 13.8321 19.0887C13.8127 19.0135 13.7879 18.9399 13.7579 18.8684C13.8803 18.8867 13.9932 18.9449 14.0792 19.0338C14.1652 19.1227 14.2196 19.2375 14.2338 19.3604C14.2481 19.4833 14.2215 19.6075 14.1581 19.7138C14.0948 19.8201 13.9982 19.9025 13.8833 19.9484Z" fill="#B0D7E9"/>
<path d="M9.51697 22.7955L8.67483 20.3816C8.66577 20.3565 8.65617 20.3283 8.6471 20.3032L8.6359 20.2723C8.53122 19.9695 8.44221 19.6615 8.36923 19.3496C8.3591 19.3064 8.34896 19.2632 8.3399 19.2189C8.33243 19.1875 8.32496 19.1539 8.31856 19.1197C8.13371 18.2513 8.09639 17.3579 8.20816 16.477V16.4669C8.2644 16.0369 8.35973 15.6129 8.49296 15.2002C8.49776 15.1842 8.5031 15.1682 8.50896 15.1528C8.86253 14.0693 9.48323 13.0923 10.3138 12.3118C11.1444 11.5314 12.1581 10.9726 13.2615 10.6871C13.2761 10.6829 13.2905 10.6791 13.3047 10.6759L13.3725 10.6594C13.3981 10.6525 13.4285 10.6455 13.4589 10.6391L13.5421 10.6199C13.5725 10.613 13.6061 10.6061 13.6407 10.5997L13.6983 10.5879L13.8114 10.5671L13.8343 10.5634L13.8834 10.5554C13.9154 10.5495 13.9533 10.5442 13.9901 10.5383H14.0087L14.0365 10.5341C14.1026 10.525 14.1698 10.5165 14.237 10.509C14.2722 10.5047 14.309 10.5005 14.3437 10.4973H14.3613L14.5037 10.4855H14.5261C14.5794 10.4818 14.6269 10.4786 14.6765 10.4765H14.7223C14.7698 10.4765 14.8189 10.4727 14.869 10.4717H15.2018C15.2935 10.4717 15.3853 10.4775 15.4749 10.4834C17.524 10.6125 19.364 11.7101 20.5245 13.4952C20.6168 13.6365 20.7784 13.7432 20.9512 13.8557C21.1826 14.0077 21.4221 14.165 21.5346 14.436C22.0445 15.6626 21.908 17.2909 21.685 18.8701C21.6749 18.9459 21.6621 19.0301 21.6456 19.1245C21.6226 19.2547 21.5976 19.3821 21.5698 19.5043L21.517 21.4317L21.3394 21.4525L9.51697 22.7955ZM8.52763 16.4984V16.5091C8.41943 17.3581 8.4555 18.2193 8.6343 19.0563C8.6407 19.0888 8.6471 19.1192 8.65403 19.1501C8.66363 19.1939 8.6727 19.2349 8.68283 19.2765C8.75374 19.5775 8.84026 19.8747 8.94203 20.1667L8.9527 20.1971L8.9799 20.2744L9.73564 22.4488L21.2024 21.1459L21.252 19.4552L21.2557 19.4397C21.2829 19.3187 21.309 19.1912 21.3309 19.0616C21.3469 18.9704 21.3592 18.8904 21.3693 18.8179C21.5858 17.2824 21.7202 15.7037 21.2402 14.5512C21.1656 14.3709 20.9768 14.2472 20.7768 14.1154C20.5853 13.9896 20.3869 13.86 20.2589 13.6626C19.1389 11.9384 17.4322 10.9202 15.4589 10.7954C15.3735 10.7906 15.2855 10.7869 15.1986 10.7847C15.0919 10.7847 14.9853 10.7847 14.8786 10.7847C14.8317 10.7847 14.7847 10.7863 14.7378 10.7895H14.6983L14.5517 10.7981H14.5314C14.4845 10.8018 14.4381 10.8055 14.3911 10.8103H14.3757C14.3421 10.8135 14.309 10.8167 14.2759 10.821C14.2093 10.8285 14.1453 10.8365 14.0813 10.845L14.0365 10.8519L13.9341 10.8679L13.8882 10.8754L13.8642 10.8797C13.8295 10.8855 13.7938 10.8925 13.7575 10.8994L13.7015 10.9101C13.6706 10.9165 13.6402 10.9223 13.6103 10.9293L13.5266 10.9479C13.4989 10.9538 13.4733 10.9597 13.4493 10.9666L13.381 10.9832H13.3751C13.3666 10.9847 13.3583 10.9869 13.3501 10.9895H13.3431C12.2904 11.2617 11.3232 11.7948 10.5308 12.5395C9.73851 13.2842 9.1466 14.2165 8.80977 15.2504C8.80497 15.2642 8.80123 15.2738 8.79857 15.2834V15.2893C8.67197 15.6833 8.58129 16.088 8.52763 16.4984ZM13.6653 20.2173L13.7138 19.9283C13.7296 19.8245 13.7375 19.7197 13.7373 19.6147C13.738 19.451 13.718 19.2879 13.6775 19.1293C13.6601 19.0617 13.6378 18.9954 13.6109 18.9309L13.4994 18.6685L13.7815 18.7101C13.9389 18.7331 14.0842 18.8072 14.1952 18.9211C14.3061 19.035 14.3765 19.1823 14.3953 19.3401C14.4141 19.498 14.3804 19.6577 14.2993 19.7945C14.2183 19.9313 14.0944 20.0375 13.9469 20.0968L13.9319 20.1032L13.6653 20.2173ZM14.0253 19.2259C14.0437 19.3352 14.0542 19.4457 14.0567 19.5565C14.0709 19.5144 14.0781 19.4703 14.0781 19.4259C14.0782 19.3557 14.06 19.2868 14.0253 19.2259Z" fill="#1B3C47"/>
<path d="M12.2722 28.1287L12.2978 28.0989C12.29 28.1191 12.2826 28.1394 12.2754 28.1597C12.2728 28.1394 12.2722 28.1287 12.2722 28.1287Z" fill="#C0E5F2"/>
<path d="M9.48349 18.2445C9.44813 18.2445 9.41422 18.2304 9.38921 18.2054C9.36421 18.1804 9.35016 18.1465 9.35016 18.1111V16.5127C9.35016 16.4774 9.36421 16.4435 9.38921 16.4184C9.41422 16.3934 9.44813 16.3794 9.48349 16.3794C9.51886 16.3794 9.55277 16.3934 9.57777 16.4184C9.60278 16.4435 9.61683 16.4774 9.61683 16.5127V18.1127C9.61641 18.1478 9.60217 18.1813 9.57721 18.206C9.55225 18.2306 9.51858 18.2445 9.48349 18.2445Z" fill="#1B3C47"/>
<path d="M9.48349 15.9153C9.44813 15.9153 9.41422 15.9013 9.38921 15.8763C9.36421 15.8513 9.35016 15.8173 9.35016 15.782V15.1841C9.35016 15.1488 9.36421 15.1148 9.38921 15.0898C9.41422 15.0648 9.44813 15.0508 9.48349 15.0508C9.51886 15.0508 9.55277 15.0648 9.57777 15.0898C9.60278 15.1148 9.61683 15.1488 9.61683 15.1841V15.782C9.61683 15.8173 9.60278 15.8513 9.57777 15.8763C9.55277 15.9013 9.51886 15.9153 9.48349 15.9153Z" fill="#1B3C47"/>
<path d="M15.8588 13.8199C16.5771 13.9737 17.2515 14.2872 17.8321 14.7372C17.9953 14.8631 18.1548 14.5852 17.9921 14.461C17.3878 13.9952 16.687 13.6707 15.9409 13.5111C15.7398 13.4684 15.6545 13.7778 15.8556 13.8199H15.8588Z" fill="white"/>
<path d="M22.9255 20.2086V20.6006C22.9255 20.8977 22.8075 21.1826 22.5974 21.3926C22.3874 21.6026 22.1025 21.7206 21.8055 21.7206H8.13017C8.11969 21.7212 8.10919 21.7212 8.0987 21.7206C7.88697 21.7155 7.68115 21.6498 7.50563 21.5313C7.35299 21.4288 7.22795 21.2902 7.14154 21.1279C7.05512 20.9656 7.01001 20.7845 7.01016 20.6006V20.2086C7.01016 19.9116 7.12816 19.6267 7.33821 19.4167C7.54825 19.2066 7.83313 19.0886 8.13017 19.0886H13.8321C13.8762 19.2604 13.898 19.4371 13.8971 19.6145C13.8974 19.7279 13.8888 19.8411 13.8715 19.9532L13.8833 19.9484C13.9635 19.9164 14.0354 19.8665 14.0932 19.8023C14.151 19.7381 14.1933 19.6615 14.2168 19.5784C14.2403 19.4953 14.2443 19.4078 14.2285 19.3229C14.2128 19.238 14.1777 19.1578 14.1259 19.0886H21.806C22.1029 19.0888 22.3877 19.2068 22.5976 19.4169C22.8075 19.6269 22.9255 19.9117 22.9255 20.2086Z" fill="#F4CEAE"/>
<path opacity="0.5" d="M22.8003 20.4786C22.8005 20.6514 22.7665 20.8226 22.7005 20.9823C22.6344 21.142 22.5374 21.2871 22.4152 21.4093C22.3655 21.4588 22.312 21.5045 22.2552 21.5458C22.3077 21.2842 22.3078 21.0148 22.2557 20.7531C22.2035 20.4914 22.1001 20.2427 21.9514 20.0212C21.8026 19.7996 21.6115 19.6097 21.3891 19.4624C21.1666 19.3151 20.9172 19.2133 20.6552 19.1628H21.4861C21.8348 19.1633 22.1691 19.3021 22.4155 19.5488C22.6619 19.7955 22.8003 20.1299 22.8003 20.4786Z" fill="#CC6F65"/>
<path d="M8.20225 19.5629C7.90509 19.8595 7.73604 20.2608 7.73135 20.6807C7.72666 21.1005 7.88672 21.5055 8.17718 21.8087C7.84345 21.7705 7.53696 21.6061 7.32053 21.3492C7.1041 21.0923 6.99414 20.7624 7.01316 20.427C7.03219 20.0916 7.17877 19.7762 7.42286 19.5455C7.66695 19.3147 7.99007 19.186 8.32599 19.1858H8.79532C8.57228 19.2663 8.36976 19.395 8.20225 19.5629Z" fill="#FCDFCA"/>
<path d="M21.6099 21.8806H8.32611C8.23324 21.8805 8.14057 21.8718 8.04931 21.8545C7.7217 21.7906 7.42518 21.6182 7.20764 21.365C6.9901 21.1119 6.86423 20.7928 6.85037 20.4593C6.85037 20.4412 6.85037 20.4225 6.85037 20.406C6.85051 20.0145 7.00609 19.6391 7.28292 19.3622C7.55974 19.0854 7.93516 18.9298 8.32665 18.9297H21.6099C22.0012 18.9303 22.3764 19.086 22.653 19.3627C22.9297 19.6395 23.0853 20.0147 23.0857 20.406C23.0854 20.7973 22.9298 21.1725 22.6531 21.4492C22.3764 21.7259 22.0012 21.8814 21.6099 21.8817V21.8806ZM8.32611 19.2486C8.17423 19.2487 8.02384 19.2787 7.88355 19.3369C7.74325 19.3951 7.6158 19.4804 7.50847 19.5879C7.40115 19.6953 7.31605 19.8229 7.25803 19.9633C7.20002 20.1036 7.17023 20.2541 7.17037 20.406V20.4492C7.18128 20.7102 7.27985 20.9599 7.45017 21.158C7.62049 21.3561 7.85261 21.491 8.10905 21.5409C8.18039 21.5548 8.2529 21.5617 8.32558 21.5617H21.6099C21.9122 21.5552 22.1999 21.4306 22.4114 21.2145C22.6229 20.9984 22.7414 20.7081 22.7414 20.4057C22.7414 20.1033 22.6229 19.813 22.4114 19.5969C22.1999 19.3808 21.9122 19.2562 21.6099 19.2497H14.3763C14.4188 19.4188 14.3988 19.5976 14.3199 19.7532C14.241 19.9087 14.1085 20.0305 13.9469 20.0961L13.932 20.1025L13.6653 20.2182L13.7139 19.9292C13.7297 19.8254 13.7375 19.7205 13.7373 19.6156C13.7376 19.4928 13.7266 19.3704 13.7043 19.2497L8.32611 19.2486ZM14.0254 19.2257C14.0438 19.335 14.0543 19.4455 14.0568 19.5564C14.071 19.5142 14.0782 19.4701 14.0782 19.4257C14.0783 19.3556 14.0601 19.2866 14.0254 19.2257Z" fill="#1B3C47"/>
<path d="M19.5474 13.5862C18.9662 13.0035 18.2756 12.5414 17.5153 12.2265C16.755 11.9115 15.9399 11.7499 15.117 11.751H15.086C13.4294 11.7583 11.8431 12.4218 10.6746 13.5961C9.50607 14.7704 8.85046 16.36 8.85132 18.0166V22.4028C8.85353 23.8707 9.35749 25.2937 10.2796 26.4359L10.2823 26.4391C11.4316 27.8663 13.1708 28.7938 15.117 28.7938C18.5778 28.7938 21.3831 25.8007 21.3831 22.3404V18.0172C21.3841 17.1941 21.2224 16.3789 20.9074 15.6185C20.5924 14.8581 20.1302 14.1674 19.5474 13.5862ZM14.238 19.3878C14.238 19.5004 14.2042 19.6104 14.1409 19.7036C14.0777 19.7968 13.988 19.8689 13.8834 19.9105L13.8716 19.9153C13.8889 19.8032 13.8975 19.69 13.8972 19.5766C13.8981 19.3993 13.8762 19.2225 13.8322 19.0508C13.8128 18.9757 13.788 18.902 13.758 18.8305C13.8915 18.8505 14.0134 18.9178 14.1014 19.0201C14.1895 19.1224 14.238 19.2529 14.238 19.3878Z" fill="#F4CEAE"/>
<path opacity="0.5" d="M21.3677 18.0982V22.4219C21.3677 25.8827 18.5629 28.8753 15.1021 28.8753C14.9655 28.8753 14.8297 28.8708 14.6946 28.862C17.9656 28.6524 20.5533 25.7457 20.5533 22.4214V18.0982C20.5532 16.5069 19.9476 14.9752 18.8596 13.814C17.7716 12.6527 16.2825 11.9489 14.6946 11.8453C14.8294 11.8368 14.9652 11.8325 15.1021 11.8325C16.7638 11.8325 18.3575 12.4926 19.5326 13.6677C20.7076 14.8427 21.3677 16.4364 21.3677 18.0982Z" fill="#CC6F65"/>
<path d="M14.2711 28.8151C14.1458 28.8268 14.0194 28.6722 13.8925 28.6722C11.1026 28.6722 8.84125 25.542 8.84125 22.1692V17.9558C8.84125 14.583 11.1026 11.8491 13.8925 11.8491C14.0194 11.8491 14.1458 11.8545 14.2711 11.8662C11.6578 12.0998 9.21458 14.6305 9.21458 17.8492L9.24125 22.6257C9.24125 25.846 11.6589 28.5815 14.2711 28.8151Z" fill="#FCEADE"/>
<path d="M9.94909 26.4237C9.92362 26.4236 9.89852 26.4175 9.87589 26.4058C9.85325 26.3942 9.83373 26.3772 9.81896 26.3565C9.71229 26.2093 9.61416 26.0557 9.52189 25.9005C9.51074 25.8824 9.5033 25.8623 9.50001 25.8413C9.49672 25.8203 9.49764 25.7989 9.50272 25.7782C9.5078 25.7576 9.51694 25.7382 9.5296 25.7211C9.54226 25.7041 9.55819 25.6897 9.57647 25.6789C9.59474 25.668 9.61499 25.6609 9.63603 25.658C9.65707 25.6551 9.67849 25.6564 9.69902 25.6618C9.71956 25.6673 9.73881 25.6767 9.75565 25.6897C9.77249 25.7026 9.78657 25.7188 9.79709 25.7373C9.88456 25.885 9.97949 26.0306 10.0792 26.1703C10.0915 26.1875 10.1002 26.2068 10.105 26.2273C10.1097 26.2478 10.1104 26.2691 10.1069 26.2898C10.1035 26.3106 10.0959 26.3305 10.0848 26.3483C10.0736 26.3661 10.059 26.3816 10.0419 26.3938C10.0148 26.4132 9.98238 26.4236 9.94909 26.4237Z" fill="#1B3C47"/>
<path d="M9.24535 25.1442C9.21352 25.1442 9.18241 25.1347 9.156 25.117C9.12959 25.0992 9.10907 25.0739 9.09708 25.0445C8.78647 24.2771 8.6271 23.4569 8.62775 22.629V18.0551C8.62811 16.5498 9.15658 15.0923 10.1211 13.9367C10.3572 13.6532 10.6176 13.3909 10.8992 13.1526L10.9163 13.1382C12.0747 12.1636 13.54 11.6291 15.0539 11.6289H15.0897C16.7878 11.6382 18.4132 12.3194 19.6105 13.5236C20.8079 14.7277 21.4799 16.3569 21.4796 18.0551V22.629C21.48 23.1168 21.4249 23.6032 21.3153 24.0786C21.3045 24.1186 21.2785 24.1529 21.243 24.1741C21.2074 24.1954 21.1649 24.2021 21.1246 24.1927C21.0842 24.1832 21.049 24.1585 21.0265 24.1237C21.004 24.0889 20.9959 24.0467 21.0038 24.0061C21.1077 23.5544 21.16 23.0924 21.1596 22.629V18.0551C21.1599 16.441 20.5209 14.8925 19.3825 13.7483C18.2441 12.6041 16.6989 11.9573 15.0849 11.9494H15.0539C13.6133 11.95 12.2192 12.4601 11.1184 13.3895L11.1094 13.3969C10.8408 13.6237 10.5925 13.8735 10.3675 14.1436C9.45069 15.2417 8.94825 16.6267 8.94775 18.0572V22.6311C8.94798 23.4171 9.09935 24.1957 9.39362 24.9245C9.4035 24.9488 9.40725 24.9751 9.40455 25.0012C9.40185 25.0273 9.39278 25.0523 9.37814 25.0741C9.36349 25.0958 9.34372 25.1137 9.32056 25.126C9.29741 25.1383 9.27158 25.1447 9.24535 25.1447V25.1442Z" fill="#1B3C47"/>
<path d="M8.1218 20.9613C8.10453 20.9611 8.08757 20.9567 8.07236 20.9485C8.05716 20.9404 8.04417 20.9286 8.03452 20.9143C8.02487 20.8999 8.01884 20.8835 8.01695 20.8663C8.01506 20.8492 8.01736 20.8318 8.02367 20.8157C8.07837 20.6689 8.09277 20.5101 8.06539 20.3558C8.038 20.2015 7.96983 20.0574 7.86793 19.9384C7.85796 19.928 7.85019 19.9157 7.8451 19.9022C7.84 19.8888 7.83769 19.8744 7.83829 19.86C7.83889 19.8456 7.8424 19.8315 7.84861 19.8185C7.85481 19.8055 7.86359 19.7939 7.8744 19.7844C7.88521 19.7749 7.89783 19.7677 7.91151 19.7632C7.92518 19.7587 7.93963 19.757 7.95398 19.7582C7.96832 19.7594 7.98227 19.7636 7.99498 19.7703C8.00769 19.7771 8.0189 19.7864 8.02794 19.7976C8.15511 19.9462 8.24022 20.1262 8.27445 20.3188C8.30867 20.5114 8.29078 20.7097 8.2226 20.893C8.21477 20.9133 8.20092 20.9308 8.1829 20.943C8.16488 20.9552 8.14356 20.9616 8.1218 20.9613Z" fill="#1B3C47"/>
<path d="M7.53623 20.5724C7.51642 20.5724 7.49701 20.5669 7.48015 20.5565C7.4633 20.5461 7.44969 20.5312 7.44083 20.5135C7.43197 20.4958 7.42822 20.4759 7.43 20.4562C7.43178 20.4365 7.43901 20.4176 7.4509 20.4018C7.52457 20.3048 7.62258 20.2291 7.73498 20.1822C7.84739 20.1354 7.97018 20.1191 8.0909 20.1351C8.10491 20.1371 8.11839 20.1418 8.13059 20.1489C8.14278 20.1561 8.15344 20.1656 8.16195 20.1769C8.17047 20.1882 8.17668 20.2011 8.18023 20.2148C8.18378 20.2284 8.1846 20.2427 8.18264 20.2567C8.18068 20.2707 8.17597 20.2842 8.1688 20.2964C8.16163 20.3086 8.15213 20.3192 8.14084 20.3278C8.12954 20.3363 8.11668 20.3425 8.10299 20.346C8.0893 20.3496 8.07504 20.3504 8.06104 20.3484C7.9779 20.3379 7.89344 20.3492 7.81606 20.3814C7.73868 20.4136 7.67107 20.4655 7.61997 20.5319C7.60998 20.5446 7.59725 20.5548 7.58275 20.5618C7.56825 20.5688 7.55234 20.5724 7.53623 20.5724Z" fill="#1B3C47"/>
<path d="M21.9037 20.9735C21.8821 20.9736 21.861 20.9671 21.8432 20.9549C21.8254 20.9427 21.8117 20.9254 21.8039 20.9052C21.7354 20.722 21.7172 20.5238 21.7512 20.3312C21.7851 20.1386 21.87 19.9585 21.997 19.8098C22.006 19.7986 22.0172 19.7893 22.03 19.7825C22.0427 19.7758 22.0566 19.7716 22.071 19.7704C22.0853 19.7692 22.0998 19.7709 22.1134 19.7754C22.1271 19.7799 22.1397 19.7871 22.1505 19.7966C22.1613 19.8061 22.1701 19.8177 22.1763 19.8307C22.1825 19.8437 22.186 19.8578 22.1866 19.8722C22.1872 19.8866 22.1849 19.901 22.1798 19.9144C22.1747 19.9279 22.167 19.9402 22.157 19.9506C22.055 20.0696 21.9867 20.2137 21.9593 20.3679C21.9318 20.5222 21.9461 20.681 22.0007 20.8279C22.0112 20.8538 22.0111 20.8828 22.0004 20.9086C21.9898 20.9345 21.9694 20.9551 21.9437 20.9661C21.9309 20.9711 21.9174 20.9736 21.9037 20.9735Z" fill="#1B3C47"/>
<path d="M22.4893 20.5847C22.4727 20.5847 22.4562 20.5809 22.4413 20.5735C22.4264 20.5661 22.4134 20.5553 22.4034 20.542C22.3524 20.4755 22.2848 20.4235 22.2074 20.3912C22.13 20.3589 22.0455 20.3475 21.9624 20.358C21.9341 20.362 21.9054 20.3545 21.8826 20.3373C21.8598 20.3201 21.8447 20.2946 21.8408 20.2663C21.8368 20.238 21.8442 20.2093 21.8614 20.1865C21.8786 20.1637 21.9042 20.1486 21.9325 20.1447C22.0532 20.129 22.1759 20.1454 22.2882 20.1922C22.4006 20.2391 22.4986 20.3146 22.5725 20.4113C22.5844 20.4272 22.5916 20.446 22.5934 20.4657C22.5952 20.4855 22.5914 20.5053 22.5826 20.523C22.5737 20.5407 22.5601 20.5557 22.5432 20.5661C22.5264 20.5765 22.507 20.582 22.4872 20.582L22.4893 20.5847Z" fill="#1B3C47"/>
<path d="M11.8269 27.5112L11.8568 27.4766C11.8477 27.5 11.8386 27.5235 11.8306 27.5475C11.8274 27.524 11.8269 27.5112 11.8269 27.5112Z" fill="#C0E5F2"/>
<path d="M15.675 21.4012C15.6768 21.5794 15.6079 21.751 15.4833 21.8784C15.3587 22.0058 15.1886 22.0786 15.0104 22.0807C14.6424 22.0807 14.3448 21.6508 14.3448 21.2759L15.675 21.4012Z" fill="#F4CEAE"/>
<path d="M19.8792 15.286C19.3862 14.3153 18.6491 13.4896 17.7404 12.89C16.8316 12.2904 15.7825 11.9376 14.6962 11.8662C14.5591 11.8753 14.4237 11.8886 14.2887 11.9057C15.4638 12.0588 16.5709 12.5432 17.4807 13.3025L17.6871 13.4822C17.7613 13.5494 17.8343 13.6177 17.9047 13.6886C18.3354 14.1188 18.7012 14.6092 18.9906 15.1446C17.5607 14.743 16.6674 13.6422 16.6674 13.6422C15.5474 14.6022 16.7207 15.0822 16.7207 15.0822L15.6007 15.5089C13.1474 16.0422 13.0407 13.3756 13.0407 13.3756L11.3426 14.5084L9.68069 15.2422C11.4407 15.5089 12.774 13.9622 12.774 13.9622C12.774 14.4956 12.717 15.3046 14.1607 15.8822C15.7607 16.5222 17.3607 15.0822 17.3607 15.0822C16.5074 14.8156 16.6674 14.2822 16.6674 14.2289C17.365 15.0908 18.6306 15.415 19.1768 15.5196C19.5493 16.3355 19.7416 17.2221 19.7405 18.1191V22.4428C19.7405 25.6279 17.365 28.445 14.2887 28.8429C14.4237 28.8605 14.5591 28.8738 14.6962 28.8823C17.9671 28.6727 20.557 25.7026 20.557 22.3793V18.1175C20.5629 17.1606 20.3496 16.0406 19.8957 15.2092" fill="#FFB594"/>
<path d="M14.3202 20.166L15.0135 19.1526L14.4269 18.4593C14.4269 18.4593 13.5735 18.246 13.5202 18.3526C13.4669 18.4593 13.1469 19.5793 13.1469 19.5793L13.6269 20.5926L14.3202 20.166Z" fill="#F4CEAE"/>
<path d="M18.8738 19.9617C18.8738 19.24 18.2888 18.655 17.5672 18.655C16.8455 18.655 16.2605 19.24 16.2605 19.9617V20.406C16.2605 21.1276 16.8455 21.7126 17.5672 21.7126C18.2888 21.7126 18.8738 21.1276 18.8738 20.406V19.9617Z" fill="white"/>
<path d="M17.5677 20.8855C17.9206 20.8855 18.2066 20.5995 18.2066 20.2466C18.2066 19.8937 17.9206 19.6077 17.5677 19.6077C17.2148 19.6077 16.9288 19.8937 16.9288 20.2466C16.9288 20.5995 17.2148 20.8855 17.5677 20.8855Z" fill="#274B5B"/>
<path d="M17.3849 19.9731C17.637 19.9731 17.8414 19.7687 17.8414 19.5166C17.8414 19.2645 17.637 19.0601 17.3849 19.0601C17.1327 19.0601 16.9283 19.2645 16.9283 19.5166C16.9283 19.7687 17.1327 19.9731 17.3849 19.9731Z" fill="white"/>
<path d="M17.709 20.7518C17.7962 20.7518 17.8669 20.6811 17.8669 20.5939C17.8669 20.5067 17.7962 20.436 17.709 20.436C17.6218 20.436 17.5511 20.5067 17.5511 20.5939C17.5511 20.6811 17.6218 20.7518 17.709 20.7518Z" fill="white"/>
<path d="M13.7539 19.9617C13.7539 19.24 13.1689 18.655 12.4472 18.655C11.7256 18.655 11.1405 19.24 11.1405 19.9617V20.406C11.1405 21.1276 11.7256 21.7126 12.4472 21.7126C13.1689 21.7126 13.7539 21.1276 13.7539 20.406V19.9617Z" fill="white"/>
<path d="M12.4471 21.9352C12.0652 21.9352 11.699 21.7834 11.4289 21.5134C11.1589 21.2433 11.0071 20.8771 11.0071 20.4952C11.0071 20.4598 11.0212 20.4259 11.0462 20.4009C11.0712 20.3759 11.1051 20.3618 11.1405 20.3618C11.1758 20.3618 11.2098 20.3759 11.2348 20.4009C11.2598 20.4259 11.2738 20.4598 11.2738 20.4952C11.2738 20.8063 11.3974 21.1048 11.6175 21.3248C11.8375 21.5449 12.136 21.6685 12.4471 21.6685C12.7583 21.6685 13.0568 21.5449 13.2768 21.3248C13.4969 21.1048 13.6205 20.8063 13.6205 20.4952C13.6205 20.4598 13.6345 20.4259 13.6595 20.4009C13.6845 20.3759 13.7185 20.3618 13.7538 20.3618C13.7892 20.3618 13.8231 20.3759 13.8481 20.4009C13.8731 20.4259 13.8872 20.4598 13.8872 20.4952C13.8872 20.8771 13.7354 21.2433 13.4654 21.5134C13.1953 21.7834 12.8291 21.9352 12.4471 21.9352Z" fill="#1B3C47"/>
<path d="M17.5671 21.9352C17.1852 21.9352 16.819 21.7834 16.5489 21.5134C16.2789 21.2433 16.1271 20.8771 16.1271 20.4952C16.1271 20.4598 16.1412 20.4259 16.1662 20.4009C16.1912 20.3759 16.2251 20.3618 16.2605 20.3618C16.2958 20.3618 16.3297 20.3759 16.3548 20.4009C16.3798 20.4259 16.3938 20.4598 16.3938 20.4952C16.3938 20.8063 16.5174 21.1048 16.7375 21.3248C16.9575 21.5449 17.256 21.6685 17.5671 21.6685C17.8783 21.6685 18.1768 21.5449 18.3968 21.3248C18.6169 21.1048 18.7405 20.8063 18.7405 20.4952C18.7405 20.4598 18.7545 20.4259 18.7795 20.4009C18.8045 20.3759 18.8385 20.3618 18.8738 20.3618C18.9092 20.3618 18.9431 20.3759 18.9681 20.4009C18.9931 20.4259 19.0072 20.4598 19.0072 20.4952C19.0072 20.8771 18.8554 21.2433 18.5854 21.5134C18.3153 21.7834 17.9491 21.9352 17.5671 21.9352Z" fill="#1B3C47"/>
<path d="M12.3942 20.8855C12.7471 20.8855 13.0332 20.5995 13.0332 20.2466C13.0332 19.8937 12.7471 19.6077 12.3942 19.6077C12.0413 19.6077 11.7553 19.8937 11.7553 20.2466C11.7553 20.5995 12.0413 20.8855 12.3942 20.8855Z" fill="#274B5B"/>
<path d="M12.2114 19.9731C12.4635 19.9731 12.6679 19.7687 12.6679 19.5166C12.6679 19.2645 12.4635 19.0601 12.2114 19.0601C11.9593 19.0601 11.7549 19.2645 11.7549 19.5166C11.7549 19.7687 11.9593 19.9731 12.2114 19.9731Z" fill="white"/>
<path d="M12.5358 20.7518C12.623 20.7518 12.6936 20.6811 12.6936 20.5939C12.6936 20.5067 12.623 20.436 12.5358 20.436C12.4486 20.436 12.3779 20.5067 12.3779 20.5939C12.3779 20.6811 12.4486 20.7518 12.5358 20.7518Z" fill="white"/>
<path d="M9.30687 15.2593L11.7336 14.3579C12.5463 13.8498 13.275 13.2182 13.8936 12.4859L13.1629 13.1259C13.5485 12.9051 12.6722 13.4993 13.0402 13.2859C12.6136 14.6726 14.4802 16.5926 16.6936 15.1259C16.6936 15.1259 15.9053 14.4817 16.6744 13.7121C16.6744 13.7121 18.4536 16.0326 22.0269 14.9126C22.0269 14.9126 21.6003 12.1393 19.0936 11.4992L20.8536 10.8592C20.8536 10.8592 17.7069 7.76589 14.4536 9.8459V9.85124C14.3512 9.7486 14.2217 9.67735 14.0802 9.6459C14.0802 9.6459 14.0802 10.4667 13.6696 10.7408C13.6696 10.7408 11.3431 8.91577 8.469 10.9232C8.469 10.9232 9.79221 11.0598 9.79221 11.6987C9.79221 11.6987 7.60233 12.4742 7.60233 15.2571L8.72233 15.1505" fill="#B0D7E9"/>
<path d="M14.6935 10.1393C14.6935 10.1393 16.7735 8.53925 19.6002 10.6193C19.6002 10.6193 19.8668 10.7793 19.8135 10.7793C19.7602 10.7793 17.4668 11.6326 17.4668 11.6326C17.4668 11.6326 20.9335 11.7926 21.4669 14.886H21.9469C21.9469 14.886 21.5202 11.8993 18.9602 11.5259L20.8802 10.8859C20.8802 10.8859 18.3735 8.21924 14.9601 9.49925L14.5335 9.65925L14.6935 10.1393Z" fill="#E1F4F9"/>
<path d="M13.5736 10.7792C13.5736 10.7792 11.1736 9.71255 9.30691 10.7792C9.30691 10.7792 10.2669 10.9926 10.0536 11.9526C10.0536 11.9526 7.65356 12.9126 7.97356 15.2059L7.49356 15.2593C7.49356 15.2593 7.49356 12.7526 9.62691 11.6326L8.29357 10.8859C8.29357 10.8859 10.9602 9.07255 13.1469 10.5659L13.5736 10.7792Z" fill="#E1F4F9"/>
<path d="M8.72015 15.4194L7.38681 15.4167V15.2567C7.38681 13.7634 8.00815 12.8359 8.52922 12.3202C8.82803 12.0223 9.17609 11.7784 9.55802 11.5991C9.43109 11.2647 8.67695 11.1106 8.39695 11.0818L7.97028 11.0375L8.32228 10.7916C9.85456 9.72175 11.2364 9.72815 12.126 9.92229C12.6527 10.0355 13.154 10.2447 13.605 10.5394C13.8157 10.3084 13.8647 9.83055 13.8647 9.64709V9.44922L14.0583 9.49029C14.7965 9.65029 14.9522 10.6306 14.9586 10.6727C14.9649 10.7147 14.9542 10.7575 14.929 10.7917C14.9037 10.8258 14.8659 10.8485 14.8239 10.8548C14.7819 10.8611 14.7391 10.8505 14.705 10.8252C14.6708 10.8 14.6481 10.7622 14.6418 10.7202C14.6418 10.7074 14.5415 10.1036 14.1709 9.87589C14.1399 10.1682 14.0375 10.6519 13.7031 10.8748L13.6066 10.9394L13.517 10.8668C13.0746 10.5574 12.5737 10.3417 12.045 10.2327C10.9628 10.0002 9.88709 10.2034 8.84495 10.8354C9.28229 10.9388 9.90043 11.1772 9.90043 11.6988V11.8119L9.79376 11.8498C9.40142 12.014 9.04584 12.255 8.74789 12.5586C8.09295 13.2119 7.74521 14.0652 7.71321 15.0973H8.72655C8.76899 15.0973 8.80968 15.1141 8.83969 15.1441C8.8697 15.1741 8.88655 15.2148 8.88655 15.2573C8.88655 15.2997 8.8697 15.3404 8.83969 15.3704C8.80968 15.4004 8.76899 15.4173 8.72655 15.4173L8.72015 15.4194Z" fill="#1B3C47"/>
<path d="M13.4668 13.0193C13.4668 13.0193 12.9335 16.0593 16.4002 14.9926L16.5708 15.206C16.5708 15.206 15.8556 15.8881 15.0135 15.7393C13.7868 15.526 12.2935 14.246 13.4668 13.0193Z" fill="#54B9D3"/>
<path d="M19.1702 12.2529C19.3389 12.3309 19.496 12.432 19.6369 12.5531C19.7436 12.6486 19.7969 12.727 19.774 12.7574C19.7286 12.8193 19.4236 12.6731 19.0534 12.4987C18.6833 12.3243 18.3782 12.1787 18.398 12.104C18.4081 12.0683 18.5009 12.0587 18.6428 12.0811C18.8257 12.1136 19.0032 12.1714 19.1702 12.2529Z" fill="#E5F5FA"/>
<path d="M20.5463 13.276C20.6399 13.3993 20.713 13.5369 20.7628 13.6835C20.7991 13.7955 20.8034 13.8733 20.7703 13.892C20.7372 13.9107 20.6738 13.8653 20.5959 13.78C20.518 13.6947 20.4274 13.5709 20.3292 13.4402C20.2311 13.3096 20.1383 13.1965 20.0711 13.1069C20.0039 13.0173 19.9671 12.9517 19.989 12.9202C20.0108 12.8888 20.0898 12.9016 20.1964 12.9608C20.3335 13.0407 20.4526 13.148 20.5463 13.276Z" fill="#E5F5FA"/>
<path d="M21.069 14.2003C21.1117 14.316 21.069 14.4254 20.9965 14.4392C20.924 14.4531 20.8477 14.3859 20.8136 14.2947C20.7794 14.2035 20.7933 14.1038 20.8584 14.0659C20.9234 14.028 21.0264 14.0846 21.069 14.2003Z" fill="#E5F5FA"/>
<path d="M18.0813 11.0001C18.2493 10.9334 18.4077 10.9505 18.4285 11.0225C18.4493 11.0945 18.3367 11.1921 18.1815 11.2534C18.0263 11.3148 17.8775 11.3217 17.8434 11.2534C17.8093 11.1852 17.9127 11.0668 18.0813 11.0001Z" fill="#E5F5FA"/>
<path d="M18.8253 10.7692C18.917 10.7425 19.0082 10.7793 19.0296 10.8513C19.0509 10.9233 18.9933 11.0039 18.9021 11.0305C18.8109 11.0572 18.7192 11.0204 18.6978 10.9484C18.6765 10.8764 18.7341 10.7959 18.8253 10.7692Z" fill="#E5F5FA"/>
<path d="M15.9966 9.76271C16.2362 9.71773 16.4813 9.70946 16.7235 9.73817C16.9086 9.76324 17.0184 9.80911 17.0152 9.84484C17.0072 9.92217 16.5678 9.93338 16.0451 10.0304C15.5224 10.1275 15.1059 10.2662 15.0712 10.1963C15.0558 10.1632 15.1427 10.0822 15.3075 9.99364C15.5242 9.88235 15.7565 9.80449 15.9966 9.76271Z" fill="#E5F5FA"/>
<path d="M17.5074 9.81886C17.532 9.82874 17.5532 9.84558 17.5684 9.86732C17.5836 9.88906 17.5921 9.91476 17.5929 9.94127C17.5938 9.96778 17.5869 9.99396 17.5731 10.0166C17.5593 10.0393 17.5392 10.0574 17.5152 10.0688C17.4913 10.0802 17.4645 10.0844 17.4382 10.0809C17.4119 10.0773 17.3873 10.0662 17.3672 10.0488C17.3471 10.0315 17.3325 10.0087 17.3252 9.98318C17.3179 9.95768 17.3182 9.9306 17.326 9.90526C17.3387 9.86981 17.3649 9.84083 17.3989 9.82464C17.4328 9.80845 17.4719 9.80637 17.5074 9.81886Z" fill="#E5F5FA"/>
<path d="M13.8472 13.989C13.889 14.1311 13.9454 14.2683 14.0157 14.3986C14.069 14.4984 14.1128 14.5586 14.0989 14.573C14.085 14.5874 14.0178 14.548 13.9389 14.4536C13.8371 14.3279 13.7621 14.1827 13.7186 14.0269C13.6748 13.8754 13.6499 13.719 13.6445 13.5613C13.6402 13.4418 13.6488 13.3672 13.6674 13.365C13.6861 13.3629 13.7112 13.4333 13.7394 13.548C13.7677 13.6626 13.7976 13.8221 13.8472 13.989Z" fill="#6AC2D9"/>
<path d="M15.1032 14.8978C15.2888 14.8983 15.4741 14.8822 15.6568 14.8498C15.7998 14.8268 15.8904 14.813 15.8963 14.8316C15.9022 14.8503 15.8216 14.8951 15.6803 14.9431C15.4936 15.0059 15.2976 15.0368 15.1006 15.0343C14.9006 15.0327 14.7038 14.9841 14.5262 14.8924C14.3912 14.8188 14.3288 14.7452 14.3395 14.7324C14.3502 14.7196 14.4312 14.7591 14.5651 14.805C14.7386 14.8636 14.9201 14.8949 15.1032 14.8978Z" fill="#6AC2D9"/>
<path d="M19.0935 17.9527C19.064 17.9528 19.035 17.9446 19.0098 17.9292C17.4663 16.9831 16.0407 17.8876 15.981 17.9266C15.9457 17.9458 15.9045 17.951 15.8655 17.9412C15.8266 17.9315 15.7927 17.9074 15.7707 17.8738C15.7486 17.8402 15.74 17.7996 15.7466 17.7599C15.7531 17.7203 15.7744 17.6846 15.806 17.6599C15.8727 17.6162 17.4594 16.6028 19.1772 17.6572C19.207 17.6754 19.23 17.7029 19.2428 17.7354C19.2555 17.7679 19.2573 17.8036 19.2478 17.8372C19.2383 17.8708 19.2181 17.9004 19.1902 17.9214C19.1624 17.9425 19.1284 17.9538 19.0935 17.9538V17.9527Z" fill="#1B3C47"/>
<path d="M14.1335 17.9527C14.104 17.9528 14.075 17.9446 14.0498 17.9292C12.5063 16.9831 11.0807 17.8876 11.021 17.9266C10.9857 17.9458 10.9445 17.951 10.9055 17.9412C10.8666 17.9315 10.8327 17.9074 10.8107 17.8738C10.7886 17.8402 10.78 17.7996 10.7866 17.7599C10.7931 17.7203 10.8144 17.6846 10.846 17.6599C10.9127 17.6162 12.4994 16.6028 14.2173 17.6572C14.247 17.6754 14.2701 17.7029 14.2828 17.7354C14.2955 17.7679 14.2973 17.8036 14.2878 17.8372C14.2783 17.8708 14.2581 17.9004 14.2303 17.9214C14.2024 17.9425 14.1684 17.9538 14.1335 17.9538V17.9527Z" fill="#1B3C47"/>
<g opacity="0.5">
<path d="M19.9251 18.6398L15.9624 21.4665V19.8568L17.9971 18.4062H19.4104C19.5082 18.404 19.6053 18.4238 19.6944 18.4643C19.7835 18.5047 19.8623 18.5647 19.9251 18.6398Z" fill="white"/>
<path d="M20.027 19.325V20.1927L17.2259 22.1927H16.5795C16.4366 22.1939 16.2968 22.1507 16.1795 22.069L20.027 19.325Z" fill="white"/>
</g>
<path opacity="0.3" d="M19.413 18.3794H16.3853C16.0989 18.3794 15.8669 18.6115 15.8669 18.8978V21.6477C15.8669 21.934 16.0989 22.1661 16.3853 22.1661H19.413C19.6993 22.1661 19.9314 21.934 19.9314 21.6477V18.8978C19.9314 18.6115 19.6993 18.3794 19.413 18.3794Z" fill="white"/>
<path opacity="0.3" d="M13.653 18.4329H10.6252C10.3389 18.4329 10.1068 18.665 10.1068 18.9513V21.7011C10.1068 21.9875 10.3389 22.2196 10.6252 22.2196H13.653C13.9393 22.2196 14.1714 21.9875 14.1714 21.7011V18.9513C14.1714 18.665 13.9393 18.4329 13.653 18.4329Z" fill="white"/>
<path d="M10.3634 14.5174C10.9533 14.3195 11.4082 14.0939 11.4274 14.1291C11.4466 14.1643 11.0109 14.4438 10.4066 14.6465C9.80233 14.8492 9.2866 14.8897 9.28126 14.8545C9.27593 14.8193 9.77406 14.7185 10.3634 14.5174Z" fill="#6AC2D9"/>
<path d="M12.0395 13.6012C12.2075 13.4662 12.3595 13.3734 12.3846 13.4022C12.4096 13.431 12.2955 13.5702 12.1248 13.7073C11.9542 13.8444 11.7931 13.926 11.7712 13.8956C11.7494 13.8652 11.8715 13.7393 12.0395 13.6012Z" fill="#6AC2D9"/>
<path d="M13.0779 12.6604C13.3446 12.4247 13.6006 12.2871 13.6209 12.3164C13.6411 12.3457 13.4278 12.5329 13.168 12.7628C12.9083 12.9927 12.6976 13.1826 12.6688 13.157C12.64 13.1314 12.8102 12.8962 13.0779 12.6604Z" fill="#6AC2D9"/>
<path d="M9.49516 14.4672C9.94209 14.3707 10.2952 14.2389 10.309 14.2752C10.3229 14.3115 9.98903 14.4997 9.52396 14.6C9.05889 14.7003 8.67382 14.6688 8.67542 14.6331C8.67702 14.5973 9.04876 14.5664 9.49516 14.4672Z" fill="#6AC2D9"/>
<path opacity="0.5" d="M15.0135 19.7357V22.8861C15.0135 22.8861 14.166 22.4856 14.166 21.7261C14.166 20.9666 14.2135 19.7927 14.2135 19.7927L14.8626 19.6199C14.8803 19.6151 14.899 19.6144 14.917 19.618C14.9351 19.6215 14.9521 19.6292 14.9667 19.6404C14.9813 19.6516 14.9932 19.666 15.0013 19.6825C15.0094 19.6991 15.0136 19.7173 15.0135 19.7357Z" fill="#FCEADE"/>
<path d="M15.8136 20.006C15.7968 20.0059 15.78 20.0032 15.764 19.998C14.8968 19.7143 14.308 19.9873 14.3022 19.9905C14.2832 19.9996 14.2626 20.0048 14.2416 20.0059C14.2206 20.0071 14.1996 20.004 14.1797 19.997C14.1599 19.99 14.1416 19.9792 14.126 19.9651C14.1104 19.951 14.0976 19.934 14.0886 19.9151C14.0795 19.8961 14.0742 19.8755 14.0731 19.8545C14.072 19.8335 14.075 19.8125 14.0821 19.7926C14.0891 19.7728 14.0999 19.7545 14.114 19.7389C14.128 19.7232 14.145 19.7105 14.164 19.7015C14.1928 19.6881 14.876 19.3702 15.8632 19.694C15.8994 19.7059 15.9301 19.7302 15.9499 19.7627C15.9697 19.7951 15.9773 19.8336 15.9713 19.8711C15.9653 19.9087 15.9462 19.9428 15.9173 19.9676C15.8884 19.9923 15.8517 20.0059 15.8136 20.006Z" fill="#1B3C47"/>
<path d="M15.0103 22.9926C14.8147 22.9909 14.6278 22.9116 14.4906 22.7722C14.3534 22.6329 14.2772 22.4447 14.2786 22.2491C14.2786 22.2067 14.2954 22.166 14.3254 22.136C14.3555 22.106 14.3962 22.0891 14.4386 22.0891C14.481 22.0891 14.5217 22.106 14.5517 22.136C14.5817 22.166 14.5986 22.2067 14.5986 22.2491C14.5966 22.3044 14.6058 22.3595 14.6255 22.4112C14.6453 22.4628 14.6753 22.51 14.7137 22.5498C14.7521 22.5896 14.7982 22.6213 14.8491 22.6429C14.9 22.6645 14.9547 22.6757 15.0101 22.6757C15.0654 22.6757 15.1201 22.6645 15.171 22.6429C15.2219 22.6213 15.268 22.5896 15.3064 22.5498C15.3448 22.51 15.3748 22.4628 15.3946 22.4112C15.4143 22.3595 15.4235 22.3044 15.4215 22.2491C15.4215 22.2067 15.4384 22.166 15.4684 22.136C15.4984 22.106 15.5391 22.0891 15.5815 22.0891C15.624 22.0891 15.6647 22.106 15.6947 22.136C15.7247 22.166 15.7415 22.2067 15.7415 22.2491C15.7429 22.4446 15.6668 22.6327 15.5297 22.7721C15.3926 22.9114 15.2058 22.9908 15.0103 22.9926Z" fill="#1B3C47"/>
<g opacity="0.3">
<path d="M14.1662 18.6398L10.2285 21.4665V19.8568L12.2494 18.4062H13.6536C13.7511 18.404 13.8479 18.4238 13.9367 18.4643C14.0254 18.5047 14.1039 18.5647 14.1662 18.6398Z" fill="white"/>
<path d="M14.267 19.325V20.1927L11.484 22.1927H10.844C10.7018 22.1939 10.5627 22.1506 10.4462 22.069L14.267 19.325Z" fill="white"/>
</g>
<path d="M13.6536 22.2995H10.652C10.4792 22.2993 10.3135 22.2306 10.1913 22.1084C10.0691 21.9862 10.0004 21.8205 10.0003 21.6477V18.8978C10.0004 18.725 10.0691 18.5593 10.1913 18.4371C10.3135 18.3149 10.4792 18.2462 10.652 18.2461H13.6536C13.8265 18.2462 13.9922 18.3149 14.1145 18.4371C14.2368 18.5593 14.3056 18.725 14.3059 18.8978V21.6477C14.3056 21.8206 14.2368 21.9863 14.1145 22.1084C13.9922 22.2306 13.8265 22.2993 13.6536 22.2995ZM10.652 18.5128C10.5499 18.5129 10.4521 18.5535 10.3799 18.6257C10.3077 18.6979 10.2671 18.7957 10.2669 18.8978V21.6477C10.2671 21.7498 10.3077 21.8477 10.3799 21.9198C10.4521 21.992 10.5499 22.0326 10.652 22.0328H13.6536C13.7558 22.0326 13.8537 21.992 13.9259 21.9199C13.9982 21.8477 14.039 21.7498 14.0392 21.6477V18.8978C14.039 18.7957 13.9982 18.6978 13.9259 18.6257C13.8537 18.5535 13.7558 18.5129 13.6536 18.5128H10.652Z" fill="#1B3C47"/>
<path d="M15.0008 15.8065C14.9619 15.8065 14.9235 15.8065 14.8851 15.8039C14.4046 15.7831 13.9467 15.5944 13.5912 15.2705C12.9789 14.7137 12.7203 13.8113 13.0045 13.2161C13.0129 13.1962 13.0252 13.1782 13.0407 13.1631C13.0562 13.1481 13.0746 13.1363 13.0948 13.1286C13.115 13.1209 13.1365 13.1173 13.1581 13.1181C13.1797 13.1189 13.2009 13.1241 13.2204 13.1333C13.2399 13.1425 13.2574 13.1556 13.2718 13.1718C13.2861 13.188 13.297 13.2069 13.3039 13.2273C13.3107 13.2478 13.3133 13.2695 13.3115 13.291C13.3098 13.3126 13.3037 13.3335 13.2936 13.3526C13.1005 13.7606 13.2403 14.519 13.8088 15.0337C14.188 15.3788 15.0168 15.8273 16.3854 15.0871C16.2353 14.9088 16.145 14.6879 16.1272 14.4556C16.1123 14.1558 16.2414 13.8689 16.5102 13.598L16.6371 13.4726L16.748 13.6177C16.7523 13.623 17.1896 14.1814 18.0424 14.5985C19.1475 15.1393 20.4072 15.2081 21.7881 14.8044C21.6633 14.2529 21.0616 12.183 19.0008 11.6577L18.4984 11.5292L20.4942 10.8038C19.9672 10.3602 19.3792 9.99489 18.748 9.71902C17.2195 9.06408 15.7853 9.15315 14.4867 9.98569C14.4509 10.0086 14.4075 10.0164 14.366 10.0073C14.3244 9.99816 14.2883 9.97294 14.2653 9.93716C14.2424 9.90137 14.2347 9.85794 14.2438 9.81644C14.2529 9.77493 14.2781 9.73874 14.3139 9.71582C15.6909 8.83581 17.2712 8.73715 18.8835 9.43049C19.6286 9.75299 20.3138 10.1991 20.9102 10.75L21.091 10.9276L19.5331 11.4902C20.395 11.8284 21.0995 12.4705 21.5875 13.3697C21.8474 13.8442 22.0312 14.3566 22.1321 14.8881L22.1529 15.0241L22.0217 15.0652C20.1251 15.6599 18.7262 15.2903 17.8867 14.8759C17.4132 14.6454 16.9844 14.3328 16.62 13.9526C16.5044 14.0881 16.4422 14.261 16.4451 14.439C16.4611 14.7628 16.739 14.998 16.7416 15.0007L16.9182 15.1452L16.7224 15.262C16.1171 15.6241 15.5384 15.8065 15.0008 15.8065Z" fill="#1B3C47"/>
<path d="M9.21497 15.3638C9.17253 15.3645 9.13155 15.3483 9.10105 15.3188C9.07054 15.2893 9.05301 15.2489 9.0523 15.2064C9.05159 15.164 9.06777 15.123 9.09728 15.0925C9.12678 15.062 9.1672 15.0445 9.20963 15.0438C11.5206 14.9606 13.767 12.4176 13.7894 12.392C13.8029 12.3753 13.8197 12.3615 13.8387 12.3514C13.8577 12.3414 13.8785 12.3352 13.8999 12.3334C13.9213 12.3315 13.9429 12.334 13.9633 12.3407C13.9837 12.3473 14.0026 12.358 14.0188 12.3722C14.035 12.3863 14.0482 12.4035 14.0576 12.4229C14.067 12.4422 14.0724 12.4632 14.0735 12.4847C14.0746 12.5061 14.0713 12.5276 14.0639 12.5478C14.0565 12.568 14.0452 12.5865 14.0305 12.6021C13.5835 13.0937 13.0924 13.5432 12.5633 13.9451C11.3782 14.8491 10.2539 15.3264 9.22137 15.3638H9.21497Z" fill="#1B3C47"/>
<path d="M9.4909 17.0951C9.52747 16.894 9.60089 16.7015 9.70744 16.5271C9.79384 16.3943 9.87917 16.3292 9.93037 16.3511C9.98157 16.373 9.99277 16.4764 9.97997 16.6231C9.96717 16.7698 9.93304 16.9628 9.89197 17.1735C9.8509 17.3842 9.8109 17.5746 9.7677 17.7159C9.7245 17.8572 9.67704 17.9484 9.61997 17.95C9.5629 17.9516 9.50957 17.8588 9.47917 17.7031C9.44559 17.5014 9.44957 17.2953 9.4909 17.0951Z" fill="white"/>
<path d="M10.9222 15.6338C11.2736 15.5068 11.5862 15.4524 11.6368 15.5537C11.6875 15.6551 11.4379 15.8812 11.0614 16.0178C10.6848 16.1543 10.3478 16.1404 10.3222 16.0316C10.2966 15.9228 10.5707 15.7623 10.9222 15.6338Z" fill="white"/>
<path d="M12.1436 14.9724C12.2476 14.877 12.3922 14.8524 12.4764 14.9271C12.5607 15.0018 12.541 15.1623 12.4204 15.2732C12.2999 15.3842 12.1378 15.3906 12.0711 15.3004C12.0044 15.2103 12.0402 15.0679 12.1436 14.9724Z" fill="white"/>
<path d="M8.46828 13.4338C8.51747 13.332 8.58008 13.2373 8.65442 13.1522C8.71538 13.0829 8.78597 13.0227 8.86402 12.9735C8.99895 12.8908 9.10509 12.8812 9.13709 12.9255C9.16909 12.9698 9.13229 13.061 9.06882 13.1767C9.03789 13.2332 9.00055 13.2994 8.95895 13.3735C8.91735 13.4476 8.87788 13.5255 8.83682 13.6098C8.79575 13.694 8.76162 13.7772 8.73015 13.8535L8.64642 14.0626C8.59308 14.1842 8.55148 14.2706 8.49335 14.2732C8.43521 14.2759 8.37975 14.1879 8.35948 14.0306C8.34864 13.939 8.35115 13.8463 8.36695 13.7554C8.38622 13.6441 8.4203 13.536 8.46828 13.4338Z" fill="white"/>
<path d="M9.77565 12.5013C9.8675 12.4663 9.96438 12.4463 10.0626 12.4421C10.1458 12.4421 10.2125 12.4608 10.2407 12.5099C10.269 12.5589 10.2519 12.6283 10.1938 12.6997C10.117 12.7836 10.0211 12.8475 9.91411 12.8859C9.80717 12.9244 9.69248 12.9363 9.57992 12.9205C9.48978 12.9029 9.43165 12.8597 9.41992 12.8043C9.40818 12.7488 9.44978 12.6912 9.51378 12.6389C9.59302 12.5792 9.68147 12.5327 9.77565 12.5013Z" fill="white"/>
<path d="M10.7357 10.6544C10.8496 10.6386 10.9657 10.6531 11.0722 10.6966C11.1565 10.7344 11.2034 10.7899 11.1997 10.8454C11.196 10.9008 11.1437 10.9494 11.069 10.9851C10.8862 11.0618 10.6856 11.0858 10.4898 11.0544C10.4088 11.0368 10.3474 11.0011 10.3298 10.9478C10.3122 10.8944 10.3453 10.8299 10.4184 10.7728C10.5117 10.7058 10.6213 10.6649 10.7357 10.6544Z" fill="white"/>
<path d="M9.80284 23.3927C9.84794 23.5254 9.88167 23.6617 9.90364 23.8001C9.91858 23.9121 9.91004 23.9969 9.86098 24.0257C9.81191 24.0545 9.73138 24.0188 9.64764 23.9287C9.54152 23.8098 9.46253 23.6693 9.41617 23.5169C9.36539 23.3658 9.34845 23.2054 9.36657 23.0471C9.38471 22.9233 9.43004 22.8476 9.48604 22.8428C9.54204 22.838 9.59857 22.9015 9.65191 23.0028C9.71287 23.1284 9.76336 23.2588 9.80284 23.3927Z" fill="white"/>
<path d="M19.4129 22.2995H16.3852C16.2124 22.2993 16.0467 22.2306 15.9245 22.1084C15.8023 21.9862 15.7336 21.8205 15.7335 21.6477V18.8978C15.7336 18.725 15.8023 18.5593 15.9245 18.4371C16.0467 18.3149 16.2124 18.2462 16.3852 18.2461H19.4129C19.5858 18.2462 19.7514 18.3149 19.8736 18.4371C19.9958 18.5593 20.0645 18.725 20.0647 18.8978V21.6477C20.0645 21.8205 19.9958 21.9862 19.8736 22.1084C19.7514 22.2306 19.5858 22.2993 19.4129 22.2995ZM16.3852 18.5128C16.2831 18.5129 16.1853 18.5535 16.1131 18.6257C16.0409 18.6979 16.0003 18.7957 16.0001 18.8978V21.6477C16.0003 21.7498 16.0409 21.8477 16.1131 21.9198C16.1853 21.992 16.2831 22.0326 16.3852 22.0328H19.4129C19.515 22.0326 19.6129 21.992 19.6851 21.9198C19.7573 21.8477 19.7979 21.7498 19.798 21.6477V18.8978C19.7979 18.7957 19.7573 18.6979 19.6851 18.6257C19.6129 18.5535 19.515 18.5129 19.4129 18.5128H16.3852Z" fill="#1B3C47"/>
<path d="M10.1694 33.6027L7.23855 33.6518C6.9243 33.6571 6.67382 33.9161 6.67909 34.2304L6.6791 34.2309C6.68436 34.5451 6.94338 34.7956 7.25762 34.7904L10.1884 34.7412C10.5027 34.736 10.7532 34.477 10.7479 34.1627L10.7479 34.1622C10.7426 33.8479 10.4836 33.5975 10.1694 33.6027Z" fill="white"/>
<path d="M10.7437 34.1661V34.1757C10.7436 34.325 10.6849 34.4682 10.5803 34.5746C10.4757 34.681 10.3335 34.7422 10.1843 34.7448L7.25091 34.7933C7.17618 34.7946 7.10192 34.7812 7.03239 34.7537C6.96286 34.7263 6.89942 34.6854 6.84568 34.6335C6.79195 34.5815 6.74897 34.5195 6.71921 34.4509C6.68945 34.3824 6.67349 34.3086 6.67224 34.2339V34.2195C6.67224 34.2099 6.67224 34.5203 6.67224 34.5107L9.31492 34.4573C10.0083 34.4573 10.2083 34.1907 10.1747 33.604C10.3244 33.6041 10.468 33.6632 10.5745 33.7684C10.681 33.8736 10.7418 34.0165 10.7437 34.1661Z" fill="#CFD2E8"/>
<path d="M15.6679 25.0194H13.6801C13.6377 25.0194 13.597 25.0025 13.567 24.9725C13.537 24.9425 13.5201 24.9018 13.5201 24.8594C13.5201 24.817 13.537 24.7763 13.567 24.7463C13.597 24.7163 13.6377 24.6994 13.6801 24.6994H15.6679C15.8622 24.7 16.0547 24.662 16.2342 24.5877C16.4137 24.5133 16.5767 24.4041 16.7138 24.2663C16.7441 24.2381 16.7842 24.2227 16.8257 24.2234C16.8671 24.2241 16.9067 24.2409 16.936 24.2703C16.9653 24.2996 16.9821 24.3391 16.9828 24.3806C16.9835 24.422 16.9682 24.4621 16.9399 24.4925C16.7732 24.66 16.575 24.7929 16.3567 24.8833C16.1383 24.9738 15.9042 25.02 15.6679 25.0194Z" fill="#1B3C47"/>
<path d="M39.9737 10.9926C39.826 10.9926 39.6817 10.9488 39.5589 10.8668C39.4361 10.7847 39.3404 10.6681 39.2839 10.5317C39.2273 10.3952 39.2126 10.2451 39.2414 10.1003C39.2702 9.95543 39.3413 9.82239 39.4457 9.71796C39.5501 9.61354 39.6832 9.54243 39.828 9.51362C39.9729 9.4848 40.123 9.49959 40.2594 9.5561C40.3959 9.61262 40.5125 9.70832 40.5945 9.83111C40.6766 9.9539 40.7204 10.0983 40.7204 10.2459C40.7204 10.444 40.6417 10.6339 40.5017 10.7739C40.3616 10.9139 40.1717 10.9926 39.9737 10.9926ZM39.9737 9.81927C39.8893 9.81927 39.8068 9.84429 39.7366 9.89118C39.6665 9.93806 39.6118 10.0047 39.5795 10.0827C39.5472 10.1606 39.5388 10.2464 39.5552 10.3292C39.5717 10.4119 39.6123 10.488 39.672 10.5476C39.7317 10.6073 39.8077 10.6479 39.8905 10.6644C39.9732 10.6809 40.059 10.6724 40.137 10.6401C40.2149 10.6078 40.2816 10.5531 40.3285 10.483C40.3753 10.4128 40.4004 10.3303 40.4004 10.2459C40.4004 10.1328 40.3554 10.0243 40.2754 9.94424C40.1954 9.86422 40.0869 9.81927 39.9737 9.81927Z" fill="#F2BF46"/>
<path d="M39.227 12.326C39.4037 12.326 39.547 12.1828 39.547 12.006C39.547 11.8293 39.4037 11.686 39.227 11.686C39.0503 11.686 38.907 11.8293 38.907 12.006C38.907 12.1828 39.0503 12.326 39.227 12.326Z" fill="#B0D7E9"/>
<path d="M14.5336 7.41937C14.3859 7.41937 14.2415 7.37558 14.1187 7.29353C13.9959 7.21149 13.9002 7.09487 13.8437 6.95844C13.7872 6.822 13.7724 6.67187 13.8012 6.52703C13.8301 6.38219 13.9012 6.24914 14.0056 6.14472C14.11 6.0403 14.2431 5.96918 14.3879 5.94037C14.5327 5.91156 14.6829 5.92635 14.8193 5.98286C14.9557 6.03938 15.0724 6.13508 15.1544 6.25787C15.2364 6.38066 15.2802 6.52502 15.2802 6.6727C15.2802 6.87073 15.2016 7.06065 15.0615 7.20067C14.9215 7.3407 14.7316 7.41937 14.5336 7.41937ZM14.5336 6.24603C14.4492 6.24603 14.3667 6.27105 14.2965 6.31793C14.2264 6.36482 14.1717 6.43145 14.1394 6.50942C14.1071 6.58738 14.0986 6.67317 14.1151 6.75594C14.1316 6.8387 14.1722 6.91473 14.2319 6.9744C14.2915 7.03407 14.3676 7.0747 14.4503 7.09117C14.5331 7.10763 14.6189 7.09918 14.6968 7.06689C14.7748 7.03459 14.8414 6.97991 14.8883 6.90974C14.9352 6.83958 14.9602 6.75708 14.9602 6.6727C14.9602 6.55954 14.9153 6.45101 14.8353 6.371C14.7553 6.29098 14.6467 6.24603 14.5336 6.24603Z" fill="#F2BF46"/>
<path d="M13.0403 8.53917C13.217 8.53917 13.3603 8.3959 13.3603 8.21917C13.3603 8.04244 13.217 7.89917 13.0403 7.89917C12.8635 7.89917 12.7203 8.04244 12.7203 8.21917C12.7203 8.3959 12.8635 8.53917 13.0403 8.53917Z" fill="#B0D7E9"/>
<path d="M26.725 42.6959C26.586 42.7456 26.4353 42.7529 26.2921 42.717C26.1488 42.6811 26.0195 42.6035 25.9203 42.494C25.8212 42.3846 25.7567 42.2482 25.7351 42.1022C25.7135 41.9561 25.7356 41.8069 25.7988 41.6734C25.862 41.5399 25.9633 41.4282 26.0899 41.3523C26.2166 41.2764 26.3629 41.2397 26.5104 41.247C26.6579 41.2543 26.7999 41.3051 26.9185 41.393C27.0371 41.481 27.127 41.6022 27.1767 41.7412C27.2098 41.8336 27.2243 41.9315 27.2195 42.0295C27.2147 42.1274 27.1906 42.2235 27.1486 42.3121C27.1067 42.4008 27.0477 42.4803 26.975 42.5462C26.9023 42.612 26.8174 42.6629 26.725 42.6959ZM26.3303 41.5908C26.2509 41.6193 26.1817 41.6706 26.1314 41.7384C26.0812 41.8062 26.0521 41.8873 26.048 41.9716C26.0439 42.0559 26.0648 42.1395 26.1082 42.2118C26.1515 42.2842 26.2154 42.3421 26.2917 42.3782C26.3679 42.4143 26.4532 42.4269 26.5367 42.4146C26.6201 42.4022 26.6981 42.3654 26.7606 42.3087C26.8231 42.2521 26.8675 42.1782 26.888 42.0963C26.9085 42.0145 26.9043 41.9284 26.8759 41.8489C26.8571 41.7962 26.828 41.7476 26.7904 41.7061C26.7527 41.6645 26.7073 41.6308 26.6566 41.6068C26.606 41.5829 26.5511 41.5691 26.4951 41.5664C26.4391 41.5636 26.3831 41.5719 26.3303 41.5908Z" fill="#F2BF46"/>
<path d="M5.90838 29.1249C6.08511 29.1249 6.22838 28.9816 6.22838 28.8049C6.22838 28.6281 6.08511 28.4849 5.90838 28.4849C5.73165 28.4849 5.58838 28.6281 5.58838 28.8049C5.58838 28.9816 5.73165 29.1249 5.90838 29.1249Z" fill="#B0D7E9"/>
<path d="M8.02033 43.0196C8.0028 43.0197 7.98543 43.0163 7.96922 43.0096C7.95301 43.0029 7.93828 42.9931 7.92589 42.9807C7.91349 42.9683 7.90368 42.9536 7.897 42.9374C7.89032 42.9212 7.88692 42.9038 7.88699 42.8863V34.7796C7.88699 34.7442 7.90104 34.7103 7.92605 34.6853C7.95105 34.6603 7.98497 34.6462 8.02033 34.6462C8.05569 34.6462 8.0896 34.6603 8.11461 34.6853C8.13961 34.7103 8.15366 34.7442 8.15366 34.7796V42.8863C8.15366 42.9217 8.13961 42.9556 8.11461 42.9806C8.0896 43.0056 8.05569 43.0196 8.02033 43.0196Z" fill="#1B3C47"/>
<path d="M7.24553 34.9241C7.05924 34.9256 6.87999 34.853 6.74722 34.7223C6.61444 34.5916 6.53901 34.4136 6.53753 34.2273C6.53604 34.041 6.60862 33.8617 6.7393 33.729C6.86997 33.5962 7.04804 33.5208 7.23433 33.5193L10.1677 33.4702C10.3514 33.4712 10.5275 33.5441 10.6582 33.6732C10.7889 33.8024 10.8638 33.9777 10.8669 34.1614C10.8699 34.3451 10.8009 34.5228 10.6746 34.6563C10.5483 34.7897 10.3748 34.8685 10.1912 34.8756L7.26047 34.9241H7.24553ZM10.1768 33.7395H10.1693L7.2386 33.7886C7.15303 33.7908 7.06998 33.818 6.99979 33.867C6.92961 33.9161 6.87539 33.9846 6.84389 34.0642C6.8124 34.1438 6.80501 34.2309 6.82266 34.3147C6.8403 34.3984 6.8822 34.4752 6.94313 34.5353C6.98402 34.5754 7.03257 34.607 7.0859 34.6279C7.13923 34.6489 7.19624 34.659 7.25353 34.6574L10.1842 34.6089C10.2973 34.6041 10.404 34.5556 10.482 34.4735C10.5599 34.3915 10.6029 34.2824 10.602 34.1693C10.601 34.0561 10.5561 33.9478 10.4768 33.8671C10.3974 33.7864 10.2899 33.7397 10.1768 33.7369V33.7395Z" fill="#1B3C47"/>
<path d="M10.3736 20.1927C10.3376 20.1926 10.3027 20.1804 10.2744 20.158L7.34109 17.8358C7.30996 17.8089 7.29044 17.7709 7.28659 17.7299C7.28274 17.6889 7.29486 17.6479 7.32043 17.6156C7.346 17.5833 7.38305 17.5621 7.42385 17.5565C7.46466 17.5508 7.50608 17.5611 7.5395 17.5852L10.4728 19.9073C10.4988 19.9279 10.5178 19.9561 10.527 19.988C10.5363 20.0199 10.5354 20.0538 10.5245 20.0852C10.5136 20.1165 10.4932 20.1437 10.4662 20.163C10.4392 20.1822 10.4068 20.1926 10.3736 20.1927Z" fill="#1B3C47"/>
<path d="M19.5469 20.1927C19.5137 20.1926 19.4814 20.1822 19.4543 20.163C19.4273 20.1437 19.4069 20.1165 19.396 20.0852C19.3851 20.0538 19.3842 20.0199 19.3935 19.988C19.4028 19.9561 19.4217 19.9279 19.4477 19.9073L22.381 17.5852C22.4145 17.5611 22.4559 17.5508 22.4967 17.5565C22.5375 17.5621 22.5745 17.5833 22.6001 17.6156C22.6257 17.6479 22.6378 17.6889 22.6339 17.7299C22.6301 17.7709 22.6106 17.8089 22.5794 17.8358L19.6461 20.158C19.6179 20.1804 19.5829 20.1926 19.5469 20.1927Z" fill="#1B3C47"/>
<path d="M12.6066 28.4299V28.9302C12.6066 29.2513 12.6698 29.5692 12.7927 29.8658C12.9156 30.1624 13.0956 30.4319 13.3227 30.6589C13.5497 30.886 13.8192 31.0661 14.1158 31.1889C14.4124 31.3118 14.7304 31.375 15.0514 31.375C15.3725 31.375 15.6904 31.3118 15.987 31.1889C16.2836 31.0661 16.5531 30.886 16.7802 30.6589C17.0072 30.4319 17.1873 30.1624 17.3101 29.8658C17.433 29.5692 17.4962 29.2513 17.4962 28.9302V28.4299L15.117 28.9206L12.6066 28.4299Z" fill="#F4CEAE"/>
<path d="M17.5538 28.2339V28.7342C17.5536 29.0998 17.4715 29.4608 17.3135 29.7906C17.1555 30.1203 16.9255 30.4105 16.6406 30.6396C16.3556 30.8688 16.0229 31.0312 15.667 31.1148C15.311 31.1985 14.9408 31.2013 14.5836 31.123C15.1279 31.003 15.6149 30.7009 15.9641 30.2665C16.3132 29.8321 16.5036 29.2915 16.5036 28.7342L16.6636 28.6014L17.5538 28.2339Z" fill="#FFB594"/>
<path d="M15.0541 29.0553C14.1979 29.058 13.35 28.8883 12.5608 28.5563C11.7716 28.2244 11.0573 27.7369 10.4605 27.123C10.4308 27.0927 10.4143 27.0518 10.4148 27.0093C10.4152 26.9669 10.4325 26.9263 10.4629 26.8966C10.4932 26.8669 10.5341 26.8505 10.5766 26.8509C10.619 26.8514 10.6596 26.8687 10.6893 26.899C11.4044 27.63 12.2915 28.1697 13.2694 28.4686C14.2473 28.7675 15.2846 28.8161 16.2862 28.61C17.2877 28.4038 18.2215 27.9494 19.0018 27.2886C19.7821 26.6277 20.384 25.7815 20.7523 24.8276C20.7675 24.7879 20.7979 24.756 20.8367 24.7388C20.8755 24.7216 20.9196 24.7205 20.9592 24.7358C20.9988 24.7511 21.0307 24.7815 21.0479 24.8203C21.0651 24.8591 21.0662 24.9032 21.0509 24.9428C20.5834 26.1535 19.7603 27.1944 18.6899 27.9284C17.6195 28.6625 16.352 29.0553 15.0541 29.0553Z" fill="#1B3C47"/>
<path d="M23.1705 30.4429L28.0239 23.6162L29.4372 21.3495L28.7172 20.7895L28.3439 21.0562L29.282 19.4924C29.3055 19.4532 29.3208 19.4097 29.327 19.3644C29.3332 19.3192 29.3303 19.2731 29.3183 19.2291C29.3063 19.185 29.2855 19.1438 29.2572 19.1079C29.2288 19.0721 29.1936 19.0423 29.1535 19.0204C29.0783 18.9793 28.9904 18.9681 28.9074 18.9892C28.8243 19.0103 28.7524 19.062 28.706 19.134L27.1913 21.4807L27.2239 22.3917C27.2239 22.5277 27.1812 22.7341 27.2697 22.8519C27.3801 22.9981 27.6356 23.0045 27.7753 22.9053C27.9273 22.7954 27.9951 22.5853 28.0169 22.4066C28.0612 22.0434 27.9071 21.6716 27.5503 21.5335C27.3847 21.4675 27.2008 21.4635 27.0326 21.5223C26.8643 21.5811 26.7229 21.6987 26.6345 21.8535C26.5285 22.0414 26.4401 22.2387 26.3705 22.4429L25.634 23.3394L24.0478 25.2743L22.5342 27.1197L22.0937 27.6594C22.0473 27.7154 22.0068 27.748 22.011 27.8194C22.0158 27.8994 22.0846 28.0077 22.114 28.0818" fill="#F4CEAE"/>
<path d="M29.4855 19.222C29.4714 19.2199 29.4572 19.2188 29.4429 19.2188C29.3862 19.2188 29.3304 19.233 29.2807 19.2601C29.2309 19.2872 29.1888 19.3264 29.1581 19.374L27.7789 21.5074L27.6429 21.718V21.7223C27.5446 21.7328 27.4495 21.7633 27.3634 21.8119C27.2476 21.8771 27.1518 21.9726 27.0861 22.0882C26.9797 22.2776 26.8914 22.4765 26.8221 22.6823L26.0871 23.5783L24.5036 25.5132L22.99 27.3591L22.5495 27.8967C22.5031 27.9501 22.4626 27.9853 22.4668 28.0567C22.4716 28.1362 22.5404 28.245 22.5698 28.3186L23.3047 30.3101L23.3314 30.3901L22.2764 28.0253C22.2471 27.9517 22.1783 27.8429 22.1735 27.7634C22.1692 27.6925 22.2098 27.6599 22.2562 27.6034L22.6967 27.0658L24.2103 25.2199L25.7938 23.286L26.5303 22.3895C26.5996 22.1837 26.688 21.9847 26.7943 21.7954C26.8515 21.6946 26.9318 21.6089 27.0286 21.5453C27.1254 21.4817 27.236 21.442 27.3511 21.4295V21.4252L28.8663 19.0785C28.897 19.0309 28.9392 18.9917 28.989 18.9646C29.0387 18.9375 29.0945 18.9233 29.1511 18.9233C29.2336 18.9235 29.3132 18.9536 29.3751 19.0082C29.4369 19.0628 29.4768 19.138 29.4871 19.2199L29.4855 19.222Z" fill="#FCEADE"/>
<path d="M22.2205 28.1586C22.1937 28.1586 22.1675 28.1505 22.1453 28.1353C22.1232 28.1202 22.1061 28.0988 22.0962 28.0738C22.0882 28.053 22.0765 28.0301 22.0642 28.0056C22.0232 27.933 21.9962 27.8534 21.9848 27.7709C21.9831 27.7283 21.9905 27.6859 22.0065 27.6465C22.0225 27.607 22.0467 27.5714 22.0776 27.5421L22.0973 27.5186L26.3565 22.3261C26.4273 22.1202 26.5166 21.9212 26.6232 21.7314C26.7271 21.5482 26.8937 21.4089 27.0923 21.3391C27.291 21.2693 27.5081 21.2737 27.7037 21.3517C28.0888 21.501 28.3101 21.9079 28.2547 22.365C28.236 22.5197 28.1725 22.8018 27.9592 22.9559C27.7704 23.0925 27.4259 23.0877 27.2691 22.8765C27.1715 22.7474 27.1827 22.5735 27.1917 22.4338C27.1917 22.3981 27.196 22.3645 27.196 22.3367C27.1959 22.3192 27.1993 22.3019 27.2059 22.2857C27.2126 22.2695 27.2223 22.2547 27.2347 22.2423C27.247 22.2299 27.2617 22.22 27.2778 22.2132C27.294 22.2064 27.3113 22.2029 27.3288 22.2029C27.3641 22.2029 27.3979 22.2168 27.4229 22.2417C27.4479 22.2666 27.462 22.3004 27.4621 22.3357C27.4621 22.3725 27.4621 22.4103 27.4573 22.4509C27.4509 22.5469 27.4435 22.6642 27.4813 22.7175C27.5443 22.8013 27.7187 22.8018 27.8013 22.7415C27.9373 22.6429 27.9773 22.4242 27.9885 22.3346C28.0195 22.077 27.9384 21.7309 27.6056 21.6018C27.4699 21.5476 27.3191 21.5441 27.1811 21.5921C27.043 21.6402 26.9269 21.7364 26.8541 21.8631C26.7528 22.0448 26.6685 22.2355 26.6024 22.4327L26.5949 22.4573L22.3032 27.6904C22.2952 27.7005 22.2872 27.7096 22.2792 27.7186C22.2686 27.7301 22.259 27.7424 22.2504 27.7554C22.2621 27.8027 22.28 27.8483 22.3037 27.8909C22.3186 27.9218 22.3325 27.9506 22.3437 27.9789C22.3502 27.9952 22.3534 28.0126 22.3531 28.0301C22.3528 28.0476 22.3491 28.0649 22.3421 28.0809C22.3351 28.097 22.325 28.1115 22.3124 28.1237C22.2997 28.1358 22.2848 28.1453 22.2685 28.1517C22.2531 28.157 22.2368 28.1593 22.2205 28.1586Z" fill="#1B3C47"/>
<path d="M23.2771 30.523C23.2523 30.523 23.2281 30.5161 23.207 30.5031C23.1859 30.4901 23.1689 30.4714 23.1578 30.4493C23.1468 30.4272 23.1421 30.4024 23.1443 30.3777C23.1465 30.353 23.1556 30.3295 23.1704 30.3097L28.0211 23.4867L29.2931 21.4013L28.6323 20.8349C28.6055 20.8119 28.5888 20.7791 28.5861 20.7438C28.5834 20.7085 28.5949 20.6736 28.6179 20.6467C28.641 20.6198 28.6738 20.6032 28.7091 20.6005C28.7444 20.5978 28.7793 20.6092 28.8062 20.6323L29.6387 21.3464L28.2414 23.6398L23.388 30.4665C23.3756 30.4842 23.3589 30.4987 23.3396 30.5085C23.3203 30.5184 23.2988 30.5234 23.2771 30.523Z" fill="#1B3C47"/>
<path d="M23.3516 30.6124L22.2673 27.8891C22.151 27.5971 21.8201 27.4546 21.5281 27.5709L21.5276 27.5711C21.2356 27.6873 21.0931 28.0183 21.2094 28.3103L22.2937 31.0336C22.4099 31.3256 22.7409 31.468 23.0329 31.3518L23.0334 31.3516C23.3254 31.2353 23.4678 30.9044 23.3516 30.6124Z" fill="white"/>
<path d="M22.8216 31.5251C22.6811 31.5247 22.544 31.4824 22.4277 31.4035C22.3115 31.3246 22.2215 31.2128 22.1693 31.0824L21.085 28.3592C21.0479 28.2729 21.0285 28.18 21.0278 28.0861C21.0272 27.9922 21.0454 27.8991 21.0813 27.8123C21.1173 27.7256 21.1702 27.6469 21.2371 27.5809C21.304 27.515 21.3834 27.4631 21.4706 27.4283C21.5579 27.3936 21.6512 27.3766 21.7451 27.3786C21.839 27.3805 21.9316 27.4012 22.0174 27.4395C22.1031 27.4778 22.1804 27.5329 22.2445 27.6016C22.3086 27.6702 22.3583 27.751 22.3906 27.8392L23.4749 30.5624C23.5172 30.669 23.5327 30.7844 23.5202 30.8984C23.5077 31.0125 23.4674 31.1217 23.403 31.2166C23.3386 31.3115 23.2519 31.3893 23.1506 31.443C23.0492 31.4968 22.9363 31.5249 22.8216 31.5251ZM21.7378 27.6632C21.6666 27.6631 21.5965 27.6806 21.5336 27.7139C21.4707 27.7473 21.4169 27.7955 21.377 27.8545C21.337 27.9134 21.3121 27.9812 21.3045 28.052C21.2968 28.1228 21.3066 28.1944 21.333 28.2605L22.4168 30.9837C22.4366 31.0388 22.4672 31.0894 22.507 31.1323C22.5467 31.1753 22.5947 31.2099 22.6481 31.2339C22.7015 31.258 22.7591 31.2711 22.8177 31.2724C22.8762 31.2737 22.9344 31.2632 22.9888 31.2415C23.0432 31.2198 23.0926 31.1875 23.1342 31.1463C23.1758 31.1051 23.2087 31.0559 23.231 31.0018C23.2532 30.9476 23.2643 30.8895 23.2636 30.831C23.2629 30.7725 23.2504 30.7147 23.2269 30.661L22.1426 27.9378C22.1103 27.8569 22.0544 27.7875 21.9823 27.7385C21.9102 27.6896 21.825 27.6633 21.7378 27.6632Z" fill="#1B3C47"/>
<path d="M27.284 21.5083C27.26 21.5082 27.2365 21.5017 27.216 21.4894C27.1954 21.4771 27.1786 21.4595 27.1671 21.4385C27.1557 21.4174 27.1502 21.3937 27.1512 21.3697C27.1521 21.3458 27.1595 21.3225 27.1725 21.3024L28.6872 18.9558C28.752 18.8558 28.852 18.7838 28.9674 18.7542C29.0828 18.7245 29.2052 18.7394 29.3101 18.7958C29.366 18.8263 29.4152 18.8678 29.4547 18.9178C29.4941 18.9678 29.5231 19.0252 29.5399 19.0867C29.5566 19.1481 29.5607 19.2123 29.5521 19.2754C29.5434 19.3385 29.522 19.3992 29.4893 19.4539L28.5507 21.0176C28.5437 21.0356 28.5329 21.0518 28.5191 21.0652C28.5053 21.0785 28.4888 21.0888 28.4706 21.0951C28.4525 21.1015 28.4332 21.1039 28.4141 21.1021C28.3949 21.1004 28.3764 21.0945 28.3597 21.0849C28.3431 21.0753 28.3287 21.0622 28.3176 21.0465C28.3065 21.0308 28.2989 21.0129 28.2953 20.994C28.2918 20.9751 28.2924 20.9556 28.297 20.937C28.3017 20.9183 28.3104 20.9009 28.3224 20.8859L29.2605 19.3227C29.2875 19.2764 29.2954 19.2215 29.2826 19.1695C29.2697 19.1175 29.237 19.0725 29.1916 19.0442C29.1461 19.0159 29.0914 19.0064 29.039 19.0178C28.9867 19.0291 28.9408 19.0605 28.9112 19.1051L27.3965 21.4491C27.3841 21.4675 27.3673 21.4825 27.3477 21.4929C27.3281 21.5032 27.3062 21.5085 27.284 21.5083Z" fill="#1B3C47"/>
<path d="M41.0836 16.7424L41.1449 17.3088L41.2063 17.8752L40.6847 17.6454L40.1636 17.415L40.6239 17.0784L41.0836 16.7424Z" fill="#00B8FF"/>
<path d="M21.2792 2.55268L20.8355 2.19534L20.3918 1.83801L20.923 1.63214L21.4542 1.42627L21.3667 1.98947L21.2792 2.55268Z" fill="#00B8FF"/>
<path d="M29.13 41.6366L28.6862 41.2793L28.2425 40.9219L28.7737 40.7166L29.3049 40.5107L29.2174 41.0739L29.13 41.6366Z" fill="#00B8FF"/>
<path d="M15.0669 31.5351C14.3763 31.5343 13.7142 31.2596 13.2259 30.7712C12.7376 30.2829 12.4629 29.6209 12.462 28.9303V28.43C12.462 28.3876 12.4789 28.3469 12.5089 28.3169C12.5389 28.2869 12.5796 28.27 12.622 28.27C12.6645 28.27 12.7052 28.2869 12.7352 28.3169C12.7652 28.3469 12.782 28.3876 12.782 28.43V28.9303C12.7912 29.5303 13.036 30.1026 13.4635 30.5237C13.8911 30.9447 14.4671 31.1807 15.0671 31.1807C15.6672 31.1807 16.2432 30.9447 16.6707 30.5237C17.0983 30.1026 17.343 29.5303 17.3522 28.9303V28.43C17.3522 28.3876 17.3691 28.3469 17.3991 28.3169C17.4291 28.2869 17.4698 28.27 17.5122 28.27C17.5546 28.27 17.5953 28.2869 17.6253 28.3169C17.6553 28.3469 17.6722 28.3876 17.6722 28.43V28.9303C17.6714 29.621 17.3966 30.2831 16.9081 30.7714C16.4197 31.2598 15.7575 31.5344 15.0669 31.5351Z" fill="#1B3C47"/>
<defs>
<linearGradient id="paint0_linear_4323_436124" x1="-0.0035956" y1="11.7943" x2="41.6441" y2="11.7943" gradientUnits="userSpaceOnUse">
<stop stop-color="#5B38D2"/>
<stop offset="1" stop-color="#CF4DA7"/>
</linearGradient>
</defs>
</svg>
