<svg width="20" height="20" viewBox="0 0 20 20" fill="none" xmlns="http://www.w3.org/2000/svg">
<path d="M12.9167 9.16699C13.6071 9.16699 14.1667 8.60735 14.1667 7.91699C14.1667 7.22664 13.6071 6.66699 12.9167 6.66699C12.2264 6.66699 11.6667 7.22664 11.6667 7.91699C11.6667 8.60735 12.2264 9.16699 12.9167 9.16699Z" fill="#7A757F"/>
<path d="M7.08342 9.16699C7.77377 9.16699 8.33342 8.60735 8.33342 7.91699C8.33342 7.22664 7.77377 6.66699 7.08342 6.66699C6.39306 6.66699 5.83342 7.22664 5.83342 7.91699C5.83342 8.60735 6.39306 9.16699 7.08342 9.16699Z" fill="#7A757F"/>
<path d="M10.0001 15.0003C11.9001 15.0003 13.5167 13.617 14.1667 11.667H5.83342C6.48342 13.617 8.10008 15.0003 10.0001 15.0003Z" fill="#7A757F"/>
<path d="M9.99175 1.66699C5.39175 1.66699 1.66675 5.40033 1.66675 10.0003C1.66675 14.6003 5.39175 18.3337 9.99175 18.3337C14.6001 18.3337 18.3334 14.6003 18.3334 10.0003C18.3334 5.40033 14.6001 1.66699 9.99175 1.66699ZM10.0001 16.667C6.31675 16.667 3.33341 13.6837 3.33341 10.0003C3.33341 6.31699 6.31675 3.33366 10.0001 3.33366C13.6834 3.33366 16.6667 6.31699 16.6667 10.0003C16.6667 13.6837 13.6834 16.667 10.0001 16.667Z" fill="#7A757F"/>
</svg>
