<svg width="18" height="18" viewBox="0 0 18 18" fill="none" xmlns="http://www.w3.org/2000/svg">
<path d="M2.63627 15.363C1.77667 14.5328 1.09103 13.5397 0.619353 12.4416C0.147672 11.3436 -0.100604 10.1626 -0.110988 8.96761C-0.121373 7.77259 0.106343 6.58748 0.558871 5.48141C1.0114 4.37534 1.67968 3.37048 2.52471 2.52544C3.36975 1.68041 4.37461 1.01213 5.48068 0.559603C6.58675 0.107075 7.77186 -0.12064 8.96688 -0.110256C10.1619 -0.0998715 11.3429 0.148405 12.4409 0.620085C13.5389 1.09177 14.532 1.77741 15.3623 2.637C17.0017 4.33442 17.9088 6.60784 17.8883 8.96761C17.8678 11.3274 16.9213 13.5847 15.2526 15.2534C13.584 16.922 11.3266 17.8686 8.96688 17.8891C6.60711 17.9096 4.33369 17.0024 2.63627 15.363ZM3.90527 14.094C5.25628 15.445 7.08864 16.204 8.99927 16.204C10.9099 16.204 12.7423 15.445 14.0933 14.094C15.4443 12.743 16.2033 10.9106 16.2033 9C16.2033 7.08938 15.4443 5.25701 14.0933 3.906C12.7423 2.55499 10.9099 1.79599 8.99927 1.79599C7.08864 1.79599 5.25628 2.55499 3.90527 3.906C2.55425 5.25701 1.79526 7.08938 1.79526 9C1.79526 10.9106 2.55425 12.743 3.90527 14.094ZM12.8153 6.453L10.2683 9L12.8153 11.547L11.5463 12.816L8.99927 10.269L6.45227 12.816L5.18327 11.547L7.73027 9L5.18327 6.453L6.45227 5.184L8.99927 7.731L11.5463 5.184L12.8153 6.453Z" fill="#6B7A87"/>
</svg>
