<svg width="20" height="20" viewBox="0 0 20 20" fill="none" xmlns="http://www.w3.org/2000/svg">
<path d="M9.16797 14.168H10.8346V9.16797H9.16797V14.168ZM10.0013 7.5013C10.2374 7.5013 10.4355 7.4213 10.5955 7.2613C10.7555 7.1013 10.8352 6.90352 10.8346 6.66797C10.8346 6.43186 10.7546 6.2338 10.5946 6.0738C10.4346 5.9138 10.2369 5.83408 10.0013 5.83464C9.76519 5.83464 9.56713 5.91464 9.40714 6.07464C9.24714 6.23464 9.16741 6.43241 9.16797 6.66797C9.16797 6.90408 9.24797 7.10214 9.40797 7.26214C9.56797 7.42214 9.76575 7.50186 10.0013 7.5013ZM10.0013 18.3346C8.84852 18.3346 7.76519 18.1157 6.7513 17.678C5.73741 17.2402 4.85547 16.6466 4.10547 15.8971C3.35547 15.1471 2.76186 14.2652 2.32464 13.2513C1.88741 12.2374 1.66852 11.1541 1.66797 10.0013C1.66797 8.84852 1.88686 7.76519 2.32464 6.7513C2.76241 5.73741 3.35602 4.85547 4.10547 4.10547C4.85547 3.35547 5.73741 2.76186 6.7513 2.32464C7.76519 1.88741 8.84852 1.66852 10.0013 1.66797C11.1541 1.66797 12.2374 1.88686 13.2513 2.32464C14.2652 2.76241 15.1471 3.35602 15.8971 4.10547C16.6471 4.85547 17.241 5.73741 17.6788 6.7513C18.1166 7.76519 18.3352 8.84852 18.3346 10.0013C18.3346 11.1541 18.1157 12.2374 17.678 13.2513C17.2402 14.2652 16.6466 15.1471 15.8971 15.8971C15.1471 16.6471 14.2652 17.241 13.2513 17.6788C12.2374 18.1166 11.1541 18.3352 10.0013 18.3346Z" fill="#0F6BBF"/>
</svg>
