<svg width="14" height="8" viewBox="0 0 14 8" fill="none" xmlns="http://www.w3.org/2000/svg">
<path fill-rule="evenodd" clip-rule="evenodd" d="M7.70637 7.70701C7.51884 7.89448 7.26453 7.99979 6.99937 7.99979C6.7342 7.99979 6.47989 7.89448 6.29237 7.70701L0.635367 2.05001C0.539856 1.95776 0.463674 1.84742 0.411265 1.72541C0.358856 1.60341 0.33127 1.47219 0.330116 1.33941C0.328962 1.20663 0.354264 1.07495 0.404545 0.952054C0.454826 0.829157 0.529079 0.717505 0.622972 0.623612C0.716864 0.529719 0.828516 0.455466 0.951412 0.405185C1.07431 0.354904 1.20599 0.329603 1.33877 0.330757C1.47155 0.331911 1.60277 0.359497 1.72477 0.411906C1.84677 0.464315 1.95712 0.540497 2.04937 0.636007L6.99937 5.58601L11.9494 0.636007C12.138 0.453849 12.3906 0.353055 12.6528 0.355333C12.915 0.357611 13.1658 0.46278 13.3512 0.648188C13.5366 0.833596 13.6418 1.08441 13.644 1.34661C13.6463 1.6088 13.5455 1.86141 13.3634 2.05001L7.70637 7.70701Z" fill="#051F4E"/>
</svg>
