<svg width="202" height="203" viewBox="0 0 202 203" fill="none" xmlns="http://www.w3.org/2000/svg">
<g clip-path="url(#clip0_4368_459030)">
<path d="M162.863 86.0574C157.139 57.0199 131.637 35.2207 101 35.2207C76.6758 35.2207 55.55 49.024 45.0292 69.224C19.695 71.9174 0 93.3799 0 119.387C0 147.247 22.6408 169.887 50.5 169.887H159.917C183.147 169.887 202 151.034 202 127.804C202 105.584 184.746 87.5724 162.863 86.0574ZM159.917 153.054H50.5C31.8992 153.054 16.8333 137.988 16.8333 119.387C16.8333 102.133 29.7108 87.7407 46.7967 85.9732L55.8025 85.0474L60.0108 77.0515C68.0067 61.649 83.6617 52.054 101 52.054C123.052 52.054 142.073 67.709 146.366 89.3399L148.891 101.965L161.768 102.891C174.898 103.732 185.167 114.758 185.167 127.804C185.167 141.692 173.804 153.054 159.917 153.054ZM67.3333 110.971H88.7958V136.221H113.204V110.971H134.667L101 77.304L67.3333 110.971Z" fill="#E7E0EB"/>
</g>
<defs>
<clipPath id="clip0_4368_459030">
<rect width="202" height="202" fill="white" transform="translate(0 0.5)"/>
</clipPath>
</defs>
</svg>
