<svg width="16" height="13" viewBox="0 0 16 13" fill="none" xmlns="http://www.w3.org/2000/svg">
<path d="M11.3199 2.26928L13.0775 3.68061L11.3199 2.26928ZM12.4501 1.02595L7.69763 4.84395C7.45208 5.04095 7.2846 5.29194 7.21633 5.56528L6.77734 7.33061L8.97476 6.97728C9.31499 6.92261 9.62701 6.78861 9.87264 6.59128L14.6251 2.77328C14.7679 2.65855 14.8812 2.52234 14.9585 2.37244C15.0358 2.22253 15.0756 2.06187 15.0756 1.89961C15.0756 1.73736 15.0358 1.57669 14.9585 1.42679C14.8812 1.27688 14.7679 1.14068 14.6251 1.02595C14.4823 0.911216 14.3128 0.820205 14.1262 0.758113C13.9396 0.696021 13.7396 0.664062 13.5376 0.664062C13.3357 0.664063 13.1357 0.696021 12.9491 0.758113C12.7625 0.820205 12.5929 0.911216 12.4501 1.02595V1.02595Z" stroke="#C0BEFF" stroke-width="1.25" stroke-linecap="round" stroke-linejoin="round"/>
<path d="M13.4163 8.66667V10.6667C13.4163 11.0203 13.2415 11.3594 12.9302 11.6095C12.619 11.8595 12.1968 12 11.7567 12H2.62843C2.18825 12 1.76611 11.8595 1.45486 11.6095C1.14361 11.3594 0.96875 11.0203 0.96875 10.6667V3.33333C0.96875 2.97971 1.14361 2.64057 1.45486 2.39052C1.76611 2.14048 2.18825 2 2.62843 2H5.11794" stroke="#C0BEFF" stroke-width="1.25" stroke-linecap="round" stroke-linejoin="round"/>
</svg>
