<svg width="44" height="45" viewBox="0 0 44 45" fill="none" xmlns="http://www.w3.org/2000/svg">
<path d="M33.5025 6.90186H10.0751C4.87295 6.90186 0.655792 11.119 0.655792 16.3211V34.2002C0.655792 39.4023 4.87295 43.6195 10.0751 43.6195H33.5025C38.7047 43.6195 42.9218 39.4023 42.9218 34.2002V16.3211C42.9218 11.119 38.7047 6.90186 33.5025 6.90186Z" fill="#961DF5"/>
<path d="M0.703918 18.2446H42.9699V19.0096H0.703918V18.2446Z" fill="#6750A4"/>
<path d="M42.9699 32.3183V35.399C42.9642 37.6032 42.0862 39.7154 40.5278 41.2742C38.9695 42.8329 36.8575 43.7115 34.6534 43.7178H9.02161C6.8173 43.7118 4.70501 42.8333 3.14642 41.2746C1.58783 39.7158 0.709689 37.6034 0.703921 35.399V15.3157C0.703615 14.8931 0.735767 14.4711 0.800092 14.0535V31.0561C0.806148 33.2602 1.68442 35.3723 3.24298 36.9309C4.80154 38.4894 6.91366 39.3677 9.11778 39.3737H34.7528C36.7377 39.3667 38.6551 38.6526 40.161 37.3596C41.6669 36.0666 42.6628 34.2793 42.9699 32.3183Z" fill="#6750A4"/>
<path d="M39.432 26.3211C39.6631 26.317 39.8285 25.093 39.8015 23.5874C39.7744 22.0817 39.5651 20.8645 39.334 20.8687C39.1028 20.8729 38.9374 22.0968 38.9645 23.6024C38.9916 25.1081 39.2009 26.3253 39.432 26.3211Z" fill="white"/>
<path d="M39.4883 30.2938C39.7194 30.2896 39.8958 29.6757 39.8823 28.9226C39.8687 28.1695 39.6704 27.5623 39.4392 27.5665C39.2081 27.5706 39.0317 28.1845 39.0453 28.9376C39.0588 29.6908 39.2572 30.2979 39.4883 30.2938Z" fill="white"/>
<path d="M42.9218 15.0261V17.4686H0.800049V13.8622C0.735724 14.2799 0.703572 14.7018 0.703878 15.1244V17.4708H0.655792V15.0261C0.662136 12.8223 1.54038 10.7106 3.09868 9.15236C4.65697 7.59406 6.76864 6.71582 8.97239 6.70947H34.6052C36.809 6.71582 38.9206 7.59406 40.4789 9.15236C42.0372 10.7106 42.9155 12.8223 42.9218 15.0261Z" fill="#FFD947"/>
<path d="M43.4046 15.5091V17.9516H43.2276C42.8302 16.0857 41.8058 14.4122 40.3249 13.2096C38.8439 12.007 36.9957 11.3479 35.088 11.3421H9.45519C7.54671 11.3469 5.69751 12.0056 4.21565 13.2082C2.73379 14.4109 1.70874 16.085 1.31126 17.9516H1.27847V14.3452C1.21415 14.7629 1.182 15.1849 1.1823 15.6075V17.9538H1.13422V15.5091C1.14028 13.3044 2.019 11.1918 3.57826 9.63314C5.13753 8.07449 7.25049 7.1966 9.45519 7.19141H35.0869C37.291 7.19746 39.4032 8.07573 40.9617 9.63429C42.5203 11.1929 43.3986 13.305 43.4046 15.5091Z" fill="#F3A70F"/>
<path d="M0.655792 17.0063H42.9218V18.3178H0.655792V17.0063Z" fill="#426572"/>
<path d="M33.5024 44.2751H10.075C7.40383 44.2722 4.84289 43.2098 2.95409 41.321C1.06529 39.4322 0.00289275 36.8713 0 34.2001L0 16.3211C0.00289275 13.6499 1.06529 11.089 2.95409 9.20019C4.84289 7.31139 7.40383 6.24899 10.075 6.24609H33.5024C36.1736 6.24899 38.7346 7.31139 40.6234 9.20019C42.5122 11.089 43.5746 13.6499 43.5774 16.3211V34.2001C43.5746 36.8713 42.5122 39.4322 40.6234 41.321C38.7346 43.2098 36.1736 44.2722 33.5024 44.2751ZM10.075 7.55752C7.75155 7.56012 5.52401 8.48426 3.88109 10.1272C2.23816 11.7701 1.31402 13.9976 1.31142 16.3211V34.2001C1.31402 36.5236 2.23816 38.7511 3.88109 40.394C5.52401 42.037 7.75155 42.9611 10.075 42.9637H33.5024C35.8259 42.9611 38.0534 42.037 39.6964 40.394C41.3393 38.7511 42.2634 36.5236 42.266 34.2001V16.3211C42.2634 13.9976 41.3393 11.7701 39.6964 10.1272C38.0534 8.48426 35.8259 7.56012 33.5024 7.55752H10.075Z" fill="#426572"/>
<path d="M14.9851 3.95882C14.9851 2.67986 13.9483 1.64307 12.6694 1.64307C11.3904 1.64307 10.3536 2.67986 10.3536 3.95882V9.5564C10.3536 10.8354 11.3904 11.8722 12.6694 11.8722C13.9483 11.8722 14.9851 10.8354 14.9851 9.5564V3.95882Z" fill="#961DF5"/>
<path d="M32.4511 3.95882C32.4511 2.67986 31.4143 1.64307 30.1353 1.64307C28.8564 1.64307 27.8196 2.67986 27.8196 3.95882V9.5564C27.8196 10.8354 28.8564 11.8722 30.1353 11.8722C31.4143 11.8722 32.4511 10.8354 32.4511 9.5564V3.95882Z" fill="#961DF5"/>
<path d="M12.6695 12.5278C11.8817 12.5269 11.1264 12.2136 10.5693 11.6565C10.0123 11.0995 9.69893 10.3442 9.69806 9.55635V3.95877C9.69806 3.17069 10.0111 2.41488 10.5684 1.85763C11.1256 1.30037 11.8814 0.987305 12.6695 0.987305C13.4576 0.987305 14.2134 1.30037 14.7707 1.85763C15.3279 2.41488 15.641 3.17069 15.641 3.95877V9.55635C15.6401 10.3442 15.3268 11.0995 14.7697 11.6565C14.2126 12.2136 13.4573 12.5269 12.6695 12.5278ZM12.6695 2.29873C12.2294 2.2993 11.8075 2.47439 11.4963 2.78558C11.1851 3.09677 11.0101 3.51867 11.0095 3.95877V9.55635C11.0095 9.99662 11.1844 10.4189 11.4957 10.7302C11.807 11.0415 12.2293 11.2164 12.6695 11.2164C13.1098 11.2164 13.532 11.0415 13.8433 10.7302C14.1547 10.4189 14.3296 9.99662 14.3296 9.55635V3.95877C14.329 3.51867 14.1539 3.09677 13.8427 2.78558C13.5315 2.47439 13.1096 2.2993 12.6695 2.29873Z" fill="#426572"/>
<path d="M30.1353 12.5278C29.3474 12.5269 28.5921 12.2136 28.0351 11.6565C27.478 11.0995 27.1647 10.3442 27.1638 9.55635V3.95877C27.1638 3.17069 27.4769 2.41488 28.0341 1.85763C28.5914 1.30037 29.3472 0.987305 30.1353 0.987305C30.9233 0.987305 31.6791 1.30037 32.2364 1.85763C32.7936 2.41488 33.1067 3.17069 33.1067 3.95877V9.55635C33.1058 10.3442 32.7925 11.0995 32.2354 11.6565C31.6784 12.2136 30.9231 12.5269 30.1353 12.5278ZM30.1353 2.29873C29.6952 2.2993 29.2733 2.47439 28.9621 2.78558C28.6509 3.09677 28.4758 3.51867 28.4752 3.95877V9.55635C28.4752 9.99662 28.6501 10.4189 28.9614 10.7302C29.2727 11.0415 29.695 11.2164 30.1353 11.2164C30.5755 11.2164 30.9978 11.0415 31.3091 10.7302C31.6204 10.4189 31.7953 9.99662 31.7953 9.55635V3.95877C31.7947 3.51867 31.6196 3.09677 31.3084 2.78558C30.9972 2.47439 30.5753 2.2993 30.1353 2.29873Z" fill="#426572"/>
<path d="M18.7276 37.492C17.7944 37.492 16.9531 37.3365 16.2037 37.0254C15.4544 36.7002 14.8605 36.1841 14.4222 35.4771C13.9839 34.756 13.7647 33.8016 13.7647 32.6139V26.7391C13.7647 25.5513 13.9839 24.604 14.4222 23.897C14.8605 23.1759 15.4544 22.6599 16.2037 22.3488C16.9531 22.0236 17.7944 21.861 18.7276 21.861C19.6608 21.861 20.5021 22.0236 21.2515 22.3488C22.015 22.6599 22.6159 23.1759 23.0542 23.897C23.4926 24.604 23.7117 25.5513 23.7117 26.7391V32.6139C23.7117 33.8016 23.4926 34.756 23.0542 35.4771C22.6159 36.1841 22.015 36.7002 21.2515 37.0254C20.5021 37.3365 19.6608 37.492 18.7276 37.492ZM18.7276 35.0742C19.4204 35.0742 19.9648 34.8762 20.3607 34.4803C20.7566 34.0844 20.9545 33.4623 20.9545 32.6139V26.7391C20.9545 25.8907 20.7566 25.2686 20.3607 24.8727C19.9648 24.4768 19.4204 24.2788 18.7276 24.2788C18.0348 24.2788 17.4904 24.4768 17.0945 24.8727C16.7128 25.2686 16.5219 25.8907 16.5219 26.7391V32.6139C16.5219 33.4623 16.7128 34.0844 17.0945 34.4803C17.4904 34.8762 18.0348 35.0742 18.7276 35.0742ZM18.7276 30.6839C18.4307 30.6839 18.1903 30.592 18.0065 30.4082C17.8368 30.2103 17.752 29.9699 17.752 29.6871C17.752 29.3902 17.8368 29.1569 18.0065 28.9872C18.1903 28.8034 18.4307 28.7115 18.7276 28.7115C19.0387 28.7115 19.279 28.8034 19.4487 28.9872C19.6325 29.1569 19.7244 29.3902 19.7244 29.6871C19.7244 29.9699 19.6325 30.2103 19.4487 30.4082C19.279 30.592 19.0387 30.6839 18.7276 30.6839ZM28.157 37.3647C27.8176 37.3647 27.4995 37.294 27.2026 37.1527C26.9198 36.9971 26.7784 36.7709 26.7784 36.474V25.1696L26.0997 25.8483C26.0149 25.9048 25.93 25.9543 25.8452 25.9967C25.7604 26.025 25.6826 26.0392 25.6119 26.0392C25.3433 26.0392 25.1241 25.926 24.9544 25.6998C24.7989 25.4594 24.7211 25.1979 24.7211 24.9151C24.7211 24.7313 24.7635 24.5545 24.8484 24.3849C24.9332 24.201 25.0605 24.0526 25.2301 23.9395L27.7328 22.0307C27.8176 21.96 27.9025 21.9105 27.9873 21.8822C28.0863 21.8398 28.1994 21.8186 28.3267 21.8186C28.6094 21.8186 28.8781 21.9034 29.1326 22.0731C29.4012 22.2286 29.5356 22.4478 29.5356 22.7306V36.474C29.5356 36.7709 29.3942 36.9971 29.1114 37.1527C28.8286 37.294 28.5105 37.3647 28.157 37.3647Z" fill="white"/>
</svg>
