<svg width="41" height="41" viewBox="0 0 41 41" fill="none" xmlns="http://www.w3.org/2000/svg">
<g clip-path="url(#clip0_7734_222266)">
<path d="M21.5 22.562V30.5H12.5C12.4999 29.3649 12.7413 28.2428 13.2083 27.2083C13.6752 26.1737 14.357 25.2503 15.2082 24.4995C16.0595 23.7487 17.0608 23.1876 18.1456 22.8536C19.2304 22.5195 20.3738 22.4201 21.5 22.562ZM20.5 21.5C17.185 21.5 14.5 18.815 14.5 15.5C14.5 12.185 17.185 9.5 20.5 9.5C23.815 9.5 26.5 12.185 26.5 15.5C26.5 18.815 23.815 21.5 20.5 21.5ZM26.293 28.414L29.828 24.879L31.243 26.293L26.293 31.243L22.757 27.707L24.172 26.293L26.292 28.414H26.293Z" fill="#0F6BBF"/>
</g>
<rect x="1" y="1" width="39" height="39" rx="19.5" stroke="#0F6BBF"/>
<defs>
<clipPath id="clip0_7734_222266">
<rect width="24" height="24" fill="white" transform="translate(8.5 8.5)"/>
</clipPath>
</defs>
</svg>
