<svg width="25" height="24" viewBox="0 0 25 24" fill="none" xmlns="http://www.w3.org/2000/svg">
<path d="M12.7508 16.9242C11.7877 16.9242 11 16.1365 11 15.1735V14.5457C11 13.5826 11.7877 12.7949 12.7508 12.7949C13.7138 12.7949 14.5015 13.5826 14.5015 14.5457V15.1735C14.5015 16.1365 13.7138 16.9242 12.7508 16.9242Z" fill="#A400FF"/>
<path d="M13.737 17.1641C13.4407 17.3172 13.1061 17.4058 12.7513 17.4058C12.3966 17.4058 12.0615 17.3176 11.7655 17.1641C10.4418 17.3615 9.41797 18.5104 9.41797 19.8867V21.6977C9.41797 21.8634 9.55342 21.9989 9.71915 21.9989H15.7834C15.9491 21.9989 16.0845 21.8634 16.0845 21.6977L16.0847 19.8867C16.0847 18.5104 15.0609 17.3615 13.7372 17.1641H13.737Z" fill="#A400FF"/>
<path d="M19.4148 6.13061C18.4518 6.13061 17.6641 5.3429 17.6641 4.37985V3.75206C17.6641 2.78885 18.4518 2.00098 19.4148 2.00098C20.3779 2.00098 21.1656 2.78868 21.1656 3.75173V4.37953C21.1656 5.34258 20.3775 6.13061 19.4148 6.13061Z" fill="#A400FF"/>
<path d="M20.4011 6.36914C20.1048 6.52232 19.7702 6.61084 19.4153 6.61084C19.0606 6.61084 18.7255 6.52264 18.4295 6.36914C17.1058 6.56658 16.082 7.71546 16.082 9.09175V10.9028C16.082 11.0685 16.2175 11.204 16.3832 11.204H22.4474C22.6132 11.204 22.7486 11.0685 22.7486 10.9028L22.7489 9.09175C22.7489 7.71546 21.7252 6.56674 20.4013 6.36914H20.4011Z" fill="#A400FF"/>
<path d="M6.08279 6.13061C5.11974 6.13061 4.33203 5.3429 4.33203 4.37985V3.75206C4.33203 2.78885 5.12006 2.00098 6.08279 2.00098C7.04584 2.00098 7.83355 2.78868 7.83355 3.75173V4.37953C7.83355 5.34258 7.04584 6.13061 6.08279 6.13061Z" fill="#A400FF"/>
<path d="M7.0694 6.36914C6.77308 6.52232 6.43847 6.61084 6.08361 6.61084C5.7289 6.61084 5.39381 6.52264 5.09782 6.36914C3.7738 6.56674 2.75 7.71546 2.75 9.09175V10.9028C2.75 11.0685 2.88545 11.204 3.05119 11.204H9.11539C9.28113 11.204 9.41658 11.0685 9.41658 10.9028L9.41674 9.09175C9.41705 7.71546 8.3931 6.56674 7.06956 6.36914H7.0694Z" fill="#A400FF"/>
<path d="M10.0743 8.88688C10.8999 8.62761 11.8027 8.48369 12.7489 8.48369C13.6951 8.48369 14.5979 8.62777 15.4234 8.88688C15.4512 8.43142 15.5692 7.99555 15.7632 7.60084C14.8272 7.31111 13.8111 7.15039 12.7489 7.15039C11.6867 7.15039 10.6709 7.31111 9.73438 7.60084C9.92868 7.99588 10.0465 8.43142 10.0743 8.88688H10.0743Z" fill="#A400FF"/>
<path d="M9.05607 18.4849C7.03535 17.5341 5.68481 15.8278 5.68481 13.8844C5.68481 13.173 5.8675 12.4939 6.19601 11.8711H4.7353C4.48623 12.507 4.35156 13.1833 4.35156 13.8844C4.35156 16.4372 6.13261 18.6625 8.75076 19.8036C8.76221 19.3377 8.87004 18.8916 9.05602 18.4849H9.05607Z" fill="#A400FF"/>
<path d="M20.7622 11.8711H19.3015C19.63 12.4935 19.8127 13.1728 19.8127 13.8844C19.8127 15.8278 18.4621 17.5336 16.4414 18.4849C16.6274 18.8917 16.7352 19.3379 16.747 19.8036C19.365 18.6626 21.1458 16.437 21.1458 13.8844C21.1458 13.183 21.0113 12.5069 20.762 11.8711H20.7622Z" fill="#A400FF"/>
</svg>
