<svg width="25" height="24" viewBox="0 0 25 24" fill="none" xmlns="http://www.w3.org/2000/svg">
<path fill-rule="evenodd" clip-rule="evenodd" d="M9.45389 17.8198C9.45389 19.2418 8.30119 20.3945 6.87921 20.3945C5.45738 20.3945 4.30469 19.2418 4.30469 17.8198C4.30469 16.3978 5.45738 15.2451 6.87921 15.2451C8.30119 15.2451 9.45389 16.3978 9.45389 17.8198Z" fill="#A400FF"/>
<path fill-rule="evenodd" clip-rule="evenodd" d="M15.7036 17.8195C15.7036 19.2413 14.551 20.3938 13.1292 20.3938C11.7074 20.3938 10.5547 19.2413 10.5547 17.8195C10.5547 16.3977 11.7074 15.2451 13.1292 15.2451C14.551 15.2451 15.7036 16.3977 15.7036 17.8195Z" fill="#A400FF"/>
<path fill-rule="evenodd" clip-rule="evenodd" d="M22.0356 17.8195C22.0356 19.2413 20.8829 20.3938 19.4611 20.3938C18.0393 20.3938 16.8867 19.2413 16.8867 17.8195C16.8867 16.3977 18.0393 15.2451 19.4611 15.2451C20.8829 15.2451 22.0356 16.3977 22.0356 17.8195Z" fill="#A400FF"/>
<path fill-rule="evenodd" clip-rule="evenodd" d="M9.1152 9.16795C9.1152 10.9256 7.69028 12.3504 5.9326 12.3504C4.17492 12.3504 2.75 10.9256 2.75 9.16795C2.75 7.41027 4.17492 5.98535 5.9326 5.98535C7.69028 5.98535 9.1152 7.41027 9.1152 9.16795Z" fill="#A400FF"/>
<path fill-rule="evenodd" clip-rule="evenodd" d="M9.62109 14.9127L9.62386 14.9102V14.9155L9.62109 14.9127Z" fill="#A400FF"/>
<path fill-rule="evenodd" clip-rule="evenodd" d="M11.685 9.38281L10.8427 10.2163L9.49571 11.5476L8.88672 12.1499L11.5071 9.5295C11.5628 9.47385 11.6228 9.42501 11.6849 9.38284L11.685 9.38281Z" fill="#A400FF"/>
<path d="M22.7524 4.27904V13.0003C22.7478 13.367 22.4501 13.6607 22.0856 13.6607L12.1684 13.6608L13.5176 12.3272H21.4121V4.93903H10.8973V9.15759L9.57031 10.4889V4.26562C9.57248 3.90113 9.87031 3.60547 10.2371 3.60547H22.086C22.2638 3.60547 22.4349 3.67663 22.5594 3.8033C22.6839 3.92996 22.7528 4.10112 22.7528 4.27893L22.7524 4.27904Z" fill="#A400FF"/>
<path d="M13.6809 10.4326C13.6809 10.6526 13.6231 10.8727 13.5076 11.0683L12.2318 12.3285L10.8827 13.6622L9.64019 14.889L9.62019 14.9025L9.62035 14.909L9.61818 14.9115L9.62035 14.9136V15.685L9.34469 15.3516C8.70236 14.7093 7.81559 14.3137 6.83542 14.3137C5.36629 14.3137 4.10599 15.2075 3.56602 16.4784L3.45719 16.8341L3.45703 13.5954C3.45703 13.0284 3.91719 12.5686 4.48383 12.5686H8.46664L8.88445 12.1508L9.49344 11.5484L10.8404 10.2171L11.6827 9.38367C11.9006 9.23251 12.1539 9.15918 12.4074 9.15918C12.7319 9.15918 13.0585 9.28135 13.3075 9.53034C13.5565 9.77917 13.6809 10.106 13.6809 10.4326L13.6809 10.4326Z" fill="#A400FF"/>
<path d="M11.6822 9.38281L10.8398 10.2163V10.1941L11.5043 9.52964C11.56 9.47383 11.62 9.42498 11.6822 9.38281Z" fill="#A400FF"/>
<path d="M9.49571 11.54V11.5467L8.88672 12.149L9.49571 11.54Z" fill="#A400FF"/>
<path d="M10.8431 10.1953V10.2176L9.49609 11.5489V11.5423L10.8431 10.1953Z" fill="#A400FF"/>
<path d="M9.62386 14.9102V14.9155L9.62109 14.9127L9.62386 14.9102Z" fill="#A400FF"/>
</svg>
