<svg width="25" height="24" viewBox="0 0 25 24" fill="none" xmlns="http://www.w3.org/2000/svg">
<path d="M15.25 18C14.55 18 13.9583 17.7583 13.475 17.275C12.9917 16.7917 12.75 16.2 12.75 15.5C12.75 14.8 12.9917 14.2083 13.475 13.725C13.9583 13.2417 14.55 13 15.25 13C15.95 13 16.5417 13.2417 17.025 13.725C17.5083 14.2083 17.75 14.8 17.75 15.5C17.75 16.2 17.5083 16.7917 17.025 17.275C16.5417 17.7583 15.95 18 15.25 18ZM5.75 22C5.2 22 4.729 21.8043 4.337 21.413C3.94567 21.021 3.75 20.55 3.75 20V6C3.75 5.45 3.94567 4.97933 4.337 4.588C4.729 4.196 5.2 4 5.75 4H6.75V3C6.75 2.71667 6.84567 2.479 7.037 2.287C7.229 2.09567 7.46667 2 7.75 2C8.03333 2 8.271 2.09567 8.463 2.287C8.65433 2.479 8.75 2.71667 8.75 3V4H16.75V3C16.75 2.71667 16.846 2.479 17.038 2.287C17.2293 2.09567 17.4667 2 17.75 2C18.0333 2 18.2707 2.09567 18.462 2.287C18.654 2.479 18.75 2.71667 18.75 3V4H19.75C20.3 4 20.771 4.196 21.163 4.588C21.5543 4.97933 21.75 5.45 21.75 6V20C21.75 20.55 21.5543 21.021 21.163 21.413C20.771 21.8043 20.3 22 19.75 22H5.75ZM5.75 20H19.75V10H5.75V20Z" fill="#A400FF"/>
</svg>
