<svg width="25" height="24" viewBox="0 0 25 24" fill="none" xmlns="http://www.w3.org/2000/svg">
<g clip-path="url(#clip0_3452_201291)">
<path d="M22.8414 24.0001C23.5729 24.0001 24.166 23.407 24.166 22.6755V1.32459C24.166 0.592969 23.5729 0 22.8414 0H1.49061C0.758891 0 0.166016 0.592969 0.166016 1.32459V22.6755C0.166016 23.407 0.758891 24.0001 1.49061 24.0001H22.8414Z" fill="#395185"/>
<path d="M16.7255 24.0002V14.7062H19.8452L20.3122 11.0841H16.7255V8.7715C16.7255 7.72281 17.0167 7.00816 18.5206 7.00816L20.4386 7.00731V3.76778C20.1067 3.72362 18.9682 3.625 17.6437 3.625C14.8783 3.625 12.9851 5.31297 12.9851 8.41291V11.0841H9.85742V14.7062H12.9851V24.0002H16.7255Z" fill="white"/>
</g>
<defs>
<clipPath id="clip0_3452_201291">
<rect width="24" height="24" fill="white" transform="translate(0.166016)"/>
</clipPath>
</defs>
</svg>
