<svg width="25" height="24" viewBox="0 0 25 24" fill="none" xmlns="http://www.w3.org/2000/svg">
<g clip-path="url(#clip0_3452_201157)">
<path d="M24.3313 12.2658C24.3458 11.4408 24.2589 10.6171 24.0725 9.8125H12.5762V14.2658H19.3244C19.1966 15.0466 18.9089 15.794 18.4787 16.4631C18.0485 17.1321 17.4846 17.709 16.8211 18.159L16.7975 18.3082L20.4327 21.0678L20.6844 21.0925C22.9972 18.9991 24.3308 15.919 24.3308 12.2658" fill="#4285F4"/>
<path d="M12.5774 24.0017C15.8835 24.0017 18.659 22.935 20.6864 21.095L16.8223 18.1615C15.7884 18.8684 14.4007 19.3617 12.5774 19.3617C11.029 19.3529 9.52275 18.8664 8.27236 17.9712C7.02196 17.0761 6.09094 15.8179 5.61138 14.375L5.46788 14.387L1.68807 17.2536L1.63867 17.3883C2.65667 19.3765 4.21895 21.0481 6.15082 22.216C8.0827 23.384 10.308 24.0022 12.5779 24.0017" fill="#34A853"/>
<path d="M5.61082 14.373C5.34299 13.6092 5.20479 12.8074 5.20172 11.9998C5.20665 11.1934 5.33975 10.3927 5.59624 9.6265L5.58941 9.46743L1.76326 6.55469L1.63811 6.61302C0.779346 8.28392 0.332031 10.1288 0.332031 11.9996C0.332031 13.8705 0.779346 15.7154 1.63811 17.3863L5.61082 14.373" fill="#FBBC05"/>
<path d="M12.576 4.64083C14.3306 4.61413 16.0275 5.25451 17.3107 6.42758L20.7665 3.12083C18.55 1.0831 15.6149 -0.0349837 12.576 0.000834765C10.3061 0.000305505 8.08079 0.618558 6.14892 1.78646C4.21704 2.95436 2.65475 4.62587 1.63672 6.61409L5.59626 9.62758C6.08054 8.18494 7.01465 6.92765 8.26688 6.03298C9.51912 5.1383 11.0263 4.65137 12.576 4.64083" fill="#EB4335"/>
</g>
<defs>
<clipPath id="clip0_3452_201157">
<rect width="24" height="24" fill="white" transform="translate(0.332031)"/>
</clipPath>
</defs>
</svg>
