<svg width="61" height="60" viewBox="0 0 61 60" fill="none" xmlns="http://www.w3.org/2000/svg">
<g clip-path="url(#clip0_3452_200988)">
<path fill-rule="evenodd" clip-rule="evenodd" d="M28.7322 28.2322C29.7085 27.2559 31.2915 27.2559 32.2678 28.2322L42.2678 38.2322C43.2441 39.2085 43.2441 40.7915 42.2678 41.7678C41.2915 42.7441 39.7085 42.7441 38.7322 41.7678L30.5 33.5355L22.2678 41.7678C21.2915 42.7441 19.7085 42.7441 18.7322 41.7678C17.7559 40.7915 17.7559 39.2085 18.7322 38.2322L28.7322 28.2322Z" fill="#D6E1EC"/>
<path fill-rule="evenodd" clip-rule="evenodd" d="M30.5 27.5C31.8807 27.5 33 28.6193 33 30V52.5C33 53.8807 31.8807 55 30.5 55C29.1193 55 28 53.8807 28 52.5V30C28 28.6193 29.1193 27.5 30.5 27.5Z" fill="#D6E1EC"/>
<path fill-rule="evenodd" clip-rule="evenodd" d="M22.1599 5.02307C25.5586 4.89785 28.9415 5.54474 32.0542 6.91511C35.1669 8.28548 37.9285 10.3437 40.1313 12.9349C41.9099 15.0273 43.2868 17.4232 44.1993 20.0017H45.5016C48.8342 20.0039 52.0728 21.1158 54.7033 23.162C57.3337 25.2082 59.2079 28.0721 60.0299 31.3017C60.8519 34.5314 60.575 37.9428 59.2429 40.9975C57.9108 44.0523 55.5993 46.5765 52.6733 48.1717C51.461 48.8326 49.9425 48.3856 49.2816 47.1733C48.6207 45.9611 49.0677 44.4426 50.28 43.7817C52.2306 42.7182 53.7716 41.0354 54.6597 38.9989C55.5478 36.9624 55.7324 34.6881 55.1844 32.535C54.6364 30.382 53.3869 28.4727 51.6333 27.1086C49.8797 25.7444 47.7217 25.0031 45.5 25.0017H42.3516C41.2119 25.0017 40.2165 24.2309 39.9312 23.1274C39.2691 20.5664 38.035 18.1888 36.3217 16.1734C34.6084 14.1579 32.4605 12.5571 30.0395 11.4913C27.6185 10.4254 24.9874 9.92228 22.344 10.0197C19.7005 10.1171 17.1135 10.8125 14.7775 12.0536C12.4415 13.2947 10.4172 15.0492 8.85693 17.1853C7.29661 19.3213 6.24083 21.7833 5.76896 24.3861C5.2971 26.9889 5.42142 29.6648 6.1326 32.2127C6.84377 34.7605 8.12329 37.114 9.87495 39.0962C10.7892 40.1308 10.6917 41.7107 9.65709 42.625C8.62248 43.5393 7.04258 43.4418 6.12828 42.4071C3.87614 39.8586 2.23105 36.8327 1.31669 33.5569C0.402322 30.2811 0.242472 26.8407 0.849157 23.4942C1.45584 20.1477 2.81327 16.9823 4.8194 14.236C6.82553 11.4896 9.42814 9.2338 12.4316 7.63808C15.435 6.04237 18.7611 5.14829 22.1599 5.02307Z" fill="#D6E1EC"/>
<path fill-rule="evenodd" clip-rule="evenodd" d="M28.7322 28.2322C29.7085 27.2559 31.2915 27.2559 32.2678 28.2322L42.2678 38.2322C43.2441 39.2085 43.2441 40.7915 42.2678 41.7678C41.2915 42.7441 39.7085 42.7441 38.7322 41.7678L30.5 33.5355L22.2678 41.7678C21.2915 42.7441 19.7085 42.7441 18.7322 41.7678C17.7559 40.7915 17.7559 39.2085 18.7322 38.2322L28.7322 28.2322Z" fill="#D6E1EC"/>
</g>
<defs>
<clipPath id="clip0_3452_200988">
<rect width="60" height="60" fill="white" transform="translate(0.5)"/>
</clipPath>
</defs>
</svg>
