<svg width="25" height="24" viewBox="0 0 25 24" fill="none" xmlns="http://www.w3.org/2000/svg">
<path d="M21.75 2H3.74996C3.19766 2 2.75 2.44766 2.75 2.99997V17C2.75 17.5523 3.19766 18 3.74996 18H10.75V19.9999L7.7499 20.0001V22H17.7499V20.0001H14.7498V18.0001H21.7499C22.3022 18.0001 22.7498 17.5525 22.7498 17.0002V3.00012C22.75 2.44766 22.3023 2 21.75 2V2ZM20.7501 16.0001H4.75001V4.00001H20.7501V16.0001Z" fill="#A400FF"/>
<path d="M16.246 12.7499C16.246 11.6453 15.3507 10.75 14.2461 10.75H11.246C10.1414 10.75 9.24609 11.6453 9.24609 12.7499V14.25H16.2461L16.246 12.7499Z" fill="#A400FF"/>
<path d="M14.7499 7.997C14.7499 9.10161 13.8545 9.99709 12.7499 9.99709C11.6453 9.99709 10.75 9.10161 10.75 7.997C10.75 6.89239 11.6453 5.99707 12.7499 5.99707C13.8545 5.99707 14.7499 6.89239 14.7499 7.997Z" fill="#A400FF"/>
</svg>
