<svg width="25" height="25" viewBox="0 0 25 25" fill="none" xmlns="http://www.w3.org/2000/svg">
<path d="M12.75 17.5762C13.0333 17.5762 13.271 17.4802 13.463 17.2882C13.655 17.0962 13.7507 16.8588 13.75 16.5762V13.5762H16.775C17.0583 13.5762 17.2917 13.4802 17.475 13.2882C17.6583 13.0962 17.75 12.8588 17.75 12.5762C17.75 12.2928 17.654 12.0552 17.462 11.8632C17.27 11.6712 17.0327 11.5755 16.75 11.5762H13.75V8.55117C13.75 8.26784 13.654 8.03451 13.462 7.85117C13.27 7.66784 13.0327 7.57617 12.75 7.57617C12.4667 7.57617 12.229 7.67217 12.037 7.86417C11.845 8.05617 11.7493 8.29351 11.75 8.57617V11.5762H8.725C8.44167 11.5762 8.20833 11.6722 8.025 11.8642C7.84167 12.0562 7.75 12.2935 7.75 12.5762C7.75 12.8595 7.846 13.0972 8.038 13.2892C8.23 13.4812 8.46733 13.5768 8.75 13.5762H11.75V16.6012C11.75 16.8845 11.846 17.1178 12.038 17.3012C12.23 17.4845 12.4673 17.5762 12.75 17.5762ZM12.75 22.5762C11.3667 22.5762 10.0667 22.3135 8.85 21.7882C7.63333 21.2628 6.575 20.5505 5.675 19.6512C4.775 18.7512 4.06267 17.6928 3.538 16.4762C3.01333 15.2595 2.75067 13.9595 2.75 12.5762C2.75 11.1928 3.01267 9.89284 3.538 8.67617C4.06333 7.45951 4.77567 6.40117 5.675 5.50117C6.575 4.60117 7.63333 3.88884 8.85 3.36417C10.0667 2.83951 11.3667 2.57684 12.75 2.57617C14.1333 2.57617 15.4333 2.83884 16.65 3.36417C17.8667 3.88951 18.925 4.60184 19.825 5.50117C20.725 6.40117 21.4377 7.45951 21.963 8.67617C22.4883 9.89284 22.7507 11.1928 22.75 12.5762C22.75 13.9595 22.4873 15.2595 21.962 16.4762C21.4367 17.6928 20.7243 18.7512 19.825 19.6512C18.925 20.5512 17.8667 21.2638 16.65 21.7892C15.4333 22.3145 14.1333 22.5768 12.75 22.5762ZM12.75 20.5762C14.9667 20.5762 16.8543 19.7972 18.413 18.2392C19.9717 16.6812 20.7507 14.7935 20.75 12.5762C20.75 10.3595 19.971 8.47184 18.413 6.91317C16.855 5.35451 14.9673 4.57551 12.75 4.57617C10.5333 4.57617 8.64567 5.35517 7.087 6.91317C5.52833 8.47117 4.74933 10.3588 4.75 12.5762C4.75 14.7928 5.529 16.6805 7.087 18.2392C8.645 19.7978 10.5327 20.5768 12.75 20.5762Z" fill="#A400FF"/>
</svg>
