<svg width="15" height="16" viewBox="0 0 15 16" fill="none" xmlns="http://www.w3.org/2000/svg">
<path d="M6.66667 2.57617C6.88768 2.57617 7.09964 2.66397 7.25592 2.82025C7.4122 2.97653 7.5 3.18849 7.5 3.40951C7.5 3.63052 7.4122 3.84248 7.25592 3.99876C7.09964 4.15504 6.88768 4.24284 6.66667 4.24284H1.66667V13.4095H10.8333V8.4095C10.8333 8.18849 10.9211 7.97653 11.0774 7.82025C11.2337 7.66397 11.4457 7.57617 11.6667 7.57617C11.8877 7.57617 12.0996 7.66397 12.2559 7.82025C12.4122 7.97653 12.5 8.18849 12.5 8.4095V13.4095C12.5 13.8515 12.3244 14.2755 12.0118 14.588C11.6993 14.9006 11.2754 15.0762 10.8333 15.0762H1.66667C1.22464 15.0762 0.800716 14.9006 0.488155 14.588C0.175595 14.2755 0 13.8515 0 13.4095V4.24284C0 3.80081 0.175595 3.37689 0.488155 3.06433C0.800716 2.75177 1.22464 2.57617 1.66667 2.57617H6.66667ZM14.1667 0.0761719C14.3877 0.0761719 14.5996 0.163969 14.7559 0.32025C14.9122 0.47653 15 0.688491 15 0.909505V5.07617C15 5.29719 14.9122 5.50915 14.7559 5.66543C14.5996 5.82171 14.3877 5.9095 14.1667 5.9095C13.9457 5.9095 13.7337 5.82171 13.5774 5.66543C13.4211 5.50915 13.3333 5.29719 13.3333 5.07617V2.92117L6.4225 9.832C6.26533 9.9838 6.05483 10.0678 5.83633 10.0659C5.61784 10.064 5.40882 9.97636 5.25432 9.82185C5.09981 9.66735 5.01217 9.45834 5.01027 9.23984C5.00837 9.02134 5.09237 8.81084 5.24417 8.65367L12.155 1.74284H10C9.77899 1.74284 9.56702 1.65504 9.41074 1.49876C9.25446 1.34248 9.16667 1.13052 9.16667 0.909505C9.16667 0.688491 9.25446 0.47653 9.41074 0.32025C9.56702 0.163969 9.77899 0.0761719 10 0.0761719H14.1667Z" fill="#A400FF"/>
</svg>
