<svg width="18" height="19" viewBox="0 0 18 19" fill="none" xmlns="http://www.w3.org/2000/svg">
<path d="M8.25 5.88147H9.75V7.38147H8.25V5.88147ZM8.25 8.88147H9.75V13.3815H8.25V8.88147ZM9 2.13147C4.86 2.13147 1.5 5.49147 1.5 9.63147C1.5 13.7715 4.86 17.1315 9 17.1315C13.14 17.1315 16.5 13.7715 16.5 9.63147C16.5 5.49147 13.14 2.13147 9 2.13147ZM9 15.6315C5.6925 15.6315 3 12.939 3 9.63147C3 6.32397 5.6925 3.63147 9 3.63147C12.3075 3.63147 15 6.32397 15 9.63147C15 12.939 12.3075 15.6315 9 15.6315Z" fill="#79767A"/>
</svg>
