<svg width="20" height="20" viewBox="0 0 20 20" fill="none" xmlns="http://www.w3.org/2000/svg">
<path d="M12.5633 8.46444L8.32189 10.9254C7.96194 11.1341 7.5 10.8815 7.5 10.4608V5.53883C7.5 5.11888 7.96127 4.86558 8.32189 5.07489L12.5633 7.5359C12.6452 7.58264 12.7133 7.65021 12.7606 7.73174C12.808 7.81328 12.8329 7.90589 12.8329 8.00017C12.8329 8.09445 12.808 8.18706 12.7606 8.2686C12.7133 8.35013 12.6452 8.4177 12.5633 8.46444Z" fill="#051F4E"/>
<path d="M19.0002 3.70878e-06H0.999972C0.447664 3.70878e-06 0 0.447668 0 0.999976V15.0001C0 15.5525 0.447664 16.0001 0.999972 16.0001H8.00006V18.0001L4.99994 18.0002V20.0002H15.0001V18.0002H11.9999V16.0003H19C19.5523 16.0003 20 15.5526 20 15.0003V1.00013C20.0002 0.447664 19.5525 0 19.0002 0V3.70878e-06ZM18.0002 14.0002H2.00002V2.00003H18.0002V14.0002Z" fill="#051F4E"/>
</svg>
