<svg width="41" height="45" viewBox="0 0 41 45" fill="none" xmlns="http://www.w3.org/2000/svg">
<path d="M16.2231 2.71871V0.580414" stroke="#732E54" stroke-width="3.19445" stroke-miterlimit="10" stroke-linecap="round"/>
<path d="M6.72021 2.87985L8.09436 4.42315" stroke="#732E54" stroke-width="3.19445" stroke-miterlimit="10" stroke-linecap="round"/>
<path d="M25.7872 2.87985L24.4199 4.42315" stroke="#732E54" stroke-width="3.19445" stroke-miterlimit="10" stroke-linecap="round"/>
<path opacity="0.8" d="M36.7051 19.664L22.9841 27.7523C22.5835 27.9522 22.1141 28.0067 21.6709 27.905C21.2276 27.8032 20.8435 27.5527 20.5961 27.2041C20.3487 26.8555 20.2565 26.4347 20.3381 26.0268C20.4197 25.6189 20.669 25.2543 21.0357 25.0066L34.7088 16.9183C34.9077 16.8011 35.1301 16.7205 35.3632 16.6812C35.5964 16.6419 35.8359 16.6447 36.0679 16.6893C36.3 16.7339 36.52 16.8195 36.7156 16.9412C36.9111 17.0629 37.0783 17.2183 37.2076 17.3986C37.3369 17.5789 37.4257 17.7805 37.469 17.9919C37.5124 18.2033 37.5094 18.4204 37.4602 18.6308C37.411 18.8411 37.3166 19.0406 37.1823 19.2179C37.0481 19.3952 36.8766 19.5468 36.6777 19.664H36.7051Z" fill="#6750A4"/>
<path opacity="0.8" d="M18.3696 30.4733L9.19495 35.9089C8.99609 36.0261 8.77371 36.1067 8.54051 36.146C8.30731 36.1853 8.06786 36.1825 7.83583 36.1379C7.36722 36.0478 6.95728 35.7927 6.69618 35.4286C6.43508 35.0645 6.34422 34.6213 6.44359 34.1964C6.54295 33.7716 6.8244 33.3999 7.22602 33.1632L16.4007 27.7276C16.8023 27.4909 17.2912 27.4085 17.7598 27.4986C18.2284 27.5887 18.6384 27.8438 18.8995 28.2079C19.1606 28.572 19.2514 29.0153 19.152 29.4401C19.0527 29.8649 18.7712 30.2366 18.3696 30.4733Z" fill="#FF9D23"/>
<path d="M30.2655 17.7674L16.5445 25.8248C16.3457 25.942 16.1233 26.0225 15.8901 26.0618C15.6569 26.1011 15.4175 26.0984 15.1854 26.0538C14.9534 26.0092 14.7333 25.9236 14.5378 25.8019C14.3423 25.6802 14.1751 25.5247 14.0458 25.3444C13.9165 25.1642 13.8277 24.9626 13.7843 24.7511C13.741 24.5397 13.744 24.3226 13.7932 24.1123C13.8424 23.9019 13.9368 23.7024 14.0711 23.5251C14.2053 23.3479 14.3768 23.1963 14.5756 23.0791L28.2898 15.0155C28.6921 14.7931 29.1742 14.7215 29.6338 14.8161C30.0934 14.9106 30.4943 15.1638 30.7514 15.5218C31.0084 15.8799 31.1015 16.3147 31.0108 16.734C30.9201 17.1532 30.6528 17.5239 30.2655 17.7674Z" fill="#AA7DFF"/>
<path d="M11.9228 28.5705L2.75492 33.9813C2.35257 34.2037 1.87044 34.2753 1.41086 34.1807C0.951273 34.0862 0.550405 33.8331 0.293322 33.475C0.036239 33.1169 -0.0568244 32.6821 0.033881 32.2629C0.124586 31.8436 0.391921 31.4729 0.779154 31.2294L9.95383 25.8248C10.1527 25.7076 10.3751 25.627 10.6083 25.5877C10.8415 25.5484 11.0809 25.5512 11.3129 25.5958C11.545 25.6404 11.765 25.726 11.9606 25.8477C12.1561 25.9694 12.3233 26.1248 12.4526 26.3051C12.5819 26.4854 12.6707 26.687 12.7141 26.8984C12.7574 27.1098 12.7544 27.3269 12.7052 27.5373C12.656 27.7476 12.5616 27.9471 12.4273 28.1244C12.2931 28.3017 12.1216 28.4533 11.9228 28.5705Z" fill="#6750A4"/>
<path d="M34.4019 15.3255L34.3199 15.3751C34.121 15.4927 33.8985 15.5736 33.6652 15.6133C33.4318 15.653 33.1921 15.6506 32.9597 15.6063C32.7274 15.5619 32.5069 15.4766 32.311 15.355C32.115 15.2335 31.9474 15.0781 31.8177 14.8978C31.6879 14.7175 31.5986 14.5158 31.5549 14.3043C31.5111 14.0927 31.5138 13.8754 31.5627 13.6647C31.6115 13.4541 31.7057 13.2542 31.8398 13.0766C31.9739 12.8989 32.1452 12.747 32.3441 12.6294L32.433 12.5798C32.8346 12.3431 33.3235 12.2607 33.7921 12.3508C34.2607 12.4409 34.6706 12.696 34.9317 13.0601C35.1928 13.4242 35.2837 13.8674 35.1843 14.2923C35.085 14.7171 34.8035 15.0888 34.4019 15.3255Z" fill="#FF9D23"/>
<path opacity="0.5" d="M36.008 25.7752L22.287 33.8635C21.8873 34.0498 21.4253 34.0941 20.9914 33.9878C20.5576 33.8816 20.183 33.6324 19.9411 33.2891C19.6992 32.9457 19.6072 32.5329 19.6833 32.1313C19.7593 31.7298 19.9978 31.3684 20.3522 31.1178L34.0254 23.0295C34.427 22.7928 34.9159 22.7104 35.3845 22.8005C35.8531 22.8906 36.263 23.1457 36.5241 23.5098C36.7852 23.8739 36.8761 24.3172 36.7767 24.742C36.6774 25.1668 36.3959 25.5385 35.9943 25.7752H36.008Z" fill="#6750A4"/>
<path opacity="0.5" d="M17.6723 36.5844L8.49767 41.989C8.29881 42.1062 8.07644 42.1868 7.84324 42.2261C7.61004 42.2654 7.37059 42.2626 7.13856 42.218C6.90653 42.1734 6.68646 42.0878 6.49092 41.9661C6.29538 41.8444 6.12819 41.689 5.99891 41.5087C5.86963 41.3284 5.78078 41.1268 5.73744 40.9154C5.6941 40.704 5.69712 40.4869 5.74631 40.2765C5.84568 39.8517 6.12713 39.48 6.52874 39.2433L15.7034 33.8387C16.105 33.602 16.5939 33.5196 17.0625 33.6097C17.5311 33.6998 17.9411 33.9549 18.2022 34.319C18.4633 34.6831 18.5541 35.1264 18.4548 35.5512C18.3554 35.976 18.074 36.3477 17.6723 36.5844Z" fill="#AA7DFF"/>
<path opacity="0.5" d="M40.1783 23.3393L40.0963 23.3888C39.8974 23.5061 39.6751 23.5866 39.4419 23.6259C39.2087 23.6652 38.9692 23.6625 38.7372 23.6178C38.5052 23.5732 38.2851 23.4876 38.0896 23.3659C37.894 23.2442 37.7268 23.0888 37.5975 22.9085C37.4683 22.7282 37.3794 22.5266 37.3361 22.3152C37.2927 22.1038 37.2957 21.8867 37.3449 21.6763C37.3941 21.466 37.4886 21.2665 37.6228 21.0892C37.7571 20.9119 37.9285 20.7604 38.1274 20.6431L38.2094 20.5936C38.4083 20.4764 38.6307 20.3958 38.8639 20.3565C39.097 20.3172 39.3365 20.32 39.5685 20.3646C39.8006 20.4092 40.0206 20.4948 40.2162 20.6165C40.4117 20.7382 40.5789 20.8936 40.7082 21.0739C40.8375 21.2542 40.9263 21.4558 40.9697 21.6672C41.013 21.8786 41.01 22.0957 40.9608 22.3061C40.9116 22.5164 40.8172 22.7159 40.6829 22.8932C40.5487 23.0705 40.3772 23.2221 40.1783 23.3393Z" fill="#FF9D23"/>
<path d="M4.34768 23.3332C5.20908 25.1926 6.53538 26.8413 7.6429 28.5953C8.75042 30.3493 9.69387 32.3141 9.56398 34.316H22.5535C22.4509 32.2955 23.3602 30.3493 24.4677 28.5953C25.5752 26.8413 26.9015 25.1864 27.7698 23.3332C31.3589 15.623 25.8213 5.84256 16.0655 5.97892C6.2961 5.84256 0.772151 15.623 4.34768 23.3332Z" fill="white"/>
<path d="M16.2095 5.8859V34.223H22.711C22.6085 32.2025 23.5178 30.2563 24.6253 28.5023C25.7328 26.7483 27.0659 25.0934 27.9273 23.2402C31.5029 15.5299 25.9789 5.74955 16.2095 5.8859Z" fill="#CEC1BC"/>
<path d="M4.44323 23.5129C5.31147 25.3723 6.63776 27.021 7.74529 28.775C8.72567 30.2082 9.36812 31.8099 9.63218 33.4793C9.66929 33.7619 9.8204 34.0221 10.0564 34.2097C10.2925 34.3974 10.5967 34.4993 10.9106 34.4957H21.4184C21.7323 34.4993 22.0366 34.3974 22.2726 34.2097C22.5086 34.0221 22.6597 33.7619 22.6969 33.4793C22.9546 31.8085 23.5975 30.2056 24.5837 28.775C25.6913 27.021 27.0176 25.3723 27.8721 23.5129C31.4477 15.8027 25.9237 6.02225 16.1543 6.15861C6.39848 6.02225 0.867702 15.8027 4.44323 23.5129Z" stroke="#732E54" stroke-width="3.19445" stroke-miterlimit="10"/>
<path d="M11.3281 39.4913H20.6259V39.6772C20.6259 40.2307 20.5056 40.7788 20.272 41.2901C20.0384 41.8015 19.6959 42.2661 19.2642 42.6574C18.8325 43.0488 18.3201 43.3592 17.756 43.571C17.192 43.7828 16.5875 43.8919 15.977 43.8919C14.744 43.8919 13.5616 43.4478 12.6897 42.6574C11.8179 41.867 11.3281 40.795 11.3281 39.6772V39.4913Z" fill="url(#paint0_linear_4100_97474)"/>
<path d="M11.4648 39.6277H20.7831V39.8136C20.7831 40.3671 20.6628 40.9151 20.4292 41.4265C20.1956 41.9378 19.8531 42.4024 19.4215 42.7938C18.9898 43.1851 18.4773 43.4956 17.9133 43.7074C17.3492 43.9192 16.7447 44.0282 16.1342 44.0282C15.522 44.0307 14.9153 43.9235 14.3489 43.7128C13.7825 43.502 13.2676 43.192 12.8337 42.8004C12.3998 42.4088 12.0556 41.9433 11.8207 41.4308C11.5858 40.9182 11.4648 40.3686 11.4648 39.8136V39.6277Z" stroke="#732E54" stroke-width="3.19445" stroke-miterlimit="10"/>
<path d="M6.66553 39.609H25.3704" stroke="#732E54" stroke-width="3.19445" stroke-miterlimit="10" stroke-linecap="round"/>
<path d="M9.98779 37.1919H21.1724" stroke="#732E54" stroke-width="3.19445" stroke-miterlimit="10" stroke-linecap="round"/>
<path d="M29.4175 9.17079L31.947 7.78244" stroke="#732E54" stroke-width="3.19445" stroke-miterlimit="10" stroke-linecap="round"/>
<path d="M3.0559 9.17079L0.526367 7.78244" stroke="#732E54" stroke-width="3.19445" stroke-miterlimit="10" stroke-linecap="round"/>
<path d="M16.2095 34.2231V29.1779" stroke="#732E54" stroke-width="3.19445" stroke-miterlimit="10" stroke-linecap="round"/>
<path d="M18.6362 26.0107L17.4329 27.5292L16.2297 29.0477L15.0333 27.5292L13.8301 26.0107" stroke="#732E54" stroke-width="3.19445" stroke-miterlimit="10" stroke-linecap="round"/>
<path d="M24.1671 22.6513C23.9817 23.1145 23.753 23.5624 23.4834 23.9901" stroke="white" stroke-width="1.59722" stroke-miterlimit="10" stroke-linecap="round"/>
<path opacity="0.3" d="M25.1377 18.5112C25.1167 19.0347 25.0435 19.5554 24.9189 20.0669" stroke="white" stroke-width="1.59722" stroke-miterlimit="10" stroke-linecap="round"/>
<path d="M20.2495 9.72861C21.4962 10.3437 22.5827 11.1944 23.4354 12.223C24.2882 13.2517 24.8873 14.4343 25.1923 15.6911" stroke="white" stroke-width="1.59722" stroke-miterlimit="10" stroke-linecap="round"/>
<path opacity="0.7" d="M9.48193 10.4599C10.6222 9.66906 11.9412 9.11665 13.3446 8.84223C14.6048 8.58826 15.9073 8.55879 17.1799 8.75545" stroke="white" stroke-width="1.59722" stroke-miterlimit="10" stroke-linecap="round"/>
<path d="M7.42432 13.2863C8.15272 12.0884 9.17198 11.0562 10.4051 10.2679" stroke="white" stroke-width="3.19445" stroke-miterlimit="10" stroke-linecap="round"/>
<path d="M9.76227 24.548C8.22672 23.3882 7.11152 21.8364 6.56165 20.0944C6.01178 18.3524 6.05266 16.5007 6.67898 14.78" stroke="white" stroke-width="3.19445" stroke-miterlimit="10" stroke-linecap="round"/>
<defs>
<linearGradient id="paint0_linear_4100_97474" x1="11.3281" y1="41.6916" x2="20.6259" y2="41.6916" gradientUnits="userSpaceOnUse">
<stop offset="0.04" stop-color="#F27B40"/>
<stop offset="1" stop-color="#EC697D"/>
</linearGradient>
</defs>
</svg>
