<svg width="24" height="25" viewBox="0 0 24 25" fill="none" xmlns="http://www.w3.org/2000/svg">
<path d="M20.6769 24.6456H3.32308C1.48923 24.6456 0 23.1564 0 21.3226V3.96876C0 2.13492 1.48923 0.645691 3.32308 0.645691H20.6769C22.5108 0.645691 24 2.13492 24 3.96876V21.3226C24 23.1564 22.5108 24.6456 20.6769 24.6456Z" fill="#051F4E" fill-opacity="0.1"/>
<path d="M21.649 4.53497L13.809 14.7011V24.6457H10.1783V14.7134L2.35059 4.53497H6.00597L12.0121 12.375L17.9937 4.53497C17.9937 4.53497 21.649 4.53497 21.649 4.53497Z" fill="#051F4E" fill-opacity="0.7"/>
<path d="M12.0002 9.59346C13.1014 9.59346 13.994 8.70078 13.994 7.59962C13.994 6.49845 13.1014 5.60577 12.0002 5.60577C10.899 5.60577 10.0063 6.49845 10.0063 7.59962C10.0063 8.70078 10.899 9.59346 12.0002 9.59346Z" fill="#051F4E" fill-opacity="0.7"/>
</svg>
