<svg width="44" height="43" viewBox="0 0 44 43" fill="none" xmlns="http://www.w3.org/2000/svg">
<path opacity="0.8" d="M32.7431 11.8394L20.5221 19.7858C20.1644 20.0183 19.7289 20.0992 19.3116 20.0107C18.8942 19.9222 18.5291 19.6716 18.2965 19.3139C18.064 18.9561 17.983 18.5207 18.0715 18.1033C18.16 17.6859 18.4107 17.3208 18.7684 17.0883L30.9894 9.17233C31.3471 8.93978 31.7825 8.85885 32.1999 8.94735C32.6173 9.03585 32.9824 9.28653 33.215 9.64424C33.4475 10.002 33.5285 10.4374 33.44 10.8548C33.3515 11.2722 33.1008 11.6373 32.7431 11.8698V11.8394Z" fill="#6750A4"/>
<path opacity="0.8" d="M16.412 22.4589L8.24035 27.7565C8.06323 27.8716 7.86517 27.9508 7.65746 27.9894C7.44976 28.028 7.23649 28.0253 7.02982 27.9815C6.82316 27.9377 6.62714 27.8536 6.45298 27.734C6.27882 27.6144 6.12991 27.4617 6.01476 27.2846C5.89961 27.1075 5.82048 26.9094 5.78187 26.7017C5.74327 26.494 5.74596 26.2807 5.78978 26.0741C5.8336 25.8674 5.9177 25.6714 6.03727 25.4972C6.15684 25.323 6.30955 25.1741 6.48667 25.059L14.6583 19.7492C14.8355 19.6341 15.0335 19.5549 15.2412 19.5163C15.4489 19.4777 15.6622 19.4804 15.8689 19.5242C16.0755 19.5681 16.2716 19.6522 16.4457 19.7717C16.6199 19.8913 16.7688 20.044 16.8839 20.2211C16.9991 20.3983 17.0782 20.5963 17.1168 20.804C17.1554 21.0117 17.1527 21.225 17.1089 21.4317C17.0651 21.6383 16.981 21.8343 16.8614 22.0085C16.7419 22.1827 16.5892 22.3316 16.412 22.4467V22.4589Z" fill="#FF9D23"/>
<path d="M27.0011 9.97L14.7863 17.9164C14.6091 18.0315 14.4111 18.1107 14.2034 18.1493C13.9957 18.1879 13.7824 18.1852 13.5757 18.1414C13.1583 18.0529 12.7932 17.8022 12.5607 17.4445C12.3281 17.0868 12.2472 16.6513 12.3357 16.2339C12.4242 15.8166 12.6749 15.4514 13.0326 15.2189L25.2475 7.30294C25.4246 7.18779 25.6227 7.10865 25.8304 7.07005C26.0381 7.03145 26.2513 7.03414 26.458 7.07796C26.6647 7.12178 26.8607 7.20588 27.0348 7.32545C27.209 7.44502 27.3579 7.59773 27.4731 7.77485C27.5882 7.95197 27.6673 8.15004 27.7059 8.35774C27.7445 8.56544 27.7419 8.77872 27.698 8.98538C27.6542 9.19205 27.5701 9.38806 27.4505 9.56222C27.331 9.73639 27.1783 9.88529 27.0011 10.0004V9.97Z" fill="#AA7DFF"/>
<path d="M10.67 20.5896L2.49835 25.9298C2.1366 26.1623 1.69729 26.2416 1.27706 26.1503C0.856821 26.0589 0.490089 25.8044 0.257536 25.4426C0.0249833 25.0809 -0.0543406 24.6416 0.0370147 24.2213C0.12837 23.8011 0.382921 23.4344 0.74467 23.2018L8.91635 17.892C9.09347 17.7769 9.29153 17.6978 9.49924 17.6592C9.70694 17.6206 9.92021 17.6232 10.1269 17.6671C10.3335 17.7109 10.5296 17.795 10.7037 17.9146C10.8779 18.0341 11.0268 18.1868 11.1419 18.364C11.2571 18.5411 11.3362 18.7391 11.3748 18.9469C11.4134 19.1546 11.4107 19.3678 11.3669 19.5745C11.3231 19.7812 11.239 19.9772 11.1194 20.1513C10.9999 20.3255 10.8472 20.4744 10.67 20.5896Z" fill="#6750A4"/>
<path d="M30.6912 7.57687L30.6121 7.62558C30.4349 7.74073 30.2369 7.81986 30.0292 7.85846C29.8215 7.89707 29.6082 7.89438 29.4015 7.85056C29.1949 7.80674 28.9988 7.72264 28.8247 7.60307C28.6505 7.48349 28.5016 7.33079 28.3865 7.15367C28.2713 6.97655 28.1922 6.77848 28.1536 6.57078C28.115 6.36307 28.1177 6.1498 28.1615 5.94313C28.2053 5.73647 28.2894 5.54046 28.409 5.36629C28.5285 5.19213 28.6813 5.04322 28.8584 4.92807L28.9375 4.87936C29.2952 4.64681 29.7307 4.56588 30.1481 4.65438C30.5654 4.74288 30.9306 4.99356 31.1631 5.35127C31.3957 5.70898 31.4766 6.14442 31.3881 6.5618C31.2996 6.97918 31.0489 7.34431 30.6912 7.57687Z" fill="#FF9D23"/>
<path opacity="0.5" d="M32.1224 17.8433L19.9014 25.7897C19.5434 25.9953 19.1201 26.0559 18.7188 25.9589C18.3175 25.862 17.9686 25.6149 17.7439 25.2685C17.5192 24.9222 17.4359 24.5028 17.511 24.0969C17.5861 23.6909 17.814 23.3291 18.1477 23.0861L30.3687 15.1701C30.7264 14.9376 31.1618 14.8567 31.5792 14.9452C31.9966 15.0337 32.3617 15.2843 32.5943 15.642C32.8268 15.9998 32.9077 16.4352 32.8192 16.8526C32.7307 17.27 32.4801 17.6351 32.1224 17.8676V17.8433Z" fill="#6750A4"/>
<path opacity="0.5" d="M15.7907 28.4629L7.61905 33.7727C7.26134 34.0052 6.8259 34.0862 6.40852 33.9977C5.99114 33.9092 5.62601 33.6585 5.39346 33.3008C5.16091 32.9431 5.07998 32.5076 5.16848 32.0902C5.25698 31.6728 5.50766 31.3077 5.86537 31.0752L14.0188 25.7593C14.3768 25.5537 14.8 25.4931 15.2013 25.59C15.6027 25.687 15.9516 25.9341 16.1763 26.2804C16.4009 26.6268 16.4843 27.0461 16.4092 27.4521C16.3341 27.8581 16.1062 28.2198 15.7725 28.4629H15.7907Z" fill="#AA7DFF"/>
<path opacity="0.5" d="M35.8062 15.4501L35.7332 15.4988C35.3751 15.7045 34.9519 15.7651 34.5506 15.6681C34.1493 15.5712 33.8004 15.3241 33.5757 14.9777C33.351 14.6313 33.2676 14.212 33.3428 13.806C33.4179 13.4001 33.6457 13.0383 33.9795 12.7952L34.0525 12.7465C34.2298 12.6175 34.4314 12.5259 34.6452 12.4773C34.8591 12.4288 35.0805 12.4243 35.2961 12.4642C35.5117 12.5041 35.7169 12.5875 35.8992 12.7093C36.0815 12.8311 36.237 12.9888 36.3563 13.1728C36.4756 13.3567 36.5562 13.563 36.5931 13.7791C36.63 13.9953 36.6225 14.2166 36.5711 14.4298C36.5196 14.6429 36.4252 14.8433 36.2937 15.0187C36.1622 15.1941 35.9963 15.3409 35.8062 15.4501Z" fill="#FF9D23"/>
<path opacity="0.15" d="M28.2824 5.96125L8.61797 26.6415C5.8189 29.5851 5.8189 34.3577 8.61797 37.3014C11.417 40.245 15.9552 40.245 18.7543 37.3014L38.4188 16.6212C41.2178 13.6775 41.2178 8.9049 38.4188 5.96125C35.6197 3.01759 31.0815 3.01759 28.2824 5.96125Z" fill="#F7AFA3"/>
<path d="M30.8643 6.10383L30.8385 6.68875C30.8138 7.266 30.9833 7.83393 31.3173 8.29277L31.6556 8.75709C31.9889 9.2157 32.1581 9.78308 32.1335 10.3597C32.1088 10.9364 31.8919 11.4856 31.5208 11.9109L31.1453 12.342C30.7735 12.7676 30.5562 13.3174 30.5317 13.8948L30.5059 14.4797C30.4809 15.0566 30.2634 15.6058 29.8917 16.0309C29.52 16.456 29.0178 16.7298 28.4732 16.8043L27.9228 16.8797C27.3778 16.9544 26.8753 17.2288 26.5036 17.6546L26.128 18.0737C25.7562 18.499 25.2538 18.7729 24.7091 18.8473C24.1643 18.9217 23.612 18.7919 23.1492 18.4807L22.6819 18.1792C22.2193 17.8676 21.6671 17.7374 21.1223 17.8114L20.5689 17.8626C20.0247 17.9366 19.473 17.8068 19.0106 17.4958C18.5483 17.1849 18.2048 16.7127 18.0403 16.1621L17.874 15.6043C17.7095 15.0527 17.3653 14.5798 16.9021 14.2687L16.4347 13.9672C15.972 13.6557 15.6284 13.1828 15.4643 12.6314C15.3001 12.08 15.326 11.4854 15.5374 10.9521L15.7495 10.4124C15.9604 9.87885 15.9858 9.28423 15.8212 8.73297L15.6549 8.17519C15.4903 7.62494 15.5149 7.03131 15.7246 6.49826C15.9343 5.96522 16.3156 5.52673 16.8017 5.2596L17.2948 4.99126C17.782 4.72548 18.1646 4.28784 18.3757 3.75508L18.5879 3.21538C18.799 2.68225 19.182 2.24438 19.6696 1.97862C20.1572 1.71287 20.7182 1.63621 21.2542 1.76211L21.8075 1.88272C22.3438 2.00867 22.9052 1.9318 23.3929 1.66563L23.886 1.39729C24.3744 1.13262 24.9358 1.05736 25.4716 1.18473C26.0075 1.31211 26.4835 1.63396 26.8161 2.09377L27.163 2.55809C27.4971 3.01683 27.9742 3.3371 28.5105 3.46262L29.0524 3.58925C29.587 3.71809 30.0615 4.04061 30.3927 4.50034C30.724 4.96006 30.8909 5.52769 30.8643 6.10383Z" fill="white"/>
<path d="M35.2161 16.292C34.8595 16.292 34.5108 16.1808 34.2143 15.9724C33.9177 15.764 33.6866 15.4678 33.5501 15.1213C33.4136 14.7747 33.3779 14.3934 33.4475 14.0255C33.517 13.6576 33.6888 13.3197 33.941 13.0545C34.1932 12.7893 34.5145 12.6086 34.8643 12.5355C35.2141 12.4623 35.5767 12.4998 35.9063 12.6434C36.2358 12.7869 36.5174 13.03 36.7156 13.3419C36.9137 13.6538 37.0195 14.0204 37.0195 14.3955C37.0187 14.8982 36.8285 15.3802 36.4905 15.7356C36.1524 16.0911 35.6942 16.2912 35.2161 16.292ZM35.2161 13.4005C35.0296 13.4005 34.8472 13.4587 34.6921 13.5677C34.537 13.6767 34.4161 13.8316 34.3447 14.0129C34.2733 14.1941 34.2546 14.3936 34.291 14.586C34.3274 14.7784 34.4173 14.9552 34.5492 15.0939C34.6811 15.2326 34.8492 15.3271 35.0321 15.3654C35.2151 15.4037 35.4048 15.384 35.5771 15.3089C35.7495 15.2339 35.8968 15.1067 36.0004 14.9436C36.1041 14.7805 36.1594 14.5887 36.1594 14.3925C36.1579 14.1302 36.0579 13.8791 35.8813 13.6939C35.7046 13.5087 35.4656 13.4043 35.2161 13.4035V13.4005Z" fill="#F5A8A0"/>
<path d="M23.5189 18.7944L17.957 31.7502L16.813 28.3582L13.6335 29.6969L18.6536 17.5974" fill="#D5DFEB"/>
<path d="M23.6736 18.7945L29.2327 31.7503L30.3795 28.3583L33.559 29.697L27.9971 16.7412" fill="#D5DFEB"/>
<path d="M28.1148 7.45179L28.0976 7.8347C28.0813 8.21222 28.1919 8.58372 28.4101 8.88395L28.6309 9.18546C28.8488 9.48545 28.9592 9.85652 28.943 10.2336C28.9267 10.6107 28.7848 10.9697 28.542 11.2478L28.3098 11.5312C28.0671 11.8089 27.925 12.1675 27.9084 12.5443L27.8912 12.9272C27.8721 13.3019 27.729 13.6578 27.4865 13.9332C27.2441 14.2085 26.9176 14.386 26.5638 14.4347L26.2026 14.483C25.8469 14.5323 25.5191 14.7116 25.2765 14.9895L25.03 15.2699C24.7868 15.5475 24.4584 15.7262 24.1025 15.7747C23.7465 15.8233 23.3857 15.7385 23.0833 15.5352L22.7765 15.3302C22.4735 15.1271 22.1121 15.0427 21.7559 15.092L21.3832 15.1493C21.0271 15.1978 20.6661 15.1129 20.3636 14.9094C20.0611 14.706 19.8364 14.397 19.7289 14.0367L19.62 13.6719C19.5125 13.3123 19.2882 13.0039 18.9864 12.8005L18.6796 12.5955C18.38 12.3899 18.1584 12.0801 18.0537 11.7204C17.9489 11.3606 17.9675 10.9735 18.1062 10.6267L18.2467 10.2739C18.3791 9.92206 18.3893 9.53234 18.2753 9.1734L18.1721 8.81762C18.0651 8.45744 18.082 8.06913 18.2198 7.72073C18.3577 7.37233 18.6077 7.08606 18.9261 6.91209L19.2501 6.73722C19.5691 6.56375 19.8198 6.27766 19.9583 5.92917L20.0987 5.57641C20.2369 5.228 20.4874 4.94188 20.8061 4.76822C21.1248 4.59455 21.4915 4.54444 21.8419 4.62666L22.1974 4.71108C22.5475 4.79305 22.9139 4.74289 23.2324 4.56937L23.5563 4.3945C23.8749 4.22105 24.2414 4.17101 24.5915 4.25315C24.9417 4.33528 25.2532 4.54436 25.4715 4.84375L25.6922 5.14525C25.9086 5.44933 26.2205 5.66296 26.5724 5.74827L26.9279 5.83269C27.2737 5.91577 27.5812 6.12275 27.7978 6.41816C28.0143 6.71356 28.1264 7.07899 28.1148 7.45179Z" fill="#F5A8A0"/>
<path d="M17.9113 32.9623L16.5581 28.9522L12.8195 30.5291L18.2582 17.4165L19.0466 17.7783L14.448 28.8678L17.0684 27.7612L18.0059 30.5411L23.1263 18.6105L23.9119 18.9813L17.9113 32.9623Z" fill="#3E6177"/>
<path d="M29.2816 32.9622L23.281 18.9813L24.0637 18.6104L29.187 30.5411L30.1245 27.7612L32.7277 28.8587L27.6044 16.928L28.3871 16.5571L34.3877 30.535L30.6348 28.9521L29.2816 32.9622Z" fill="#3E6177"/>
<path d="M24.121 19.3222C23.5925 19.3228 23.0751 19.1637 22.6301 18.8639L22.1628 18.5624C21.7852 18.3081 21.3347 18.2013 20.8899 18.2609L20.3394 18.3363C19.6945 18.4249 19.0405 18.2716 18.4925 17.9032C17.9445 17.5348 17.5376 16.975 17.3434 16.3222L17.1771 15.7523C17.0429 15.3032 16.7628 14.9179 16.3858 14.6639L15.9185 14.3624C15.3702 13.9948 14.9629 13.4354 14.7683 12.7829C14.5737 12.1304 14.6044 11.4266 14.8549 10.7956L15.067 10.2559C15.2407 9.81594 15.26 9.32544 15.1215 8.87194L14.9552 8.31415C14.7601 7.66115 14.7905 6.95663 15.0413 6.32497C15.292 5.69331 15.7469 5.17512 16.3256 4.86188L16.8188 4.59655C17.2172 4.3786 17.5299 4.01989 17.7018 3.58349L17.9139 3.04379C18.1628 2.41233 18.6156 1.89347 19.1924 1.57855C19.7693 1.26362 20.4334 1.17284 21.0676 1.32218L21.6095 1.44881C22.0469 1.5547 22.5058 1.49491 22.9054 1.27997L23.3985 1.01162C23.9756 0.692909 24.6413 0.599201 25.2778 0.747089C25.9143 0.894977 26.4805 1.27492 26.8761 1.81967L27.2144 2.28399C27.4859 2.65765 27.8735 2.91912 28.3096 3.02268L28.8515 3.14932C29.4863 3.2977 30.0509 3.67696 30.4458 4.22027C30.8408 4.76357 31.0407 5.43604 31.0103 6.11917L30.9817 6.70711C30.9614 7.17793 31.0994 7.64122 31.3716 8.01565L31.7099 8.47998C32.1059 9.02275 32.307 9.69516 32.2776 10.3786C32.2482 11.0621 31.9903 11.7127 31.5493 12.2157L31.1766 12.6438C30.8732 12.9909 30.6956 13.4392 30.6749 13.9101L30.6491 14.4951C30.6207 15.1783 30.3638 15.8291 29.9237 16.3327C29.4837 16.8363 28.8887 17.1604 28.2437 17.2478L27.6932 17.3232C27.2528 17.3862 26.8472 17.6091 26.5464 17.9534L26.1709 18.3845C25.9102 18.6825 25.5932 18.9198 25.2402 19.0813C24.8872 19.2428 24.5059 19.3248 24.121 19.3222ZM21.1422 17.3292C21.6705 17.3293 22.1878 17.4883 22.633 17.7875L23.1003 18.089C23.4775 18.343 23.9278 18.449 24.3719 18.3883C24.8161 18.3276 25.2257 18.1042 25.5287 17.7574L25.9042 17.3262C26.3463 16.8271 26.9408 16.507 27.5843 16.4217L28.129 16.3554C28.5733 16.2948 28.983 16.0714 29.2861 15.7246C29.5892 15.3777 29.7662 14.9295 29.7861 14.4589L29.8119 13.874C29.8422 13.191 30.1 12.541 30.5402 12.0378L30.9157 11.6066C31.2197 11.26 31.3976 10.8117 31.4181 10.3406C31.4385 9.86957 31.3002 9.40605 31.0275 9.03173L30.6892 8.56138C30.2914 8.01894 30.0884 7.34629 30.1158 6.66188L30.1416 6.07696C30.1625 5.6061 30.0247 5.14262 29.7525 4.76812C29.4803 4.39363 29.0912 4.13214 28.6537 4.02972L28.1118 3.90309C27.4775 3.75406 26.9132 3.37517 26.5178 2.83273L26.1881 2.36841C25.916 1.99392 25.5271 1.73237 25.0897 1.62979C24.6523 1.5272 24.1946 1.59017 23.797 1.80761L23.3039 2.07595C22.7267 2.3898 22.0631 2.4805 21.4289 2.33223L20.8841 2.2056C20.4468 2.10206 19.9888 2.16414 19.5907 2.3809C19.1927 2.59766 18.8801 2.95519 18.7081 3.39052L18.4959 3.93022C18.2457 4.56181 17.792 5.08058 17.2144 5.39555L16.7213 5.66389C16.3234 5.88061 16.0109 6.23799 15.8389 6.67314C15.6669 7.10828 15.6464 7.59329 15.7809 8.04279L15.9472 8.60058C16.1409 9.25302 16.1104 9.95628 15.8612 10.5875L15.649 11.1272C15.4769 11.5622 15.4561 12.047 15.5904 12.4965C15.7246 12.9459 16.0053 13.3312 16.383 13.5845L16.8503 13.886C17.3967 14.2551 17.8026 14.8143 17.9971 15.4659L18.1634 16.0539C18.2972 16.5035 18.5776 16.8892 18.9552 17.1429C19.3328 17.3965 19.7833 17.502 20.2276 17.4408L20.7781 17.3654C20.8985 17.3449 21.0202 17.3328 21.1422 17.3292Z" fill="#3E6177"/>
<path d="M23.8918 16.2528C23.5178 16.2528 23.1515 16.1398 22.8368 15.9272L22.53 15.7222C22.3128 15.577 22.0542 15.5162 21.7989 15.5503L21.4291 15.5986C20.9728 15.661 20.5103 15.5522 20.1227 15.2914C19.7352 15.0305 19.4476 14.6343 19.3104 14.1724L19.2015 13.8076C19.1243 13.5487 18.9629 13.3267 18.7456 13.1805L18.4388 12.9754C18.0539 12.7126 17.7692 12.3158 17.6345 11.8544C17.4998 11.393 17.5237 10.8965 17.702 10.4518L17.8425 10.099C17.9413 9.84908 17.9535 9.57056 17.8769 9.31211L17.768 8.94729C17.6301 8.48572 17.6514 7.98781 17.8281 7.54112C18.0048 7.09443 18.3256 6.72757 18.7341 6.50507L19.0581 6.3302C19.2869 6.20475 19.4665 5.9988 19.5656 5.74829L19.7089 5.39251C19.8869 4.94739 20.2084 4.58248 20.6168 4.36192C21.0253 4.14135 21.4946 4.07923 21.9423 4.18648L22.2978 4.2709C22.55 4.33003 22.814 4.29373 23.0432 4.16839L23.3528 3.99351C23.761 3.77066 24.2308 3.70624 24.6796 3.81156C25.1285 3.91689 25.5276 4.18522 25.807 4.56939L26.0277 4.8709C26.185 5.08638 26.4093 5.23687 26.6614 5.29603L27.0169 5.38045C27.4675 5.48591 27.8681 5.75565 28.1478 6.14193C28.4275 6.52821 28.5682 7.00611 28.545 7.491L28.5278 7.87392C28.516 8.14497 28.5952 8.41175 28.7514 8.62769L28.9721 8.9292C29.2521 9.3136 29.3941 9.78958 29.3732 10.2733C29.3522 10.757 29.1696 11.2174 28.8575 11.5734L28.6109 11.8538C28.4368 12.0541 28.3353 12.3124 28.3242 12.5835L28.3099 12.9453C28.2894 13.4288 28.1073 13.8892 27.7958 14.2455C27.4843 14.6018 27.0633 14.8311 26.6069 14.893L26.2456 14.9413C25.9901 14.977 25.7546 15.1061 25.5805 15.3061L25.3339 15.5865C25.1506 15.7967 24.9278 15.9644 24.6795 16.0791C24.4312 16.1938 24.163 16.253 23.8918 16.2528ZM21.9394 14.6367C22.3134 14.6373 22.6795 14.7502 22.9945 14.9624L23.3012 15.1674C23.5183 15.3142 23.7778 15.3756 24.0337 15.3409C24.2897 15.3061 24.5258 15.1774 24.7003 14.9774L24.9469 14.697C25.2588 14.3407 25.68 14.1113 26.1367 14.0488L26.4979 14.0006C26.7542 13.9652 26.9904 13.8356 27.1646 13.6347C27.3388 13.4339 27.4398 13.1747 27.4498 12.9031L27.467 12.5202C27.4896 12.0402 27.6712 11.5837 27.9802 11.2297L28.2267 10.9493C28.4012 10.7498 28.5032 10.492 28.5147 10.2212C28.5263 9.9504 28.4466 9.68401 28.2898 9.46889L28.069 9.16739C27.789 8.78275 27.6469 8.3066 27.6677 7.82266L27.6849 7.43975C27.6969 7.16808 27.6172 6.90069 27.4598 6.68493C27.3023 6.46916 27.0774 6.31893 26.8248 6.26085L26.4693 6.17643C26.0206 6.06996 25.6218 5.80102 25.3425 5.41663L25.1218 5.11512C24.9652 4.89954 24.7414 4.74897 24.4896 4.68995C24.2379 4.63094 23.9744 4.66725 23.7456 4.79251L23.436 4.95834C23.0275 5.18074 22.5575 5.24479 22.1086 5.13924L21.7531 5.05482C21.5014 4.99558 21.2379 5.0314 21.0088 5.15599C20.7798 5.28058 20.5997 5.486 20.5002 5.73623L20.3511 6.10407C20.1742 6.55089 19.8535 6.91804 19.4451 7.14125L19.1355 7.3101C18.9064 7.43464 18.7264 7.64022 18.6273 7.89063C18.5282 8.14104 18.5162 8.42021 18.5937 8.67894L18.7026 9.04377C18.8397 9.50506 18.8184 10.0023 18.6424 10.4488L18.5019 10.8016C18.4027 11.0517 18.3906 11.3307 18.4677 11.5893C18.5448 11.848 18.7061 12.0698 18.9234 12.2156L19.2301 12.4207C19.618 12.6815 19.9062 13.0774 20.0443 13.5393L20.1533 13.9041C20.2306 14.1625 20.3918 14.3842 20.6088 14.5302C20.8258 14.6763 21.0847 14.7375 21.3402 14.7031L21.7015 14.6548C21.7804 14.6437 21.8598 14.6376 21.9394 14.6367Z" fill="#3E6177"/>
<path d="M12.4354 26.6547C12.0476 26.6547 11.6684 26.5337 11.346 26.3071C11.0235 26.0805 10.7721 25.7584 10.6237 25.3816C10.4753 25.0047 10.4364 24.5901 10.5121 24.19C10.5878 23.79 10.7745 23.4225 11.0488 23.1341C11.323 22.8456 11.6725 22.6492 12.0529 22.5697C12.4333 22.4901 12.8276 22.5309 13.1859 22.687C13.5442 22.8431 13.8505 23.1074 14.066 23.4466C14.2815 23.7857 14.3965 24.1845 14.3965 24.5923C14.3957 25.1391 14.1889 25.6632 13.8213 26.0497C13.4537 26.4363 12.9553 26.6539 12.4354 26.6547ZM12.4354 23.4346C12.2177 23.4346 12.0049 23.5025 11.8238 23.6297C11.6428 23.7569 11.5017 23.9377 11.4183 24.1493C11.335 24.3608 11.3132 24.5936 11.3557 24.8182C11.3982 25.0428 11.503 25.2491 11.657 25.411C11.8109 25.5729 12.0071 25.6832 12.2207 25.7279C12.4342 25.7726 12.6556 25.7496 12.8568 25.662C13.0579 25.5744 13.2299 25.426 13.3508 25.2356C13.4718 25.0452 13.5364 24.8213 13.5364 24.5923C13.5356 24.2858 13.4193 23.9921 13.2129 23.7756C13.0065 23.5591 12.7269 23.4376 12.4354 23.4376V23.4346Z" fill="#3E6177"/>
<path d="M21.6957 30.8608C22.1613 30.8608 22.5386 30.4639 22.5386 29.9743C22.5386 29.4848 22.1613 29.0879 21.6957 29.0879C21.2302 29.0879 20.8528 29.4848 20.8528 29.9743C20.8528 30.4639 21.2302 30.8608 21.6957 30.8608Z" fill="#F5A8A0"/>
<path d="M15.8784 3.1735C16.3439 3.1735 16.7212 2.77663 16.7212 2.28707C16.7212 1.7975 16.3439 1.40063 15.8784 1.40063C15.4128 1.40063 15.0355 1.7975 15.0355 2.28707C15.0355 2.77663 15.4128 3.1735 15.8784 3.1735Z" fill="#F5A8A0"/>
<path d="M33.0231 7.03556C33.4886 7.03556 33.866 6.63869 33.866 6.14913C33.866 5.65956 33.4886 5.2627 33.0231 5.2627C32.5576 5.2627 32.1802 5.65956 32.1802 6.14913C32.1802 6.63869 32.5576 7.03556 33.0231 7.03556Z" fill="#D5DFEB"/>
<g opacity="0.3">
<path opacity="0.3" d="M20.6932 10.1047L23.6012 6.88426L24.2249 7.50712L21.3169 10.7276L20.6932 10.1047Z" fill="#3E6177"/>
<path opacity="0.3" d="M22.6815 10.5908L24.5192 8.4972L25.1512 9.11073L23.3135 11.2043L22.6815 10.5908Z" fill="#3E6177"/>
</g>
<path d="M19.086 23.4607L20.8764 19.3652L21.3973 19.6171L19.607 23.7126L19.086 23.4607Z" fill="white"/>
<path d="M18.0638 25.8015L18.8314 24.0455L19.3524 24.2974L18.5848 26.0534L18.0638 25.8015Z" fill="white"/>
<path d="M17.5515 26.9666L17.8079 26.3804L18.3288 26.6325L18.0723 27.2186L17.5515 26.9666Z" fill="white"/>
<path d="M32.4156 27.2368H32.989V31.063H32.4156V27.2368Z" fill="white"/>
<path d="M32.4156 31.6086H32.989V33.2488H32.4156V31.6086Z" fill="white"/>
<path d="M32.4156 33.7947H32.989V34.3404H32.4156V33.7947Z" fill="white"/>
<path d="M32.2145 34.5453C36.3583 34.5453 39.7174 31.0126 39.7174 26.6549C39.7174 22.2971 36.3583 18.7644 32.2145 18.7644C28.0708 18.7644 24.7116 22.2971 24.7116 26.6549C24.7116 31.0126 28.0708 34.5453 32.2145 34.5453Z" fill="white"/>
<path d="M32.4753 33.0557C35.8369 33.0557 38.562 30.1899 38.562 26.6547C38.562 23.1195 35.8369 20.2537 32.4753 20.2537C29.1138 20.2537 26.3887 23.1195 26.3887 26.6547C26.3887 30.1899 29.1138 33.0557 32.4753 33.0557Z" fill="#F5A8A0"/>
<path d="M32.2145 33.5081C30.9257 33.5081 29.6657 33.1061 28.5941 32.3531C27.5224 31.6 26.6872 30.5297 26.1939 29.2774C25.7007 28.0252 25.5716 26.6472 25.8231 25.3178C26.0745 23.9884 26.6952 22.7672 27.6066 21.8088C28.5179 20.8503 29.6791 20.1976 30.9432 19.9332C32.2073 19.6688 33.5176 19.8045 34.7084 20.3232C35.8991 20.8419 36.9169 21.7203 37.6329 22.8473C38.349 23.9743 38.7312 25.2993 38.7312 26.6548C38.7289 28.4717 38.0416 30.2134 36.82 31.4981C35.5984 32.7829 33.9422 33.5057 32.2145 33.5081ZM32.2145 20.703C31.0958 20.703 30.0021 21.0519 29.0719 21.7056C28.1417 22.3592 27.4167 23.2883 26.9886 24.3753C26.5604 25.4623 26.4484 26.6584 26.6667 27.8123C26.8849 28.9663 27.4237 30.0262 28.2147 30.8582C29.0058 31.6901 30.0137 32.2567 31.111 32.4862C32.2083 32.7158 33.3456 32.598 34.3792 32.1477C35.4128 31.6975 36.2962 30.935 36.9178 29.9567C37.5394 28.9785 37.8711 27.8283 37.8711 26.6518C37.8681 25.0753 37.271 23.5644 36.2108 22.45C35.1506 21.3355 33.7136 20.7084 32.2145 20.706V20.703Z" fill="#3E6177"/>
<path d="M31.664 29.513C31.5511 29.5127 31.441 29.4758 31.3486 29.4075L29.1497 27.7884C29.0561 27.7196 28.9924 27.6146 28.9725 27.4964C28.9526 27.3782 28.9782 27.2566 29.0436 27.1582C29.109 27.0599 29.2089 26.9929 29.3212 26.972C29.4336 26.951 29.5493 26.9779 29.6428 27.0467L31.5952 28.4849L34.7862 24.0105C34.82 23.963 34.8625 23.923 34.9111 23.8927C34.9597 23.8624 35.0135 23.8425 35.0694 23.8341C35.1253 23.8257 35.1822 23.829 35.2369 23.8437C35.2916 23.8585 35.3431 23.8844 35.3882 23.92C35.4334 23.9557 35.4715 24.0003 35.5002 24.0514C35.529 24.1025 35.5479 24.1591 35.5559 24.2179C35.5639 24.2767 35.5608 24.3366 35.5468 24.3941C35.5328 24.4516 35.5081 24.5057 35.4742 24.5532L32.1055 29.2778C32.0545 29.3506 31.988 29.4097 31.9113 29.4506C31.8347 29.4914 31.75 29.5128 31.664 29.513Z" fill="white"/>
</svg>
