<svg width="14" height="14" viewBox="0 0 14 14" fill="none" xmlns="http://www.w3.org/2000/svg">
<path d="M14 6.5C14 9.88275 10.8658 12.625 7 12.625C6.3067 12.6259 5.61626 12.5359 4.94637 12.3573C4.43537 12.6163 3.262 13.1133 1.288 13.437C1.113 13.465 0.98 13.283 1.04913 13.1202C1.35888 12.3887 1.63887 11.414 1.72287 10.525C0.651 9.44875 0 8.04 0 6.5C0 3.11725 3.13425 0.375 7 0.375C10.8658 0.375 14 3.11725 14 6.5ZM4.375 6.5C4.375 6.26794 4.28281 6.04538 4.11872 5.88128C3.95462 5.71719 3.73206 5.625 3.5 5.625C3.26794 5.625 3.04538 5.71719 2.88128 5.88128C2.71719 6.04538 2.625 6.26794 2.625 6.5C2.625 6.73206 2.71719 6.95462 2.88128 7.11872C3.04538 7.28281 3.26794 7.375 3.5 7.375C3.73206 7.375 3.95462 7.28281 4.11872 7.11872C4.28281 6.95462 4.375 6.73206 4.375 6.5V6.5ZM7.875 6.5C7.875 6.26794 7.78281 6.04538 7.61872 5.88128C7.45462 5.71719 7.23206 5.625 7 5.625C6.76794 5.625 6.54538 5.71719 6.38128 5.88128C6.21719 6.04538 6.125 6.26794 6.125 6.5C6.125 6.73206 6.21719 6.95462 6.38128 7.11872C6.54538 7.28281 6.76794 7.375 7 7.375C7.23206 7.375 7.45462 7.28281 7.61872 7.11872C7.78281 6.95462 7.875 6.73206 7.875 6.5V6.5ZM10.5 7.375C10.7321 7.375 10.9546 7.28281 11.1187 7.11872C11.2828 6.95462 11.375 6.73206 11.375 6.5C11.375 6.26794 11.2828 6.04538 11.1187 5.88128C10.9546 5.71719 10.7321 5.625 10.5 5.625C10.2679 5.625 10.0454 5.71719 9.88128 5.88128C9.71719 6.04538 9.625 6.26794 9.625 6.5C9.625 6.73206 9.71719 6.95462 9.88128 7.11872C10.0454 7.28281 10.2679 7.375 10.5 7.375V7.375Z" fill="#0F6BBF"/>
</svg>
