<svg width="381" height="154" viewBox="0 0 381 154" fill="none" xmlns="http://www.w3.org/2000/svg">
<path d="M133.254 132.174H177.86C178.545 149.44 198.827 153.483 198.827 153.483H153.193C153.193 153.483 134.008 149.44 133.254 132.174Z" fill="#4E5683"/>
<path d="M137.777 132.174H192.867C193.552 149.44 213.902 153.483 213.902 153.483H161.896C161.896 153.483 138.463 149.44 137.777 132.174Z" fill="url(#paint0_linear_9751_210234)"/>
<path d="M78.5067 135.805H252.271C255.012 135.805 260.357 133.612 260.22 130.94L250.627 4.86486C250.541 3.55573 249.964 2.32739 249.011 1.42545C248.058 0.523501 246.8 0.0144256 245.488 0H73.4363C70.7641 0 66.9955 2.94632 67.1325 5.61857L73.3678 130.94C73.454 132.249 74.0312 133.478 74.984 134.38C75.9367 135.282 77.1948 135.791 78.5067 135.805Z" fill="#4E5683"/>
<path d="M80.9058 135.051H255.767C256.396 135.052 257.02 134.925 257.599 134.678C258.178 134.431 258.701 134.07 259.136 133.615C259.572 133.16 259.911 132.622 260.132 132.033C260.354 131.444 260.454 130.815 260.426 130.187L254.191 4.86487C254.105 3.55574 253.528 2.3274 252.575 1.42545C251.622 0.523508 250.364 0.0144329 249.052 7.3049e-06H74.1224C73.4958 -0.00111052 72.8755 0.126073 72.2999 0.373729C71.7243 0.621384 71.2054 0.984267 70.7754 1.44002C70.3453 1.89578 70.0131 2.43476 69.7992 3.02377C69.5853 3.61278 69.4942 4.23934 69.5316 4.86487L75.7669 130.187C75.8531 131.496 76.4303 132.724 77.3831 133.626C78.3358 134.528 79.5939 135.037 80.9058 135.051Z" fill="#4E5683"/>
<path d="M80.905 135.052H255.766C256.396 135.052 257.019 134.925 257.598 134.678C258.177 134.431 258.7 134.07 259.136 133.615C259.571 133.16 259.91 132.622 260.132 132.033C260.353 131.444 260.453 130.816 260.425 130.187L259.398 109.494H74.7383L75.7661 130.187C75.8523 131.496 76.4295 132.724 77.3823 133.626C78.335 134.528 79.5931 135.037 80.905 135.052Z" fill="url(#paint1_linear_9751_210234)"/>
<path d="M252.684 103.601L247.819 6.44092H75.9727L80.8375 103.601H252.684Z" fill="white"/>
<path d="M46.9176 136.97C46.9176 136.97 48.5621 116.14 44.725 111.344C40.8879 106.547 43.6972 101.203 44.5194 99.49C44.577 99.3344 44.6006 99.1684 44.5888 99.003C44.577 98.8375 44.53 98.6765 44.4509 98.5307C43.6287 97.2289 41.5046 93.3918 42.6694 90.1029C43.4986 87.8465 45.0688 85.9381 47.1232 84.6898C47.2895 84.582 47.4183 84.4253 47.4919 84.2412C47.5656 84.0572 47.5804 83.8549 47.5343 83.6621C47.0547 80.6472 45.8898 68.999 57.4696 66.3267C57.6796 66.2706 57.9025 66.2875 58.1017 66.3746C58.3009 66.4618 58.4645 66.614 58.5659 66.8063C59.9436 69.2554 60.8063 71.9601 61.1011 74.7546C61.5807 79.0027 59.6622 82.7028 58.7029 84.2787C58.5709 84.4778 58.5124 84.7167 58.5374 84.9543C58.5624 85.1919 58.6694 85.4133 58.84 85.5806C60.0048 86.6084 62.1974 89.0751 61.1696 92.501C60.5903 94.6681 59.6648 96.7273 58.4288 98.5992C58.2724 98.8682 58.2235 99.1864 58.2918 99.49C58.7714 100.997 59.9363 105.725 58.1548 110.316C56.3733 114.907 47.6713 137.45 48.2195 147.522C48.2195 147.522 47.6028 144.987 46.9176 136.97Z" fill="#319188"/>
<path d="M56.031 71.3286C56.031 71.3286 49.8643 87.4306 46.918 134.64" stroke="#21295B" stroke-width="0.5" stroke-linecap="round" stroke-linejoin="round"/>
<path d="M48.4932 130.598C48.4932 130.598 47.1228 113.811 50.3432 108.672C53.5636 103.533 50.1376 98.5307 49.1784 96.8863C49.0835 96.7466 49.0273 96.5843 49.0152 96.4159C49.0032 96.2474 49.0358 96.0788 49.1099 95.927C49.7951 94.5566 51.4395 90.5825 49.8636 87.4306C48.7486 85.2494 46.9744 83.4751 44.7932 82.3602C44.6123 82.2723 44.459 82.1363 44.3503 81.9671C44.2415 81.7979 44.1814 81.602 44.1765 81.4009C44.3135 78.4546 44.108 66.6693 32.2541 65.0248C32.0464 64.9908 31.8332 65.026 31.6475 65.1251C31.4618 65.2241 31.3138 65.3815 31.2263 65.573C30.148 68.1543 29.6116 70.9296 29.6504 73.7268C29.6504 77.975 32.1171 81.538 33.2134 82.9769C33.3771 83.1541 33.4681 83.3865 33.4681 83.6278C33.4681 83.8691 33.3771 84.1015 33.2134 84.2788C32.1171 85.4436 30.3356 88.1158 31.706 91.4047C32.5852 93.5038 33.7621 95.4653 35.2005 97.2289C35.3062 97.3344 35.3811 97.4666 35.4173 97.6115C35.4536 97.7563 35.4496 97.9083 35.406 98.0511C35.1319 99.5585 34.5153 104.423 36.8449 108.809C39.1746 113.194 45.4783 133.887 46.1635 144.028C47.9211 139.778 48.7167 135.191 48.4932 130.598Z" fill="#4FAE86"/>
<path d="M37.4611 97.2289C30.3351 85.9917 21.085 83.7991 18.1386 83.388C17.8688 83.3664 17.6005 83.4455 17.3854 83.61C17.1703 83.7744 17.0237 84.0127 16.9738 84.2788C16.8339 85.5963 17.0606 86.927 17.6288 88.1239C18.1971 89.3209 19.0848 90.3377 20.1942 91.0622L23.7572 93.5974C23.8755 93.6818 23.973 93.7921 24.0424 93.9198C24.1119 94.0474 24.1514 94.1892 24.158 94.3344C24.1646 94.4796 24.1381 94.6244 24.0805 94.7579C24.023 94.8913 23.9359 95.0099 23.8257 95.1048C22.6609 96.3381 21.222 99.0104 25.7443 102.505C30.2665 105.999 32.2536 107.781 33.4184 108.809C33.518 108.909 33.5956 109.03 33.6464 109.162C33.6972 109.294 33.7201 109.436 33.7137 109.577C33.7073 109.719 33.6716 109.858 33.609 109.985C33.5464 110.112 33.4582 110.225 33.3499 110.316C32.048 111.481 30.198 113.948 33.3499 116.894C37.7351 120.937 45.2037 137.724 46.026 145.055C46.026 145.055 46.0945 110.727 37.4611 97.2289Z" fill="#6CE08B"/>
<path d="M56.4438 87.9788C63.6383 76.7417 72.8199 74.6176 75.7662 74.1379C75.9014 74.1187 76.039 74.1266 76.1711 74.1611C76.3031 74.1956 76.427 74.2561 76.5354 74.339C76.6439 74.422 76.7347 74.5257 76.8026 74.6441C76.8706 74.7625 76.9142 74.8932 76.9311 75.0287C77.1366 76.5361 76.9996 79.4824 73.7107 81.8121L70.2162 84.3473C70.1031 84.4337 70.0092 84.5426 69.9404 84.6672C69.8717 84.7917 69.8295 84.9292 69.8166 85.0709C69.8037 85.2126 69.8204 85.3555 69.8656 85.4904C69.9108 85.6253 69.9835 85.7494 70.0791 85.8547C71.3125 87.0881 72.6829 89.7603 68.1606 93.2548C63.6383 96.7493 61.7198 98.5308 60.555 99.5586C60.4493 99.6608 60.3652 99.7832 60.3079 99.9186C60.2505 100.054 60.2209 100.2 60.2209 100.347C60.2209 100.494 60.2505 100.639 60.3079 100.774C60.3652 100.91 60.4493 101.032 60.555 101.135C61.8568 102.231 63.7754 104.698 60.555 107.644C56.1697 111.686 48.7697 128.474 47.8789 135.805C47.8789 135.805 47.8789 101.477 56.4438 87.9788Z" fill="#6CE08B"/>
<path d="M48.0829 134.64C52.3996 124.363 53.9756 116.003 59.7997 106.205C63.2257 100.449 67.1998 89.2807 78.7795 82.6343C78.9365 82.5353 79.1175 82.4806 79.3031 82.4761C79.4887 82.4716 79.672 82.5175 79.8336 82.6089C79.9953 82.7002 80.1291 82.8336 80.221 82.995C80.3129 83.1563 80.3593 83.3395 80.3555 83.5251C80.2184 86.7455 79.6703 93.4604 76.861 96.4067L73.8461 99.4216C73.7396 99.5066 73.6525 99.6134 73.5905 99.7348C73.5285 99.8562 73.493 99.9894 73.4866 100.126C73.4801 100.262 73.5027 100.398 73.5529 100.524C73.6031 100.651 73.6797 100.766 73.7776 100.86C75.011 102.094 76.5869 104.766 72.1332 108.398C67.6794 112.029 65.6924 113.674 64.5275 114.633C64.4163 114.713 64.3234 114.815 64.2552 114.934C64.187 115.053 64.145 115.185 64.132 115.321C64.119 115.457 64.1354 115.595 64.18 115.724C64.2245 115.854 64.2963 115.972 64.3905 116.072C65.3498 117.305 66.6516 119.909 63.1571 122.444C56.0311 127.651 49.9329 136.079 46.0273 144.85L48.0829 134.64Z" fill="#4FAE86"/>
<path d="M46.9132 142.452C49.2428 99.6271 33.8945 69.5471 33.8945 69.5471" stroke="#21295B" stroke-width="0.5" stroke-linecap="round" stroke-linejoin="round"/>
<path d="M77.4745 86.4714C77.4745 86.4714 52.8075 117.237 47.3945 141.698" stroke="#21295B" stroke-width="0.5" stroke-linecap="round" stroke-linejoin="round"/>
<path d="M54.8658 153.346H41.6416C40.2267 153.356 38.8577 152.845 37.796 151.909C36.7343 150.974 36.0544 149.681 35.8859 148.276L32.8711 126.144H63.5677L60.6214 148.276C60.4252 149.669 59.7371 150.946 58.6815 151.876C57.6259 152.806 56.2724 153.327 54.8658 153.346Z" stroke="#21295B" stroke-width="0.5" stroke-linecap="round" stroke-linejoin="round"/>
<path d="M34.9922 141.698L35.8829 148.276C36.0513 149.68 36.7313 150.974 37.793 151.909C38.8547 152.845 40.2237 153.356 41.6385 153.346H54.8628C56.2694 153.327 57.6229 152.805 58.6785 151.875C59.7341 150.946 60.4222 149.669 60.6184 148.276L61.5091 141.698H34.9922Z" fill="#4E5683"/>
<path d="M65.6199 120.868H30.9492V125.966H65.6199V120.868Z" stroke="#21295B" stroke-width="0.5" stroke-linecap="round" stroke-linejoin="round"/>
<path d="M216.778 34.3967H118.384C117.098 34.3967 116.055 35.4398 116.055 36.7264V47.8128C116.055 49.0994 117.098 50.1424 118.384 50.1424H216.778C218.065 50.1424 219.108 49.0994 219.108 47.8128V36.7264C219.108 35.4398 218.065 34.3967 216.778 34.3967Z" stroke="#4E5683" stroke-miterlimit="10"/>
<path d="M291.467 23.147C291.467 23.147 285.905 23.7749 285.547 32.3866C285.247 39.563 284.637 43.5624 287.557 45.0596C288.6 45.5947 289.828 45.6417 290.942 45.2754L302.86 41.3571C302.86 41.3571 303.039 28.4396 298.913 25.2999C294.786 22.1602 291.467 23.147 291.467 23.147Z" fill="#36344E"/>
<path d="M298.039 42.943L292.008 44.9259V36.2441H297.48L298.039 42.943Z" fill="#FAAFB2"/>
<path d="M279.604 92.2292C279.277 94.2184 277.951 95.6446 276.641 95.4149C275.332 95.1852 274.535 93.3867 274.863 91.3969C274.982 90.6001 275.297 89.8468 275.781 89.2L277.277 80.7913L281.345 81.6424L279.439 89.8415C279.689 90.6174 279.746 91.4361 279.604 92.2292Z" fill="#FAAFB2"/>
<path d="M293.41 148.148H287.76L284.484 117.964H293.216L293.41 148.148Z" fill="#FAAFB2"/>
<path d="M282.261 153C281.667 153 281.139 152.985 280.74 152.949C279.239 152.811 277.808 151.704 277.088 151.056C276.765 150.765 276.661 150.301 276.83 149.901C276.95 149.614 277.191 149.4 277.491 149.314L281.456 148.181L287.876 143.85L287.948 143.978C287.975 144.026 288.605 145.162 288.816 145.929C288.897 146.222 288.875 146.465 288.753 146.653C288.669 146.783 288.552 146.859 288.456 146.902C288.572 147.024 288.937 147.27 290.058 147.449C291.697 147.709 292.04 146.012 292.054 145.94L292.065 145.883L292.113 145.852C292.893 145.35 293.372 145.121 293.538 145.17C293.641 145.201 293.814 145.253 294.279 149.875C294.326 150.02 294.652 151.084 294.43 152.101C294.189 153.208 289.355 152.827 288.388 152.739C288.361 152.743 284.742 153 282.261 153Z" fill="#36344E"/>
<path d="M306.172 148.148H300.522L297.246 117.964H305.978L306.172 148.148Z" fill="#FAAFB2"/>
<path d="M295.023 153C294.429 153 293.9 152.985 293.502 152.949C292.001 152.811 290.569 151.704 289.85 151.056C289.527 150.765 289.423 150.301 289.591 149.901C289.712 149.614 289.953 149.4 290.253 149.314L294.218 148.181L300.638 143.85L300.71 143.978C300.736 144.026 301.367 145.162 301.578 145.929C301.658 146.222 301.637 146.465 301.515 146.653C301.43 146.783 301.313 146.859 301.218 146.902C301.334 147.024 301.698 147.27 302.82 147.449C304.459 147.709 304.802 146.012 304.815 145.94L304.826 145.883L304.875 145.852C305.655 145.35 306.135 145.122 306.3 145.17C306.403 145.201 306.576 145.253 307.041 149.875C307.088 150.02 307.414 151.084 307.192 152.101C306.951 153.208 302.117 152.827 301.15 152.739C301.123 152.743 297.503 153 295.023 153Z" fill="#36344E"/>
<path d="M307.797 74.0099H280.348L290.215 41.5366H301.159L307.797 74.0099Z" fill="#DFDFE0"/>
<path d="M291.943 41.5416C291.943 41.5416 285.125 41.3622 284.408 43.1563C283.69 44.9504 275.258 87.6501 275.258 87.6501H280.82L291.943 41.5416Z" fill="#DFDFE0"/>
<path d="M292.752 38.6472C296.072 38.6472 298.763 35.9563 298.763 32.637C298.763 29.3176 296.072 26.6267 292.752 26.6267C289.433 26.6267 286.742 29.3176 286.742 32.637C286.742 35.9563 289.433 38.6472 292.752 38.6472Z" fill="#FAAFB2"/>
<path d="M291.11 25.3896C291.11 25.3896 287.802 38.8196 291.48 45.0989L286.3 43.9987C286.3 43.9987 284.293 29.2992 288.329 26.6268L291.11 25.3896Z" fill="#36344E"/>
<path d="M302.093 74.0098H284.08L274.223 114.461C274.042 116.169 275.125 117.763 276.785 118.208C282.193 119.656 295.168 121.707 314.808 115.993C316.698 115.443 317.77 113.449 317.177 111.572L302.093 74.0098Z" fill="#36344E"/>
<path d="M294.809 41.5366L300.412 41.29C302.838 41.4732 305.032 42.7939 306.333 44.8501C310.291 51.1075 317.7 64.2995 311.085 66.1066C302.368 68.4881 298.145 55.2329 298.145 55.2329L294.809 41.5366Z" fill="#DFDFE0"/>
<path d="M292.888 45.4664C291.736 43.8116 291.695 41.8641 292.794 41.1167C293.894 40.3693 295.718 41.1049 296.869 42.7605C297.339 43.4153 297.637 44.1753 297.74 44.9767L302.525 52.0509L299.014 54.2743L294.669 47.0643C293.949 46.6823 293.338 46.1343 292.888 45.4664Z" fill="#FAAFB2"/>
<path d="M295.719 51.1891L299.673 47.5496L307.491 54.8286L300.22 59.7992L295.719 51.1891Z" fill="#DFDFE0"/>
<path d="M156.074 58.6526H121.129V60.9548H156.074V58.6526Z" fill="#C9CDD8"/>
<path d="M118.318 58.6526H115.988V60.9548H118.318V58.6526Z" fill="#4FAE86"/>
<path d="M118.318 63.5859H115.988V65.8882H118.318V63.5859Z" fill="#4FAE86"/>
<path d="M118.318 68.4507H115.988V70.7529H118.318V68.4507Z" fill="#4FAE86"/>
<path d="M150.729 63.5859H121.129V65.8882H150.729V63.5859Z" fill="#C9CDD8"/>
<path d="M164.502 68.4507H121.129V70.7529H164.502V68.4507Z" fill="#C9CDD8"/>
<path d="M160.664 73.3157H121.129V75.6179H160.664V73.3157Z" fill="#C9CDD8"/>
<path d="M154.291 83.6619H137.641V84.813H154.291V83.6619Z" fill="#4FAE86"/>
<path d="M183.068 21.8577H155.387V27.4214H183.068V21.8577Z" fill="#FF3A46"/>
<path d="M198.688 82.4973H187.52V84.7996H198.688V82.4973Z" fill="#4FAE86"/>
<path d="M232.061 82.4973H204.379V84.7996H232.061V82.4973Z" fill="#4FAE86"/>
<path d="M0.53125 153.385H380.47" stroke="#4E5683" stroke-miterlimit="10"/>
<defs>
<linearGradient id="paint0_linear_9751_210234" x1="175.84" y1="132.208" x2="175.84" y2="153.469" gradientUnits="userSpaceOnUse">
<stop stop-color="#EEF4FB"/>
<stop offset="0.31" stop-color="#E3EDF8"/>
<stop offset="1" stop-color="#CFE1F3"/>
</linearGradient>
<linearGradient id="paint1_linear_9751_210234" x1="167.575" y1="109.521" x2="167.575" y2="135.058" gradientUnits="userSpaceOnUse">
<stop stop-color="#EEF4FB"/>
<stop offset="0.31" stop-color="#E3EDF8"/>
<stop offset="1" stop-color="#CFE1F3"/>
</linearGradient>
</defs>
</svg>
