<svg width="520" height="513" viewBox="0 0 520 513" fill="none" xmlns="http://www.w3.org/2000/svg">
<g opacity="0.5">
<path d="M268.4 512.886C407.355 512.886 520 400.241 520 261.286C520 122.331 407.355 9.68616 268.4 9.68616C129.445 9.68616 16.8003 122.331 16.8003 261.286C16.8003 400.241 129.445 512.886 268.4 512.886Z" fill="white"/>
<path d="M370.16 434.129L285.257 294.586M261.318 475.297L370.16 434.129L261.318 475.297ZM19.8511 186.505L112.018 424.814L19.8511 186.505ZM257.009 19.8511L138.958 85.0217L257.009 19.8511ZM19.8511 186.505L138.958 85.0217L19.8511 186.505ZM355.838 58.22L257.009 19.8511L355.838 58.22ZM409.422 116.377L355.838 58.22L409.422 116.377ZM483.933 141.959L409.422 116.377L483.933 141.959ZM451.64 245.184L370.16 434.129L451.64 245.184ZM487.355 381.312L370.16 434.129L487.355 381.312ZM138.958 85.0217L355.838 58.22L138.958 85.0217ZM137.707 325.614L112.018 424.814L137.707 325.614ZM19.8511 186.505L137.707 325.614L19.8511 186.505ZM261.318 475.297L137.707 325.614L261.318 475.297ZM140.254 196.688L261.318 172.931L140.254 196.688ZM355.838 58.22L285.257 294.586L355.838 58.22ZM451.64 245.184L409.422 116.377L451.64 245.184ZM285.257 294.586L261.318 172.931L355.838 58.22L285.257 294.586Z" stroke="#6750A4" stroke-width="4" stroke-linecap="round" stroke-linejoin="round"/>
<path d="M285.1 293.566L261.318 475.297L112.018 424.813" stroke="#6750A4" stroke-width="4" stroke-linecap="round" stroke-linejoin="round"/>
<path d="M261.318 190.782C271.176 190.782 279.169 182.789 279.169 172.931C279.169 163.072 271.176 155.08 261.318 155.08C251.459 155.08 243.467 163.072 243.467 172.931C243.467 182.789 251.459 190.782 261.318 190.782Z" fill="white" stroke="#6750A4" stroke-width="4" stroke-linecap="round" stroke-linejoin="round"/>
<path d="M285.257 294.585L409.422 116.377L285.257 294.585Z" fill="white"/>
<path d="M285.257 294.585L409.422 116.377" stroke="#6750A4" stroke-width="4" stroke-linecap="round" stroke-linejoin="round"/>
<path d="M409.422 134.228C419.281 134.228 427.273 126.236 427.273 116.377C427.273 106.518 419.281 98.5262 409.422 98.5262C399.563 98.5262 391.571 106.518 391.571 116.377C391.571 126.236 399.563 134.228 409.422 134.228Z" fill="white" stroke="#6750A4" stroke-width="4" stroke-linecap="round" stroke-linejoin="round"/>
<path d="M483.933 159.81C493.792 159.81 501.784 151.817 501.784 141.959C501.784 132.1 493.792 124.108 483.933 124.108C474.074 124.108 466.082 132.1 466.082 141.959C466.082 151.817 474.074 159.81 483.933 159.81Z" fill="white" stroke="#6750A4" stroke-width="4" stroke-linecap="round" stroke-linejoin="round"/>
<path d="M487.355 399.163C497.214 399.163 505.206 391.171 505.206 381.312C505.206 371.453 497.214 363.461 487.355 363.461C477.496 363.461 469.504 371.453 469.504 381.312C469.504 391.171 477.496 399.163 487.355 399.163Z" fill="white" stroke="#6750A4" stroke-width="4" stroke-linecap="round" stroke-linejoin="round"/>
<path d="M355.837 76.0709C365.696 76.0709 373.688 68.0787 373.688 58.2199C373.688 48.3611 365.696 40.3689 355.837 40.3689C345.979 40.3689 337.986 48.3611 337.986 58.2199C337.986 68.0787 345.979 76.0709 355.837 76.0709Z" fill="white" stroke="#6750A4" stroke-width="4" stroke-linecap="round" stroke-linejoin="round"/>
<path d="M138.889 102.873C148.748 102.873 156.74 94.8804 156.74 85.0216C156.74 75.1628 148.748 67.1706 138.889 67.1706C129.03 67.1706 121.038 75.1628 121.038 85.0216C121.038 94.8804 129.03 102.873 138.889 102.873Z" fill="white" stroke="#6750A4" stroke-width="4" stroke-linecap="round" stroke-linejoin="round"/>
<path d="M19.851 205.098C29.7099 205.098 37.702 197.105 37.702 187.247C37.702 177.388 29.7099 169.396 19.851 169.396C9.99217 169.396 2 177.388 2 187.247C2 197.105 9.99217 205.098 19.851 205.098Z" fill="white" stroke="#6750A4" stroke-width="4" stroke-linecap="round" stroke-linejoin="round"/>
<path d="M257.009 37.702C266.868 37.702 274.86 29.7099 274.86 19.851C274.86 9.99217 266.868 2 257.009 2C247.15 2 239.158 9.99217 239.158 19.851C239.158 29.7099 247.15 37.702 257.009 37.702Z" fill="white" stroke="#6750A4" stroke-width="4" stroke-linecap="round" stroke-linejoin="round"/>
<path d="M261.318 492.355C271.176 492.355 279.169 484.363 279.169 474.504C279.169 464.645 271.176 456.653 261.318 456.653C251.459 456.653 243.467 464.645 243.467 474.504C243.467 484.363 251.459 492.355 261.318 492.355Z" fill="white" stroke="#6750A4" stroke-width="4" stroke-linecap="round" stroke-linejoin="round"/>
<path d="M112.018 442.665C121.877 442.665 129.869 434.672 129.869 424.814C129.869 414.955 121.877 406.963 112.018 406.963C102.159 406.963 94.1672 414.955 94.1672 424.814C94.1672 434.672 102.159 442.665 112.018 442.665Z" fill="white" stroke="#6750A4" stroke-width="4" stroke-linecap="round" stroke-linejoin="round"/>
<path d="M137.706 343.465C147.565 343.465 155.557 335.473 155.557 325.614C155.557 315.755 147.565 307.763 137.706 307.763C127.848 307.763 119.855 315.755 119.855 325.614C119.855 335.473 127.848 343.465 137.706 343.465Z" fill="white" stroke="#6750A4" stroke-width="4" stroke-linecap="round" stroke-linejoin="round"/>
<path d="M140.254 230.044C165.235 230.044 185.485 209.793 185.485 184.812C185.485 159.832 165.235 139.581 140.254 139.581C115.273 139.581 95.0227 159.832 95.0227 184.812C95.0227 209.793 115.273 230.044 140.254 230.044Z" fill="white" stroke="#6750A4" stroke-width="4" stroke-linecap="round" stroke-linejoin="round"/>
<path d="M170.496 218.445C162.194 225.901 151.429 230.026 140.27 230.026C129.111 230.026 118.346 225.901 110.043 218.445C112.54 212.499 116.738 207.422 122.109 203.852C127.48 200.282 133.786 198.377 140.235 198.377C146.685 198.377 152.99 200.282 158.362 203.852C163.733 207.422 167.93 212.499 170.427 218.445" fill="#23005C"/>
<path d="M170.496 218.445C162.194 225.901 151.429 230.026 140.27 230.026C129.111 230.026 118.346 225.901 110.043 218.445C112.54 212.499 116.738 207.422 122.109 203.852C127.48 200.282 133.786 198.377 140.235 198.377C146.685 198.377 152.99 200.282 158.362 203.852C163.733 207.422 167.93 212.499 170.427 218.445" stroke="#6750A4" stroke-width="4" stroke-linecap="round" stroke-linejoin="round"/>
<path d="M285.264 361.052C321.972 361.052 351.73 331.294 351.73 294.585C351.73 257.877 321.972 228.119 285.264 228.119C248.555 228.119 218.797 257.877 218.797 294.585C218.797 331.294 248.555 361.052 285.264 361.052Z" fill="white" stroke="#6750A4" stroke-width="4" stroke-linecap="round" stroke-linejoin="round"/>
<path d="M263.878 293.044C263.878 298.716 266.131 304.156 270.142 308.166C274.152 312.177 279.592 314.43 285.264 314.43C290.936 314.43 296.375 312.177 300.386 308.166C304.396 304.156 306.65 298.716 306.65 293.044V282.351C306.65 276.679 304.396 271.24 300.386 267.229C296.375 263.218 290.936 260.965 285.264 260.965C279.592 260.965 274.152 263.218 270.142 267.229C266.131 271.24 263.878 276.679 263.878 282.351V293.044Z" fill="white" stroke="#6750A4" stroke-width="4" stroke-linecap="round" stroke-linejoin="round"/>
<path d="M329.69 344.019C317.49 354.979 301.67 361.042 285.27 361.042C268.87 361.042 253.05 354.979 240.85 344.019C244.501 335.258 250.661 327.772 258.557 322.504C266.452 317.236 275.728 314.421 285.22 314.413C294.711 314.405 303.993 317.204 311.897 322.459C319.801 327.713 325.974 335.188 329.64 343.943" fill="#23005C"/>
<path d="M329.69 344.019C317.49 354.979 301.67 361.042 285.27 361.042C268.87 361.042 253.05 354.979 240.85 344.019C244.501 335.258 250.661 327.772 258.557 322.504C266.452 317.236 275.728 314.421 285.22 314.413C294.711 314.405 303.993 317.204 311.897 322.459C319.801 327.713 325.974 335.188 329.64 343.943" stroke="#6750A4" stroke-width="4" stroke-linecap="round" stroke-linejoin="round"/>
<path d="M264.054 279.59C264.61 275.271 266.472 271.225 269.391 267.992C272.309 264.76 276.145 262.496 280.385 261.502C284.625 260.508 289.067 260.833 293.117 262.432C297.168 264.031 300.634 266.829 303.052 270.451C297.988 275.363 291.686 278.807 284.817 280.417C277.949 282.026 270.772 281.741 264.054 279.59Z" fill="white" stroke="#6750A4" stroke-width="4" stroke-linecap="round" stroke-linejoin="round"/>
<path d="M451.641 287.157C476.621 287.157 496.872 266.906 496.872 241.926C496.872 216.945 476.621 196.694 451.641 196.694C426.66 196.694 406.409 216.945 406.409 241.926C406.409 266.906 426.66 287.157 451.641 287.157Z" fill="white" stroke="#6750A4" stroke-width="4" stroke-linecap="round" stroke-linejoin="round"/>
<path d="M437.085 240.875C437.085 244.735 438.619 248.438 441.348 251.167C444.078 253.897 447.78 255.43 451.64 255.43C455.501 255.43 459.203 253.897 461.932 251.167C464.662 248.438 466.196 244.735 466.196 240.875V233.598C466.196 229.737 464.662 226.035 461.932 223.306C459.203 220.576 455.501 219.043 451.64 219.043C447.78 219.043 444.078 220.576 441.348 223.306C438.619 226.035 437.085 229.737 437.085 233.598V240.875Z" fill="white" stroke="#6750A4" stroke-width="4" stroke-linecap="round" stroke-linejoin="round"/>
<path d="M481.876 275.565C473.574 283.024 462.808 287.15 451.647 287.15C440.486 287.15 429.719 283.024 421.417 275.565C423.902 269.603 428.095 264.509 433.469 260.924C438.842 257.34 445.155 255.424 451.614 255.419C458.073 255.413 464.39 257.318 469.769 260.894C475.148 264.47 479.35 269.557 481.845 275.514" fill="#23005C"/>
<path d="M481.876 275.565C473.574 283.024 462.808 287.15 451.647 287.15C440.486 287.15 429.719 283.024 421.417 275.565C423.902 269.603 428.095 264.509 433.469 260.924C438.842 257.34 445.155 255.424 451.614 255.419C458.073 255.413 464.39 257.318 469.769 260.894C475.148 264.47 479.35 269.557 481.845 275.514" stroke="#6750A4" stroke-width="4" stroke-linecap="round" stroke-linejoin="round"/>
<path d="M437.205 231.717C437.587 228.782 438.856 226.033 440.841 223.837C442.825 221.641 445.433 220.103 448.314 219.427C451.196 218.751 454.216 218.97 456.97 220.054C459.724 221.139 462.082 223.037 463.73 225.496C460.284 228.835 455.998 231.177 451.327 232.272C446.656 233.368 441.775 233.176 437.205 231.717Z" fill="white" stroke="#6750A4" stroke-width="4" stroke-linecap="round" stroke-linejoin="round"/>
<path d="M370.16 479.203C395.14 479.203 415.391 458.952 415.391 433.972C415.391 408.991 395.14 388.74 370.16 388.74C345.179 388.74 324.928 408.991 324.928 433.972C324.928 458.952 345.179 479.203 370.16 479.203Z" fill="white" stroke="#6750A4" stroke-width="4" stroke-linecap="round" stroke-linejoin="round"/>
<path d="M355.605 432.934C355.605 436.794 357.138 440.496 359.868 443.226C362.597 445.955 366.3 447.489 370.16 447.489C374.02 447.489 377.722 445.955 380.452 443.226C383.181 440.496 384.715 436.794 384.715 432.934V425.65C384.715 421.79 383.181 418.088 380.452 415.358C377.722 412.628 374.02 411.095 370.16 411.095C366.3 411.095 362.597 412.628 359.868 415.358C357.138 418.088 355.605 421.79 355.605 425.65V432.934Z" fill="white" stroke="#6750A4" stroke-width="4" stroke-linecap="round" stroke-linejoin="round"/>
<path d="M400.396 467.617C392.092 475.072 381.326 479.196 370.166 479.196C359.006 479.196 348.24 475.072 339.936 467.617C342.421 461.655 346.614 456.561 351.986 452.975C357.359 449.39 363.672 447.474 370.131 447.468C376.591 447.462 382.907 449.366 388.287 452.941C393.666 456.516 397.868 461.603 400.364 467.56" fill="#23005C"/>
<path d="M400.396 467.617C392.092 475.072 381.326 479.196 370.166 479.196C359.006 479.196 348.24 475.072 339.936 467.617C342.421 461.655 346.614 456.561 351.986 452.975C357.359 449.39 363.672 447.474 370.131 447.468C376.591 447.462 382.907 449.366 388.287 452.941C393.666 456.516 397.868 461.603 400.364 467.56" stroke="#6750A4" stroke-width="4" stroke-linecap="round" stroke-linejoin="round"/>
<path d="M355.724 423.769C356.107 420.834 357.375 418.085 359.36 415.889C361.345 413.694 363.952 412.155 366.834 411.479C369.716 410.803 372.735 411.022 375.489 412.107C378.243 413.191 380.601 415.089 382.249 417.548C378.804 420.887 374.517 423.229 369.846 424.324C365.175 425.42 360.295 425.228 355.724 423.769Z" fill="white" stroke="#6750A4" stroke-width="4" stroke-linecap="round" stroke-linejoin="round"/>
<path d="M470.951 374.267L346.358 320.802M278.005 179.265L408.353 228.754L278.005 179.265ZM482.826 364.039L462.321 285.886L482.826 364.039ZM220.087 307.7L155.155 321.821L220.087 307.7ZM478.606 158.998L466.076 199.04L478.606 158.998ZM171.339 217.671L230.17 257.393L171.339 217.671ZM139.594 139.581L139.166 102.866L139.594 139.581ZM170.377 151.067L247.171 34.7456L170.377 151.067ZM95.746 192.926L37.6831 188.008L95.746 192.926ZM139.6 230.037L138.059 307.769L139.6 230.037Z" stroke="#6750A4" stroke-width="4" stroke-linecap="round" stroke-linejoin="round"/>
<path d="M125.706 183.762C125.665 185.698 126.012 187.623 126.725 189.424C127.438 191.225 128.504 192.865 129.859 194.249C131.214 195.633 132.832 196.732 134.618 197.482C136.403 198.233 138.321 198.62 140.257 198.62C142.194 198.62 144.112 198.233 145.897 197.482C147.683 196.732 149.301 195.633 150.656 194.249C152.011 192.865 153.077 191.225 153.79 189.424C154.503 187.623 154.85 185.698 154.809 183.762V176.484C154.85 174.548 154.503 172.623 153.79 170.822C153.077 169.021 152.011 167.381 150.656 165.997C149.301 164.614 147.683 163.514 145.897 162.764C144.112 162.013 142.194 161.627 140.257 161.627C138.321 161.627 136.403 162.013 134.618 162.764C132.832 163.514 131.214 164.614 129.859 165.997C128.504 167.381 127.438 169.021 126.725 170.822C126.012 172.623 125.665 174.548 125.706 176.484V183.762Z" fill="white" stroke="#6750A4" stroke-width="4" stroke-linecap="round" stroke-linejoin="round"/>
<path d="M125.825 174.604C126.206 171.668 127.473 168.919 129.457 166.722C131.441 164.526 134.048 162.987 136.93 162.311C139.812 161.635 142.831 161.854 145.586 162.939C148.34 164.024 150.697 165.923 152.344 168.383C148.9 171.723 144.615 174.066 139.945 175.161C135.274 176.257 130.394 176.064 125.825 174.604Z" fill="white" stroke="#6750A4" stroke-width="4" stroke-linecap="round" stroke-linejoin="round"/>
</g>
</svg>
