<svg width="24" height="24" viewBox="0 0 24 24" fill="none" xmlns="http://www.w3.org/2000/svg">
<path d="M4.61457 6.20552C5.05295 6.20552 5.47362 6.03126 5.78376 5.72108C6.09375 5.41109 6.26802 4.99045 6.26802 4.55189C6.26802 4.11333 6.09376 3.69284 5.78376 3.3827C5.4736 3.07254 5.05295 2.89844 4.61439 2.89844C4.17583 2.89844 3.75534 3.07253 3.4452 3.3827C3.13521 3.69286 2.96094 4.11333 2.96094 4.55189C2.96077 4.99045 3.13486 5.41129 3.44503 5.72143C3.75519 6.03142 4.17583 6.2057 4.61457 6.20552Z" fill="#A400FF"/>
<path d="M13.0722 14.9219H14.4L11.8389 21.9833H10.5L13.0722 14.9219Z" fill="#A400FF"/>
<path d="M15.6406 14.9219H16.8572V21.9994H15.6406V14.9219Z" fill="#A400FF"/>
<path d="M19.4215 14.9219L21.9939 21.9833H20.6605L18.0938 14.9219H19.4215Z" fill="#A400FF"/>
<path d="M22.0005 2V14.0001H19.0894V14.0057H17.7616V14.0001H16.8562V14.0057H15.6395V14.0001H14.7339V14.0057H13.4061V14.0001H10.6172V10.0002H15.0783C15.3326 9.99885 15.5382 9.79322 15.5396 9.539V7.078C15.5397 6.95558 15.4913 6.83809 15.4047 6.75147C15.3182 6.66502 15.2007 6.61643 15.0783 6.61677H10.6172V2.00024L22.0005 2Z" fill="#A400FF"/>
<path d="M2.61719 14.9219H4.15248V21.9973H2.61719V14.9219Z" fill="#A400FF"/>
<path d="M5.07812 14.9219H6.6194V21.9973H5.07812V14.9219Z" fill="#A400FF"/>
<path d="M14.6153 7.53906H2.77056C2.56629 7.53923 2.37037 7.62057 2.22593 7.76499C2.0815 7.90941 2.00017 8.10533 2 8.30962V14.0013H7.2307V9.53534C7.23053 9.41292 7.27912 9.2956 7.36557 9.20915C7.45219 9.1227 7.5695 9.07411 7.69176 9.07411H14.6152L14.6153 7.53906Z" fill="#A400FF"/>
</svg>
