<svg width="25" height="24" viewBox="0 0 25 24" fill="none" xmlns="http://www.w3.org/2000/svg">
<path d="M8.21058 13.323V19.7936C8.21058 20.1185 7.94723 20.3818 7.62238 20.3818H2.91632C2.59145 20.3818 2.32812 20.1184 2.32812 19.7936V12.1465C2.32812 10.847 3.38154 9.79356 4.68109 9.79356H13.5044C14.4791 9.79356 15.2691 10.5836 15.2691 11.5582C15.2691 12.5329 14.479 13.3229 13.5044 13.3229L8.21058 13.323ZM4.97531 8.32301C3.67576 8.32301 2.62234 7.26959 2.62234 5.97016C2.62234 4.6706 3.67576 3.61719 4.97531 3.61719C6.27475 3.61719 7.32828 4.6706 7.32828 5.97016C7.32828 7.26959 6.27478 8.32301 4.97531 8.32301ZM9.38709 5.08774C9.06222 5.08774 8.7989 4.82439 8.7989 4.49954C8.7989 4.17467 9.06225 3.91135 9.38709 3.91135H20.5634C21.5381 3.91135 22.3281 4.70141 22.3281 5.67609V14.4993C22.3281 15.4741 21.5381 16.2641 20.5634 16.2641H14.6811C14.3562 16.2641 14.0929 16.0007 14.0929 15.6759C14.0929 15.351 14.3563 15.0876 14.6811 15.0876H20.5634C20.8883 15.0876 21.1517 14.8242 21.1517 14.4994V5.67612C21.1517 5.35124 20.8884 5.0878 20.5634 5.0878L9.38709 5.08774Z" fill="#A400FF"/>
</svg>
