<svg width="25" height="24" viewBox="0 0 25 24" fill="none" xmlns="http://www.w3.org/2000/svg">
<path d="M5.36847 6.20552C5.80686 6.20552 6.22752 6.03126 6.53766 5.72108C6.84766 5.41109 7.02193 4.99045 7.02193 4.55189C7.02193 4.11333 6.84766 3.69284 6.53766 3.3827C6.2275 3.07254 5.80686 2.89844 5.3683 2.89844C4.92974 2.89844 4.50925 3.07253 4.19911 3.3827C3.88912 3.69286 3.71484 4.11333 3.71484 4.55189C3.71467 4.99045 3.88877 5.41129 4.19893 5.72143C4.50909 6.03142 4.92974 6.2057 5.36847 6.20552Z" fill="#A400FF"/>
<path d="M13.8261 14.9229H15.1539L12.5928 21.9843H11.2539L13.8261 14.9229Z" fill="#A400FF"/>
<path d="M16.3906 14.9229H17.6072V22.0004H16.3906V14.9229Z" fill="#A400FF"/>
<path d="M20.1715 14.9229L22.7439 21.9843H21.4105L18.8438 14.9229H20.1715Z" fill="#A400FF"/>
<path d="M22.7545 2V14.0001H19.8433V14.0057H18.5156V14.0001H17.6101V14.0057H16.3934V14.0001H15.4878V14.0057H14.16V14.0001H11.3711V10.0002H15.8322C16.0865 9.99885 16.2921 9.79322 16.2935 9.539V7.078C16.2936 6.95558 16.2452 6.83809 16.1586 6.75147C16.0721 6.66502 15.9547 6.61643 15.8322 6.61677H11.3711V2.00024L22.7545 2Z" fill="#A400FF"/>
<path d="M3.36719 14.9229H4.90248V21.9982H3.36719V14.9229Z" fill="#A400FF"/>
<path d="M5.82812 14.9229H7.3694V21.9982H5.82812V14.9229Z" fill="#A400FF"/>
<path d="M15.3653 7.54004H3.52056C3.31629 7.54021 3.12037 7.62154 2.97593 7.76597C2.8315 7.91039 2.75017 8.10631 2.75 8.3106V14.0023H7.9807V9.53632C7.98053 9.41389 8.02912 9.29658 8.11557 9.21013C8.20219 9.12368 8.3195 9.07508 8.44176 9.07508H15.3652L15.3653 7.54004Z" fill="#A400FF"/>
</svg>
