<svg width="25" height="24" viewBox="0 0 25 24" fill="none" xmlns="http://www.w3.org/2000/svg">
<path d="M20.996 2.07817H4.33209C3.88994 2.07768 3.46566 2.25313 3.15268 2.56565C2.83985 2.87815 2.66406 3.30224 2.66406 3.7446V16.9278C2.66406 17.3698 2.83968 17.7935 3.15217 18.1062C3.46467 18.4187 3.88843 18.5942 4.33045 18.5942H10.9128V20.3875H6.94137V21.927H18.3868V20.3875H14.4137V18.5942H20.996C21.4382 18.5947 21.8625 18.4194 22.1754 18.1067C22.4883 17.7942 22.6641 17.3701 22.6641 16.9277V3.74455C22.6641 3.30224 22.4883 2.87813 22.1754 2.5656C21.8625 2.2531 21.4382 2.07766 20.996 2.07813L20.996 2.07817ZM21.0137 15.4925L4.34981 15.4923V3.85111H21.0128L21.0137 15.4925Z" fill="#A400FF"/>
<path d="M8.33979 8.88318L12.7031 11.2558L17.3155 8.6407L17.3299 8.66716L17.3491 8.65658L12.6291 6.00781L7.90899 8.65658L7.76562 10.5032H8.5261L8.33979 8.88318Z" fill="#A400FF"/>
<path d="M9.44531 10.2643V11.9716C9.44531 12.627 10.9048 13.359 12.7052 13.359C14.5056 13.359 15.9651 12.6244 15.9651 11.9716L15.9653 10.1328L12.7173 11.9749L9.44531 10.2643Z" fill="#A400FF"/>
</svg>
