<svg width="25" height="24" viewBox="0 0 25 24" fill="none" xmlns="http://www.w3.org/2000/svg">
<path d="M21.5 2H3.49996C2.94766 2 2.5 2.44766 2.5 2.99997V17C2.5 17.5523 2.94766 18 3.49996 18H10.5V19.9999L7.4999 20.0001V22H17.4999V20.0001H14.4998V18.0001H21.4999C22.0522 18.0001 22.4998 17.5525 22.4998 17.0002V3.00012C22.5 2.44766 22.0523 2 21.5 2V2ZM20.5001 16.0001H4.50001V4.00001H20.5001V16.0001Z" fill="#A400FF"/>
<path d="M15.996 12.7499C15.996 11.6453 15.1007 10.75 13.9961 10.75H10.996C9.89142 10.75 8.99609 11.6453 8.99609 12.7499V14.25H15.9961L15.996 12.7499Z" fill="#A400FF"/>
<path d="M14.4999 7.997C14.4999 9.10161 13.6045 9.99709 12.4999 9.99709C11.3953 9.99709 10.5 9.10161 10.5 7.997C10.5 6.89239 11.3953 5.99707 12.4999 5.99707C13.6045 5.99707 14.4999 6.89239 14.4999 7.997Z" fill="#A400FF"/>
</svg>
