<svg width="18" height="19" viewBox="0 0 18 19" fill="none" xmlns="http://www.w3.org/2000/svg">
<g clip-path="url(#clip0_8043_206910)">
<path d="M16.5 3.16211V2.78711C16.5 1.75211 15.66 0.912109 14.625 0.912109C13.59 0.912109 12.75 1.75211 12.75 2.78711V3.16211C12.3375 3.16211 12 3.49961 12 3.91211V6.91211C12 7.32461 12.3375 7.66211 12.75 7.66211H16.5C16.9125 7.66211 17.25 7.32461 17.25 6.91211V3.91211C17.25 3.49961 16.9125 3.16211 16.5 3.16211ZM15.9 3.16211H13.35V2.78711C13.35 2.08211 13.92 1.51211 14.625 1.51211C15.33 1.51211 15.9 2.08211 15.9 2.78711V3.16211ZM14.19 9.16211C14.22 9.40961 14.25 9.65711 14.25 9.91211C14.25 11.4721 13.65 12.8896 12.675 13.9546C12.48 13.3471 11.925 12.9121 11.25 12.9121H10.5V10.6621C10.5 10.2496 10.1625 9.91211 9.75 9.91211H5.25V8.41211H6.75C7.1625 8.41211 7.5 8.07461 7.5 7.66211V6.16211H9C9.825 6.16211 10.5 5.48711 10.5 4.66211V2.75711C9.7875 2.53211 9.0375 2.41211 8.25 2.41211C4.11 2.41211 0.75 5.77211 0.75 9.91211C0.75 14.0521 4.11 17.4121 8.25 17.4121C12.39 17.4121 15.75 14.0521 15.75 9.91211C15.75 9.65711 15.735 9.40961 15.7125 9.16211H14.19ZM7.5 15.8596C4.5375 15.4921 2.25 12.9721 2.25 9.91211C2.25 9.44711 2.31 9.00461 2.4075 8.56961L6 12.1621V12.9121C6 13.7371 6.675 14.4121 7.5 14.4121V15.8596Z" fill="#051F4E"/>
</g>
<defs>
<clipPath id="clip0_8043_206910">
<rect width="18" height="18" fill="white" transform="translate(0 0.162109)"/>
</clipPath>
</defs>
</svg>
