<svg width="20" height="20" viewBox="0 0 20 20" fill="none" xmlns="http://www.w3.org/2000/svg">
<path d="M18.3359 3.33594V2.91927C18.3359 1.76927 17.4026 0.835938 16.2526 0.835938C15.1026 0.835938 14.1693 1.76927 14.1693 2.91927V3.33594C13.7109 3.33594 13.3359 3.71094 13.3359 4.16927V7.5026C13.3359 7.96094 13.7109 8.33594 14.1693 8.33594H18.3359C18.7943 8.33594 19.1693 7.96094 19.1693 7.5026V4.16927C19.1693 3.71094 18.7943 3.33594 18.3359 3.33594ZM17.6693 3.33594H14.8359V2.91927C14.8359 2.13594 15.4693 1.5026 16.2526 1.5026C17.0359 1.5026 17.6693 2.13594 17.6693 2.91927V3.33594ZM15.7693 10.0026C15.8026 10.2776 15.8359 10.5526 15.8359 10.8359C15.8359 12.5693 15.1693 14.1443 14.0859 15.3276C13.8693 14.6526 13.2526 14.1693 12.5026 14.1693H11.6693V11.6693C11.6693 11.2109 11.2943 10.8359 10.8359 10.8359H5.83594V9.16927H7.5026C7.96094 9.16927 8.33594 8.79427 8.33594 8.33594V6.66927H10.0026C10.9193 6.66927 11.6693 5.91927 11.6693 5.0026V2.88594C10.8776 2.63594 10.0443 2.5026 9.16927 2.5026C4.56927 2.5026 0.835938 6.23594 0.835938 10.8359C0.835938 15.4359 4.56927 19.1693 9.16927 19.1693C13.7693 19.1693 17.5026 15.4359 17.5026 10.8359C17.5026 10.5526 17.4859 10.2776 17.4609 10.0026H15.7693ZM8.33594 17.4443C5.04427 17.0359 2.5026 14.2359 2.5026 10.8359C2.5026 10.3193 2.56927 9.8276 2.6776 9.34427L6.66927 13.3359V14.1693C6.66927 15.0859 7.41927 15.8359 8.33594 15.8359V17.4443Z" fill="#77838F"/>
</svg>
