<svg width="18" height="19" viewBox="0 0 18 19" fill="none" xmlns="http://www.w3.org/2000/svg">
<g clip-path="url(#clip0_8043_206834)">
<path d="M9 1.55396C4.86 1.55396 1.5 4.91396 1.5 9.05396C1.5 13.194 4.86 16.554 9 16.554C13.14 16.554 16.5 13.194 16.5 9.05396C16.5 4.91396 13.14 1.55396 9 1.55396ZM8.25 15.0015C5.2875 14.634 3 12.114 3 9.05396C3 8.58896 3.06 8.14646 3.1575 7.71146L6.75 11.304V12.054C6.75 12.879 7.425 13.554 8.25 13.554V15.0015ZM13.425 13.0965C13.23 12.489 12.675 12.054 12 12.054H11.25V9.80396C11.25 9.39146 10.9125 9.05396 10.5 9.05396H6V7.55396H7.5C7.9125 7.55396 8.25 7.21646 8.25 6.80396V5.30396H9.75C10.575 5.30396 11.25 4.62896 11.25 3.80396V3.49646C13.4475 4.38896 15 6.54146 15 9.05396C15 10.614 14.4 12.0315 13.425 13.0965Z" fill="#051F4E"/>
</g>
<defs>
<clipPath id="clip0_8043_206834">
<rect width="18" height="18" fill="white" transform="translate(0 0.0539551)"/>
</clipPath>
</defs>
</svg>
