<svg width="24" height="22" viewBox="0 0 24 22" fill="none" xmlns="http://www.w3.org/2000/svg">
<path d="M20.1818 4.862L9.80909 15.14L5.95455 11.324L7.23636 10.055L9.80909 12.602L18.9 3.602L20.1818 4.862ZM11.0909 18.2C7.08182 18.2 3.81818 14.969 3.81818 11C3.81818 7.031 7.08182 3.8 11.0909 3.8C12.5182 3.8 13.8545 4.214 14.9818 4.925L16.3 3.62C14.8182 2.603 13.0273 2 11.0909 2C6.07273 2 2 6.032 2 11C2 15.968 6.07273 20 11.0909 20C12.6636 20 14.1455 19.604 15.4364 18.902L14.0727 17.552C13.1636 17.966 12.1545 18.2 11.0909 18.2ZM17.4545 13.34H14.7273V15.14H17.4545H19.2727H22V13.34H19.2727H17.4545Z" fill="#48464A"/>
<path d="M14.7273 13.34H17.4545H19.2727H22V15.14H19.2727H17.4545H14.7273V13.34Z" fill="#48464A"/>
</svg>
