<svg width="16" height="16" viewBox="0 0 16 16" fill="none" xmlns="http://www.w3.org/2000/svg">
<path fill-rule="evenodd" clip-rule="evenodd" d="M14.6667 2.16667H13.6911C13.3479 1.19568 12.4218 0.5 11.3333 0.5C10.2448 0.5 9.31875 1.19568 8.97558 2.16667H1.33333C0.8731 2.16667 0.5 2.53977 0.5 3C0.5 3.46023 0.8731 3.83333 1.33333 3.83333H8.97558C9.31875 4.80433 10.2448 5.5 11.3333 5.5C12.4218 5.5 13.3479 4.80433 13.6911 3.83333H14.6667C15.1269 3.83333 15.5 3.46023 15.5 3C15.5 2.53977 15.1269 2.16667 14.6667 2.16667ZM11.3333 3.83333C11.7936 3.83333 12.1667 3.46023 12.1667 3C12.1667 2.53977 11.7936 2.16667 11.3333 2.16667C10.8731 2.16667 10.5 2.53977 10.5 3C10.5 3.46023 10.8731 3.83333 11.3333 3.83333ZM0.5 8C0.5 7.53975 0.8731 7.16667 1.33333 7.16667H2.30893C2.65212 6.19567 3.57815 5.5 4.66667 5.5C5.75518 5.5 6.68125 6.19567 7.02442 7.16667H14.6667C15.1269 7.16667 15.5 7.53975 15.5 8C15.5 8.46025 15.1269 8.83333 14.6667 8.83333H7.02442C6.68125 9.80433 5.75518 10.5 4.66667 10.5C3.57815 10.5 2.65212 9.80433 2.30893 8.83333H1.33333C0.8731 8.83333 0.5 8.46025 0.5 8ZM4.66667 8.83333C5.12691 8.83333 5.5 8.46025 5.5 8C5.5 7.53975 5.12691 7.16667 4.66667 7.16667C4.20643 7.16667 3.83333 7.53975 3.83333 8C3.83333 8.46025 4.20643 8.83333 4.66667 8.83333ZM1.33333 12.1667C0.8731 12.1667 0.5 12.5398 0.5 13C0.5 13.4602 0.8731 13.8333 1.33333 13.8333H8.97558C9.31875 14.8043 10.2448 15.5 11.3333 15.5C12.4218 15.5 13.3479 14.8043 13.6911 13.8333H14.6667C15.1269 13.8333 15.5 13.4602 15.5 13C15.5 12.5398 15.1269 12.1667 14.6667 12.1667H13.6911C13.3479 11.1957 12.4218 10.5 11.3333 10.5C10.2448 10.5 9.31875 11.1957 8.97558 12.1667H1.33333ZM12.1667 13C12.1667 13.4602 11.7936 13.8333 11.3333 13.8333C10.8731 13.8333 10.5 13.4602 10.5 13C10.5 12.5398 10.8731 12.1667 11.3333 12.1667C11.7936 12.1667 12.1667 12.5398 12.1667 13Z" fill="#051F4E"/>
</svg>
