<svg width="24" height="25" viewBox="0 0 24 25" fill="none" xmlns="http://www.w3.org/2000/svg">
<path fill-rule="evenodd" clip-rule="evenodd" d="M14.76 14.0318L20.49 19.7618L19 21.2518L13.27 15.5218C12.2 16.2918 10.91 16.7618 9.5 16.7618C5.91 16.7618 3 13.8518 3 10.2618C3 6.67184 5.91 3.76184 9.5 3.76184C13.09 3.76184 16 6.67184 16 10.2618C16 11.6718 15.53 12.9618 14.76 14.0318ZM9.5 5.76184C7.01 5.76184 5 7.77184 5 10.2618C5 12.7518 7.01 14.7618 9.5 14.7618C11.99 14.7618 14 12.7518 14 10.2618C14 7.77184 11.99 5.76184 9.5 5.76184Z" fill="#4B454D"/>
</svg>
