<svg width="24" height="24" viewBox="0 0 24 24" fill="none" xmlns="http://www.w3.org/2000/svg">
<path fill-rule="evenodd" clip-rule="evenodd" d="M17.75 2.5C16.5074 2.5 15.5 3.50736 15.5 4.75C15.5 5.14459 15.6016 5.51545 15.78 5.83787C15.7897 5.85211 15.7989 5.86678 15.8077 5.88187C15.8165 5.89686 15.8246 5.91203 15.8322 5.92735C16.2282 6.5709 16.939 7 17.75 7C18.9926 7 20 5.99264 20 4.75C20 3.50736 18.9926 2.5 17.75 2.5ZM14.9537 7.24865C15.6403 8.01662 16.6387 8.5 17.75 8.5C19.8211 8.5 21.5 6.82107 21.5 4.75C21.5 2.67893 19.8211 1 17.75 1C15.6789 1 14 2.67893 14 4.75C14 5.17091 14.0693 5.57563 14.1972 5.95334L8.54618 9.25117C7.8595 8.48331 6.86119 8 5.75 8C3.67893 8 2 9.67893 2 11.75C2 13.8211 3.67893 15.5 5.75 15.5C6.86142 15.5 7.85991 15.0165 8.54661 14.2484L14.1988 17.542C14.0699 17.9211 14 18.3274 14 18.75C14 20.8211 15.6789 22.5 17.75 22.5C19.8211 22.5 21.5 20.8211 21.5 18.75C21.5 16.6789 19.8211 15 17.75 15C16.6405 15 15.6435 15.4818 14.9569 16.2477L9.30289 12.953C9.4307 12.5754 9.5 12.1708 9.5 11.75C9.5 11.329 9.43063 10.9242 9.30269 10.5464L14.9537 7.24865ZM7.66797 10.573C7.67549 10.5881 7.68356 10.6031 7.6922 10.6179C7.70092 10.6328 7.71008 10.6474 7.71964 10.6615C7.89829 10.9841 8 11.3551 8 11.75C8 12.1444 7.89855 12.515 7.72032 12.8373C7.71042 12.8518 7.70096 12.8668 7.69196 12.8823C7.68319 12.8973 7.67501 12.9125 7.6674 12.9279C7.2714 13.5712 6.56078 14 5.75 14C4.50736 14 3.5 12.9926 3.5 11.75C3.5 10.5074 4.50736 9.5 5.75 9.5C6.56117 9.5 7.27209 9.92926 7.66797 10.573ZM15.7539 17.7107C15.7772 17.6817 15.7987 17.6506 15.818 17.6175C15.8366 17.5855 15.8526 17.5528 15.866 17.5194C16.2678 16.9055 16.9615 16.5 17.75 16.5C18.9926 16.5 20 17.5074 20 18.75C20 19.9926 18.9926 21 17.75 21C16.5074 21 15.5 19.9926 15.5 18.75C15.5 18.3751 15.5917 18.0216 15.7539 17.7107Z" fill="#051F4E"/>
</svg>
