<svg width="18" height="13" viewBox="0 0 18 13" fill="none" xmlns="http://www.w3.org/2000/svg">
<path d="M11.8125 6.5C11.8125 7.24592 11.5162 7.96129 10.9887 8.48874C10.4613 9.01618 9.74592 9.3125 9 9.3125C8.25408 9.3125 7.53871 9.01618 7.01126 8.48874C6.48382 7.96129 6.1875 7.24592 6.1875 6.5C6.1875 5.75408 6.48382 5.03871 7.01126 4.51126C7.53871 3.98382 8.25408 3.6875 9 3.6875C9.74592 3.6875 10.4613 3.98382 10.9887 4.51126C11.5162 5.03871 11.8125 5.75408 11.8125 6.5Z" fill="#0F6BBF"/>
<path d="M0 6.5C0 6.5 3.375 0.3125 9 0.3125C14.625 0.3125 18 6.5 18 6.5C18 6.5 14.625 12.6875 9 12.6875C3.375 12.6875 0 6.5 0 6.5ZM9 10.4375C10.0443 10.4375 11.0458 10.0227 11.7842 9.28423C12.5227 8.54581 12.9375 7.54429 12.9375 6.5C12.9375 5.45571 12.5227 4.45419 11.7842 3.71577C11.0458 2.97734 10.0443 2.5625 9 2.5625C7.95571 2.5625 6.95419 2.97734 6.21577 3.71577C5.47734 4.45419 5.0625 5.45571 5.0625 6.5C5.0625 7.54429 5.47734 8.54581 6.21577 9.28423C6.95419 10.0227 7.95571 10.4375 9 10.4375Z" fill="#0F6BBF"/>
</svg>
