<svg width="20" height="19" viewBox="0 0 20 19" fill="none" xmlns="http://www.w3.org/2000/svg">
<path d="M4 12.7362C5.1 12.7362 6 13.6362 6 14.7362C6 15.8362 5.1 16.7362 4 16.7362C2.9 16.7362 2 15.8362 2 14.7362C2 13.6362 2.9 12.7362 4 12.7362ZM4 10.7362C1.8 10.7362 0 12.5362 0 14.7362C0 16.9362 1.8 18.7362 4 18.7362C6.2 18.7362 8 16.9362 8 14.7362C8 12.5362 6.2 10.7362 4 10.7362ZM10 2.73621C11.1 2.73621 12 3.63621 12 4.73621C12 5.83621 11.1 6.73621 10 6.73621C8.9 6.73621 8 5.83621 8 4.73621C8 3.63621 8.9 2.73621 10 2.73621ZM10 0.736206C7.8 0.736206 6 2.53621 6 4.73621C6 6.93621 7.8 8.73621 10 8.73621C12.2 8.73621 14 6.93621 14 4.73621C14 2.53621 12.2 0.736206 10 0.736206ZM16 12.7362C17.1 12.7362 18 13.6362 18 14.7362C18 15.8362 17.1 16.7362 16 16.7362C14.9 16.7362 14 15.8362 14 14.7362C14 13.6362 14.9 12.7362 16 12.7362ZM16 10.7362C13.8 10.7362 12 12.5362 12 14.7362C12 16.9362 13.8 18.7362 16 18.7362C18.2 18.7362 20 16.9362 20 14.7362C20 12.5362 18.2 10.7362 16 10.7362Z" fill="#6750A4"/>
</svg>
