<svg width="46" height="41" viewBox="0 0 46 41" fill="none" xmlns="http://www.w3.org/2000/svg">
<path d="M45.43 38.4845C45.4283 39.0264 45.2122 39.5457 44.8291 39.929C44.4459 40.3123 43.9267 40.5285 43.3848 40.5305H2.04129C1.50607 40.5198 0.996389 40.2996 0.621666 39.9173C0.246944 39.535 0.0370535 39.021 0.0370535 38.4857C0.0370535 37.9504 0.246944 37.4364 0.621666 37.0541C0.996389 36.6718 1.50607 36.4516 2.04129 36.4409H10.7542C11.2894 36.4302 11.7991 36.21 12.1738 35.8277C12.5485 35.4454 12.7584 34.9314 12.7584 34.3961C12.7584 33.8608 12.5485 33.3468 12.1738 32.9645C11.7991 32.5822 11.2894 32.362 10.7542 32.3513H1.44686C0.978681 32.208 0.577424 31.9016 0.315991 31.4876C0.0545574 31.0737 -0.0497036 30.5797 0.0221507 30.0954C0.0940049 29.6111 0.337207 29.1686 0.707568 28.8484C1.07793 28.5282 1.55087 28.3515 2.04047 28.3503H20.6198C21.155 28.3396 21.6647 28.1195 22.0394 27.7372C22.4141 27.3549 22.624 26.8409 22.624 26.3055C22.624 25.7702 22.4141 25.2562 22.0394 24.8739C21.6647 24.4916 21.155 24.2715 20.6198 24.2607H11.1992C10.664 24.25 10.1543 24.0299 9.77955 23.6476C9.40483 23.2653 9.19494 22.7513 9.19494 22.2159C9.19494 21.6806 9.40483 21.1666 9.77955 20.7843C10.1543 20.402 10.664 20.1819 11.1992 20.1711H34.2269C34.7621 20.1819 35.2718 20.402 35.6465 20.7843C36.0212 21.1666 36.2311 21.6806 36.2311 22.2159C36.2311 22.7513 36.0212 23.2653 35.6465 23.6476C35.2718 24.0299 34.7621 24.25 34.2269 24.2607H29.0699C28.5347 24.2715 28.025 24.4916 27.6503 24.8739C27.2756 25.2562 27.0657 25.7702 27.0657 26.3055C27.0657 26.8409 27.2756 27.3549 27.6503 27.7372C28.025 28.1195 28.5347 28.3396 29.0699 28.3503H43.3848C43.92 28.3611 44.4297 28.5812 44.8044 28.9635C45.1791 29.3458 45.389 29.8598 45.389 30.3951C45.389 30.9305 45.1791 31.4445 44.8044 31.8268C44.4297 32.2091 43.92 32.4292 43.3848 32.44H42.8232C42.6308 32.381 42.4308 32.3511 42.2296 32.3513H19.201C18.6592 32.3532 18.1401 32.5693 17.757 32.9525C17.3739 33.3356 17.1578 33.8547 17.1558 34.3965C17.1578 34.9383 17.3739 35.4574 17.757 35.8405C18.1401 36.2237 18.6592 36.4398 19.201 36.4417H43.3848C43.9262 36.4436 44.4449 36.6594 44.8279 37.042C45.211 37.4246 45.4274 37.9431 45.43 38.4845Z" fill="url(#paint0_linear_4323_435947)"/>
<path d="M6.69135 17.9843L8.96194 14.5771L10.5329 16.2794L12.9589 13.6281L18.0523 14.8666L21.8965 10.749C21.8965 10.749 23.0975 11.9124 23.1779 11.8213C23.2584 11.7301 26.0383 8.27734 26.0383 8.27734" stroke="#202020" stroke-width="0.580291" stroke-linecap="round" stroke-linejoin="round"/>
<path d="M25.829 9.05475C26.1962 9.05475 26.4939 8.7571 26.4939 8.38992C26.4939 8.02275 26.1962 7.7251 25.829 7.7251C25.4619 7.7251 25.1642 8.02275 25.1642 8.38992C25.1642 8.7571 25.4619 9.05475 25.829 9.05475Z" fill="#202020"/>
<path d="M3.93814 3.8916V22.0322H29.3087V3.8916H3.93814ZM28.282 20.9787H4.95951V4.94513H28.282V20.9787Z" fill="#F59B79"/>
<path d="M25.5423 20.9788H4.95416V21.2576H25.5423V20.9788Z" fill="#F06733"/>
<path d="M4.32417 3.8916H3.93814V22.0295H4.32417V3.8916Z" fill="#FFC4AD"/>
<path d="M5.6056 5.04712H5.048V20.8662H5.6056V5.04712Z" fill="#EBE0FD"/>
<path d="M28.2445 5.60471V5.04712L5.30539 5.04712V5.60471L28.2445 5.60471Z" fill="#EBE0FD"/>
<path d="M3.93814 19.129V15.0891" stroke="black" stroke-width="0.580291" stroke-linecap="round" stroke-linejoin="round"/>
<path d="M3.93814 7.25862V3.8916H29.3087V22.0322H3.93814V19.9332" stroke="black" stroke-width="0.580291" stroke-linecap="round" stroke-linejoin="round"/>
<path d="M3.93814 13.8614V9.42212" stroke="black" stroke-width="0.580291" stroke-linecap="round" stroke-linejoin="round"/>
<path d="M28.2847 4.94531H4.9649V20.9789H28.2847V4.94531Z" stroke="black" stroke-width="0.580291" stroke-linecap="round" stroke-linejoin="round"/>
<path d="M43.4605 22.7346H25.3788V10.2905L27.2849 10.0225H43.7285L43.4605 22.7346Z" fill="#BBF0F9"/>
<path d="M43.4605 22.7346H25.3788V22.0671H27.2849H43.4605V22.7346Z" fill="#3ACDDD"/>
<path d="M27.6414 13.9527L27.7191 10.2827H41.6027" stroke="white" stroke-width="1.54744" stroke-linecap="round" stroke-linejoin="round"/>
<path d="M27.2071 22.7346H25.4565V10.3549L27.4751 10.0225L27.2071 22.7346Z" fill="#3ACDDD"/>
<path d="M25.8882 11.7221C25.9428 11.5644 26.0054 11.4096 26.0758 11.2583C26.1389 11.1009 26.2392 10.9611 26.368 10.8508C26.2929 10.9983 26.2097 11.1415 26.1187 11.2797C26.0356 11.4245 25.9632 11.572 25.8882 11.7221Z" fill="black"/>
<path d="M25.7889 11.4542C25.8132 11.3127 25.85 11.1736 25.8988 11.0386C25.9378 10.8968 26.017 10.7693 26.1267 10.6714C26.0735 10.8035 26.0127 10.9324 25.9444 11.0574C25.8854 11.1858 25.8361 11.3184 25.797 11.4542H25.7889Z" fill="black"/>
<path d="M26.4913 22.051C26.4187 21.9009 26.3543 21.747 26.2982 21.59C26.2322 21.4372 26.2037 21.2708 26.2151 21.1047C26.2671 21.2621 26.31 21.4223 26.3438 21.5846C26.3867 21.7428 26.4403 21.9009 26.4939 22.0591L26.4913 22.051Z" fill="black"/>
<path d="M26.2366 21.9331C26.151 21.8172 26.0782 21.6922 26.0195 21.5605C25.9457 21.4331 25.9112 21.2866 25.9203 21.1396C25.9743 21.27 26.0209 21.4034 26.0597 21.5391C26.1095 21.6731 26.1677 21.8038 26.234 21.9305L26.2366 21.9331Z" fill="black"/>
<path d="M43.1763 22.7346H25.6121C25.5502 22.7346 25.4909 22.71 25.4472 22.6662C25.4034 22.6225 25.3789 22.5632 25.3789 22.5013V10.4809C25.3784 10.4276 25.3976 10.3761 25.4327 10.3361C25.4678 10.296 25.5164 10.2703 25.5692 10.2637L27.2849 10.0225H43.4444C43.5198 10.0225 43.592 10.0524 43.6453 10.1057C43.6986 10.159 43.7286 10.2313 43.7286 10.3066L43.4605 22.4477C43.4605 22.5233 43.4306 22.5959 43.3774 22.6496C43.3242 22.7033 43.2519 22.7339 43.1763 22.7346Z" stroke="black" stroke-width="0.580291" stroke-linecap="round" stroke-linejoin="round"/>
<path d="M27.2071 22.7346L27.4752 10.0225" stroke="black" stroke-width="0.580291" stroke-linecap="round" stroke-linejoin="round"/>
<path d="M27.341 21.834H29.0942" stroke="black" stroke-width="0.386861" stroke-linecap="round" stroke-linejoin="round"/>
<path d="M29.5635 21.834H29.7753" stroke="black" stroke-width="0.386861" stroke-linecap="round" stroke-linejoin="round"/>
<path d="M4.94614 6.12744H6.69934" stroke="black" stroke-width="0.386861" stroke-linecap="round" stroke-linejoin="round"/>
<path d="M7.16849 6.12744H7.38027" stroke="black" stroke-width="0.386861" stroke-linecap="round" stroke-linejoin="round"/>
<path d="M27.4752 11.5747H29.8986" stroke="black" stroke-width="0.386861" stroke-linecap="round" stroke-linejoin="round"/>
<path d="M30.3676 11.5747H30.9172" stroke="black" stroke-width="0.386861" stroke-linecap="round" stroke-linejoin="round"/>
<path d="M27.4752 10.9475H31.7751" stroke="black" stroke-width="0.386861" stroke-linecap="round" stroke-linejoin="round"/>
<path d="M5.01846 4.40088H9.32106" stroke="black" stroke-width="0.386861" stroke-linecap="round" stroke-linejoin="round"/>
<path d="M28.1642 6.65283H27.3466" stroke="black" stroke-width="0.386861" stroke-linecap="round" stroke-linejoin="round"/>
<path d="M26.8773 6.65283H26.3278" stroke="black" stroke-width="0.386861" stroke-linecap="round" stroke-linejoin="round"/>
<path d="M28.1641 6.02563H25.4699" stroke="black" stroke-width="0.386861" stroke-linecap="round" stroke-linejoin="round"/>
<path d="M31.9814 22.5899C31.9699 22.5924 31.958 22.5924 31.9466 22.5899C31.9293 22.5859 31.9131 22.5784 31.8989 22.5678C31.8847 22.5573 31.8728 22.5439 31.864 22.5285C31.8552 22.5132 31.8497 22.4962 31.8477 22.4786C31.8458 22.461 31.8475 22.4432 31.8527 22.4263C31.8769 22.3352 32.4854 20.1826 33.8821 19.5231C33.9145 19.5083 33.9514 19.5067 33.985 19.5188C34.0185 19.5308 34.046 19.5554 34.0617 19.5874C34.0694 19.6034 34.0738 19.6208 34.0747 19.6385C34.0756 19.6562 34.073 19.674 34.0671 19.6907C34.0611 19.7074 34.0518 19.7227 34.0399 19.7358C34.0279 19.749 34.0134 19.7596 33.9973 19.767C32.7106 20.3729 32.1208 22.4773 32.1208 22.4987C32.1117 22.5277 32.0928 22.5526 32.0674 22.5692C32.042 22.5858 32.0116 22.5931 31.9814 22.5899Z" fill="#3ACDDD"/>
<path d="M34.2359 19.8823C32.7132 19.8823 31.4801 24.5683 31.4801 26.048V26.1982H36.9837V26.0614C36.9837 24.5683 35.7586 19.8823 34.2359 19.8823Z" fill="#BBF0F9"/>
<path d="M34.1636 19.7832C32.6812 19.7832 31.4829 24.4691 31.4829 25.9489V26.0856H36.8444V25.9489C36.8444 23.5175 35.6434 19.7832 34.1636 19.7832Z" stroke="black" stroke-width="0.580291" stroke-linecap="round" stroke-linejoin="round"/>
<path d="M34.9115 22.9358C34.9115 23.606 34.5764 24.1502 34.1609 24.1502C34.0844 24.1499 34.0091 24.1315 33.9411 24.0966C34.2467 23.9438 34.4773 23.4827 34.4773 22.9358C34.4773 22.3889 34.2547 21.9279 33.9411 21.775C34.0091 21.7401 34.0844 21.7217 34.1609 21.7214C34.5711 21.7214 34.9115 22.2656 34.9115 22.9358Z" fill="#3ACDDD"/>
<path d="M34.1636 24.1502C34.5766 24.1502 34.9115 23.6065 34.9115 22.9358C34.9115 22.2651 34.5766 21.7214 34.1636 21.7214C33.7505 21.7214 33.4156 22.2651 33.4156 22.9358C33.4156 23.6065 33.7505 24.1502 34.1636 24.1502Z" stroke="black" stroke-width="0.580291" stroke-linecap="round" stroke-linejoin="round"/>
<path d="M31.137 26.0884V26.9033" stroke="black" stroke-width="0.580291" stroke-linecap="round" stroke-linejoin="round"/>
<path d="M38.6431 26.0884H28.9442V26.9033H38.6431V26.0884Z" fill="#BBF0F9"/>
<path d="M31.137 26.0884H28.9442V26.9033H31.137V26.0884Z" fill="#3ACDDD"/>
<path d="M38.6431 26.0884H28.9442V26.9033H38.6431V26.0884Z" stroke="black" stroke-width="0.580291" stroke-linecap="round" stroke-linejoin="round"/>
<path d="M31.137 26.0884V26.9033" stroke="black" stroke-width="0.580291" stroke-linecap="round" stroke-linejoin="round"/>
<path d="M15.7603 1.64526C15.7603 1.64526 14.9775 0.605131 13.0849 0.878567C11.7097 1.07426 10.9644 2.68271 10.7687 3.60489C10.573 4.52706 10.0932 5.70927 9.44713 7.59652C8.80107 9.48376 9.2702 10.3094 9.96451 11.1592C10.6588 12.009 10.5382 13.5344 10.5382 13.5344C10.825 16.0918 12.9938 16.4081 12.9938 16.4081C12.9938 16.4081 15.9935 16.8773 17.4143 16.7405C17.8284 16.7521 18.24 16.6734 18.6206 16.51C19.4463 16.1266 19.9315 15.0463 19.9771 14.1349C19.9762 13.6068 20.042 13.0808 20.1728 12.5693C20.4839 11.7149 20.6559 10.8162 20.6821 9.90732C20.6634 9.1031 20.272 8.37929 20.2907 7.79221C20.3095 7.20513 20.8269 6.40358 20.7009 5.05249C20.6496 4.32183 20.4291 3.6131 20.0569 2.98225C19.6847 2.3514 19.171 1.81569 18.5563 1.4174C17.4545 0.693596 16.1141 1.10911 15.5565 1.33966" fill="#B994FC"/>
<path d="M16.7843 1.2859C16.7843 1.2859 19.9369 0.832853 20.5373 5.39012" stroke="#DBC7FF" stroke-width="0.773722" stroke-linecap="round" stroke-linejoin="round"/>
<path d="M17.0631 16.7995C15.7387 16.7686 14.4178 16.6504 13.109 16.4456C13.109 16.4456 10.943 16.1293 10.6561 13.5718C10.5956 12.755 10.4018 11.9536 10.0824 11.1994C9.59186 10.2155 8.91631 9.52659 9.56237 7.63667C10.2084 5.74674 10.6883 4.56185 10.884 3.64235C11.0797 2.72286 11.6292 1.08492 13.0071 0.889229C13.2642 0.858068 13.5235 0.850888 13.7819 0.867783C13.6639 0.867783 13.7819 0.867783 13.1599 1.10101C11.8598 1.5889 11.4523 2.72286 11.2486 3.64235C11.0448 4.56185 10.573 5.74674 9.92696 7.63667C9.2809 9.52659 9.75807 10.3469 10.4443 11.1994C11.1306 12.0519 11.018 13.5718 11.018 13.5718C11.3049 16.1293 13.4709 16.4456 13.4709 16.4456C14.661 16.6288 15.8602 16.7469 17.0631 16.7995Z" fill="#DBC7FF"/>
<path d="M10.5784 12.3922C10.6214 12.6132 10.6465 12.8373 10.6534 13.0624C10.6549 13.2756 10.6675 13.4885 10.691 13.7004C10.7405 14.1159 10.8669 14.5186 11.0636 14.888C11.2618 15.2559 11.546 15.5704 11.8919 15.8048C12.0618 15.9208 12.2411 16.0221 12.4281 16.1077C12.5246 16.1506 12.6211 16.1881 12.7203 16.223L12.8704 16.2686L12.9455 16.29H12.9857H13.0071C13.0302 16.2979 13.0512 16.3107 13.0688 16.3275L12.9884 16.29C13.5245 16.3624 14.0392 16.4401 14.5673 16.4991C15.0954 16.5581 15.6155 16.5822 16.1382 16.6197C16.659 16.6515 17.1814 16.6444 17.7011 16.5983C17.9561 16.5813 18.2082 16.5336 18.4517 16.4562C18.6864 16.3725 18.8997 16.2379 19.0763 16.0621C19.4401 15.6928 19.6919 15.2281 19.8028 14.7218C19.9315 14.2258 19.8698 13.695 19.9315 13.1562C19.9476 13.0222 19.9664 12.8881 19.9958 12.7541C20.0253 12.6201 20.0709 12.486 20.1084 12.3627C20.1862 12.1134 20.2612 11.8614 20.3256 11.6094C20.4632 11.1091 20.5433 10.5946 20.5642 10.076C20.553 9.55866 20.4626 9.04604 20.2961 8.55606C20.2143 8.29588 20.1736 8.02455 20.1755 7.75184C20.2099 7.47798 20.2728 7.20845 20.3631 6.94761C20.5356 6.45826 20.6262 5.9438 20.6312 5.42495C20.6188 4.90681 20.5285 4.39349 20.3631 3.90228C20.034 2.90602 19.3712 2.05384 18.4866 1.48961C18.0556 1.21323 17.5506 1.07482 17.039 1.09286C16.5228 1.10891 16.0143 1.22261 15.5404 1.42796C15.5242 1.42347 15.5095 1.41482 15.4976 1.40286C15.4858 1.39091 15.4773 1.37607 15.4729 1.35981C15.4686 1.34356 15.4686 1.32645 15.4729 1.31019C15.4772 1.29393 15.4857 1.27908 15.4975 1.26711C15.9943 1.0511 16.5271 0.930161 17.0685 0.910572C17.6211 0.889926 18.1667 1.03966 18.6313 1.33949C19.5429 1.93113 20.2263 2.81494 20.5695 3.84599C20.7373 4.35779 20.8277 4.8918 20.8376 5.43031C20.8434 5.97069 20.7656 6.50873 20.6071 7.02535C20.5242 7.26549 20.4658 7.51338 20.4328 7.76524C20.4337 8.01648 20.4735 8.26606 20.5508 8.50513C20.7221 9.01697 20.8125 9.5524 20.8188 10.0921C20.7946 10.6292 20.7128 11.1622 20.5749 11.6818C20.5105 11.9499 20.4355 12.1938 20.3551 12.4485C20.2719 12.6916 20.2118 12.942 20.1755 13.1964C20.1406 13.4645 20.1192 13.7111 20.1004 13.9765C20.0897 14.2482 20.0493 14.5179 19.9798 14.7808C19.8524 15.3119 19.5933 15.8023 19.2265 16.2069C19.0325 16.4088 18.7976 16.5669 18.5375 16.6707C18.2762 16.7564 18.0067 16.8148 17.7333 16.8449C17.1987 16.8967 16.6609 16.9065 16.1248 16.8744C15.5887 16.861 15.0525 16.794 14.5405 16.7297C14.0285 16.6653 13.4682 16.5903 12.9803 16.5232L12.8999 16.483C12.9103 16.4982 12.9253 16.5095 12.9428 16.5152H12.924H12.8865L12.8061 16.4937L12.6452 16.4455C12.5407 16.408 12.4361 16.3678 12.3343 16.3222C12.1283 16.2351 11.9331 16.1244 11.7525 15.9924C11.3867 15.7314 11.0821 15.3939 10.8599 15.0033C10.6425 14.6119 10.5109 14.1787 10.4738 13.7326C10.4524 13.5128 10.4497 13.2849 10.4443 13.0785C10.4382 12.8671 10.4158 12.6565 10.3773 12.4485C10.375 12.436 10.3752 12.4232 10.3778 12.4107C10.3805 12.3983 10.3856 12.3865 10.3928 12.376C10.4 12.3656 10.4092 12.3567 10.4199 12.3498C10.4306 12.3429 10.4426 12.3382 10.4551 12.3359C10.4789 12.3272 10.5052 12.3282 10.5283 12.3388C10.5513 12.3493 10.5694 12.3685 10.5784 12.3922Z" fill="black"/>
<path d="M15.696 1.7042C15.4959 1.48004 15.2449 1.3072 14.9641 1.20022C14.6835 1.07912 14.3861 1.00139 14.0822 0.969673C13.7756 0.941947 13.4668 0.95185 13.1627 0.999161C12.8649 1.02087 12.5764 1.11273 12.3209 1.26724C12.0637 1.42485 11.8427 1.63495 11.6722 1.88381C11.4861 2.13244 11.3304 2.40243 11.2084 2.68803C11.0847 2.97096 10.9834 3.26317 10.9055 3.56195C10.8304 3.86756 10.7339 4.17853 10.6374 4.47877C10.4337 5.07926 10.2648 5.69047 10.0557 6.28559C9.84659 6.88072 9.61605 7.47584 9.44448 8.07097C9.27291 8.66609 9.13619 9.29339 9.32921 9.87511C9.52222 10.4568 9.99135 10.9018 10.2755 11.4836C10.2835 11.495 10.2889 11.508 10.2913 11.5218C10.2938 11.5355 10.2932 11.5496 10.2897 11.5631C10.2861 11.5766 10.2797 11.5892 10.2709 11.6C10.262 11.6107 10.2509 11.6195 10.2384 11.6256C10.2258 11.6316 10.2121 11.6349 10.1982 11.6352C10.1842 11.6355 10.1704 11.6327 10.1576 11.6271C10.1448 11.6215 10.1334 11.6132 10.1241 11.6028C10.1149 11.5923 10.108 11.58 10.1039 11.5667C9.83587 11.0305 9.34261 10.5694 9.14155 9.92336C9.05261 9.60623 9.01905 9.27612 9.04237 8.94757C9.05783 8.62357 9.11458 8.30286 9.21125 7.99323C9.40427 7.37934 9.61337 6.78957 9.82515 6.19177C10.0369 5.59396 10.3023 5.02028 10.4766 4.41711C10.5672 4.11683 10.6406 3.81162 10.6964 3.50298C10.7584 3.18558 10.8537 2.87559 10.9805 2.57812C11.1087 2.27833 11.2706 1.99412 11.4631 1.73101C11.6699 1.47242 11.917 1.24884 12.1949 1.06886C12.477 0.895683 12.7954 0.790166 13.1251 0.760575C13.4475 0.723037 13.7732 0.723037 14.0956 0.760575C14.7619 0.802365 15.3862 1.10013 15.8381 1.59161C15.8554 1.6096 15.8651 1.63362 15.8651 1.65862C15.8651 1.68363 15.8554 1.70765 15.8381 1.72564C15.8293 1.73456 15.8189 1.74164 15.8074 1.74648C15.7959 1.75131 15.7835 1.75381 15.771 1.75381C15.7586 1.75381 15.7462 1.75131 15.7347 1.74648C15.7232 1.74164 15.7128 1.73456 15.704 1.72564L15.696 1.7042Z" fill="black"/>
<path d="M11.7847 14.9391C11.5143 14.5577 11.3522 14.1103 11.3155 13.6443C11.2994 13.4164 11.3155 13.1832 11.2994 12.9553" stroke="black" stroke-width="0.19343" stroke-linecap="round" stroke-linejoin="round"/>
<path d="M11.9725 14.7139C11.7141 14.4059 11.5727 14.0167 11.573 13.6147" stroke="black" stroke-width="0.19343" stroke-linecap="round" stroke-linejoin="round"/>
<path d="M21.6822 23.4047C21.4418 23.1457 21.2461 22.8486 21.1031 22.5254C20.7975 21.9089 20.3632 20.9491 19.6957 19.7455C19.0282 18.5418 18.6717 17.7751 18.4036 17.1934C18.1355 16.6117 18.0203 16.1506 17.6503 15.6627C16.9185 14.695 15.8113 14.7566 15.1867 14.7888C14.5621 14.821 13.5327 15.5233 13.5327 15.5233C11.5382 17.298 7.0158 22.5898 7.0158 22.5898L5.97031 25.1257H8.08542L8.4768 23.898C8.4768 23.898 11.7473 20.7561 11.7312 20.7132L11.5302 20.2656C12.4711 21.9625 12.4175 26.8441 12.4175 26.8441H17.535L18.3741 21.6247C18.6346 22.5816 18.994 23.5087 19.4464 24.3912C19.6636 24.8228 20.1568 25.0373 20.5455 25.4957L20.8994 25.745L22.0307 26.198L23.3335 26.3669L24.7034 26.2624L24.8213 25.8924C24.8213 25.8496 24.9661 25.5118 24.9661 25.5118L25.1269 25.2437C25.1269 25.2437 24.9205 25.1257 24.8991 25.1257" fill="#FF61BF"/>
<path d="M24.7514 25.9595C24.7166 26.064 24.6523 26.2758 24.6523 26.2758L23.2797 26.3804L21.9715 26.2115L20.8483 25.7504L20.4971 25.5011C20.1111 25.0427 19.6151 24.8282 19.398 24.3966C19.2666 24.1285 19.1487 23.8873 19.0468 23.6514C19.717 24.4234 21.7892 26.4474 24.7514 25.9595Z" fill="#C3268A"/>
<path opacity="0.5" d="M12.7686 26.3804H12.5005C12.527 24.4999 12.286 22.6252 11.7847 20.8125C11.7572 20.7307 11.7383 20.6463 11.7284 20.5605H11.8625H11.9965C11.9965 20.582 12.0179 20.6517 12.0448 20.7562C12.5507 22.5873 12.7944 24.4809 12.7686 26.3804Z" fill="#C3268A"/>
<g opacity="0.5">
<path d="M18.2614 21.5632L17.5027 26.7344H12.3852V26.4985C14.318 25.9489 16.7441 25.9007 17.232 22.9813C17.3285 22.4077 17.9504 22.0592 18.2614 21.5632Z" fill="#C3268A"/>
</g>
<path d="M6.49561 24.5548L7.20064 22.8124L9.09861 20.6463L8.9887 20.5605L9.84654 19.6303L11.782 17.5554" stroke="#F3A0CA" stroke-width="1.16058" stroke-linecap="round" stroke-linejoin="round"/>
<path d="M8.86813 23.5201L11.4979 20.4131L11.6427 20.6436V20.8125L11.2245 21.3996L8.86813 23.5201Z" fill="#C3268A"/>
<path d="M11.5301 17.7967L13.16 16.0837" stroke="white" stroke-width="0.773722" stroke-linecap="round" stroke-linejoin="round"/>
<path d="M18.4464 20.6329V21.0323L18.4196 21.4398L18.3204 22.244L18.0872 23.8176C17.921 24.8658 17.7762 25.9166 17.6181 26.9648C17.6149 26.9861 17.6043 27.0056 17.5881 27.0199C17.5719 27.0341 17.5512 27.0421 17.5296 27.0425C17.1034 27.0425 16.6771 27.0425 16.2509 27.0425H14.9722C14.1197 27.0425 13.2672 27.0694 12.412 27.0613C12.4006 27.0613 12.3892 27.059 12.3786 27.0545C12.368 27.0501 12.3584 27.0435 12.3504 27.0352C12.3424 27.027 12.3362 27.0172 12.332 27.0065C12.3279 26.9958 12.3259 26.9843 12.3263 26.9728C12.3263 25.863 12.2807 24.7505 12.1761 23.646C12.1225 23.0938 12.0501 22.5443 11.9483 22.0001C11.8639 21.4559 11.7014 20.9268 11.4657 20.4291C11.4616 20.4212 11.4591 20.4126 11.4583 20.4037C11.4576 20.3948 11.4586 20.3859 11.4613 20.3774C11.4641 20.3689 11.4685 20.361 11.4743 20.3543C11.4801 20.3475 11.4872 20.342 11.4952 20.338C11.5031 20.3339 11.5118 20.3313 11.5207 20.3306C11.5296 20.3298 11.5385 20.3308 11.547 20.3336C11.5555 20.3363 11.5634 20.3407 11.5701 20.3466C11.5769 20.3524 11.5824 20.3595 11.5864 20.3675C11.8406 20.8743 12.0169 21.4165 12.1091 21.9759C12.2176 22.5255 12.2982 23.0802 12.3504 23.638C12.4576 24.7505 12.5032 25.8657 12.5005 26.9836L12.412 26.8951C13.2672 26.8951 14.1197 26.9192 14.9722 26.9165H16.2509C16.6771 26.9165 17.1034 26.9005 17.5296 26.9005L17.4411 26.9782C17.5912 25.9274 17.7548 24.8792 17.8942 23.8283L18.1247 22.2521L18.2561 21.4666L18.2909 21.0832V20.6329C18.2916 20.6134 18.2998 20.595 18.3138 20.5815C18.3278 20.568 18.3465 20.5605 18.366 20.5605C18.3761 20.5594 18.3864 20.5604 18.3962 20.5635C18.4059 20.5666 18.4148 20.5718 18.4224 20.5786C18.43 20.5855 18.4361 20.5938 18.4402 20.6032C18.4444 20.6125 18.4465 20.6227 18.4464 20.6329Z" fill="black"/>
<path d="M10.8491 18.2336C11.5729 17.4294 12.2886 16.66 12.8891 16.0622C13.3988 15.5434 14.0342 15.1657 14.7335 14.9658C14.8784 14.9227 15.0276 14.8957 15.1785 14.8853C15.8031 14.8532 16.7869 14.569 17.5107 15.5341C17.8332 15.9644 18.0932 16.4382 18.2828 16.9415" stroke="black" stroke-width="0.580291" stroke-linecap="round" stroke-linejoin="round"/>
<path d="M9.431 19.8421C9.66422 19.574 9.90281 19.3059 10.1468 19.0378" stroke="black" stroke-width="0.580291" stroke-linecap="round" stroke-linejoin="round"/>
<path d="M6.95941 25.217H5.96753L7.01302 22.6837C7.01302 22.6837 7.83601 21.6918 8.93511 20.4131" stroke="black" stroke-width="0.580291" stroke-linecap="round" stroke-linejoin="round"/>
<path d="M11.6855 20.8662C11.7016 20.9091 8.46864 23.9893 8.46864 23.9893L8.08529 25.2171H7.31592" stroke="black" stroke-width="0.580291" stroke-linecap="round" stroke-linejoin="round"/>
<path d="M11.9214 7.16485C11.9214 7.16485 11.8302 9.73568 12.6505 11.3012C13.4708 12.8668 14.4145 13.7434 15.6798 13.7434C16.9451 13.7434 18.4088 12.8909 18.7465 10.7946C18.9771 9.36842 19.2827 9.18613 19.1889 6.4893C19.1889 6.4893 16.3071 5.48402 15.8352 2.55933C15.8352 2.55933 14.5833 7.15412 10.8491 7.15412" fill="#F8C5A6"/>
<path d="M14.6907 13.4941C13.932 13.1376 13.3021 12.3816 12.7311 11.2906C11.9107 9.72502 11.9992 7.16491 11.9992 7.16491H10.9269C11.6092 7.16889 12.2817 7.00306 12.8839 6.68237C12.7364 8.22112 12.664 11.682 14.6907 13.4941Z" fill="#FFE5D5"/>
<path d="M15.8058 3.01514C15.8058 3.01514 16.2294 5.37151 19.0495 6.6127C19.0495 6.6127 19.205 11.4675 17.4733 12.8749" stroke="#F57A59" stroke-width="0.773722" stroke-linecap="round" stroke-linejoin="round"/>
<path d="M12.8302 8.36851C13.0034 8.36851 13.1438 8.22808 13.1438 8.05486C13.1438 7.88164 13.0034 7.74121 12.8302 7.74121C12.657 7.74121 12.5165 7.88164 12.5165 8.05486C12.5165 8.22808 12.657 8.36851 12.8302 8.36851Z" fill="#FFE6D7"/>
<path d="M13.2136 7.78959C13.2831 7.78959 13.3395 7.73318 13.3395 7.66359C13.3395 7.59401 13.2831 7.5376 13.2136 7.5376C13.144 7.5376 13.0876 7.59401 13.0876 7.66359C13.0876 7.73318 13.144 7.78959 13.2136 7.78959Z" fill="#FFE6D7"/>
<path d="M13.3236 7.29097C13.368 7.29097 13.404 7.25497 13.404 7.21055C13.404 7.16613 13.368 7.13013 13.3236 7.13013C13.2791 7.13013 13.2431 7.16613 13.2431 7.21055C13.2431 7.25497 13.2791 7.29097 13.3236 7.29097Z" fill="#FFE6D7"/>
<path d="M12.9776 7.40621C13.059 7.40621 13.125 7.3402 13.125 7.25877C13.125 7.17734 13.059 7.11133 12.9776 7.11133C12.8962 7.11133 12.8301 7.17734 12.8301 7.25877C12.8301 7.3402 12.8962 7.40621 12.9776 7.40621Z" fill="#FFE6D7"/>
<path d="M12.9161 9.02526C13.0123 9.02526 13.0903 8.94724 13.0903 8.85101C13.0903 8.75477 13.0123 8.67676 12.9161 8.67676C12.8198 8.67676 12.7418 8.75477 12.7418 8.85101C12.7418 8.94724 12.8198 9.02526 12.9161 9.02526Z" fill="#FFE6D7"/>
<path d="M13.2244 8.49995C13.2703 8.49995 13.3075 8.46274 13.3075 8.41684C13.3075 8.37095 13.2703 8.33374 13.2244 8.33374C13.1785 8.33374 13.1413 8.37095 13.1413 8.41684C13.1413 8.46274 13.1785 8.49995 13.2244 8.49995Z" fill="#FFE6D7"/>
<path d="M11.916 8.26386C11.8616 8.15878 11.7837 8.06762 11.6884 7.99743C11.5931 7.92724 11.483 7.8799 11.3665 7.85906C11.2572 7.82153 11.1409 7.80927 11.0262 7.8232C10.9115 7.83713 10.8014 7.87689 10.7043 7.93949C10.6051 8.03421 10.5331 8.15383 10.4959 8.28585C10.4586 8.41788 10.4575 8.55748 10.4926 8.6901C10.5408 8.95817 10.6614 9.21284 10.7043 9.49432C10.7472 9.7758 10.7285 10.1002 10.9483 10.2717C11.0449 10.3316 11.1563 10.3632 11.27 10.3632C11.3836 10.3632 11.495 10.3316 11.5917 10.2717C11.7927 10.1672 11.9589 10.0037 12.16 9.89911" fill="#F8C5A6"/>
<path d="M11.262 10.2021C10.9537 10.0091 10.9939 9.55332 10.9108 9.23163C10.7875 8.8188 10.4497 8.1084 11.1306 7.99849C11.2566 7.97705 11.203 7.78403 11.077 7.8028C10.5114 7.89394 10.4551 8.37111 10.5784 8.85633C10.6266 9.05202 10.7124 9.23431 10.758 9.43001C10.8036 9.6257 10.758 9.77046 10.7955 9.95007C10.8357 10.1726 10.9751 10.261 11.1601 10.3763C11.27 10.446 11.3719 10.2718 11.262 10.2021Z" fill="#F57A59"/>
<path d="M11.0555 6.87256C11.0555 6.87256 14.0044 7.12723 15.4975 2.64502" stroke="#9B63FF" stroke-width="1.54744" stroke-linecap="round" stroke-linejoin="round"/>
<path d="M12.3047 6.33912C13.3964 5.78619 14.2638 4.87337 14.7603 3.75488L12.3047 6.33912Z" fill="#B994FC"/>
<path d="M12.2807 6.29086C12.8131 6.01252 13.2973 5.65047 13.7149 5.21857C14.1387 4.78895 14.4835 4.28804 14.7336 3.73879C14.7382 3.72987 14.746 3.72299 14.7554 3.71952C14.7648 3.71605 14.7752 3.71623 14.7845 3.72003C14.7892 3.72205 14.7934 3.72499 14.7968 3.72868C14.8003 3.73237 14.803 3.73672 14.8048 3.74148C14.8065 3.74624 14.8073 3.75131 14.807 3.75638C14.8068 3.76144 14.8055 3.76641 14.8033 3.77096C14.5553 4.32997 14.2145 4.84298 13.7953 5.28826C13.3764 5.74307 12.8764 6.1158 12.3209 6.38737C12.3081 6.39377 12.2933 6.39482 12.2797 6.3903C12.2661 6.38577 12.2549 6.37604 12.2485 6.36324C12.2421 6.35045 12.2411 6.33563 12.2456 6.32206C12.2501 6.30848 12.2599 6.29726 12.2727 6.29086H12.2807Z" fill="black"/>
<path d="M13.0929 5.14346C13.3582 4.98066 13.5992 4.78121 13.8087 4.55101C14.0146 4.31588 14.1869 4.05335 14.3207 3.77092C14.323 3.76582 14.3263 3.76125 14.3304 3.7575C14.3346 3.75375 14.3394 3.7509 14.3447 3.74913C14.35 3.74737 14.3556 3.74673 14.3612 3.74724C14.3668 3.74776 14.3721 3.74944 14.377 3.75215C14.3868 3.75731 14.3942 3.76604 14.3977 3.77653C14.4012 3.78702 14.4005 3.79845 14.3958 3.80845C14.2619 4.09766 14.0907 4.36805 13.8864 4.61267C13.6751 4.85604 13.4295 5.06735 13.1573 5.23996C13.1506 5.24436 13.1432 5.24737 13.1354 5.2488C13.1275 5.25024 13.1195 5.25008 13.1117 5.24832C13.104 5.24657 13.0966 5.24326 13.0902 5.2386C13.0837 5.23394 13.0783 5.22802 13.0742 5.2212C13.0697 5.21473 13.0665 5.20741 13.0649 5.19969C13.0632 5.19197 13.0631 5.184 13.0646 5.17625C13.0661 5.1685 13.0692 5.16113 13.0736 5.15457C13.078 5.14802 13.0837 5.14242 13.0903 5.1381L13.0929 5.14346Z" fill="black"/>
<path d="M15.9934 2.55933C15.9934 2.59954 16.2427 4.98808 19.2103 6.23999" stroke="#9B63FF" stroke-width="1.54744" stroke-linecap="round" stroke-linejoin="round"/>
<path d="M20.6016 2.07142L20.6928 2.04193C20.9367 1.96151 20.8322 1.5728 20.5856 1.65322L20.4971 1.68271C20.2505 1.76314 20.355 2.15184 20.6016 2.07142Z" fill="white"/>
<path d="M9.83048 9.7517C9.6321 9.33886 9.75005 8.69548 9.83048 8.2612C9.8546 8.13521 9.66159 8.08159 9.63746 8.20759C9.53827 8.71425 9.423 9.37103 9.65355 9.85357C9.70984 9.96884 9.88409 9.85357 9.8278 9.7517H9.83048Z" fill="white"/>
<path d="M9.79288 10.2424C9.84251 10.348 9.90079 10.4493 9.96713 10.5453C10.0422 10.6525 10.2164 10.5453 10.1414 10.4434C10.074 10.3481 10.0157 10.2467 9.96713 10.1405C9.91084 10.0252 9.73659 10.1271 9.79288 10.2424Z" fill="white"/>
<path d="M11.0396 4.75229C11.218 4.33795 11.344 3.903 11.4149 3.45749C11.439 3.3315 11.246 3.27788 11.2219 3.40388C11.1544 3.83241 11.0347 4.25106 10.8653 4.65042C10.8117 4.7657 10.986 4.87024 11.0396 4.75229Z" fill="white"/>
<path d="M11.5487 3.01774C11.5703 2.91656 11.6064 2.81904 11.6559 2.72821C11.7203 2.61562 11.546 2.51376 11.4844 2.62635C11.4254 2.73215 11.3821 2.84592 11.3557 2.96412C11.3289 3.09012 11.5219 3.14373 11.5487 3.01774Z" fill="white"/>
<path d="M11.1091 8.66089C11.2485 8.8539 11.4093 9.04155 11.5702 9.22116" stroke="black" stroke-width="0.386861" stroke-linecap="round" stroke-linejoin="round"/>
<path d="M11.5702 8.66089C11.4228 8.8539 11.3022 9.18095 11.152 9.36056" stroke="black" stroke-width="0.386861" stroke-linecap="round" stroke-linejoin="round"/>
<path d="M14.0204 6.32306C14.0846 6.28756 14.1448 6.24532 14.2 6.19706C14.2992 6.11396 14.1571 5.97188 14.0579 6.05499C14.0154 6.09171 13.9686 6.1232 13.9185 6.14881C13.8059 6.21047 13.9185 6.38472 14.0204 6.32306Z" fill="white"/>
<path d="M14.5379 5.88893C14.9335 5.50324 15.2559 5.04913 15.4896 4.54855C15.5459 4.4306 15.3716 4.32873 15.3154 4.44669C15.0882 4.92787 14.7768 5.36456 14.3959 5.73612C14.3047 5.82459 14.4468 5.96935 14.5379 5.8782V5.88893Z" fill="white"/>
<path d="M12.2056 9.28257C12.1989 9.34584 12.1989 9.40964 12.2056 9.47291C12.2217 9.60158 12.4228 9.60158 12.4067 9.47291C12.4 9.40964 12.4 9.34584 12.4067 9.28257C12.4067 9.15122 12.2137 9.1539 12.2056 9.28257Z" fill="white"/>
<path d="M12.2915 9.95285C12.4045 10.491 12.6104 11.0054 12.9 11.4728C12.9697 11.5827 13.1413 11.4728 13.0743 11.371C12.7934 10.9188 12.5946 10.4206 12.4872 9.89924C12.4604 9.77324 12.2674 9.82686 12.2915 9.95285Z" fill="white"/>
<path d="M12.1842 10.0467C12.2919 10.4595 12.4327 10.8629 12.6051 11.2531C12.7752 11.6435 12.9835 12.0162 13.227 12.3656C13.4619 12.7178 13.7546 13.0278 14.0929 13.2824C14.4371 13.523 14.8295 13.6858 15.2429 13.7595C15.2691 13.7647 15.2922 13.78 15.3073 13.8021C15.3223 13.8241 15.3281 13.8512 15.3234 13.8775C15.3176 13.9034 15.3022 13.926 15.2803 13.941C15.2584 13.9559 15.2316 13.962 15.2054 13.9579C14.761 13.8769 14.3388 13.7023 13.9669 13.4459C13.6082 13.1792 13.2887 12.8633 13.0179 12.5076C12.755 12.1497 12.532 11.7641 12.3531 11.3576C12.1725 10.9566 12.0281 10.5404 11.9215 10.1137C11.9142 10.0793 11.9204 10.0434 11.9388 10.0134C11.9573 9.98346 11.9866 9.96178 12.0207 9.95289C12.0548 9.94474 12.0907 9.95028 12.1208 9.96832C12.1509 9.98636 12.1727 10.0155 12.1815 10.0494L12.1842 10.0467Z" fill="#9B63FF"/>
<path d="M19.4784 7.78687C19.4822 8.37605 19.4427 8.96471 19.3605 9.54812C19.283 10.1331 19.1502 10.7094 18.9637 11.2692C18.7714 11.8333 18.488 12.3622 18.1246 12.8347C17.7504 13.3135 17.2343 13.6617 16.6502 13.8293C16.6375 13.8329 16.6243 13.834 16.6112 13.8325C16.5981 13.8309 16.5854 13.8268 16.5739 13.8203C16.5624 13.8138 16.5524 13.8051 16.5443 13.7947C16.5362 13.7843 16.5303 13.7723 16.5269 13.7596C16.5195 13.7336 16.5226 13.7058 16.5357 13.6822C16.5487 13.6585 16.5707 13.6411 16.5966 13.6336C17.1404 13.4798 17.6199 13.1545 17.9638 12.706C18.1388 12.4835 18.2906 12.2437 18.4168 11.9903C18.5369 11.7289 18.6408 11.4603 18.7278 11.1861C18.9016 10.6388 19.0263 10.0772 19.1004 9.50791C19.1797 8.93866 19.2165 8.36428 19.2103 7.78955C19.2103 7.75401 19.2245 7.71991 19.2496 7.69478C19.2747 7.66964 19.3088 7.65552 19.3444 7.65552C19.3799 7.65552 19.414 7.66964 19.4391 7.69478C19.4643 7.71991 19.4784 7.75401 19.4784 7.78955V7.78687Z" fill="#9B63FF"/>
<path d="M11.916 8.26386C11.8616 8.15878 11.7837 8.06762 11.6884 7.99743C11.5931 7.92724 11.483 7.8799 11.3665 7.85906C11.2572 7.82153 11.1409 7.80927 11.0262 7.8232C10.9115 7.83713 10.8014 7.87689 10.7043 7.93949C10.6051 8.03421 10.5331 8.15383 10.4959 8.28585C10.4586 8.41788 10.4575 8.55748 10.4926 8.6901C10.5408 8.95817 10.6614 9.21284 10.7043 9.49432C10.7472 9.7758 10.7285 10.1002 10.9483 10.2717C11.0449 10.3316 11.1563 10.3632 11.27 10.3632C11.3836 10.3632 11.495 10.3316 11.5917 10.2717C11.7927 10.1672 11.9589 10.0037 12.16 9.89911" stroke="black" stroke-width="0.386861" stroke-linecap="round" stroke-linejoin="round"/>
<path d="M16.594 8.66089L17.0631 10.3524" stroke="black" stroke-width="0.386861" stroke-linecap="round" stroke-linejoin="round"/>
<path d="M15.3447 13.2368C15.3259 13.2368 15.1544 14.5986 15.0632 15.3385C15.0369 15.5326 15.0876 15.7292 15.2043 15.8865C15.321 16.0437 15.4945 16.1492 15.6878 16.1803H15.7066C15.8071 16.1883 15.9082 16.1759 16.0037 16.1437C16.0993 16.1115 16.1873 16.0603 16.2625 15.9932C16.3376 15.926 16.3984 15.8443 16.4411 15.753C16.4838 15.6616 16.5075 15.5626 16.5108 15.4618L16.618 13.3601" fill="#F8C5A6"/>
<path d="M15.3233 13.8023C15.6174 13.9148 15.9262 13.9843 16.2401 14.0088L16.4492 15.5958L16.6101 13.5825L15.3233 13.8023Z" fill="#F57A59"/>
<path d="M15.2698 13.6978C15.251 13.6978 15.1277 14.7192 15.0553 15.3384C15.0298 15.532 15.0807 15.728 15.1974 15.8847C15.314 16.0413 15.4871 16.1464 15.6799 16.1775H15.6987C15.7991 16.1851 15.9 16.1724 15.9954 16.1401C16.0908 16.1078 16.1786 16.0566 16.2537 15.9895C16.3288 15.9224 16.3896 15.8408 16.4324 15.7497C16.4753 15.6585 16.4992 15.5597 16.5029 15.459L16.5967 13.5825" stroke="black" stroke-width="0.580291" stroke-linecap="round" stroke-linejoin="round"/>
<path d="M11.9214 7.16482C11.9214 7.16482 11.8302 9.73566 12.6505 11.3012C13.4708 12.8668 14.4145 13.7434 15.6798 13.7434C16.246 13.7363 16.7986 13.5685 17.2732 13.2596C17.7478 12.9506 18.1249 12.5132 18.3605 11.9982C18.8243 11.0546 19.0253 9.58554 19.1084 8.9368C19.2003 8.12344 19.2227 7.30375 19.1755 6.48659C19.1755 6.48659 16.3071 5.47059 15.8352 2.5459C15.8352 2.5459 14.5833 7.1407 10.8491 7.1407" stroke="black" stroke-width="0.580291" stroke-linecap="round" stroke-linejoin="round"/>
<path d="M18.3901 21.7106C18.626 22.4639 19.2131 24.2251 19.6661 24.6782C20.2532 25.2652 20.6633 26.1258 22.9152 26.3402C23.5224 26.4048 24.1359 26.3786 24.7354 26.2625C24.7907 25.9053 24.9244 25.5647 25.1268 25.2652L21.8375 23.5603L21.3282 23.0509L18.4169 17.2766" stroke="black" stroke-width="0.580291" stroke-linecap="round" stroke-linejoin="round"/>
<path d="M16.7655 15.6361L17.063 16.3519L16.6234 16.6655L15.4975 16.6146L14.519 16.0248L14.8675 15.4297L15.7334 15.7782L16.7655 15.6361Z" fill="#FF61BF"/>
<path d="M14.7604 15.3223C14.7604 15.3223 15.369 16.1265 16.905 15.5903L14.7604 15.3223Z" fill="#FF61BF"/>
<path d="M5.73166 26.8496L5.49576 24.6433C5.49576 24.6433 7.92451 24.6942 8.57594 24.9302L8.18455 26.8496" fill="#FBB63A"/>
<path d="M7.99417 26.6754C8.04511 26.6244 8.34535 25.0884 8.34535 25.0884" stroke="#D08600" stroke-width="0.773722" stroke-miterlimit="10"/>
<path d="M5.73166 26.8496L5.49576 24.6433C5.49576 24.6433 7.92451 24.6942 8.57594 24.9302L8.18455 26.8496" stroke="black" stroke-width="0.580291" stroke-linecap="round" stroke-linejoin="round"/>
<path d="M5.61627 25.4556L7.72602 25.5735" stroke="black" stroke-width="0.386861" stroke-linecap="round" stroke-linejoin="round"/>
<path d="M25.8105 26.8443C26.4738 26.8443 27.0114 26.3066 27.0114 25.6434C27.0114 24.9801 26.4738 24.4424 25.8105 24.4424C25.1472 24.4424 24.6095 24.9801 24.6095 25.6434C24.6095 26.3066 25.1472 26.8443 25.8105 26.8443Z" fill="#F8C5A6"/>
<path d="M27.0114 25.7452C27.0114 26.0638 26.8848 26.3692 26.6596 26.5945C26.4344 26.8197 26.1289 26.9462 25.8104 26.9462C25.7649 26.9489 25.7192 26.9489 25.6737 26.9462C25.9679 26.915 26.2402 26.776 26.4381 26.556C26.6359 26.336 26.7454 26.0505 26.7454 25.7546C26.7454 25.4587 26.6359 25.1733 26.4381 24.9533C26.2402 24.7333 25.9679 24.5943 25.6737 24.563C25.7192 24.5604 25.7649 24.5604 25.8104 24.563C26.1257 24.563 26.4283 24.6869 26.653 24.9081C26.8777 25.1293 27.0064 25.43 27.0114 25.7452Z" fill="#F57A59"/>
<path d="M25.8105 26.9408C26.4738 26.9408 27.0114 26.4031 27.0114 25.7398C27.0114 25.0765 26.4738 24.5388 25.8105 24.5388C25.1472 24.5388 24.6095 25.0765 24.6095 25.7398C24.6095 26.4031 25.1472 26.9408 25.8105 26.9408Z" stroke="black" stroke-width="0.580291" stroke-linecap="round" stroke-linejoin="round"/>
<path d="M25.7028 25.5522C25.7887 25.3426 25.7129 25.113 25.5334 25.0395C25.354 24.9659 25.1388 25.0762 25.0529 25.2858C24.967 25.4954 25.0428 25.7249 25.2223 25.7985C25.4017 25.872 25.6169 25.7618 25.7028 25.5522Z" fill="#FFE5D5"/>
<path d="M5.84152 24.6863C5.84152 24.7131 5.87101 25.0348 5.87101 25.0348" stroke="black" stroke-width="0.19343" stroke-linecap="round" stroke-linejoin="round"/>
<path d="M6.13373 24.6863C6.13373 24.7131 6.16322 25.0348 6.16322 25.0348" stroke="black" stroke-width="0.19343" stroke-linecap="round" stroke-linejoin="round"/>
<path d="M6.95933 24.6863C6.95933 24.7131 6.91107 25.0884 6.91107 25.0884" stroke="black" stroke-width="0.19343" stroke-linecap="round" stroke-linejoin="round"/>
<path d="M7.28644 24.7131C7.28644 24.7399 7.23819 25.1152 7.23819 25.1152" stroke="black" stroke-width="0.19343" stroke-linecap="round" stroke-linejoin="round"/>
<path d="M7.63495 24.7371C7.63495 24.7612 7.5867 25.1365 7.5867 25.1365" stroke="black" stroke-width="0.19343" stroke-linecap="round" stroke-linejoin="round"/>
<path d="M7.99412 24.7747C7.99412 24.7988 7.94586 25.1741 7.94586 25.1741" stroke="black" stroke-width="0.19343" stroke-linecap="round" stroke-linejoin="round"/>
<path d="M8.23276 24.8577C8.23276 24.8818 8.18451 25.2571 8.18451 25.2571" stroke="black" stroke-width="0.19343" stroke-linecap="round" stroke-linejoin="round"/>
<path d="M6.49561 24.6863C6.49561 24.7131 6.52509 25.0348 6.52509 25.0348" stroke="black" stroke-width="0.19343" stroke-linecap="round" stroke-linejoin="round"/>
<path d="M12.7418 20.7C12.8592 20.934 13.0414 21.1294 13.2667 21.263C13.4919 21.3965 13.7508 21.4626 14.0125 21.4532C14.5368 21.425 15.0456 21.2655 15.4923 20.9895" stroke="black" stroke-width="0.386861" stroke-linecap="round" stroke-linejoin="round"/>
<path d="M16.8058 21.2227C17.2662 21.0784 17.6904 20.8371 18.0497 20.515C18.2266 20.3531 18.3662 20.1546 18.4588 19.9333C18.5514 19.7121 18.5947 19.4733 18.5858 19.2336C18.5456 18.6975 18.173 18.231 17.8701 17.7699C17.6092 17.3706 17.3934 16.9435 17.2267 16.4966" stroke="black" stroke-width="0.386861" stroke-linecap="round" stroke-linejoin="round"/>
<path d="M15.5646 7.81375C15.3378 7.65191 15.0584 7.58112 14.7819 7.61537C14.5062 7.65419 14.2495 7.77787 14.0473 7.96923C13.9859 8.0404 13.9088 8.09637 13.8222 8.13275C13.7824 8.14174 13.7411 8.14153 13.7014 8.13214C13.6617 8.12276 13.6247 8.10444 13.5932 8.07859C13.5616 8.05274 13.5364 8.02004 13.5194 7.98297C13.5024 7.9459 13.4941 7.90544 13.4951 7.86468" stroke="black" stroke-width="0.386861" stroke-linecap="round" stroke-linejoin="round"/>
<path d="M13.9293 8.02544C13.8973 8.00708 13.8694 7.98229 13.8473 7.95263C13.8253 7.92297 13.8097 7.88908 13.8014 7.85309C13.7931 7.81709 13.7923 7.77977 13.7991 7.74346C13.8059 7.70715 13.8201 7.67264 13.8409 7.64209" stroke="black" stroke-width="0.386861" stroke-linecap="round" stroke-linejoin="round"/>
<path d="M17.1462 7.72785C17.1962 7.63541 17.2715 7.55915 17.3633 7.50803C17.498 7.4155 17.6558 7.36256 17.819 7.35522C17.9658 7.36324 18.1097 7.39966 18.2426 7.46245C18.3746 7.52679 18.5172 7.56675 18.6635 7.58041C18.734 7.58349 18.8041 7.56833 18.867 7.5364C18.9299 7.50447 18.9836 7.45684 19.0227 7.39812" stroke="black" stroke-width="0.386861" stroke-linecap="round" stroke-linejoin="round"/>
<path d="M18.3258 7.48117C18.4189 7.48061 18.5106 7.4586 18.5938 7.41683C18.6341 7.39424 18.6678 7.36164 18.6918 7.32219C18.7157 7.28274 18.7291 7.23778 18.7306 7.19165" stroke="black" stroke-width="0.386861" stroke-linecap="round" stroke-linejoin="round"/>
<path d="M6.57339 26.6619C6.63339 26.7217 6.6824 26.7915 6.71816 26.8683C6.7322 26.9571 6.7322 27.0476 6.71816 27.1364C6.71865 27.2308 6.74987 27.3224 6.8071 27.3975C6.86433 27.4725 6.94445 27.5269 7.03533 27.5523C7.12622 27.5778 7.22291 27.5729 7.31079 27.5385C7.39867 27.5041 7.47295 27.442 7.52238 27.3616C7.56264 27.2924 7.58385 27.2138 7.58385 27.1337C7.58385 27.0537 7.56264 26.975 7.52238 26.9058V26.8683C7.5195 26.8386 7.50937 26.8101 7.49289 26.7852C7.45536 26.7343 7.3803 26.7209 7.33741 26.6753C7.29452 26.6297 7.31328 26.4742 7.324 26.367C7.33231 26.2733 7.30914 26.1794 7.25817 26.1003C7.2072 26.0212 7.13132 25.9613 7.04253 25.9301C6.95005 25.9066 6.85258 25.9126 6.76368 25.9472C6.67478 25.9818 6.59889 26.0433 6.54659 26.1231C6.49824 26.2058 6.47504 26.3008 6.4798 26.3965C6.48456 26.4922 6.51708 26.5844 6.57339 26.6619Z" fill="white"/>
<path d="M37.6673 28.5063H4.51715V37.9694H37.6673V28.5063Z" fill="#F57A59"/>
<path d="M37.6673 28.5063H4.51715V29.7529H37.6673V28.5063Z" fill="#EE4517"/>
<path d="M37.6673 28.5063H4.51715V37.9694H37.6673V28.5063Z" stroke="black" stroke-width="0.773722" stroke-linecap="round" stroke-linejoin="round"/>
<path d="M7.34006 27.9595H8.20862" stroke="black" stroke-width="0.773722" stroke-linecap="round" stroke-linejoin="round"/>
<path d="M40.6054 26.8872H2V29.0372H40.6054V26.8872Z" fill="#F57A59"/>
<path d="M40.5947 28.5063H2.0134V29.0345H40.5947V28.5063Z" fill="#EE4517"/>
<path d="M18.878 27.737H2.0134V26.8872H19.7304C19.7297 27.1128 19.6396 27.329 19.4798 27.4883C19.32 27.6476 19.1036 27.737 18.878 27.737Z" fill="#FF9A80"/>
<path d="M2.0134 27.9595H6.36425" stroke="black" stroke-width="0.580291" stroke-linecap="round" stroke-linejoin="round"/>
<path d="M7.06924 27.9595H7.63756" stroke="black" stroke-width="0.580291" stroke-linecap="round" stroke-linejoin="round"/>
<path d="M2.25467 27.1768H16.4546" stroke="white" stroke-width="1.54744" stroke-linecap="round" stroke-linejoin="round"/>
<path d="M40.6054 26.8872H2V29.0372H40.6054V26.8872Z" stroke="black" stroke-width="0.773722" stroke-linecap="round" stroke-linejoin="round"/>
<path d="M6.36423 29.0344V37.9693" stroke="black" stroke-width="0.580291" stroke-linecap="round" stroke-linejoin="round"/>
<path d="M35.9382 29.0344V37.9693" stroke="black" stroke-width="0.580291" stroke-linecap="round" stroke-linejoin="round"/>
<path d="M5.1445 30.9752C5.26647 30.6665 5.42582 30.3739 5.61899 30.104" stroke="black" stroke-width="0.201168" stroke-linecap="round" stroke-linejoin="round"/>
<path d="M5.048 30.7098C5.11065 30.43 5.22522 30.1645 5.38578 29.927" stroke="black" stroke-width="0.201168" stroke-linecap="round" stroke-linejoin="round"/>
<path d="M28.9066 32.4604C28.9615 32.3024 29.025 32.1476 29.0969 31.9966C29.158 31.8388 29.2575 31.6987 29.3865 31.5891C29.3116 31.7362 29.2293 31.8794 29.1398 32.018C29.0567 32.1601 28.9844 32.3102 28.9066 32.4604Z" fill="black"/>
<path d="M28.8102 32.1976C28.8323 32.0547 28.8691 31.9146 28.9201 31.7794C28.9594 31.6377 29.0385 31.5102 29.148 31.4121C29.0939 31.5434 29.0321 31.6714 28.963 31.7955C28.9037 31.9253 28.8527 32.0587 28.8102 32.1949C28.8102 32.1949 28.8075 32.2002 28.8102 32.1976Z" fill="black"/>
<path d="M5.61892 37.1491C5.52982 36.8286 5.48207 36.4979 5.47684 36.1653" stroke="black" stroke-width="0.201168" stroke-linecap="round" stroke-linejoin="round"/>
<path d="M5.36707 36.9961C5.24979 36.7346 5.18164 36.4538 5.16602 36.1677" stroke="black" stroke-width="0.201168" stroke-linecap="round" stroke-linejoin="round"/>
<path d="M8.14961 35.6129C7.95647 35.3425 7.79797 35.0489 7.6778 34.739" stroke="black" stroke-width="0.201168" stroke-linecap="round" stroke-linejoin="round"/>
<path d="M7.87616 35.5539C7.67479 35.3484 7.51303 35.1076 7.39899 34.8435" stroke="black" stroke-width="0.201168" stroke-linecap="round" stroke-linejoin="round"/>
<path d="M30.1372 36.6076C30.038 36.4762 29.9388 36.3395 29.8503 36.1974C29.7506 36.0599 29.687 35.8995 29.6654 35.731C29.7512 35.8784 29.8235 36.0232 29.8932 36.1733C29.9629 36.3234 30.0541 36.4628 30.1399 36.6076H30.1372Z" fill="black"/>
<path d="M29.8637 36.5459C29.7561 36.4503 29.6583 36.3443 29.5715 36.2295C29.4737 36.1195 29.4095 35.9836 29.3865 35.8381C29.4696 35.9588 29.5393 36.0767 29.609 36.2C29.6842 36.3215 29.7685 36.4371 29.861 36.5459C29.861 36.5459 29.8637 36.5485 29.8637 36.5459Z" fill="black"/>
<path d="M5.3187 24.2198L5.12568 24.4182L5.01309 23.9946L5.3187 24.0268V24.2198Z" fill="#F59B79"/>
<path d="M5.67267 24.2492C5.72745 24.2492 5.77186 24.2047 5.77186 24.15C5.77186 24.0952 5.72745 24.0508 5.67267 24.0508C5.61789 24.0508 5.57349 24.0952 5.57349 24.15C5.57349 24.2047 5.61789 24.2492 5.67267 24.2492Z" fill="#F59B79"/>
<path d="M4.61634 24.3056C4.67112 24.3056 4.71553 24.2611 4.71553 24.2064C4.71553 24.1516 4.67112 24.1072 4.61634 24.1072C4.56156 24.1072 4.51715 24.1516 4.51715 24.2064C4.51715 24.2611 4.56156 24.3056 4.61634 24.3056Z" fill="#F59B79"/>
<path d="M4.95411 24.7265C5.00889 24.7265 5.05329 24.682 5.05329 24.6273C5.05329 24.5725 5.00889 24.5281 4.95411 24.5281C4.89933 24.5281 4.85492 24.5725 4.85492 24.6273C4.85492 24.682 4.89933 24.7265 4.95411 24.7265Z" fill="#F59B79"/>
<path d="M5.04795 23.7506C5.10273 23.7506 5.14714 23.7062 5.14714 23.6514C5.14714 23.5967 5.10273 23.5522 5.04795 23.5522C4.99317 23.5522 4.94876 23.5967 4.94876 23.6514C4.94876 23.7062 4.99317 23.7506 5.04795 23.7506Z" fill="#F59B79"/>
<path d="M18.6018 21.6704C18.6018 21.6704 19.2103 23.6515 19.6393 24.2064" stroke="#C3268A" stroke-width="0.773722" stroke-linecap="round" stroke-linejoin="round"/>
<path d="M15.5378 11.1081C15.6005 11.1926 15.6803 11.2628 15.772 11.3143C15.8637 11.3659 15.9652 11.3974 16.0699 11.4071C16.1747 11.4167 16.2802 11.4041 16.3798 11.3701C16.4793 11.3362 16.5706 11.2816 16.6476 11.21C16.6654 11.2287 16.6872 11.2432 16.7113 11.2525C16.7354 11.2618 16.7613 11.2655 16.787 11.2636C16.8505 11.2613 16.9123 11.2429 16.9666 11.21C16.9666 11.21 17.2561 11.5102 17.6958 11.084C17.6958 11.084 17.4572 12.1402 16.6235 12.1322C16.3715 12.149 16.1223 12.0716 15.9242 11.9151C15.7261 11.7586 15.5932 11.534 15.5512 11.285C15.5378 11.084 15.5378 11.1081 15.5378 11.1081Z" fill="#FF3838"/>
<path d="M15.5378 11.1081C15.6005 11.1926 15.6803 11.2628 15.772 11.3143C15.8637 11.3659 15.9652 11.3974 16.0699 11.4071C16.1747 11.4167 16.2802 11.4041 16.3798 11.3701C16.4793 11.3362 16.5706 11.2816 16.6476 11.21C16.6654 11.2287 16.6872 11.2432 16.7113 11.2525C16.7354 11.2618 16.7613 11.2655 16.787 11.2636C16.8555 11.2564 16.9192 11.225 16.9666 11.1751C16.9666 11.1751 17.2561 11.5102 17.6958 11.084C17.6958 11.084 17.4572 12.1402 16.6235 12.1322C16.3715 12.149 16.1223 12.0716 15.9242 11.9151C15.7261 11.7586 15.5932 11.534 15.5512 11.285C15.5378 11.084 15.5378 11.1081 15.5378 11.1081Z" stroke="#202020" stroke-width="0.386861" stroke-miterlimit="10"/>
<path d="M15.6129 11.2449C15.6129 11.2449 16.6852 12.4083 17.6074 11.2449" stroke="#202020" stroke-width="0.19343" stroke-miterlimit="10"/>
<path d="M31.5981 25.3672H34.0242" stroke="black" stroke-width="0.580291" stroke-linecap="round" stroke-linejoin="round"/>
<path d="M34.4933 25.3672H35.0429" stroke="black" stroke-width="0.580291" stroke-linecap="round" stroke-linejoin="round"/>
<g opacity="0.4">
<path d="M13.3207 3.65305C13.4123 3.56147 13.4836 3.45156 13.5298 3.33052C13.576 3.20948 13.5961 3.08005 13.5888 2.9507C13.5702 2.81775 13.5114 2.69364 13.4204 2.59496C13.3294 2.49628 13.2104 2.42773 13.0794 2.39846C12.9624 2.37876 12.8424 2.38747 12.7295 2.42386C12.6166 2.46025 12.5141 2.52325 12.4307 2.60756C12.2617 2.7755 12.1573 2.9976 12.1358 3.23486C12.1364 3.39407 12.1082 3.55208 12.0527 3.70131C11.9747 3.81102 11.8848 3.91172 11.7846 4.00155C11.7377 4.04767 11.7058 4.107 11.6934 4.17164C11.6809 4.23628 11.6884 4.30318 11.7149 4.36345C11.7953 4.48945 11.983 4.48676 12.1278 4.44119C12.3843 4.34229 12.6199 4.19586 12.8221 4.00959C13.0103 3.92495 13.1797 3.80375 13.3207 3.65305Z" fill="#DBC7FF"/>
<path d="M12.9159 4.17583C12.6854 4.2348 12.5326 4.41441 12.5755 4.57794C12.6183 4.74147 12.8435 4.82457 13.0687 4.76559C13.2939 4.70662 13.4521 4.52701 13.4092 4.36348C13.3661 4.27543 13.2912 4.20705 13.1996 4.1722C13.108 4.13735 13.0066 4.13865 12.9159 4.17583Z" fill="#DBC7FF"/>
</g>
<path d="M16.6154 15.3252L16.9397 15.9578L16.5966 16.2849L15.6315 16.3412L14.7415 15.8881L14.9801 15.3037L15.7495 15.5477L16.6154 15.3252Z" fill="#FF61BF"/>
<path d="M14.8783 15.207C14.8783 15.207 15.4734 15.896 16.7226 15.266" stroke="black" stroke-width="0.386861" stroke-linecap="round" stroke-linejoin="round"/>
<defs>
<linearGradient id="paint0_linear_4323_435947" x1="-0.00392248" y1="30.3488" x2="45.43" y2="30.3488" gradientUnits="userSpaceOnUse">
<stop stop-color="#5B38D2"/>
<stop offset="1" stop-color="#CF4DA7"/>
</linearGradient>
</defs>
</svg>
