<svg width="14" height="8" viewBox="0 0 14 8" fill="none" xmlns="http://www.w3.org/2000/svg">
<path fill-rule="evenodd" clip-rule="evenodd" d="M6.29363 0.292993C6.48116 0.105522 6.73547 0.00020647 7.00063 0.00020647C7.2658 0.00020647 7.52011 0.105522 7.70763 0.292993L13.3646 5.94999C13.4601 6.04224 13.5363 6.15258 13.5887 6.27459C13.6411 6.39659 13.6687 6.52781 13.6699 6.66059C13.671 6.79337 13.6457 6.92505 13.5955 7.04795C13.5452 7.17084 13.4709 7.2825 13.377 7.37639C13.2831 7.47028 13.1715 7.54453 13.0486 7.59481C12.9257 7.6451 12.794 7.6704 12.6612 7.66924C12.5285 7.66809 12.3972 7.6405 12.2752 7.58809C12.1532 7.53569 12.0429 7.4595 11.9506 7.36399L7.00063 2.41399L2.05063 7.36399C1.86203 7.54615 1.60943 7.64695 1.34723 7.64467C1.08504 7.64239 0.834223 7.53722 0.648815 7.35181C0.463408 7.1664 0.358237 6.91559 0.355959 6.65339C0.353681 6.3912 0.454474 6.13859 0.636633 5.94999L6.29363 0.292993Z" fill="#051F4E"/>
</svg>
