<svg width="25" height="24" viewBox="0 0 25 24" fill="none" xmlns="http://www.w3.org/2000/svg">
<path d="M18.0596 10.48V6C18.0596 4.9 17.1596 4 16.0596 4H4.05957C2.95957 4 2.05957 4.9 2.05957 6V18C2.05957 19.1 2.95957 20 4.05957 20H16.0596C17.1596 20 18.0596 19.1 18.0596 18V13.52L22.0596 17.5V6.5L18.0596 10.48ZM16.0596 18H4.05957V6H16.0596V18Z" fill="#48464A"/>
<path d="M10.0596 12C11.1641 12 12.0596 11.1046 12.0596 10C12.0596 8.89543 11.1641 8 10.0596 8C8.955 8 8.05957 8.89543 8.05957 10C8.05957 11.1046 8.955 12 10.0596 12Z" fill="#48464A"/>
<path d="M14.0596 15.43C14.0596 14.62 13.5796 13.9 12.8396 13.58C11.9896 13.21 11.0496 13 10.0596 13C9.06957 13 8.12957 13.21 7.27957 13.58C6.53957 13.9 6.05957 14.62 6.05957 15.43V16H14.0596V15.43Z" fill="#48464A"/>
</svg>
