<svg width="20" height="15" viewBox="0 0 20 15" fill="none" xmlns="http://www.w3.org/2000/svg">
<path d="M17.5007 0H2.50065C1.57565 0 0.833984 0.741667 0.833984 1.66667V11.6667C0.833984 12.1087 1.00958 12.5326 1.32214 12.8452C1.6347 13.1577 2.05862 13.3333 2.50065 13.3333H6.66732V15H13.334V13.3333H17.5007C17.9427 13.3333 18.3666 13.1577 18.6792 12.8452C18.9917 12.5326 19.1673 12.1087 19.1673 11.6667V1.66667C19.1673 1.22464 18.9917 0.800716 18.6792 0.488155C18.3666 0.175595 17.9427 0 17.5007 0ZM17.5007 11.6667H2.50065V1.66667H17.5007M13.334 6.66667L7.50065 10V3.33333" fill="#0F6BBF"/>
</svg>
