<svg width="24" height="24" viewBox="0 0 24 24" fill="none" xmlns="http://www.w3.org/2000/svg">
<path d="M21 2H2.99996C2.44766 2 2 2.44766 2 2.99997V17C2 17.5523 2.44766 18 2.99996 18H9.99999V19.9999L6.9999 20.0001V22H16.9999V20.0001H13.9998V18.0001H20.9999C21.5522 18.0001 21.9998 17.5525 21.9998 17.0002V3.00012C22 2.44766 21.5523 2 21 2V2ZM20.0001 16.0001H4.00001V4.00001H20.0001V16.0001Z" fill="#A400FF"/>
<path d="M15.4999 12.7499C15.4999 11.6453 14.6046 10.75 13.5 10.75H10.4999C9.39532 10.75 8.5 11.6453 8.5 12.7499V14.25H15.5L15.4999 12.7499Z" fill="#A400FF"/>
<path d="M13.9999 7.99993C13.9999 9.10454 13.1045 10 11.9999 10C10.8953 10 10 9.10454 10 7.99993C10 6.89532 10.8953 6 11.9999 6C13.1045 6 13.9999 6.89532 13.9999 7.99993Z" fill="#A400FF"/>
</svg>
