<svg width="45" height="33" viewBox="0 0 45 33" fill="none" xmlns="http://www.w3.org/2000/svg">
<path d="M45 19.1832C44.9985 19.7251 44.8063 20.2444 44.4655 20.6277C44.1247 21.0111 43.6629 21.2273 43.1808 21.2292H6.40625C5.93018 21.2185 5.47682 20.9983 5.14351 20.616C4.8102 20.2337 4.6235 19.7197 4.6235 19.1844C4.6235 18.6491 4.8102 18.1351 5.14351 17.7528C5.47682 17.3705 5.93018 17.1503 6.40625 17.1396H14.1563C14.6323 17.1289 15.0857 16.9087 15.419 16.5264C15.7523 16.1441 15.939 15.6301 15.939 15.0948C15.939 14.5595 15.7523 14.0455 15.419 13.6632C15.0857 13.2809 14.6323 13.0607 14.1563 13.05H5.87751C5.46107 12.9068 5.10416 12.6003 4.87162 12.1864C4.63907 11.7724 4.54633 11.2784 4.61025 10.7941C4.67416 10.3098 4.89049 9.86738 5.21992 9.54716C5.54935 9.22695 5.97003 9.05022 6.40552 9.04908H22.9316C23.4077 9.03835 23.861 8.81821 24.1944 8.4359C24.5277 8.05359 24.7144 7.5396 24.7144 7.00428C24.7144 6.46895 24.5277 5.95496 24.1944 5.57265C23.861 5.19035 23.4077 4.9702 22.9316 4.95948H14.5521C14.076 4.94875 13.6227 4.7286 13.2893 4.3463C12.956 3.96399 12.7693 3.45 12.7693 2.91467C12.7693 2.37935 12.956 1.86536 13.2893 1.48305C13.6227 1.10074 14.076 0.880598 14.5521 0.869873H35.035C35.5111 0.880598 35.9644 1.10074 36.2977 1.48305C36.631 1.86536 36.8177 2.37935 36.8177 2.91467C36.8177 3.45 36.631 3.96399 36.2977 4.3463C35.9644 4.7286 35.5111 4.94875 35.035 4.95948H30.4479C29.9719 4.9702 29.5185 5.19035 29.1852 5.57265C28.8519 5.95496 28.6652 6.46895 28.6652 7.00428C28.6652 7.5396 28.8519 8.05359 29.1852 8.4359C29.5185 8.81821 29.9719 9.03835 30.4479 9.04908H43.1808C43.6569 9.0598 44.1102 9.27995 44.4436 9.66226C44.7769 10.0446 44.9636 10.5586 44.9636 11.0939C44.9636 11.6292 44.7769 12.1432 44.4436 12.5255C44.1102 12.9078 43.6569 13.128 43.1808 13.1387H42.6813C42.5102 13.0798 42.3322 13.0499 42.1533 13.05H21.6696C21.1877 13.052 20.726 13.2681 20.3852 13.6512C20.0444 14.0343 19.8522 14.5534 19.8505 15.0952C19.8522 15.637 20.0444 16.1561 20.3852 16.5393C20.726 16.9224 21.1877 17.1385 21.6696 17.1404H43.1808C43.6624 17.1424 44.1238 17.3581 44.4645 17.7407C44.8052 18.1233 44.9977 18.6418 45 19.1832Z" fill="url(#paint0_linear_4323_436313)"/>
<path d="M10.2419 5.04653C11.2684 5.04653 12.1005 4.11101 12.1005 2.95698C12.1005 1.80295 11.2684 0.867432 10.2419 0.867432C9.21541 0.867432 8.38327 1.80295 8.38327 2.95698C8.38327 4.11101 9.21541 5.04653 10.2419 5.04653Z" fill="url(#paint1_linear_4323_436313)"/>
<path d="M1.85863 21.4057C2.88512 21.4057 3.71726 20.4701 3.71726 19.3161C3.71726 18.1621 2.88512 17.2266 1.85863 17.2266C0.832137 17.2266 0 18.1621 0 19.3161C0 20.4701 0.832137 21.4057 1.85863 21.4057Z" fill="url(#paint2_linear_4323_436313)"/>
<g opacity="0.5">
<path d="M16.6597 11.2478C16.7375 11.2478 16.8006 11.1769 16.8006 11.0894C16.8006 11.0019 16.7375 10.9309 16.6597 10.9309C16.5818 10.9309 16.5187 11.0019 16.5187 11.0894C16.5187 11.1769 16.5818 11.2478 16.6597 11.2478Z" fill="white"/>
<path d="M18.6024 10.5196C18.6802 10.5196 18.7433 10.4486 18.7433 10.3611C18.7433 10.2736 18.6802 10.2026 18.6024 10.2026C18.5245 10.2026 18.4614 10.2736 18.4614 10.3611C18.4614 10.4486 18.5245 10.5196 18.6024 10.5196Z" fill="white"/>
<path d="M15.1962 11.8587C15.1611 11.8587 15.1268 11.847 15.0976 11.8251C15.0685 11.8032 15.0457 11.772 15.0323 11.7356C15.0188 11.6991 15.0153 11.659 15.0222 11.6203C15.029 11.5816 15.0459 11.5461 15.0707 11.5182C15.0956 11.4903 15.1272 11.4712 15.1616 11.4636C15.196 11.4559 15.2317 11.4598 15.2641 11.4749C15.2966 11.49 15.3243 11.5156 15.3438 11.5484C15.3633 11.5812 15.3737 11.6198 15.3737 11.6592C15.3737 11.7121 15.355 11.7629 15.3217 11.8003C15.2884 11.8377 15.2433 11.8587 15.1962 11.8587ZM15.1962 11.5426C15.1756 11.5426 15.1554 11.5495 15.1382 11.5624C15.121 11.5753 15.1077 11.5937 15.0997 11.6151C15.0918 11.6366 15.0898 11.6602 15.0938 11.683C15.0978 11.7057 15.1078 11.7267 15.1224 11.7431C15.137 11.7595 15.1556 11.7707 15.1759 11.7752C15.1961 11.7797 15.2171 11.7774 15.2362 11.7685C15.2553 11.7596 15.2716 11.7446 15.2831 11.7253C15.2945 11.706 15.3007 11.6833 15.3007 11.6601C15.3009 11.6445 15.2983 11.6291 15.2931 11.6146C15.288 11.6002 15.2803 11.587 15.2706 11.576C15.2609 11.5649 15.2493 11.5561 15.2365 11.5501C15.2238 11.5441 15.2101 11.541 15.1962 11.541V11.5426Z" fill="white"/>
<path d="M14.9902 10.5616L15.24 10.8177C15.2918 10.8711 15.37 10.7841 15.3174 10.7307L15.0676 10.4737C15.0158 10.4204 14.9376 10.5074 14.9902 10.5608V10.5616Z" fill="white"/>
<path d="M15.2291 10.462L15.0013 10.7428C14.9538 10.8011 15.0312 10.8889 15.0787 10.8298L15.3065 10.549C15.354 10.4907 15.2766 10.4029 15.2291 10.462Z" fill="white"/>
<path d="M18.6081 11.0334L18.378 11.3118C18.3298 11.3701 18.4073 11.4571 18.4555 11.3988L18.6855 11.1205C18.7337 11.0622 18.6563 10.9751 18.6081 11.0334Z" fill="white"/>
<path d="M18.6958 11.3021L18.4483 11.0435C18.3964 10.9893 18.319 11.0763 18.3708 11.1305L18.6184 11.3891C18.6703 11.4433 18.7477 11.3563 18.6958 11.3021Z" fill="white"/>
<path d="M26.15 11.2478C26.2278 11.2478 26.2909 11.1769 26.2909 11.0894C26.2909 11.0019 26.2278 10.9309 26.15 10.9309C26.0721 10.9309 26.009 11.0019 26.009 11.0894C26.009 11.1769 26.0721 11.2478 26.15 11.2478Z" fill="white"/>
<path d="M28.0927 10.5196C28.1705 10.5196 28.2337 10.4486 28.2337 10.3611C28.2337 10.2736 28.1705 10.2026 28.0927 10.2026C28.0149 10.2026 27.9518 10.2736 27.9518 10.3611C27.9518 10.4486 28.0149 10.5196 28.0927 10.5196Z" fill="white"/>
<path d="M24.6844 11.8587C24.6493 11.8587 24.615 11.847 24.5858 11.8251C24.5566 11.8032 24.5339 11.772 24.5205 11.7356C24.507 11.6991 24.5035 11.659 24.5104 11.6203C24.5172 11.5816 24.5341 11.5461 24.5589 11.5182C24.5838 11.4903 24.6154 11.4712 24.6498 11.4636C24.6842 11.4559 24.7199 11.4598 24.7523 11.4749C24.7848 11.49 24.8125 11.5156 24.832 11.5484C24.8515 11.5812 24.8619 11.6198 24.8619 11.6592C24.8619 11.7121 24.8432 11.7629 24.8099 11.8003C24.7766 11.8377 24.7315 11.8587 24.6844 11.8587ZM24.6844 11.5426C24.6638 11.5426 24.6436 11.5495 24.6264 11.5624C24.6092 11.5753 24.5958 11.5937 24.5879 11.6151C24.58 11.6366 24.578 11.6602 24.582 11.683C24.586 11.7057 24.596 11.7267 24.6106 11.7431C24.6252 11.7595 24.6438 11.7707 24.664 11.7752C24.6843 11.7797 24.7053 11.7774 24.7244 11.7685C24.7435 11.7596 24.7598 11.7446 24.7713 11.7253C24.7827 11.706 24.7889 11.6833 24.7889 11.6601C24.789 11.6445 24.7865 11.6291 24.7813 11.6146C24.7762 11.6002 24.7685 11.587 24.7588 11.576C24.7491 11.5649 24.7375 11.5561 24.7247 11.5501C24.712 11.5441 24.6983 11.541 24.6844 11.541V11.5426Z" fill="white"/>
<path d="M24.4805 10.5616L24.7303 10.8177C24.7821 10.8711 24.8603 10.7841 24.8077 10.7307L24.5579 10.4737C24.5061 10.4204 24.4279 10.5074 24.4805 10.5608V10.5616Z" fill="white"/>
<path d="M24.7194 10.462L24.4916 10.7428C24.4441 10.8011 24.5215 10.8889 24.569 10.8298L24.7969 10.549C24.8443 10.4907 24.7669 10.4029 24.7194 10.462Z" fill="white"/>
<path d="M28.0984 11.0334L27.8684 11.3118C27.8202 11.3701 27.8976 11.4571 27.9458 11.3988L28.1759 11.1205C28.2241 11.0622 28.1466 10.9751 28.0984 11.0334Z" fill="white"/>
<path d="M28.1847 11.3021L27.9371 11.0435C27.8852 10.9893 27.8078 11.0763 27.8597 11.1305L28.1073 11.3891C28.1591 11.4433 28.2365 11.3563 28.1847 11.3021Z" fill="white"/>
<path d="M40.9395 11.2478C41.0173 11.2478 41.0804 11.1769 41.0804 11.0894C41.0804 11.0019 41.0173 10.9309 40.9395 10.9309C40.8616 10.9309 40.7985 11.0019 40.7985 11.0894C40.7985 11.1769 40.8616 11.2478 40.9395 11.2478Z" fill="white"/>
<path d="M42.8822 10.5196C42.96 10.5196 43.0231 10.4486 43.0231 10.3611C43.0231 10.2736 42.96 10.2026 42.8822 10.2026C42.8043 10.2026 42.7412 10.2736 42.7412 10.3611C42.7412 10.4486 42.8043 10.5196 42.8822 10.5196Z" fill="white"/>
<path d="M39.4752 11.8587C39.4401 11.8587 39.4058 11.847 39.3766 11.8251C39.3474 11.8032 39.3247 11.772 39.3112 11.7356C39.2978 11.6991 39.2943 11.659 39.3011 11.6203C39.308 11.5816 39.3249 11.5461 39.3497 11.5182C39.3745 11.4903 39.4061 11.4712 39.4406 11.4636C39.475 11.4559 39.5107 11.4598 39.5431 11.4749C39.5755 11.49 39.6033 11.5156 39.6228 11.5484C39.6423 11.5812 39.6527 11.6198 39.6527 11.6592C39.6527 11.7121 39.634 11.7629 39.6007 11.8003C39.5674 11.8377 39.5223 11.8587 39.4752 11.8587ZM39.4752 11.5426C39.4545 11.5426 39.4343 11.5495 39.4172 11.5624C39.4 11.5753 39.3866 11.5937 39.3787 11.6151C39.3708 11.6366 39.3687 11.6602 39.3728 11.683C39.3768 11.7057 39.3867 11.7267 39.4014 11.7431C39.416 11.7595 39.4346 11.7707 39.4548 11.7752C39.4751 11.7797 39.4961 11.7774 39.5152 11.7685C39.5342 11.7596 39.5506 11.7446 39.562 11.7253C39.5735 11.706 39.5796 11.6833 39.5796 11.6601C39.5798 11.6445 39.5773 11.6291 39.5721 11.6146C39.5669 11.6002 39.5593 11.587 39.5496 11.576C39.5398 11.5649 39.5283 11.5561 39.5155 11.5501C39.5027 11.5441 39.489 11.541 39.4752 11.541V11.5426Z" fill="white"/>
<path d="M39.27 10.5616L39.5198 10.8177C39.5716 10.8711 39.6498 10.7841 39.5972 10.7307L39.3474 10.4737C39.2956 10.4204 39.2174 10.5074 39.27 10.5608V10.5616Z" fill="white"/>
<path d="M39.5096 10.462L39.2818 10.7428C39.2343 10.8011 39.3117 10.8889 39.3592 10.8298L39.587 10.549C39.6345 10.4907 39.5571 10.4029 39.5096 10.462Z" fill="white"/>
<path d="M42.8879 11.0334L42.6579 11.3118C42.6097 11.3701 42.6871 11.4571 42.7353 11.3988L42.9653 11.1205C43.0135 11.0622 42.9361 10.9751 42.8879 11.0334Z" fill="white"/>
<path d="M42.9742 11.3021L42.7266 11.0435C42.6747 10.9893 42.5973 11.0763 42.6492 11.1305L42.8967 11.3891C42.9486 11.4433 43.026 11.3563 42.9742 11.3021Z" fill="white"/>
<path d="M8.11873 11.2478C8.19658 11.2478 8.25968 11.1769 8.25968 11.0894C8.25968 11.0019 8.19658 10.9309 8.11873 10.9309C8.04089 10.9309 7.97778 11.0019 7.97778 11.0894C7.97778 11.1769 8.04089 11.2478 8.11873 11.2478Z" fill="white"/>
<path d="M10.0615 10.5196C10.1393 10.5196 10.2024 10.4486 10.2024 10.3611C10.2024 10.2736 10.1393 10.2026 10.0615 10.2026C9.98361 10.2026 9.9205 10.2736 9.9205 10.3611C9.9205 10.4486 9.98361 10.5196 10.0615 10.5196Z" fill="white"/>
<path d="M6.65445 11.8587C6.61936 11.8587 6.58504 11.847 6.55586 11.8251C6.52668 11.8032 6.50393 11.772 6.4905 11.7356C6.47707 11.6991 6.47355 11.659 6.4804 11.6203C6.48725 11.5816 6.50415 11.5461 6.52897 11.5182C6.55379 11.4903 6.58541 11.4712 6.61983 11.4636C6.65426 11.4559 6.68994 11.4598 6.72237 11.4749C6.75479 11.49 6.78251 11.5156 6.80201 11.5484C6.82151 11.5812 6.83192 11.6198 6.83192 11.6592C6.83192 11.7121 6.81322 11.7629 6.77994 11.8003C6.74666 11.8377 6.70152 11.8587 6.65445 11.8587ZM6.65445 11.5426C6.6338 11.5426 6.61361 11.5495 6.59643 11.5624C6.57926 11.5753 6.56587 11.5937 6.55797 11.6151C6.55007 11.6366 6.548 11.6602 6.55203 11.683C6.55606 11.7057 6.566 11.7267 6.58061 11.7431C6.59521 11.7595 6.61382 11.7707 6.63408 11.7752C6.65434 11.7797 6.67534 11.7774 6.69442 11.7685C6.7135 11.7596 6.72981 11.7446 6.74129 11.7253C6.75276 11.706 6.75889 11.6833 6.75889 11.6601C6.75908 11.6445 6.75652 11.6291 6.75136 11.6146C6.7462 11.6002 6.73854 11.587 6.72882 11.576C6.7191 11.5649 6.70753 11.5561 6.69476 11.5501C6.68199 11.5441 6.66829 11.541 6.65445 11.541V11.5426Z" fill="white"/>
<path d="M6.4493 10.5613L6.69907 10.8175C6.75092 10.8709 6.82906 10.7838 6.77648 10.7305L6.52672 10.4735C6.47487 10.4201 6.39672 10.5071 6.4493 10.5605V10.5613Z" fill="white"/>
<path d="M6.68719 10.462L6.45933 10.7428C6.41186 10.8011 6.48928 10.8889 6.53675 10.8298L6.7646 10.549C6.81207 10.4907 6.73466 10.4029 6.68719 10.462Z" fill="white"/>
<path d="M10.0672 11.0334L9.83712 11.3118C9.78892 11.3701 9.86633 11.4571 9.91453 11.3988L10.1446 11.1205C10.1928 11.0622 10.1154 10.9751 10.0672 11.0334Z" fill="white"/>
<path d="M10.1512 11.3021L9.90367 11.0435C9.85182 10.9893 9.77441 11.0763 9.82626 11.1305L10.0738 11.3891C10.1257 11.4433 10.2031 11.3563 10.1512 11.3021Z" fill="white"/>
</g>
<g opacity="0.5">
<path d="M16.0273 3.15677C16.1051 3.15677 16.1683 3.08582 16.1683 2.9983C16.1683 2.91079 16.1051 2.83984 16.0273 2.83984C15.9495 2.83984 15.8864 2.91079 15.8864 2.9983C15.8864 3.08582 15.9495 3.15677 16.0273 3.15677Z" fill="white"/>
<path d="M17.97 2.42923C18.0479 2.42923 18.111 2.35828 18.111 2.27077C18.111 2.18325 18.0479 2.1123 17.97 2.1123C17.8922 2.1123 17.8291 2.18325 17.8291 2.27077C17.8291 2.35828 17.8922 2.42923 17.97 2.42923Z" fill="white"/>
<path d="M14.563 3.76768C14.5279 3.76768 14.4936 3.75598 14.4644 3.73405C14.4352 3.71213 14.4125 3.68097 14.3991 3.64452C14.3856 3.60806 14.3821 3.56794 14.389 3.52924C14.3958 3.49054 14.4127 3.45499 14.4375 3.42709C14.4624 3.39919 14.494 3.38018 14.5284 3.37249C14.5628 3.36479 14.5985 3.36874 14.6309 3.38384C14.6634 3.39894 14.6911 3.42451 14.7106 3.45732C14.7301 3.49013 14.7405 3.52871 14.7405 3.56817C14.7405 3.62108 14.7218 3.67183 14.6885 3.70924C14.6552 3.74666 14.6101 3.76768 14.563 3.76768ZM14.563 3.45158C14.5424 3.45158 14.5222 3.45846 14.505 3.47136C14.4878 3.48427 14.4744 3.5026 14.4665 3.52406C14.4586 3.54551 14.4566 3.56912 14.4606 3.59189C14.4646 3.61467 14.4746 3.63559 14.4892 3.65201C14.5038 3.66843 14.5224 3.67961 14.5427 3.68414C14.5629 3.68867 14.5839 3.68634 14.603 3.67746C14.6221 3.66857 14.6384 3.65352 14.6499 3.63422C14.6613 3.61491 14.6675 3.59221 14.6675 3.56899C14.6675 3.53785 14.6565 3.50798 14.6369 3.48597C14.6173 3.46395 14.5907 3.45158 14.563 3.45158Z" fill="white"/>
<path d="M14.3578 2.47115L14.6061 2.72732C14.658 2.78068 14.7361 2.69365 14.6835 2.64029L14.4338 2.38412C14.3819 2.33075 14.3038 2.41778 14.3563 2.47115H14.3578Z" fill="white"/>
<path d="M14.5959 2.37167L14.3681 2.65247C14.3206 2.71076 14.398 2.79861 14.4455 2.7395L14.6733 2.4587C14.7208 2.40041 14.6434 2.31255 14.5959 2.37167Z" fill="white"/>
<path d="M17.9757 2.94213L17.7464 3.22046C17.6982 3.27876 17.7756 3.36579 17.8238 3.3075L18.0538 3.02916C18.102 2.97087 18.0246 2.88384 17.9764 2.94213H17.9757Z" fill="white"/>
<path d="M18.062 3.2108L17.8144 2.95217C17.7626 2.89798 17.6851 2.98501 17.737 3.0392L17.9846 3.29783C18.0364 3.35202 18.1138 3.26499 18.062 3.2108Z" fill="white"/>
<path d="M23.8568 3.15677C23.9346 3.15677 23.9978 3.08582 23.9978 2.9983C23.9978 2.91079 23.9346 2.83984 23.8568 2.83984C23.779 2.83984 23.7159 2.91079 23.7159 2.9983C23.7159 3.08582 23.779 3.15677 23.8568 3.15677Z" fill="white"/>
<path d="M25.7995 2.42923C25.8774 2.42923 25.9405 2.35828 25.9405 2.27077C25.9405 2.18325 25.8774 2.1123 25.7995 2.1123C25.7217 2.1123 25.6586 2.18325 25.6586 2.27077C25.6586 2.35828 25.7217 2.42923 25.7995 2.42923Z" fill="white"/>
<path d="M22.3927 3.76768C22.3576 3.76768 22.3233 3.75598 22.2941 3.73405C22.265 3.71213 22.2422 3.68097 22.2288 3.64452C22.2153 3.60806 22.2118 3.56794 22.2187 3.52924C22.2255 3.49054 22.2424 3.45499 22.2672 3.42709C22.2921 3.39919 22.3237 3.38018 22.3581 3.37249C22.3925 3.36479 22.4282 3.36874 22.4606 3.38384C22.4931 3.39894 22.5208 3.42451 22.5403 3.45732C22.5598 3.49013 22.5702 3.52871 22.5702 3.56817C22.5702 3.62108 22.5515 3.67183 22.5182 3.70924C22.4849 3.74666 22.4398 3.76768 22.3927 3.76768ZM22.3927 3.45158C22.3721 3.45158 22.3519 3.45846 22.3347 3.47136C22.3175 3.48427 22.3042 3.5026 22.2963 3.52406C22.2883 3.54551 22.2863 3.56912 22.2903 3.59189C22.2943 3.61467 22.3043 3.63559 22.3189 3.65201C22.3335 3.66843 22.3521 3.67961 22.3724 3.68414C22.3926 3.68867 22.4136 3.68634 22.4327 3.67746C22.4518 3.66857 22.4681 3.65352 22.4796 3.63422C22.491 3.61491 22.4972 3.59221 22.4972 3.56899C22.4972 3.53785 22.4862 3.50798 22.4666 3.48597C22.447 3.46395 22.4204 3.45158 22.3927 3.45158Z" fill="white"/>
<path d="M22.1873 2.47091L22.4371 2.72707C22.489 2.78044 22.5671 2.69341 22.5145 2.64004L22.2648 2.38388C22.2129 2.33051 22.1348 2.41754 22.1873 2.47091Z" fill="white"/>
<path d="M22.4255 2.37167L22.2012 2.65247C22.1538 2.71076 22.2312 2.79861 22.2787 2.7395L22.5065 2.4587C22.554 2.40041 22.4766 2.31255 22.4291 2.37167H22.4255Z" fill="white"/>
<path d="M25.8053 2.94213L25.5752 3.22046C25.527 3.27876 25.6044 3.36579 25.6526 3.3075L25.8827 3.02916C25.9309 2.97087 25.8535 2.88384 25.8053 2.94213Z" fill="white"/>
<path d="M25.8915 3.2108L25.6439 2.95217C25.5921 2.89798 25.5146 2.98501 25.5665 3.0392L25.8141 3.29783C25.8659 3.35202 25.9433 3.26499 25.8915 3.2108Z" fill="white"/>
<path d="M33.1886 3.15677C33.2665 3.15677 33.3296 3.08582 33.3296 2.9983C33.3296 2.91079 33.2665 2.83984 33.1886 2.83984C33.1108 2.83984 33.0477 2.91079 33.0477 2.9983C33.0477 3.08582 33.1108 3.15677 33.1886 3.15677Z" fill="white"/>
<path d="M35.1313 2.42923C35.2092 2.42923 35.2723 2.35828 35.2723 2.27077C35.2723 2.18325 35.2092 2.1123 35.1313 2.1123C35.0535 2.1123 34.9904 2.18325 34.9904 2.27077C34.9904 2.35828 35.0535 2.42923 35.1313 2.42923Z" fill="white"/>
<path d="M31.7252 3.76768C31.6901 3.76768 31.6558 3.75598 31.6266 3.73405C31.5974 3.71213 31.5747 3.68097 31.5613 3.64452C31.5478 3.60806 31.5443 3.56794 31.5512 3.52924C31.558 3.49054 31.5749 3.45499 31.5997 3.42709C31.6246 3.39919 31.6562 3.38018 31.6906 3.37249C31.725 3.36479 31.7607 3.36874 31.7931 3.38384C31.8256 3.39894 31.8533 3.42451 31.8728 3.45732C31.8923 3.49013 31.9027 3.52871 31.9027 3.56817C31.9027 3.62108 31.884 3.67183 31.8507 3.70924C31.8174 3.74666 31.7723 3.76768 31.7252 3.76768ZM31.7252 3.45158C31.7046 3.45158 31.6844 3.45846 31.6672 3.47136C31.65 3.48427 31.6366 3.5026 31.6287 3.52406C31.6208 3.54551 31.6188 3.56912 31.6228 3.59189C31.6268 3.61467 31.6368 3.63559 31.6514 3.65201C31.666 3.66843 31.6846 3.67961 31.7048 3.68414C31.7251 3.68867 31.7461 3.68634 31.7652 3.67746C31.7843 3.66857 31.8006 3.65352 31.8121 3.63422C31.8235 3.61491 31.8297 3.59221 31.8297 3.56899C31.8297 3.53785 31.8187 3.50798 31.7991 3.48597C31.7795 3.46395 31.7529 3.45158 31.7252 3.45158Z" fill="white"/>
<path d="M31.5192 2.47091L31.7683 2.72707C31.8201 2.78044 31.8983 2.69341 31.8457 2.64004L31.5959 2.38388C31.5441 2.33051 31.4659 2.41754 31.5185 2.47091H31.5192Z" fill="white"/>
<path d="M31.7581 2.37167L31.5302 2.65247C31.4828 2.71076 31.5602 2.79861 31.6076 2.7395L31.8355 2.4587C31.883 2.40041 31.8056 2.31255 31.7581 2.37167Z" fill="white"/>
<path d="M35.1373 2.94213L34.9087 3.22046C34.8605 3.27876 34.938 3.36579 34.9862 3.3075L35.2162 3.02916C35.2644 2.97087 35.187 2.88384 35.1388 2.94213H35.1373Z" fill="white"/>
<path d="M35.2235 3.2108L34.9759 2.95217C34.9241 2.89798 34.8467 2.98501 34.8985 3.0392L35.1461 3.29783C35.198 3.35202 35.2754 3.26499 35.2235 3.2108Z" fill="white"/>
</g>
<g opacity="0.5">
<path d="M11.5192 19.5164C11.597 19.5164 11.6601 19.4454 11.6601 19.3579C11.6601 19.2704 11.597 19.1995 11.5192 19.1995C11.4413 19.1995 11.3782 19.2704 11.3782 19.3579C11.3782 19.4454 11.4413 19.5164 11.5192 19.5164Z" fill="white"/>
<path d="M13.4619 18.7881C13.5397 18.7881 13.6029 18.7172 13.6029 18.6297C13.6029 18.5421 13.5397 18.4712 13.4619 18.4712C13.3841 18.4712 13.321 18.5421 13.321 18.6297C13.321 18.7172 13.3841 18.7881 13.4619 18.7881Z" fill="white"/>
<path d="M10.0558 20.1273C10.0207 20.1273 9.98635 20.1156 9.95717 20.0937C9.92798 20.0718 9.90524 20.0406 9.89181 20.0041C9.87837 19.9677 9.87486 19.9276 9.88171 19.8889C9.88855 19.8502 9.90546 19.8146 9.93027 19.7867C9.95509 19.7588 9.98671 19.7398 10.0211 19.7321C10.0556 19.7244 10.0912 19.7284 10.1237 19.7435C10.1561 19.7586 10.1838 19.7841 10.2033 19.8169C10.2228 19.8498 10.2332 19.8883 10.2332 19.9278C10.2332 19.9807 10.2145 20.0314 10.1812 20.0689C10.148 20.1063 10.1028 20.1273 10.0558 20.1273ZM10.0558 19.8112C10.0351 19.8112 10.0149 19.8181 9.99774 19.831C9.98057 19.8439 9.96718 19.8622 9.95928 19.8837C9.95137 19.9051 9.9493 19.9287 9.95333 19.9515C9.95736 19.9743 9.96731 19.9952 9.98191 20.0116C9.99652 20.028 10.0151 20.0392 10.0354 20.0438C10.0556 20.0483 10.0766 20.046 10.0957 20.0371C10.1148 20.0282 10.1311 20.0131 10.1426 19.9938C10.1541 19.9745 10.1602 19.9518 10.1602 19.9286C10.1603 19.9131 10.1577 19.8978 10.1525 19.8834C10.1473 19.8691 10.1396 19.856 10.1299 19.8451C10.1202 19.8341 10.1086 19.8253 10.0959 19.8194C10.0832 19.8134 10.0695 19.8104 10.0558 19.8104V19.8112Z" fill="white"/>
<path d="M9.8496 18.8308L10.0994 19.0869C10.1512 19.1403 10.2294 19.0533 10.1768 18.9999L9.92702 18.7437C9.87516 18.6904 9.79702 18.7774 9.8496 18.8308Z" fill="white"/>
<path d="M10.0886 18.7315L9.85927 19.0123C9.8118 19.0706 9.88921 19.1585 9.93668 19.0994L10.1645 18.8186C10.212 18.7603 10.1346 18.6724 10.0871 18.7315H10.0886Z" fill="white"/>
<path d="M13.4676 19.302L13.2376 19.5803C13.1894 19.6386 13.2668 19.7257 13.315 19.6674L13.545 19.389C13.5932 19.3307 13.5158 19.2437 13.4676 19.302Z" fill="white"/>
<path d="M13.5539 19.5707L13.3063 19.312C13.2544 19.2578 13.177 19.3449 13.2289 19.3991L13.4765 19.6577C13.5283 19.7119 13.6057 19.6249 13.5539 19.5707Z" fill="white"/>
<path d="M23.8569 19.5164C23.9348 19.5164 23.9979 19.4454 23.9979 19.3579C23.9979 19.2704 23.9348 19.1995 23.8569 19.1995C23.7791 19.1995 23.716 19.2704 23.716 19.3579C23.716 19.4454 23.7791 19.5164 23.8569 19.5164Z" fill="white"/>
<path d="M25.7996 18.7881C25.8775 18.7881 25.9406 18.7172 25.9406 18.6297C25.9406 18.5421 25.8775 18.4712 25.7996 18.4712C25.7218 18.4712 25.6587 18.5421 25.6587 18.6297C25.6587 18.7172 25.7218 18.7881 25.7996 18.7881Z" fill="white"/>
<path d="M22.3929 20.1273C22.3578 20.1273 22.3234 20.1156 22.2943 20.0937C22.2651 20.0718 22.2423 20.0406 22.2289 20.0041C22.2155 19.9677 22.212 19.9276 22.2188 19.8889C22.2257 19.8502 22.2426 19.8146 22.2674 19.7867C22.2922 19.7588 22.3238 19.7398 22.3582 19.7321C22.3927 19.7244 22.4283 19.7284 22.4608 19.7435C22.4932 19.7586 22.5209 19.7841 22.5404 19.8169C22.5599 19.8498 22.5703 19.8883 22.5703 19.9278C22.5703 19.9807 22.5516 20.0314 22.5183 20.0689C22.4851 20.1063 22.4399 20.1273 22.3929 20.1273ZM22.3929 19.8112C22.3722 19.8112 22.352 19.8181 22.3348 19.831C22.3177 19.8439 22.3043 19.8622 22.2964 19.8837C22.2885 19.9051 22.2864 19.9287 22.2904 19.9515C22.2945 19.9743 22.3044 19.9952 22.319 20.0116C22.3336 20.028 22.3522 20.0392 22.3725 20.0438C22.3927 20.0483 22.4137 20.046 22.4328 20.0371C22.4519 20.0282 22.4682 20.0131 22.4797 19.9938C22.4912 19.9745 22.4973 19.9518 22.4973 19.9286C22.4974 19.9131 22.4948 19.8978 22.4896 19.8834C22.4843 19.8691 22.4767 19.856 22.467 19.8451C22.4573 19.8341 22.4457 19.8253 22.433 19.8194C22.4203 19.8134 22.4066 19.8104 22.3929 19.8104V19.8112Z" fill="white"/>
<path d="M22.1875 18.8308L22.4372 19.0869C22.4891 19.1403 22.5672 19.0533 22.5146 18.9999L22.2649 18.7437C22.213 18.6904 22.1349 18.7774 22.1875 18.8308Z" fill="white"/>
<path d="M22.4256 18.7315L22.2014 19.0123C22.1539 19.0706 22.2313 19.1585 22.2788 19.0994L22.5066 18.8186C22.5541 18.7603 22.4767 18.6724 22.4292 18.7315H22.4256Z" fill="white"/>
<path d="M25.8054 19.302L25.5753 19.5803C25.5271 19.6386 25.6046 19.7257 25.6528 19.6674L25.8828 19.389C25.931 19.3307 25.8536 19.2437 25.8054 19.302Z" fill="white"/>
<path d="M25.8916 19.5707L25.644 19.312C25.5922 19.2578 25.5148 19.3449 25.5666 19.3991L25.8142 19.6577C25.866 19.7119 25.9435 19.6249 25.8916 19.5707Z" fill="white"/>
<path d="M38.7255 19.5164C38.8033 19.5164 38.8664 19.4454 38.8664 19.3579C38.8664 19.2704 38.8033 19.1995 38.7255 19.1995C38.6476 19.1995 38.5845 19.2704 38.5845 19.3579C38.5845 19.4454 38.6476 19.5164 38.7255 19.5164Z" fill="white"/>
<path d="M40.668 18.7881C40.7458 18.7881 40.8089 18.7172 40.8089 18.6297C40.8089 18.5421 40.7458 18.4712 40.668 18.4712C40.5901 18.4712 40.527 18.5421 40.527 18.6297C40.527 18.7172 40.5901 18.7881 40.668 18.7881Z" fill="white"/>
<path d="M37.261 20.1273C37.2259 20.1273 37.1916 20.1156 37.1624 20.0937C37.1332 20.0718 37.1104 20.0406 37.097 20.0041C37.0836 19.9677 37.0801 19.9276 37.0869 19.8889C37.0938 19.8502 37.1107 19.8146 37.1355 19.7867C37.1603 19.7588 37.1919 19.7398 37.2263 19.7321C37.2608 19.7244 37.2964 19.7284 37.3289 19.7435C37.3613 19.7586 37.389 19.7841 37.4085 19.8169C37.428 19.8498 37.4384 19.8883 37.4384 19.9278C37.4384 19.9807 37.4197 20.0314 37.3864 20.0689C37.3532 20.1063 37.308 20.1273 37.261 20.1273ZM37.261 19.8112C37.2403 19.8112 37.2201 19.8181 37.2029 19.831C37.1858 19.8439 37.1724 19.8622 37.1645 19.8837C37.1566 19.9051 37.1545 19.9287 37.1585 19.9515C37.1626 19.9743 37.1725 19.9952 37.1871 20.0116C37.2017 20.028 37.2203 20.0392 37.2406 20.0438C37.2608 20.0483 37.2818 20.046 37.3009 20.0371C37.32 20.0282 37.3363 20.0131 37.3478 19.9938C37.3593 19.9745 37.3654 19.9518 37.3654 19.9286C37.3655 19.9131 37.3629 19.8978 37.3577 19.8834C37.3525 19.8691 37.3448 19.856 37.3351 19.8451C37.3254 19.8341 37.3138 19.8253 37.3011 19.8194C37.2884 19.8134 37.2747 19.8104 37.261 19.8104V19.8112Z" fill="white"/>
<path d="M37.0551 18.8308L37.3049 19.0869C37.3568 19.1403 37.4349 19.0533 37.3823 18.9999L37.1326 18.7437C37.0807 18.6904 37.0026 18.7774 37.0551 18.8308Z" fill="white"/>
<path d="M37.2941 18.7315L37.0662 19.0123C37.0187 19.0706 37.0961 19.1585 37.1436 19.0994L37.3715 18.8186C37.4189 18.7603 37.3415 18.6724 37.2941 18.7315Z" fill="white"/>
<path d="M40.6737 19.302L40.4437 19.5803C40.3955 19.6386 40.4729 19.7257 40.5211 19.6674L40.7511 19.389C40.7993 19.3307 40.7219 19.2437 40.6737 19.302Z" fill="white"/>
<path d="M40.7599 19.5707L40.5123 19.312C40.4605 19.2578 40.3831 19.3449 40.4349 19.3991L40.6825 19.6577C40.7344 19.7119 40.8118 19.6249 40.7599 19.5707Z" fill="white"/>
</g>
<path d="M12.3421 3.00952H35.3365V32.0998H12.3421V3.00952Z" fill="#60696D"/>
<path d="M12.4363 30.5776H35.2774V31.2673H12.4363V30.5776Z" fill="#4F585B"/>
<path d="M35.519 32.3955H12.1595V2.89307H35.519V32.3955ZM12.5246 31.985H35.1539V3.30359H12.5246V31.985Z" fill="#172D35"/>
<path d="M8.90967 4.8125H39.0458V30.3854H8.90967V4.8125Z" fill="#60696D"/>
<path d="M9.15717 4.89453H9.69686V30.4675H9.15717V4.89453Z" fill="#4F585B"/>
<path d="M38.5207 4.89453H38.9983V30.4675H38.5207V4.89453Z" fill="#4F585B"/>
<path d="M9.1185 4.93213H39.1443V5.50439H9.1185V4.93213Z" fill="#4F585B"/>
<path d="M8.98273 29.7253H39.1444V30.3001H8.98273V29.7253Z" fill="#4F585B"/>
<path d="M11.2183 7.32812H36.909V27.8706H11.2183V7.32812Z" fill="#008FD7"/>
<g opacity="0.6">
<path d="M11.1336 7.32812H36.8243V7.88561H11.1336V7.32812Z" fill="#333C5C"/>
<path d="M11.2468 27.2622H37.0901V27.8369H11.2468V27.2622Z" fill="#333C5C"/>
<path d="M11.2518 7.48389H11.7871V27.8358H11.2518V7.48389Z" fill="#333C5C"/>
<path d="M36.4066 7.48389H36.8805V27.8358H36.4066V7.48389Z" fill="#333C5C"/>
</g>
<path d="M39.3203 30.5892H8.81909V4.60742H39.3203V30.5892ZM9.18424 30.1787H38.9552V5.01794H9.18424V30.1787Z" fill="#172D35"/>
<path d="M37.0996 28.076H11.0415V7.12305H37.0996V28.076ZM11.4088 27.6655H36.7344V7.53357H11.4067L11.4088 27.6655Z" fill="#172D35"/>
<path d="M35.2249 8.95382V10.3356C35.2249 10.6526 35.6631 10.6534 35.6631 10.3356V8.95382C35.6631 8.6369 35.2249 8.63608 35.2249 8.95382Z" fill="white"/>
<path d="M35.2249 11.2356V14.0402C35.2249 14.3572 35.6631 14.358 35.6631 14.0402V11.2356C35.6631 10.9186 35.2249 10.9178 35.2249 11.2356Z" fill="white"/>
<path d="M24.7454 15.1195V14.3196H23.9455V13.5197H23.1456V11.12H23.9455V10.3201H24.7454V9.52024H27.1451V10.3201H27.945V11.12H28.7449V13.5197H27.945V14.3196H27.1451V15.1195H24.7454ZM25.5453 14.3196H27.1451V11.12H26.3452V10.3201H24.7454V13.5197H25.5453V14.3196ZM23.1456 21.1195V19.5197H23.9455V18.7198H24.7454V17.9199H26.3452V17.12H27.1451V16.3201H24.7454V17.12H23.1456V16.3201H23.9455V15.5202H27.945V16.3201H28.7449V17.9199H27.945V18.7198H27.1451V19.5197H25.5453V20.3196H28.7449V21.1195H23.1456Z" fill="#58BF44"/>
<defs>
<linearGradient id="paint0_linear_4323_436313" x1="4.58706" y1="11.0475" x2="45" y2="11.0475" gradientUnits="userSpaceOnUse">
<stop stop-color="#5B38D2"/>
<stop offset="1" stop-color="#CF4DA7"/>
</linearGradient>
<linearGradient id="paint1_linear_4323_436313" x1="8.38327" y1="2.95698" x2="12.1005" y2="2.95698" gradientUnits="userSpaceOnUse">
<stop stop-color="#5B38D2"/>
<stop offset="1" stop-color="#CF4DA7"/>
</linearGradient>
<linearGradient id="paint2_linear_4323_436313" x1="0" y1="19.3161" x2="3.71726" y2="19.3161" gradientUnits="userSpaceOnUse">
<stop stop-color="#5B38D2"/>
<stop offset="1" stop-color="#CF4DA7"/>
</linearGradient>
</defs>
</svg>
