<svg width="25" height="25" viewBox="0 0 25 25" fill="none" xmlns="http://www.w3.org/2000/svg">
<path d="M20.8223 0.199219H4.32227C2.2512 0.199219 0.572266 1.87815 0.572266 3.94922V20.4492C0.572266 22.5203 2.2512 24.1992 4.32227 24.1992H20.8223C22.8933 24.1992 24.5723 22.5203 24.5723 20.4492V3.94922C24.5723 1.87815 22.8933 0.199219 20.8223 0.199219Z" fill="#1C1B1E"/>
<path d="M18.5723 12.1992C18.5723 8.89922 15.8723 6.19922 12.5723 6.19922C9.27227 6.19922 6.57227 8.89922 6.57227 12.1992C6.57227 15.1992 8.74727 17.6742 11.5973 18.1242V13.9242H10.0973V12.1992H11.5973V10.8492C11.5973 9.34922 12.4973 8.52422 13.8473 8.52422C14.5223 8.52422 15.1973 8.67422 15.1973 8.67422V10.1742H14.4473C13.6973 10.1742 13.4723 10.6242 13.4723 11.0742V12.1992H15.1223L14.8223 13.9242H13.3973V18.1992C16.3973 17.7492 18.5723 15.1992 18.5723 12.1992Z" fill="white"/>
</svg>
