<svg width="25" height="25" viewBox="0 0 25 25" fill="none" xmlns="http://www.w3.org/2000/svg">
<path d="M12.2852 14.2992C11.1602 14.2992 10.1852 13.3992 10.1852 12.1992C10.1852 11.0742 11.0852 10.0992 12.2852 10.0992C13.4102 10.0992 14.3852 10.9992 14.3852 12.1992C14.3852 13.3242 13.4102 14.2992 12.2852 14.2992Z" fill="#1C1B1E"/>
<path fill-rule="evenodd" clip-rule="evenodd" d="M14.8352 7.09922H9.73516C9.13516 7.17422 8.83516 7.24922 8.61016 7.32422C8.31016 7.39922 8.08516 7.54922 7.86016 7.77422C7.68212 7.95226 7.598 8.1303 7.49632 8.3455C7.46952 8.40221 7.44143 8.46166 7.41016 8.52422C7.39855 8.55902 7.38516 8.59563 7.3708 8.63486C7.29234 8.84922 7.18516 9.14204 7.18516 9.64922V14.7492C7.26016 15.3492 7.33516 15.6492 7.41016 15.8742C7.48516 16.1742 7.63516 16.3992 7.86016 16.6242C8.0382 16.8023 8.21624 16.8864 8.43144 16.9881C8.4882 17.0149 8.54754 17.0429 8.61016 17.0742C8.64496 17.0858 8.68157 17.0992 8.72079 17.1136C8.93515 17.192 9.22797 17.2992 9.73516 17.2992H14.8352C15.4352 17.2242 15.7352 17.1492 15.9602 17.0742C16.2602 16.9992 16.4852 16.8492 16.7102 16.6242C16.8882 16.4462 16.9723 16.2681 17.074 16.0529C17.1008 15.9962 17.1289 15.9368 17.1602 15.8742C17.1718 15.8394 17.1852 15.8028 17.1995 15.7636C17.278 15.5492 17.3852 15.2564 17.3852 14.7492V9.64922C17.3102 9.04922 17.2352 8.74922 17.1602 8.52422C17.0852 8.22422 16.9352 7.99922 16.7102 7.77422C16.5321 7.59618 16.3541 7.51206 16.1389 7.41038C16.0822 7.3836 16.0227 7.35547 15.9602 7.32422C15.9253 7.31261 15.8887 7.29922 15.8495 7.28486C15.6352 7.2064 15.3423 7.09922 14.8352 7.09922ZM12.2852 8.97422C10.4852 8.97422 9.06016 10.3992 9.06016 12.1992C9.06016 13.9992 10.4852 15.4242 12.2852 15.4242C14.0852 15.4242 15.5102 13.9992 15.5102 12.1992C15.5102 10.3992 14.0852 8.97422 12.2852 8.97422ZM16.3352 8.89922C16.3352 9.31343 15.9994 9.64922 15.5852 9.64922C15.1709 9.64922 14.8352 9.31343 14.8352 8.89922C14.8352 8.485 15.1709 8.14922 15.5852 8.14922C15.9994 8.14922 16.3352 8.485 16.3352 8.89922Z" fill="#1C1B1E"/>
<path fill-rule="evenodd" clip-rule="evenodd" d="M0.285156 3.94922C0.285156 1.87815 1.96409 0.199219 4.03516 0.199219H20.5352C22.6062 0.199219 24.2852 1.87815 24.2852 3.94922V20.4492C24.2852 22.5203 22.6062 24.1992 20.5352 24.1992H4.03516C1.96409 24.1992 0.285156 22.5203 0.285156 20.4492V3.94922ZM9.73516 5.97422H14.8352C15.5102 6.04922 15.9602 6.12422 16.3352 6.27422C16.7852 6.49922 17.0852 6.64922 17.4602 7.02422C17.8352 7.39922 18.0602 7.77422 18.2102 8.14922C18.3602 8.52422 18.5102 8.97422 18.5102 9.64922V14.7492C18.4352 15.4242 18.3602 15.8742 18.2102 16.2492C17.9852 16.6992 17.8352 16.9992 17.4602 17.3742C17.0852 17.7492 16.7102 17.9742 16.3352 18.1242C15.9602 18.2742 15.5102 18.4242 14.8352 18.4242H9.73516C9.06016 18.3492 8.61016 18.2742 8.23516 18.1242C7.78516 17.8992 7.48516 17.7492 7.11016 17.3742C6.73516 16.9992 6.51016 16.6242 6.36016 16.2492C6.21016 15.8742 6.06016 15.4242 6.06016 14.7492V9.64922C6.13516 8.97422 6.21016 8.52422 6.36016 8.14922C6.58516 7.69922 6.73516 7.39922 7.11016 7.02422C7.48516 6.64922 7.86016 6.42422 8.23516 6.27422C8.61016 6.12422 9.06016 5.97422 9.73516 5.97422Z" fill="#1C1B1E"/>
</svg>
