<svg width="24" height="25" viewBox="0 0 24 25" fill="none" xmlns="http://www.w3.org/2000/svg">
<path d="M20.25 0.199219H3.75C1.67893 0.199219 0 1.87815 0 3.94922V20.4492C0 22.5203 1.67893 24.1992 3.75 24.1992H20.25C22.3211 24.1992 24 22.5203 24 20.4492V3.94922C24 1.87815 22.3211 0.199219 20.25 0.199219Z" fill="#1C1B1E"/>
<path d="M8.7 18.1992H6.15V10.1742H8.7V18.1992ZM7.425 9.04922C6.6 9.04922 6 8.44922 6 7.62422C6 6.79922 6.675 6.19922 7.425 6.19922C8.25 6.19922 8.85 6.79922 8.85 7.62422C8.85 8.44922 8.25 9.04922 7.425 9.04922ZM18 18.1992H15.45V13.8492C15.45 12.5742 14.925 12.1992 14.175 12.1992C13.425 12.1992 12.675 12.7992 12.675 13.9242V18.1992H10.125V10.1742H12.525V11.2992C12.75 10.7742 13.65 9.94922 14.925 9.94922C16.35 9.94922 17.85 10.7742 17.85 13.2492V18.1992H18Z" fill="white"/>
</svg>
