<svg width="24" height="25" viewBox="0 0 24 25" fill="none" xmlns="http://www.w3.org/2000/svg">
<path fill-rule="evenodd" clip-rule="evenodd" d="M3.75 0.199219H20.25C22.3211 0.199219 24 1.87815 24 3.94922V20.4492C24 22.5203 22.3211 24.1992 20.25 24.1992H3.75C1.67894 24.1992 0 22.5203 0 20.4492V3.94922C0 1.87815 1.67894 0.199219 3.75 0.199219ZM7.27501 8.97422C7.34999 9.04922 7.425 9.19922 7.425 9.34922V14.5992C7.5 14.8242 7.425 14.9742 7.27501 15.1242L6 16.6242V16.8492H9.52501V16.6242L8.25 15.1242C8.175 14.9742 8.09999 14.8242 8.09999 14.5992V10.0242L11.25 16.8492H11.55L14.25 10.0242V15.4992C14.25 15.6492 14.25 15.7242 14.175 15.7992L13.2 16.7742V16.9992H17.925V16.7742L17.025 15.8742C16.95 15.7992 16.95 15.6492 16.95 15.5742V8.82422C16.875 8.67422 16.95 8.59922 17.025 8.52422L18 7.62421V7.39922H14.7L12.3 13.3242L9.59999 7.39922H6.15001V7.62421L7.27501 8.97422Z" fill="#1C1B1E"/>
</svg>
