<svg width="18" height="19" viewBox="0 0 18 19" fill="none" xmlns="http://www.w3.org/2000/svg">
<path d="M9 2.10156C4.86 2.10156 1.5 5.46156 1.5 9.60156C1.5 13.7416 4.86 17.1016 9 17.1016C13.14 17.1016 16.5 13.7416 16.5 9.60156C16.5 5.46156 13.14 2.10156 9 2.10156ZM3 9.60156C3 9.14406 3.06 8.69406 3.1575 8.26656L6.7425 11.8516V12.6016C6.7425 13.4266 7.4175 14.1016 8.2425 14.1016V15.5491C5.295 15.1741 3 12.6541 3 9.60156ZM13.4175 13.6516C13.2225 13.0441 12.6675 12.6016 11.9925 12.6016H11.2425V10.3516C11.2425 9.93906 10.905 9.60156 10.4925 9.60156H5.9925V8.10156H7.4925C7.905 8.10156 8.2425 7.76406 8.2425 7.35156V5.85156H9.7425C10.5675 5.85156 11.2425 5.17656 11.2425 4.35156V4.04406C13.44 4.92906 15 7.08906 15 9.60156C15 11.1616 14.3925 12.5866 13.4175 13.6516Z" fill="#1C1B1E"/>
</svg>
