<svg width="25" height="25" viewBox="0 0 25 25" fill="none" xmlns="http://www.w3.org/2000/svg">
<path fill-rule="evenodd" clip-rule="evenodd" d="M3.89258 0.199219C1.82152 0.199219 0.142578 1.87815 0.142578 3.94922V20.4492C0.142578 22.5203 1.82152 24.1992 3.89258 24.1992H20.3926C22.4636 24.1992 24.1426 22.5203 24.1426 20.4492V3.94922C24.1426 1.87815 22.4636 0.199219 20.3926 0.199219H3.89258ZM14.4812 6.19922C14.4812 6.37753 14.4979 6.55314 14.5286 6.7231C14.6762 7.50877 15.1411 8.18299 15.787 8.60366C16.238 8.89901 16.7724 9.06897 17.3487 9.06897L17.3486 9.52867V11.1307C16.2796 11.1307 15.2886 10.788 14.4812 10.2085V14.4017C14.4812 16.4941 12.7775 18.1992 10.6869 18.1992C9.8796 18.1992 9.12793 17.9428 8.5127 17.511C7.53283 16.8228 6.89258 15.6861 6.89258 14.4017C6.89258 12.3065 8.59349 10.6042 10.6841 10.6069C10.8595 10.6069 11.0293 10.6208 11.1964 10.6432V11.1307L11.1902 11.1336L11.1963 11.1335V12.7495C11.0349 12.6993 10.8623 12.6687 10.6841 12.6687C9.72927 12.6687 8.95258 13.446 8.95258 14.4017C8.95258 15.0676 9.33118 15.6443 9.88237 15.9368C9.89054 15.948 9.89883 15.9591 9.90723 15.9701C9.90089 15.9578 9.89356 15.9458 9.88519 15.9341C10.1274 16.0622 10.4002 16.1347 10.6897 16.1347C11.6222 16.1347 12.3851 15.3908 12.4184 14.4658L12.4212 6.19922H14.4812Z" fill="#1C1B1E"/>
</svg>
