<svg width="18" height="19" viewBox="0 0 18 19" fill="none" xmlns="http://www.w3.org/2000/svg">
<path d="M14.19 9.60156C14.22 9.84906 14.25 10.0966 14.25 10.3516C14.25 11.9116 13.65 13.3291 12.675 14.3941C12.48 13.7866 11.925 13.3516 11.25 13.3516H10.5V11.1016C10.5 10.6891 10.1625 10.3516 9.75 10.3516H5.25V8.85156H6.75C7.1625 8.85156 7.5 8.51406 7.5 8.10156V6.60156H9C9.825 6.60156 10.5 5.92656 10.5 5.10156V3.19656C9.7875 2.97156 9.0375 2.85156 8.25 2.85156C4.11 2.85156 0.75 6.21156 0.75 10.3516C0.75 14.4916 4.11 17.8516 8.25 17.8516C12.39 17.8516 15.75 14.4916 15.75 10.3516C15.75 10.0966 15.735 9.84906 15.7125 9.60156H14.19ZM7.5 16.2991C4.5375 15.9316 2.25 13.4116 2.25 10.3516C2.25 9.88656 2.31 9.44406 2.4075 9.00906L6 12.6016V13.3516C6 14.1766 6.675 14.8516 7.5 14.8516V16.2991ZM16.5 3.60156V3.22656C16.5 2.19156 15.66 1.35156 14.625 1.35156C13.59 1.35156 12.75 2.19156 12.75 3.22656V3.60156C12.3375 3.60156 12 3.93906 12 4.35156V7.35156C12 7.76406 12.3375 8.10156 12.75 8.10156H16.5C16.9125 8.10156 17.25 7.76406 17.25 7.35156V4.35156C17.25 3.93906 16.9125 3.60156 16.5 3.60156ZM15.75 3.60156H13.5V3.22656C13.5 2.60406 14.0025 2.10156 14.625 2.10156C15.2475 2.10156 15.75 2.60406 15.75 3.22656V3.60156Z" fill="#1C1B1E"/>
</svg>
