<svg width="25" height="25" viewBox="0 0 25 25" fill="none" xmlns="http://www.w3.org/2000/svg">
<path d="M14.6648 12.1992L11.5148 10.3992V13.9992L14.6648 12.1992Z" fill="#1C1B1E"/>
<path fill-rule="evenodd" clip-rule="evenodd" d="M0.714844 3.94922C0.714844 1.87815 2.39378 0.199219 4.46484 0.199219H20.9648C23.0359 0.199219 24.7148 1.87815 24.7148 3.94922V20.4492C24.7148 22.5203 23.0359 24.1992 20.9648 24.1992H4.46484C2.39378 24.1992 0.714844 22.5203 0.714844 20.4492V3.94922ZM17.3649 8.22422C17.8899 8.37422 18.2648 8.74922 18.4148 9.27422C18.7148 10.2492 18.7148 12.1992 18.7148 12.1992C18.7148 12.1992 18.7149 14.1492 18.4899 15.1242C18.3399 15.6492 17.9648 16.0242 17.4398 16.1742C16.4648 16.3992 12.7148 16.3992 12.7148 16.3992C12.7148 16.3992 8.88984 16.3992 7.98984 16.1742C7.46484 16.0242 7.08985 15.6492 6.93985 15.1242C6.71485 14.1492 6.71484 12.1992 6.71484 12.1992C6.71484 12.1992 6.71484 10.2492 6.86484 9.27422C7.01484 8.74922 7.38985 8.37422 7.91485 8.22422C8.88985 7.99922 12.6398 7.99922 12.6398 7.99922C12.6398 7.99922 16.4649 7.99922 17.3649 8.22422Z" fill="#1C1B1E"/>
</svg>
