<svg width="18" height="18" viewBox="0 0 18 18" fill="none" xmlns="http://www.w3.org/2000/svg">
<g id="favorite_border">
<path id="Vector" d="M11.7355 2.75809C10.5087 2.75809 9.33116 3.32921 8.56262 4.23173C7.79407 3.32921 6.61657 2.75809 5.38971 2.75809C3.21804 2.75809 1.51172 4.46441 1.51172 6.63609C1.51172 9.30132 3.90902 11.473 7.54024 14.7728L8.56262 15.6965L9.585 14.7658C13.2162 11.473 15.6135 9.30132 15.6135 6.63609C15.6135 4.46441 13.9072 2.75809 11.7355 2.75809ZM8.63313 13.7222L8.56262 13.7927L8.49211 13.7222C5.13588 10.6833 2.9219 8.67379 2.9219 6.63609C2.9219 5.22591 3.97953 4.16827 5.38971 4.16827C6.47555 4.16827 7.53319 4.86631 7.90688 5.83228H9.2254C9.59205 4.86631 10.6497 4.16827 11.7355 4.16827C13.1457 4.16827 14.2033 5.22591 14.2033 6.63609C14.2033 8.67379 11.9894 10.6833 8.63313 13.7222Z" fill="#48464A"/>
</g>
</svg>
