<svg width="22" height="20" viewBox="0 0 22 20" fill="none" xmlns="http://www.w3.org/2000/svg">
<g id="Group">
<path id="Vector" d="M3.61557 4.20526C4.05396 4.20526 4.47463 4.031 4.78477 3.72082C5.09476 3.41083 5.26903 2.99019 5.26903 2.55163C5.26903 2.11307 5.09477 1.69258 4.78477 1.38244C4.4746 1.07228 4.05396 0.898178 3.6154 0.898178C3.17684 0.898178 2.75635 1.07227 2.44621 1.38244C2.13622 1.6926 1.96194 2.11307 1.96194 2.55163C1.96177 2.99019 2.13587 3.41103 2.44603 3.72117C2.7562 4.03117 3.17684 4.20544 3.61557 4.20526Z" fill="#051F4E"/>
<path id="Vector_2" d="M12.0732 12.923H13.401L10.8399 19.9844H9.50104L12.0732 12.923Z" fill="#051F4E"/>
<path id="Vector_3" d="M14.6378 12.923H15.8544V20.0006H14.6378V12.923Z" fill="#051F4E"/>
<path id="Vector_4" d="M18.42 12.923L20.9923 19.9844H19.6589L17.0922 12.923H18.42Z" fill="#051F4E"/>
<path id="Vector_5" d="M21.0016 -0.000259399V11.9998H18.0905V12.0055H16.7627V11.9998H15.8573V12.0055H14.6405V11.9998H13.7349V12.0055H12.4071V11.9998H9.61824V7.99996H14.0794C14.3336 7.99859 14.5392 7.79296 14.5406 7.53874V5.07775C14.5408 4.95532 14.4923 4.83784 14.4057 4.75121C14.3193 4.66476 14.2018 4.61617 14.0794 4.61651H9.61823V-1.49551e-05L21.0016 -0.000259399Z" fill="#051F4E"/>
<path id="Vector_6" d="M1.61688 12.923H3.15217V19.9984H1.61688V12.923Z" fill="#051F4E"/>
<path id="Vector_7" d="M4.07782 12.923H5.61909V19.9984H4.07782V12.923Z" fill="#051F4E"/>
<path id="Vector_8" d="M13.6136 5.54015H1.76894C1.56467 5.54032 1.36875 5.62165 1.22431 5.76607C1.07989 5.9105 0.998553 6.10642 0.998383 6.31071V12.0024H6.22908V7.53643C6.22891 7.414 6.2775 7.29669 6.36395 7.21024C6.45057 7.12379 6.56788 7.07519 6.69014 7.07519H13.6136L13.6136 5.54015Z" fill="#051F4E"/>
</g>
</svg>
