<svg width="19" height="19" viewBox="0 0 19 19" fill="none" xmlns="http://www.w3.org/2000/svg">
<g id="more_horiz">
<path id="Vector" d="M5 7.92487C4.175 7.92487 3.5 8.59987 3.5 9.42487C3.5 10.2499 4.175 10.9249 5 10.9249C5.825 10.9249 6.5 10.2499 6.5 9.42487C6.5 8.59987 5.825 7.92487 5 7.92487ZM14 7.92487C13.175 7.92487 12.5 8.59987 12.5 9.42487C12.5 10.2499 13.175 10.9249 14 10.9249C14.825 10.9249 15.5 10.2499 15.5 9.42487C15.5 8.59987 14.825 7.92487 14 7.92487ZM9.5 7.92487C8.675 7.92487 8 8.59987 8 9.42487C8 10.2499 8.675 10.9249 9.5 10.9249C10.325 10.9249 11 10.2499 11 9.42487C11 8.59987 10.325 7.92487 9.5 7.92487Z" fill="#48464A"/>
</g>
</svg>
