<svg width="20" height="20" viewBox="0 0 20 20" fill="none" xmlns="http://www.w3.org/2000/svg">
<g id="material-symbols:history">
<path id="Vector" d="M10 17.5002C8.08333 17.5002 6.41306 16.8646 4.98917 15.5935C3.56528 14.3224 2.74944 12.7357 2.54167 10.8335H4.25C4.44444 12.2779 5.08694 13.4724 6.1775 14.4168C7.26806 15.3613 8.54222 15.8335 10 15.8335C11.625 15.8335 13.0036 15.2674 14.1358 14.1352C15.2681 13.0029 15.8339 11.6246 15.8333 10.0002C15.8333 8.37515 15.2672 6.99654 14.135 5.86432C13.0028 4.7321 11.6244 4.16626 10 4.16682C9.04167 4.16682 8.14583 4.38904 7.3125 4.83349C6.47917 5.27793 5.77778 5.88904 5.20833 6.66682H7.5V8.33349H2.5V3.33349H4.16667V5.29182C4.875 4.40293 5.73972 3.71543 6.76083 3.22932C7.78194 2.74321 8.86167 2.50015 10 2.50015C11.0417 2.50015 12.0175 2.69821 12.9275 3.09432C13.8375 3.49043 14.6292 4.02487 15.3025 4.69765C15.9758 5.37154 16.5106 6.16321 16.9067 7.07265C17.3028 7.9821 17.5006 8.95793 17.5 10.0002C17.5 11.0418 17.3019 12.0177 16.9058 12.9277C16.5097 13.8377 15.9753 14.6293 15.3025 15.3027C14.6286 15.976 13.8369 16.5107 12.9275 16.9068C12.0181 17.3029 11.0422 17.5007 10 17.5002ZM12.3333 13.5002L9.16667 10.3335V5.83349H10.8333V9.66682L13.5 12.3335L12.3333 13.5002Z" fill="#6750A4"/>
</g>
</svg>
