<svg width="24" height="25" viewBox="0 0 24 25" fill="none" xmlns="http://www.w3.org/2000/svg">
<g id="settings">
<path id="Vector" d="M19.4322 13.105C19.4722 12.785 19.5022 12.465 19.5022 12.125C19.5022 11.785 19.4722 11.465 19.4322 11.145L21.5422 9.49497C21.7322 9.34497 21.7822 9.07497 21.6622 8.85497L19.6622 5.39497C19.5722 5.23497 19.4022 5.14497 19.2222 5.14497C19.1622 5.14497 19.1022 5.15497 19.0522 5.17497L16.5622 6.17497C16.0422 5.77497 15.4822 5.44497 14.8722 5.19497L14.4922 2.54497C14.4622 2.30497 14.2522 2.12497 14.0022 2.12497H10.0022C9.75216 2.12497 9.54216 2.30497 9.51216 2.54497L9.13216 5.19497C8.52216 5.44497 7.96216 5.78497 7.44216 6.17497L4.95216 5.17497C4.89216 5.15497 4.83216 5.14497 4.77216 5.14497C4.60216 5.14497 4.43216 5.23497 4.34216 5.39497L2.34216 8.85497C2.21216 9.07497 2.27216 9.34497 2.46216 9.49497L4.57216 11.145C4.53216 11.465 4.50216 11.795 4.50216 12.125C4.50216 12.455 4.53216 12.785 4.57216 13.105L2.46216 14.755C2.27216 14.905 2.22216 15.175 2.34216 15.395L4.34216 18.855C4.43216 19.015 4.60216 19.105 4.78216 19.105C4.84216 19.105 4.90216 19.095 4.95216 19.075L7.44216 18.075C7.96216 18.475 8.52216 18.805 9.13216 19.055L9.51216 21.705C9.54216 21.945 9.75216 22.125 10.0022 22.125H14.0022C14.2522 22.125 14.4622 21.945 14.4922 21.705L14.8722 19.055C15.4822 18.805 16.0422 18.465 16.5622 18.075L19.0522 19.075C19.1122 19.095 19.1722 19.105 19.2322 19.105C19.4022 19.105 19.5722 19.015 19.6622 18.855L21.6622 15.395C21.7822 15.175 21.7322 14.905 21.5422 14.755L19.4322 13.105ZM17.4522 11.395C17.4922 11.705 17.5022 11.915 17.5022 12.125C17.5022 12.335 17.4822 12.555 17.4522 12.855L17.3122 13.985L18.2022 14.685L19.2822 15.525L18.5822 16.735L17.3122 16.225L16.2722 15.805L15.3722 16.485C14.9422 16.805 14.5322 17.045 14.1222 17.215L13.0622 17.645L12.9022 18.775L12.7022 20.125H11.3022L10.9522 17.645L9.89216 17.215C9.46216 17.035 9.06216 16.805 8.66216 16.505L7.75216 15.805L6.69216 16.235L5.42216 16.745L4.72216 15.535L5.80216 14.695L6.69216 13.995L6.55216 12.865C6.52216 12.555 6.50216 12.325 6.50216 12.125C6.50216 11.925 6.52216 11.695 6.55216 11.395L6.69216 10.265L5.80216 9.56497L4.72216 8.72497L5.42216 7.51497L6.69216 8.02497L7.73216 8.44497L8.63216 7.76497C9.06216 7.44497 9.47216 7.20497 9.88216 7.03497L10.9422 6.60497L11.1022 5.47497L11.3022 4.12497H12.6922L13.0422 6.60497L14.1022 7.03497C14.5322 7.21497 14.9322 7.44497 15.3322 7.74497L16.2422 8.44497L17.3022 8.01497L18.5722 7.50497L19.2722 8.71497L18.2022 9.56497L17.3122 10.265L17.4522 11.395ZM12.0022 8.12497C9.79216 8.12497 8.00216 9.91497 8.00216 12.125C8.00216 14.335 9.79216 16.125 12.0022 16.125C14.2122 16.125 16.0022 14.335 16.0022 12.125C16.0022 9.91497 14.2122 8.12497 12.0022 8.12497ZM12.0022 14.125C10.9022 14.125 10.0022 13.225 10.0022 12.125C10.0022 11.025 10.9022 10.125 12.0022 10.125C13.1022 10.125 14.0022 11.025 14.0022 12.125C14.0022 13.225 13.1022 14.125 12.0022 14.125Z" fill="black"/>
</g>
</svg>
