<svg width="18" height="18" viewBox="0 0 18 18" fill="none" xmlns="http://www.w3.org/2000/svg">
<g id="share">
<path id="Vector" d="M13.0866 12.1323C12.5507 12.1323 12.0713 12.3438 11.7046 12.6752L6.67733 9.74906C6.71259 9.58689 6.74079 9.42472 6.74079 9.2555C6.74079 9.08628 6.71259 8.92411 6.67733 8.76194L11.6482 5.86402C12.029 6.21656 12.5296 6.43514 13.0866 6.43514C14.2571 6.43514 15.2019 5.49032 15.2019 4.31987C15.2019 3.14942 14.2571 2.2046 13.0866 2.2046C11.9162 2.2046 10.9713 3.14942 10.9713 4.31987C10.9713 4.48909 10.9995 4.65126 11.0348 4.81343L6.06391 7.71135C5.68316 7.35881 5.18254 7.14023 4.62552 7.14023C3.45507 7.14023 2.51025 8.08505 2.51025 9.2555C2.51025 10.4259 3.45507 11.3708 4.62552 11.3708C5.18254 11.3708 5.68316 11.1522 6.06391 10.7996L11.0841 13.7328C11.0489 13.8809 11.0277 14.036 11.0277 14.1911C11.0277 15.3263 11.9514 16.25 13.0866 16.25C14.2218 16.25 15.1455 15.3263 15.1455 14.1911C15.1455 13.0559 14.2218 12.1323 13.0866 12.1323ZM13.0866 3.61478C13.4744 3.61478 13.7917 3.93207 13.7917 4.31987C13.7917 4.70767 13.4744 5.02496 13.0866 5.02496C12.6988 5.02496 12.3815 4.70767 12.3815 4.31987C12.3815 3.93207 12.6988 3.61478 13.0866 3.61478ZM4.62552 9.96059C4.23772 9.96059 3.92043 9.6433 3.92043 9.2555C3.92043 8.8677 4.23772 8.55041 4.62552 8.55041C5.01332 8.55041 5.33061 8.8677 5.33061 9.2555C5.33061 9.6433 5.01332 9.96059 4.62552 9.96059ZM13.0866 14.9103C12.6988 14.9103 12.3815 14.593 12.3815 14.2052C12.3815 13.8174 12.6988 13.5001 13.0866 13.5001C13.4744 13.5001 13.7917 13.8174 13.7917 14.2052C13.7917 14.593 13.4744 14.9103 13.0866 14.9103Z" fill="#48464A"/>
</g>
</svg>
