<svg width="24" height="24" viewBox="0 0 24 24" fill="none" xmlns="http://www.w3.org/2000/svg">
<path fill-rule="evenodd" clip-rule="evenodd" d="M5.05273 5.76316C5.05273 4.84753 5.79499 4.10526 6.71062 4.10526C7.62626 4.10526 8.36852 4.84753 8.36852 5.76316C8.36852 6.67879 7.62626 7.42106 6.71062 7.42106C5.79499 7.42106 5.05273 6.67879 5.05273 5.76316ZM6.71062 3C5.18457 3 3.94746 4.23711 3.94746 5.76316C3.94746 7.28921 5.18457 8.52632 6.71062 8.52632C8.23668 8.52632 9.47379 7.28921 9.47379 5.76316C9.47379 4.23711 8.23668 3 6.71062 3ZM11.6843 7.23685C11.6843 5.91427 12.7565 4.84211 14.0791 4.84211C15.4016 4.84211 16.4738 5.91427 16.4738 7.23685C16.4738 8.55943 15.4016 9.63159 14.0791 9.63159C12.7565 9.63159 11.6843 8.55943 11.6843 7.23685ZM14.0791 3.73684C12.1461 3.73684 10.5791 5.30385 10.5791 7.23685C10.5791 9.16985 12.1461 10.7369 14.0791 10.7369C16.0121 10.7369 17.5791 9.16985 17.5791 7.23685C17.5791 5.30385 16.0121 3.73684 14.0791 3.73684ZM8.00219 17C8.00782 16.4595 8.02828 15.9814 8.10176 15.5505C8.19721 14.9909 8.37626 14.5529 8.69903 14.2018C9.35886 13.484 10.7911 12.9474 14.0791 12.9474C15.6465 12.9474 16.8061 13.0734 17.6644 13.2921C17.9602 13.3674 18.261 13.1888 18.3364 12.893C18.4117 12.5972 18.2331 12.2964 17.9373 12.221C16.9564 11.9711 15.6962 11.8421 14.0791 11.8421C10.7774 11.8421 8.89388 12.3566 7.88531 13.4538C7.37388 14.0102 7.13058 14.6708 7.01223 15.3647C6.89602 16.0461 6.89484 16.7991 6.89484 17.5527C6.89484 17.8579 7.14226 18.1053 7.44747 18.1053H14.068C14.3732 18.1053 14.6206 17.8579 14.6206 17.5527C14.6206 17.2474 14.3732 17 14.068 17H8.00219ZM2.60043 11.5988C2.22157 11.9773 2.13066 12.495 2.11059 13.3158H5.2369C5.54211 13.3158 5.78953 13.5632 5.78953 13.8684C5.78953 14.1736 5.54211 14.4211 5.2369 14.4211H1.55268C1.24747 14.4211 1.00005 14.1736 1.00005 13.8684L1.00002 13.7951C0.999539 12.7824 0.99899 11.6364 1.81928 10.8169C2.64267 9.99434 4.14835 9.63159 6.71058 9.63159C7.79124 9.63159 8.66976 9.69896 9.38329 9.83176C9.68334 9.88761 9.88132 10.1761 9.82547 10.4762C9.76962 10.7762 9.4811 10.9742 9.18104 10.9184C8.55646 10.8021 7.75056 10.7369 6.71058 10.7369C4.14807 10.7369 3.0748 11.1249 2.60043 11.5988ZM19.237 14.7895C19.5422 14.7895 19.7896 15.0369 19.7896 15.3421V17H21.4475C21.7527 17 22.0001 17.2474 22.0001 17.5527C22.0001 17.8579 21.7527 18.1053 21.4475 18.1053H19.7896V19.7632C19.7896 20.0684 19.5422 20.3158 19.237 20.3158C18.9317 20.3158 18.6843 20.0684 18.6843 19.7632V18.1053H17.0264C16.7212 18.1053 16.4738 17.8579 16.4738 17.5527C16.4738 17.2474 16.7212 17 17.0264 17H18.6843V15.3421C18.6843 15.0369 18.9317 14.7895 19.237 14.7895Z" fill="#051F4E"/>
</svg>
