<svg width="15" height="15" viewBox="0 0 15 15" fill="none" xmlns="http://www.w3.org/2000/svg">
<rect width="15" height="15" rx="7.5" transform="matrix(-1 0 0 1 15 0)" fill="#FE80FE"/>
<path d="M9.00415 10.2038V5.97048C9.00415 5.80381 8.95415 5.64131 8.86248 5.50381L7.72498 3.81214C7.54581 3.54131 7.09998 3.34964 6.72081 3.49131C6.31248 3.62881 6.04165 4.08714 6.12915 4.49548L6.34581 5.85798C6.36248 5.98298 6.32915 6.09548 6.25831 6.18298C6.18748 6.26214 6.08331 6.31214 5.97081 6.31214H4.25831C3.92915 6.31214 3.64581 6.44548 3.47915 6.67881C3.32081 6.90381 3.29165 7.19548 3.39581 7.49131L4.42081 10.6121C4.54998 11.1288 5.11248 11.5496 5.67081 11.5496H7.29581C7.57498 11.5496 7.96665 11.4538 8.14581 11.2746L8.67915 10.8621C8.88331 10.708 9.00415 10.4621 9.00415 10.2038Z" fill="white"/>
<path d="M10.3291 5.1582H10.7583C11.4041 5.1582 11.6666 5.4082 11.6666 6.02487V10.2165C11.6666 10.8332 11.4041 11.0832 10.7583 11.0832H10.3291C9.68332 11.0832 9.42082 10.8332 9.42082 10.2165V6.02487C9.42082 5.4082 9.68332 5.1582 10.3291 5.1582Z" fill="white"/>
</svg>
