<svg width="24" height="24" viewBox="0 0 24 24" fill="none" xmlns="http://www.w3.org/2000/svg">
<path fill-rule="evenodd" clip-rule="evenodd" d="M5.53999 19.5196C4.92999 19.5196 4.35999 19.3096 3.94999 18.9196C3.42999 18.4296 3.17999 17.6896 3.26999 16.8896L3.63999 13.6496C3.70999 13.0396 4.07999 12.2296 4.50999 11.7896L11.3511 4.54847C11.3566 4.54247 11.3622 4.53656 11.3679 4.53074L12.72 3.09956C14.77 0.929561 16.91 0.869561 19.08 2.91956C21.25 4.96956 21.31 7.10956 19.26 9.27956L11.05 17.9696C10.63 18.4196 9.84999 18.8396 9.23999 18.9396L6.01999 19.4896C5.95895 19.4932 5.9005 19.498 5.84324 19.5028C5.74099 19.5113 5.64254 19.5196 5.53999 19.5196ZM5.59999 12.8096L11.5183 6.53808C12.2578 8.5072 13.8654 10.0291 15.8705 10.6629L9.94999 16.9296C9.74999 17.1396 9.26999 17.3996 8.97999 17.4496L5.75999 17.9996C5.42999 18.0496 5.15999 17.9896 4.97999 17.8196C4.79999 17.6496 4.71999 17.3796 4.75999 17.0496L5.12999 13.8096C5.16999 13.5196 5.39999 13.0196 5.59999 12.8096ZM18.16 8.23956L17.0546 9.40962C14.9015 9.04428 13.1853 7.40597 12.7128 5.27226L13.81 4.10956C14.49 3.38956 15.16 2.90956 15.93 2.90956C16.55 2.90956 17.24 3.22956 18.04 3.99956C19.85 5.69956 19.4 6.91956 18.16 8.23956ZM3 22.75H21C21.41 22.75 21.75 22.41 21.75 22C21.75 21.59 21.41 21.25 21 21.25H3C2.59 21.25 2.25 21.59 2.25 22C2.25 22.41 2.59 22.75 3 22.75Z" fill="#051F4E"/>
</svg>
