<svg width="48" height="46" viewBox="0 0 48 46" fill="none" xmlns="http://www.w3.org/2000/svg">
<path d="M47.3056 17.5436C47.1984 17.213 47.0013 16.9186 46.7364 16.6934C46.4715 16.4683 46.1493 16.3212 45.8056 16.2686L31.8931 14.2436L25.6869 1.64364C25.5333 1.32664 25.2936 1.05929 24.9952 0.87222C24.6967 0.685154 24.3516 0.585938 23.9994 0.585938C23.6472 0.585938 23.302 0.685154 23.0036 0.87222C22.7051 1.05929 22.4654 1.32664 22.3119 1.64364L16.1056 14.2436L2.19313 16.2686C1.84949 16.3212 1.52722 16.4683 1.26234 16.6934C0.997455 16.9186 0.800382 17.213 0.693134 17.5436C0.593656 17.8693 0.584729 18.2159 0.667311 18.5462C0.749893 18.8765 0.920867 19.1781 1.16188 19.4186L11.2119 29.2249L8.84938 43.1186C8.79222 43.4626 8.83213 43.8158 8.9646 44.1383C9.09708 44.4609 9.31688 44.7401 9.59932 44.9446C9.88175 45.1492 10.2156 45.2709 10.5634 45.2961C10.9112 45.3213 11.2591 45.249 11.5681 45.0874L23.9994 38.5624L36.4306 45.0874C36.7015 45.2336 37.0041 45.3109 37.3119 45.3124C37.7026 45.3099 38.0829 45.1853 38.3994 44.9561C38.6903 44.7478 38.9155 44.4605 39.0484 44.1282C39.1813 43.796 39.2163 43.4327 39.1494 43.0811L36.7869 29.2436L46.8369 19.4374C47.0813 19.1951 47.2543 18.8903 47.3369 18.5563C47.4196 18.2223 47.4088 17.8719 47.3056 17.5436Z" fill="#A8D5FF"/>
<path d="M31.5792 14.3983L31.6605 14.5635L31.8427 14.59L45.7527 16.6146C45.7531 16.6147 45.7535 16.6147 45.7539 16.6148C46.0329 16.6577 46.2946 16.7773 46.5097 16.9601C46.7248 17.1429 46.8849 17.3818 46.9722 17.6502C47.0557 17.9167 47.0643 18.2011 46.9972 18.4722C46.9301 18.7434 46.7897 18.991 46.5914 19.1879C46.5911 19.1882 46.5908 19.1885 46.5905 19.1888L36.5424 28.9931L36.411 29.1214L36.4419 29.3025L38.8044 43.14L38.8043 43.1401L38.8056 43.1466C38.86 43.4325 38.8315 43.728 38.7234 43.9983C38.6153 44.2685 38.4322 44.5021 38.1956 44.6716L38.1941 44.6727C37.9372 44.8586 37.6288 44.9599 37.3117 44.9624C37.062 44.9608 36.8166 44.898 36.5969 44.7794L36.5933 44.7775L24.162 38.2525L23.9994 38.1671L23.8367 38.2525L11.4059 44.7773C11.4059 44.7773 11.4058 44.7773 11.4058 44.7773C11.1545 44.9087 10.8716 44.9675 10.5887 44.947C10.3059 44.9265 10.0343 44.8275 9.80459 44.6612L9.59932 44.9446L9.80459 44.6612C9.57488 44.4948 9.39611 44.2677 9.28836 44.0053C9.18067 43.7431 9.1482 43.4561 9.19457 43.1765C9.1946 43.1763 9.19462 43.1762 9.19465 43.176L11.5569 29.2836L11.5877 29.1026L11.4563 28.9744L1.40911 19.1709C1.40867 19.1705 1.40822 19.17 1.40777 19.1696C1.21245 18.9742 1.07387 18.7294 1.00686 18.4613C0.939936 18.1936 0.946903 17.9128 1.02699 17.6488C1.11442 17.381 1.27434 17.1426 1.48902 16.9601C1.70414 16.7773 1.96581 16.6577 2.24485 16.6148C2.24525 16.6147 2.24566 16.6147 2.24606 16.6146L16.156 14.59L16.3383 14.5635L16.4196 14.3983L22.6259 1.7983L22.6269 1.79621C22.7518 1.53837 22.9467 1.32093 23.1895 1.16878C23.4322 1.01663 23.7129 0.935937 23.9994 0.935937C24.2859 0.935937 24.5666 1.01663 24.8093 1.16878C25.052 1.32093 25.247 1.53837 25.3719 1.79621L25.3729 1.7983L31.5792 14.3983ZM33.2435 28.1418C33.3176 27.9089 33.4466 27.6973 33.6195 27.5248C33.6201 27.5242 33.6206 27.5236 33.6212 27.523L41.7362 19.6892L42.2497 19.1935L41.5434 19.091L30.4264 17.4788C30.4261 17.4787 30.4257 17.4787 30.4254 17.4786C30.1814 17.4418 29.95 17.3464 29.7511 17.2005C29.5518 17.0544 29.3911 16.862 29.2826 16.64L29.282 16.6388L24.3132 6.57001L23.9994 5.93399L23.6855 6.57001L18.7168 16.6388L18.7161 16.64C18.6077 16.862 18.447 17.0544 18.2477 17.2005C18.0487 17.3464 17.8173 17.4418 17.5733 17.4786C17.573 17.4787 17.5727 17.4787 17.5724 17.4788L6.4554 19.091L5.75933 19.192L6.25962 19.6863L14.19 27.523C14.1902 27.5232 14.1903 27.5233 14.1905 27.5235C14.3641 27.6963 14.4935 27.9084 14.5677 28.1418C14.6421 28.3754 14.659 28.6235 14.617 28.865L14.6168 28.8665L12.7418 39.9478L12.6237 40.6455L13.2499 40.3158L23.1833 35.0868C23.4081 34.9763 23.6552 34.9188 23.9056 34.9188C24.1561 34.9188 24.4032 34.9763 24.6279 35.0868L34.5613 40.3158L35.1875 40.6455L35.0695 39.9478L33.1945 28.8665L33.1942 28.865C33.1523 28.6235 33.1692 28.3754 33.2435 28.1418Z" fill="#3182CC" stroke="#FEFEFE" stroke-width="0.7"/>
<path d="M23.9988 14.8984L20.9051 21.1234L13.9863 22.1172L18.9926 27.0109L17.8113 33.8922L23.9988 30.7047L30.1863 33.9484L29.0051 27.0672L34.0113 22.1734L27.0926 21.1234L23.9988 14.8984ZM25.2176 27.1047L23.9988 26.4672L22.7801 27.1047L23.0238 25.7547L22.1238 24.8734L23.4738 24.6672L23.9988 23.3734L24.5988 24.5922L25.8738 24.8734L24.8988 25.8297L25.2176 27.1047Z" fill="#FEFEFE"/>
</svg>
