<svg width="168" height="305" viewBox="0 0 168 305" fill="none" xmlns="http://www.w3.org/2000/svg">
<g filter="url(#filter0_d_2398_12931)">
<circle cx="68" cy="150" r="6" fill="#0F6BBF"/>
</g>
<g filter="url(#filter1_d_2398_12931)">
<path d="M158 9H78.5525C74.7217 9.33217 67.26 13.1854 68.0594 25.9408C68.8589 38.6962 68.3926 115.295 68.0594 152" stroke="#0F6BBF" stroke-width="1.5"/>
</g>
<path d="M126.534 184.537V277.205C126.534 279.989 125.434 282.671 123.457 284.648L111.596 296.508C109.619 298.485 106.955 299.585 104.153 299.585H75.4126H11.5199C5.70988 299.585 1 294.875 1 289.065V196.381C1 193.596 2.10012 190.914 4.07689 188.938L15.9375 177.077C17.9143 175.1 20.5787 174 23.3805 174H116.014C121.824 174.017 126.534 178.727 126.534 184.537Z" fill="url(#paint0_linear_2398_12931)" fill-opacity="0.5" stroke="url(#paint1_linear_2398_12931)" stroke-width="0.75" stroke-miterlimit="10"/>
<path d="M57.003 296.113H18.2582V304.003H57.003V296.113Z" fill="url(#paint2_linear_2398_12931)"/>
<path d="M129.576 193.115H123.01V255.134H129.576V193.115Z" fill="url(#paint3_linear_2398_12931)"/>
<path d="M96.7359 268.325L92.6234 257.628C92.309 256.806 91.7992 256.072 91.138 255.491C90.4767 254.91 89.684 254.499 88.8281 254.292C89.1672 251.689 89.8563 244.328 88.0188 238.367C86.8813 234.703 83.0859 233.03 79.3125 232.286V209.656C79.312 208.206 78.7356 206.815 77.7102 205.79C76.6847 204.764 75.294 204.188 73.8438 204.188H36.6563C35.206 204.188 33.8153 204.764 32.7898 205.79C31.7644 206.815 31.188 208.206 31.1875 209.656V247.008C31.1866 248.017 31.4651 249.006 31.9922 249.867C32.5192 250.727 33.2742 251.425 34.1735 251.882C35.0728 252.34 36.0813 252.54 37.0871 252.459C38.0929 252.379 39.0568 252.021 39.8719 251.427L49.825 244.186C50.3844 243.779 51.0585 243.561 51.75 243.562H65.8484C64.7678 245.199 64.3785 247.196 64.7656 249.119C65.6188 253.22 69.9172 256.272 72.5531 257.792C71.6977 258.419 71.0427 259.281 70.668 260.273C70.2932 261.266 70.2148 262.345 70.4422 263.381L71.6781 268.959C71.7357 269.201 71.8726 269.416 72.0669 269.571C72.2612 269.726 72.5017 269.811 72.75 269.812H95.7188C95.8954 269.814 96.0696 269.772 96.226 269.69C96.3824 269.607 96.5162 269.488 96.6156 269.342C96.7174 269.195 96.7816 269.026 96.8026 268.849C96.8236 268.671 96.8007 268.491 96.7359 268.325V268.325ZM69.4688 212.938H70.5625C70.8526 212.938 71.1308 213.053 71.3359 213.258C71.541 213.463 71.6563 213.741 71.6563 214.031C71.6563 214.321 71.541 214.6 71.3359 214.805C71.1308 215.01 70.8526 215.125 70.5625 215.125H69.4688C69.1787 215.125 68.9005 215.01 68.6954 214.805C68.4902 214.6 68.375 214.321 68.375 214.031C68.375 213.741 68.4902 213.463 68.6954 213.258C68.9005 213.053 69.1787 212.938 69.4688 212.938ZM49.8031 212.938H65.0938C65.3838 212.938 65.662 213.053 65.8672 213.258C66.0723 213.463 66.1875 213.741 66.1875 214.031C66.1875 214.321 66.0723 214.6 65.8672 214.805C65.662 215.01 65.3838 215.125 65.0938 215.125H49.8031C49.513 215.125 49.2348 215.01 49.0297 214.805C48.8246 214.6 48.7094 214.321 48.7094 214.031C48.7094 213.741 48.8246 213.463 49.0297 213.258C49.2348 213.053 49.513 212.938 49.8031 212.938ZM54.1563 220.594C54.1554 220.884 54.0399 221.161 53.835 221.366C53.63 221.571 53.3523 221.687 53.0625 221.688H46.5C46.2099 221.688 45.9317 221.572 45.7266 221.367C45.5215 221.162 45.4063 220.884 45.4063 220.594C45.4063 220.304 45.5215 220.025 45.7266 219.82C45.9317 219.615 46.2099 219.5 46.5 219.5H53.0625C53.3523 219.501 53.63 219.616 53.835 219.821C54.0399 220.026 54.1554 220.304 54.1563 220.594V220.594ZM41.0313 212.938H45.4063C45.6963 212.938 45.9745 213.053 46.1796 213.258C46.3848 213.463 46.5 213.741 46.5 214.031C46.5 214.321 46.3848 214.6 46.1796 214.805C45.9745 215.01 45.6963 215.125 45.4063 215.125H41.0313C40.7412 215.125 40.463 215.01 40.2579 214.805C40.0527 214.6 39.9375 214.321 39.9375 214.031C39.9375 213.741 40.0527 213.463 40.2579 213.258C40.463 213.053 40.7412 212.938 41.0313 212.938V212.938ZM41.0313 219.5H42.125C42.4151 219.5 42.6933 219.615 42.8984 219.82C43.1035 220.025 43.2188 220.304 43.2188 220.594C43.2188 220.884 43.1035 221.162 42.8984 221.367C42.6933 221.572 42.4151 221.688 42.125 221.688H41.0313C40.7412 221.688 40.463 221.572 40.2579 221.367C40.0527 221.162 39.9375 220.884 39.9375 220.594C39.9375 220.304 40.0527 220.025 40.2579 219.82C40.463 219.615 40.7412 219.5 41.0313 219.5V219.5ZM47.5938 234.812H41.0313C40.7412 234.812 40.463 234.697 40.2579 234.492C40.0527 234.287 39.9375 234.009 39.9375 233.719C39.9375 233.429 40.0527 233.15 40.2579 232.945C40.463 232.74 40.7412 232.625 41.0313 232.625H47.5938C47.8838 232.625 48.162 232.74 48.3672 232.945C48.5723 233.15 48.6875 233.429 48.6875 233.719C48.6875 234.009 48.5723 234.287 48.3672 234.492C48.162 234.697 47.8838 234.812 47.5938 234.812ZM41.0313 228.25C40.7412 228.25 40.463 228.135 40.2579 227.93C40.0527 227.725 39.9375 227.446 39.9375 227.156C39.9375 226.866 40.0527 226.588 40.2579 226.383C40.463 226.178 40.7412 226.062 41.0313 226.062H54.1563C54.4463 226.062 54.7245 226.178 54.9297 226.383C55.1348 226.588 55.25 226.866 55.25 227.156C55.25 227.446 55.1348 227.725 54.9297 227.93C54.7245 228.135 54.4463 228.25 54.1563 228.25H41.0313ZM56.3438 234.812H51.9688C51.6787 234.812 51.4005 234.697 51.1954 234.492C50.9902 234.287 50.875 234.009 50.875 233.719C50.875 233.429 50.9902 233.15 51.1954 232.945C51.4005 232.74 51.6787 232.625 51.9688 232.625H56.3438C56.6338 232.625 56.912 232.74 57.1172 232.945C57.3223 233.15 57.4375 233.429 57.4375 233.719C57.4375 234.009 57.3223 234.287 57.1172 234.492C56.912 234.697 56.6338 234.812 56.3438 234.812ZM56.3438 220.594C56.3446 220.304 56.4601 220.026 56.665 219.821C56.87 219.616 57.1477 219.501 57.4375 219.5H70.5625C70.8526 219.5 71.1308 219.615 71.3359 219.82C71.541 220.025 71.6563 220.304 71.6563 220.594C71.6563 220.884 71.541 221.162 71.3359 221.367C71.1308 221.572 70.8526 221.688 70.5625 221.688H57.4375C57.1477 221.687 56.87 221.571 56.665 221.366C56.4601 221.161 56.3446 220.884 56.3438 220.594ZM86.6406 254.183L81.3688 255.353L75.2 256.72C73.7563 256.02 67.7844 252.87 66.8984 248.67C66.5156 246.844 67.1609 245.061 68.8453 243.202C69.0088 243.025 69.1093 242.8 69.1311 242.56C69.1528 242.321 69.0947 242.081 68.9656 241.878L60.2156 228.327C60.0525 228.079 59.9421 227.801 59.8913 227.51C59.8404 227.218 59.8503 226.919 59.9203 226.631C59.9865 226.344 60.1097 226.073 60.2825 225.835C60.4554 225.596 60.6744 225.395 60.9266 225.242C61.2715 225.039 61.6637 224.93 62.0641 224.925C62.4051 224.926 62.7412 225.005 63.0466 225.157C63.352 225.309 63.6183 225.529 63.825 225.8L69.6875 233.566C69.7987 233.716 69.9466 233.835 70.117 233.912C70.2875 233.988 70.4748 234.02 70.6609 234.003C74.3688 233.675 84.3438 233.927 85.9188 239.013C87.6688 244.634 86.9359 251.886 86.6406 254.183Z" fill="url(#paint4_linear_2398_12931)"/>
<defs>
<filter id="filter0_d_2398_12931" x="52" y="136" width="32" height="32" filterUnits="userSpaceOnUse" color-interpolation-filters="sRGB">
<feFlood flood-opacity="0" result="BackgroundImageFix"/>
<feColorMatrix in="SourceAlpha" type="matrix" values="0 0 0 0 0 0 0 0 0 0 0 0 0 0 0 0 0 0 127 0" result="hardAlpha"/>
<feOffset dy="2"/>
<feGaussianBlur stdDeviation="5"/>
<feComposite in2="hardAlpha" operator="out"/>
<feColorMatrix type="matrix" values="0 0 0 0 0.203351 0 0 0 0 0.489538 0 0 0 0 0.920833 0 0 0 0.72 0"/>
<feBlend mode="normal" in2="BackgroundImageFix" result="effect1_dropShadow_2398_12931"/>
<feBlend mode="normal" in="SourceGraphic" in2="effect1_dropShadow_2398_12931" result="shape"/>
</filter>
<filter id="filter1_d_2398_12931" x="57.2501" y="0.25" width="110.75" height="163.756" filterUnits="userSpaceOnUse" color-interpolation-filters="sRGB">
<feFlood flood-opacity="0" result="BackgroundImageFix"/>
<feColorMatrix in="SourceAlpha" type="matrix" values="0 0 0 0 0 0 0 0 0 0 0 0 0 0 0 0 0 0 127 0" result="hardAlpha"/>
<feOffset dy="2"/>
<feGaussianBlur stdDeviation="5"/>
<feComposite in2="hardAlpha" operator="out"/>
<feColorMatrix type="matrix" values="0 0 0 0 0 0 0 0 0 0.522727 0 0 0 0 1 0 0 0 0.61 0"/>
<feBlend mode="normal" in2="BackgroundImageFix" result="effect1_dropShadow_2398_12931"/>
<feBlend mode="normal" in="SourceGraphic" in2="effect1_dropShadow_2398_12931" result="shape"/>
</filter>
<linearGradient id="paint0_linear_2398_12931" x1="63.7655" y1="174.013" x2="63.7655" y2="299.566" gradientUnits="userSpaceOnUse">
<stop stop-color="#0085FF"/>
<stop offset="1" stop-color="#DBEEFF" stop-opacity="0.35"/>
</linearGradient>
<linearGradient id="paint1_linear_2398_12931" x1="63.7668" y1="174" x2="63.7668" y2="299.585" gradientUnits="userSpaceOnUse">
<stop stop-color="#00A3FF"/>
<stop offset="1" stop-color="#00C2FF"/>
</linearGradient>
<linearGradient id="paint2_linear_2398_12931" x1="37.632" y1="295.236" x2="37.632" y2="306.666" gradientUnits="userSpaceOnUse">
<stop stop-color="#0085FF"/>
<stop offset="1" stop-color="#00BBF9"/>
</linearGradient>
<linearGradient id="paint3_linear_2398_12931" x1="126.301" y1="192.669" x2="126.301" y2="260.171" gradientUnits="userSpaceOnUse">
<stop stop-color="#0F6BBF"/>
<stop offset="1" stop-color="#ACFAFF"/>
</linearGradient>
<linearGradient id="paint4_linear_2398_12931" x1="63.9988" y1="204.188" x2="63.9988" y2="269.813" gradientUnits="userSpaceOnUse">
<stop stop-color="#00A8FA"/>
<stop offset="1" stop-color="#173E87"/>
</linearGradient>
</defs>
</svg>
