<svg width="165" height="305" viewBox="0 0 165 305" fill="none" xmlns="http://www.w3.org/2000/svg">
<g filter="url(#filter0_d_2398_12934)">
<circle cx="100" cy="150" r="6" fill="#0F6BBF"/>
</g>
<g filter="url(#filter1_d_2398_12934)">
<path d="M10 9L89.4475 9C93.2783 9.33217 100.74 13.1854 99.9406 25.9408C99.1411 38.6962 99.6074 115.295 99.9406 152" stroke="#0F6BBF" stroke-width="1.5"/>
</g>
<path d="M161.534 184.537V277.205C161.534 279.989 160.434 282.671 158.457 284.648L146.596 296.508C144.619 298.485 141.955 299.585 139.153 299.585H110.413H46.5199C40.7099 299.585 36 294.875 36 289.065V196.381C36 193.596 37.1001 190.914 39.0769 188.938L50.9375 177.077C52.9143 175.1 55.5787 174 58.3805 174H151.014C156.824 174.017 161.534 178.727 161.534 184.537Z" fill="url(#paint0_linear_2398_12934)" fill-opacity="0.5" stroke="url(#paint1_linear_2398_12934)" stroke-width="0.75" stroke-miterlimit="10"/>
<path d="M92.003 296.113H53.2582V304.003H92.003V296.113Z" fill="url(#paint2_linear_2398_12934)"/>
<path d="M164.576 193.115H158.01V255.134H164.576V193.115Z" fill="url(#paint3_linear_2398_12934)"/>
<path d="M100.003 231.475C98.9106 231.476 97.8436 231.802 96.9365 232.41C96.0294 233.018 95.3229 233.881 94.9063 234.891C94.4897 235.9 94.3817 237.011 94.5959 238.081C94.8101 239.152 95.3369 240.135 96.1097 240.907C96.8825 241.679 97.8667 242.204 98.9379 242.416C100.009 242.628 101.119 242.518 102.128 242.1C103.137 241.682 103.999 240.974 104.605 240.066C105.212 239.158 105.535 238.09 105.535 236.998C105.533 235.532 104.948 234.128 103.911 233.092C102.874 232.057 101.468 231.475 100.003 231.475Z" fill="url(#paint4_linear_2398_12934)"/>
<path d="M108.736 235.133C108.507 234.072 108.081 233.063 107.48 232.16C107.366 231.988 107.31 231.785 107.321 231.58C107.332 231.374 107.409 231.178 107.54 231.019L108.704 229.616L107.401 228.301L106.005 229.461C105.849 229.591 105.655 229.668 105.452 229.681C105.25 229.694 105.048 229.642 104.877 229.532C103.965 228.937 102.953 228.513 101.89 228.28C101.692 228.24 101.512 228.138 101.377 227.988C101.241 227.839 101.157 227.649 101.137 227.448L100.96 225.652H99.0703L98.8939 227.448C98.8735 227.648 98.7893 227.835 98.6538 227.982C98.5183 228.13 98.3388 228.23 98.142 228.267C97.08 228.494 96.0702 228.919 95.1648 229.519C94.9935 229.632 94.7903 229.687 94.5852 229.676C94.3801 229.665 94.1841 229.589 94.0259 229.457L92.6258 228.295L91.3006 229.619L92.4627 231.018C92.5935 231.175 92.6707 231.37 92.683 231.573C92.6953 231.777 92.6421 231.98 92.5311 232.151C91.9364 233.062 91.5111 234.074 91.2757 235.136C91.235 235.332 91.1327 235.51 90.9838 235.644C90.835 235.778 90.6472 235.861 90.4479 235.881L88.6523 236.058V237.942L90.4494 238.118C90.6477 238.139 90.8342 238.223 90.9809 238.358C91.1277 238.493 91.227 238.671 91.2639 238.867C91.4932 239.928 91.9194 240.937 92.5204 241.84C92.6343 242.012 92.6899 242.215 92.6791 242.42C92.6683 242.626 92.5915 242.822 92.4602 242.981L91.2999 244.38L92.6261 245.702L94.0269 244.539C94.183 244.409 94.3764 244.332 94.5793 244.319C94.7821 244.306 94.9838 244.358 95.1551 244.468C96.0664 245.063 97.0782 245.487 98.1413 245.72C98.3393 245.76 98.5194 245.862 98.655 246.012C98.7906 246.161 98.8746 246.351 98.8946 246.552L99.0703 248.348H100.96L101.136 246.552C101.157 246.352 101.241 246.165 101.376 246.018C101.512 245.87 101.691 245.77 101.888 245.733C102.95 245.506 103.96 245.081 104.865 244.481C105.037 244.368 105.24 244.313 105.445 244.324C105.65 244.335 105.846 244.411 106.004 244.542L107.404 245.705L108.729 244.381L107.567 242.982C107.437 242.825 107.359 242.63 107.347 242.427C107.335 242.223 107.388 242.02 107.499 241.849C108.094 240.938 108.519 239.926 108.754 238.864C108.795 238.668 108.897 238.49 109.046 238.356C109.194 238.222 109.382 238.139 109.581 238.119L111.348 237.943V236.058L109.551 235.882C109.352 235.861 109.166 235.777 109.019 235.642C108.872 235.507 108.773 235.329 108.736 235.133ZM100.003 244.438C98.532 244.436 97.095 243.998 95.8731 243.179C94.6513 242.361 93.6995 241.199 93.138 239.84C92.5765 238.48 92.4306 236.985 92.7186 235.543C93.0066 234.101 93.7157 232.777 94.7563 231.738C95.7968 230.698 97.122 229.991 98.5645 229.705C100.007 229.419 101.502 229.566 102.86 230.13C104.219 230.693 105.38 231.646 106.197 232.869C107.014 234.092 107.45 235.529 107.45 237C107.446 238.973 106.66 240.864 105.264 242.258C103.868 243.653 101.976 244.436 100.003 244.438Z" fill="url(#paint5_linear_2398_12934)"/>
<path d="M126.034 237.955C126.266 238.804 126.798 239.539 127.531 240.024C128.263 240.51 129.148 240.713 130.019 240.597C130.89 240.48 131.69 240.05 132.268 239.389C132.847 238.727 133.166 237.878 133.166 236.998C133.166 236.119 132.847 235.27 132.268 234.608C131.69 233.947 130.89 233.517 130.019 233.4C129.148 233.283 128.263 233.487 127.531 233.972C126.798 234.458 126.266 235.193 126.034 236.041H119.899C119.838 234.75 119.648 233.467 119.33 232.213H123.116C123.372 232.204 123.615 232.095 123.792 231.909C123.969 231.723 124.066 231.475 124.062 231.218V227.291H125.435C125.609 227.899 125.928 228.454 126.366 228.909C126.697 229.247 127.092 229.515 127.528 229.698C127.963 229.882 128.431 229.976 128.904 229.977C129.376 229.978 129.845 229.885 130.281 229.703C130.717 229.521 131.113 229.255 131.445 228.918V228.92C132.949 227.506 132.882 225.207 131.469 223.794C131.134 223.457 130.736 223.189 130.298 223.007C129.859 222.824 129.389 222.729 128.914 222.728C128.439 222.727 127.968 222.82 127.529 223C127.09 223.181 126.691 223.447 126.354 223.783C125.921 224.23 125.605 224.778 125.435 225.377H123.116C122.859 225.382 122.613 225.487 122.433 225.671C122.252 225.854 122.15 226.1 122.148 226.358V230.299H118.748C117.745 227.475 116.115 224.914 113.981 222.809C111.847 220.704 109.264 219.109 106.426 218.144V214.85H110.641C110.898 214.849 111.145 214.747 111.328 214.566C111.511 214.385 111.616 214.14 111.621 213.883V211.564C112.221 211.389 112.769 211.069 113.216 210.632C113.553 210.295 113.819 209.895 114.001 209.455C114.183 209.014 114.277 208.542 114.276 208.066C114.276 207.589 114.182 207.118 113.999 206.678C113.816 206.238 113.549 205.838 113.212 205.501C112.874 205.165 112.474 204.898 112.034 204.716C111.594 204.534 111.122 204.44 110.645 204.441C110.169 204.441 109.697 204.535 109.257 204.718C108.817 204.901 108.417 205.168 108.08 205.505C107.744 205.84 107.476 206.237 107.294 206.676C107.111 207.114 107.017 207.584 107.017 208.058C107.017 208.533 107.11 209.003 107.292 209.441C107.475 209.879 107.742 210.277 108.078 210.612H108.089C108.551 211.159 109.16 211.404 109.707 211.564V212.936H105.479C105.225 212.933 104.981 213.031 104.799 213.209C104.618 213.387 104.514 213.629 104.512 213.883V217.594C103.345 217.318 102.155 217.152 100.957 217.1V210.964C101.805 210.732 102.54 210.201 103.026 209.468C103.512 208.735 103.715 207.851 103.598 206.98C103.481 206.108 103.052 205.309 102.39 204.73C101.728 204.151 100.879 203.832 100 203.832C99.1208 203.832 98.2715 204.151 97.6098 204.73C96.948 205.309 96.5189 206.108 96.4019 206.98C96.285 207.851 96.4883 208.735 96.974 209.468C97.4597 210.201 98.1949 210.732 99.0429 210.964V217.1C97.7511 217.16 96.4686 217.351 95.2148 217.668V213.883C95.2057 213.626 95.0964 213.383 94.9104 213.206C94.7243 213.029 94.4764 212.932 94.2196 212.936H90.2929V211.564C90.9001 211.39 91.4555 211.07 91.9109 210.632C92.2483 210.301 92.5165 209.907 92.6999 209.471C92.8833 209.035 92.9781 208.567 92.979 208.095C92.9798 207.622 92.8866 207.154 92.7048 206.717C92.523 206.281 92.2562 205.885 91.9199 205.553H91.9215C90.5081 204.049 88.2094 204.116 86.7954 205.529C86.4586 205.864 86.1911 206.262 86.0083 206.701C85.8254 207.139 85.7307 207.61 85.7297 208.085C85.7287 208.56 85.8213 209.03 86.0022 209.469C86.1831 209.909 86.4489 210.308 86.7842 210.644C87.2317 211.078 87.7796 211.394 88.3789 211.564V213.883C88.3837 214.14 88.489 214.385 88.6721 214.566C88.8553 214.747 89.1018 214.849 89.3592 214.85H93.3008V218.25C90.4762 219.254 87.9154 220.884 85.8102 223.018C83.7051 225.152 82.1102 227.735 81.1451 230.573H77.8515V226.358C77.8501 226.1 77.7481 225.854 77.5673 225.671C77.3866 225.487 77.1414 225.382 76.8841 225.377H74.5652C74.3906 224.777 74.0707 224.23 73.6339 223.783C72.952 223.107 72.0302 222.729 71.0704 222.732C70.1106 222.735 69.191 223.118 68.5129 223.797C67.8348 224.476 67.4534 225.397 67.4523 226.356C67.4512 227.316 67.8304 228.237 68.507 228.918C68.8413 229.255 69.239 229.522 69.6771 229.705C70.1152 229.887 70.5851 229.981 71.0597 229.982C71.5342 229.982 72.0042 229.888 72.4424 229.706C72.8807 229.524 73.2786 229.257 73.6133 228.92V228.909C74.1601 228.448 74.4051 227.838 74.5654 227.291H75.9375V231.52C75.9348 231.773 76.033 232.018 76.2105 232.199C76.388 232.381 76.6303 232.484 76.8841 232.487H80.5958C80.3194 233.653 80.1538 234.844 80.1012 236.041H73.9657C73.7339 235.193 73.2023 234.458 72.4694 233.972C71.7366 233.487 70.8524 233.283 69.981 233.4C69.1097 233.517 68.3103 233.947 67.7315 234.608C67.1526 235.27 66.8336 236.119 66.8336 236.998C66.8336 237.878 67.1526 238.727 67.7315 239.389C68.3103 240.05 69.1097 240.48 69.981 240.597C70.8524 240.713 71.7366 240.51 72.4694 240.024C73.2023 239.539 73.7339 238.804 73.9657 237.955H80.1012C80.1619 239.247 80.3523 240.53 80.6696 241.784H76.8841C76.6275 241.793 76.3847 241.902 76.2078 242.088C76.0308 242.274 75.9338 242.522 75.9375 242.779V246.705H74.5654C74.3912 246.098 74.0715 245.543 73.6339 245.088C73.3029 244.75 72.908 244.482 72.4723 244.299C72.0366 244.115 71.5689 244.02 71.0962 244.02C70.6235 244.019 70.1554 244.112 69.7191 244.294C69.2827 244.476 68.8869 244.742 68.5547 245.079V245.077C67.0508 246.49 67.1175 248.79 68.5309 250.203C69.2082 250.88 70.1258 251.261 71.0831 251.263C72.0405 251.265 72.9598 250.888 73.6399 250.214C74.075 249.767 74.3929 249.219 74.5652 248.62H76.8841C77.1414 248.615 77.3866 248.509 77.5673 248.326C77.7481 248.143 77.8501 247.897 77.8515 247.639V243.698H81.2515C82.2553 246.522 83.8853 249.083 86.0194 251.188C88.1534 253.293 90.7362 254.888 93.5742 255.853V259.147H89.3592C89.1018 259.148 88.8553 259.25 88.6721 259.431C88.489 259.612 88.3837 259.857 88.3789 260.114V262.433C87.7788 262.608 87.2311 262.928 86.7841 263.365C86.1042 264.046 85.7228 264.969 85.7237 265.932C85.7246 266.894 86.1079 267.817 86.7891 268.496C87.4703 269.176 88.3936 269.558 89.3561 269.557C90.3185 269.556 91.2411 269.173 91.921 268.491C92.2577 268.157 92.525 267.759 92.7074 267.321C92.8898 266.883 92.9838 266.413 92.9839 265.939C92.984 265.464 92.8902 264.994 92.708 264.556C92.5258 264.118 92.2587 263.72 91.9221 263.385H91.9109C91.4495 262.838 90.8398 262.593 90.2929 262.433V261.061H94.5211C94.7749 261.064 95.0193 260.965 95.2007 260.788C95.3821 260.61 95.4855 260.368 95.4883 260.114V256.403C96.6549 256.679 97.8451 256.845 99.0429 256.897V263.033C98.1949 263.264 97.4597 263.796 96.974 264.529C96.4883 265.262 96.285 266.146 96.4019 267.017C96.5189 267.889 96.948 268.688 97.6098 269.267C98.2715 269.846 99.1208 270.165 100 270.165C100.879 270.165 101.728 269.846 102.39 269.267C103.052 268.688 103.481 267.889 103.598 267.017C103.715 266.146 103.512 265.262 103.026 264.529C102.54 263.796 101.805 263.264 100.957 263.033V256.897C102.249 256.837 103.531 256.646 104.785 256.329V260.114C104.794 260.371 104.904 260.614 105.09 260.791C105.276 260.968 105.524 261.065 105.78 261.061H109.707V262.433C109.1 262.607 108.544 262.927 108.089 263.365C107.752 263.696 107.483 264.09 107.3 264.526C107.117 264.962 107.022 265.43 107.021 265.902C107.02 266.375 107.113 266.843 107.295 267.279C107.477 267.716 107.744 268.112 108.08 268.444H108.078C108.785 269.264 109.713 269.528 110.641 269.528C111.357 269.531 112.059 269.322 112.656 268.926C113.253 268.531 113.719 267.966 113.995 267.305C114.27 266.644 114.344 265.916 114.205 265.213C114.066 264.511 113.722 263.865 113.215 263.359C112.768 262.923 112.221 262.606 111.621 262.433V260.114C111.616 259.857 111.511 259.612 111.328 259.431C111.145 259.25 110.898 259.148 110.641 259.147H106.699V255.747C109.524 254.743 112.085 253.113 114.19 250.979C116.295 248.845 117.89 246.262 118.855 243.424H122.148V247.639C122.15 247.897 122.252 248.143 122.433 248.326C122.613 248.509 122.859 248.615 123.116 248.62H125.435C125.609 249.22 125.929 249.767 126.366 250.214C126.873 250.727 127.52 251.078 128.226 251.223C128.933 251.368 129.666 251.3 130.333 251.027C131.001 250.755 131.572 250.29 131.976 249.693C132.379 249.095 132.596 248.391 132.599 247.67C132.602 246.949 132.391 246.244 131.992 245.643C131.594 245.042 131.026 244.573 130.36 244.295C129.695 244.017 128.962 243.943 128.255 244.082C127.548 244.221 126.897 244.567 126.387 245.076V245.087C125.84 245.549 125.595 246.159 125.435 246.705H124.062V242.477C124.065 242.224 123.967 241.979 123.789 241.798C123.612 241.616 123.37 241.513 123.116 241.51H119.404C119.681 240.343 119.846 239.153 119.899 237.955H126.034ZM113.262 238.809C113.268 239.044 113.185 239.273 113.031 239.449C112.876 239.626 112.66 239.737 112.426 239.762L110.462 239.957C110.226 240.767 109.896 241.548 109.48 242.282L110.762 243.829C110.914 244.012 110.992 244.246 110.981 244.484C110.97 244.723 110.87 244.948 110.701 245.117L108.141 247.671C107.972 247.839 107.746 247.938 107.509 247.949C107.271 247.959 107.037 247.881 106.854 247.729L105.31 246.446C104.574 246.863 103.791 247.19 102.977 247.419L102.782 249.42C102.758 249.654 102.646 249.871 102.47 250.026C102.293 250.182 102.064 250.266 101.829 250.26H98.2021C97.9668 250.266 97.738 250.182 97.5614 250.026C97.3849 249.871 97.2735 249.654 97.2495 249.42L97.0545 247.431C96.2429 247.194 95.4615 246.865 94.7262 246.448L93.1777 247.732C92.9943 247.884 92.7609 247.962 92.523 247.951C92.2852 247.94 92.0599 247.841 91.8913 247.672L89.3319 245.117C89.1633 244.949 89.0638 244.723 89.0529 244.485C89.042 244.246 89.1205 244.013 89.273 243.829L90.5556 242.286C90.1384 241.552 89.811 240.77 89.5802 239.957L87.5747 239.762C87.3409 239.738 87.1249 239.626 86.9698 239.45C86.8147 239.273 86.732 239.044 86.7383 238.809V235.188C86.732 234.953 86.8147 234.724 86.9698 234.547C87.1249 234.371 87.3409 234.259 87.5747 234.235L89.569 234.039C89.8059 233.229 90.1356 232.449 90.5518 231.715L89.2695 230.169C89.1173 229.985 89.0392 229.751 89.0504 229.513C89.0616 229.275 89.1614 229.05 89.3302 228.881L91.8905 226.327C92.0593 226.159 92.2848 226.06 92.5227 226.049C92.7607 226.038 92.9941 226.117 93.1773 226.269L94.7211 227.552C95.457 227.135 96.2404 226.808 97.0544 226.578L97.2495 224.578C97.2733 224.343 97.3846 224.127 97.5612 223.971C97.7378 223.815 97.9667 223.731 98.2021 223.737H101.829C102.064 223.731 102.293 223.815 102.47 223.971C102.646 224.126 102.758 224.343 102.782 224.577L102.977 226.566C103.788 226.802 104.57 227.132 105.305 227.549L106.854 226.265C107.038 226.113 107.272 226.035 107.511 226.046C107.75 226.058 107.976 226.159 108.144 226.329L110.672 228.884C110.839 229.053 110.937 229.278 110.947 229.515C110.957 229.753 110.879 229.985 110.727 230.168L109.444 231.71C109.862 232.445 110.189 233.227 110.42 234.04L112.425 234.235C112.659 234.259 112.875 234.371 113.03 234.547C113.185 234.724 113.268 234.953 113.262 235.188V238.809Z" fill="url(#paint6_linear_2398_12934)"/>
<defs>
<filter id="filter0_d_2398_12934" x="84" y="136" width="32" height="32" filterUnits="userSpaceOnUse" color-interpolation-filters="sRGB">
<feFlood flood-opacity="0" result="BackgroundImageFix"/>
<feColorMatrix in="SourceAlpha" type="matrix" values="0 0 0 0 0 0 0 0 0 0 0 0 0 0 0 0 0 0 127 0" result="hardAlpha"/>
<feOffset dy="2"/>
<feGaussianBlur stdDeviation="5"/>
<feComposite in2="hardAlpha" operator="out"/>
<feColorMatrix type="matrix" values="0 0 0 0 0.203351 0 0 0 0 0.489538 0 0 0 0 0.920833 0 0 0 0.72 0"/>
<feBlend mode="normal" in2="BackgroundImageFix" result="effect1_dropShadow_2398_12934"/>
<feBlend mode="normal" in="SourceGraphic" in2="effect1_dropShadow_2398_12934" result="shape"/>
</filter>
<filter id="filter1_d_2398_12934" x="0" y="0.25" width="110.75" height="163.756" filterUnits="userSpaceOnUse" color-interpolation-filters="sRGB">
<feFlood flood-opacity="0" result="BackgroundImageFix"/>
<feColorMatrix in="SourceAlpha" type="matrix" values="0 0 0 0 0 0 0 0 0 0 0 0 0 0 0 0 0 0 127 0" result="hardAlpha"/>
<feOffset dy="2"/>
<feGaussianBlur stdDeviation="5"/>
<feComposite in2="hardAlpha" operator="out"/>
<feColorMatrix type="matrix" values="0 0 0 0 0 0 0 0 0 0.522727 0 0 0 0 1 0 0 0 0.6 0"/>
<feBlend mode="normal" in2="BackgroundImageFix" result="effect1_dropShadow_2398_12934"/>
<feBlend mode="normal" in="SourceGraphic" in2="effect1_dropShadow_2398_12934" result="shape"/>
</filter>
<linearGradient id="paint0_linear_2398_12934" x1="98.7655" y1="174.013" x2="98.7655" y2="299.566" gradientUnits="userSpaceOnUse">
<stop stop-color="#0085FF"/>
<stop offset="1" stop-color="#DBEEFF" stop-opacity="0.35"/>
</linearGradient>
<linearGradient id="paint1_linear_2398_12934" x1="98.7668" y1="174" x2="98.7668" y2="299.585" gradientUnits="userSpaceOnUse">
<stop stop-color="#00A3FF"/>
<stop offset="1" stop-color="#00C2FF"/>
</linearGradient>
<linearGradient id="paint2_linear_2398_12934" x1="72.632" y1="295.236" x2="72.632" y2="306.666" gradientUnits="userSpaceOnUse">
<stop stop-color="#0085FF"/>
<stop offset="1" stop-color="#00BBF9"/>
</linearGradient>
<linearGradient id="paint3_linear_2398_12934" x1="161.301" y1="192.669" x2="161.301" y2="260.171" gradientUnits="userSpaceOnUse">
<stop stop-color="#0F6BBF"/>
<stop offset="1" stop-color="#ACFAFF"/>
</linearGradient>
<linearGradient id="paint4_linear_2398_12934" x1="100.012" y1="231.475" x2="100.012" y2="242.521" gradientUnits="userSpaceOnUse">
<stop stop-color="#00A7F9"/>
<stop offset="1" stop-color="#164088"/>
</linearGradient>
<linearGradient id="paint5_linear_2398_12934" x1="100" y1="225.652" x2="100" y2="248.348" gradientUnits="userSpaceOnUse">
<stop stop-color="#00A7F9"/>
<stop offset="1" stop-color="#164088"/>
</linearGradient>
<linearGradient id="paint6_linear_2398_12934" x1="100" y1="203.832" x2="100" y2="270.165" gradientUnits="userSpaceOnUse">
<stop stop-color="#00A7F9"/>
<stop offset="1" stop-color="#164088"/>
</linearGradient>
</defs>
</svg>
